<svg width="107" height="77" fill="none" xmlns="http://www.w3.org/2000/svg">
  <path d="M42.034 28c0-8.837-7.18-16-16.017-16S10 19.163 10 28s7.18 16 16.017 16c8.836 0 16.017-7.163 16.017-16Z" fill="#FC3F1D"/>
  <path d="M28.069 21.065h-1.48c-2.713 0-4.14 1.373-4.14 3.397 0 2.288.986 3.361 3.012 4.734l1.674 1.126-4.81 7.181h-3.594l4.317-6.424c-2.484-1.777-3.876-3.502-3.876-6.424 0-3.66 2.555-6.16 7.4-6.16h4.81v18.99h-3.313v-16.42Z" fill="#fff"/>
  <path d="M50.286 18.243v19.09h3.327V30.52h1.622c4.345 0 7.122-2.005 7.122-6.235 0-3.845-2.585-6.043-7.094-6.043h-4.977Zm4.977 9.696h-1.65v-7.114h1.76c2.337 0 3.602 1.071 3.602 3.46 0 2.5-1.403 3.654-3.712 3.654ZM76.52 37.333l-5.032-19.09h-4.207l-5.059 19.09h2.86l1.072-4.175h5.857l1.044 4.175h3.465Zm-9.706-6.757 2.282-8.845 2.255 8.845h-4.537ZM89.937 18.243H86.83l-3.932 7.966-3.905-7.966H75.42l5.609 10.932v8.158h3.327v-8.158l5.582-10.932Z" fill="#000"/>
  <path d="M38 54.5a8.5 8.5 0 0 1 8.5-8.5h42a8.5 8.5 0 0 1 0 17h-42a8.5 8.5 0 0 1-8.5-8.5Z" fill="url(#a)"/>
  <path d="M38 54.5a8.5 8.5 0 0 1 8.5-8.5h42a8.5 8.5 0 0 1 0 17h-42a8.5 8.5 0 0 1-8.5-8.5Z" fill="url(#b)"/>
  <path d="M56.556 55.614h-.509V58h-1.312v-5.87h1.312v2.42h.554l1.867-2.42h1.38l-2.217 2.828L59.938 58h-1.55l-1.832-2.386Zm8.66 1.956a6.685 6.685 0 0 1-.305.181c-.12.06-.264.117-.43.17a4.358 4.358 0 0 1-1.323.192c-1.078 0-1.885-.268-2.42-.803-.528-.535-.792-1.286-.792-2.25 0-.476.072-.902.215-1.279.143-.377.343-.694.6-.95.256-.264.561-.464.915-.6a3.08 3.08 0 0 1 1.165-.214c.438 0 .83.071 1.177.215.354.143.644.358.87.644.227.287.381.641.464 1.064.09.422.094.916.012 1.481h-4.06c.052.536.23.939.53 1.21.302.264.774.396 1.414.396.468 0 .856-.056 1.166-.17.316-.12.584-.244.802-.373v1.086Zm-2.375-4.513c-.384 0-.708.117-.972.35-.264.235-.438.582-.52 1.042h2.76c.014-.475-.091-.826-.318-1.052-.226-.227-.542-.34-.95-.34ZM73.933 58h-7.578v-5.87h1.312v4.807h1.821V52.13H70.8v4.807h1.81V52.13h1.323V58Zm6.75-2.918c0 .49-.075.924-.226 1.3-.15.378-.358.694-.622.95a2.567 2.567 0 0 1-.927.589 3.367 3.367 0 0 1-1.154.192 3.08 3.08 0 0 1-1.165-.215 2.444 2.444 0 0 1-.916-.645 3.287 3.287 0 0 1-.61-1.085c-.144-.438-.216-.95-.216-1.538 0-.536.023-1.026.068-1.47.045-.446.12-.845.226-1.2.113-.354.264-.663.453-.927.188-.272.43-.505.724-.702a2.88 2.88 0 0 1 1.108-.418c.4-.06.807-.098 1.222-.113.46-.023.806-.06 1.04-.113a2.62 2.62 0 0 0 .6-.226v1.165c-.083.052-.17.098-.26.135-.09.03-.197.057-.317.08-.12.022-.26.045-.419.067-.158.015-.343.03-.554.046-.384.037-.735.075-1.052.113-.316.03-.6.124-.848.282a1.715 1.715 0 0 0-.633.815c-.136.347-.227.769-.272 1.267.377-.852 1.105-1.278 2.183-1.278.347 0 .675.067.984.203.317.128.592.317.826.566.233.248.418.554.554.916.136.362.203.776.203 1.244Zm-2.929 1.934c.46 0 .837-.155 1.131-.464.302-.316.453-.799.453-1.447 0-.649-.151-1.128-.453-1.437-.294-.317-.67-.475-1.13-.475-.453 0-.826.155-1.12.464-.287.309-.43.784-.43 1.425 0 .663.147 1.154.44 1.47.295.31.664.464 1.11.464Zm8.404-1.957c0 .483-.071.913-.215 1.29a2.69 2.69 0 0 1-.61.961 2.774 2.774 0 0 1-.962.6 3.757 3.757 0 0 1-1.278.203c-.43 0-.795-.045-1.097-.136a3.186 3.186 0 0 1-.735-.339v-1.086c.234.136.486.25.758.34.279.082.61.124.995.124 1.048 0 1.64-.494 1.776-1.482h-2.387v-1.063h2.376c-.159-.912-.74-1.368-1.742-1.368-.37 0-.69.041-.962.124-.264.083-.512.2-.746.35v-1.085c.18-.136.426-.249.735-.34.31-.09.667-.135 1.075-.135.965 0 1.707.267 2.228.803.527.528.791 1.274.791 2.24Zm2.69.555h-.508V58h-1.313v-5.87h1.313v2.42h.554l1.866-2.42h1.38l-2.217 2.828L92.23 58h-1.55l-1.832-2.386Z" fill="#fff"/>
  <path fill-rule="evenodd" clip-rule="evenodd" d="m47.913 56.749.572-2.73h2.49a4.5 4.5 0 1 1-3.073-3.796l-.535 2.496h-2.509l-.273 1.3h2.509l-.585 2.73h1.404Zm1.246-5.88-.388 1.85h1.863a4.516 4.516 0 0 0-1.475-1.85Z" fill="#fff"/>
  <defs>
    <radialGradient id="a" cx="0" cy="0" r="1" gradientUnits="userSpaceOnUse" gradientTransform="rotate(163.926 45.252 29.848) scale(61.4003 49.4469)">
      <stop stop-color="#48CCE0"/>
      <stop offset=".288" stop-color="#428BEB"/>
      <stop offset=".602" stop-color="#505ADD"/>
    </radialGradient>
    <radialGradient id="b" cx="0" cy="0" r="1" gradientUnits="userSpaceOnUse" gradientTransform="matrix(59 0 0 48.2262 38 63)">
      <stop stop-color="#FCAB14"/>
      <stop offset=".159" stop-color="#FA6641"/>
      <stop offset=".402" stop-color="#BE40C0"/>
      <stop offset="1" stop-color="#505ADD" stop-opacity="0"/>
    </radialGradient>
  </defs>
</svg>
