<svg viewBox="0 0 63 22" width="63" height="22" fill="none" xmlns="http://www.w3.org/2000/svg">
    <path fill="#FC3F1D" d="M0 11C0 4.925 4.925 0 11 0s11 4.925 11 11-4.925 11-11 11S0 17.075 0 11Z"/>
    <path fill="#FFF" d="M12.547 17.614h2.298v-13.2h-3.343c-3.361 0-5.128 1.728-5.128 4.273 0 2.033.969 3.23 2.697 4.464l-3 4.463h2.487l3.343-4.995-1.159-.779c-1.405-.95-2.089-1.69-2.089-3.286 0-1.405.988-2.355 2.868-2.355h1.026v11.415Z"/>
    <path fill="#FFF" d="M30.324 3.93v13.498H27.5V3.93h2.824Zm3.602 6.532c.432-.153.78-.404 1.002-.753.223-.35.348-.81.348-1.382 0-.782-.223-1.354-.682-1.731-.445-.377-1.168-.572-2.128-.572h-3.589V3.93h3.464c1.961 0 3.422.363 4.381 1.102.96.726 1.433 1.83 1.433 3.295 0 1.089-.236 1.954-.71 2.61-.472.656-1.14 1.13-1.988 1.424-.849.293-1.906.446-3.13.446h-3.45v-2.121h3.464c.612.014 1.14-.07 1.585-.224ZM49.57 15.04c0 .404.014.795.028 1.186.014.39.056.796.097 1.2h-2.712a8.682 8.682 0 0 1-.111-.432 3.784 3.784 0 0 1-.112-.545h-.097a6.913 6.913 0 0 1-.779.53 3.527 3.527 0 0 1-1.085.42c-.431.111-.96.167-1.572.167-1.085 0-1.947-.265-2.601-.796-.654-.53-.974-1.284-.974-2.247 0-.768.223-1.382.654-1.857.431-.474 1.113-.837 2.017-1.046.904-.21 2.1-.335 3.547-.335h.89v-.391c0-.335-.083-.614-.264-.838-.18-.223-.431-.377-.779-.46a5.33 5.33 0 0 0-1.252-.126c-.514 0-1.03.042-1.558.125a8.859 8.859 0 0 0-1.419.336c-.417.14-.765.279-1.029.418V8.325c.431-.223 1.03-.419 1.794-.572.766-.168 1.642-.237 2.643-.237 1.058 0 1.934.097 2.615.32.682.21 1.197.573 1.544 1.076.348.502.515 1.172.515 1.996v4.132Zm-2.796-2.108h-.834c-.835 0-1.503.042-2.003.14-.501.097-.863.25-1.085.46-.223.223-.334.516-.334.893 0 .28.07.53.194.726.126.196.334.35.599.46.264.112.612.182 1.029.182.556 0 1.03-.098 1.447-.279a2.72 2.72 0 0 0 1.001-.754v-1.828h-.014ZM52.826 20.177v-2.024c.18.112.375.21.612.266.222.07.486.097.806.097.334 0 .612-.042.835-.14.223-.097.417-.25.57-.446.153-.195.292-.433.431-.712l-.055.838-4.646-10.4H54.3l3.505 8.445-.946.098 3.325-8.543h2.67l-3.936 9.339c-.25.6-.514 1.102-.793 1.535a5.117 5.117 0 0 1-.946 1.075 3.122 3.122 0 0 1-1.182.628c-.431.126-.96.196-1.544.196a4.52 4.52 0 0 1-1.627-.252Z"/>
</svg>