<svg width="30" height="36" viewBox="0 0 30 36" fill="none" xmlns="http://www.w3.org/2000/svg">
<path fill-rule="evenodd" clip-rule="evenodd" d="M6.52881 5.04133C7.72144 4.70659 8.25611 3.90525 8.25611 2.78947V2.72861C8.25611 0.923061 7.06348 0 4.72953 0H0V10.5087H4.92488C7.41302 10.5087 8.6571 9.50448 8.6571 7.56706V7.50621C8.6571 6.09625 7.91681 5.3152 6.52881 5.04133ZM2.35448 1.63311H4.32855C5.45952 1.63311 5.96332 2.0287 5.96332 2.91119V2.97205C5.96332 3.91539 5.52121 4.32114 4.33883 4.32114H2.35448V1.63311ZM6.27177 7.37432C6.27177 8.32784 5.73712 8.85531 4.54446 8.85531H2.35448V5.85281H4.43136C5.73712 5.85281 6.27177 6.3397 6.27177 7.32365V7.37432ZM21.6966 22.5592C22.4678 23.0968 23.4445 23.3706 24.6269 23.3706C25.9224 23.3706 26.9506 23.0867 27.6908 22.5288C28.4311 21.9709 28.8012 21.0884 28.8012 19.8915C28.8012 19.2017 28.6265 18.654 28.2872 18.2482C27.9479 17.8424 27.5366 17.5382 27.0637 17.3454C26.5907 17.1527 25.9738 16.9599 25.2438 16.7774C24.74 16.6557 24.3494 16.5441 24.0512 16.4427C23.7632 16.3412 23.5268 16.2093 23.3315 16.0369C23.1464 15.8645 23.0538 15.6515 23.0538 15.3979C23.0538 15.1037 23.2081 14.8602 23.5063 14.6777C23.8044 14.4951 24.2259 14.4038 24.7709 14.4038C25.2953 14.4038 25.6962 14.5154 25.9944 14.7385C26.2925 14.9617 26.4365 15.266 26.4365 15.6515V15.7935H28.5853V15.6109C28.5853 14.5864 28.2255 13.8155 27.5058 13.2982C26.7861 12.7808 25.8607 12.5171 24.7297 12.5171C23.9895 12.5171 23.3211 12.6287 22.7249 12.862C22.1285 13.0953 21.6555 13.4402 21.2957 13.9169C20.9461 14.3937 20.7611 14.9617 20.7611 15.6413C20.7611 16.3716 20.9359 16.9498 21.2751 17.3759C21.6247 17.812 22.0257 18.1163 22.4986 18.3192C22.9716 18.512 23.5782 18.7046 24.3288 18.9075C24.8326 19.0293 25.2233 19.1409 25.5009 19.2423C25.7785 19.3437 26.0149 19.4756 26.1897 19.6379C26.3748 19.8103 26.4673 20.0233 26.4673 20.287C26.4673 20.6319 26.3131 20.9261 26.0149 21.1492C25.7168 21.3724 25.2233 21.484 24.5344 21.484C23.9484 21.484 23.4857 21.3522 23.1567 21.0884C22.8277 20.8247 22.6734 20.4696 22.6734 20.0233L22.6837 19.7799H20.5246L20.5143 20.1146C20.5349 21.2 20.9255 22.0114 21.6966 22.5592ZM14.8078 12.6486C15.6612 12.6486 16.4323 12.8413 17.1315 13.2065C17.8307 13.5717 18.3858 14.1092 18.7971 14.8294C19.2083 15.5395 19.414 16.3713 19.414 17.3349V18.5318C19.414 19.4955 19.2083 20.3272 18.7971 21.0373C18.3858 21.7473 17.8307 22.2849 17.1315 22.6501C16.4323 23.0254 15.6612 23.208 14.8078 23.208H10.6027V12.6486H14.8078ZM16.3706 20.6721C16.7819 20.2461 16.9772 19.6476 16.9772 18.8666V16.99C16.9772 16.2089 16.7716 15.6105 16.3706 15.1845C15.9697 14.7584 15.4453 14.5454 14.8078 14.5454H12.9366V21.3112H14.8078C15.4453 21.3112 15.9697 21.0981 16.3706 20.6721ZM2.37504 12.6489L6.22036 19.8305L6.11755 12.6489H8.24587V23.2084H8.02994H5.87079L2.01519 16.0267L2.118 23.2084H0V12.6489H0.215913H2.37504ZM14.5 25.1566C15.3534 25.1566 16.1451 25.3392 16.8443 25.7145C17.5434 26.0796 18.1089 26.6274 18.5304 27.3475C18.952 28.0576 19.1576 28.9097 19.1576 29.8835V31.3441C19.1576 32.3179 18.9417 33.17 18.5304 33.88C18.1089 34.59 17.5434 35.1378 16.8443 35.5131C16.217 35.8478 15.4974 36 14.5 36C13.5027 36 12.7727 35.8478 12.1456 35.5131C11.4361 35.1479 10.8706 34.59 10.4594 33.88C10.0378 33.17 9.83222 32.3179 9.83222 31.3441V29.8835C9.83222 28.9097 10.0481 28.0576 10.4594 27.3475C10.8809 26.6375 11.4464 26.0898 12.1456 25.7145C12.855 25.3493 13.6466 25.1566 14.5 25.1566ZM16.7106 31.689V29.5284C16.7106 28.7575 16.505 28.1591 16.0937 27.733C15.6824 27.3171 15.1478 27.1041 14.4897 27.1041C13.8317 27.1041 13.2971 27.3171 12.8859 27.733C12.4746 28.1591 12.2689 28.7575 12.2689 29.5284V31.689C12.2689 32.4599 12.4746 33.0685 12.8859 33.4844C13.2971 33.9003 13.8317 34.1133 14.4897 34.1133C15.1478 34.1133 15.6824 33.9003 16.0937 33.4844C16.505 33.0584 16.7106 32.4599 16.7106 31.689ZM28.3983 30.1364C28.6759 29.6394 28.8096 29.1017 28.8096 28.5134V28.4221C28.8096 27.8236 28.6656 27.2861 28.3881 26.8093C28.1105 26.3224 27.73 25.9471 27.2468 25.6834C26.7738 25.4095 26.2495 25.2776 25.6942 25.2776H20.9853V35.837H23.2986V31.7492H25.6942C26.27 31.7492 26.7944 31.6072 27.2674 31.3232C27.7403 31.029 28.1207 30.6334 28.3983 30.1364ZM26.4756 28.5742C26.4756 28.9191 26.3523 29.2336 26.0952 29.4872C25.8485 29.7509 25.5297 29.8828 25.1493 29.8828H23.2986V27.1542H25.1493C25.5401 27.1542 25.8588 27.2861 26.1055 27.5498C26.3523 27.8135 26.4756 28.1178 26.4756 28.483V28.5742ZM2.26195 29.4567H5.72684V25.2674H7.98881V35.8268H5.72684V31.4245H2.27223V35.8268H0V25.2674H2.26195V29.4567ZM14.2835 6.45128H12.9983V10.5087H10.6027V0H14.6537C15.908 0 16.9361 0.253588 17.6456 0.770905C18.3653 1.30851 18.7662 2.10985 18.7662 3.18507V3.24593C18.7662 4.05741 18.5401 4.64573 18.1391 5.10219C17.7381 5.55865 17.1829 5.8731 16.5763 6.04554H16.5557L18.9205 10.5087H16.4426L14.2938 6.45128H14.2835ZM14.592 1.82583H12.9983V4.83846H14.592C15.7949 4.83846 16.5043 4.33128 16.5043 3.32707V3.26621C16.5043 2.191 15.764 1.82583 14.592 1.82583ZM20.7483 5.77176V7.78015H24.8301L26.3209 10.5088H28.7885L23.0822 0.0711042H20.6146L23.7299 5.77176H20.7483ZM28.1408 34.2444C28.1408 34.356 28.1099 34.4372 28.0482 34.4879C27.9763 34.5386 27.9043 34.569 27.8118 34.5893L28.1613 35.137H27.9248L27.5959 34.5995H27.4005V35.137H27.1949V33.8894H27.6781C27.8324 33.8894 27.9557 33.9198 28.0277 33.9706C28.0997 34.0212 28.1408 34.1126 28.1408 34.2444ZM27.4005 34.4168H27.637H27.75L27.8426 34.3864L27.9043 34.3256C27.9146 34.2951 27.9248 34.2647 27.9248 34.214C27.9248 34.1734 27.9146 34.143 27.894 34.1227C27.8837 34.1025 27.8632 34.0821 27.8324 34.072C27.8015 34.0618 27.7707 34.0517 27.7398 34.0517H27.6472H27.4005V34.4168ZM27.6272 33.0375C26.8253 33.0375 26.1775 33.6867 26.1775 34.4778C26.1775 35.2691 26.8253 35.9182 27.6272 35.9182C28.4292 35.9182 29.0769 35.2691 29.0769 34.4778C29.0769 33.6765 28.4292 33.0375 27.6272 33.0375ZM27.6272 35.8066C26.8869 35.8066 26.2803 35.2082 26.2803 34.4677C26.2803 33.7272 26.8869 33.1288 27.6272 33.1288C28.3675 33.1288 28.9741 33.7272 28.9741 34.4677C28.9741 35.2082 28.3778 35.8066 27.6272 35.8066Z" fill="black"/>
</svg>
