<svg id="59e00987-f280-4e26-bbb7-2dd1c91c0b96" data-name="Layer 1" xmlns="http://www.w3.org/2000/svg" viewBox="0 0 481 45"><title>new_logo_blue</title><path d="M45.2295,275.6006H34.5986V256.4512H20.1309v19.1494H9.5V232.3989H20.1309v15.8125H34.5986V232.3989H45.2295v43.2017Zm47.2978-21.5869q0,10.4751-5.4853,16.4804Q81.5547,276.5,72.0049,276.5q-9.5787,0-15.0361-6.0781-5.458-6.0792-5.4581-16.4082,0-10.41435,5.4581-16.4649,5.4564-6.049,15.0361-6.0488,9.5508,0,15.0371,6.02Q92.5263,243.5413,92.5273,254.0137Zm-10.9716-.0283a23.97716,23.97716,0,0,0-.7823-6.5718,13.66646,13.66646,0,0,0-2.0888-4.4532,8.09492,8.09492,0,0,0-3.084-2.539,8.93708,8.93708,0,0,0-7.1201-.0576,8.55255,8.55255,0,0,0-3.0694,2.5381,13.28112,13.28112,0,0,0-2.1181,4.4682,28.22178,28.22178,0,0,0-.043,13.2451,13.53245,13.53245,0,0,0,2.1035,4.3955,7.97572,7.97572,0,0,0,3.0986,2.5674,8.7255,8.7255,0,0,0,3.5811.7686,8.48022,8.48022,0,0,0,3.6387-.8262,7.961,7.961,0,0,0,3.041-2.5684,14.32442,14.32442,0,0,0,2.1035-4.3955A23.92041,23.92041,0,0,0,81.5557,253.9854Zm45.5078,21.6152H98.8096V232.3989h10.6299v34.9615h17.624v8.2402Zm43.6015-21.5869q0,10.4751-5.4853,16.4804Q159.6939,276.5,150.1436,276.5q-9.5802,0-15.0362-6.0781-5.4579-6.0792-5.458-16.4082,0-10.41435,5.458-16.4649,5.45655-6.049,15.0362-6.0488,9.5493,0,15.0361,6.02Q170.6655,243.5413,170.665,254.0137Zm-10.9707-.0283a24.01627,24.01627,0,0,0-.7822-6.5718,13.687,13.687,0,0,0-2.0889-4.4532,8.10871,8.10871,0,0,0-3.0839-2.539,8.93731,8.93731,0,0,0-7.1202-.0576,8.56388,8.56388,0,0,0-3.0703,2.5381,13.30181,13.30181,0,0,0-2.1172,4.4682,28.18874,28.18874,0,0,0-.0429,13.2451,13.53245,13.53245,0,0,0,2.1035,4.3955,7.97314,7.97314,0,0,0,3.0976,2.5674,8.73007,8.73007,0,0,0,3.5821.7686,8.486,8.486,0,0,0,3.6386-.8262,7.96862,7.96862,0,0,0,3.0411-2.5684,14.34729,14.34729,0,0,0,2.1035-4.3955A23.92089,23.92089,0,0,0,159.6943,253.9854Zm55.0577,0.0576a22.3149,22.3149,0,0,1-2.587,10.8086,19.60129,19.60129,0,0,1-6.53711,7.3252,18.111,18.111,0,0,1-7.1777,2.7998,52.00614,52.00614,0,0,1-8.2568.624H176.9473V232.3989h13.1328a56.79567,56.79567,0,0,1,8.3564.5806,18.06544,18.06544,0,0,1,7.3047,2.8144,19.23,19.23,0,0,1,6.5947,7.355A23.23541,23.23541,0,0,1,214.752,254.043Zm-10.91511-.086a16.9374,16.9374,0,0,0-1.4355-7.2973,10.59087,10.59087,0,0,0-4.42-4.7442,10.12964,10.12964,0,0,0-4.5332-1.3344q-2.3745-.115-5.6709-0.1158h-0.1992v27.0406h0.1992q3.58156,0,6.0401-.1309a9.47744,9.47744,0,0,0,4.6758-1.5518,10.71745,10.71745,0,0,0,3.9795-4.6425A17.19478,17.19478,0,0,0,203.83689,253.957ZM242.124,275.6006H219.32809v-7.544h6.083V239.9429h-6.083v-7.544H242.124v7.544h-6.082v28.1137h6.082v7.544Zm35.30369,0h-28.2539V232.3989h10.6299v34.9615h17.624v8.2402Zm41.3282,0h-10.2325L292.208,245.4844v30.1162h-9.72071V232.3989h13.0469l13.501,24.7486V232.3989h9.7207v43.2017Zm29.6757,0h-22.7968v-7.544h6.082V239.9429h-6.082v-7.544h22.7968v7.544h-6.0839v28.1137h6.0839v7.544Zm44.1416,0h-12.8466l-11.5411-17.5537-2.0751,2.9599v14.5938h-10.6299V232.3989h10.6299v19.1782l13.5302-19.1782h12.3067l-15.0928,20.0484Z" transform="translate(-9.5 -231.5)" style="fill:#00a0df"/><path d="M405.17089,275.5908h-10.0352V264.1875h10.0352v11.4033Zm47.45511,0H439.69919L427.93459,259.75h-3.7979v15.8408h-10.5459V232.3892h16.9805a36.49021,36.49021,0,0,1,6.123.4497,12.88072,12.88072,0,0,1,4.8194,1.8715,11.18847,11.18847,0,0,1,3.6006,3.7574,11.33942,11.33942,0,0,1,1.331,5.7881,13.65283,13.65283,0,0,1-2.1816,8.0507,15.45511,15.45511,0,0,1-5.8408,4.918Zm-17.06551-29.9712a6.02271,6.02271,0,0,0-.6093-2.7998,4.051,4.051,0,0,0-2.0274-1.8135,7.14765,7.14765,0,0,0-2.2109-.5507q-1.21875-.11655-3.0332-0.1167h-3.543v11.6347h3.0332a21.61658,21.61658,0,0,0,3.7559-.2763,5.51722,5.51722,0,0,0,2.6221-1.1744,5.06311,5.06311,0,0,0,1.5166-1.9438A7.4635,7.4635,0,0,0,435.56049,245.6196Zm37.25,30.8706q-8.50335,0-13.083-4.207-4.57755-4.20705-4.5771-12.3018V232.3892H465.752v26.9546q0,4.497,1.65909,6.7011,1.65825,2.20605,5.3994,2.2051,3.65777,0,5.3721-2.1172,1.7154-2.11815,1.7149-6.789V232.3892H490.5v27.5629q0,7.9791-4.46481,12.2588Q481.57029,276.4913,472.81049,276.4902Z" transform="translate(-9.5 -231.5)" style="fill:#ffb100"/></svg>