<svg width="32" height="32" viewBox="0 0 32 32" fill="none" xmlns="http://www.w3.org/2000/svg">
<path fill-rule="evenodd" clip-rule="evenodd" d="M16.0007 2C17.9805 2 18.6028 3.36561 19.1237 4.73282C19.3439 5.31043 24.4866 18.8713 24.6403 19.2778C24.6835 19.3898 24.6553 19.5778 24.4741 19.6442C24.375 19.6802 23.5436 19.991 22.7799 20.2765L22.7793 20.2767C22.135 20.5176 21.5389 20.7404 21.4716 20.765C21.3218 20.8159 21.1574 20.7414 21.1027 20.5978C21.0708 20.5163 20.6824 19.481 20.3384 18.5644L20.3375 18.5618C20.0908 17.9045 19.8673 17.3088 19.815 17.1705H12.1964L10.9004 20.5978C10.8489 20.7338 10.6885 20.825 10.5323 20.7658C10.4155 20.7205 8.8998 20.1546 8.06635 19.8433L8.06613 19.8433L7.53309 19.6442C7.38239 19.5868 7.30677 19.4242 7.36278 19.2778C7.46129 19.0131 8.8783 15.2771 10.2523 11.6545L10.2535 11.6513C11.5209 8.30969 12.7513 5.06559 12.876 4.73282C13.3762 3.38721 14.0226 2 16.0007 2ZM6.95565 26.2632C6.87808 26.264 6.80404 26.2945 6.74982 26.3479C6.6956 26.4013 6.66564 26.4733 6.66652 26.548V29.716C6.66652 29.8736 6.7953 30 6.95565 30H25.0465C25.1238 29.999 25.1975 29.9683 25.2512 29.9149C25.305 29.8615 25.3345 29.7896 25.3332 29.7152V26.5472C25.3343 26.4729 25.3047 26.4013 25.251 26.348C25.1972 26.2947 25.1237 26.2642 25.0465 26.2632H6.95565ZM13.4087 13.878L15.9858 6.42838H16.0182L18.6029 13.878H13.4087Z" fill="white"/>
</svg>
