<svg width="32" height="32" viewBox="0 0 32 32" fill="none" xmlns="http://www.w3.org/2000/svg">
<path d="M5.14612 25.9101H28.1124V6.08984C4.2023 26.5393 7.66297 23.7078 5.14612 25.9101Z" fill="#00858A"/>
<path d="M21.5056 17.7305V18.9889C22.1348 19.9327 23.7078 23.0788 21.5056 23.0788V24.3372C24.6517 24.3372 24.0225 21.1911 23.0786 18.9889H24.9663V24.3372H26.2247V17.7305H21.5056ZM21.191 18.9889V17.7305H16.7865V24.3372H20.5618C21.191 24.3372 21.191 23.3934 21.191 22.7642C21.191 22.135 20.5618 20.2473 20.2472 20.2473H18.9887C18.9887 20.8765 20.2472 22.4496 19.618 23.0788H18.0449V18.9889H21.191Z" fill="#FEFEFE"/>
<path d="M27.7977 14.2696L29.6853 11.1235L20.5618 13.0112C23.0786 13.0112 25.2809 13.3258 27.7977 14.2696ZM13.6404 14.8988C16.1573 13.6404 18.9887 13.3258 20.5618 13.0112C20.2471 13.0112 13.955 14.8988 13.6404 14.8988ZM13.6404 14.8988C11.4382 15.8426 9.23591 17.7303 9.55052 19.6179C9.86512 21.191 11.7528 22.1348 14.8988 22.764C15.2134 22.764 14.8988 23.0786 14.8988 23.0786C12.382 22.764 3.57299 22.4494 2.31456 20.2471C1.99996 18.3595 8.29209 16.4718 13.6404 14.8988Z" fill="#D7B56D"/>
</svg>
