<svg xmlns="http://www.w3.org/2000/svg" fill="none" viewBox="0 0 204 60">
  <path fill="#00858A" d="M5.66 47.84H47V12.16C3.96 48.97 10.2 43.87 5.66 47.84z"/>
  <path fill="#D7B56D" d="M46.44 26.89l3.4-5.67-16.43 3.4c4.53 0 8.5.57 13.03 2.27zm-25.49 1.13c4.53-2.27 9.63-2.83 12.46-3.4-.56 0-11.9 3.4-12.46 3.4zm0 0c-3.96 1.7-7.93 5.1-7.36 8.5.57 2.82 3.97 4.52 9.63 5.65.56 0 0 .57 0 .57-4.53-.57-20.39-1.13-22.65-5.1-.57-3.4 10.76-6.8 20.38-9.62z"/>
  <path fill="#FEFEFE" d="M35.11 33.11v2.27c1.13 1.7 3.96 7.36 0 7.36v2.27c5.66 0 4.53-5.67 2.83-9.63h3.4v9.63h2.26V33.1h-8.49zm-.57 2.27v-2.27h-7.92v11.9h6.8c1.12 0 1.12-1.7 1.12-2.83 0-1.14-1.13-4.53-1.7-4.53h-2.26c0 1.13 2.26 3.96 1.13 5.1h-2.83v-7.37h5.66z"/>
  <path fill="#000" d="M68.16 15.73V14H61v11.05h3.39c.63 0 1.2-.08 1.71-.25.51-.18.95-.42 1.3-.73.35-.3.62-.67.8-1.1.2-.44.29-.92.29-1.45 0-.51-.1-.98-.29-1.4a3 3 0 00-.8-1.1c-.35-.3-.79-.52-1.3-.68a5.46 5.46 0 00-1.71-.26h-1.25v-2.35h5.02zm-5.02 4.07h1.25c.33 0 .62.05.86.14a1.44 1.44 0 01.98.9 2.05 2.05 0 010 1.37 1.55 1.55 0 01-.98.98c-.24.1-.53.15-.86.15h-1.25V19.8zM75.55 25.05h2.14v-.13a2.8 2.8 0 01-.25-.74 5.93 5.93 0 01-.08-1.1v-3.52c0-.47-.09-.89-.27-1.25a2.47 2.47 0 00-.73-.9 3.32 3.32 0 00-1.12-.54 5.01 5.01 0 00-2.85.03 3.3 3.3 0 00-1.08.56 2.26 2.26 0 00-.91 1.82h2.11c0-.14.02-.28.06-.4a.82.82 0 01.2-.31 1 1 0 01.4-.22c.16-.06.35-.08.58-.08a2 2 0 01.66.1c.19.06.35.14.48.26.12.11.2.25.27.4.06.16.09.33.09.52v.49h-1.18c-.6 0-1.14.05-1.61.16-.47.1-.86.27-1.18.47a2.2 2.2 0 00-.8.88 2.63 2.63 0 00-.05 2.19c.14.3.34.56.6.77.24.22.55.4.9.51a3.56 3.56 0 002.5-.09 2.7 2.7 0 00.9-.64 4.65 4.65 0 00.22.76zm-2.02-1.48c-.2 0-.37-.02-.52-.06a1.23 1.23 0 01-.37-.2.89.89 0 01-.24-.31 1.24 1.24 0 01.03-.93c.07-.16.18-.3.33-.42.15-.1.34-.2.57-.26.23-.06.51-.1.84-.1h1.08v1.42a1.54 1.54 0 01-.63.59 2.28 2.28 0 01-1.09.27zM86.9 25.05v-8.21H84.8v3.32h-3.07v-3.32H79.6v8.21h2.12v-3.18h3.07v3.18h2.11zM92.38 21.98l2.17 3.07h2.8l-3.26-4.26 3.01-3.95h-2.66l-2.2 3.14h-1.1v-3.14h-2.11v8.21h2.11v-3.07h1.24zM69.08 31.79h-6.55l-.05 5.78a269.17 269.17 0 01-.04 1.26c-.01.33-.04.61-.07.85-.03.25-.07.45-.12.63-.08.27-.21.47-.38.61a.95.95 0 01-.62.2H61v1.72h.53c.5 0 .95-.1 1.33-.28.38-.19.7-.49.95-.91a5.75 5.75 0 00.67-2.11 11.3 11.3 0 00.11-1.28l.02-.69.04-4.05h2.29v9.32h2.14V31.8zM75.1 43c.8 0 1.48-.16 2.06-.47.59-.3 1.01-.65 1.28-1.03l-1.06-1.14c-.24.31-.56.55-.95.7-.39.16-.79.24-1.2.24-.3 0-.57-.04-.81-.14a2.1 2.1 0 01-1.39-1.72v-.02h5.58v-.9c0-.6-.09-1.15-.25-1.65a3.28 3.28 0 00-1.91-2.1c-.47-.2-1-.3-1.59-.3a4 4 0 00-1.58.32 3.73 3.73 0 00-2.1 2.21c-.19.52-.29 1.1-.29 1.72v.3a3.71 3.71 0 001.15 2.8c.38.37.82.65 1.33.86.52.21 1.1.31 1.73.31zm-.25-6.82a1.8 1.8 0 011.23.47 1.62 1.62 0 01.45 1.14v.17h-3.46c.05-.27.13-.51.23-.73.1-.22.23-.4.38-.56.15-.16.32-.28.51-.36.2-.08.42-.13.66-.13zM80.43 42.84h3.94c.53 0 1-.05 1.41-.14.42-.1.76-.25 1.05-.45.28-.2.5-.44.64-.73a2.2 2.2 0 00.12-1.65c-.08-.2-.2-.37-.34-.54a2.86 2.86 0 00-1.31-.68l-.1-.01c.2-.08.4-.16.56-.25.16-.1.3-.21.42-.33a1.57 1.57 0 00.48-1.14 1.98 1.98 0 00-.93-1.73c-.3-.19-.67-.33-1.1-.42-.42-.1-.9-.14-1.43-.14h-3.41v8.21zm2.1-3.42h1.84c.23 0 .42.02.58.07.16.04.29.1.38.2.1.07.16.16.2.27.04.1.06.21.06.34 0 .14-.02.26-.07.37-.04.1-.12.2-.22.27s-.22.13-.38.17c-.15.04-.34.05-.55.05h-1.83v-1.74zm0-1.44v-1.66h1.3c.25 0 .47.02.64.06.19.04.33.1.44.18.1.07.16.16.21.27a.88.88 0 010 .7.6.6 0 01-.23.24c-.1.07-.23.12-.39.15-.15.04-.34.06-.55.06h-1.41zM89.5 38.66v.16c0 .6.09 1.16.26 1.67.17.5.42.94.76 1.32.33.37.73.67 1.21.88.49.2 1.04.31 1.66.31.61 0 1.16-.1 1.64-.31s.88-.5 1.21-.88c.33-.38.58-.82.75-1.32a5.2 5.2 0 00.26-1.67v-.16c0-.6-.08-1.15-.26-1.66a3.52 3.52 0 00-1.97-2.2 4.04 4.04 0 00-1.65-.32c-.62 0-1.16.1-1.65.31-.47.22-.87.51-1.2.88-.34.38-.59.82-.76 1.33-.17.51-.26 1.06-.26 1.66zm2.11.16v-.16c0-.34.03-.65.1-.95.07-.3.17-.56.31-.79.14-.23.32-.4.55-.54.22-.13.49-.2.8-.2.32 0 .6.07.81.2.23.13.4.31.55.54.14.23.24.5.3.79.07.3.1.61.1.95v.16c0 .34-.03.67-.1.97-.06.3-.16.56-.3.78-.14.23-.32.4-.55.54-.22.13-.48.2-.8.2-.31 0-.58-.07-.81-.2-.23-.13-.4-.31-.55-.54a2.4 2.4 0 01-.31-.78c-.07-.3-.1-.63-.1-.97zM103.18 35.08a3.71 3.71 0 00-1.43.3c-.2.08-.38.2-.56.32a3.6 3.6 0 00-.5.42c.06-.37.17-.7.3-.97a2.54 2.54 0 011.18-1.16c.26-.12.54-.22.85-.28.52-.1.96-.22 1.32-.36.37-.13.67-.3.9-.51.24-.2.4-.46.52-.75.1-.3.16-.65.16-1.07h-1.7c0 .15-.04.28-.1.39-.06.1-.15.2-.28.27-.13.08-.3.14-.5.2l-.7.17c-.56.12-1.07.33-1.52.63-.46.3-.85.7-1.17 1.2-.17.27-.32.56-.45.9a10.18 10.18 0 00-.57 3.55v.46c0 .6.08 1.17.25 1.68.17.51.42.96.75 1.33.33.38.73.67 1.2.88.49.21 1.04.32 1.66.32.6 0 1.15-.1 1.63-.3.48-.2.88-.47 1.21-.81.33-.35.57-.77.74-1.25.17-.48.26-1 .26-1.57v-.16c0-.55-.08-1.05-.23-1.52a3.53 3.53 0 00-.67-1.21c-.3-.34-.65-.6-1.08-.8-.43-.2-.92-.3-1.47-.3zm-.4 1.71c.31 0 .58.06.8.18.23.1.4.26.54.45.14.2.24.43.3.68.06.26.1.53.1.8v.17c0 .3-.04.6-.1.87-.06.27-.16.51-.3.72-.13.2-.31.36-.54.47-.21.12-.48.18-.8.18-.31 0-.58-.06-.8-.18-.23-.11-.4-.27-.55-.47-.13-.2-.23-.45-.3-.72a4 4 0 01-.08-.87v-.16c0-.28.03-.55.09-.8.06-.26.16-.5.3-.69.13-.2.3-.34.53-.45.22-.12.49-.18.8-.18zM112.45 43c.8 0 1.48-.16 2.07-.47.58-.3 1-.65 1.27-1.03l-1.05-1.14c-.25.31-.56.55-.95.7-.4.16-.8.24-1.21.24-.3 0-.56-.04-.81-.14a2.1 2.1 0 01-1.38-1.72v-.02h5.57v-.9c0-.6-.08-1.15-.25-1.65a3.28 3.28 0 00-1.91-2.1c-.47-.2-1-.3-1.58-.3a4 4 0 00-1.6.32 3.73 3.73 0 00-2.08 2.21c-.2.52-.3 1.1-.3 1.72v.3c0 .55.1 1.07.3 1.56a4.03 4.03 0 002.19 2.1c.51.21 1.09.31 1.72.31zm-.25-6.82a1.79 1.79 0 011.23.47 1.61 1.61 0 01.46 1.14v.17h-3.47c.05-.27.13-.51.23-.73.1-.22.23-.4.38-.56a1.62 1.62 0 011.17-.49zM117.83 46h2.11v-3.87a2.72 2.72 0 00.64.52 3 3 0 001.4.34 2.88 2.88 0 002.38-1.2c.27-.37.47-.8.61-1.32a6.2 6.2 0 00.21-1.66v-.16c0-.62-.07-1.19-.21-1.7a3.89 3.89 0 00-.61-1.33 2.8 2.8 0 00-1.02-.84c-.4-.2-.86-.3-1.38-.3a2.94 2.94 0 00-1.31.3 2.43 2.43 0 00-.79.65l-.08-.8h-1.95V46zm5.24-7.35v.16c0 .34-.03.66-.09.96-.06.3-.16.57-.29.8a1.39 1.39 0 01-1.27.74c-.19-.01-.36-.03-.51-.06a1.54 1.54 0 01-.96-.8v-3.43c.06-.14.15-.27.24-.37a1.38 1.38 0 01.74-.4c.14-.04.3-.06.47-.06a1.43 1.43 0 011.28.7c.14.23.23.5.3.8.06.3.1.62.1.96zM131.13 43c.8 0 1.48-.16 2.06-.47.58-.3 1-.65 1.28-1.03l-1.06-1.14c-.24.31-.56.55-.95.7-.39.16-.79.24-1.2.24-.3 0-.57-.04-.82-.14a2.11 2.11 0 01-1.38-1.72v-.02h5.57v-.9c0-.6-.08-1.15-.25-1.65a3.27 3.27 0 00-1.91-2.1c-.46-.2-.99-.3-1.58-.3a4 4 0 00-1.58.32 3.73 3.73 0 00-2.1 2.21c-.19.52-.29 1.1-.29 1.72v.3a3.73 3.73 0 001.15 2.8c.38.37.82.65 1.33.86.52.21 1.1.31 1.73.31zm-.25-6.82a1.8 1.8 0 011.23.47 1.63 1.63 0 01.45 1.14v.17h-3.46c.05-.27.13-.51.23-.73.1-.22.23-.4.38-.56.14-.16.32-.28.51-.36.2-.08.42-.13.66-.13zM141.34 39.74l.95 3.1h2.14l-1.72-4.4 1.63-3.81h-2.14l-.94 3.1h-.32v-3.1h-1.83v3.1h-.32l-.94-3.1h-2.12l1.65 3.85-1.71 4.36h2.1l.94-3.1h.4v3.1h1.83v-3.1h.4zM152.97 42.84v-8.21h-2.12v3.32h-3.07v-3.32h-2.11v8.21h2.11v-3.19h3.07v3.2h2.12zM156.85 37.55v-2.92h-2.01v8.21h2.32c.5 0 .93-.07 1.3-.21a2.3 2.3 0 001.44-1.43 3.15 3.15 0 000-2.09 2.2 2.2 0 00-1.45-1.35c-.36-.14-.8-.21-1.29-.21h-.31zm5.95 5.3v-8.22h-2.13v8.21h2.13zm-5.95-3.83h.31c.23 0 .41.03.55.1a.8.8 0 01.3.28c.07.12.11.25.13.39a2.65 2.65 0 010 .77.72.72 0 01-.12.32.76.76 0 01-.31.23c-.14.06-.32.1-.55.1h-.31V39zM169.54 34.63l-3.09 5.24v-5.24h-2.1v8.21h2.1l3.1-5.24v5.24h2.1v-8.21h-2.1zm.97-3.37H169c0 .13-.02.26-.06.38a.83.83 0 01-.51.55c-.13.06-.3.08-.49.08-.2 0-.36-.02-.5-.08a.9.9 0 01-.51-.55 1.4 1.4 0 01-.06-.38h-1.52c0 .33.06.63.18.9s.3.5.52.7c.22.2.5.35.81.46.32.1.68.16 1.08.16s.75-.05 1.07-.16c.32-.11.6-.26.82-.46.23-.2.4-.43.51-.7.12-.27.18-.57.18-.9z"/>
</svg>
