<svg xmlns="http://www.w3.org/2000/svg" fill="none" viewBox="0 0 61 60"><defs/><path fill="#F33" fill-rule="evenodd" d="M30 60c12.143 0 30.714-13.431 30.714-30C60.714 7.857 50 0 30 0 13.431 0 0 15.714 0 30c0 19.286 12.003 30 30 30z" clip-rule="evenodd" opacity=".3"/><path fill="#F33" fill-rule="evenodd" d="M30 55.714c14.201 0 25.714-11.513 25.714-25.715 0-14.201-11.513-25.714-25.715-25.714C15.798 4.285 4.285 15.798 4.285 30c0 14.202 11.513 25.715 25.714 25.715z" clip-rule="evenodd"/><path fill="#fff" fill-rule="evenodd" d="M40.672 22.98a2.58 2.58 0 00-3.65-3.65l-7.023 7.023-7.023-7.023a2.58 2.58 0 10-3.65 3.65l7.023 7.023-7.023 7.023a2.58 2.58 0 003.65 3.65l7.023-7.024 7.023 7.023a2.58 2.58 0 003.65-3.65l-7.023-7.022 7.023-7.023z" clip-rule="evenodd"/></svg>