<svg xmlns="http://www.w3.org/2000/svg" viewBox="0 0 36 24">
  <path fill="#2591C4" d="M33.34 14.375s.45.258.45 1.232c0 1.21-.763 1.775-2.152 1.775h-2.116v-.305c-.244.197-.696.305-1.115.305h-6.674v-1.118c0-.129-.01-.14-.144-.14h-.108v1.258h-2.204v-1.298c-.363.158-.78.167-1.132.166h-.264v1.132l-2.662-.003-.656-.746-.693.749H9.547V12.58h4.406l.628.737.676-.737h2.953c.34 0 .893.032 1.144.277v-.277h2.635c.252 0 .785.05 1.106.277v-.277h3.99v.277c.2-.189.626-.277.98-.277h2.232v.277c.234-.172.574-.277 1.026-.277h2.018v1.795zM2.578 11.459l1.19-2.523.984-2.277h2.132l.281.566V6.66H9.66l.544 1.238.535-1.238h7.932c.359 0 .68.067.926.276V6.66h2.169v.276c.37-.206.836-.276 1.367-.276h3.144l.287.566V6.66h2.328l.326.566V6.66h2.267v4.801h-2.292l-.44-.729v.729H25.9l-.316-.77h-.703l-.32.77h-1.485c-.587 0-1.03-.145-1.31-.299v.299h-3.529v-1.092c0-.153-.024-.164-.122-.165l-.132-.001v1.258h-6.823v-.595l-.247.597H9.49l-.246-.588v.586H6.495l-.315-.77h-.703l-.316.77-2.584-.001z"/>
  <path fill="#fff" d="M33.014 15.624c0 .732-.456 1.086-1.285 1.086l-1.577-.002v-.737h1.572c.153 0 .262-.022.329-.084a.307.307 0 00.096-.226.285.285 0 00-.1-.227c-.06-.053-.145-.075-.284-.079-.764-.022-1.724.026-1.724-1.068 0-.494.312-1.025 1.171-1.023h1.63v.739H31.35c-.147 0-.246.003-.327.059-.085.055-.12.138-.12.247a.26.26 0 00.18.256c.084.03.176.036.312.04l.439.01c.454.01.75.086.934.278.162.17.246.373.246.73zm-3.44-.731c-.184-.192-.481-.269-.934-.278l-.438-.01a1.008 1.008 0 01-.314-.04.262.262 0 01-.179-.256c0-.109.035-.192.12-.247.081-.056.18-.06.328-.06h1.5v-.738h-1.64c-.857-.002-1.17.53-1.17 1.023 0 1.094.96 1.048 1.723 1.068.14.004.223.026.285.079.058.046.1.124.1.227a.307.307 0 01-.097.226c-.067.062-.175.084-.328.084h-1.586v.737l1.592.002c.828 0 1.284-.354 1.284-1.086 0-.358-.083-.561-.247-.731zm-3.117 1.1l-1.912-.002v-.682l1.867.002v-.71l-1.866.001v-.621h1.911v-.717h-2.73v3.444h2.73v-.716zm-3.602-2.562c-.265-.154-.57-.167-.984-.167h-1.884v3.444h.817v-1.253h.878c.297 0 .476.025.594.15.15.163.133.464.133.669v.434h.823v-.683c0-.299-.02-.457-.135-.624a.904.904 0 00-.402-.293.964.964 0 00.581-.914c0-.386-.16-.612-.421-.763zm-4.627-.167h-2.612l-1.042 1.13-1.002-1.13h-3.29v3.444h3.24l1.043-1.136 1.006 1.136h1.591v-1.152h1.016c.714 0 1.422-.201 1.422-1.154 0-.954-.727-1.138-1.372-1.138zm3.973 1.414c-.11.065-.242.07-.401.07h-.995v-.767h1.008c.144 0 .29.005.389.058.103.059.166.165.166.31 0 .148-.063.267-.166.329zm-3.98.17h-1.059v-.867h1.066c.294 0 .495.122.495.42 0 .297-.192.448-.502.448zm-3.128.146l1.251-1.357v2.757l-1.25-1.4zm-1.987.997h-2.008v-.682l1.79.002v-.71l-1.79.001v-.621h2.046l.896 1.001-.934 1.009zM30.752 10.8h-1.164l-1.546-2.582v2.581H26.38l-.314-.77h-1.7l-.315.77h-.95c-.402 0-.905-.091-1.189-.382-.286-.295-.433-.688-.433-1.316 0-.51.09-.977.439-1.344.263-.273.68-.403 1.244-.403h.78v.738h-.763c-.303 0-.474.045-.632.205-.145.145-.24.42-.24.78 0 .368.071.631.232.808.12.136.347.176.567.176h.368l1.15-2.707h1.217l1.385 3.259v-3.26h1.248l1.438 2.4v-2.4h.84V10.8zm-10.51 0h.838V7.352h-.837v3.446zm-.89-3.278c-.265-.154-.57-.168-.984-.168h-1.883v3.445h.816V9.545h.877c.298 0 .478.027.594.152.152.161.134.463.134.668v.434h.823v-.683c0-.299-.022-.458-.136-.625a.918.918 0 00-.402-.292.964.964 0 00.581-.914c0-.387-.158-.611-.42-.763zm-3.434 2.56h-1.912V9.4h1.867v-.708h-1.867v-.62h1.912v-.718h-2.73v3.445h2.73v-.717zM12.58 7.354h-1.36l-.984 2.336-1.066-2.336H7.832v3.26l-1.385-3.26H5.23l-1.464 3.445h.891l.314-.77h1.7l.316.77H8.65l-.001-2.702L9.837 10.8h.718l1.186-2.697V10.8h.838V7.354zM25.772 9.31l-.558-1.37-.557 1.37h1.115zm-7.074-.543c-.111.066-.243.07-.4.07H17.3v-.766h1.008c.144 0 .292.005.389.059.102.057.167.163.167.31s-.063.266-.167.327zm-13.435.543l.558-1.37.558 1.37H5.263z"/>
</svg>
