<svg xmlns="http://www.w3.org/2000/svg" viewBox="0 0 36 24">
  <path fill="#000" fill-opacity=".8" d="M9.813 7.904c.335-.401.5-.918.463-1.44-.513.05-.987.296-1.323.687-.338.38-.51.878-.476 1.385.52.01 1.013-.224 1.336-.632zM10.272 8.631c-.739-.044-1.367.42-1.718.42-.35 0-.882-.398-1.477-.387a2.176 2.176 0 00-1.852 1.127c-.794 1.369-.21 3.4.562 4.516.375.552.827 1.16 1.422 1.137.596-.022.783-.364 1.466-.364.684 0 .882.364 1.478.353.595-.01 1.003-.552 1.377-1.104.266-.391.474-.819.618-1.27a2.005 2.005 0 01-1.202-1.822c.01-.699.376-1.345.97-1.711a2.109 2.109 0 00-1.642-.884"/>
  <path fill="#000" fill-opacity=".8" fill-rule="evenodd" clip-rule="evenodd" d="M20.354 9.813c0-1.617-1.118-2.721-2.723-2.721h-3.1v8.284h1.283v-2.834h1.777c1.623 0 2.763-1.113 2.763-2.73zm-3.067 1.654h-1.473V8.178h1.488c1.114 0 1.749.597 1.749 1.641 0 1.045-.646 1.648-1.764 1.648zM22.968 11.893c-1.488.097-2.297.705-2.297 1.767 0 1.067.831 1.778 2.017 1.778a2.113 2.113 0 001.899-1.056h.028v.994h1.186v-4.123c0-1.195-.959-1.964-2.425-1.964-1.364 0-2.372.782-2.407 1.855h1.157c.097-.51.567-.843 1.215-.843.785 0 1.226.375 1.226 1.038v.457l-1.599.097zm1.601.766v.466c0 .776-.66 1.332-1.53 1.343-.677 0-1.118-.3-1.118-.832 0-.533.419-.833 1.221-.884l1.427-.093z"/>
  <path fill="#000" fill-opacity=".8" d="M26.89 17.591v-.994c.127.014.253.021.38.022.566 0 .882-.24 1.082-.86l.115-.368-2.172-6.027h1.34l1.513 4.892h.029l1.512-4.892h1.308l-2.254 6.332c-.515 1.454-1.102 1.928-2.354 1.928-.167.001-.333-.01-.498-.033zM35.673 22.362l-.891-.454.891.454zm-1.311 1.311l.454.891-.454-.891zm0-23.346l-.454.891.454-.891zm1.311 1.311l-.891.454.891-.454zM4.8 1h26.4v-2H4.8v2zM35 4.8v14.4h2V4.8h-2zM31.2 23H4.8v2h26.4v-2zM1 19.2V4.8h-2v14.4h2zM4.8 23c-.857 0-1.439 0-1.889-.038-.438-.035-.663-.1-.819-.18l-.908 1.782c.485.247 1.002.346 1.564.392C3.298 25 3.976 25 4.8 25v-2zM-1 19.2c0 .824 0 1.501.044 2.052.046.562.145 1.079.392 1.564l1.782-.908c-.08-.156-.145-.38-.18-.819C1 20.639 1 20.057 1 19.2h-2zm3.092 3.582a2 2 0 01-.874-.874l-1.782.908a4 4 0 001.748 1.748l.908-1.782zM35 19.2c0 .857 0 1.439-.038 1.889-.035.438-.1.663-.18.819l1.782.908c.247-.485.346-1.002.392-1.564.045-.55.044-1.228.044-2.052h-2zM31.2 25c.824 0 1.501 0 2.052-.044.562-.046 1.079-.145 1.564-.392l-.908-1.782c-.156.08-.38.145-.819.18-.45.037-1.032.038-1.889.038v2zm3.582-3.092a2 2 0 01-.874.874l.908 1.782a4 4 0 001.748-1.748l-1.782-.908zM31.2 1c.857 0 1.439 0 1.889.038.438.035.663.1.819.18l.908-1.782c-.485-.247-1.002-.346-1.564-.392C32.702-1 32.024-1 31.2-1v2zM37 4.8c0-.824 0-1.501-.044-2.052-.046-.562-.145-1.079-.392-1.564l-1.782.908c.08.156.145.38.18.819C35 3.361 35 3.943 35 4.8h2zm-3.092-3.582a2 2 0 01.874.874l1.782-.908a4 4 0 00-1.748-1.748l-.908 1.782zM4.8-1c-.824 0-1.501 0-2.052.044-.562.046-1.079.145-1.564.392l.908 1.782c.156-.08.38-.145.819-.18C3.361 1 3.943 1 4.8 1v-2zM1 4.8c0-.857 0-1.439.038-1.889.035-.438.1-.663.18-.819l-1.782-.908c-.247.485-.346 1.002-.392 1.564C-1 3.298-1 3.976-1 4.8h2zm.184-5.364A4 4 0 00-.564 1.184l1.782.908a2 2 0 01.874-.874L1.184-.564z"/>
</svg>
