<svg xmlns="http://www.w3.org/2000/svg" viewBox="0 0 36 24">
  <path fill="#fa9429" d="M5.869 12.803c-.291.263-.67.379-1.268.379h-.248V10.03H4.6c.599 0 .962.108 1.268.386.32.286.513.73.513 1.186 0 .457-.193.915-.513 1.2zm-1.082-3.58h-1.36v4.765H4.78c.719 0 1.238-.17 1.694-.55.542-.45.862-1.128.862-1.83 0-1.406-1.047-2.385-2.55-2.385zM7.762 13.988h.927V9.223h-.927v4.765zM10.954 11.052c-.556-.207-.72-.343-.72-.6 0-.3.291-.529.69-.529.278 0 .506.115.748.386l.484-.637a2.073 2.073 0 00-1.395-.528c-.84 0-1.481.586-1.481 1.365 0 .657.298.993 1.168 1.307.363.129.547.214.64.272a.57.57 0 01.278.493c0 .386-.306.672-.719.672-.442 0-.798-.222-1.011-.636l-.598.579c.426.628.939.907 1.644.907.962 0 1.638-.642 1.638-1.565 0-.757-.313-1.1-1.366-1.486zM12.612 11.609c0 1.4 1.096 2.487 2.506 2.487.4 0 .74-.079 1.162-.278v-1.094c-.37.372-.699.522-1.119.522-.932 0-1.595-.679-1.595-1.644 0-.915.684-1.637 1.552-1.637.442 0 .777.159 1.162.536V9.408c-.407-.207-.741-.293-1.14-.293-1.403 0-2.528 1.108-2.528 2.494zM23.624 12.424l-1.266-3.201h-1.012l2.015 4.888h.499l2.051-4.888h-1.004l-1.283 3.2zM26.33 13.988h2.627v-.806h-1.701v-1.287h1.639v-.807h-1.64V10.03h1.702v-.807H26.33v4.765zM30.767 11.417h-.271V9.973h.285c.577 0 .89.243.89.707 0 .479-.313.737-.904.737zm1.858-.787c0-.892-.612-1.407-1.68-1.407H29.57v4.765h.925v-1.914h.12l1.283 1.914h1.139l-1.495-2.007c.698-.143 1.082-.622 1.082-1.351zM33.103 9.438h-.017v-.109h.018c.05 0 .075.018.075.054 0 .036-.026.055-.076.055zm.175-.057c0-.083-.057-.129-.157-.129h-.135v.418h.1v-.162l.117.162h.122l-.138-.172c.059-.016.092-.059.092-.117z"/>
  <path fill="#fa9429" d="M33.14 9.76a.295.295 0 01-.29-.298c0-.167.128-.3.29-.3.158 0 .287.136.287.3 0 .164-.13.299-.288.299zm0-.664a.362.362 0 00-.363.365c0 .203.163.365.364.365.197 0 .359-.164.359-.365 0-.2-.162-.365-.36-.365zM19.143 14.375c1.47 0 2.66-1.195 2.66-2.67a2.665 2.665 0 00-2.66-2.67 2.665 2.665 0 00-2.66 2.67 2.665 2.665 0 002.66 2.67z"/>
</svg>
