<svg xmlns="http://www.w3.org/2000/svg" viewBox="0 0 36 24">
  <path fill="#000" fill-opacity=".8" d="M3 1h30v-2H3v2zm32 2v18h2V3h-2zm-2 20H3v2h30v-2zM1 21V3h-2v18h2zm2 2a2 2 0 01-2-2h-2a4 4 0 004 4v-2zm32-2a2 2 0 01-2 2v2a4 4 0 004-4h-2zM33 1a2 2 0 012 2h2a4 4 0 00-4-4v2zM3-1a4 4 0 00-4 4h2a2 2 0 012-2v-2z"/>
  <path fill="#000" fill-opacity=".8" d="M17.624 8.494v2.93h1.81c.432 0 .788-.145 1.07-.434.29-.289.435-.633.435-1.031 0-.39-.145-.73-.434-1.02a1.413 1.413 0 00-1.07-.445h-1.811zm0 3.961v3.398h-1.082v-8.39h2.87c.728 0 1.347.243 1.857.726.517.485.776 1.074.776 1.77a2.32 2.32 0 01-.777 1.78c-.501.478-1.12.715-1.857.715h-1.787v.001zm5.514 1.64c0 .282.12.516.359.704.239.187.519.281.84.281.455 0 .86-.168 1.217-.504.357-.336.535-.73.535-1.183-.338-.266-.808-.398-1.411-.398-.44 0-.805.105-1.1.316-.293.211-.44.472-.44.785zm1.4-4.171c.8 0 1.43.213 1.893.638.462.427.693 1.01.693 1.753v3.538H26.09v-.796h-.047c-.446.656-1.042.984-1.787.984-.635 0-1.166-.188-1.593-.563a1.795 1.795 0 01-.64-1.405c0-.595.224-1.067.675-1.419.45-.35 1.052-.527 1.805-.527.642 0 1.172.117 1.587.351v-.246c0-.375-.15-.693-.447-.955a1.535 1.535 0 00-1.046-.393c-.604 0-1.082.255-1.435.763l-.952-.598c.525-.75 1.3-1.125 2.328-1.125zm8.523.187l-3.61 8.274h-1.116l1.34-2.895-2.375-5.379h1.176l1.716 4.125h.024l1.67-4.125h1.175z"/>
  <path fill="#4285f4" d="M13.253 11.722c0-.34-.029-.667-.083-.98H8.608v1.857h2.613a2.232 2.232 0 01-.966 1.465v1.206h1.559c.913-.84 1.439-2.08 1.439-3.548z"/>
  <path fill="#34a853" d="M8.608 16.434c1.305 0 2.404-.428 3.206-1.164l-1.56-1.206c-.433.291-.992.461-1.646.461-1.262 0-2.333-.847-2.716-1.99H4.286v1.242a4.84 4.84 0 004.322 2.657z"/>
  <path fill="#fabb05" d="M5.892 12.535a2.888 2.888 0 010-1.845V9.448H4.286a4.783 4.783 0 00-.516 2.165c0 .779.186 1.514.516 2.165l1.606-1.242z"/>
  <path fill="#e94235" d="M8.608 8.7c.713 0 1.352.244 1.855.723l1.381-1.376c-.838-.778-1.931-1.256-3.236-1.256a4.84 4.84 0 00-4.322 2.656l1.606 1.243C6.275 9.548 7.346 8.7 8.608 8.7z"/>
</svg>
