<svg xmlns="http://www.w3.org/2000/svg" viewBox="0 0 36 24">
  <path fill="#1061a7" d="M8.795 21.036H5.727V7.217c0-2.348 1.832-4.252 4.091-4.252h3.068v13.82c0 2.348-1.831 4.251-4.09 4.251z"/>
  <path fill="#BF2240" d="M16.977 21.036H13.91V7.217c0-2.348 1.832-4.252 4.091-4.252h3.068v13.82c0 2.348-1.832 4.251-4.09 4.251z"/>
  <path fill="#43a946" d="M26.182 21.036H22.09V7.217c0-2.348 1.832-4.252 4.09-4.252h4.092v13.82c0 2.348-1.832 4.251-4.091 4.251z"/>
  <path fill="#fff" d="M5.728 12.422c.251.164 1.463.568 1.95.603 1.067.08 1.728-.288 1.83-1.211L9.504 8.38h2.36v3.354c-.123 1.92-1.745 2.313-4.213 2.183-.639-.034-1.507-.205-1.922-.316v-1.18zM13.91 9.182c.833-.677 2.177-1.009 3.886-.872.973.078 1.693.22 2.085.34v1.2c-.432-.224-1.286-.557-1.998-.61-1.612-.122-2.458.664-2.458 1.933 0 1.143.654 2.12 2.451 1.99.593-.043 1.58-.402 2-.61l.005 1.165c-.361.118-1.485.373-2.544.382-1.593.014-2.717-.338-3.428-.91V9.183zM25.093 13.048l-1.652-.005.003-1.536c.182-.005 1.19.004 1.652 0 .374-.003.722.317.722.757 0 .498-.404.784-.725.784zM23.437 9.24c.189-.017 1.048.007 1.523-.005.339-.008.658.29.658.73 0 .432-.364.68-.624.685l-1.562-.012.005-1.398zm3.129 1.859v-.023c1-.199 1.276-.812 1.276-1.353 0-1.009-.94-1.363-1.738-1.363h-4.012l-.002 5.581 4.393-.005c.585 0 1.677-.306 1.677-1.412 0-1.07-1.011-1.425-1.594-1.425z"/>
</svg>
