<svg xmlns="http://www.w3.org/2000/svg" viewBox="0 0 36 24">
  <path fill="#e21836" d="M9.908 3h6.988c.976 0 1.583.818 1.355 1.824L14.997 19.18c-.23 1.002-1.206 1.82-2.182 1.82H5.827c-.974 0-1.583-.818-1.355-1.82L7.727 4.824C7.955 3.818 8.931 3 9.907 3z"/>
  <path fill="#00447c" d="M16.315 3h8.037c.975 0 .535.818.306 1.824L21.405 19.18c-.229 1.002-.158 1.82-1.135 1.82h-8.037c-.977 0-1.582-.818-1.352-1.82l3.253-14.356C14.364 3.818 15.339 3 16.314 3z"/>
  <path fill="#007b84" d="M24.033 3h6.989c.977 0 1.583.818 1.354 1.824L29.123 19.18c-.23 1.002-1.207 1.82-2.184 1.82h-6.986c-.977 0-1.583-.818-1.354-1.82l3.253-14.356C22.08 3.818 23.055 3 24.032 3z"/>
  <path fill="#fefefe" d="M11.733 7.602c-.719.007-.931 0-.999-.017-.026.127-.51 2.426-.512 2.428-.105.465-.18.797-.439 1.011a.768.768 0 01-.516.185c-.318 0-.504-.163-.535-.471l-.006-.106.097-.627s.51-2.095.6-2.372a.206.206 0 00.008-.031c-.991.008-1.167 0-1.179-.017a4.007 4.007 0 00-.031.153l-.52 2.36-.044.201-.087.655c0 .194.037.353.111.487.237.425.912.49 1.295.49.492 0 .954-.108 1.266-.305.541-.329.683-.843.81-1.3l.058-.234s.524-2.176.614-2.459c.003-.016.004-.024.009-.031zm1.784 1.755c-.127 0-.357.031-.565.136-.075.04-.146.085-.222.131l.068-.251-.037-.043c-.44.092-.538.104-.945.163l-.034.023c-.047.402-.089.705-.264 1.495-.067.291-.136.585-.205.876l.019.037c.416-.023.542-.023.904-.016l.03-.033c.046-.242.052-.3.154-.79.047-.232.147-.743.197-.925a.66.66 0 01.264-.085c.203 0 .179.182.17.254-.008.122-.082.52-.158.86l-.05.22c-.036.163-.074.321-.11.483l.016.032c.41-.023.536-.023.886-.016l.041-.033c.064-.378.082-.48.195-1.03l.056-.253c.11-.495.165-.746.082-.95-.088-.23-.299-.285-.492-.285zm1.993.518c-.219.043-.358.072-.496.09-.137.023-.27.044-.482.074l-.016.015-.016.013c-.022.161-.037.3-.066.465-.025.17-.063.362-.125.639a2.578 2.578 0 01-.1.36c-.026.075-.055.147-.11.356l.013.02.01.017c.198-.01.327-.017.46-.018.132-.005.269 0 .481.001l.019-.015.02-.017c.03-.188.035-.239.054-.33.018-.099.05-.235.129-.599.037-.17.078-.341.117-.515.04-.174.082-.345.122-.516l-.006-.02-.008-.02zm.004-.699c-.198-.12-.546-.082-.78.084-.234.163-.26.394-.063.516.195.117.545.082.777-.085.233-.167.262-.396.066-.515zm1.2 2.786c.4 0 .812-.114 1.121-.451.238-.274.348-.68.386-.848.123-.555.027-.815-.094-.972-.183-.241-.506-.318-.841-.318-.202 0-.682.02-1.058.376-.27.256-.394.604-.469.938-.076.34-.163.952.385 1.18.169.074.412.095.57.095zm-.032-1.25c.093-.42.202-.773.48-.773.219 0 .235.262.138.684-.018.094-.097.442-.205.59-.076.11-.165.176-.263.176-.03 0-.204 0-.206-.266a1.853 1.853 0 01.056-.41zm2.541 1.196l.032-.033c.044-.242.052-.3.15-.79.05-.232.151-.743.199-.925.09-.043.178-.085.266-.085.202 0 .177.182.17.254a8.459 8.459 0 01-.16.86l-.047.22c-.037.163-.077.321-.112.483l.015.032c.412-.023.533-.023.885-.016l.043-.033c.062-.379.078-.48.194-1.03l.055-.253c.11-.495.167-.746.085-.95-.09-.23-.303-.285-.494-.285-.126 0-.358.031-.565.136a3.73 3.73 0 00-.22.131l.063-.251-.034-.043c-.44.092-.54.104-.946.163l-.031.023c-.05.402-.09.704-.264 1.495-.067.291-.136.585-.205.876l.018.037c.418-.023.542-.023.903-.016zm3.027.016l.18-.9s.132-.565.14-.585c0 0 .04-.06.082-.082h.06c.573 0 1.219 0 1.726-.383.344-.263.58-.65.685-1.122.027-.115.047-.253.047-.39a.837.837 0 00-.137-.499c-.258-.371-.773-.378-1.366-.38l-.293.002c-.76.01-1.064.007-1.19-.009l-.03.158-.272 1.299-.682 2.886c.663-.008.935-.008 1.05.005zm.504-2.303s.29-1.294.288-1.29l.01-.065.003-.051.116.012.611.054c.236.094.333.335.265.65a.943.943 0 01-.477.647c-.193.1-.428.108-.67.108h-.158l.012-.065zm1.802 1.115c-.077.335-.165.947.38 1.165.174.076.33.099.488.09.167-.009.322-.095.466-.219l-.04.153.025.033c.392-.017.514-.017.939-.014l.038-.03c.062-.374.12-.738.282-1.455.078-.343.157-.683.237-1.025l-.012-.038c-.439.084-.556.102-.978.163l-.032.027-.013.102a.607.607 0 00-.307-.26c-.188-.076-.628.022-1.007.376-.266.253-.393.6-.466.932zm.92.02c.095-.412.203-.762.482-.762.177 0 .27.168.25.454a15.43 15.43 0 01-.05.23c-.028.123-.058.245-.088.367a.895.895 0 01-.103.214.478.478 0 01-.341.17c-.028 0-.2 0-.206-.261a1.84 1.84 0 01.057-.411zm4.81-1.363l-.034-.04c-.434.09-.513.105-.911.16l-.03.03-.004.02-.002-.007c-.296.704-.288.552-.53 1.106 0-.026 0-.041-.002-.068l-.06-1.2-.038-.04c-.455.09-.466.104-.885.16l-.033.03c-.005.014-.005.03-.007.047l.003.006c.052.275.04.214.092.649.024.213.057.428.082.639.041.352.064.526.115 1.064-.284.481-.35.663-.623 1.085l.001.004-.192.312c-.022.033-.042.056-.07.065a.282.282 0 01-.126.019h-.106l-.158.54.543.01c.318-.001.519-.154.627-.36l.34-.601h-.005l.036-.043c.23-.508 1.977-3.587 1.977-3.587zm-5.73 7.104h-.23l.852-2.897h.283l.09-.298.008.331c-.01.206.147.388.56.357h.476l.165-.558h-.18c-.103 0-.151-.026-.145-.084l-.009-.337h-.883v.001c-.286.006-1.139.028-1.312.076-.209.055-.429.218-.429.218l.087-.299h-.827l-.172.593-.864 2.942h-.168l-.164.553h1.646l-.055.185h.811l.054-.184h.228l.178-.599zm-.675-2.308a3.622 3.622 0 00-.38.152l.22-.741h.657l-.159.54s-.203.012-.338.049zm.012 1.058s-.206.026-.342.058c-.134.041-.384.173-.384.173l.226-.77h.66l-.16.539zm-.368 1.257h-.659l.191-.65h.657l-.189.65zm1.587-1.797h.949l-.137.454h-.962l-.144.497h.842l-.638.922a.265.265 0 01-.129.11.37.37 0 01-.17.051h-.234l-.16.544h.61c.318 0 .505-.148.644-.343l.437-.615.094.624c.02.117.101.186.157.212.06.032.124.086.213.094.096.004.165.008.211.008h.3l.18-.609h-.118c-.068 0-.185-.012-.205-.034-.02-.026-.02-.067-.03-.13l-.096-.625h-.39l.172-.21h.96l.147-.496h-.889l.139-.454h.886l.165-.56h-2.643l-.162.56zm-8.02 1.924l.222-.758h.91l.167-.563h-.912l.14-.467h.89l.165-.546h-2.229l-.161.546h.506l-.135.466h-.508l-.168.574h.506l-.295 1.002c-.04.133.018.183.056.245.038.06.076.1.163.122.089.02.15.033.233.033h1.027l.183-.624-.455.064c-.088 0-.331-.01-.305-.094zm.105-3.627l-.231.428a.495.495 0 01-.134.179c-.035.022-.105.032-.207.032h-.12l-.16.548h.4c.191 0 .34-.072.41-.108.075-.042.095-.018.154-.076l.135-.12h1.249l.166-.572h-.915l.16-.311h-.907zm1.843 3.638c-.02-.032-.006-.087.027-.203l.341-1.161h1.215c.177-.003.304-.005.388-.01a.78.78 0 00.292-.102.553.553 0 00.212-.201c.053-.075.137-.237.21-.489l.429-1.469-1.26.008s-.388.058-.56.123c-.172.073-.418.275-.418.275l.114-.403h-.779l-1.09 3.715a2.328 2.328 0 00-.07.312c-.002.068.083.135.138.185.065.05.162.043.254.05.098.008.236.013.427.013h.598l.184-.637-.536.052a.14.14 0 01-.116-.058zm.589-2.148h1.275l-.081.26c-.011.007-.039-.012-.169.004H19.55l.079-.264zm.255-.876h1.286l-.092.314s-.606-.006-.703.012c-.428.076-.677.311-.677.311l.186-.637zm.968 2.011a.14.14 0 01-.051.081c-.026.017-.068.023-.13.023h-.182l.01-.318h-.755l-.031 1.555c-.001.113.01.178.09.23.08.065.325.073.657.073h.473l.171-.582-.412.023-.137.008c-.019-.008-.037-.016-.057-.036-.017-.018-.046-.007-.042-.12l.004-.398.432-.018a.552.552 0 00.419-.152c.08-.072.108-.154.138-.264l.073-.353h-.595l-.075.248z"/>
</svg>
