<svg xmlns="http://www.w3.org/2000/svg" viewBox="0 0 36 24">
  <path fill="#ccc" fill-rule="evenodd" clip-rule="evenodd" d="M18.438 4a8 8 0 01-.001 16h-.013m6.82-8.578h-2.207c-.113-2.293-.894-4.38-2.316-5.87a6.849 6.849 0 014.522 5.87zm0 1.156a6.849 6.849 0 01-4.523 5.87c1.422-1.49 2.203-3.577 2.316-5.87h2.206zM18.423 4h.014-.014zm-.014 0a8 8 0 00.001 16m-6.806-8.578a6.849 6.849 0 014.522-5.87c-1.422 1.49-2.203 3.577-2.315 5.87h-2.207zm0 1.156a6.849 6.849 0 004.522 5.87c-1.422-1.49-2.203-3.577-2.315-5.87h-2.207zm7.397-6.988c1.728 1.222 2.742 3.323 2.877 5.832h-2.877V5.59zm-1.156 0v5.832h-2.877c.135-2.51 1.15-4.61 2.877-5.832zm0 6.988h-2.877c.135 2.509 1.15 4.61 2.877 5.832v-5.832zm4.032 0h-2.876v5.832c1.728-1.222 2.742-3.323 2.877-5.832z"/>
</svg>
