<svg xmlns="http://www.w3.org/2000/svg" viewBox="0 0 36 24">
  <path fill="#223084" d="M25.318 12.543c0 2.52-.576 4.398-1.727 5.622C22.439 19.388 20.66 20 18.262 20c-2.24 0-3.94-.612-5.1-1.835-1.159-1.224-1.738-3.07-1.738-5.536V4.352A.352.352 0 0111.776 4h4.063a.353.353 0 01.351.352v8.458c0 1.007.187 1.782.566 2.33a2.053 2.053 0 003.241.048c.371-.513.556-1.27.555-2.269v-1.584h4.766v1.208z"/>
  <path fill="#223084" d="M24.95 10.41h-4.398V4.368A.37.37 0 0120.921 4h.658a3.737 3.737 0 003.738 3.735h.002v2.675h-.37z"/>
  <path fill="#f4821f" d="M22.515 4h2.435a.37.37 0 01.369.368v2.437a2.803 2.803 0 01-2.803-2.802V4z"/>
</svg>
