<svg width="32" height="32" viewBox="0 0 32 32" fill="none" xmlns="http://www.w3.org/2000/svg">
<path fill-rule="evenodd" clip-rule="evenodd" d="M11.5228 6.82197L11.1669 6.47498V2.28564H10.7636V6.07866L10.4118 5.72756V2.28564H10.0086V5.3337L9.65348 4.98425V2.28564H9.25186V6.28175L11.9244 8.92444V2.28564H11.5228V6.82197ZM12.286 11.1386L14.9585 8.49512V6.80212L12.286 9.4333V11.1386ZM12.286 17.8349L14.9585 15.1914V13.3973L12.286 16.026V17.8349ZM14.9585 10.71L12.286 13.3552V11.6474L14.9585 9.01786V10.71ZM14.9585 12.9262L12.286 15.5706V13.8636L14.9585 11.2341V12.9262ZM9.25171 15.1914L11.9243 17.8349V16.026L9.25171 13.3973V15.1914ZM14.2043 5.3329L14.5577 4.98427V2.28567H14.9585V6.28095L12.286 8.92446V2.28567H12.6892V6.82281L13.0443 6.47336V2.28567H13.4451V6.07868L13.7994 5.72922V2.28567H14.2043V5.3329ZM9.25171 8.49512L11.9243 11.1403V9.4333L9.25171 6.80212V8.49512ZM11.9243 13.3547L9.25171 10.7104V9.01741L11.9243 11.6486V13.3547ZM9.25171 12.9265L11.9243 15.5717V13.8639L9.25171 11.2327V12.9265ZM17.7214 16.6599C18.0148 16.5581 18.211 16.279 18.209 15.9664H18.2098C18.2098 15.6688 17.8694 14.9633 17.8694 14.9633V14.5809C17.8694 14.5809 18.2098 13.8738 18.2098 13.5778C18.2098 13.1782 17.8857 12.8501 17.4858 12.8501C17.0898 12.8501 16.765 13.1782 16.765 13.5778C16.7644 13.7195 16.8059 13.8581 16.8841 13.9758L17.0858 14.3195C16.9561 14.4336 16.8816 14.5986 16.8816 14.7721C16.8816 14.9456 16.9561 15.1106 17.0858 15.2248L16.8841 15.5668C16.7119 15.8269 16.7236 16.1686 16.9131 16.4161C17.1027 16.6636 17.4279 16.7617 17.7214 16.6599ZM25.1705 14.3217H18.6735C18.8147 14.0995 18.8898 13.8413 18.8899 13.5776C18.8899 12.7989 18.2613 12.1666 17.4866 12.1666C16.9633 12.1677 16.4842 12.4628 16.2447 12.9315C16.0053 13.4003 16.0454 13.9645 16.3487 14.3941C16.2221 14.4768 16.1457 14.6186 16.1457 14.7706C16.1457 14.9227 16.2221 15.0644 16.3487 15.1472C15.9986 15.6435 16.0043 16.3101 16.3627 16.8003C16.7212 17.2905 17.3515 17.4937 17.9258 17.3041C18.5002 17.1145 18.8889 16.575 18.8899 15.9662C18.8899 15.6916 18.8099 15.4375 18.6735 15.2212H23.5068V15.5164H23.0285V15.9325H23.5068V16.3625H23.0285V17.1543H23.5068V16.7958H24.2138V17.1543H24.6905V16.3625H24.2138V15.9325H24.6905V15.5164H24.2138V15.2204H25.1705C25.358 15.2182 25.5085 15.0639 25.5076 14.8751V14.6679C25.5076 14.4794 25.3576 14.3257 25.1705 14.3225V14.3217ZM6.82202 13.4641V15.2221C6.82202 16.9027 7.55016 17.9807 7.96729 18.4009C8.21218 18.6426 10.697 21.1036 10.7305 21.1398C11.5035 21.8995 11.6398 22.1536 11.8121 22.5869V20.6382C11.8121 19.0453 11.0779 18.349 10.6093 17.9046C10.567 17.8645 10.5269 17.8264 10.4897 17.7899C10.0304 17.3374 9.63738 16.9531 9.29305 16.6164C8.85343 16.1865 8.49313 15.8341 8.17544 15.5164C7.10773 14.4368 6.82284 13.4649 6.82284 13.4649L6.82202 13.4641ZM10.4915 22.1406C10.1081 21.7637 9.7715 21.4341 9.47106 21.14L9.47104 21.14C8.94954 20.6295 8.53706 20.2257 8.17815 19.8662C7.10798 18.7866 6.82309 18.0548 6.82309 18.0548V19.5686C6.82309 21.2501 7.5798 22.3231 7.96591 22.7614C8.2108 23.0006 10.7021 25.4567 10.7315 25.4896C11.4891 26.2334 11.6341 26.5965 11.8015 27.0157L11.8123 27.0428V24.9872C11.8123 23.3961 11.077 22.6978 10.6107 22.2549C10.5685 22.2149 10.5286 22.1769 10.4915 22.1406ZM15.9996 5.54126C15.8061 5.54126 15.6159 5.54619 15.4249 5.55524V6.3783C15.6151 6.36844 15.8053 6.3635 15.9996 6.3635C22.1741 6.3635 27.1829 11.4071 27.1829 17.6291C27.1829 23.8493 22.1741 28.8946 15.9996 28.8946C9.82184 28.8946 4.8163 23.8493 4.8163 17.6291C4.8163 14.1765 6.35747 11.0857 8.78596 9.02017V7.9677C5.87994 10.1754 4 13.6798 4 17.6291C4 24.3049 9.3737 29.7144 16.0004 29.7144C22.6271 29.7144 28 24.304 28 17.6291C27.9984 10.9541 22.6255 5.54126 15.9996 5.54126ZM13.9631 20.1711H14.4317V24.9895H13.9631V20.1711ZM26.2291 20.2286C26.1703 20.4662 26.1009 20.7014 26.025 20.9341C25.7336 20.6406 25.2169 20.6471 24.7508 20.6611H24.4871V20.2286H26.2291ZM25.0162 23.1474C24.8505 23.4179 24.6742 23.6802 24.4872 23.9376V21.5251H25.0162V23.1474ZM14.4351 19.2394H12.8751H12.8743V27.7809C12.716 27.7315 12.5584 27.6789 12.4033 27.6213V18.7756H14.4343C15.2595 18.7756 15.7559 19.1012 15.9256 19.7599C16.1069 19.1333 16.5836 18.8192 17.3705 18.8192H17.8317C18.4839 18.8192 18.9272 19.0379 19.1623 19.4696L19.0586 18.9327H26.469C26.4518 19.0782 26.4306 19.2221 26.4086 19.366H23.2413V25.3536C22.9548 25.6282 22.6511 25.8856 22.3328 26.1265V23.372C22.3328 22.8564 22.2348 22.539 21.7246 22.3582L22.3328 19.3899H21.1957L21.0153 22.6311H20.883L20.7026 19.3899H19.6194L20.1565 22.3582C19.6692 22.5234 19.5557 22.8901 19.5557 23.372V27.6353C19.3402 27.7126 19.1223 27.7825 18.9019 27.8475V23.1886H17.8325V28.0949C17.6782 28.1229 17.524 28.1459 17.3705 28.1657V20.2557H17.8333V22.7216H18.9027V20.4135C18.9027 19.9967 18.83 19.7048 18.6709 19.5403C18.4071 19.2747 17.9271 19.2835 17.5419 19.2907C17.4824 19.2918 17.4251 19.2928 17.3713 19.2928C16.9754 19.2928 16.6913 19.3759 16.5346 19.5403C16.382 19.7056 16.2971 19.9958 16.2971 20.4135V28.2495C16.1991 28.252 16.0987 28.2536 15.9999 28.2536L15.8448 28.252V25.643C15.6236 26.1372 15.1534 26.383 14.4351 26.383V28.1369C14.2767 28.1147 14.1208 28.0867 13.9641 28.0547V25.9201C14.0359 25.9201 14.1208 25.9201 14.2024 25.9283C14.582 25.9283 15.0351 25.9283 15.284 25.6792C15.4497 25.5221 15.524 25.2385 15.524 24.8306V20.3297C15.524 19.9218 15.4497 19.6373 15.284 19.4828C15.1191 19.3232 14.8392 19.2394 14.4351 19.2394ZM22.2018 22.155L22.7128 22.6467V19.4942L22.2018 22.155ZM21.1874 26.8804C21.0282 26.9709 20.8657 27.0589 20.7017 27.1411V27.1403V23.2346H21.1874V26.8804Z" fill="white"/>
</svg>
