<svg width="32" height="32" viewBox="0 0 32 32" fill="none" xmlns="http://www.w3.org/2000/svg">
<path fill-rule="evenodd" clip-rule="evenodd" d="M11.167 6.47498L11.5229 6.82197V2.28564H11.9245V8.92444L9.25199 6.28175V2.28564H9.6536V4.98425L10.0087 5.3337V2.28564H10.4119V5.72756L10.7638 6.07866V2.28564H11.167V6.47498ZM14.9586 8.49512L12.2861 11.1386V9.4333L14.9586 6.80212V8.49512ZM14.9586 15.1914L12.2861 17.8349V16.026L14.9586 13.3973V15.1914ZM12.2861 13.3552L14.9586 10.71V9.01786L12.2861 11.6474V13.3552ZM12.2861 15.5706L14.9586 12.9262V11.2341L12.2861 13.8636V15.5706ZM11.9244 17.8349L9.25183 15.1914V13.3973L11.9244 16.026V17.8349ZM14.5578 4.98427L14.2044 5.3329V2.28567H13.7995V5.72922L13.4452 6.07868V2.28567H13.0444V6.47336L12.6893 6.82281V2.28567H12.2861V8.92446L14.9586 6.28095V2.28567H14.5578V4.98427ZM11.9244 11.1403L9.25183 8.49512V6.80212L11.9244 9.4333V11.1403ZM9.25183 10.7104L11.9244 13.3547V11.6486L9.25183 9.01741V10.7104ZM11.9244 15.5717L9.25183 12.9265V11.2327L11.9244 13.8639V15.5717ZM18.2091 15.9664C18.2111 16.279 18.0149 16.5581 17.7215 16.6599C17.4281 16.7617 17.1028 16.6636 16.9133 16.4161C16.7237 16.1686 16.712 15.8269 16.8843 15.5668L17.0859 15.2248C16.9562 15.1106 16.8818 14.9456 16.8818 14.7721C16.8818 14.5986 16.9562 14.4336 17.0859 14.3195L16.8843 13.9758C16.806 13.8581 16.7645 13.7195 16.7651 13.5778C16.7651 13.1782 17.09 12.8501 17.4859 12.8501C17.8859 12.8501 18.2099 13.1782 18.2099 13.5778C18.2099 13.8738 17.8695 14.5809 17.8695 14.5809V14.9633C17.8695 14.9633 18.2099 15.6688 18.2099 15.9664H18.2091ZM18.6737 14.3217H25.1706V14.3225C25.3577 14.3257 25.5077 14.4794 25.5077 14.6679V14.8751C25.5086 15.0639 25.3581 15.2182 25.1706 15.2204H24.2139V15.5164H24.6906V15.9325H24.2139V16.3625H24.6906V17.1543H24.2139V16.7958H23.507V17.1543H23.0286V16.3625H23.507V15.9325H23.0286V15.5164H23.507V15.2212H18.6737C18.81 15.4375 18.89 15.6916 18.89 15.9662C18.8891 16.575 18.5003 17.1145 17.926 17.3041C17.3516 17.4937 16.7213 17.2905 16.3628 16.8003C16.0044 16.3101 15.9987 15.6435 16.3488 15.1472C16.2222 15.0644 16.1458 14.9227 16.1458 14.7706C16.1458 14.6186 16.2222 14.4768 16.3488 14.3941C16.0455 13.9645 16.0054 13.4003 16.2449 12.9315C16.4843 12.4628 16.9634 12.1677 17.4868 12.1666C18.2614 12.1666 18.89 12.7989 18.89 13.5776C18.8899 13.8413 18.8148 14.0995 18.6737 14.3217Z" fill="#FFCB04"/>
<path fill-rule="evenodd" clip-rule="evenodd" d="M6.82202 15.2219V13.464L6.82284 13.4648C6.82284 13.4648 7.10773 14.4367 8.17544 15.5163C8.49313 15.834 8.85343 16.1864 9.29305 16.6163C9.63738 16.953 10.0304 17.3373 10.4897 17.7898C10.5269 17.8263 10.567 17.8643 10.6093 17.9044C11.0779 18.3489 11.8121 19.0452 11.8121 20.6381V22.5868C11.6398 22.1535 11.5035 21.8994 10.7305 21.1396C10.697 21.1035 8.21218 18.6425 7.96729 18.4007C7.55016 17.9806 6.82202 16.9026 6.82202 15.2219ZM9.47106 21.1399C9.7715 21.434 10.1081 21.7636 10.4915 22.1404C10.5286 22.1768 10.5685 22.2148 10.6107 22.2548C11.077 22.6977 11.8123 23.396 11.8123 24.9871V27.0427C11.8087 27.0336 11.8051 27.0246 11.8015 27.0156C11.6341 26.5964 11.4891 26.2333 10.7315 25.4894C10.7021 25.4566 8.2108 23.0005 7.96591 22.7612C7.5798 22.323 6.82309 21.25 6.82309 19.5685V18.0547C6.82309 18.0547 7.10798 18.7865 8.17815 19.8661C8.53707 20.2256 8.94955 20.6294 9.47106 21.1399Z" fill="#32B343"/>
<path fill-rule="evenodd" clip-rule="evenodd" d="M15.9996 5.54126C15.8061 5.54126 15.6159 5.54619 15.4249 5.55524V6.3783C15.6151 6.36844 15.8053 6.3635 15.9996 6.3635C22.1741 6.3635 27.1829 11.4071 27.1829 17.6291C27.1829 23.8493 22.1741 28.8946 15.9996 28.8946C9.82184 28.8946 4.8163 23.8493 4.8163 17.6291C4.8163 14.1765 6.35747 11.0857 8.78596 9.02017V7.9677C5.87994 10.1754 4 13.6798 4 17.6291C4 24.3049 9.3737 29.7144 16.0004 29.7144C22.6271 29.7144 28 24.304 28 17.6291C27.9984 10.9541 22.6255 5.54126 15.9996 5.54126" fill="#32B343"/>
<path fill-rule="evenodd" clip-rule="evenodd" d="M14.4317 20.171H13.9631V24.9894H14.4317V20.171ZM26.025 20.934C26.1009 20.7013 26.1703 20.4661 26.2291 20.2285H24.4871V20.661H24.7508C25.2169 20.647 25.7336 20.6404 26.025 20.934ZM24.4872 23.9375C24.6742 23.6801 24.8505 23.4178 25.0162 23.1473V21.525H24.4872V23.9375Z" fill="#32B343"/>
<path fill-rule="evenodd" clip-rule="evenodd" d="M14.435 19.2393H12.875H12.8742V27.7807C12.7158 27.7314 12.5583 27.6788 12.4032 27.6212V18.7755H14.4341C15.2594 18.7755 15.7557 19.1011 15.9255 19.7597C16.1067 19.1332 16.5835 18.8191 17.3704 18.8191H17.8316C18.4838 18.8191 18.9271 19.0378 19.1621 19.4695L19.0585 18.9326H26.4688C26.4517 19.0781 26.4305 19.222 26.4084 19.3659H23.2412V25.3535C22.9547 25.6281 22.651 25.8855 22.3327 26.1264V23.3719C22.3327 22.8563 22.2347 22.5389 21.7245 22.358L22.3327 19.3897H21.1955L21.0151 22.631H20.8829L20.7025 19.3897H19.6193L20.1564 22.358C19.6691 22.5233 19.5556 22.89 19.5556 23.3719V27.6352C19.3401 27.7125 19.1221 27.7824 18.9017 27.8473V23.1885H17.8324V28.0948C17.6781 28.1228 17.5238 28.1458 17.3704 28.1655V20.2556H17.8332V22.7215H18.9026V20.4134C18.9026 19.9965 18.8299 19.7046 18.6707 19.5402C18.407 19.2745 17.927 19.2834 17.5418 19.2905C17.4823 19.2916 17.425 19.2927 17.3712 19.2927C16.9753 19.2927 16.6912 19.3758 16.5345 19.5402C16.3818 19.7055 16.2969 19.9957 16.2969 20.4134V28.2494C16.199 28.2519 16.0986 28.2535 15.9998 28.2535L15.8447 28.2519V25.6429C15.6235 26.1371 15.1533 26.3829 14.435 26.3829V28.1368C14.2766 28.1146 14.1207 28.0866 13.964 28.0545V25.92C14.0358 25.92 14.1207 25.92 14.2023 25.9282C14.5819 25.9282 15.0349 25.9282 15.2839 25.6791C15.4496 25.522 15.5239 25.2384 15.5239 24.8305V20.3296C15.5239 19.9217 15.4496 19.6372 15.2839 19.4826C15.119 19.3231 14.839 19.2393 14.435 19.2393ZM22.2017 22.1549L22.7127 22.6466V19.4941L22.2017 22.1549Z" fill="#32B343"/>
<path fill-rule="evenodd" clip-rule="evenodd" d="M20.7017 27.1412C20.8657 27.059 21.0282 26.971 21.1874 26.8806V23.2347H20.7017V27.1404V27.1412Z" fill="#32B343"/>
</svg>
