<svg width="71" height="12" fill="none" xmlns="http://www.w3.org/2000/svg">
  <path fill="#fff" d="M8.522 7.668h1.14v3.384H8.198L8.09 9H2.318l-.108 2.052H.746V7.668h.612c.216-.184.396-.456.54-.816.152-.368.272-.844.36-1.428.096-.592.168-1.3.216-2.124.056-.824.1-1.792.132-2.904h5.916v7.272zm-1.728 0V1.836H4.106c-.032.76-.072 1.444-.12 2.052-.04.6-.096 1.14-.168 1.62a8.784 8.784 0 01-.252 1.248c-.096.352-.22.656-.372.912h3.6zM14.427 9a6.742 6.742 0 01-.072-.468c-.016-.2-.032-.372-.048-.516a1.937 1.937 0 01-.252.396c-.096.128-.22.248-.372.36a1.983 1.983 0 01-.54.252c-.2.064-.436.096-.708.096-.264 0-.516-.036-.756-.108a1.814 1.814 0 01-.624-.336 1.655 1.655 0 01-.42-.564 1.865 1.865 0 01-.156-.792c0-.664.26-1.176.78-1.536.52-.36 1.26-.54 2.22-.54h.768v-.276c0-.384-.1-.644-.3-.78-.192-.144-.504-.216-.936-.216-.432 0-.828.056-1.188.168-.36.112-.676.236-.948.372v-1.32c.272-.136.62-.26 1.044-.372a5.442 5.442 0 011.392-.168c.816 0 1.452.172 1.908.516.464.344.696.892.696 1.644V8.244c.008.088.012.18.012.276l.024.276c.008.08.016.148.024.204h-1.548zm-1.488-1.068c.272 0 .492-.056.66-.168a1.47 1.47 0 00.588-.852c.04-.152.06-.26.06-.324v-.372h-.708c-.496 0-.86.084-1.092.252a.767.767 0 00-.336.66c0 .256.072.456.216.6.152.136.356.204.612.204zm8.027 1.188c-.464 0-.864-.1-1.2-.3a2.489 2.489 0 01-.804-.828v3.132h-1.656V2.772h1.548l.084 1.02c.208-.36.48-.64.816-.84.336-.2.744-.3 1.224-.3.368 0 .716.068 1.044.204.336.128.628.328.876.6.256.264.456.6.6 1.008.144.4.216.872.216 1.416 0 .552-.076 1.032-.228 1.44-.144.4-.34.736-.588 1.008-.248.264-.54.464-.876.6a2.941 2.941 0 01-1.056.192zm-.468-1.332c.448 0 .812-.156 1.092-.468.28-.312.42-.792.42-1.44 0-.64-.14-1.116-.42-1.428a1.37 1.37 0 00-1.08-.48c-.448 0-.82.16-1.116.48-.296.312-.444.788-.444 1.428 0 .648.148 1.128.444 1.44a1.46 1.46 0 001.104.468zM26.45 6.72l2.52-3.948h1.608V9h-1.644V5.064L26.438 9h-1.632V2.772h1.644V6.72zm11.335-1.836l-1.62 3.6h-1.164l-1.512-3.576V9h-1.476V2.772h2.172l1.524 3.612 1.62-3.612h2.112V9h-1.656V4.884zm8.976.672v2.52h-1.32v-2.52H43.1v-1.2h2.34v-2.52h1.32v2.52h2.352v1.2H46.76zM54.282 9h-1.716V2.16l-2.508 1.824v-1.62l2.7-1.968h1.524V9zm5.038.12c-.44 0-.844-.084-1.212-.252a2.451 2.451 0 01-.948-.78c-.264-.36-.472-.82-.624-1.38-.144-.56-.216-1.232-.216-2.016s.072-1.452.216-2.004c.152-.56.36-1.016.624-1.368.264-.36.58-.62.948-.78A2.884 2.884 0 0159.32.288c.432 0 .828.084 1.188.252.368.16.684.416.948.768.264.352.468.808.612 1.368.144.552.216 1.216.216 1.992 0 .784-.072 1.456-.216 2.016-.144.56-.348 1.02-.612 1.38-.264.36-.58.628-.948.804-.36.168-.756.252-1.188.252zm-.012-1.344c.208 0 .392-.048.552-.144.16-.104.292-.276.396-.516.104-.24.18-.556.228-.948.056-.392.084-.88.084-1.464 0-.576-.028-1.06-.084-1.452-.048-.392-.124-.708-.228-.948-.096-.24-.224-.412-.384-.516a.954.954 0 00-.552-.156c-.216 0-.404.052-.564.156-.16.104-.296.276-.408.516-.104.24-.184.556-.24.948a12.25 12.25 0 00-.072 1.452c0 .584.024 1.072.072 1.464.056.392.136.708.24.948.112.24.244.412.396.516.16.096.348.144.564.144zm3.826 1.26L68.57.372h1.296L64.43 9.036h-1.296zm3.024-6.468c0 .712-.16 1.26-.48 1.644-.312.384-.74.576-1.284.576s-.976-.18-1.296-.54c-.32-.368-.48-.912-.48-1.632 0-.728.16-1.28.48-1.656.32-.384.752-.576 1.296-.576s.972.184 1.284.552c.32.36.48.904.48 1.632zm-2.292.024c0 .448.044.764.132.948.088.176.22.264.396.264.176 0 .308-.088.396-.264.088-.184.132-.5.132-.948 0-.456-.044-.772-.132-.948-.08-.176-.212-.264-.396-.264-.184 0-.32.088-.408.264-.08.176-.12.492-.12.948zM70.37 6.84c0 .712-.16 1.26-.48 1.644-.312.384-.74.576-1.284.576-.536 0-.968-.184-1.296-.552-.32-.368-.48-.908-.48-1.62 0-.728.16-1.28.48-1.656.328-.384.76-.576 1.296-.576.544 0 .972.184 1.284.552.32.36.48.904.48 1.632zm-2.292.024c0 .448.044.76.132.936.096.176.228.264.396.264.184 0 .32-.088.408-.264.088-.176.132-.488.132-.936 0-.448-.044-.76-.132-.936-.088-.184-.224-.276-.408-.276-.176 0-.308.092-.396.276-.088.176-.132.488-.132.936z"/>
</svg>
