<svg xmlns="http://www.w3.org/2000/svg" fill="none" viewBox="0 0 204 60">
  <path fill="#004820" d="M169.35 34.64l-1.07-.07V22.03H157.8v10.93c0 .97-.37 1.4-1.34 1.58l-1 .13v3.29h4.29v-1.67h5.34V38h3.98c.1 0 .26-.14.26-.2v-3.15zm-4.78-.1h-3.05c.63-.5.58-1.2.58-1.87v-8.9h2.47v10.78zM111.49 27.7h1.96v-5.65h4.42v14.18h-4.4V29.8h-1.93v6.42h-4.47V22.04h4.42v5.66zM28.33 22.03h4.4v1.22c0 1.3.02 2.59 0 3.88 0 .46.06.68.6.58.42-.07.85-.01 1.33-.01v-5.65h4.4v14.18H34.7v-6.45h-1.98v6.45h-4.4v-14.2zM89.9 30.34c0-.73-.28-1.13-1-1.33-.38-.11-.79-.14-1.26-.23.24-.05.4-.1.58-.13 1.22-.2 1.65-.7 1.65-1.93v-2.5c0-1.12-.34-1.59-1.44-1.91a3.1 3.1 0 00-.86-.19h-8.19v14.1l.25.04c2.12 0 4.25.06 6.37-.02a12.4 12.4 0 002.9-.55c.7-.2 1.04-.76 1.02-1.53-.03-1.28 0-2.55-.01-3.82zm-4.3 3.72c0 .16-.26.42-.43.45-.48.06-.98.02-1.5.02v-4.76c.51 0 1.01-.04 1.5.02.16.03.41.3.42.46.04 1.27.04 2.54 0 3.81zm0-6.7c0 .16-.27.4-.44.42-.47.06-.95.02-1.5.02v-4.04c.56 0 1.1-.02 1.65.02.11.01.29.25.29.38.02 1.07.03 2.14 0 3.2zM42.49 22.03h4.27v5.38l.13.03.83-1.63c.56-1.13 1.11-2.25 1.65-3.38.14-.3.3-.44.65-.43 1.24.02 2.48.01 3.8.01-.08.18-.12.33-.2.47-.93 1.92-1.85 3.84-2.81 5.75a.9.9 0 000 .92c1.08 2.14 2.14 4.29 3.2 6.44l.33.68c-.83 0-1.61-.1-2.35.02-1.41.23-2.16-.33-2.7-1.62-.61-1.47-1.46-2.85-2.2-4.27l-.31-.45v6.29h-4.3V22.03zM139.3 22.04h-6.72l-3.23 14.23c1.35 0 2.62-.01 3.9.01.37 0 .5-.13.56-.48.17-1.03.38-2.05.59-3.1.84 0 1.63.02 2.42-.02.51-.03.7.14.78.64.14.98.36 1.95.54 2.91h4.41l-3.25-14.2zm-4.66 8.56l1.18-6.5h.2l1.2 6.5h-2.58zM25.98 35.88c-1.01-4.49-2.05-8.97-3.06-13.46-.08-.35-.24-.42-.56-.42h-5.77c-.36 0-.5.1-.58.46-.82 3.68-1.67 7.36-2.51 11.03l-.62 2.76h4.35c.04-.17.1-.32.12-.48.16-.85.32-1.7.46-2.55.06-.38.2-.57.64-.54.7.04 1.4.02 2.1 0 .3 0 .46.06.52.41.15.93.33 1.85.54 2.76.04.16.24.4.36.4 1.34.03 2.67.02 4.05.02 0-.13-.02-.26-.04-.4zm-7.82-5.26l1.21-6.54h.2l1.18 6.53h-2.6zM104.57 35.67l-.72-3.17-2.31-10.06c-.04-.16-.24-.41-.36-.41-2.12-.03-4.25-.02-6.42-.02l-3.24 14.24h4.38l.68-3.58h3.05l.7 3.57h4.34l-.1-.57zm-7.77-5.05L98 24.1l.21-.02 1.2 6.53h-2.6zM73.93 22.03h-6.71l-3.23 14.21h4.35c.03-.1.07-.2.08-.29.17-.94.35-1.88.5-2.82.06-.35.2-.52.58-.5.6.03 1.22 0 1.83 0 .81 0 .8 0 .94.82.16.94.34 1.87.51 2.8h4.38l-3.23-14.22zm-4.66 8.55l1.2-6.55.21.02 1.2 6.53h-2.61zM11.04 29.92c0-.57-.21-1.04-.7-1.29a4.2 4.2 0 00-1.45-.5c-1.23-.12-2.47-.12-3.7-.16h-.66v-4.22H10v-1.7H0v14.17l.2.05c2.3 0 4.59.02 6.88-.03a6.7 6.7 0 003.12-.63c.57-.31.86-.76.85-1.43-.02-1.42-.01-2.84 0-4.26zm-4.51 4.16c0 .15-.26.4-.42.43-.5.05-1.02.01-1.57.01v-4.86c.55 0 1.08-.03 1.6.02.15.02.38.27.38.43.04 1.32.04 2.65 0 3.97zM153 22.14c-2.81-.12-5.64-.03-8.52-.03v14.12h4.3V31.2l.43-.02c1.2-.04 2.4-.02 3.6-.13 1.62-.14 2.24-.88 2.24-2.49v-4.04c0-1.55-.49-2.3-2.04-2.38zm-1.67 6.81c0 .19-.3.51-.47.53-.67.06-1.36.02-2.06.02v-5.74c.7 0 1.38-.02 2.06 0 .33 0 .48.2.48.54 0 1.55.02 3.1-.02 4.65zM125.9 36.26h-4.25V22.04h8.66v1.7h-4.41v12.52z"/>
</svg>
