<svg width="32" height="32" viewBox="0 0 32 32" fill="none" xmlns="http://www.w3.org/2000/svg">
<path d="M26.8197 23.478L26.2714 23.4421V17H20.8951V17.3574C20.8951 19.1101 20.8951 20.8623 20.8951 22.6139C20.8951 23.1126 20.7042 23.3338 20.2078 23.4238C20.0419 23.4535 19.8738 23.4706 19.6948 23.4951V25.181H21.8954V24.326H24.6385V25.2032C25.3418 25.2032 26.0132 25.2032 26.6852 25.1986C26.7307 25.1986 26.8151 25.1291 26.8157 25.0915C26.8225 24.5557 26.8197 24.02 26.8197 23.478ZM24.3689 23.429H22.7982C23.1225 23.1685 23.1002 22.8134 23.1002 22.4669C23.1002 21.0667 23.1002 19.6668 23.1002 18.267V17.8965H24.3678L24.3689 23.429Z" fill="white"/>
<path d="M11.385 17.0039H7.93568C7.38397 19.4319 6.83284 21.8592 6.27429 24.3151C6.96848 24.3151 7.62278 24.3077 8.27593 24.3203C8.47028 24.3237 8.53354 24.2547 8.56432 24.0723C8.65323 23.5446 8.76266 23.0197 8.86696 22.4765C9.30012 22.4765 9.70763 22.4925 10.1134 22.4702C10.3745 22.456 10.4765 22.5426 10.5124 22.8008C10.5865 23.3035 10.6965 23.801 10.7905 24.2952H13.0578L11.385 17.0039ZM8.99121 21.4004C9.19582 20.2725 9.39701 19.1674 9.59763 18.0617H9.70421C9.90825 19.164 10.1117 20.2657 10.322 21.401L8.99121 21.4004Z" fill="white"/>
<path d="M18.4278 17.0587C16.9796 16.9955 15.5279 17.0416 14.0466 17.0416V24.2919H16.2586V21.7106C16.3486 21.7066 16.413 21.7026 16.478 21.7004C17.0936 21.6804 17.7114 21.689 18.3241 21.6354C19.1556 21.5619 19.4771 21.1794 19.4782 20.3553C19.4782 19.6645 19.4782 18.9726 19.4782 18.2813C19.4799 17.4822 19.2257 17.0929 18.4278 17.0587ZM17.5638 20.5542C17.5638 20.6511 17.4144 20.8181 17.3227 20.8261C16.9807 20.8591 16.6279 20.8392 16.2649 20.8392V17.8863C16.6291 17.8863 16.9767 17.88 17.3238 17.8863C17.4948 17.8909 17.5734 17.994 17.5734 18.1673C17.5729 18.9646 17.5814 19.7597 17.5626 20.5542H17.5638Z" fill="white"/>
<path d="M4.50312 24.3078H2.31909V17.0068H6.77091V17.8754H4.50312V24.3078Z" fill="white"/>
<path d="M26.7227 9.92534H27.7281V7.02263H29.9999V14.3048H27.7406V11.006H26.7483V14.3031H24.4543V7.01807H26.721L26.7227 9.92534Z" fill="white"/>
<path d="M15.3459 11.2789C15.3459 10.9044 15.1977 10.6975 14.8329 10.5949C14.6352 10.5379 14.4254 10.5231 14.1821 10.4809C14.3029 10.4536 14.3912 10.4285 14.4807 10.4137C15.1076 10.3077 15.3265 10.0535 15.3293 9.41971C15.3293 8.99339 15.3293 8.56707 15.3293 8.14075C15.3293 7.56112 15.151 7.32118 14.5884 7.15247C14.4462 7.10022 14.2973 7.06855 14.1461 7.05843C12.7566 7.05273 11.3643 7.05273 9.94055 7.05273V14.3018C9.98152 14.3107 10.023 14.3167 10.0648 14.3201C11.1557 14.3201 12.2477 14.3497 13.3374 14.3087C13.8395 14.2899 14.3468 14.1685 14.8329 14.0288C15.1886 13.9279 15.3618 13.6373 15.3521 13.24C15.3362 12.5869 15.3487 11.9332 15.3459 11.2789ZM13.1317 13.1922C13.1317 13.2725 12.9977 13.4076 12.9134 13.4201C12.6643 13.4509 12.4084 13.431 12.1411 13.431V10.9882C12.4067 10.9882 12.662 10.9682 12.9105 10.9996C12.9949 11.0104 13.1254 11.1501 13.1282 11.235C13.1472 11.887 13.1484 12.5394 13.1317 13.1922ZM13.1317 9.75312C13.1288 9.83006 12.9932 9.95545 12.9082 9.96571C12.6666 9.99535 12.4187 9.97597 12.1388 9.97597V7.90195C12.4238 7.90195 12.7048 7.89112 12.984 7.91164C13.041 7.91506 13.1322 8.03645 13.1339 8.10485C13.1465 8.65427 13.1505 9.20427 13.1317 9.75312Z" fill="white"/>
<path d="M23.2306 14.0197C23.1086 13.476 22.9855 12.9324 22.8613 12.3891C22.4673 10.6663 22.0712 8.94455 21.673 7.22371C21.6536 7.13992 21.5521 7.01112 21.4889 7.01055C20.398 6.99573 19.3071 7.00086 18.1895 7.00086C17.6343 9.43907 17.0821 11.8665 16.5247 14.3138H18.7765L19.1236 12.478H20.6904C20.8118 13.0987 20.9315 13.7068 21.05 14.3127H23.2825C23.262 14.2032 23.2511 14.1109 23.2306 14.0197ZM19.241 11.4225C19.4485 10.2946 19.6525 9.18659 19.8565 8.07862L19.9637 8.06836C20.1672 9.17975 20.3701 10.2911 20.577 11.4225H19.241Z" fill="white"/>
<path d="M7.10669 7.01367H3.65967C3.10626 9.44676 2.55455 11.8747 2 14.3129H4.23817C4.2547 14.2559 4.27065 14.2086 4.2792 14.1625C4.36697 13.6792 4.45817 13.1936 4.53796 12.7114C4.56759 12.5347 4.63542 12.4486 4.83205 12.4578C5.14438 12.4726 5.45899 12.4578 5.77074 12.4612C6.19136 12.4612 6.1868 12.4612 6.25805 12.8784C6.34012 13.3588 6.42903 13.8387 6.51737 14.3141H8.76864C8.21238 11.869 7.66125 9.4422 7.10669 7.01367ZM4.71293 11.4022C4.92267 10.2692 5.12899 9.15552 5.33531 8.03957L5.44075 8.0504C5.64137 9.16179 5.84484 10.2652 6.054 11.4017L4.71293 11.4022Z" fill="white"/>
</svg>
