<svg width="32" height="32" viewBox="0 0 32 32" fill="none" xmlns="http://www.w3.org/2000/svg">
<path d="M10.5368 19.514L10.4853 19.5643C9.6777 20.3847 8.7419 20.8195 7.77824 20.8195C5.76582 20.8195 4.30615 19.3139 4.30615 17.2373C4.30615 15.1633 5.76582 13.6572 7.77824 13.6572C8.7419 13.6572 9.6777 14.0926 10.4853 14.9171L10.5368 14.9664L11.8315 13.4058L11.7968 13.3639C10.7212 12.0961 9.42864 11.479 7.8413 11.479C6.24922 11.479 4.79113 12.0139 3.7434 12.9767C2.60058 14.0213 2 15.4934 2 17.2363C2 18.9807 2.60058 20.4559 3.74288 21.499C4.7906 22.4692 6.24869 22.9998 7.84077 22.9998C9.42812 22.9998 10.7207 22.3817 11.7963 21.1129L11.8309 21.0752L10.5368 19.514Z" fill="#0B45B3"/>
<path d="M15.4237 11.6604H13.137V22.7878H15.4237V11.6604Z" fill="#0B45B3"/>
<path d="M24.3795 20.3692C23.77 20.7391 23.2025 20.9261 22.6913 20.9261C21.9525 20.9261 21.6178 20.5369 21.6178 19.6704V13.7654H23.9481V11.6699H21.6178V8.20825L19.3784 9.40528V11.6705H17.4453V13.7659H19.3784V20.0476C19.3784 21.7564 20.3956 22.9278 21.9136 22.9592C22.944 22.9791 23.5656 22.6732 23.9408 22.4479L23.9655 22.4317L24.5145 20.288L24.3795 20.3692Z" fill="#0B45B3"/>
<path d="M28.5608 11.6604H26.2715V22.7878H28.5608V11.6604Z" fill="#0B45B3"/>
<path d="M29.8944 9.70902C27.8058 6.75914 24.3379 5 20.808 5C17.2807 5 13.8113 6.75914 11.7258 9.70902L11.6191 9.86094H14.249L14.2789 9.82951C16.0675 7.98708 18.4057 7.01374 20.8085 7.01374C23.2108 7.01374 25.548 7.98708 27.3413 9.82951L27.3718 9.86094H30L29.8944 9.70902Z" fill="#EB2227"/>
</svg>
