<svg width="24" height="24" viewBox="0 0 24 24" fill="none" xmlns="http://www.w3.org/2000/svg">
  <path fill="#FC3F1D" d="M24 12C24 5.37258 18.6274 0 12 0C5.37258 0 0 5.37258 0 12C0 18.6274 5.37258 24 12 24C18.6274 24 24 18.6274 24 12Z"/>
  <path fill="#ffffff" d="M13.5373 6.79822H12.4285C10.3958 6.79822 9.3266 7.82778 9.3266 9.34573C9.3266 11.0616 10.0658 11.8668 11.5837 12.8964L12.8377 13.7412L9.2342 19.1266H6.5415L9.77538 14.3087C7.91425 12.9756 6.87148 11.682 6.87148 9.49093C6.87148 6.74542 8.78542 4.87109 12.4153 4.87109H16.0188V19.1134H13.5373V6.79822Z"/>
</svg>
