<svg width="32" height="32" viewBox="0 0 32 32" fill="none" xmlns="http://www.w3.org/2000/svg">
<path fill-rule="evenodd" clip-rule="evenodd" d="M27.7439 8.7143C28.1886 8.55903 28.5976 8.31614 28.9467 8C29.2962 8.34952 29.6427 8.70057 29.9967 9.04551C29.4389 9.59092 28.7366 9.96535 27.9729 10.1246C27.3044 10.2612 26.6261 10.3449 25.9445 10.3749C25.1949 10.3468 24.4599 10.5871 23.8717 11.0526C23.5351 11.3138 23.2537 11.6395 23.0441 12.0105C22.8344 12.3816 22.7007 12.7906 22.6507 13.2138C23.1665 12.7513 23.784 12.4169 24.4532 12.2378C25.1225 12.0586 25.8245 12.0398 26.5023 12.1829C27.1802 12.3259 27.8148 12.6267 28.3546 13.061C28.8944 13.4952 29.3242 14.0506 29.6091 14.6821C29.8771 15.2753 30.0104 15.9206 29.9994 16.5714C29.9884 17.2223 29.8333 17.8626 29.5454 18.4465C29.2575 19.0303 28.8439 19.5431 28.3342 19.9481C27.8245 20.353 27.2315 20.6401 26.5977 20.7886C25.9639 20.9371 25.3051 20.9434 24.6686 20.807C24.0321 20.6706 23.4337 20.395 22.9164 19.9998C22.3991 19.6047 21.9757 19.0999 21.6767 18.5216C21.3777 17.9434 21.2104 17.3061 21.187 16.6556C21.1778 15.6376 21.187 14.6195 21.187 13.603C21.1902 12.5384 21.5533 11.5062 22.2172 10.6741C22.9636 9.73425 24.0452 9.1204 25.2347 8.96156C25.5812 8.90662 25.9322 8.93714 26.2802 8.90814C26.7702 8.87456 27.2708 8.86541 27.7439 8.7143ZM25.2607 13.5374C24.5579 13.6161 23.9062 13.9427 23.4224 14.4584C22.9386 14.9741 22.6543 15.6454 22.6206 16.3517C22.5868 17.0581 22.8058 17.7533 23.2383 18.3128C23.6708 18.8723 24.2884 19.2595 24.9805 19.4048C25.6725 19.5502 26.3937 19.4443 27.0147 19.106C27.6357 18.7678 28.116 18.2194 28.3693 17.5592C28.6226 16.899 28.6324 16.1701 28.397 15.5033C28.1615 14.8365 27.6963 14.2753 27.0846 13.9205C26.5333 13.6009 25.894 13.4666 25.2607 13.5374ZM4.74732 12.0569C5.70568 11.7018 6.75099 11.6549 7.73733 11.9226C8.71131 12.1793 9.56752 12.7629 10.1626 13.5755C10.2084 13.6259 10.1214 13.6656 10.0985 13.7022C9.83292 13.9602 9.57651 14.2273 9.31093 14.4852C9.04459 14.1108 8.70373 13.7955 8.30975 13.5592C7.91577 13.3228 7.47717 13.1704 7.0215 13.1115C6.25035 12.9959 5.46254 13.1352 4.77785 13.5084C4.19646 13.8537 3.75057 14.3874 3.51408 15.0209C3.33101 15.5018 3.25396 16.0166 3.2882 16.53C3.32245 17.0434 3.46718 17.5434 3.7125 17.9957C4.02514 18.5644 4.51424 19.016 5.106 19.2823C5.72585 19.5486 6.4071 19.6389 7.07492 19.5433C7.96474 19.4197 8.83015 18.945 9.31551 18.1697C9.63298 18.5024 9.96266 18.8214 10.2862 19.148C9.78656 19.8415 9.07862 20.3575 8.26542 20.6209C7.33719 20.9299 6.34182 20.9774 5.38837 20.7583C4.3467 20.5216 3.42948 19.9078 2.81351 19.0351C2.32173 18.3102 2.04016 17.4634 2 16.5884L2 16.1077C2.02801 15.2951 2.25719 14.5021 2.66699 13.7999C3.14456 13.0014 3.87751 12.3873 4.74732 12.0569ZM11.8919 12.0935C12.3788 12.0935 12.8657 12.0935 13.351 12.0935C13.3358 13.3268 13.3317 14.5605 13.3388 15.7948C13.8806 15.7948 14.4225 15.7948 14.9658 15.7948C16.0749 14.5666 17.181 13.3339 18.284 12.0966C18.8945 12.0966 19.505 12.0966 20.1155 12.0966C18.8945 13.4519 17.6786 14.8073 16.4677 16.1626C16.4067 16.2282 16.3471 16.2969 16.2922 16.3687C17.6648 17.8726 19.0349 19.378 20.4025 20.8849C19.7416 20.8849 19.0807 20.8849 18.4183 20.8849C18.3374 20.8987 18.2993 20.8178 18.2504 20.772C17.1474 19.5632 16.0414 18.3584 14.9323 17.1577C14.4011 17.1577 13.8639 17.1577 13.3388 17.1577C13.3388 18.4017 13.3297 19.6471 13.3556 20.8926C12.8682 20.8926 12.3808 20.8926 11.8934 20.8926C11.9209 17.958 11.9214 15.025 11.8949 12.0935H11.8919Z" fill="white"/>
</svg>
