<svg width="33" height="32" viewBox="0 0 33 32" fill="none" xmlns="http://www.w3.org/2000/svg">
<path d="M30.3372 15.7269C29.9397 14.6918 28.9485 14.1225 27.879 14.3237L25.6839 14.7263C25.32 14.7953 25.0792 15.1518 25.1408 15.5256C25.208 15.8994 25.5551 16.1466 25.9191 16.0834L28.1142 15.6809C28.6349 15.5831 28.9597 15.9051 29.0885 16.2386C29.2173 16.5722 29.1949 17.0322 28.7469 17.3255L25.5215 19.4704C25.2248 19.6717 24.8552 19.6832 24.5472 19.5106C24.2336 19.3381 24.0488 19.0161 24.0488 18.6481V11.6901C24.0488 11.3105 23.7521 11 23.3769 11C23.0073 11 22.7049 11.3105 22.7049 11.6901V18.6366C22.7049 19.5164 23.1529 20.2869 23.9033 20.7067C24.2504 20.9022 24.6256 21 25.0008 21C25.432 21 25.8631 20.8735 26.2495 20.6147L29.4749 18.4698C30.3876 17.866 30.7348 16.7619 30.3372 15.7269ZM18.998 14.318L16.8029 14.7205C16.4389 14.7895 16.1981 15.1461 16.2597 15.5198C16.3269 15.8936 16.6741 16.1409 17.0381 16.0776L19.2332 15.6751C19.7539 15.5773 20.0787 15.8994 20.2075 16.2329C20.3363 16.5664 20.3139 17.0265 19.8659 17.3197L16.6405 19.4646C16.3437 19.6659 15.9742 19.6774 15.6662 19.5049C15.3526 19.3324 15.1678 19.0104 15.1678 18.6423V13.3634C15.1678 12.4836 14.7198 11.7131 13.9695 11.2933C13.2191 10.8735 12.34 10.908 11.6232 11.3853L3.52056 16.7792C2.60782 17.3887 2.26624 18.4928 2.66381 19.5279C3.06139 20.563 4.05252 21.1323 5.12206 20.931L12.2 19.6256C12.564 19.5566 12.8048 19.2001 12.7432 18.8263C12.676 18.4526 12.3288 18.2053 11.9648 18.2685L4.88687 19.5739C4.3661 19.6717 4.04132 19.3496 3.91253 19.0161C3.78374 18.6826 3.80614 18.2225 4.25411 17.9293L12.3568 12.5354C12.6536 12.3341 13.0231 12.3226 13.3311 12.4951C13.6447 12.6676 13.8295 12.9896 13.8295 13.3577V18.6366C13.8295 19.5164 14.2775 20.2869 15.0278 20.7067C15.375 20.9022 15.7502 21 16.1253 21C16.5565 21 16.9877 20.8735 17.3685 20.6147L20.5939 18.4698C21.5066 17.8603 21.8482 16.7562 21.4506 15.7211C21.0586 14.686 20.0675 14.1225 18.998 14.318Z" fill="black"/>
</svg>
