<svg width="33" height="32" viewBox="0 0 33 32" fill="none" xmlns="http://www.w3.org/2000/svg">
<path fill-rule="evenodd" clip-rule="evenodd" d="M16.5012 2C18.481 2 19.1033 3.36561 19.6242 4.73282C19.8444 5.31043 24.9871 18.8713 25.1408 19.2778C25.184 19.3898 25.1558 19.5778 24.9746 19.6442C24.8755 19.6802 24.0441 19.991 23.2804 20.2765L23.2798 20.2767C22.6354 20.5176 22.0394 20.7404 21.9721 20.765C21.8223 20.8159 21.6578 20.7414 21.6032 20.5978C21.5713 20.5163 21.1828 19.481 20.8389 18.5644L20.8379 18.5618C20.5913 17.9045 20.3678 17.3088 20.3155 17.1705H12.6969L11.4009 20.5978C11.3493 20.7338 11.189 20.825 11.0328 20.7658C10.916 20.7205 9.40029 20.1546 8.56683 19.8433L8.56662 19.8433L8.03358 19.6442C7.88287 19.5868 7.80725 19.4242 7.86326 19.2778C7.96178 19.0131 9.37879 15.2771 10.7528 11.6545L10.754 11.6513C12.0214 8.30969 13.2518 5.06559 13.3765 4.73282C13.8767 3.38721 14.523 2 16.5012 2ZM7.45613 26.2632C7.37857 26.264 7.30453 26.2945 7.25031 26.3479C7.19609 26.4013 7.16612 26.4733 7.16701 26.548V29.716C7.16701 29.8736 7.29579 30 7.45613 30H25.547C25.6243 29.999 25.698 29.9683 25.7517 29.9149C25.8055 29.8615 25.835 29.7896 25.8337 29.7152V26.5472C25.8348 26.4729 25.8052 26.4013 25.7514 26.348C25.6977 26.2947 25.6242 26.2642 25.547 26.2632H7.45613ZM13.9091 13.878L16.4863 6.42838H16.5187L19.1034 13.878H13.9091Z" fill="black"/>
</svg>
