<svg width="33" height="32" viewBox="0 0 33 32" fill="none" xmlns="http://www.w3.org/2000/svg">
<path d="M11.0368 19.514L10.9853 19.5643C10.1777 20.3847 9.2419 20.8195 8.27824 20.8195C6.26582 20.8195 4.80615 19.3139 4.80615 17.2373C4.80615 15.1633 6.26582 13.6572 8.27824 13.6572C9.2419 13.6572 10.1777 14.0926 10.9853 14.9171L11.0368 14.9664L12.3315 13.4058L12.2968 13.3639C11.2212 12.0961 9.92864 11.479 8.3413 11.479C6.74922 11.479 5.29113 12.0139 4.2434 12.9767C3.10058 14.0213 2.5 15.4934 2.5 17.2363C2.5 18.9807 3.10058 20.4559 4.24288 21.499C5.2906 22.4692 6.74869 22.9998 8.34077 22.9998C9.92812 22.9998 11.2207 22.3817 12.2963 21.1129L12.3309 21.0752L11.0368 19.514Z" fill="black"/>
<path d="M15.9234 11.6606H13.6367V22.788H15.9234V11.6606Z" fill="black"/>
<path d="M24.8795 20.369C24.27 20.7388 23.7025 20.9259 23.1913 20.9259C22.4525 20.9259 22.1178 20.5366 22.1178 19.6702V13.7652H24.4481V11.6697H22.1178V8.20801L19.8784 9.40504V11.6702H17.9453V13.7657H19.8784V20.0473C19.8784 21.7562 20.8956 22.9275 22.4136 22.959C23.444 22.9789 24.0656 22.6729 24.4408 22.4477L24.4655 22.4314L25.0145 20.2878L24.8795 20.369Z" fill="black"/>
<path d="M29.0608 11.6606H26.7715V22.788H29.0608V11.6606Z" fill="black"/>
<path d="M30.3944 9.70902C28.3058 6.75914 24.8379 5 21.308 5C17.7807 5 14.3113 6.75914 12.2258 9.70902L12.1191 9.86094H14.749L14.7789 9.82951C16.5675 7.98708 18.9057 7.01374 21.3085 7.01374C23.7108 7.01374 26.048 7.98708 27.8413 9.82951L27.8718 9.86094H30.5L30.3944 9.70902Z" fill="black"/>
</svg>
