<svg width="33" height="32" viewBox="0 0 33 32" fill="none" xmlns="http://www.w3.org/2000/svg">
<path fill-rule="evenodd" clip-rule="evenodd" d="M16.5097 30C8.78215 30 2.5 23.7201 2.5 16.008C2.5 8.27898 8.78215 2 16.5097 2C24.2205 2 30.5 8.27898 30.5 16.008C30.5 23.7201 24.2196 30 16.5097 30ZM16.51 2.47453C9.04545 2.47453 2.97851 8.54459 2.97851 16.008C2.97851 23.4564 9.04545 29.5229 16.51 29.5229C23.9586 29.5229 30.0255 23.4564 30.0255 16.008C30.0255 8.54459 23.9586 2.47453 16.51 2.47453Z" fill="black"/>
<path fill-rule="evenodd" clip-rule="evenodd" d="M21.1117 9.61271C14.4044 8.44509 10.441 9.82517 6.85572 12.1587L6.59533 12.9323C10.5915 10.1881 15.4894 9.43301 20.2101 10.2545C19.1584 10.6221 17.9805 10.812 16.8332 10.997C16.1322 11.11 15.4426 11.2212 14.8003 11.3699C14.4768 11.4436 14.187 11.5057 13.9105 11.5651C12.9505 11.7711 12.1501 11.9428 10.6553 12.441C8.7006 13.082 7.54744 13.7406 6.8256 14.578C6.48019 14.9737 6.21537 15.434 6.14983 15.9262C6.11883 16.2201 6.13566 16.4857 6.23397 16.7486C6.31368 16.9788 6.49524 17.2089 6.69275 17.4391C6.46424 17.833 6.26496 18.3447 6.59533 18.9369C6.74235 19.2149 7.12054 19.4937 7.48367 19.7593L7.3827 20.0523C7.3331 20.4002 7.28527 20.8092 7.51555 21.1544C7.90879 21.7794 8.38529 22.191 9.14167 22.5858C9.25858 23.0957 9.43748 23.5047 9.8325 23.8694C10.6704 24.6405 12.5462 26.1206 15.8835 26.3516C18.3838 26.5163 20.1755 25.7585 20.8504 25.4292L21.6723 25.0034C20.2738 25.5611 17.9241 25.8904 15.9986 25.7258C13.2025 25.4956 10.7058 23.6711 10.3931 23.1435C10.4719 23.1965 10.5734 23.2397 10.6692 23.2805C10.6919 23.2901 10.7142 23.2996 10.7359 23.3091C14.0094 24.8866 18.235 25.7435 23.6439 23.5392L24.0902 23.1117C19.172 24.6405 14.8667 24.5918 10.2435 22.1751C10.2859 21.9396 10.4152 21.7286 10.6057 21.5838C11.789 22.1069 12.9244 22.5372 14.3061 22.8151C15.9171 23.1117 17.7576 23.1781 19.2721 23.1117C20.8017 23.0462 23.8254 22.2893 25.2567 21.5342C25.3253 21.4734 25.376 21.3911 25.4275 21.3073C25.4744 21.2312 25.522 21.1539 25.5844 21.0907C22.7909 22.1069 19.4679 22.5867 17.4636 22.4362C15.5062 22.2902 13.7649 22.0582 11.4622 21.0066C11.905 20.8269 12.3656 20.6782 12.8261 20.5454C14.3389 21.0066 15.8835 21.2845 17.7089 21.3686C19.5192 21.451 23.743 20.7782 26.4063 19.1671C26.4904 18.9369 26.571 18.6881 26.571 18.6881C26.571 18.6881 22.8706 20.6631 18.6805 20.6631C16.7231 20.6631 15.523 20.3816 14.6364 20.1691C15.2121 20.0634 15.8315 19.9631 16.4897 19.8566C18.0848 19.5985 19.9074 19.3036 21.8849 18.8041C23.2993 18.4412 25.0415 17.6188 25.8324 16.9292C26.5055 16.3193 27.0325 15.5296 26.8518 14.7276C26.8164 14.5107 26.5214 14.0044 26.1601 13.822C26.5055 13.3776 26.4727 12.9987 26.424 12.673C26.3904 12.4216 26.2752 12.1454 26.1291 11.8993C25.8979 11.6001 25.6818 11.369 25.239 11.107C25.3054 10.729 25.2567 10.4006 25.107 10.0881C24.7616 9.49675 24.1381 8.98685 23.069 8.44509C23.0203 8.22997 22.8875 7.95024 22.6581 7.67228C21.311 6.34 19.1083 5.69909 17.2483 5.66545C14.9305 5.61587 13.0714 6.12665 11.9387 6.65426C11.4407 6.87209 10.9667 7.14086 10.5242 7.45628C13.9598 5.92748 18.1535 6.02751 20.4049 7.03137C20.4531 7.05372 20.5002 7.07548 20.5462 7.09673C21.1761 7.38769 21.6028 7.58478 21.8034 7.95024C19.467 7.32526 18.4644 7.21195 16.5088 7.25976C13.7286 7.31022 10.03 8.41056 8.61557 9.25154L7.99293 10.0235C10.03 8.82131 13.8287 8.03345 15.9349 7.96706C18.2855 7.93519 20.1091 8.14942 21.7875 8.75669C21.6874 9.18426 21.4739 9.3976 21.1117 9.61271ZM22.9389 9.25155L22.9385 9.25277L22.938 9.25243L22.9389 9.25155ZM22.9385 9.25277C23.3998 9.54844 23.9255 9.99178 23.9911 10.4519C23.4986 10.2696 22.9725 10.0757 22.4624 9.9438C22.6286 9.76177 22.8716 9.4827 22.9385 9.25277ZM21.7388 10.5988C22.4185 10.7785 23.0837 11.0087 23.729 11.2875C23.628 11.4398 23.0036 12.0134 22.8707 11.947C22.6273 11.8804 22.393 11.8092 22.1581 11.7379L22.1581 11.7379C21.6343 11.5788 21.1077 11.4188 20.4705 11.307C20.9283 11.1398 21.3564 10.9008 21.7388 10.5988ZM25.2676 14.7017C25.3188 14.6614 25.3702 14.6209 25.4216 14.577C26.4419 16.1545 22.6104 17.3717 19.9941 17.9338C18.5478 18.2269 16.5417 18.5871 15.8837 18.7049C14.1761 18.9846 13.6146 19.1325 12.4313 19.4777C11.8396 19.2466 11.2471 19.0006 10.706 18.7208C11.2471 18.4907 11.8388 18.3092 12.4145 18.1631C13.6928 17.8491 14.9044 17.6485 16.1621 17.4404C17.7512 17.1774 19.4139 16.9022 21.3776 16.3705C23.0701 15.9252 24.303 15.4472 25.078 14.8576C25.1407 14.8018 25.204 14.7519 25.2676 14.7018L25.2676 14.7017ZM16.4409 13.5845L16.4409 13.5845C18.1275 13.2772 19.8374 12.9657 21.5582 12.5066C20.1447 12.1287 19.3529 11.9631 17.8596 12.1446C15.6879 12.4084 13.2868 12.8661 11.2329 13.476L11.1262 13.5084C10.1112 13.8159 6.24687 14.9863 7.41829 16.5991C7.41829 16.6005 7.42292 16.5953 7.43286 16.584L7.43287 16.584C7.54706 16.455 8.36196 15.534 10.9185 14.7906C12.7193 14.2625 14.5657 13.9261 16.4409 13.5845L16.4409 13.5845ZM9.16026 21.4832C8.7493 21.1379 8.55091 20.8591 8.56685 20.5448C8.82487 20.7129 9.0829 20.8502 9.34161 20.9878L9.34163 20.9878L9.34164 20.9878L9.34165 20.9878L9.34167 20.9879L9.34168 20.9879L9.34169 20.9879L9.40736 21.0228C9.29223 21.1884 9.20897 21.3176 9.16026 21.4832ZM10.1629 20.3994C10.4537 20.2207 10.7617 20.0715 11.0822 19.9541C10.8886 19.8667 10.6895 19.78 10.4882 19.6923C10.1944 19.5643 9.89596 19.4344 9.60314 19.2972C9.37287 19.4451 9.1603 19.592 8.99556 19.739C9.38969 19.97 9.76877 20.1834 10.1629 20.3994ZM20.2102 14.1344C21.6247 13.7874 22.6113 13.4598 23.2995 13.1314C23.3323 13.0809 24.45 13.6236 24.566 13.7528C24.1879 14.0671 23.6626 14.3309 23.0869 14.5265C21.3599 15.1524 18.2201 15.8083 16.5612 16.0589L16.1432 16.1278L16.1432 16.1278L16.1432 16.1278L16.1431 16.1278C14.6434 16.3747 13.3267 16.5914 11.628 17.0406C10.5563 17.323 9.83358 17.6514 9.30748 17.9966C9.17773 17.9209 9.06573 17.8631 8.96091 17.8091C8.74733 17.699 8.56353 17.6042 8.31995 17.4035C9.6033 16.3191 12.2187 15.711 13.1735 15.4976C14.7965 15.1465 16.3592 14.8658 17.641 14.6356C18.7606 14.4344 19.666 14.2718 20.2102 14.1344ZM24.5566 12.6379L24.5566 12.6379C24.8046 12.7502 25.0366 12.8552 25.2571 13.0166C25.4697 12.604 25.3386 12.3411 24.8966 11.9631C24.7151 12.1782 24.5158 12.3579 24.3032 12.5208C24.3896 12.5622 24.474 12.6004 24.5566 12.6379ZM7.75022 18.3033C7.95847 18.4353 8.14035 18.5506 8.40474 18.688C8.36066 18.7259 8.31165 18.7639 8.26149 18.8027L8.26146 18.8027L8.26143 18.8028L8.26143 18.8028C8.18057 18.8654 8.09671 18.9303 8.02566 19.0013C7.7635 18.8517 7.49779 18.5251 7.63065 18.2276C7.67183 18.2536 7.7114 18.2786 7.75006 18.3032L7.75022 18.3033Z" fill="black"/>
</svg>
