<svg width="33" height="32" viewBox="0 0 33 32" fill="none" xmlns="http://www.w3.org/2000/svg">
<path fill-rule="evenodd" clip-rule="evenodd" d="M9 4C6.51472 4 4.5 6.01472 4.5 8.50001V23.5C4.5 25.9854 6.51472 28.0001 9 28.0001H24C26.4853 28.0001 28.5 25.9854 28.5 23.5V8.50001C28.5 6.01472 26.4853 4 24 4H9ZM12.6853 9.6416H10.1422V14.7272H12.6853V17.2701H10.1422V22.3557H12.6853V19.8129H15.2286V17.2701H17.7717V14.7272H15.2286V12.1844H12.6853V9.6416ZM17.7719 19.8133V17.2705H20.3151V19.8125H22.8582V22.3553H20.315V19.8133H17.7719ZM17.7718 19.8125H15.2286V22.3553H17.7718V19.8125ZM20.3149 14.7272V17.2701H22.8581V12.1844H20.3149V9.6416H15.2286V12.1844H17.7718V14.7272H20.3149Z" fill="black"/>
</svg>
