<svg width="33" height="32" viewBox="0 0 33 32" fill="none" xmlns="http://www.w3.org/2000/svg">
<path d="M14.5244 14.16H16.8303L16.8302 20H19.3008L19.3009 14.16H21.6067V12H14.5244V14.16Z" fill="black"/>
<path d="M30.5 14.16H26.8762C25.3356 14.16 24.3224 14.695 24.3224 16C24.3224 17.305 25.3356 17.84 26.8762 17.84H30.5V20H26.8765C23.5471 20 21.7695 18.392 21.7695 16C21.7695 13.608 23.5471 12 26.8765 12H30.5V14.16Z" fill="black"/>
<path d="M9.49888 12L8.18177 16.7751L6.86467 12H2.5V20H4.97061V13.4929L6.76544 20H9.59815L11.3941 13.4888V20H13.8646V12H9.49888Z" fill="black"/>
</svg>
