<svg width="33" height="32" viewBox="0 0 33 32" fill="none" xmlns="http://www.w3.org/2000/svg">
<path fill-rule="evenodd" clip-rule="evenodd" d="M16.499 2C8.76895 2 2.5 8.26808 2.5 15.9985C2.5 23.7309 8.76895 30 16.499 30C24.2301 30 30.5 23.7309 30.5 15.9985C30.5 8.26808 24.231 2 16.499 2ZM13.552 22.8688C13.6646 22.9301 14.0456 23.1749 14.1463 23.6627C14.2125 24.0152 14.168 24.3223 13.9963 24.6077C13.787 24.9533 13.4335 25.1409 12.9863 25.1409C12.7583 25.1409 12.5233 25.0846 12.3041 24.9859L11.6496 24.6758C8.79354 23.1631 7.02145 20.1071 7.02145 16.7015V15.2974C7.02145 11.8928 8.79847 8.83478 11.6615 7.31318C11.6901 7.30331 12.3032 7.01202 12.3032 7.01202C12.5233 6.91032 12.7573 6.85799 12.9844 6.85799C13.4296 6.85799 13.787 7.05152 13.9963 7.39217C14.168 7.67457 14.2135 7.98363 14.1463 8.33515C14.0382 8.8786 13.5767 9.1196 13.5352 9.14129L13.5323 9.14285C11.8668 9.89921 10.7897 11.6153 10.7897 13.5171V18.4838C10.7897 20.3865 11.8678 22.1046 13.552 22.8679V22.8688ZM21.3504 24.6758C24.2075 23.1631 25.9786 20.108 25.9786 16.7015V15.2974C25.9786 11.8928 24.2055 8.83478 21.3366 7.31318C21.3109 7.3043 20.6959 7.01202 20.6959 7.01202C20.4807 6.91032 20.2437 6.85799 20.0137 6.85799C19.5685 6.85799 19.215 7.05152 19.0038 7.39217C18.835 7.67457 18.7886 7.98363 18.8547 8.33515C18.9618 8.87338 19.4164 9.11494 19.4646 9.1406C19.4671 9.14191 19.4685 9.14266 19.4688 9.14285C21.1342 9.89921 22.2143 11.6153 22.2143 13.5171V18.4847C22.2143 20.3865 21.1303 22.1046 19.447 22.8688C19.3345 22.9301 18.9544 23.1759 18.8557 23.6627C18.7886 24.0152 18.8359 24.3223 19.0038 24.6077C19.215 24.9533 19.5695 25.1409 20.0137 25.1409C20.2495 25.1383 20.4821 25.0855 20.6959 24.9859L21.3504 24.6758Z" fill="black"/>
</svg>
