<svg width="33" height="32" viewBox="0 0 33 32" fill="none" xmlns="http://www.w3.org/2000/svg">
<path fill-rule="evenodd" clip-rule="evenodd" d="M28.5 28H4.5V4H28.5V28ZM23.8435 11.1953C23.8387 11.386 23.8341 11.5646 23.8331 11.6127H24.9221C24.8569 10.7846 24.7392 10.6607 24.038 10.6607H23.8567C23.8558 10.7158 23.8494 10.9644 23.8435 11.1953ZM24.2555 9.79034C25.283 9.79034 25.7181 10.2725 25.8281 11.1991C25.8552 11.4288 26.1936 15.0245 26.1936 15.0245H25.2105C25.2105 15.0245 25.0305 12.5889 25.0194 12.483L23.8163 12.4819C23.8113 12.5969 23.7234 15.0245 23.7234 15.0245H22.7711L22.9488 9.79034H24.2555ZM12.2789 18.8012C12.2798 18.7531 12.2844 18.5744 12.2893 18.3838L12.2893 18.3836C12.2952 18.1528 12.3015 17.9045 12.3024 17.8494L12.473 17.8386C13.1742 17.8386 13.3025 17.9733 13.3678 18.8012H12.2789ZM14.2737 18.3876C14.164 17.4612 13.7286 16.9789 12.7012 16.9789H11.3944L11.2167 22.213H12.1689C12.1689 22.213 12.2569 19.7854 12.2621 19.6704L13.4652 19.6715C13.4762 19.7774 13.6561 22.213 13.6561 22.213H14.6392C14.6392 22.213 14.301 18.6174 14.2737 18.3876ZM7.12874 15.0232V9.79034H10.2477V15.0232H9.28378V10.6606H8.09111V15.0232H7.12874ZM17.3097 11.6128H16.7858C16.5691 11.6128 16.4084 11.5644 16.306 11.4666C16.2337 11.3987 16.1983 11.3067 16.1983 11.1868V9.79034H15.2337V11.2844C15.2337 11.6289 15.37 11.9201 15.639 12.1516C15.9041 12.3807 16.2288 12.4962 16.6056 12.4962H17.3097V15.0233H18.2729V9.79034H17.3097V11.6128ZM19.3391 10.6606V9.79034H21.9129V10.6606H21.1131V15.0232H21.1012H20.1507H20.1389V10.6606H19.3391ZM17.9262 16.9787V18.6514H16.605V16.9787H15.6442V22.2138H16.605V19.5217H17.9262V22.2138H18.887V16.9787H17.9262ZM8.09111 21.382C8.09111 21.382 8.32634 21.4036 8.4199 21.4036C8.68067 21.4036 9.31468 21.3496 9.31468 20.4618C9.31468 19.5201 8.76919 19.521 8.29018 19.5218L8.24944 19.5218C8.16675 19.5218 8.09111 19.5396 8.09111 19.5396V20.2532V20.3603V21.382ZM8.09111 18.7015C8.22333 18.6955 8.37065 18.6915 8.53646 18.6915C10.0472 18.6915 10.2715 19.8709 10.2715 20.4381C10.2715 20.9173 10.0459 22.2118 8.58951 22.2118H7.19394H7.12874V17.8491V16.9789H9.8183V17.8491H8.09111V18.7015ZM12.1128 12.4161V12.4157C12.1208 10.9992 12.4709 10.5331 12.8401 10.5262C13.2092 10.5331 13.5593 10.9992 13.5673 12.4157V12.4161C13.5593 13.7995 13.2092 14.272 12.8401 14.2792C12.4709 14.272 12.121 13.7995 12.1128 12.4161ZM14.526 12.2221C14.5094 11.4735 14.3808 10.9371 14.1817 10.5561C13.8679 9.90486 13.368 9.66172 12.8518 9.65551L12.8502 9.6553L12.8485 9.65509L12.8401 9.65523L12.8316 9.65509L12.83 9.6553L12.8284 9.65551C12.3122 9.66172 11.8124 9.90486 11.4984 10.5561C11.2991 10.9371 11.1707 11.4735 11.1541 12.2221C11.1539 12.2232 11.1518 12.3901 11.1518 12.3914L11.152 12.3912C11.1525 12.8576 11.2045 13.3099 11.3059 13.6741C11.5702 14.7464 12.1809 15.1257 12.8185 15.1371L12.8239 15.1374L12.8316 15.1377L12.8401 15.1376L12.8485 15.1377C12.8528 15.1377 12.8574 15.1373 12.8617 15.1371C13.4992 15.1257 14.1099 14.7464 14.3742 13.6741C14.4758 13.3099 14.5277 12.8576 14.5282 12.3912L14.5283 12.3914L14.526 12.2221ZM22.5232 19.1448L23.6815 22.2122H22.6475L21.7013 19.556C21.6294 19.5565 21.1198 19.5558 21.1198 19.5558V22.2138H20.1566V16.9787H21.1198C21.1198 16.9787 21.1191 18.6671 21.1198 18.709H21.5148C22.0266 18.709 22.1739 18.2474 22.2178 17.7471C22.2474 17.4095 22.2679 17.0775 22.2737 16.9787H23.2211C23.2211 16.9787 23.1148 17.949 23.0341 18.281C22.9509 18.6226 22.7636 18.9657 22.5232 19.1448Z" fill="black"/>
</svg>
