<svg width="33" height="32" viewBox="0 0 33 32" fill="none" xmlns="http://www.w3.org/2000/svg">
<path fill-rule="evenodd" clip-rule="evenodd" d="M16.6301 2.00055C18.0203 1.98766 19.4033 2.20219 20.724 2.63558C23.5599 3.52942 26.0365 5.30183 27.7944 7.69554C29.5523 10.0892 30.5 12.9797 30.5 15.9473C30.5 18.915 29.5523 21.8055 27.7944 24.1992C26.0365 26.5929 23.5599 28.3653 20.724 29.2591C19.4083 29.7247 18.0258 29.9749 16.6301 30H16.5293C12.8085 30 9.24009 28.525 6.60909 25.8996C3.97809 23.2741 2.5 19.7132 2.5 16.0003C2.5 12.2873 3.97809 8.72642 6.60909 6.10096C9.24009 3.4755 12.8085 2.00055 16.5293 2.00055H16.6301ZM26.4036 11.9873C26.3836 11.0811 26.2041 10.1855 25.8733 9.34133L25.9794 9.21963C27.4083 11.2048 28.1797 13.5861 28.1854 16.0303C28.1924 18.3754 27.4809 20.6667 26.1464 22.5971C24.8119 24.5275 22.9181 26.0047 20.7187 26.831C19.4247 27.3834 18.0322 27.6696 16.6248 27.6725H16.524C13.417 27.6837 10.4326 26.464 8.22625 24.2811C6.01987 22.0982 4.77191 19.1307 4.75647 16.0303C4.75843 14.1324 5.22831 12.2641 6.12467 10.5902C6.64437 9.53712 8.11862 7.75376 9.48151 7.75376C10.2481 7.75376 10.6072 8.06453 10.8205 8.24912C10.9317 8.34545 11.0033 8.40741 11.0724 8.37294C11.1077 8.35534 11.1498 8.23822 11.2149 8.05696C11.522 7.2025 12.3414 4.92261 15.3732 4.92261C15.7996 4.93856 16.2221 5.00969 16.6301 5.13426C17.4468 5.45839 18.1455 6.02278 18.6333 6.75245C19.1211 7.48213 19.3749 8.3426 19.3611 9.21963C19.3611 9.92877 19.3289 10.4044 19.3009 10.8179C19.2794 11.1356 19.2604 11.4166 19.2604 11.7386C19.2604 12.4794 19.5839 12.797 19.7907 12.797C19.9975 12.797 20.1089 12.4794 20.1089 12.0667C20.1594 11.6501 20.1594 11.229 20.1089 10.8125C20.2083 10.9702 20.3089 11.1487 20.409 11.3263C20.5172 11.5181 20.6247 11.7087 20.7293 11.8709C20.7793 11.9675 20.8555 12.0481 20.9494 12.1033C21.0432 12.1585 21.1507 12.1862 21.2596 12.1831C21.6733 12.1831 21.6733 11.2464 21.6733 10.8284C21.8481 11.4928 22.0998 12.1761 22.332 12.8068C22.6491 13.668 22.9301 14.431 22.9301 14.9137C22.9444 15.0833 22.9245 15.2539 22.8717 15.4157C22.8189 15.5775 22.7342 15.7271 22.6225 15.8557C22.6059 15.8896 22.5899 15.9229 22.5743 15.9554C22.3951 16.3279 22.2658 16.5965 21.8854 16.5965C21.6799 16.5965 21.5503 16.5717 21.4199 16.5467C21.2878 16.5214 21.1549 16.496 20.9414 16.496C20.861 16.5032 20.7858 16.5389 20.7293 16.5965C20.5225 16.5965 20.4164 16.8082 20.4164 17.1257C20.4164 17.2316 20.5278 17.3321 20.7293 17.3321H20.9414C22.5165 17.4327 26.4036 15.8609 26.4036 11.9873ZM15.2672 11.5375C15.2579 12.9505 15.7395 14.3231 16.6301 15.4217H16.6248C17.064 15.7995 17.5225 16.1545 17.9982 16.4854C17.8576 15.9685 17.8215 15.4288 17.8922 14.8978C17.7198 14.4856 17.5774 14.1731 17.4296 13.8486C17.3136 13.594 17.1942 13.332 17.0543 13.0086C16.8514 12.7635 16.7064 12.4759 16.6301 12.1672C16.6137 12.1228 16.5976 12.0789 16.5818 12.0357C16.2999 11.2659 16.0931 10.7014 15.6914 10.7014C15.4846 10.7014 15.2672 10.8125 15.2672 11.5375ZM19.7843 22.443C20.0808 22.5731 20.4002 22.6436 20.724 22.6505V22.6558C21.3937 22.6475 22.0333 22.3772 22.5053 21.9032C22.9774 21.4292 23.2442 20.7892 23.2483 20.1209C23.2414 19.7971 23.1706 19.4777 23.04 19.1812C22.9094 18.8846 22.7216 18.6166 22.4872 18.3925C22.2527 18.1684 21.9764 17.9926 21.6739 17.8751C21.3713 17.7576 21.0486 17.7008 20.724 17.7078C20.9362 17.9195 21.3604 18.6445 20.8301 19.1737L20.724 19.2795C20.1036 19.8087 19.3717 19.2795 18.8414 18.5492C18.5234 19.0205 18.3401 19.5694 18.3111 20.1368C18.3041 20.46 18.3609 20.7814 18.4784 21.0826C18.5958 21.3838 18.7716 21.659 18.9957 21.8925C19.2198 22.1259 19.4877 22.313 19.7843 22.443Z" fill="black"/>
</svg>
