<svg width="33" height="32" viewBox="0 0 33 32" fill="none" xmlns="http://www.w3.org/2000/svg">
<path fill-rule="evenodd" clip-rule="evenodd" d="M28.4996 9.84308C28.4996 8.2934 27.8845 6.80719 26.7895 5.7114C25.6945 4.61561 24.2093 4 22.6607 4H14.4106C11.7907 4.00231 9.493 5.75035 8.79004 8.27597H18.7617C22.597 8.27597 24.2258 10.0616 24.2258 14.2525V23.7228C26.7008 23.0335 28.4996 20.7539 28.4996 18.1002V9.84308Z" fill="black"/>
<path fill-rule="evenodd" clip-rule="evenodd" d="M21.2081 13.228V13.2028C21.6708 13.0568 22.2872 12.6711 22.2872 11.6579C22.2872 10.5172 21.3617 9.99512 20.0585 9.99512H17.8481V12.7223H16.5459C14.7973 12.7223 14.437 13.9501 14.437 14.6182C14.437 15.5694 14.9857 15.9909 15.9981 16.4956C16.1027 16.5479 16.2107 16.5968 16.3179 16.6454L16.3179 16.6454C16.843 16.8831 17.3506 17.1129 17.3506 17.6973C17.3506 18.0675 17.0086 18.5142 16.2715 18.5142H14.8997C15.1064 18.1604 15.1915 17.7746 15.1915 17.4401C15.1915 17.0031 15.0369 15.2523 12.6024 15.2523H10.6143V22.0022H11.9677V19.0614L12.5164 19.6105H16.2203C17.9496 19.6105 18.7736 18.7191 18.7736 17.6557C18.7736 17.2787 18.705 16.9751 18.5852 16.7286H19.9735C22.1162 16.7286 22.6147 15.6652 22.6147 14.8318C22.6147 13.984 22.065 13.3565 21.2081 13.228ZM12.6022 18.5145H11.9675V16.3074H12.6022C13.3915 16.3074 13.7508 16.7869 13.7508 17.3708C13.7508 17.9122 13.4253 18.5145 12.6022 18.5145ZM17.848 15.964V14.3273H17.847L18.3783 13.7869H16.8549C16.0318 13.7869 15.8598 14.1958 15.8598 14.4713C15.8598 15.0127 16.3226 15.2525 16.7515 15.442L16.8917 15.5026C17.2346 15.6506 17.5604 15.7912 17.848 15.964ZM19.2016 11.0503H19.8199C20.8651 11.0503 20.9173 11.6932 20.9173 11.8904C20.9173 12.1814 20.7627 12.7228 19.8701 12.7228H19.2016V11.0503ZM19.2016 15.6653H19.9735C20.8304 15.6653 21.1743 15.2022 21.1743 14.7217C21.1743 14.2413 20.9173 13.7869 19.9735 13.7869H19.2016V15.6653Z" fill="black"/>
<path fill-rule="evenodd" clip-rule="evenodd" d="M4.5 22.1571C4.49974 23.707 5.11496 25.1935 6.21023 26.2894C7.30549 27.3853 8.79103 28.0007 10.3398 28.0002H18.59C21.2105 27.9987 23.5088 26.2498 24.2105 23.7232H14.2389C10.4026 23.7232 8.77386 21.9386 8.77386 17.7467V8.27637C6.30074 8.96663 4.5 11.2472 4.5 13.901V22.1571Z" fill="black"/>
</svg>
