<svg width="33" height="32" viewBox="0 0 33 32" fill="none" xmlns="http://www.w3.org/2000/svg">
<path d="M25.8338 22.1508C25.7992 21.854 25.6253 21.1738 25.1734 20.9991C24.9471 20.9118 24.7565 20.9812 24.6701 21.1385C24.5308 21.3832 24.635 21.854 24.8958 22.2733C25.1561 22.6921 25.3996 22.9015 25.5735 22.9015C25.7474 22.9015 25.9034 22.6921 25.8338 22.1508Z" fill="black"/>
<path d="M23.4017 23.3377C23.1237 23.0935 22.811 22.9715 22.5329 22.9715C22.2899 22.9715 22.0988 23.0583 21.9767 23.2156C21.6646 23.5991 21.8034 24.2978 22.2899 24.7166C22.4984 24.9086 22.811 25.0133 23.1064 25.0133C23.4017 25.0133 23.662 24.8913 23.8186 24.6992C24.0967 24.3152 23.9401 23.7917 23.4017 23.3377Z" fill="black"/>
<path d="M4.5 16.0074C4.5 22.6395 9.85059 28.0153 16.4528 28.0153C18.2077 28.0153 19.9443 27.6839 22.4984 27.666C24.7743 27.666 27.276 28.4688 30.0207 30.9126C30.2988 31.1567 30.6633 30.8426 30.4203 30.5459C27.7275 27.1078 25.2258 26.4622 22.7241 25.9035C19.6667 25.2227 18.103 23.5123 17.0085 21.6099C16.8 21.2259 16.6958 21.2958 16.678 21.7846C16.6583 22.5037 16.7108 23.2231 16.8346 23.9317H16.4701C12.1093 23.9317 8.56491 20.3709 8.56491 15.99C8.56491 11.6091 12.1093 8.04839 16.4696 8.04839C20.8304 8.04839 24.3748 11.6091 24.3748 15.99C24.3748 16.3041 24.357 16.6182 24.3224 16.9149C23.7317 16.8102 22.6026 16.7929 21.8034 16.8628C21.5081 16.8976 21.5426 17.037 21.7689 17.0722C24.3748 17.5604 26.1642 19.184 26.5811 22.1334C26.5984 22.2034 26.6853 22.2207 26.7204 22.1687C27.7798 20.3709 28.4051 18.2586 28.4051 16.0074C28.4051 9.37579 23.054 4 16.4523 4C9.85113 4 4.5 9.37525 4.5 16.0074Z" fill="black"/>
</svg>
