<svg width="33" height="32" viewBox="0 0 33 32" fill="none" xmlns="http://www.w3.org/2000/svg">
<path fill-rule="evenodd" clip-rule="evenodd" d="M25.5 5H7.5C6.39543 5 5.5 5.89543 5.5 7V25C5.5 26.1046 6.39543 27 7.5 27H25.5C26.6046 27 27.5 26.1046 27.5 25V7C27.5 5.89543 26.6046 5 25.5 5ZM7.5 4C5.84315 4 4.5 5.34315 4.5 7V25C4.5 26.6569 5.84315 28 7.5 28H25.5C27.1569 28 28.5 26.6569 28.5 25V7C28.5 5.34315 27.1569 4 25.5 4H7.5Z" fill="black"/>
<path fill-rule="evenodd" clip-rule="evenodd" d="M7.85867 22.2923L10.3797 24.8763L16.2852 18.8509L22.3886 25L24.9461 22.4533L18.9042 16.3789L20.0655 15.2479V12.8378L20.7944 12.2169V14.1047L21.734 14.875L24.5381 12.0552L25.4394 12.7508C25.9716 10.7755 22.8946 6.29071 20.3498 8.77495L17.3843 11.7319L17.9896 12.4649L16.4825 13.9431L15.0247 12.5016L15.7907 11.806L12.5414 8.65065C10.0953 6.62504 7.58708 9.70692 7.5 12.7129L8.38905 11.9677L11.1201 14.9252L12.0957 14.1047V12.291L12.701 12.7502V15.1236L13.8872 16.3165L7.85867 22.2923Z" fill="black"/>
</svg>
