<svg width="33" height="32" viewBox="0 0 33 32" fill="none" xmlns="http://www.w3.org/2000/svg">
<path fill-rule="evenodd" clip-rule="evenodd" d="M11.1801 15.24H9.29007V6H13.6301V7.75H11.1801V15.24ZM2.57007 15.24V6H6.91007L8.31007 7.4V11.6L6.91007 12.93H4.46007V15.24H2.57007ZM4.39007 11.11H6.28007V7.75H4.39007V11.11ZM18.8101 7.75H16.0801V13.42H18.8101V15.24H15.5201L14.1901 13.91V7.33L15.5201 6H18.8101V7.75ZM4.39 18.5995V20.0695C4.39 20.0695 6.84 20.0695 6.84 20.1395L8.24 21.4695V24.7595L6.91 26.0895H2.5V16.8495H7.82V18.5995H4.39ZM4.39 24.2695H6.28V21.8195H4.39V24.2695ZM8.8 26.0195L10.69 16.7795H13.98L15.87 26.0195H13.98L13.56 23.8495H11.11L10.69 26.0195H8.8ZM12.16 18.5995L11.46 22.0995H13.21L12.51 18.5995H12.16ZM18.6 20.5595H20.91V16.7795H22.8V26.0195H20.91V22.3795H18.6V26.0195H16.71V16.7795H18.6V20.5595ZM30.43 16.7795L28.82 21.3295L30.5 26.0195H28.47L27.14 22.2395H26.16V26.0195H24.2V16.7795H26.16V20.4195H27.21L28.47 16.7795H30.43Z" fill="black"/>
</svg>
