<svg width="33" height="32" viewBox="0 0 33 32" fill="none" xmlns="http://www.w3.org/2000/svg">
<path d="M30.5 16.6234V16.6918C30.4007 16.7849 30.3951 16.9156 30.3602 17.034C29.6367 19.3312 28.9142 21.6288 28.1926 23.9269C28.0465 24.0262 27.8793 23.9954 27.7185 23.9954C19.3126 23.9954 10.9064 23.9954 2.5 23.9954V23.9269C2.83982 22.0791 3.54253 20.3244 4.07043 18.5252C4.22146 18.0127 4.38927 17.5042 4.5466 16.9923C4.67735 16.568 4.79132 16.4893 5.24581 16.4763C5.35069 16.4763 5.45557 16.4763 5.55976 16.4763C13.624 16.4763 21.6859 16.4774 29.7455 16.4797C29.9987 16.4763 30.2846 16.3934 30.5 16.6234Z" fill="black"/>
<path d="M30.3004 11.1897C30.0612 10.1351 29.1753 9.55405 28.095 9.74293C27.7207 9.80992 27.3768 9.98875 27.1105 10.2548C27.1623 9.84422 27.3434 9.58347 27.6301 9.39185C27.9167 9.20023 28.2552 9.15711 28.5901 9.11468C28.9586 9.06815 29.3333 9.04625 29.669 8.86489C29.7801 8.80535 29.9074 8.75471 29.9018 8.59867C29.885 8.06555 29.9417 7.53175 29.8717 7H29.8018C29.7242 7.12319 29.5858 7.11839 29.4676 7.14098C28.8747 7.25664 28.2719 7.33055 27.6888 7.47905C26.3141 7.82876 25.3884 8.6281 25.1423 10.055C25.0624 10.5151 25.0389 10.9828 25.0723 11.4484C25.1737 12.8712 25.8855 13.7246 27.1539 13.9381C27.5222 13.995 27.8968 14.0016 28.267 13.9579C29.7969 13.7998 30.6339 12.6604 30.3004 11.1897ZM27.7398 12.425C27.3462 12.4373 27.0931 12.1711 27.0931 11.7406C27.0931 11.3101 27.3217 11.0672 27.7042 11.0617C28.0866 11.0562 28.3251 11.3053 28.3335 11.7228C28.3419 12.1403 28.116 12.4133 27.7398 12.425Z" fill="black"/>
<path d="M12.4099 10.1328C12.0974 9.48814 11.5499 9.1357 10.8234 9.05631C10.1095 8.97898 9.49981 9.18976 8.93904 9.80569C9.00896 9.11243 8.58944 9.17813 8.19368 9.18976C7.93752 9.20419 7.68071 9.20419 7.42455 9.18976C7.198 9.17128 7.14486 9.2582 7.15815 9.46351C7.17423 9.70167 7.16234 9.94256 7.16234 10.18C7.16234 11.9197 7.16234 13.6593 7.16234 15.3983C7.16234 15.5933 7.17073 15.709 7.43224 15.6974C8.02377 15.672 8.6209 15.6823 9.21034 15.6782C9.27327 15.0821 9.21803 14.4847 9.2439 13.8886C9.2439 13.7996 9.14671 13.6498 9.34389 13.6231C10.406 14.3649 11.8729 14.0207 12.426 12.8703C12.8602 11.9649 12.8469 11.0375 12.4099 10.1328ZM9.84033 12.3584C9.39703 12.3467 9.2439 12.1346 9.2439 11.5303C9.2439 10.8959 9.418 10.6639 9.88438 10.6783C10.3039 10.6913 10.5934 11.0492 10.5836 11.5385C10.5738 12.0278 10.2599 12.3693 9.84033 12.3584Z" fill="black"/>
<path d="M13.4563 11.5C13.4563 10.8156 13.4647 10.1361 13.4514 9.45444C13.4472 9.24434 13.5066 9.18069 13.7241 9.18822C14.2464 9.20396 14.7729 9.20122 15.2931 9.18822C15.4889 9.18412 15.5595 9.23613 15.5511 9.43459C15.5364 9.79799 15.5511 10.1621 15.5441 10.5255C15.5399 10.689 15.5966 10.7308 15.7637 10.7397C16.5069 10.7691 16.5041 10.7753 16.5076 10.0464C16.5076 9.77267 16.4181 9.41543 16.5594 9.25597C16.7265 9.06777 17.1055 9.20738 17.3928 9.19507C17.6802 9.18275 17.9753 9.20875 18.2641 9.18822C18.513 9.17043 18.6032 9.22518 18.6004 9.49619C18.5843 10.8485 18.5885 12.2008 18.6004 13.5524C18.6004 13.7687 18.5556 13.8508 18.3158 13.8419C17.8054 13.8234 17.2929 13.8268 16.7817 13.8419C16.572 13.8474 16.4923 13.7995 16.502 13.5805C16.5209 13.2294 16.502 12.8763 16.5097 12.5245C16.5139 12.3671 16.4685 12.311 16.2965 12.3014C15.5469 12.2603 15.5497 12.2542 15.5462 12.9782C15.5462 13.252 15.6357 13.6031 15.4966 13.7687C15.3316 13.9651 14.9533 13.8214 14.6687 13.8337C14.3555 13.8481 14.0394 13.8241 13.7269 13.8412C13.5171 13.8528 13.4472 13.7947 13.4514 13.5791C13.4654 12.8858 13.4563 12.1933 13.4563 11.5Z" fill="black"/>
<path d="M24.5894 9.18989C24.3398 9.83867 24.1161 10.4347 23.8783 11.0254C23.8465 11.0967 23.8297 11.1736 23.829 11.2515C23.8283 11.3293 23.8436 11.4065 23.8741 11.4784C24.1741 12.2442 24.4538 13.0134 24.7614 13.8367C24.0818 13.8367 23.4392 13.8367 22.796 13.8367C22.6561 13.8367 22.6337 13.732 22.5953 13.6383C22.4387 13.2591 22.2638 12.8855 22.131 12.4988C22.0422 12.2408 21.8513 12.3044 21.6786 12.3085C21.4577 12.314 21.5562 12.4913 21.552 12.5932C21.5402 12.9224 21.5388 13.253 21.552 13.5821C21.5583 13.7662 21.5136 13.8456 21.3038 13.8401C20.7689 13.8271 20.2333 13.8306 19.6956 13.8401C19.525 13.8401 19.4488 13.8121 19.4502 13.6198C19.4581 12.2209 19.4581 10.8223 19.4502 9.42394C19.4502 9.25012 19.4936 9.18442 19.6831 9.18921C20.2182 9.20061 20.7542 9.20061 21.2912 9.18921C21.487 9.1851 21.5597 9.23643 21.552 9.43489C21.5374 9.78666 21.5437 10.1398 21.552 10.4922C21.552 10.5798 21.4898 10.7147 21.6548 10.7352C21.7947 10.753 21.9226 10.7468 21.9884 10.5737C22.138 10.1802 22.3079 9.7935 22.4666 9.40273C22.5149 9.28297 22.5582 9.18647 22.7295 9.18921C23.335 9.19879 23.9357 9.18989 24.5894 9.18989Z" fill="black"/>
</svg>
