<svg width="33" height="32" viewBox="0 0 33 32" fill="none" xmlns="http://www.w3.org/2000/svg">
<path fill-rule="evenodd" clip-rule="evenodd" d="M16.5045 2.00082C8.77152 2 2.50082 8.2642 2.5 15.998C2.49754 23.7276 8.76412 29.9984 16.4971 30C24.2293 30.0016 30.4975 23.7333 30.5 16.0053C30.5025 8.27156 24.2359 2.00327 16.5045 2V2.00082ZM16.4966 29.1143C9.25482 29.1134 3.38421 23.2418 3.38668 15.9971C3.38914 8.75397 9.26139 2.88312 16.5039 2.88639C23.7481 2.88721 29.6188 8.7597 29.6171 16.0052C29.6146 23.2491 23.7416 29.1175 16.4974 29.1151L16.4966 29.1143ZM24.3666 10.0017C24.3452 9.9903 24.3228 9.97884 24.2995 9.96695C23.9879 9.8078 23.5256 9.57167 23.4851 8.44625C23.4464 7.23839 23.0365 6.60215 21.5438 5.27571C21.5438 5.27571 21.5249 5.52105 21.5635 5.66171C21.5635 5.66171 21.0969 5.12933 20.01 4.86682C20.01 4.86682 20.1316 4.38597 20.1645 4.09729C20.1858 3.87404 20.0141 3.64097 19.6395 3.72929C19.4405 3.77423 18.9893 3.92733 18.5261 4.0845L18.526 4.08451C18.062 4.24196 17.5859 4.4035 17.3392 4.46448C16.8463 4.58469 13.6136 5.70096 11.6609 7.56386C11.6609 7.56386 12.0774 6.40425 13.0328 5.20457H13.0271C12.3025 5.40656 11.6633 5.65189 11.002 5.98637C9.95867 7.39622 8.64998 10.1709 8.64916 12.5065C8.64916 12.5065 8.02234 10.5888 8.54483 7.64074L8.5325 7.653C7.86441 8.23886 7.26847 8.90153 6.75719 9.62712C6.63396 11.2848 6.62246 13.487 7.9714 16.5562C7.9714 16.5562 6.61014 15.574 5.36635 12.2726L5.35814 12.289C4.96571 13.364 4.73726 14.4914 4.68038 15.6337C5.78697 17.661 7.45138 19.6858 10.7942 21.4997C10.7942 21.4997 8.05027 21.0973 4.95066 18.7666C5.23275 20.0117 5.72379 21.2006 6.40311 22.2831C8.09052 23.0175 10.703 23.9669 14.4483 23.7543C14.4483 23.7543 12.4224 24.8975 8.27783 24.5582C8.27783 24.5582 8.99667 25.4495 10.9026 26.363C12.6294 27.1865 14.8689 26.6713 15.6223 26.1765C16.5194 25.582 17.4994 24.1239 17.0271 22.2962C17.0271 22.2962 16.6615 23.0052 15.7677 23.2792C15.7677 23.2792 16.4758 22.7263 16.4758 21.7147C16.4758 20.7007 15.642 20.0203 14.6027 19.932C14.0193 19.8836 13.1609 19.92 12.5544 19.9458H12.5544H12.5543L12.5543 19.9458C12.3001 19.9566 12.0901 19.9655 11.9632 19.9655C11.5344 19.9655 10.9527 19.9655 10.5502 19.4724C10.5502 19.4724 11.1318 19.4536 11.7471 19.3186C11.896 19.2873 12.0937 19.2307 12.314 19.1676L12.314 19.1676L12.3141 19.1676C12.8294 19.0201 13.4686 18.837 13.8979 18.8582C13.8979 18.8582 13.6818 18.5761 13.1889 18.5835C12.9912 18.5851 12.8949 18.6273 12.7921 18.6724C12.7372 18.6965 12.6805 18.7214 12.6056 18.7413C12.3222 18.8108 11.8038 18.8329 11.5048 18.2596C11.5048 18.2596 11.9336 18.5925 12.2992 18.491C12.522 18.4308 12.5996 18.3467 12.67 18.2704C12.698 18.2401 12.7249 18.211 12.7592 18.1852C12.8858 18.0903 13.1109 18.0126 13.3245 18.0126C13.538 18.0126 13.7443 18.0601 13.9283 18.2171C14.1148 18.3676 14.4812 18.3389 14.2651 18.1222C14.0515 17.9096 13.7443 17.697 13.2858 17.6929C12.5037 17.6831 11.1063 17.8466 10.6134 18.0936C10.2717 18.2645 10.0071 18.4845 9.88227 18.6382C9.8379 18.6939 9.74425 18.6963 9.74836 18.599C9.77218 18.1206 9.96935 16.8342 10.5699 16.2847C11.1975 15.709 12.8274 15.2976 13.4699 15.1774C13.4699 15.1774 13.3088 14.8037 13.4945 14.5624C13.7763 14.2141 14.6874 13.5606 20.0889 13.5623C20.0889 13.5623 19.7931 13.7945 19.6674 13.9802C19.6674 13.9802 21.7755 14.0971 22.9535 14.6875C23.1367 14.7775 23.5081 14.8102 23.6288 13.9818L23.292 13.7667C23.292 13.7667 23.3224 13.6424 23.3544 13.4911C23.3865 13.3358 23.3544 13.3047 23.2312 13.3677C23.1113 13.429 23.0776 13.4903 23.0776 13.4903C23.0776 13.4903 22.772 13.613 22.7391 13.4306C22.7087 13.245 22.3694 12.7838 21.6966 12.6913C21.6966 12.6913 22.0359 12.2301 22.8106 12.3381C22.8106 12.3381 22.8738 12.5613 23.0357 12.4975C23.0667 12.4859 23.0998 12.4715 23.1332 12.4569C23.2781 12.3936 23.4288 12.3278 23.4448 12.4787C23.4694 12.6644 23.5467 12.9661 23.9763 12.4975C23.9763 12.4975 24.4093 12.7232 24.7962 12.5793C25.1848 12.4354 25.4633 12.1892 25.552 11.5571L25.5576 11.5241C25.5773 11.408 25.5851 11.3623 25.6793 11.2512C25.7796 11.1286 25.8593 10.9544 25.6744 10.8015C25.4312 10.597 24.6738 10.1693 24.3666 10.0017ZM16.3027 10.5747C16.5114 10.4929 16.5705 10.6736 16.5303 10.7996C16.3331 11.3851 16.0587 12.2528 16.1614 12.6429C16.2616 13.0272 17.2228 13.2537 17.2228 13.2537C17.1691 13.2593 17.0393 13.2677 16.8768 13.2781H16.8768C16.4929 13.3028 15.9265 13.3392 15.7482 13.3789C15.4993 13.4345 15.0959 13.477 15.1789 12.9904C15.2774 12.3967 15.5855 11.3303 15.5855 11.3303C15.3013 11.4137 14.7073 11.6967 14.5027 11.8226C14.2974 11.9453 14.2399 11.9208 14.2974 11.7809C15.1296 9.85095 16.8778 7.79096 17.94 6.93147L17.9614 6.99363C16.5705 8.5883 15.6677 10.7996 15.6677 10.7996C15.7556 10.749 15.8923 10.7071 16.0311 10.6646L16.0311 10.6646L16.0311 10.6646L16.0311 10.6646C16.1256 10.6356 16.2211 10.6064 16.3027 10.5739V10.5747ZM18.7626 5.64054C18.8053 5.45735 19.1216 4.94215 19.3706 4.64775C19.433 4.56924 19.3706 4.51363 19.1915 4.62485L19.1798 4.63206C18.9771 4.7576 18.2105 5.2323 17.6798 6.11158C17.6149 6.22361 17.6568 6.3929 17.9395 6.29313C18.2214 6.19935 18.5112 6.13093 18.8053 6.08868C18.9655 6.06905 18.9655 5.95538 18.853 5.90877C18.7404 5.86543 18.7207 5.81636 18.7626 5.64054ZM22.8779 8.96167C22.8343 9.23154 22.6971 9.25199 22.4934 9.14159L22.4529 9.11833C22.2837 9.02107 22.216 8.98219 22.1122 8.96167C21.9988 8.93959 21.8871 8.98294 21.9783 9.14159C22.0687 9.30105 22.2248 9.75002 22.1557 10.0649C22.1557 10.0649 21.6546 9.09988 21.0549 8.62311C20.7028 8.33986 21.3216 8.40025 21.5052 8.41817L21.5273 8.4203C21.8929 8.45765 22.0041 8.50333 22.1069 8.54558L22.1069 8.54559C22.1369 8.55792 22.1662 8.56995 22.2009 8.58141C22.3513 8.61984 22.6758 8.70162 22.7924 7.81269C22.8015 7.76935 22.8524 7.78243 22.8565 7.81842C22.9058 8.24612 22.9173 8.72861 22.8779 8.96167ZM20.7823 20.0048C20.7823 20.0048 21.2275 20.5192 21.529 20.8839V20.8831C21.7105 21.1023 21.9279 21.3298 22.1597 21.5725C22.8679 22.3139 23.7104 23.1958 24.0725 24.4077L24.0848 24.3996C23.5253 24.9499 22.9215 25.4251 22.2602 25.8503C22.4073 25.5837 22.91 24.1215 21.9899 22.1948C21.0682 20.2747 19.8203 19.2304 18.6151 18.411C17.4158 17.5983 15.4739 16.9867 15.0621 16.857L15.0521 16.8539C14.666 16.7353 14.6858 16.6127 14.7679 16.3632C14.8509 16.1187 15.2181 15.5479 15.2181 15.5479C15.0571 15.5626 14.6036 15.7098 14.3785 15.8104C14.155 15.9143 13.971 15.893 13.9053 15.8317C13.4929 15.4187 14.3604 14.6009 14.3604 14.6009C14.3793 14.8912 14.482 15.0311 14.9108 14.973C15.3397 14.9084 16.7741 14.789 17.1002 14.7898C17.1002 14.7898 15.5451 15.9969 15.2805 16.4058C15.0641 16.7326 15.3004 16.7467 15.5078 16.7591H15.5079C15.5579 16.7621 15.6062 16.765 15.6461 16.7721C15.6772 16.778 15.7378 16.7851 15.8233 16.795L15.8233 16.795C16.3045 16.8507 17.5732 16.9976 18.7975 17.5531C19.5344 17.8835 20.5219 18.6473 21.0887 19.3334C21.1178 19.3673 21.1527 19.4085 21.1919 19.4546C21.4342 19.7398 21.8398 20.2172 22.0294 20.3777C22.0294 20.3777 21.2152 20.255 20.7823 20.0048ZM26.7652 20.3358C26.5244 20.967 26.2252 21.5745 25.8714 22.1505V22.1497C24.5849 18.5097 20.9652 17.0631 20.9652 17.0631C23.4596 17.6449 25.5039 19.3065 26.6981 20.2772L26.7652 20.3317V20.3358ZM26.0431 14.7507C25.3694 14.9331 24.3458 15.0157 23.4832 14.8938C23.4832 14.8938 25.4729 15.7501 27.4462 17.6269V17.6089C27.5029 17.1534 27.5317 16.6921 27.5276 16.2227C27.5326 16.1722 27.5326 16.1212 27.5276 16.0706C27.1809 15.9292 25.0392 15.3224 25.0392 15.3224C25.7596 15.2815 26.0431 14.7507 26.0431 14.7507ZM17.4285 27.5775C18.1837 27.4847 18.9285 27.3218 19.6532 27.0909L19.6614 27.0852C20.05 26.1856 20.4764 24.039 20.0237 22.3805C20.0237 22.3805 20.1091 26.2878 17.4277 27.5775H17.4285Z" fill="black"/>
</svg>
