<svg width="33" height="32" viewBox="0 0 33 32" fill="none" xmlns="http://www.w3.org/2000/svg">
<path fill-rule="evenodd" clip-rule="evenodd" d="M22.5693 7.11228L25.2913 5.10585C22.8033 3.09114 19.6977 1.99441 16.4963 2.00002V2.00123C14.6589 1.99955 12.8393 2.36055 11.1418 3.06355C9.54539 3.72465 8.08649 4.67595 6.83859 5.86829C5.51158 7.13077 4.44502 8.64291 3.7009 10.3192C2.90748 12.1065 2.49836 14.0406 2.50001 15.9961C2.5 15.9986 2.5 16.001 2.5 16.0034C2.49863 17.8415 2.86015 19.6617 3.56384 21.3596C4.23158 22.9709 5.19495 24.442 6.40337 25.6973C7.65901 27.0077 9.15908 28.0617 10.8203 28.7991C12.5437 29.564 14.4035 29.9716 16.2874 29.9981C16.3584 29.9992 16.4294 29.9998 16.5005 29.9998C18.3386 30.0016 20.1588 29.6404 21.8568 28.9367C23.3403 28.3218 24.7049 27.4561 25.8915 26.3792L25.8937 26.3816C27.346 25.0704 28.5065 23.4687 29.3001 21.6803C30.0937 19.8918 30.5024 17.9565 30.5 15.9998C30.5017 15.1587 30.4282 14.319 30.2801 13.491L27.2668 15.7118V15.9998C27.2676 17.5041 26.9522 18.9918 26.3413 20.3664C25.8031 21.5774 25.0459 22.6769 24.1095 23.6102L24.1082 23.6089C23.1105 24.6103 21.9248 25.4047 20.6193 25.9465C19.3138 26.4884 17.9141 26.767 16.5007 26.7664V26.7662C16.3306 26.7663 16.1608 26.7623 15.9914 26.7543L15.9619 26.7521L15.9619 26.7529C14.6421 26.687 13.3442 26.3782 12.1339 25.8403C10.9231 25.3022 9.82378 24.5454 8.8903 23.6094L8.89168 23.6081C7.89014 22.6105 7.09561 21.4248 6.55376 20.1192C6.01192 18.8136 5.73344 17.4137 5.73432 16.0002C5.73432 16.0001 5.73432 16 5.73432 15.9999H5.73433C5.73433 15.9914 5.73433 15.9828 5.73435 15.9743C5.73467 15.8389 5.73746 15.7042 5.74274 15.5701C5.7965 14.2129 6.10729 12.8769 6.65997 11.6333C7.19798 10.4229 7.95464 9.32383 8.89045 8.39066L8.8919 8.39211C9.88944 7.39019 11.0752 6.59534 12.381 6.05328C13.6867 5.51121 15.0867 5.23261 16.5006 5.2335C16.6809 5.2335 16.86 5.2401 17.0381 5.24889L17.0382 5.24643C19.0155 5.34411 20.931 5.98828 22.5693 7.11228ZM29.2563 10.2239C28.8068 9.23419 28.2438 8.30004 27.5787 7.44019L16.5037 15.6055L11.1741 12.2644V16.2839L16.5037 19.625L29.2563 10.2239Z" fill="black"/>
</svg>
