<svg width="33" height="32" viewBox="0 0 33 32" fill="none" xmlns="http://www.w3.org/2000/svg">
<path fill-rule="evenodd" clip-rule="evenodd" d="M13.7891 17.4662C17.9138 18.9267 22.4375 16.7538 23.8881 12.6067C25.3434 8.46053 23.1783 3.91689 19.0537 2.45518C14.9314 0.993463 10.41 3.1685 8.95231 7.31466C7.49936 11.4618 9.66206 16.0043 13.7891 17.4662ZM24.3422 23.7306L24.3399 22.9327L24.3399 22.9241C24.3351 21.3954 20.784 20.1686 16.4131 20.1835C12.0405 20.1996 8.49925 21.4525 8.50317 22.9832L8.50318 22.9837L8.50556 23.7868C8.51034 25.3177 12.0591 26.5445 16.4323 26.5296C20.8079 26.5126 24.347 25.2593 24.3422 23.7306ZM16.4227 28.6316C12.0495 28.6316 8.50317 28.8538 8.50317 29.0781V29.5553C8.50317 29.7787 12.0495 29.9999 16.4227 29.9999C20.7959 29.9999 24.3422 29.7787 24.3422 29.5553V29.0781C24.3422 28.8538 20.7959 28.6316 16.4227 28.6316Z" fill="black"/>
</svg>
