<svg width="33" height="32" viewBox="0 0 33 32" fill="none" xmlns="http://www.w3.org/2000/svg">
<path d="M31.111 15.1394L31.5 13.8997L30.2121 13.9404C30.1028 13.9404 29.3122 13.9177 28.5449 13.3646C28.602 13.3693 28.6591 13.3779 28.7181 13.3779C29.5077 13.3779 30.2731 12.9043 30.5788 12.2272L31.1323 11.0036C30.4376 11.013 29.8018 10.925 29.8018 10.925C29.797 10.925 29.2958 10.8606 28.7181 10.2715C28.302 9.85003 27.7892 9.62653 27.2318 9.62653C27.0115 9.62712 26.7927 9.66196 26.5835 9.72976C26.6126 9.63031 26.6397 9.52992 26.6561 9.42669C26.8332 8.28074 26.093 7.40849 26.093 7.40943L25.1234 6.21423L24.5235 7.61589C24.5215 7.62063 24.3687 7.95021 24.0977 8.11027C23.996 7.61224 23.7486 7.15388 23.3856 6.791C22.7824 6.17336 21.9459 5.82632 21.073 5.83161C20.833 5.83161 20.6617 5.85718 20.6211 5.86381L19.4512 6.09301C19.5511 5.69843 19.7109 5.32076 19.9254 4.97262L20.5708 3.97251L18.9471 4.15625L18.4304 3.06333L17.4289 3.57664L16.5019 2.6665L15.5788 3.57664L14.5754 3.06333L14.0587 4.15625L12.436 3.97157L13.0824 4.97262C13.3456 5.37986 13.4888 5.83161 13.5555 6.09111L12.4389 5.87234L12.4002 5.86666C12.2466 5.84271 12.0913 5.83099 11.9358 5.83161C11.419 5.83161 10.433 5.95663 9.62411 6.791C9.26056 7.15378 9.01248 7.6121 8.91001 8.11027C8.64005 7.95116 8.49007 7.62726 8.49007 7.62726L7.88821 6.21612L6.90414 7.4189C6.78319 7.57328 6.19101 8.39439 6.3526 9.42669C6.3697 9.52882 6.39362 9.62974 6.4242 9.72881C6.21508 9.66079 5.99627 9.62563 5.7759 9.62463C5.21952 9.62463 4.70572 9.84909 4.29061 10.2705C3.71294 10.8568 3.21559 10.924 3.21946 10.924C3.21946 10.924 2.69307 11.0178 1.87834 11.0026L2.42891 12.2262C2.73565 12.9034 3.50103 13.3769 4.28964 13.3769C4.34866 13.3769 4.40575 13.3675 4.46381 13.3637C3.98391 13.7127 3.40841 13.9136 2.81112 13.9404L1.5 13.8988L1.89769 15.1394C2.09799 15.7778 2.76564 16.8366 4.04483 16.9512C3.9055 17.5308 3.59683 18.1824 2.91949 18.4617L1.9422 18.8624L2.47439 19.7867C2.77532 20.2839 3.48168 20.8664 4.48703 20.8664C4.70475 20.8664 4.91472 20.8446 5.11695 20.802C5.16824 21.0293 5.23307 21.2566 5.31048 21.4839C5.6085 22.3703 5.35112 22.9887 5.34821 22.9954L4.86537 24.0012L5.94233 24.2834C5.95588 24.2881 6.281 24.3772 6.68836 24.3772C6.99347 24.3797 7.29585 24.3207 7.57664 24.2038C7.71597 24.4529 7.88627 24.6802 8.0827 24.8829C8.77261 25.5885 9.75087 25.9455 10.9894 25.9455H10.9933L11.8777 25.9341L10.0508 26.6899L11.4384 27.3566C11.9416 27.6019 12.5395 27.8908 13.1482 28.1115L12.975 28.5831L13.453 28.8009C13.4956 28.8199 14.4148 29.229 15.9436 29.3161C15.9436 29.3161 16.3113 29.3332 16.5145 29.3332C16.7177 29.3332 17.0825 29.3142 17.0825 29.3142C18.6017 29.2252 19.5132 28.8199 19.5557 28.8L20.0357 28.5821L19.8605 28.1105C20.4856 27.8832 21.1059 27.582 21.5887 27.3472L22.9501 26.689L21.1291 25.9341L22.0174 25.9455C23.2578 25.9455 24.2361 25.5875 24.925 24.8819C25.1215 24.6802 25.2898 24.4539 25.4301 24.2038C25.7115 24.32 26.014 24.3789 26.3194 24.3772C26.72 24.3772 27.049 24.2891 27.0577 24.2862L28.1395 24.0021L27.6682 23.0143C27.6566 22.9887 27.3992 22.3703 27.6973 21.4829C27.7747 21.2566 27.8385 21.0283 27.8908 20.801C28.094 20.8446 28.3049 20.8664 28.5246 20.8673C29.3442 20.873 30.1073 20.4593 30.5372 19.7763L31.0655 18.8614L30.0882 18.4627C29.409 18.1824 29.1013 17.5317 28.9639 16.9512C30.2266 16.8423 30.903 15.7825 31.111 15.1394Z" fill="white"/>
<path fill-rule="evenodd" clip-rule="evenodd" d="M18.6359 5.68905C18.0477 5.36332 17.2835 5.17771 16.5028 5.17763C15.7269 5.17771 14.9627 5.36332 14.3726 5.68905C14.3174 5.51005 14.2429 5.29223 14.1403 5.06398L14.3629 5.0905L14.5961 5.11418L14.6967 4.90298L14.9899 4.27791L15.5357 4.55919L15.7466 4.66527L15.915 4.50048L16.5023 3.91992L17.0925 4.50048L17.2619 4.66527L17.4728 4.55919L18.0147 4.27791L18.3127 4.90298L18.4114 5.11418L18.6456 5.0905L18.8681 5.06398C18.7656 5.29223 18.6901 5.51005 18.6359 5.68905ZM16.5021 6.46561C15.4677 6.46656 14.6926 6.80371 14.5233 7.20148L16.503 7.97808L18.4828 7.20148C18.3154 6.80371 17.5394 6.46656 16.503 6.46561H16.5021ZM16.5229 27.0454H16.4842C15.8562 27.0492 14.9921 26.9223 14.578 26.801L14.0768 28.1478C14.4058 28.2652 15.5243 28.4887 16.5055 28.4887C17.4828 28.4887 18.6004 28.2652 18.9303 28.1478L18.4301 26.801C18.013 26.9213 17.1499 27.0492 16.5239 27.0454H16.5229ZM18.623 26.3762C19.1068 26.2294 19.938 25.9141 20.3106 25.7048L20.0628 26.5145L20.9056 26.7939C20.3056 27.0865 19.677 27.3194 19.0294 27.489L18.623 26.3762ZM12.696 25.7048L12.9456 26.5145L12.1019 26.7939C12.6108 27.0487 13.2311 27.2864 13.9771 27.489L14.3835 26.3762C13.9007 26.2294 13.0675 25.9141 12.696 25.7048ZM28.4115 12.4067C28.5102 12.44 28.6138 12.4569 28.7182 12.4569C29.1594 12.4569 29.5852 12.1728 29.7323 11.8479C29.7323 11.8479 28.9233 11.7987 28.0534 10.9198C27.7767 10.6357 27.4826 10.5504 27.231 10.5504C26.841 10.5504 26.5478 10.755 26.5478 10.755C27.1154 11.0558 27.4391 11.4546 27.7109 11.7896C27.9425 12.0749 28.1364 12.3139 28.4115 12.4067ZM4.59328 12.4056C4.4955 12.4399 4.39235 12.4572 4.28848 12.4568C3.84822 12.4568 3.42053 12.1717 3.27539 11.8478C3.27539 11.8478 4.08335 11.7986 4.95227 10.9197C5.23094 10.6346 5.52316 10.5494 5.77668 10.5494C6.16469 10.5494 6.45885 10.7549 6.45885 10.7549C5.89295 11.0551 5.56939 11.4529 5.29739 11.7874C5.06476 12.0734 4.86984 12.3131 4.59328 12.4056Z" fill="white"/>
<path fill-rule="evenodd" clip-rule="evenodd" d="M28.7482 16.0377C28.7308 16.0376 28.7133 16.037 28.696 16.0358V16.0368C28.1909 16.0188 27.9315 15.8256 27.9315 15.8256C27.9315 15.8256 27.7341 18.4897 29.7323 19.3155C29.7323 19.3155 29.3694 19.9444 28.5353 19.9444H28.5257C27.5232 19.9387 27.1207 19.3316 27.1207 19.3316C27.1207 19.3316 27.1787 20.1215 26.8178 21.1888C26.3833 22.475 26.8217 23.3936 26.8217 23.3936C26.8217 23.3936 26.5875 23.4571 26.3185 23.4571C26.216 23.4571 26.1076 23.4466 26.0079 23.4201C25.1709 23.2222 24.9629 22.4645 24.9629 22.4645C24.9629 22.4645 25.0393 25.0235 22.0416 25.0235H22.0194C22.0194 25.0235 22.2836 24.6655 22.361 23.637C22.5032 21.7391 23.795 21.4777 23.795 21.4777C23.795 21.4777 23.106 21.3915 22.8061 21.1263C22.3397 20.7039 22.3726 20.2171 22.3726 20.2171C23.4273 20.2029 24.1172 19.8459 24.6445 19.2398C25.2145 18.5825 25.3093 17.876 25.3093 17.876C25.3093 17.876 24.7413 18.3874 23.645 18.3874C23.5482 18.3874 23.4457 18.3827 23.3392 18.3722C22.8196 18.3306 22.4616 18.0029 22.4616 18.0029C23.6034 17.2736 24.4036 16.0027 23.6943 14.0896C23.1254 12.5544 21.7581 11.4094 20.3822 10.5466C19.9235 10.2625 19.6691 9.94521 19.6691 9.6734C19.6691 9.28048 20.0132 9.12052 20.3659 8.9566C20.5887 8.85304 20.8149 8.7479 20.9599 8.58143C21.3943 8.08138 21.1224 7.26974 20.747 6.7801C20.747 6.7801 20.8728 6.75548 21.0731 6.75548C21.6939 6.74954 22.2895 6.99574 22.718 7.43547C23.465 8.20544 23.1554 9.04549 23.1554 9.04549L23.3557 9.08338C23.4675 9.10702 23.5777 9.11285 23.6908 9.11884L23.7185 9.12031L23.7998 9.12126C24.8864 9.12126 25.3722 7.99046 25.3722 7.99046C25.3722 7.99046 26.5285 9.40538 24.8255 10.5135C24.5333 10.7029 24.4036 10.879 24.4384 11.0665L24.4646 11.1897L24.5865 11.2105C25.7671 11.53 26.3904 12.3202 27.1106 13.2334L27.2049 13.3528C28.3621 14.816 29.9984 14.8633 30.2016 14.8633H30.2229C30.2229 14.8633 29.8494 16.0377 28.7482 16.0377ZM26.6434 16.9809C26.7682 17.3616 27.2811 18.4214 28.0939 18.8201C28.0939 18.8201 27.0721 18.2074 26.6134 15.817V15.8359C26.3096 13.4029 24.535 11.6461 22.5591 10.5778C22.3772 10.4812 22.2079 10.3978 22.0443 10.3183C22.6452 10.412 23.6138 10.4225 24.3618 9.77844C24.3618 9.77844 23.2171 10.6147 20.8755 9.85421C21.0634 9.97574 21.303 10.1119 21.5765 10.2674C22.2452 10.6473 23.1169 11.1427 23.9341 11.8222C26.8108 14.3376 24.7537 16.7906 24.7537 16.7906C25.7861 15.7166 25.8297 14.5668 25.5249 13.6273C26.0696 14.5299 26.418 15.6238 26.3638 16.9733C26.2844 18.9063 25.2162 20.5788 24.0928 21.9218C23.5529 22.5743 23.4329 23.3755 23.4329 23.3755C23.4329 23.3755 23.6506 22.6681 24.2747 21.9407C25.4794 20.5381 26.508 19.0806 26.6434 16.9809ZM8.7315 21.9404C7.52682 20.5378 6.49728 19.0802 6.36084 16.9806C6.23699 17.3622 5.72512 18.4201 4.91232 18.8198C4.91232 18.8198 5.93412 18.207 6.39277 15.8176V15.8365C6.6966 13.4025 8.47122 11.6457 10.4471 10.5784C10.5991 10.4956 10.7443 10.4249 10.8832 10.3572L10.9619 10.3189C10.361 10.4117 9.39239 10.423 8.64442 9.77713C8.64442 9.77713 9.78911 10.6143 12.1307 9.85385C11.9422 9.97589 11.702 10.1124 11.4279 10.2683L11.4279 10.2683C10.7596 10.6482 9.8896 11.1429 9.07307 11.8219C6.19538 14.3373 8.2535 16.7911 8.2535 16.7911C7.21815 15.7162 7.17751 14.5665 7.48134 13.6279C6.93657 14.5295 6.58823 15.6234 6.64435 16.973C6.72176 18.906 7.79001 20.5785 8.91148 21.9224C9.45335 22.574 9.57623 23.3742 9.57623 23.3742C9.57623 23.3742 9.35562 22.6677 8.73054 21.9404H8.7315ZM10.2009 21.1255C9.90195 21.3925 9.21204 21.4778 9.21204 21.4778C9.21204 21.4778 10.5048 21.7392 10.647 23.6371C10.7244 24.6656 10.9857 25.0236 10.9857 25.0236H10.9654C7.96672 25.0236 8.04316 22.4646 8.04316 22.4646C8.04316 22.4646 7.83415 23.2223 6.99813 23.4193C6.89847 23.4467 6.79203 23.4571 6.6885 23.4571C6.41853 23.4571 6.18534 23.3937 6.18534 23.3937C6.18534 23.3937 6.62173 22.475 6.18727 21.1889C5.82828 20.1225 5.88634 19.3317 5.88634 19.3317C5.88634 19.3317 5.48381 19.9388 4.48136 19.9454H4.47169C3.63857 19.9454 3.27474 19.3156 3.27474 19.3156C5.27191 18.4898 5.07548 15.8257 5.07548 15.8257C5.07548 15.8257 4.81616 16.0179 4.31009 16.0368L4.25784 16.0378C3.15573 16.0378 2.78223 14.8644 2.78223 14.8644H2.80448C3.00865 14.8644 4.64392 14.8161 5.80022 13.3529L5.89638 13.2312C6.61672 12.319 7.23989 11.5298 8.4186 11.2106L8.54148 11.1897L8.56761 11.0666C8.60244 10.8791 8.47375 10.7029 8.18056 10.5135C6.48046 9.40546 7.63483 7.99054 7.63483 7.99054C7.63483 7.99054 8.11863 9.12134 9.20817 9.12134L9.28752 9.12039L9.31655 9.11885C9.42947 9.11289 9.54074 9.10701 9.65037 9.08346L9.85067 9.04557C9.85067 9.04557 9.54006 8.20552 10.289 7.43555C10.8531 6.85405 11.5382 6.75556 11.9339 6.75556C12.1342 6.75556 12.2591 6.78018 12.2591 6.78018C11.8846 7.26982 11.6127 8.08145 12.0462 8.58151C12.1914 8.74786 12.4174 8.85297 12.6398 8.95645C12.9923 9.12045 13.336 9.28037 13.336 9.67348C13.336 9.94529 13.0815 10.2626 12.6239 10.5467C11.2469 11.4095 9.88066 12.5554 9.31171 14.0897C8.60244 16.0037 9.40266 17.2737 10.5464 18.003C10.5464 18.003 10.1864 18.3307 9.66682 18.3733C9.56135 18.3827 9.45878 18.3875 9.36009 18.3875C8.26474 18.3875 7.69869 17.8761 7.69869 17.8761C7.69869 17.8761 7.79255 18.5826 8.35957 19.2398C8.88886 19.845 9.57877 20.203 10.6335 20.2172C10.6335 20.2172 10.6673 20.704 10.2009 21.1255ZM15.8262 12.0503H17.2389V12.5333C17.0725 12.3306 16.7493 12.3723 16.7493 12.3723V13.0674C16.7493 13.0674 16.7619 13.4093 16.8819 13.558H16.1832C16.3052 13.4093 16.3158 13.0674 16.3158 13.0674V12.3713C16.3158 12.3713 15.9936 12.3306 15.8262 12.5323V12.0503ZM14.4308 12.2905C14.3834 12.2327 14.335 12.1759 14.2866 12.1238C14.28 12.1185 14.2749 12.1129 14.2697 12.1071C14.2665 12.1035 14.2632 12.0999 14.2595 12.0963C14.0389 11.8719 13.7767 11.7024 13.4322 11.6076L13.587 11.5186H13.5948L14.2044 11.1673L14.8285 10.8112L16.4996 11.7166L16.5025 11.7128L16.5063 11.7166L18.1764 10.8112L18.8015 11.1682L19.4102 11.5186H19.4189L19.5718 11.6076C19.2556 11.6939 18.9697 11.8636 18.7454 12.0982L18.7212 12.1219C18.608 12.2453 18.5042 12.3767 18.4106 12.5149L18.3884 12.5481C18.338 12.6229 18.2897 12.7025 18.2413 12.7849C17.8078 13.5274 17.1169 13.9725 16.5025 13.9725C15.888 13.9715 15.1972 13.5283 14.7646 12.7849L14.7583 12.7744C14.7122 12.6976 14.6676 12.6234 14.6195 12.5509C14.6165 12.5466 14.6137 12.5423 14.6109 12.538C14.6044 12.5283 14.5982 12.5188 14.5914 12.5102C14.5498 12.4486 14.5063 12.388 14.4627 12.3312C14.4551 12.3197 14.4475 12.3106 14.4399 12.3015C14.4369 12.2979 14.4338 12.2943 14.4308 12.2905Z" fill="white"/>
<path fill-rule="evenodd" clip-rule="evenodd" d="M16.3577 11.1142V11.1147H16.3587L16.3577 11.1142ZM16.3577 11.1142V8.2896L14.5512 7.67969L15.0282 10.4167L16.3577 11.1142ZM15.971 9.43864V8.98405L15.1485 8.64026C15.1485 8.64026 15.1562 8.9045 15.5259 9.18956C15.7218 9.34413 15.8447 9.38544 15.8761 9.39597C15.8806 9.3975 15.8833 9.39839 15.8839 9.39887L15.971 9.43864ZM17.0355 8.98405L17.858 8.64026C17.858 8.64026 17.8502 8.9045 17.4796 9.18956C17.2785 9.34894 17.1542 9.3879 17.1277 9.39617L17.1277 9.39618C17.1248 9.3971 17.1231 9.39764 17.1226 9.39792L17.0355 9.43864V8.98405ZM18.4526 7.68073L17.9785 10.4178L16.648 11.1148V8.2897L18.4526 7.68073ZM13.8036 17.6627C13.9787 17.7261 14.1925 17.7394 14.3019 17.7394L14.3174 17.6892C14.3279 17.6568 14.3366 17.6239 14.3435 17.5907C14.37 17.4427 14.3845 17.2929 14.387 17.1427C14.286 17.0827 14.2039 16.9965 14.15 16.8936C14.0822 16.7525 13.9874 16.6872 13.8471 16.6872C13.6662 16.6872 13.4707 16.7961 13.3865 16.8472C13.3207 17.2374 13.6091 17.5916 13.8036 17.6627ZM16.8542 17.1153C17.0442 16.9303 17.528 16.4594 17.7994 16.1645C17.8858 16.2736 17.9905 16.3674 18.1091 16.442C18.0509 16.7454 18.1132 17.059 18.2832 17.319C18.0084 17.5207 17.3021 18.034 17.0447 18.2121L14.5763 17.7708L14.5927 17.7054C14.6357 17.5397 14.6585 17.3697 14.6605 17.1987L16.736 17.2319L16.7757 17.1921C16.7815 17.186 16.8099 17.1584 16.8542 17.1153Z" fill="white"/>
<path fill-rule="evenodd" clip-rule="evenodd" d="M16.7341 14.3677C17.1444 14.327 17.603 14.1518 18.081 13.6802H21.2016C21.0661 14.0382 20.9529 14.4255 20.9529 14.81L20.9549 17.297C20.4323 17.2099 20.3704 16.6502 20.3685 16.6256L20.3588 16.5119L20.2466 16.5024C20.0192 16.4807 19.8702 16.386 19.7424 16.2628C19.486 16.0071 19.486 15.5942 19.486 15.5904C19.4857 15.5929 19.4819 15.5999 19.4758 15.6112C19.4281 15.6999 19.2407 16.048 19.5276 16.4238C19.6631 16.6019 19.8605 16.7117 20.115 16.7553C20.175 17.065 20.4072 17.5035 20.9549 17.5698V18.7868H19.4144C18.7042 18.3928 19.0051 17.7014 19.0187 17.673L19.0786 17.5404L18.9432 17.4893C18.173 17.2052 18.3858 16.4418 18.3955 16.4087L18.4265 16.2979L18.3229 16.2486C17.6872 15.955 17.7733 15.1671 17.7811 15.133C17.5866 15.2911 17.515 15.6122 17.6504 15.9266C17.5813 16.0069 17.4893 16.101 17.3878 16.2048L17.3878 16.2048L17.3727 16.2202C16.7148 16.0535 16.6944 15.4531 16.6944 15.4247L16.6935 15.3328L16.6064 15.2987C16.349 15.204 16.1739 15.062 16.0868 14.8725C16.0149 14.7013 16.002 14.5118 16.05 14.3327C16.1975 14.3641 16.348 14.38 16.499 14.3801H16.5087C16.584 14.3798 16.6592 14.3757 16.7341 14.3677ZM13.894 16.4035L13.9356 14.82H13.9346L14.2926 14.444L14.5171 14.9118L14.0749 16.4309L13.894 16.4035ZM14.8924 20.6813C14.8677 20.6806 14.8443 20.6699 14.8278 20.6518C14.8114 20.6337 14.8032 20.6098 14.8054 20.5856C14.8069 20.562 14.8179 20.5399 14.8361 20.5243C14.8542 20.5086 14.878 20.5007 14.9021 20.5023C14.9553 20.5032 14.9911 20.5496 14.9892 20.597C14.988 20.6209 14.9771 20.6433 14.9589 20.6593C14.9407 20.6753 14.9168 20.6835 14.8924 20.6822V20.6813ZM18.853 22.0882C18.8385 22.0844 18.823 22.0835 18.8095 22.0835V22.0826C18.7205 22.0826 18.6818 22.1612 18.6818 22.1612C18.7419 22.321 18.7569 22.4355 18.7706 22.5394C18.7858 22.6546 18.7992 22.7568 18.8704 22.8932C18.9565 23.0577 19.1007 23.1973 19.1866 23.2804C19.2011 23.2944 19.214 23.3069 19.2246 23.3175C19.2246 23.3175 19.2043 23.4643 19.1839 23.5732L18.9914 24.5696C18.8685 24.5866 18.7398 24.5951 18.6053 24.6008L18.8085 23.6424C18.8378 23.5038 18.6701 23.4117 18.4467 23.2889C18.2118 23.1598 17.9153 22.9968 17.7209 22.7105C17.5351 22.9169 17.1868 22.9794 16.8365 22.9794C16.5162 22.9794 16.1959 22.9283 16.0024 22.8904C15.9551 22.8824 15.9072 22.8779 15.8592 22.8771C15.7423 22.8702 15.6316 22.929 15.5738 23.0287L15.5186 23.1234L14.4717 22.8781L14.2123 23.3071C14.1756 23.3772 14.1727 23.435 14.2317 23.5003L14.3023 23.577C14.2539 23.7286 14.0353 23.9587 14.0353 23.9587L13.8804 23.7645C13.7576 23.6282 13.7769 23.3772 13.9046 23.1452L14.3207 22.4472L15.207 22.575L15.0696 22.2625C14.9407 21.9745 15.0392 21.6316 15.1208 21.3477C15.1561 21.2246 15.1883 21.1126 15.1974 21.0209C15.1867 21.1118 15.1025 21.1326 15.0038 21.1326C14.9561 21.1326 14.9054 21.1277 14.8583 21.1232C14.8175 21.1193 14.7794 21.1156 14.7484 21.1156C14.7223 21.1156 14.7 21.1184 14.6884 21.127L14.4475 21.2728L14.2588 21.1061C14.2356 21.0739 14.2288 20.9991 14.2839 20.9423L14.7223 20.4526L14.2046 19.8503L14.9303 20.213L15.1509 19.946C15.2119 20.0047 15.1858 20.16 15.1858 20.16C15.4122 20.1666 16.0469 20.5152 16.0808 21.3315L16.0818 21.4111L16.0992 21.4376C16.1447 21.4992 16.2685 21.6564 16.4253 21.6715L17.4277 21.77H17.4326C17.4746 21.77 17.5329 21.7511 17.6047 21.7279C17.7197 21.6906 17.8694 21.6422 18.0422 21.6422C18.2217 21.6433 18.397 21.696 18.5463 21.7937C18.6165 21.7454 18.6995 21.7181 18.7853 21.7151C18.7969 21.7132 18.8104 21.7132 18.8201 21.7132C19.1975 21.7132 19.389 21.9983 19.5837 22.2881C19.6212 22.3438 19.6587 22.3997 19.6978 22.4538C19.8797 22.7105 20.1225 23.0893 20.1225 23.0893C20.0325 23.1954 19.9493 23.2541 19.81 23.2541C19.7713 23.2541 19.7287 23.2512 19.6803 23.2418C19.4033 23.1911 19.2625 22.8434 19.1405 22.542C19.0502 22.3192 18.9703 22.1216 18.853 22.0882Z" fill="white"/>
<path fill-rule="evenodd" clip-rule="evenodd" d="M13.8414 23.1221C13.8104 23.2639 13.464 23.4646 13.464 23.4646V23.466L13.3885 23.2345C13.2908 22.9086 13.3644 22.5325 13.5675 22.3191L14.1307 21.8374L14.7287 22.0154C14.7171 22.2803 14.8303 22.4811 14.8303 22.4811L14.2052 22.3111L13.8307 22.6764C13.7659 22.738 13.762 22.8517 13.7949 22.9588L13.8414 23.1221ZM18.2614 25.7517C18.1259 25.7517 18.0011 25.7544 17.8898 25.7611L18.183 24.4738C18.2144 24.3534 18.1188 24.2097 18.0236 24.0669C17.9781 23.9985 17.9327 23.9303 17.9014 23.8649C18.1281 24.0551 18.3616 24.2293 18.601 24.3868C18.5826 24.4269 18.2614 25.7517 18.2614 25.7517Z" fill="white"/>
<path fill-rule="evenodd" clip-rule="evenodd" d="M18.8427 6.21315C18.3811 5.84758 17.5461 5.50285 16.502 5.50285C15.4589 5.50285 14.6268 5.84758 14.1623 6.2141C14.1623 6.2141 14.0259 5.39299 13.5575 4.66848L14.3984 4.76319L14.8377 3.83317L15.6844 4.26692L16.502 3.46191L17.3216 4.26692L18.1663 3.83317L18.6056 4.76319L19.4474 4.66848C18.9791 5.39299 18.8427 6.21315 18.8427 6.21315ZM14.3619 5.08895L14.5941 5.11357L14.6957 4.90238L14.9889 4.27731L15.5346 4.55764L15.7455 4.66561L16.5022 3.91837L17.0915 4.49987L17.2608 4.66561L17.4718 4.55764L18.0136 4.27731L18.3117 4.90238L18.4104 5.11357L18.6436 5.0899L18.8661 5.06338C18.7757 5.26678 18.6985 5.47554 18.6349 5.68844C18.0465 5.36265 17.2821 5.17703 16.5022 5.17703C15.7252 5.17703 14.9618 5.36265 14.3715 5.68844C14.3073 5.47563 14.2297 5.26688 14.1393 5.06338L14.3619 5.0899V5.08895ZM20.4291 26.3497L20.9419 26.5448L21.5119 26.7569L21.3348 26.8427C20.7021 27.1498 19.8803 27.5486 19.1238 27.7551L19.3202 28.2864C19.3202 28.2864 18.2694 28.7638 16.5151 28.7675V28.7694H16.4909V28.7675C14.7386 28.7638 13.6877 28.2864 13.6877 28.2864L13.8832 27.7551C13.1345 27.5508 12.3226 27.158 11.6906 26.8522C11.6226 26.8193 11.5567 26.7874 11.4932 26.7569L12.0641 26.5448L12.5788 26.3497L12.4337 25.8222L12.2808 25.2473C12.2808 25.2473 13.1884 25.7379 14.4686 26.1053C14.8314 26.2095 15.1072 26.2569 15.1072 26.2569V26.6489C15.1072 26.6489 15.7904 26.7664 16.4841 26.7664H16.5228C17.2147 26.7664 17.8998 26.6489 17.8998 26.6489V26.2578C17.8998 26.2578 18.1746 26.2105 18.5374 26.1063C19.8185 25.7379 20.7262 25.2473 20.7262 25.2473L20.5713 25.8222L20.4291 26.3497ZM12.1019 26.7934L12.9456 26.514L12.696 25.7043C13.0685 25.9136 13.9016 26.2289 14.3845 26.3767L13.9771 27.4895C13.33 27.3188 12.7019 27.0856 12.1019 26.7934ZM18.6222 26.3757L19.0286 27.4895C19.7766 27.2849 20.3949 27.0472 20.9039 26.7934L20.0621 26.514L20.3107 25.7043C19.9382 25.9136 19.1061 26.2289 18.6222 26.3757ZM14.0757 28.1486C14.4067 28.2651 15.5243 28.4896 16.5045 28.4896C17.4817 28.4896 18.6013 28.2651 18.9303 28.1486L18.43 26.8C18.013 26.9212 17.1499 27.0491 16.5228 27.0453H16.4832C15.8562 27.0491 14.993 26.9212 14.577 26.8L14.0757 28.1486ZM29.7315 19.3153C29.7315 19.3153 29.3687 19.9451 28.5346 19.9451H28.5249C27.5234 19.9384 27.1199 19.3313 27.1199 19.3313C27.1199 19.3313 27.178 20.1212 26.8171 21.1886C26.3826 22.4747 26.8209 23.3933 26.8209 23.3933C26.8209 23.3933 26.5868 23.4568 26.3178 23.4568C26.2126 23.4578 26.1079 23.4451 26.0062 23.4189C25.1702 23.2219 24.9612 22.4643 24.9612 22.4643C24.9612 22.4643 25.0386 25.0232 22.0409 25.0232H22.0177C22.0177 25.0232 22.2828 24.6653 22.3602 23.6367C22.5025 21.7388 23.7942 21.4774 23.7942 21.4774C23.7942 21.4774 23.1043 21.3922 22.8063 21.1251C22.3389 20.7037 22.3718 20.2169 22.3718 20.2169C23.4265 20.2027 24.1174 19.8447 24.6438 19.2395C24.984 18.8501 25.2129 18.3796 25.3076 17.8757C25.3076 17.8757 24.7406 18.3871 23.6442 18.3871C23.5475 18.3871 23.4449 18.3824 23.3385 18.3729C23.0146 18.3396 22.7088 18.2104 22.4618 18.0026C23.6036 17.2734 24.4038 16.0033 23.6936 14.0893C23.1246 12.5551 21.7584 11.4091 20.3814 10.5463C19.9238 10.2622 19.6683 9.94493 19.6683 9.67312C19.6683 9.2802 20.0124 9.12024 20.3651 8.95632C20.5879 8.85276 20.8141 8.74762 20.9591 8.58115C21.3936 8.0811 21.1217 7.26946 20.7462 6.77982C20.7462 6.77982 20.872 6.7552 21.0723 6.7552C21.4681 6.7552 22.1531 6.85369 22.7173 7.43519C23.4652 8.20516 23.1546 9.04521 23.1546 9.04521L23.3549 9.0831C23.4661 9.1068 23.5765 9.1126 23.6907 9.1186L23.7178 9.12003L23.7991 9.12098C24.8857 9.12098 25.3714 7.99018 25.3714 7.99018C25.3714 7.99018 26.5268 9.4051 24.8257 10.5132C24.5325 10.7026 24.4038 10.8787 24.4377 11.0663L24.4638 11.1894L24.5848 11.2102C25.7648 11.5291 26.3871 12.3175 27.1053 13.2275L27.2041 13.3525C28.3614 14.8167 29.9986 14.864 30.2008 14.864H30.2221C30.2221 14.864 29.8486 16.0374 28.7475 16.0374L28.6952 16.0365C28.1901 16.0175 27.9308 15.8253 27.9308 15.8253C27.9308 15.8253 27.7334 18.4894 29.7315 19.3153ZM30.5676 14.9708C30.5492 15.0295 30.0973 16.3961 28.7475 16.3961L28.6846 16.3942C28.5394 16.3904 28.4107 16.3705 28.2995 16.3487C28.3537 17.0941 28.6285 18.4721 29.8699 18.9844L30.2502 19.1407L30.045 19.4959C30.0444 19.4968 30.0434 19.4984 30.0421 19.5005C29.9966 19.5724 29.5349 20.3028 28.524 20.3028C28.1487 20.3065 27.7782 20.22 27.4451 20.0508C27.3929 20.4771 27.2973 20.8972 27.1596 21.3048C26.785 22.4121 27.1256 23.1927 27.1456 23.2385L27.1461 23.2396L27.3319 23.6298L26.9119 23.7416C26.9089 23.7422 26.9036 23.7434 26.8961 23.7451C26.8298 23.7601 26.5941 23.8136 26.3178 23.8136C25.8955 23.8128 25.4875 23.6636 25.1683 23.3931C25.0531 23.7435 24.8577 24.1393 24.5161 24.4898C23.9384 25.0817 23.1053 25.381 22.0167 25.381L21.3578 25.3715L21.7226 24.8184C21.7226 24.8183 21.7228 24.818 21.7232 24.8174C21.7359 24.7964 21.9372 24.4657 22.0012 23.6109C22.0787 22.5577 22.4783 21.9431 22.8731 21.5908C22.7599 21.5368 22.6525 21.4705 22.5634 21.39C21.9829 20.871 22.0071 20.2601 22.0109 20.1939L22.0361 19.8643L22.366 19.8595C23.2533 19.8444 23.8707 19.5811 24.3729 19.0034C24.49 18.867 24.5838 18.7316 24.6603 18.599C24.3835 18.6833 24.0429 18.7458 23.6443 18.7458C23.5388 18.7458 23.4256 18.7392 23.3075 18.7316C22.6847 18.6786 22.264 18.3096 22.2171 18.2685L22.217 18.2685L21.8726 17.9531L22.2664 17.7012C23.144 17.1405 24.0478 16.0779 23.3549 14.2141C22.9079 13.0027 21.8706 11.9041 20.1889 10.8529C19.6219 10.4949 19.3084 10.0744 19.3084 9.67285C19.3084 9.05252 19.8309 8.80723 20.2131 8.63297C20.225 8.62727 20.2369 8.62158 20.2488 8.61589C20.4232 8.53259 20.5985 8.4489 20.6872 8.34695C20.9823 8.006 20.7337 7.35253 20.4589 6.99832L20.1086 6.53994L20.6756 6.42629C20.6794 6.42629 20.6894 6.42496 20.7051 6.42288C20.762 6.41533 20.8934 6.39788 21.0723 6.39788C21.4981 6.39788 22.3128 6.50016 22.9766 7.1849C23.5301 7.75408 23.6007 8.36021 23.5717 8.7523L23.7362 8.76177H23.7991C24.6258 8.76177 25.0208 7.89117 25.0393 7.85021L25.0396 7.84974L25.2747 7.30044L25.6501 7.76261C25.6743 7.79102 26.2278 8.47859 26.0943 9.34043C26.0043 9.9134 25.6434 10.4068 25.0221 10.8131C24.9554 10.8567 24.907 10.8927 24.8731 10.923C26.0379 11.3002 26.6914 12.1261 27.379 12.9952L27.388 13.0065L27.4876 13.1306C28.5433 14.466 30.0325 14.5048 30.2115 14.5048H30.2134L30.7195 14.4896L30.5676 14.9708Z" fill="black"/>
<path fill-rule="evenodd" clip-rule="evenodd" d="M11.2834 24.8175C11.2837 24.818 11.2839 24.8184 11.284 24.8185H11.283L11.6478 25.3716L10.9889 25.3801C9.90126 25.3801 9.06814 25.0818 8.48854 24.4898C8.14794 24.1394 7.95151 23.7435 7.83733 23.3931C7.51851 23.6644 7.11025 23.8137 6.6878 23.8136C6.3939 23.8136 6.14291 23.7533 6.09896 23.7427C6.09718 23.7423 6.09574 23.7419 6.09465 23.7417L5.67277 23.6299L5.85952 23.2397L5.86003 23.2385C5.88001 23.1927 6.22055 22.4122 5.84694 21.3048C5.68438 20.8209 5.6002 20.3881 5.56053 20.0509C5.22832 20.2198 4.85886 20.3063 4.48454 20.3028C3.44596 20.3028 2.98486 19.5348 2.96179 19.4964L2.96151 19.4959L2.75638 19.1408L3.13471 18.9845C4.37617 18.4722 4.65194 17.0942 4.70806 16.3488C4.5812 16.3744 4.45239 16.3896 4.32295 16.3943L4.25812 16.3962C2.90732 16.3962 2.45738 15.0296 2.439 14.9708L2.28418 14.4897L2.79315 14.5049C3.86549 14.4672 4.86466 13.9629 5.51795 13.1297L5.61762 13.0066L5.62265 13.0002C6.31071 12.1294 6.96449 11.3019 8.13245 10.924C8.09859 10.8927 8.05214 10.8558 7.98441 10.8132C7.3632 10.4069 7.00228 9.91348 6.91229 9.3405C6.77779 8.47866 7.33127 7.79109 7.35352 7.76362L7.73283 7.29956L7.96602 7.84886L7.96632 7.8495C7.98586 7.89261 8.37991 8.76184 9.20845 8.76184H9.2694L9.43293 8.75237C9.40487 8.36028 9.47744 7.75415 10.0309 7.18402C10.6957 6.50023 11.5085 6.39795 11.9342 6.39795C12.1358 6.39795 12.2764 6.41936 12.3178 6.42568C12.3233 6.42651 12.3271 6.42709 12.329 6.42731L12.8999 6.53906L12.5467 6.99839C12.2719 7.3526 12.0232 8.00608 12.3193 8.34702C12.4078 8.44966 12.5848 8.5338 12.7612 8.61766C12.7719 8.62279 12.7827 8.62791 12.7935 8.63304C13.1757 8.8073 13.6963 9.05259 13.6963 9.67292C13.6963 10.0754 13.3856 10.495 12.8177 10.852C11.134 11.9042 10.0987 13.0019 9.65065 14.2141C8.9588 16.078 9.85965 17.1406 10.7411 17.7012L11.134 17.9532L10.7895 18.2676C10.4829 18.5288 10.1014 18.6908 9.69709 18.7316C9.57904 18.7392 9.46777 18.7459 9.36036 18.7459C9.01671 18.7473 8.67482 18.6978 8.3463 18.5991C8.42922 18.7422 8.52542 18.8776 8.63368 19.0035C9.13491 19.5812 9.75321 19.8445 10.6386 19.8596L10.9714 19.8643L10.9937 20.1939C10.9976 20.2602 11.0227 20.8711 10.4422 21.3901C10.3522 21.4706 10.2467 21.5369 10.1325 21.5909C10.5273 21.9441 10.9279 22.5578 11.0063 23.611C11.0712 24.4662 11.2709 24.7968 11.2834 24.8175ZM10.9644 25.0229C7.96677 25.0229 8.04321 22.4639 8.04321 22.4639C8.04321 22.4639 7.83421 23.2215 6.99819 23.4195C6.89703 23.4448 6.79295 23.4572 6.68855 23.4564C6.41858 23.4564 6.18539 23.3929 6.18539 23.3929C6.18539 23.3929 6.62178 22.4743 6.18732 21.1882C5.82834 20.1218 5.88736 19.331 5.88736 19.331C5.88736 19.331 5.48387 19.938 4.48141 19.9447H4.47174C3.63862 19.9447 3.2748 19.3149 3.2748 19.3149C5.27099 18.489 5.07553 15.8249 5.07553 15.8249C5.07553 15.8249 4.81621 16.0181 4.31015 16.0361H4.2579C3.15481 16.0361 2.78228 14.8636 2.78228 14.8636H2.80453C3.00773 14.8636 4.64301 14.8163 5.80028 13.3521L5.89826 13.2281C6.61774 12.3169 7.24002 11.5288 8.41865 11.2098L8.54154 11.188L8.56863 11.0649C8.6025 10.8784 8.4738 10.7022 8.18158 10.5128C6.48051 9.40471 7.63488 7.98979 7.63488 7.98979C7.63488 7.98979 8.11869 9.12059 9.20822 9.12059L9.28757 9.11964L9.3166 9.1181C9.42951 9.11214 9.54079 9.10626 9.65042 9.08271L9.85072 9.04482C9.85072 9.04482 9.53915 8.20477 10.29 7.4348C10.7968 6.91341 11.5327 6.6685 12.2591 6.77943C11.8847 7.26907 11.6128 8.08071 12.0462 8.58076C12.1915 8.74711 12.4174 8.85222 12.6398 8.9557C12.9923 9.1197 13.3361 9.27962 13.3361 9.67273C13.3361 9.94454 13.0816 10.2618 12.6239 10.5459C11.247 11.4087 9.88072 12.5547 9.31176 14.0889C8.6025 16.003 9.40272 17.273 10.5464 18.0022C10.5464 18.0022 10.1865 18.3299 9.66687 18.3716C9.56044 18.382 9.45884 18.3867 9.36014 18.3867C8.2648 18.3867 7.69874 17.8753 7.69874 17.8753C7.69874 17.8753 7.7926 18.5818 8.35962 19.2391C8.88891 19.8452 9.57882 20.2023 10.6335 20.2165C10.6335 20.2165 10.6674 20.7033 10.201 21.1257C9.90104 21.3908 9.21209 21.477 9.21209 21.477C9.21209 21.477 10.5048 21.7384 10.6471 23.6363C10.7245 24.6649 10.9857 25.0229 10.9857 25.0229H10.9644ZM26.6132 15.8222V15.8172H26.6122L26.6132 15.8222ZM26.6132 15.8361V15.8222C27.0732 18.2075 28.0946 18.8194 28.0946 18.8194C27.2818 18.4197 26.768 17.3619 26.6432 16.9802C26.5087 19.0799 25.4791 20.5374 24.2744 21.94C23.6503 22.6674 23.4326 23.3748 23.4326 23.3748C23.4326 23.3748 23.5526 22.5736 24.0925 21.9211C25.2159 20.5781 26.2842 18.9056 26.3635 16.9726C26.4177 15.623 26.0694 14.5292 25.5246 13.6266C25.8294 14.5661 25.7859 15.7159 24.7524 16.7898C24.7524 16.7898 26.8106 14.3369 23.9338 11.8215C23.1161 11.141 22.2432 10.6451 21.5738 10.2649C21.3014 10.1102 21.0627 9.97458 20.8752 9.85349C23.2178 10.614 24.3615 9.77678 24.3615 9.77678C23.6136 10.4227 22.645 10.4113 22.0441 10.3185C22.2175 10.4011 22.3891 10.4873 22.5588 10.5771C24.5347 11.6453 26.3093 13.4022 26.6132 15.8361ZM26.376 11.0719C26.8792 11.339 27.1734 11.697 27.4307 12.0142L27.4351 12.0196C27.6851 12.3274 27.9245 12.622 28.2977 12.7454C28.4313 12.7908 28.5735 12.8126 28.7177 12.8126C29.2799 12.8126 29.8459 12.4698 30.0607 11.9943L30.2765 11.5189L29.754 11.4877C29.7298 11.4877 29.0573 11.4261 28.3113 10.6665C28.0036 10.354 27.631 10.1911 27.2314 10.1911C26.7666 10.1911 26.4168 10.4105 26.3479 10.4538L26.3393 10.4591L25.8593 10.7954L26.376 11.0719ZM27.2316 10.5492C27.4832 10.5492 27.7764 10.6345 28.0532 10.9195C28.924 11.7984 29.732 11.8477 29.732 11.8477C29.5849 12.1716 29.1591 12.4566 28.7179 12.4566C28.6134 12.4569 28.5097 12.4396 28.4112 12.4055C28.136 12.3131 27.942 12.0741 27.7103 11.7888C27.4385 11.454 27.1148 11.0554 26.5475 10.7547C26.5475 10.7547 26.8407 10.5492 27.2316 10.5492Z" fill="black"/>
<path fill-rule="evenodd" clip-rule="evenodd" d="M15.5263 9.18895C15.7244 9.34574 15.8489 9.38624 15.8766 9.39525C15.88 9.39636 15.8819 9.39699 15.8824 9.39731L15.9704 9.43803V8.98344L15.1479 8.63965C15.1479 8.63965 15.1557 8.90293 15.5253 9.18895H15.5263ZM6.64453 16.9731C6.58841 15.6236 6.93675 14.5297 7.48152 13.6271C7.17769 14.5666 7.21929 15.7164 8.25368 16.7904C8.25368 16.7904 6.19555 14.3374 9.07325 11.822C9.89189 11.1413 10.7643 10.6453 11.4333 10.2651C11.7052 10.1105 11.9435 9.97501 12.1309 9.85401C9.78928 10.6145 8.64556 9.77825 8.64556 9.77825C9.39256 10.4223 10.3611 10.4118 10.962 10.3181L10.9177 10.3398C10.7686 10.4127 10.6127 10.4889 10.4473 10.5776C8.47139 11.6459 6.69678 13.4027 6.39295 15.8357V15.8168C5.9343 18.2072 4.91249 18.8199 4.91249 18.8199C5.72529 18.4212 6.23716 17.3614 6.36198 16.9807C6.49745 19.0804 7.52699 20.5379 8.73071 21.9405C9.35579 22.6679 9.57544 23.3753 9.57544 23.3753C9.57544 23.3753 9.45352 22.5741 8.91166 21.9216C7.78922 20.5786 6.72291 18.9061 6.64453 16.9731ZM4.70829 12.7462C4.57476 12.7917 4.43348 12.8135 4.28834 12.8135V12.8125C3.72616 12.8125 3.16107 12.4697 2.94529 11.9952L2.73145 11.5188L3.25396 11.4876C3.27718 11.4876 3.94774 11.426 4.69571 10.6664C5.00244 10.3549 5.37498 10.191 5.77654 10.191C6.24776 10.191 6.6002 10.4165 6.66118 10.4555L6.66674 10.459L7.14765 10.7952L6.62901 11.0718C6.13082 11.3362 5.84132 11.6907 5.58488 12.0047L5.58488 12.0047L5.58487 12.0047L5.57721 12.0141L5.56283 12.0317C5.31463 12.335 5.07852 12.6236 4.70829 12.7462ZM5.77656 10.5499C5.52304 10.5499 5.23082 10.6351 4.95215 10.9193C4.08323 11.7981 3.27527 11.8474 3.27527 11.8474C3.42041 12.1713 3.8481 12.4554 4.28836 12.4554C4.39212 12.4565 4.49527 12.4398 4.59316 12.4062C4.86897 12.3133 5.06374 12.0738 5.29612 11.788C5.56839 11.4532 5.89231 11.0549 6.45873 10.7545C6.45873 10.7545 6.16457 10.5499 5.77656 10.5499ZM15.8264 12.5328V12.0498H17.2391V12.5319C17.0726 12.3301 16.7495 12.3709 16.7495 12.3709V13.067C16.7495 13.067 16.762 13.4088 16.882 13.5575H16.1834C16.3063 13.4088 16.316 13.067 16.316 13.067V12.3718C16.316 12.3718 15.9938 12.3301 15.8264 12.5328ZM17.8582 8.63965C17.8582 8.63965 17.8505 8.90293 17.4789 9.18895H17.4799C17.2788 9.34747 17.1544 9.38711 17.128 9.39553C17.1251 9.39647 17.1233 9.39702 17.1228 9.39731L17.0358 9.43803V8.98344L17.8582 8.63965Z" fill="black"/>
<path fill-rule="evenodd" clip-rule="evenodd" d="M16.5073 6.03027C17.7942 6.03027 18.9602 6.64966 18.9602 7.33913L18.935 7.50865L18.4212 10.4446L18.935 10.7429L20.2733 11.5185H20.2684C20.2684 11.5185 20.5684 11.672 20.7058 11.7667C21.2176 12.119 21.3241 12.6314 21.028 12.8435C20.9554 12.4249 20.6235 11.9883 20.0023 11.9883C19.5543 11.9883 19.2137 12.2165 18.935 12.5632C18.8654 12.6503 18.7986 12.7431 18.7357 12.8435C18.6583 12.9695 18.5809 13.0803 18.5035 13.1873H21.9443C21.6908 13.693 21.4508 14.2291 21.4508 14.8106V22.389C21.4508 24.2226 20.0352 25.0976 18.5015 25.0976C18.413 25.0976 18.3301 25.0974 18.2523 25.0971C17.2887 25.0936 17.107 25.093 16.5054 25.6924C15.901 25.093 15.7183 25.0936 14.756 25.0971C14.6784 25.0974 14.5957 25.0976 14.5072 25.0976C12.9736 25.0976 11.557 24.2226 11.557 22.3881V14.8106C11.557 14.2291 11.316 13.693 11.0635 13.1873H14.5043C14.4269 13.0803 14.3495 12.9695 14.2721 12.8435C14.2092 12.7431 14.1415 12.6503 14.0699 12.5632C13.7951 12.2184 13.4535 11.9883 13.0055 11.9883C12.3833 11.9883 12.0514 12.4249 11.9788 12.8435C11.6837 12.6314 11.7921 12.119 12.3001 11.7667C12.4394 11.6729 12.7404 11.5195 12.7404 11.5195H12.7355L14.0708 10.7429L14.5866 10.4446L14.0728 7.5096L14.0476 7.33913C14.0476 6.64966 15.2136 6.03027 16.5005 6.03027H16.5073ZM14.5237 7.2013L16.5025 7.97885H16.5035L18.4832 7.2013C18.3158 6.80448 17.5388 6.46638 16.5035 6.46543C15.4681 6.46638 14.6921 6.80353 14.5237 7.2013ZM16.6485 11.1148L17.979 10.4178L18.4541 7.68073L16.6485 8.29064V11.1148ZM18.8021 11.1664L19.4117 11.5177H19.4194L19.5723 11.6067C19.2288 11.7015 18.9666 11.8719 18.7459 12.0973L18.7218 12.121C18.6702 12.176 18.6208 12.2328 18.5737 12.2915L18.5447 12.3275C18.4979 12.3881 18.4534 12.4503 18.4111 12.514L18.3889 12.5472C18.3373 12.6246 18.2883 12.7035 18.2418 12.784C17.8083 13.5274 17.1174 13.9706 16.503 13.9716C15.8886 13.9716 15.1967 13.5265 14.7652 12.784C14.719 12.7047 14.6706 12.6267 14.62 12.55L14.591 12.5093C14.5498 12.4484 14.5073 12.3884 14.4633 12.3294C14.4562 12.3193 14.4491 12.3108 14.442 12.3024L14.4313 12.2896C14.3849 12.2324 14.3365 12.1768 14.2862 12.1229C14.282 12.1188 14.2783 12.1146 14.2747 12.1106L14.2747 12.1106C14.2701 12.1053 14.2655 12.1002 14.2601 12.0954C14.0357 11.8614 13.7498 11.6923 13.4337 11.6067L13.5886 11.5177H13.5953L14.2049 11.1673L14.83 10.8103L16.5001 11.7157L16.503 11.7119L16.5078 11.7157L18.177 10.8103L18.8021 11.1664ZM20.9536 14.8099C20.9536 14.4254 21.0668 14.038 21.2023 13.68H18.0817C17.6037 14.1517 17.1451 14.3269 16.7348 14.3676C16.6603 14.3752 16.5858 14.3799 16.5084 14.3799H16.4987C16.3481 14.3789 16.198 14.3631 16.0507 14.3326C16.0029 14.5117 16.0158 14.7011 16.0875 14.8724C16.1745 15.0618 16.3506 15.2039 16.6071 15.2986L16.6932 15.3317L16.6951 15.4255C16.7133 15.8096 16.9906 16.1348 17.3734 16.221L17.3903 16.2036L17.3904 16.2036C17.491 16.0998 17.5815 16.0064 17.6511 15.9284C17.5166 15.6121 17.5863 15.291 17.7818 15.1329C17.774 15.166 17.6879 15.9549 18.3227 16.2485L18.4272 16.2977L18.3962 16.4095C18.3865 16.4417 18.1746 17.205 18.9439 17.4892L19.0793 17.5403L19.0193 17.6719C19.0058 17.7013 18.7049 18.3936 19.4151 18.7867H20.9555V17.5697C20.4079 17.5034 20.1756 17.0649 20.1156 16.7552C19.8612 16.7116 19.6638 16.6018 19.5283 16.4237C19.2423 16.0471 19.429 15.6995 19.4766 15.611C19.4826 15.5998 19.4864 15.5927 19.4867 15.5903C19.4867 15.595 19.4867 16.007 19.7431 16.2627C19.8757 16.4001 20.055 16.4853 20.2472 16.5023L20.3595 16.5118L20.3692 16.6254C20.3711 16.6501 20.433 17.2098 20.9555 17.2969L20.9536 14.8099ZM19.2783 24.5146L19.4506 23.6234L19.4776 23.4576C19.5836 23.4993 19.6964 23.5218 19.8105 23.5239C20.0727 23.5239 20.2266 23.3857 20.3282 23.2682L20.4598 23.1167L20.3524 22.9481C20.3427 22.9311 20.1037 22.556 19.9198 22.2984C19.8833 22.2479 19.8482 22.1964 19.8144 22.1441C19.6063 21.8325 19.3451 21.4432 18.8206 21.4432L18.7742 21.4442C18.6987 21.4485 18.6244 21.4638 18.5536 21.4896C18.3941 21.4137 18.2191 21.3738 18.0417 21.3731C17.825 21.3731 17.643 21.4328 17.5221 21.4735C17.5084 21.4773 17.4952 21.4813 17.4827 21.4851C17.4633 21.4909 17.4458 21.4962 17.4311 21.4991L16.4519 21.4035C16.4393 21.4006 16.3997 21.3779 16.3513 21.3201V21.3154L16.5622 21.2301C16.5032 20.5284 15.8259 20.0965 15.4475 19.9497C15.4309 19.875 15.3926 19.8066 15.3372 19.7527L15.1272 19.5538L14.9424 19.7745L14.8515 19.8862L13.4794 19.3265L14.3725 20.4412L14.0203 20.9716C13.8916 21.108 14.0329 21.2443 14.0329 21.2443L14.3977 21.4934L14.775 21.3542C14.7822 21.3542 14.7888 21.3551 14.7957 21.3561L14.7957 21.3561C14.8008 21.3568 14.806 21.3576 14.8118 21.358C14.8008 21.3902 14.7886 21.4762 14.7773 21.556C14.7686 21.6171 14.7604 21.6747 14.7537 21.7018L14.0996 21.5739L13.4126 21.9594C13.1015 22.185 12.9894 22.5902 13.1417 22.9387L13.2172 23.1044L13.3265 23.3383L13.5665 23.2398L13.5761 23.2351C13.4891 23.5097 13.5239 23.7721 13.6787 23.9435L13.8239 24.1263L14.0193 24.3706L14.2322 24.1424C14.2941 24.0799 14.4983 23.8535 14.5612 23.6594L14.6076 23.5107L14.5031 23.397L14.4857 23.3762L14.6028 23.183L15.4572 23.3838L15.6498 23.4283L15.7514 23.2597L15.8075 23.1688C15.8181 23.1499 15.821 23.1461 15.8597 23.1461C15.8907 23.1461 15.9207 23.1489 15.9536 23.1565C16.2758 23.2171 16.5729 23.2465 16.837 23.2465C17.0925 23.2465 17.2454 23.237 17.4273 23.1773L17.9024 23.7153L17.6218 24.5771L17.6092 24.6301C17.077 24.6727 16.8177 24.7892 16.5051 25.0999C16.0503 24.651 15.7281 24.6046 14.507 24.6046C13.044 24.6046 12.0531 23.7512 12.0531 22.3884V19.0547H20.9552L20.9571 22.3884C20.9571 23.4927 20.305 24.2636 19.2783 24.5155V24.5146ZM13.8415 22.7466L13.7951 22.631C13.7631 22.5562 13.767 22.4748 13.8309 22.4303L14.2053 22.1727L14.8304 22.2929C14.76 22.1972 14.7243 22.0812 14.7288 21.9634L14.1308 21.8374L13.5677 22.1783C13.3645 22.3294 13.291 22.5955 13.3887 22.8261L13.4641 22.99C13.4641 22.99 13.8105 22.847 13.8415 22.7466ZM19.1849 23.5731L18.9923 24.5694C18.8695 24.5865 18.7408 24.5959 18.6063 24.6007L18.8095 23.6432C18.8387 23.5047 18.6712 23.4126 18.448 23.2898C18.2131 23.1605 17.9163 22.9973 17.7219 22.7103C17.5371 22.9168 17.1877 22.9793 16.8375 22.9793C16.5572 22.9753 16.2779 22.9455 16.0034 22.8903C15.9561 22.8821 15.9082 22.8777 15.8602 22.877C15.7433 22.87 15.6325 22.9288 15.5747 23.0285L15.5196 23.1233L14.4726 22.878L14.2123 23.307C14.1765 23.3771 14.1736 23.4348 14.2326 23.5002L14.3033 23.5769C14.2549 23.7284 14.0372 23.9586 14.0372 23.9586L13.8814 23.7644C13.7585 23.628 13.7779 23.3761 13.9066 23.145L14.3217 22.447L15.208 22.5749L15.0706 22.2624C14.9413 21.9728 15.0403 21.6284 15.1221 21.3443C15.1571 21.2223 15.189 21.1115 15.1983 21.0208C15.1877 21.1117 15.1025 21.1325 15.0048 21.1325C14.9571 21.1325 14.9063 21.1276 14.8592 21.1231H14.8592H14.8592C14.8184 21.1191 14.7803 21.1155 14.7493 21.1155C14.7232 21.1155 14.701 21.1183 14.6894 21.1268L14.4484 21.2727L14.2597 21.105C14.2365 21.0738 14.2297 20.998 14.2849 20.9422L14.7232 20.4525L14.2055 19.8502L14.9313 20.2129L15.1519 19.9458C15.2128 20.0055 15.1867 20.1599 15.1867 20.1599C15.4131 20.1656 16.0479 20.515 16.0818 21.3314C16.0837 21.356 16.0837 21.3835 16.0837 21.4109L16.1001 21.4375C16.1447 21.499 16.2695 21.6562 16.4262 21.6714L17.4287 21.7699H17.4335C17.4755 21.7699 17.5339 21.7509 17.6057 21.7274C17.7207 21.6899 17.8703 21.6411 18.0431 21.6411C18.196 21.6411 18.3653 21.6799 18.5463 21.7936C18.5463 21.7936 18.6392 21.7216 18.7862 21.715C18.7979 21.7131 18.8104 21.7131 18.8211 21.7131C19.2001 21.7131 19.3924 22.0001 19.5876 22.2916C19.6241 22.3461 19.6608 22.4007 19.6987 22.4537C19.8806 22.7094 20.1235 23.0892 20.1235 23.0892C20.0335 23.1952 19.9503 23.254 19.8109 23.254C19.7674 23.2542 19.724 23.2501 19.6813 23.2416C19.4044 23.1905 19.2636 22.8429 19.1416 22.5417C19.0513 22.3187 18.9713 22.1211 18.854 22.0881C18.8398 22.0843 18.8251 22.0824 18.8104 22.0824C18.7224 22.0824 18.6837 22.161 18.6837 22.161C18.7432 22.3201 18.7581 22.4345 18.7716 22.5383C18.7867 22.6539 18.8 22.7564 18.8714 22.8931C18.9565 23.0556 19.0982 23.1938 19.1845 23.2778L19.1845 23.2778C19.2002 23.2932 19.2142 23.3068 19.2255 23.3184C19.2255 23.3184 19.2062 23.4642 19.1849 23.5731ZM17.8898 24.6143C18.0132 24.6096 18.1368 24.6074 18.2604 24.6076C18.3704 24.2841 18.484 23.9618 18.601 23.6407C18.421 23.5621 18.0465 23.3632 17.9014 23.2732C17.9326 23.3194 17.9782 23.3678 18.024 23.4163L18.024 23.4164C18.119 23.5169 18.2146 23.6182 18.1839 23.7032L17.8898 24.6143ZM13.8939 16.4029L13.894 16.402L14.0749 16.4304L14.5161 14.9113L14.2926 14.4444L13.9355 14.8194L13.894 16.402L13.8939 16.402V16.4029ZM14.3879 17.1427C14.3143 17.0963 14.2089 17.0148 14.1508 16.8936C14.084 16.7535 13.9882 16.6872 13.8479 16.6872C13.666 16.6872 13.4715 16.7961 13.3883 16.8472C13.3206 17.2374 13.6109 17.5916 13.8044 17.6636C13.9652 17.715 14.1335 17.7406 14.3027 17.7394C14.3091 17.723 14.3143 17.7062 14.3182 17.6892C14.3283 17.6567 14.337 17.6238 14.3443 17.5907C14.3743 17.4335 14.3859 17.2564 14.3879 17.1427ZM18.2835 17.3185C18.0087 17.5193 17.3024 18.0335 17.045 18.2116L14.5766 17.7702L14.593 17.7039C14.6259 17.577 14.6588 17.4028 14.6608 17.1982L16.7363 17.2313L16.775 17.1916C16.7798 17.1867 16.7987 17.1684 16.8286 17.1394L16.8286 17.1394C16.9974 16.9755 17.5152 16.473 17.7997 16.164C17.8791 16.2634 17.9787 16.3582 18.1093 16.4415C18.0648 16.6839 18.0842 17.0287 18.2835 17.3185ZM15.7894 14.2568C15.5137 14.1564 15.2234 13.9736 14.9263 13.68H11.8067C11.9402 14.038 12.0535 14.4254 12.0535 14.8099V18.7876H18.9777C18.6313 18.4315 18.6371 17.9816 18.7242 17.689C18.6236 17.6416 18.5404 17.5839 18.4659 17.5204C18.1959 17.7184 17.3705 18.316 17.1538 18.4675L17.1073 18.4978L14.3912 18.0091H14.3351C14.2703 18.0091 14.1745 18.0063 14.0709 17.994C14.0447 18.1129 13.9379 18.1982 13.8135 18.1995C13.7273 18.2 13.6464 18.1584 13.5978 18.0887C13.5548 18.0315 13.5374 17.9597 13.5494 17.8898L13.5591 17.832C13.2804 17.635 13.0211 17.1965 13.1352 16.7334L13.1469 16.6851L13.1865 16.6567C13.2262 16.6295 13.2672 16.6042 13.3094 16.5809L13.112 16.5506C13.0385 16.5383 12.9882 16.4692 12.9998 16.3962C13.0124 16.3224 13.082 16.2703 13.1546 16.2845L13.6249 16.3584L13.6674 14.7105L14.368 13.9736L14.8054 14.8885L14.3438 16.4739L14.7589 16.5393C14.8333 16.5518 14.8834 16.6207 14.8712 16.6936C14.8615 16.758 14.805 16.8056 14.7386 16.8054C14.7315 16.8056 14.7244 16.8053 14.7173 16.8044L14.3786 16.7505C14.3808 16.755 14.3833 16.7585 14.3857 16.7619C14.3889 16.7663 14.392 16.7706 14.3941 16.777C14.4314 16.8419 14.4881 16.8942 14.5567 16.9266L16.6274 16.9588C16.7154 16.8736 16.9331 16.6624 17.1567 16.4379C16.6467 16.2457 16.4619 15.8091 16.43 15.5183C16.1455 15.398 15.9491 15.2171 15.8397 14.9823C15.7072 14.6906 15.7546 14.3989 15.7894 14.2568ZM14.5517 7.67968L16.3592 8.28959V11.1147L15.0288 10.4177L14.5517 7.68063V7.67968Z" fill="black"/>
</svg>
