<svg width="33" height="32" viewBox="0 0 33 32" fill="none" xmlns="http://www.w3.org/2000/svg">
<path d="M12.49 23.6836C12.2998 23.7356 12.1248 23.8473 11.996 24.0148C11.8672 24.1823 11.8057 24.3807 11.8057 24.579V27.864L15.0084 27.0033C15.1987 26.9512 15.3736 26.8415 15.5024 26.6721C15.6312 26.5045 15.6927 26.3062 15.6927 26.1098V22.8306L12.49 23.6836Z" fill="black"/>
<path d="M8.58692 20.0942C8.40045 20.1442 8.22936 20.254 8.10249 20.4196C7.97561 20.5832 7.91602 20.7777 7.91602 20.9703V24.1166L11.1302 23.2502C11.3167 23.2001 11.4878 23.0903 11.6147 22.9266C11.7416 22.763 11.8011 22.5685 11.8011 22.376V19.2373L8.58692 20.0942Z" fill="black"/>
<path d="M25.5064 10.9435L13.4012 14.1997C12.9686 14.2979 12.5553 14.5597 12.2516 14.9564C11.9478 15.353 11.8018 15.821 11.8018 16.285V19.2427L15.6927 18.199V22.83L19.572 21.7844V26.3846L25.5199 24.7863C26.5214 24.5187 27.3403 23.4596 27.3403 22.4564V12.2567C27.3423 11.2535 26.5233 10.6527 25.5064 10.9435Z" fill="black"/>
<path d="M5.5 27.9997L7.42238 27.4779C7.56079 27.4394 7.68959 27.3566 7.78379 27.2334C7.87799 27.1101 7.92413 26.9638 7.92413 26.8194V24.9111L6.00174 25.4349C5.86333 25.4715 5.73453 25.5543 5.64033 25.6795C5.54614 25.8008 5.5 25.949 5.5 26.0915V27.9997Z" fill="black"/>
<path d="M5.50195 18.7502L7.42433 18.2284C7.56275 18.1899 7.69154 18.1071 7.78574 17.9838C7.87994 17.8606 7.92608 17.7143 7.92608 17.5698V15.6616L6.00369 16.1853C5.86528 16.2219 5.73648 16.3047 5.64229 16.4299C5.54809 16.5512 5.50195 16.6975 5.50195 16.842V18.7502Z" fill="black"/>
<path d="M8.51855 14.8875L11.1234 14.1789C11.3118 14.1269 11.4848 14.0171 11.6136 13.8496C11.7424 13.6821 11.802 13.4857 11.802 13.2912V10.7109L9.19715 11.4138C9.00876 11.4657 8.83575 11.5755 8.70695 11.745C8.58007 11.9125 8.51855 12.1089 8.51855 12.3053V14.8875Z" fill="black"/>
<path d="M21.9194 4.05606L13.3783 6.34169V6.34555C12.9496 6.47263 12.5535 6.72873 12.2614 7.11192C11.9576 7.50859 11.8115 7.97649 11.8115 8.44248V10.7108L15.6928 9.67289V13.5799L19.576 12.5362V16.4008L21.9213 15.7712C22.7691 15.542 23.4631 14.6563 23.4631 13.809V5.17866C23.4611 4.32949 22.7672 3.82499 21.9194 4.05606Z" fill="black"/>
</svg>
