<svg xmlns="http://www.w3.org/2000/svg" fill="none" viewBox="0 0 204 60">
  <path fill="#2C4186" fill-rule="evenodd" d="M1.7 17c-.64.46-1.46.93-1.57 1.8-.19 1.35-.07 2.73-.13 4.08a10.04 10.04 0 016.59-4.68c1.9-.34 4.41-.7 5.75 1.06.76.92 1.68 2.02 3.04 1.78 2.47-.33 3.38-3.18 5.6-4.04H1.7zm24 0h-3.2a1.53 1.53 0 01-.71 1.96c-3.57 2.49-5.77 6.38-7.78 10.14.9-.33 2-.37 2.72-1.04 1.92-2.84 3.54-6.08 6.45-8.06 1.28-.9 2.8-1.22 4.3-1.52a16.05 16.05 0 00-1.8-1.48zm-13.2 6.21c-1.65-.74-1.58-3.27-3.43-3.7a6.91 6.91 0 00-6.1 2.16c-.8.89-1.32 2.2-.77 3.35.82 2.1 4.08 2.1 5.26.37.62-.74 1.24-1.73 2.34-1.65 1.19-.02 1.72 1.55 1.01 2.41-2.45 3.3-8.08 4.08-10.77.62v9.83a24.17 24.17 0 019.5-6.13c.58-.25 1.3-.37 1.6-1.02 1.3-2.05 2.57-4.12 3.95-6.1-.86.06-1.8.32-2.6-.14zm14.62-2.38c-1.2-.8-2.66.22-3.58 1.03a30.26 30.26 0 00-4.2 5.66 24.87 24.87 0 007.04-4.36c.53-.6 1.52-1.55.74-2.33zm.24 3.77a29.96 29.96 0 01-8.6 5.46c-.95.28-1.2 1.31-1.59 2.1-.56 1.45-1.24 2.91-1.32 4.48a1.13 1.13 0 001.35 1.28c1.4-.27 2.51-1.26 3.53-2.22 2.33-2.3 4.5-4.76 6.67-7.23-.04-1.28-.03-2.58-.04-3.87zm0 6.08c-2.22 2.76-4.34 5.6-6.83 8.13a12.11 12.11 0 01-3.7 2.66c-.95.4-2.18.43-2.97-.31-1.07-.94-1.11-2.5-.94-3.8.39-2.18 1.4-4.16 2.28-6.16-.94.4-2.42.28-2.83 1.42a34.89 34.89 0 01-7.12 10.37c6.46.04 12.92 0 19.38 0 1.31.14 2.8-.83 2.73-2.27.02-3.35.02-6.69-.01-10.04h.01zM.59 40.05c-.6.85-.83 2.4.37 2.83 1.76.25 2.92-1.44 3.93-2.62a35.95 35.95 0 004.55-7.23c-3.31 1.8-6.76 3.78-8.85 7.02zM35.7 23.84c1.82.03 3.65-.06 5.48.1-.6.47-1.26.86-1.95 1.15v4.34h5.94c0-1.48 0-2.97-.06-4.45a12.4 12.4 0 01-1.94-.94c1.9-.31 3.93-.42 5.81.07-.62.33-1.27.59-1.88.96-.2 1.88-.02 3.77-.08 5.66.05 1.6-.15 3.21.11 4.79.6.44 1.28.76 1.9 1.17a37.2 37.2 0 01-5.89 0c.64-.42 1.33-.77 1.95-1.22.2-1.68.05-3.38.05-5.07-1.96.03-3.93.02-5.9 0 .03 1.7-.13 3.4.08 5.07.61.45 1.3.79 1.92 1.21-1.85.15-3.7.1-5.53.09v-.5c.53-.2 1.07-.37 1.57-.61.23-1.73.05-3.48.1-5.23-.05-1.78.12-3.57-.08-5.34-.51-.29-1.06-.49-1.6-.74v-.5zm26.32 4.68c-.31-1.88-1.42-3.74-3.23-4.48a7.04 7.04 0 00-5.02 0c-1.81.74-2.9 2.6-3.22 4.45-.42 2.3-.13 4.89 1.39 6.74a5.9 5.9 0 003.12 1.81h2.38a5.86 5.86 0 003.16-1.78c1.54-1.84 1.81-4.44 1.42-6.74zm-3.13 6.49c-1.32 1.63-4.18 1.54-5.37-.2-1.19-1.73-1.32-4.04-1.06-6.1.22-1.63.96-3.49 2.65-4.08 1.15-.3 2.54-.21 3.44.66 1.28 1.19 1.58 3.04 1.67 4.7 0 1.74-.22 3.63-1.33 5.02zm14.91-3.82c-.48-.82-1.41-1.18-2.22-1.62 1.94-.81 2.64-3.54 1.07-5.03-1.73-1.5-4.17-.6-6.23-.7-.9.16-2.14-.4-2.77.49.6.25 1.3.33 1.83.74.14 3.25.02 6.52.05 9.77.24 1.22-1.34 1.06-1.93 1.78 1.68.15 3.36.04 5.05.11 1.46.04 3.09.06 4.3-.9 1.41-1.04 1.71-3.17.86-4.64zm-6.26-6.4c.96-.36 2-.36 2.97 0 1.41.66 1.53 2.78.43 3.78-.91.91-2.33.69-3.51.77.05-1.5-.2-3.05.11-4.56zM72 34.41c-.86 1.56-3 1.74-4.52 1.18-.16-1.79-.03-3.58-.06-5.37 1.21.05 2.52-.18 3.66.37 1.3.75 1.51 2.58.93 3.84l-.01-.02zm3.29-10.48c1.9-.11 3.8-.11 5.7 0-.4.64-1.17.78-1.8 1.09-.2 2.78-.05 5.58-.07 8.37 1.87-2.3 3.73-4.63 5.61-6.92.35-.42.59-.92.71-1.45-.74-.24-1.52-.41-1.99-1.08 1.9-.11 3.8-.12 5.7-.02-.37.7-1.19.81-1.86 1.07-.06 3.55 0 7.1-.03 10.64.68.24 1.33.56 1.92.97-1.9.33-3.94.46-5.78-.2.64-.24 1.28-.45 1.92-.65.16-2.82.07-5.66.06-8.48-1.74 1.91-3.27 4-4.93 5.98-.59.74-1.37 1.44-1.38 2.46.68.21 1.35.43 2.02.7-1.9.58-3.93.58-5.82 0 .65-.27 1.31-.51 1.97-.75-.03-3.56.07-7.12-.05-10.68-.7-.22-1.45-.41-1.9-1.04v-.01zm15-.06c1.85 0 3.68-.07 5.52.03-.37.72-1.17.82-1.85 1.07a79.88 79.88 0 000 4.71c.74-.14 1.75.02 2.22-.74.97-1.46 1.25-3.29 2.35-4.67.69-.87 2.45-1 2.85.2.34.7-.37 1.22-.74 1.69l-1.27-.88c-1.37 1.37-1.48 3.47-2.85 4.86 2.45.8 2.7 3.7 3.94 5.58.69.25 1.35.55 1.99.91-1.3.12-2.6.03-3.89.07-.55-1.7-1.07-3.45-1.97-5.01-.52-.93-1.66-1.03-2.6-1.17-.02 1.7-.1 3.39 0 5.07.62.35 1.28.63 1.89 1-1.9.32-3.81.2-5.7.03.48-.52 1.18-.67 1.82-.89.15-3.6.13-7.22 0-10.83-.5-.13-1.01-.26-1.52-.37l-.18-.64-.01-.02zm23.18 1.75c-2.3-3.02-7.85-2.7-9.54.78a8.95 8.95 0 00.06 7.96 5.35 5.35 0 004.04 2.7h2.03a5.5 5.5 0 004.17-3.38c.97-2.6.88-5.76-.77-8.06zm-1.8 9.23c-1.2 1.7-4.07 1.78-5.35.14-1.11-1.39-1.32-3.27-1.29-4.99.03-2.01.6-4.56 2.72-5.34 1.23-.37 2.73-.2 3.63.8 1.15 1.21 1.42 2.96 1.48 4.56.03 1.66-.18 3.44-1.19 4.83zm4.21-10.81c1.27-.17 2.56-.24 3.84-.22 1.28 3.47 2.8 6.85 4.17 10.28 1.42-3.44 3.12-6.76 4.36-10.28 1.2 0 2.4.04 3.6.17-.69.4-1.45.68-2.05 1.18-.03 3.47.22 6.93.3 10.4.69.35 1.36.7 2 1.12-1.97.2-3.96.2-5.94 0 .66-.41 1.35-.77 2.06-1.08-.02-2.86-.13-5.71-.18-8.57-1.43 3.34-2.95 6.63-4.26 10h-.54c-1.4-3.26-2.68-6.58-4.23-9.78-.13 2.8-.22 5.62-.23 8.43l2.03.74c-1.6.58-3.3.37-4.95.27.56-.42 1.17-.78 1.71-1.23.23-1.06.16-2.15.22-3.23.02-2.45.31-4.9.13-7.34-.69-.27-1.37-.56-2.03-.88v.02zm26.37 6.16c-1.55-1.26-3.65-.97-5.5-.94.03-1.45.03-2.9 0-4.35 1.53.05 3.16-.3 4.64.2.37.69.47 1.57 1.24 1.95.09-1.07.09-2.14.09-3.22-3.22.04-6.43-.03-9.64.04.25.74 1.13.76 1.73 1.11.25 1.9.04 3.84.1 5.76-.06 1.63.17 3.29-.11 4.9-.65.24-1.27.55-1.85.93 2.54.25 5.14.57 7.66.02a3.7 3.7 0 002.6-1.82 3.64 3.64 0 00-.96-4.59zm-.91 4.24c-.62 1.23-2.13 1.6-3.4 1.42-.41-.08-1.06-.02-1.15-.57-.1-1.66 0-3.34-.02-4.98 1.2-.14 2.56-.45 3.66.25 1.26.79 1.5 2.6.91 3.88zm13.8.28c-1.35-3.34-2.7-6.69-4.03-10.03-.21-.52-.51-1-.88-1.41-1.64 3.76-2.9 7.68-4.45 11.49-.33.85-1.2 1.28-1.85 1.88 1.42.24 2.88.21 4.3-.09-.46-.3-.94-.58-1.43-.84.3-1.23.68-2.44 1.16-3.62h4.16c.48 1.2.95 2.39 1.36 3.6-.6.21-1.15.52-1.65.9 1.63.27 3.3.16 4.94.05-.58-.6-1.33-1.12-1.63-1.93zm-6.8-3.64c.54-1.52 1.06-3.05 1.61-4.56a47 47 0 011.8 4.56h-3.4zm9.16-7.18c1.91-.1 3.83-.09 5.74.06-.56.56-1.44.65-1.95 1.23-.13 1.4-.03 2.82-.05 4.23 1.98 0 3.97.02 5.96-.02-.03-1.48 0-2.96-.05-4.42-.51-.38-1.94-.23-1.62-1.1 1.82-.08 3.65-.07 5.48.06-.51.6-1.44.66-1.92 1.25-.09 3.46-.09 6.94 0 10.4.65.29 1.27.62 1.88.98-1.9.37-3.86.37-5.76 0 .6-.35 1.21-.66 1.86-.91.24-1.71.04-3.46.1-5.19h-5.92c0 1.76-.08 3.53.07 5.3.68.13 1.32.42 1.86.86-1.91.2-3.84.2-5.75-.02.63-.68 2.18-.5 1.95-1.72-.03-3.27.1-6.55-.07-9.82-.62-.35-1.42-.46-1.8-1.14l-.01-.03zm14.35.17c1.85-.43 3.76-.17 5.64-.2l-.17.61-1.57.4a98.95 98.95 0 00-.04 4.87c.69-.2 1.56-.09 2.09-.65 1.17-1.54 1.33-3.68 2.72-5.07.89-.93 3-.37 2.64 1.11-.2 1.2-1.5.49-2.25.37-1.17 1.35-1.36 3.3-2.68 4.56 2.5.86 2.73 3.77 4.03 5.69.54.2 1.1.37 1.67.51v.52h-3.6c-.56-1.77-1.05-3.61-2.05-5.19-.53-.89-1.67-.88-2.56-1.1a76.5 76.5 0 00.05 5.13c.67.3 1.33.65 1.97 1.04-1.98.15-4.05.37-5.98-.21a29.8 29.8 0 012.05-.78c.05-3.55.03-7.1 0-10.64-.68-.28-1.33-.6-1.96-.97z" clip-rule="evenodd"/>
</svg>
