<svg width="32" height="32" viewBox="0 0 32 32" fill="none" xmlns="http://www.w3.org/2000/svg">
<path fill-rule="evenodd" clip-rule="evenodd" d="M5.48584 4C4.92258 4.42063 4.21365 4.86178 4.1133 5.66201C3.95144 6.91023 4.05503 8.17897 4 9.42377C5.29485 7.26589 7.32128 5.56284 9.7556 5.11143C11.413 4.79339 13.611 4.46509 14.7764 6.08264C15.4432 6.93075 16.2493 7.95326 17.4308 7.73098C19.5932 7.41978 20.3895 4.78997 22.3318 4H5.48584ZM26.4429 4H23.6623C23.7948 4.3299 23.8036 4.7007 23.687 5.03724C23.5704 5.37379 23.3371 5.65092 23.0343 5.81248C19.9169 8.10373 17.9941 11.6945 16.2363 15.1622C17.0165 14.8578 17.9908 14.8202 18.6124 14.2046C20.2924 11.5885 21.707 8.59276 24.2514 6.7666C25.365 5.93217 26.6987 5.64491 28 5.36791C27.5129 4.87288 26.9925 4.41571 26.4429 4ZM14.9156 9.73155C13.4783 9.04759 13.543 6.71188 11.9245 6.31177C10.9487 6.15836 9.95228 6.25987 9.02227 6.60744C8.09227 6.955 7.25706 7.53802 6.5897 8.3055C5.89371 9.12967 5.44376 10.3403 5.92285 11.4038C6.63825 13.3326 9.48368 13.3394 10.5196 11.7458C11.0569 11.0618 11.5975 10.1453 12.5589 10.224C13.5981 10.2035 14.061 11.65 13.4459 12.4434C11.3029 15.4973 6.38576 16.2086 4.03237 13.0145C4.03237 16.041 4.03237 19.0675 4.03237 22.0906C6.29835 19.4848 9.22795 17.6449 12.3356 16.4309C12.8406 16.2018 13.4718 16.0889 13.734 15.4905C14.8638 13.5993 15.9773 11.6911 17.1815 9.86834C16.4273 9.91622 15.6115 10.1556 14.9156 9.73155ZM27.6892 7.53605C26.6339 6.79396 25.365 7.7344 24.5589 8.48675C23.1482 10.0695 21.9173 11.8209 20.8913 13.7053C23.0893 12.6794 25.2711 11.4346 27.0418 9.68367C27.508 9.12967 28.3723 8.2542 27.6892 7.53605ZM27.8997 11.0105C25.6848 13.1308 23.1425 14.8346 20.3831 16.0479C19.5608 16.3146 19.3342 17.2653 19.0008 17.9972C18.5088 19.3309 17.9196 20.6783 17.8452 22.1248C17.821 22.2916 17.8354 22.462 17.8871 22.6216C17.9387 22.7812 18.0262 22.9252 18.1419 23.0414C18.2576 23.1577 18.3982 23.2426 18.5517 23.289C18.7052 23.3354 18.8671 23.342 19.0235 23.3081C20.2503 23.0584 21.2182 22.1419 22.1052 21.2562C24.1414 19.1325 26.0415 16.8652 27.932 14.5876C27.9029 13.4044 27.9094 12.2075 27.8997 11.0105ZM27.8997 16.6258C25.9574 19.1736 24.1122 21.7965 21.9336 24.122C20.9787 25.0966 19.946 26.0439 18.6965 26.5842C17.8678 26.9535 16.7931 26.9775 16.1068 26.2935C15.1713 25.4317 15.1357 23.9886 15.2846 22.7848C15.6245 20.7808 16.5147 18.9513 17.2754 17.1012C16.4564 17.4705 15.1648 17.3611 14.8087 18.4109C13.3015 21.9748 11.1933 25.2194 8.587 27.9863C14.2293 28.0171 19.8716 27.9863 25.5139 27.9863C26.6598 28.1094 27.9547 27.2203 27.8964 25.8866C27.9202 22.8019 27.918 19.715 27.8899 16.6258H27.8997ZM4.51146 25.2676C3.98381 26.0541 3.78959 27.4802 4.83518 27.8803C6.37281 28.1163 7.38926 26.55 8.26976 25.4659C9.84138 23.4157 11.1759 21.1748 12.2449 18.7905C9.35419 20.4526 6.34044 22.2821 4.51146 25.2676Z" fill="white"/>
</svg>
