<svg width="16" height="16" viewBox="0 0 16 16" fill="none" xmlns="http://www.w3.org/2000/svg">
<path d="M9.88577 4.69755L3.69975 10.8901C3.55292 11.037 3.43819 11.2128 3.36284 11.4064L1.82725 14.1828L4.59735 12.6416C4.79111 12.5662 4.96707 12.4513 5.11406 12.3042L11.3001 6.11985C11.1065 5.84199 10.8871 5.5798 10.6431 5.33584C10.407 5.09971 10.1538 4.88659 9.88577 4.69755ZM11.3146 3.26723C11.5742 3.46821 11.8223 3.68658 12.0573 3.92163C12.2999 4.16421 12.5247 4.42063 12.731 4.68936L13.8402 3.5805C14.1029 3.31776 14.0945 3.13482 13.4802 2.5205C12.8658 1.90618 12.6827 1.89792 12.4202 2.1605L11.3146 3.26723ZM14.9002 1.1005C16.2888 2.48914 16.3007 3.93998 15.2502 4.9905L6.52858 13.7181C6.1856 14.0613 5.77503 14.3293 5.32293 14.5053L1.71107 15.9115C1.41941 16.025 1.09576 16.025 0.804098 15.9115C0.160775 15.661 -0.157709 14.9365 0.0927451 14.2932L1.4991 10.6808C1.67492 10.2292 1.94261 9.81897 2.28523 9.47621L11.0102 0.750499C12.0608 -0.300176 13.5115 -0.28814 14.9002 1.1005Z" fill="currentColor"/>
</svg>
