<svg xmlns="http://www.w3.org/2000/svg" fill="none" viewBox="0 0 204 60">
  <path fill="#FF8C00" d="M66.08 22.7v13.71a.37.37 0 01-.38.38h-2.8a.37.37 0 01-.37-.38v-13.7a.37.37 0 01.37-.39h2.8a.37.37 0 01.38.38zm21.83-.38c.1 0 .24.06.38.17.08.08.08.21.05.32l-4.61 13.74a.39.39 0 01-.35.24h-2.5c-.17 0-.3-.08-.36-.24l-2.68-8-2.7 8a.39.39 0 01-.34.24h-2.5c-.17 0-.3-.08-.36-.24L67.33 22.8c-.03-.1-.03-.22.05-.32.06-.11.2-.17.3-.17h3.12c.17 0 .3.11.36.27l2.47 8.12 2.71-8.12a.39.39 0 01.36-.24h2.2c.16 0 .3.08.35.24l2.71 8.12 2.47-8.12a.37.37 0 01.36-.27h3.12zm4.72 0c.2 0 .36.17.38.38v13.71a.37.37 0 01-.38.38h-2.8a.37.37 0 01-.37-.38v-13.7a.37.37 0 01.38-.39h2.8zM60.9 36.31c.16.19.02.46-.22.46h-3.42a.44.44 0 01-.36-.17l-.57-.7a7.58 7.58 0 112.28-2.25l2.29 2.66zm-6.8-3.05l-1.49-1.81c-.16-.2-.02-.5.22-.5h3.15c.16-.43.25-.92.25-1.4 0-2.26-1.69-4.21-4-4.21-2.3 0-3.99 1.95-3.99 4.2a4.06 4.06 0 004 4.19c.65.02 1.3-.17 1.87-.47zM33.34 39.23c-.06-.46-.33-1.52-1.03-1.79-.36-.13-.65-.02-.79.22-.22.38-.05 1.11.35 1.77.41.65.79.97 1.06.97s.52-.32.4-1.17zM29.54 41.08a2.12 2.12 0 00-1.36-.57c-.38 0-.68.14-.87.38-.49.6-.27 1.68.5 2.34.32.3.8.46 1.27.46.46 0 .86-.2 1.11-.5.43-.59.19-1.4-.65-2.1z"/>
  <path fill="#FF8C00" d="M0 29.68a18.68 18.68 0 0018.68 18.68c2.74 0 5.46-.52 9.45-.55 3.55 0 7.46 1.25 11.75 5.05.44.38 1-.1.63-.57-4.21-5.34-8.12-6.35-12.03-7.22-4.78-1.06-7.22-3.72-8.93-6.68-.33-.6-.5-.49-.52.27-.03 1.12.05 2.24.25 3.34h-.57a12.36 12.36 0 010-24.7 12.36 12.36 0 0112.27 13.79c-.93-.16-2.7-.19-3.94-.08-.46.05-.4.27-.05.32 4.07.76 6.87 3.29 7.52 7.88.02.1.16.13.21.05A18.68 18.68 0 100 29.68z"/>
</svg>
