<svg width="32" height="32" viewBox="0 0 32 32" fill="none" xmlns="http://www.w3.org/2000/svg">
<path d="M25.3338 22.1508C25.2992 21.854 25.1253 21.1738 24.6734 20.9991C24.4471 20.9118 24.2565 20.9812 24.1701 21.1385C24.0308 21.3832 24.135 21.854 24.3958 22.2733C24.6561 22.6921 24.8996 22.9015 25.0735 22.9015C25.2474 22.9015 25.4034 22.6921 25.3338 22.1508Z" fill="white"/>
<path d="M22.9017 23.3377C22.6237 23.0935 22.311 22.9715 22.0329 22.9715C21.7899 22.9715 21.5988 23.0583 21.4767 23.2156C21.1646 23.5991 21.3034 24.2978 21.7899 24.7166C21.9984 24.9086 22.311 25.0133 22.6064 25.0133C22.9017 25.0133 23.162 24.8913 23.3186 24.6992C23.5967 24.3152 23.4401 23.7917 22.9017 23.3377Z" fill="white"/>
<path d="M4 16.0074C4 22.6395 9.35059 28.0153 15.9528 28.0153C17.7077 28.0153 19.4443 27.6839 21.9984 27.666C24.2743 27.666 26.776 28.4688 29.5207 30.9126C29.7988 31.1567 30.1633 30.8426 29.9203 30.5459C27.2275 27.1078 24.7258 26.4622 22.2241 25.9035C19.1667 25.2227 17.603 23.5123 16.5085 21.6099C16.3 21.2259 16.1958 21.2958 16.178 21.7846C16.1583 22.5037 16.2108 23.2231 16.3346 23.9317H15.9701C11.6093 23.9317 8.06491 20.3709 8.06491 15.99C8.06491 11.6091 11.6093 8.04839 15.9696 8.04839C20.3304 8.04839 23.8748 11.6091 23.8748 15.99C23.8748 16.3041 23.857 16.6182 23.8224 16.9149C23.2317 16.8102 22.1026 16.7929 21.3034 16.8628C21.0081 16.8976 21.0426 17.037 21.2689 17.0722C23.8748 17.5604 25.6642 19.184 26.0811 22.1334C26.0984 22.2034 26.1853 22.2207 26.2204 22.1687C27.2798 20.3709 27.9051 18.2586 27.9051 16.0074C27.9051 9.37579 22.554 4 15.9523 4C9.35113 4 4 9.37525 4 16.0074Z" fill="white"/>
</svg>
