<svg width="32" height="32" viewBox="0 0 32 32" fill="none" xmlns="http://www.w3.org/2000/svg">
<rect width="32" height="32" rx="16" fill="#F1F2F5"/>
<path fill-rule="evenodd" clip-rule="evenodd" d="M16 17.0658C18.1217 17.0658 19.713 14.8058 19.713 12.1723C19.713 9.53882 18.3436 8 16 8C13.6564 8 12.287 9.53882 12.287 12.1723C12.287 14.8058 13.8783 17.0658 16 17.0658ZM16.0003 24C12.8402 24 10.867 23.0773 10.0807 22.4419C9.93593 22.3249 9.85337 22.1209 9.86467 21.9078C9.86467 19.8994 12.2827 18.5517 15.9959 18.5517C19.709 18.5517 22.1352 19.8994 22.1352 21.9065C22.1471 22.1202 22.0645 22.3252 21.9192 22.4425C21.1323 23.0775 19.1594 24 16.0003 24Z" fill="#9397AD"/>
</svg>
