<svg width="32" height="32" viewBox="0 0 32 32" fill="none" xmlns="http://www.w3.org/2000/svg">
<path fill-rule="evenodd" clip-rule="evenodd" d="M18.6771 21.6867L20.1663 14.579H26.8002L26.865 14.2717C26.9539 14.8348 27 15.412 27 16C27 22.0751 22.0751 27 16 27C9.92487 27 5 22.0751 5 16C5 9.92487 9.92487 5 16 5C16.9607 5 17.8926 5.12315 18.7808 5.35453L17.4925 11.5328H10.8925L10.2155 14.579H16.8494L15.3263 21.6867H18.6771ZM21.8541 6.68541L20.8432 11.5328H26.0551C25.1641 9.53034 23.6925 7.84326 21.8541 6.68541Z" fill="url(#paint0_radial)"/>
<path fill-rule="evenodd" clip-rule="evenodd" d="M18.6771 21.6867L20.1663 14.579H26.8002L26.865 14.2717C26.9539 14.8348 27 15.412 27 16C27 22.0751 22.0751 27 16 27C9.92487 27 5 22.0751 5 16C5 9.92487 9.92487 5 16 5C16.9607 5 17.8926 5.12315 18.7808 5.35453L17.4925 11.5328H10.8925L10.2155 14.579H16.8494L15.3263 21.6867H18.6771ZM21.8541 6.68541L20.8432 11.5328H26.0551C25.1641 9.53034 23.6925 7.84326 21.8541 6.68541Z" fill="url(#paint1_radial)"/>
<defs>
<radialGradient id="paint0_radial" cx="0" cy="0" r="1" gradientUnits="userSpaceOnUse" gradientTransform="translate(27 5) rotate(135) scale(31.1127 47.0887)">
<stop stop-color="#48CCE0"/>
<stop offset="0.288462" stop-color="#428BEB"/>
<stop offset="0.601763" stop-color="#505ADD"/>
</radialGradient>
<radialGradient id="paint1_radial" cx="0" cy="0" r="1" gradientUnits="userSpaceOnUse" gradientTransform="translate(5 27) scale(22 62.4104)">
<stop stop-color="#FCAB14"/>
<stop offset="0.159058" stop-color="#FA6641"/>
<stop offset="0.402081" stop-color="#BE40C0"/>
<stop offset="1" stop-color="#505ADD" stop-opacity="0"/>
</radialGradient>
</defs>
</svg>
