<svg width="16" height="16" viewBox="0 0 16 16" fill="none" xmlns="http://www.w3.org/2000/svg">
<path d="M8.0001 0C4.46538 0 1.6001 2.86528 1.6001 6.4C1.6001 8.16672 2.31594 9.7664 3.4737 10.9245C4.63178 12.0832 7.3601 13.76 7.5201 15.52C7.54409 15.7839 7.73514 16 8.0001 16C8.26506 16 8.45611 15.7839 8.4801 15.52C8.6401 13.76 11.3684 12.0832 12.5265 10.9245C13.6843 9.7664 14.4001 8.16672 14.4001 6.4C14.4001 2.86528 11.5348 0 8.0001 0Z" fill="#FF4433"/>
<path d="M8.00001 8.64002C9.23713 8.64002 10.24 7.63714 10.24 6.40002C10.24 5.1629 9.23713 4.16002 8.00001 4.16002C6.76289 4.16002 5.76001 5.1629 5.76001 6.40002C5.76001 7.63714 6.76289 8.64002 8.00001 8.64002Z" fill="white"/>
</svg>
