<svg width="16" height="16" viewBox="0 0 16 16" fill="none" xmlns="http://www.w3.org/2000/svg">
<g clip-path="url(#clip0)">
<path fill-rule="evenodd" clip-rule="evenodd" d="M0 0H16V6.36626V7L15.6667 7.43368C15.4385 7.74661 15.2139 8.03483 14.9966 8.29087C14.6026 8.75489 14.218 9.13366 13.8578 9.35892L13.857 9.35939C13.6535 9.48591 13.423 9.58759 13.1751 9.58883L13.1735 9.58884C13.1012 9.58884 13.0263 9.57993 12.9517 9.55893C12.7975 9.51613 12.6628 9.43366 12.5559 9.32248C12.451 9.21408 12.3787 9.08632 12.3281 8.95649C12.2288 8.70149 12.197 8.40156 12.1966 8.09196V8.09129C12.197 7.44355 12.3404 6.6283 12.5256 5.81286C12.6824 5.12423 12.8735 4.41859 13.0466 3.7935L10.4871 2.92873L6.57452 9.36309L5.96012 9.14008L6.49138 5.62574L4.20717 4.83803L0.334784 9.92669L0.00131206 10.3317L0.000169138 13.6664L0.333674 13.167L4.8095 7.25517L4.11844 12.2789L6.41449 13.06L9.95537 7.27L10.5691 7.49525L10.5035 7.91593C10.4559 8.22225 10.4015 8.62448 10.4015 9.05791C10.4015 9.45758 10.4478 9.87221 10.5785 10.2525C10.7084 10.6297 10.9198 10.9712 11.2558 11.244L11.2561 11.2443C11.4817 11.4268 11.7711 11.5851 12.1476 11.6988C12.3886 11.7717 12.6254 11.8054 12.8587 11.8054C13.2114 11.8054 13.5641 11.7278 13.9189 11.5795C14.2742 11.4311 14.63 11.2115 14.984 10.9304C15.214 10.7479 15.4418 10.5403 15.6667 10.3116L16 10V10.4466V16H0V14.1599L0.000169138 13.6664L0 10.3333V0Z" fill="url(#paint0_linear)"/>
<path d="M6.97727 5.35325L4.07688 4.35312L-1.35869e-05 9.71018L-1.35675e-05 14.3362L4.1969 8.79361L3.67683 12.5742L6.61722 13.5743L10.1115 7.86118C9.94275 8.94205 9.66442 11.3893 12.0488 12.1097C13.4601 12.5361 14.7998 11.8281 16 10.6031L16 6.25509C14.8261 8.04668 13.6815 9.33113 13.0862 9.16574C12.0853 8.8877 12.9873 5.65215 13.5691 3.56549L13.5782 3.53301L10.3246 2.43425L6.45719 8.79363L6.97727 5.35325Z" fill="url(#paint1_linear)"/>
</g>
<defs>
<linearGradient id="paint0_linear" x1="8" y1="-3.80734" x2="8" y2="17.5188" gradientUnits="userSpaceOnUse">
<stop stop-color="#FFE55B"/>
<stop offset="1" stop-color="#FFCC00"/>
</linearGradient>
<linearGradient id="paint1_linear" x1="7.80606" y1="-0.249519" x2="8.07157" y2="14.1877" gradientUnits="userSpaceOnUse">
<stop stop-color="#3E3F3A"/>
<stop offset="1"/>
</linearGradient>
<clipPath id="clip0">
<rect width="16" height="16" fill="white"/>
</clipPath>
</defs>
</svg>
