<svg width="32" height="32" viewBox="0 0 32 32" fill="none" xmlns="http://www.w3.org/2000/svg">
<path d="M20.224 2.63558C18.9033 2.20219 17.5203 1.98766 16.1301 2.00055H16.0293C12.3085 2.00055 8.74009 3.4755 6.10909 6.10096C3.47809 8.72642 2 12.2873 2 16.0003C2 19.7132 3.47809 23.2741 6.10909 25.8996C8.74009 28.525 12.3085 30 16.0293 30H16.1301C17.5258 29.9749 18.9083 29.7247 20.224 29.2591C23.0599 28.3653 25.5365 26.5929 27.2944 24.1992C29.0523 21.8055 30 18.915 30 15.9473C30 12.9797 29.0523 10.0892 27.2944 7.69554C25.5365 5.30183 23.0599 3.52942 20.224 2.63558Z" fill="#FFEC00"/>
<path d="M25.3733 9.34133C25.7041 10.1855 25.8836 11.0811 25.9036 11.9873C25.9036 15.8609 22.0165 17.4327 20.4414 17.3321H20.2293C20.0278 17.3321 19.9164 17.2316 19.9164 17.1257C19.9164 16.8082 20.0225 16.5965 20.2293 16.5965C20.2858 16.5389 20.361 16.5032 20.4414 16.496C20.8657 16.496 20.9718 16.5965 21.3854 16.5965C21.799 16.5965 21.9157 16.279 22.1225 15.8557C22.2342 15.7271 22.3189 15.5775 22.3717 15.4157C22.4245 15.2539 22.4444 15.0833 22.4301 14.9137C22.4301 14.0776 21.5869 12.4 21.1733 10.8284C21.1733 11.2464 21.1733 12.1831 20.7596 12.1831C20.6507 12.1862 20.5432 12.1585 20.4494 12.1033C20.3555 12.0481 20.2793 11.9675 20.2293 11.8709C20.0278 11.5587 19.8157 11.1406 19.6089 10.8125C19.6594 11.229 19.6594 11.6501 19.6089 12.0667C19.6089 12.4794 19.4975 12.797 19.2907 12.797C19.0839 12.797 18.7604 12.4794 18.7604 11.7386C18.7604 10.9977 18.8611 10.4738 18.8611 9.21963C18.8749 8.3426 18.6211 7.48213 18.1333 6.75245C17.6455 6.02278 16.9468 5.45839 16.1301 5.13426C15.7221 5.00969 15.2996 4.93856 14.8732 4.92261C11.1982 4.92261 10.7739 8.27239 10.5724 8.37294C10.3709 8.47348 10.1482 7.75376 8.98151 7.75376C7.61862 7.75376 6.14437 9.53712 5.62467 10.5902C4.72831 12.2641 4.25843 14.1324 4.25647 16.0303C4.27191 19.1307 5.51987 22.0982 7.72625 24.2811C9.93264 26.464 12.917 27.6837 16.024 27.6725H16.1248C17.5322 27.6696 18.9247 27.3834 20.2187 26.831C22.4181 26.0047 24.3119 24.5275 25.6464 22.5971C26.9809 20.6667 27.6924 18.3754 27.6854 16.0303C27.6797 13.5861 26.9083 11.2048 25.4794 9.21963L25.3733 9.34133ZM16.1301 15.4217C15.2395 14.3231 14.7579 12.9505 14.7672 11.5375C14.7672 10.8125 14.9846 10.7014 15.1914 10.7014C15.6157 10.7014 15.8225 11.3311 16.1301 12.1672C16.2064 12.4759 16.3514 12.7635 16.5543 13.0086C16.8725 13.7442 17.0846 14.1622 17.3922 14.8978C17.3215 15.4288 17.3576 15.9685 17.4982 16.4854C17.0225 16.1545 16.564 15.7995 16.1248 15.4217H16.1301ZM20.224 22.6505C19.9002 22.6436 19.5808 22.5731 19.2843 22.443C18.9877 22.313 18.7198 22.1259 18.4957 21.8925C18.2716 21.659 18.0958 21.3838 17.9784 21.0826C17.8609 20.7814 17.8041 20.46 17.8111 20.1368C17.8401 19.5694 18.0234 19.0205 18.3414 18.5492C18.8717 19.2795 19.6036 19.8087 20.224 19.2795L20.3301 19.1737C20.8604 18.6445 20.4362 17.9195 20.224 17.7078C20.5486 17.7008 20.8713 17.7576 21.1739 17.8751C21.4764 17.9926 21.7527 18.1684 21.9872 18.3925C22.2216 18.6166 22.4094 18.8846 22.54 19.1812C22.6706 19.4777 22.7414 19.7971 22.7483 20.1209C22.7442 20.7892 22.4774 21.4292 22.0053 21.9032C21.5333 22.3772 20.8937 22.6475 20.224 22.6558V22.6505Z" fill="#1A1A18"/>
</svg>
