<svg width="32" height="32" viewBox="0 0 32 32" fill="none" xmlns="http://www.w3.org/2000/svg">
<path fill-rule="evenodd" clip-rule="evenodd" d="M16.1301 2.00055C17.5203 1.98766 18.9033 2.20219 20.224 2.63558C23.0599 3.52942 25.5365 5.30183 27.2944 7.69554C29.0523 10.0892 30 12.9797 30 15.9473C30 18.915 29.0523 21.8055 27.2944 24.1992C25.5365 26.5929 23.0599 28.3653 20.224 29.2591C18.9083 29.7247 17.5258 29.9749 16.1301 30H16.0293C12.3085 30 8.74009 28.525 6.10909 25.8996C3.47809 23.2741 2 19.7132 2 16.0003C2 12.2873 3.47809 8.72642 6.10909 6.10096C8.74009 3.4755 12.3085 2.00055 16.0293 2.00055H16.1301ZM25.9036 11.9873C25.8836 11.0811 25.7041 10.1855 25.3733 9.34133L25.4794 9.21963C26.9083 11.2048 27.6797 13.5861 27.6854 16.0303C27.6924 18.3754 26.9809 20.6667 25.6464 22.5971C24.3119 24.5275 22.4181 26.0047 20.2187 26.831C18.9247 27.3834 17.5322 27.6696 16.1248 27.6725H16.024C12.917 27.6837 9.93264 26.464 7.72625 24.2811C5.51987 22.0982 4.27191 19.1307 4.25647 16.0303C4.25843 14.1324 4.72831 12.2641 5.62467 10.5902C6.14437 9.53712 7.61862 7.75376 8.98151 7.75376C9.74814 7.75376 10.1072 8.06453 10.3205 8.24912C10.4317 8.34544 10.5033 8.40741 10.5724 8.37294C10.6077 8.35534 10.6498 8.23822 10.7149 8.05696C11.022 7.2025 11.8414 4.92261 14.8732 4.92261C15.2996 4.93856 15.7221 5.00969 16.1301 5.13426C16.9468 5.45839 17.6455 6.02278 18.1333 6.75245C18.6211 7.48213 18.8749 8.3426 18.8611 9.21963C18.8611 9.92877 18.8289 10.4044 18.8009 10.8179C18.7794 11.1356 18.7604 11.4166 18.7604 11.7386C18.7604 12.4794 19.0839 12.797 19.2907 12.797C19.4975 12.797 19.6089 12.4794 19.6089 12.0667C19.6594 11.6501 19.6594 11.229 19.6089 10.8125C19.7083 10.9702 19.8089 11.1487 19.909 11.3263C20.0172 11.5181 20.1247 11.7087 20.2293 11.8709C20.2793 11.9675 20.3555 12.0481 20.4494 12.1033C20.5432 12.1585 20.6507 12.1862 20.7596 12.1831C21.1733 12.1831 21.1733 11.2464 21.1733 10.8284C21.3481 11.4928 21.5998 12.1761 21.832 12.8068C22.1491 13.668 22.4301 14.431 22.4301 14.9137C22.4444 15.0833 22.4245 15.2539 22.3717 15.4157C22.3189 15.5775 22.2342 15.7271 22.1225 15.8557C22.1059 15.8896 22.0899 15.9229 22.0743 15.9554C21.8951 16.3279 21.7658 16.5965 21.3854 16.5965C21.1799 16.5965 21.0503 16.5717 20.9199 16.5467C20.7878 16.5214 20.6549 16.496 20.4414 16.496C20.361 16.5032 20.2858 16.5389 20.2293 16.5965C20.0225 16.5965 19.9164 16.8082 19.9164 17.1257C19.9164 17.2316 20.0278 17.3321 20.2293 17.3321H20.4414C22.0165 17.4327 25.9036 15.8609 25.9036 11.9873ZM14.7672 11.5375C14.7579 12.9505 15.2395 14.3231 16.1301 15.4217H16.1248C16.564 15.7995 17.0225 16.1545 17.4982 16.4854C17.3576 15.9685 17.3215 15.4288 17.3922 14.8978C17.2198 14.4856 17.0774 14.1731 16.9296 13.8486C16.8136 13.594 16.6942 13.332 16.5543 13.0086C16.3514 12.7635 16.2064 12.4759 16.1301 12.1672C16.1137 12.1228 16.0976 12.0789 16.0818 12.0357C15.7999 11.2659 15.5931 10.7014 15.1914 10.7014C14.9846 10.7014 14.7672 10.8125 14.7672 11.5375ZM19.2843 22.443C19.5808 22.5731 19.9002 22.6436 20.224 22.6505V22.6558C20.8937 22.6475 21.5333 22.3772 22.0053 21.9032C22.4774 21.4292 22.7442 20.7892 22.7483 20.1209C22.7414 19.7971 22.6706 19.4777 22.54 19.1812C22.4094 18.8846 22.2216 18.6166 21.9872 18.3925C21.7527 18.1684 21.4764 17.9926 21.1739 17.8751C20.8713 17.7576 20.5486 17.7008 20.224 17.7078C20.4362 17.9195 20.8604 18.6445 20.3301 19.1737L20.224 19.2795C19.6036 19.8087 18.8717 19.2795 18.3414 18.5492C18.0234 19.0205 17.8401 19.5694 17.8111 20.1368C17.8041 20.46 17.8609 20.7814 17.9784 21.0826C18.0958 21.3838 18.2716 21.659 18.4957 21.8925C18.7198 22.1259 18.9877 22.313 19.2843 22.443Z" fill="white"/>
</svg>
