<svg width="32" height="32" viewBox="0 0 32 32" fill="none" xmlns="http://www.w3.org/2000/svg">
<path fill-rule="evenodd" clip-rule="evenodd" d="M13.2227 10H26.3689C26.9362 10 27.1419 10.057 27.3493 10.1639C27.5567 10.2709 27.7195 10.4278 27.8304 10.6278C27.9414 10.8278 28.0004 11.0262 28.0004 11.5733V23.4267C28.0004 23.9738 27.9414 24.1722 27.8304 24.3722C27.7195 24.5722 27.5567 24.7291 27.3493 24.8361C27.1419 24.943 26.9362 25 26.3689 25H13.2227V10Z" fill="#A1C4AA"/>
<path d="M13.2219 21.25C15.3697 21.25 17.1108 19.5711 17.1108 17.5C17.1108 15.4289 15.3697 13.75 13.2219 13.75C11.0741 13.75 9.33301 15.4289 9.33301 17.5C9.33301 19.5711 11.0741 21.25 13.2219 21.25Z" fill="#E2E9DB"/>
<mask id="path-4-inside-1" fill="white">
<path fill-rule="evenodd" clip-rule="evenodd" d="M13.2227 12.25H22.556C22.719 13.8066 23.9821 15.25 25.6671 15.25V19.9777C24.095 19.9777 22.8649 20.9018 22.556 22.75H13.2227"/>
</mask>
<path d="M22.556 12.25L23.5506 12.1458C23.4972 11.6367 23.0679 11.25 22.556 11.25V12.25ZM25.6671 15.25H26.6671C26.6671 14.6977 26.2194 14.25 25.6671 14.25V15.25ZM25.6671 19.9777V20.9777C26.2194 20.9777 26.6671 20.53 26.6671 19.9777H25.6671ZM22.556 22.75V23.75C23.0447 23.75 23.4618 23.3968 23.5423 22.9149L22.556 22.75ZM13.2227 13.25H22.556V11.25H13.2227V13.25ZM21.5614 12.3542C21.7662 14.3093 23.3661 16.25 25.6671 16.25V14.25C24.5981 14.25 23.6718 13.3039 23.5506 12.1458L21.5614 12.3542ZM24.6671 15.25V19.9777H26.6671V15.25H24.6671ZM25.6671 18.9777C24.6821 18.9777 23.7405 19.27 22.9896 19.9094C22.2374 20.5498 21.7559 21.4707 21.5697 22.5851L23.5423 22.9149C23.6649 22.1811 23.953 21.7158 24.2862 21.4321C24.6205 21.1474 25.08 20.9777 25.6671 20.9777V18.9777ZM22.556 21.75H13.2227V23.75H22.556V21.75Z" fill="#E2E9DB" mask="url(#path-4-inside-1)"/>
<path opacity="0.3" fill-rule="evenodd" clip-rule="evenodd" d="M15.556 10L17.1115 25H13.2227V10H15.556Z" fill="black"/>
<path d="M25.6667 13.375C26.311 13.375 26.8333 12.8713 26.8333 12.25C26.8333 11.6287 26.311 11.125 25.6667 11.125C25.0223 11.125 24.5 11.6287 24.5 12.25C24.5 12.8713 25.0223 13.375 25.6667 13.375Z" stroke="#E2E9DB"/>
<path fill-rule="evenodd" clip-rule="evenodd" d="M11.667 21.25C13.3852 21.25 14.7781 19.9069 14.7781 18.25C14.7781 16.5931 13.3852 15.25 11.667 15.25" fill="white"/>
<path d="M1.63156 7L14.5585 7C14.9052 7 15.0309 7.03481 15.1577 7.10017C15.2844 7.16554 15.3839 7.26146 15.4517 7.38368C15.5195 7.50591 15.5556 7.62714 15.5556 7.96146V22.75H1.63156C1.06423 22.75 0.858506 22.693 0.651098 22.5861C0.443691 22.4791 0.280916 22.3222 0.169994 22.1222C0.0590708 21.9222 0 21.7238 0 21.1767L0 8.57329C0 8.02622 0.0590708 7.82784 0.169994 7.62784C0.280916 7.42784 0.443691 7.27088 0.651098 7.16392C0.858506 7.05696 1.06423 7 1.63156 7Z" fill="#BFE0C4"/>
<path d="M11.667 15.25C11.667 17.3211 13.4081 19 15.5559 19V11.5C13.4081 11.5 11.667 13.1789 11.667 15.25Z" fill="white"/>
<mask id="path-11-inside-2" fill="white">
<path fill-rule="evenodd" clip-rule="evenodd" d="M15.5557 9.25H5.44455C5.28152 10.7992 4.01843 12.2891 2.33344 12.2891V17.7408C3.90553 17.7408 5.25801 18.6605 5.56691 20.5H15.5557"/>
</mask>
<path d="M5.44455 9.25L4.45004 9.14534C4.5036 8.63638 4.93278 8.25 5.44455 8.25V9.25ZM2.33344 12.2891H1.33344C1.33344 11.7368 1.78116 11.2891 2.33344 11.2891V12.2891ZM2.33344 17.7408V18.7408C1.78116 18.7408 1.33344 18.2931 1.33344 17.7408H2.33344ZM5.56691 20.5V21.5C5.07854 21.5 4.6616 21.1472 4.58072 20.6656L5.56691 20.5ZM15.5557 10.25H5.44455V8.25H15.5557V10.25ZM6.43906 9.35466C6.23607 11.2836 4.65048 13.2891 2.33344 13.2891V11.2891C3.38637 11.2891 4.32696 10.3149 4.45004 9.14534L6.43906 9.35466ZM3.33344 12.2891V17.7408H1.33344V12.2891H3.33344ZM2.33344 16.7408C3.31354 16.7408 4.27443 17.0287 5.04962 17.6506C5.83222 18.2784 6.36195 19.1961 6.5531 20.3344L4.58072 20.6656C4.46297 19.9644 4.162 19.5026 3.79812 19.2106C3.42683 18.9128 2.92543 18.7408 2.33344 18.7408V16.7408ZM5.56691 19.5H15.5557V21.5H5.56691V19.5Z" fill="white" mask="url(#path-11-inside-2)"/>
<path d="M2.33366 10.375C2.97799 10.375 3.50033 9.87132 3.50033 9.25C3.50033 8.62868 2.97799 8.125 2.33366 8.125C1.68933 8.125 1.16699 8.62868 1.16699 9.25C1.16699 9.87132 1.68933 10.375 2.33366 10.375Z" stroke="white"/>
</svg>
