<svg width="32" height="32" viewBox="0 0 32 32" fill="none" xmlns="http://www.w3.org/2000/svg">
<path d="M2 10C2 8.34315 3.34315 7 5 7H27C28.6569 7 30 8.34315 30 10V22C30 23.6569 28.6569 25 27 25H5C3.34315 25 2 23.6569 2 22V10Z" fill="#D8DCE6"/>
<path d="M16 11.5C15.6778 11.5 15.4166 11.7518 15.4166 12.0625V15.4375H11.9166C11.5945 15.4375 11.3333 15.6893 11.3333 16C11.3333 16.3107 11.5945 16.5625 11.9166 16.5625H15.4166V19.9375C15.4166 20.2482 15.6778 20.5 16 20.5C16.3221 20.5 16.5833 20.2482 16.5833 19.9375V16.5625H20.0833C20.4055 16.5625 20.6666 16.3107 20.6666 16C20.6666 15.6893 20.4055 15.4375 20.0833 15.4375H16.5833V12.0625C16.5833 11.7518 16.3221 11.5 16 11.5Z" fill="#9397AD"/>
</svg>
