<svg width="32" height="32" viewBox="0 0 32 32" fill="none" xmlns="http://www.w3.org/2000/svg">
<path fill-rule="evenodd" clip-rule="evenodd" d="M28 28H4V4H28V28ZM23.3435 11.1953C23.3387 11.386 23.3341 11.5646 23.3331 11.6127H24.4221C24.3569 10.7846 24.2392 10.6607 23.538 10.6607H23.3567C23.3558 10.7158 23.3494 10.9644 23.3435 11.1953ZM23.7555 9.79034C24.783 9.79034 25.2181 10.2725 25.3281 11.1991C25.3552 11.4288 25.6936 15.0245 25.6936 15.0245H24.7105C24.7105 15.0245 24.5305 12.5889 24.5194 12.483L23.3163 12.4819C23.3113 12.5969 23.2234 15.0245 23.2234 15.0245H22.2711L22.4488 9.79034H23.7555ZM11.7789 18.8012C11.7798 18.7531 11.7844 18.5744 11.7893 18.3838L11.7893 18.3836C11.7952 18.1528 11.8015 17.9045 11.8024 17.8494L11.973 17.8386C12.6742 17.8386 12.8025 17.9733 12.8678 18.8012H11.7789ZM13.7737 18.3876C13.664 17.4612 13.2286 16.9789 12.2012 16.9789H10.8944L10.7167 22.213H11.6689C11.6689 22.213 11.7569 19.7854 11.7621 19.6704L12.9652 19.6715C12.9762 19.7774 13.1561 22.213 13.1561 22.213H14.1392C14.1392 22.213 13.801 18.6174 13.7737 18.3876ZM6.62874 15.0232V9.79034H9.7477V15.0232H8.78378V10.6606H7.59111V15.0232H6.62874ZM16.8097 11.6128H16.2858C16.0691 11.6128 15.9084 11.5644 15.806 11.4666C15.7337 11.3987 15.6983 11.3067 15.6983 11.1868V9.79034H14.7337V11.2844C14.7337 11.6289 14.87 11.9201 15.139 12.1516C15.4041 12.3807 15.7288 12.4962 16.1056 12.4962H16.8097V15.0233H17.7729V9.79034H16.8097V11.6128ZM18.8391 10.6606V9.79034H21.4129V10.6606H20.6131V15.0232H20.6012H19.6507H19.6389V10.6606H18.8391ZM17.4262 16.9787V18.6514H16.105V16.9787H15.1442V22.2138H16.105V19.5217H17.4262V22.2138H18.387V16.9787H17.4262ZM7.59111 21.382C7.59111 21.382 7.82634 21.4036 7.9199 21.4036C8.18067 21.4036 8.81468 21.3496 8.81468 20.4618C8.81468 19.5201 8.26919 19.521 7.79018 19.5218L7.74944 19.5218C7.66675 19.5218 7.59111 19.5396 7.59111 19.5396V20.2532V20.3603V21.382ZM7.59111 18.7015C7.72333 18.6955 7.87065 18.6915 8.03646 18.6915C9.54718 18.6915 9.77154 19.8709 9.77154 20.4381C9.77154 20.9173 9.54591 22.2118 8.08951 22.2118H6.69394H6.62874V17.8491V16.9789H9.3183V17.8491H7.59111V18.7015ZM11.6128 12.4161V12.4157C11.6208 10.9992 11.9709 10.5331 12.3401 10.5262C12.7092 10.5331 13.0593 10.9992 13.0673 12.4157V12.4161C13.0593 13.7995 12.7092 14.272 12.3401 14.2792C11.9709 14.272 11.621 13.7995 11.6128 12.4161ZM14.026 12.2221C14.0094 11.4735 13.8808 10.9371 13.6817 10.5561C13.3679 9.90486 12.868 9.66172 12.3518 9.65551L12.3502 9.6553L12.3485 9.65509L12.3401 9.65523L12.3316 9.65509L12.33 9.6553L12.3284 9.65551C11.8122 9.66172 11.3124 9.90486 10.9984 10.5561C10.7991 10.9371 10.6707 11.4735 10.6541 12.2221C10.6539 12.2232 10.6518 12.3901 10.6518 12.3914L10.652 12.3912C10.6525 12.8576 10.7045 13.3099 10.8059 13.6741C11.0702 14.7464 11.6809 15.1257 12.3185 15.1371L12.3239 15.1374L12.3316 15.1377L12.3401 15.1376L12.3485 15.1377C12.3528 15.1377 12.3574 15.1373 12.3617 15.1371C12.9992 15.1257 13.6099 14.7464 13.8742 13.6741C13.9758 13.3099 14.0277 12.8576 14.0282 12.3912L14.0283 12.3914L14.026 12.2221ZM22.0232 19.1448L23.1815 22.2122H22.1475L21.2013 19.556C21.1294 19.5565 20.6198 19.5558 20.6198 19.5558V22.2138H19.6566V16.9787H20.6198C20.6198 16.9787 20.6191 18.6671 20.6198 18.709H21.0148C21.5266 18.709 21.6739 18.2474 21.7178 17.7471C21.7474 17.4095 21.7679 17.0775 21.7737 16.9787H22.7211C22.7211 16.9787 22.6148 17.949 22.5341 18.281C22.4509 18.6226 22.2636 18.9657 22.0232 19.1448Z" fill="#CC003D"/>
</svg>
