<svg width="32" height="32" viewBox="0 0 32 32" fill="none" xmlns="http://www.w3.org/2000/svg">
<path fill-rule="evenodd" clip-rule="evenodd" d="M16.0097 30C8.28215 30 2 23.7201 2 16.008C2 8.27898 8.28215 2 16.0097 2C23.7205 2 30 8.27898 30 16.008C30 23.7201 23.7196 30 16.0097 30ZM16.01 2.47453C8.54545 2.47453 2.47851 8.54459 2.47851 16.008C2.47851 23.4564 8.54545 29.5229 16.01 29.5229C23.4586 29.5229 29.5255 23.4564 29.5255 16.008C29.5255 8.54459 23.4586 2.47453 16.01 2.47453Z" fill="white"/>
<path fill-rule="evenodd" clip-rule="evenodd" d="M20.6118 9.61296C13.9045 8.44533 9.94109 9.82541 6.35584 12.1589L6.09545 12.9326C10.0917 10.1884 14.9895 9.43325 19.7102 10.2548C18.6585 10.6223 17.4806 10.8123 16.3334 10.9972C15.6323 11.1102 14.9427 11.2214 14.3004 11.3701C13.9769 11.4438 13.6871 11.506 13.4106 11.5653C12.4506 11.7713 11.6503 11.943 10.1554 12.4413C8.20072 13.0822 7.04756 13.7408 6.32572 14.5782C5.98031 14.9739 5.71549 15.4343 5.64995 15.9265C5.61895 16.2204 5.63578 16.4859 5.73409 16.7488C5.8138 16.979 5.99536 17.2092 6.19287 17.4393C5.96437 17.8333 5.76509 18.3449 6.09545 18.9371C6.24247 19.2151 6.62066 19.494 6.98379 19.7595L6.88282 20.0525C6.83322 20.4004 6.78539 20.8094 7.01567 21.1547C7.40892 21.7796 7.88541 22.1913 8.64179 22.5861C8.7587 23.096 8.93761 23.505 9.33262 23.8697C10.1705 24.6407 12.0464 26.1208 15.3836 26.3519C17.8839 26.5165 19.6756 25.7588 20.3505 25.4295L21.1724 25.0037C19.7739 25.5614 17.4242 25.8907 15.4988 25.726C12.7026 25.4959 10.2059 23.6714 9.89326 23.1438C9.97207 23.1968 10.0735 23.2399 10.1694 23.2807C10.192 23.2903 10.2144 23.2999 10.236 23.3093C13.5095 24.8868 17.7351 25.7437 23.144 23.5395L23.5904 23.1119C18.6722 24.6407 14.3668 24.592 9.74358 22.1753C9.78604 21.9399 9.9153 21.7289 10.1058 21.584C11.2891 22.1072 12.4245 22.5374 13.8062 22.8154C15.4173 23.1119 17.2577 23.1783 18.7722 23.1119C20.3018 23.0464 23.3255 22.2895 24.7568 21.5344C24.8255 21.4737 24.8761 21.3913 24.9277 21.3076C24.9745 21.2314 25.0221 21.1542 25.0845 21.0909C22.2911 22.1072 18.968 22.587 16.9637 22.4365C15.0063 22.2904 13.2651 22.0585 10.9623 21.0068C11.4051 20.8271 11.8657 20.6784 12.3262 20.5456C13.839 21.0068 15.3836 21.2848 17.209 21.3689C19.0193 21.4512 23.2432 20.7784 25.9064 19.1673C25.9906 18.9371 26.0712 18.6884 26.0712 18.6884C26.0712 18.6884 22.3708 20.6634 18.1806 20.6634C16.2232 20.6634 15.0231 20.3818 14.1366 20.1694C14.7122 20.0636 15.3317 19.9634 15.9898 19.8569C17.5849 19.5987 19.4075 19.3038 21.385 18.8044C22.7994 18.4414 24.5416 17.619 25.3325 16.9294C26.0056 16.3195 26.5326 15.5299 26.3519 14.7278C26.3165 14.511 26.0216 14.0046 25.6602 13.8223C26.0056 13.3779 25.9728 12.999 25.9241 12.6732C25.8905 12.4218 25.7753 12.1456 25.6292 11.8995C25.398 11.6003 25.1819 11.3693 24.7391 11.1072C24.8055 10.7292 24.7568 10.4008 24.6071 10.0883C24.2617 9.49699 23.6382 8.9871 22.5692 8.44533C22.5205 8.23022 22.3876 7.95048 22.1582 7.67252C20.8111 6.34024 18.6084 5.69933 16.7485 5.66569C14.4306 5.61612 12.5716 6.1269 11.4388 6.6545C10.9409 6.87233 10.4669 7.1411 10.0243 7.45652C13.4599 5.92772 17.6536 6.02775 19.905 7.03161C19.9532 7.05397 20.0003 7.07572 20.0463 7.09698C20.6762 7.38793 21.103 7.58502 21.3035 7.95048C18.9671 7.32551 17.9645 7.2122 16.0089 7.26C13.2287 7.31046 9.53013 8.41081 8.11569 9.25178L7.49306 10.0237C9.53013 8.82156 13.3288 8.0337 15.435 7.9673C17.7856 7.93544 19.6092 8.14966 21.2876 8.75693C21.1875 9.1845 20.974 9.39784 20.6118 9.61296ZM22.439 9.25179L22.4386 9.25301L22.4381 9.25267L22.439 9.25179ZM22.4386 9.25301C22.8999 9.54869 23.4257 9.99203 23.4912 10.4522C22.9987 10.2698 22.4726 10.0759 21.9625 9.94405C22.1287 9.76201 22.3717 9.48294 22.4386 9.25301ZM21.239 10.599C21.9186 10.7787 22.5838 11.0089 23.2291 11.2878C23.1281 11.44 22.5037 12.0136 22.3709 11.9473C22.1274 11.8807 21.8931 11.8095 21.6582 11.7381L21.6582 11.7381C21.1344 11.579 20.6078 11.4191 19.9707 11.3072C20.4284 11.1401 20.8566 10.901 21.239 10.599ZM24.7677 14.702C24.819 14.6616 24.8703 14.6211 24.9217 14.5773C25.942 16.1548 22.1106 17.372 19.4943 17.9341C18.0479 18.2271 16.0419 18.5874 15.3838 18.7051C13.6762 18.9849 13.1147 19.1327 11.9314 19.4779C11.3398 19.2469 10.7472 19.0008 10.2061 18.7211C10.7472 18.4909 11.3389 18.3094 11.9146 18.1634C13.1929 17.8493 14.4046 17.6488 15.6623 17.4406C17.2513 17.1776 18.914 16.9025 20.8777 16.3708C22.5702 15.9255 23.8031 15.4475 24.5781 14.8579C24.6408 14.802 24.7041 14.7521 24.7677 14.702L24.7677 14.702ZM15.941 13.5847L15.941 13.5847C17.6277 13.2774 19.3375 12.9659 21.0584 12.5069C19.6448 12.1289 18.853 11.9634 17.3597 12.1448C15.188 12.4086 12.787 12.8663 10.7331 13.4762L10.6263 13.5087C9.61131 13.8161 5.74699 14.9866 6.91841 16.5993C6.91841 16.6008 6.92304 16.5955 6.93298 16.5843L6.93299 16.5843C7.04718 16.4552 7.86208 15.5343 10.4186 14.7908C12.2194 14.2628 14.0658 13.9264 15.941 13.5847L15.941 13.5847ZM8.66038 21.4834C8.24942 21.1382 8.05103 20.8593 8.06697 20.545C8.325 20.7132 8.58302 20.8504 8.84173 20.9881L8.84175 20.9881L8.84176 20.9881L8.84178 20.9881L8.84179 20.9881L8.8418 20.9881L8.84182 20.9881L8.90749 21.0231C8.79235 21.1886 8.70909 21.3179 8.66038 21.4834ZM9.66302 20.3996C9.95384 20.2209 10.2618 20.0717 10.5824 19.9543C10.3887 19.8669 10.1896 19.7802 9.98836 19.6926C9.69451 19.5646 9.39608 19.4346 9.10327 19.2975C8.87299 19.4453 8.66042 19.5923 8.49569 19.7392C8.88982 19.9703 9.26889 20.1836 9.66302 20.3996ZM19.7104 14.1346C21.1248 13.7876 22.1115 13.4601 22.7996 13.1316C22.8324 13.0812 23.9501 13.6238 24.0662 13.7531C23.688 14.0673 23.1628 14.3311 22.5871 14.5268C20.86 15.1526 17.7202 15.8086 16.0614 16.0591L15.6433 16.1281L15.6433 16.1281L15.6433 16.1281L15.6433 16.1281C14.1435 16.3749 12.8268 16.5917 11.1281 17.0408C10.0564 17.3232 9.3337 17.6516 8.8076 17.9969C8.67785 17.9211 8.56585 17.8634 8.46103 17.8093C8.24745 17.6992 8.06365 17.6045 7.82007 17.4038C9.10342 16.3194 11.7188 15.7112 12.6736 15.4979C14.2966 15.1468 15.8593 14.8661 17.1411 14.6358C18.2608 14.4347 19.1661 14.272 19.7104 14.1346ZM24.0567 12.6381L24.0568 12.6381C24.3047 12.7504 24.5367 12.8555 24.7572 13.0168C24.9698 12.6043 24.8387 12.3414 24.3968 11.9634C24.2152 12.1785 24.0159 12.3582 23.8033 12.5211C23.8897 12.5625 23.9741 12.6007 24.0567 12.6381ZM7.25034 18.3035C7.45859 18.4355 7.64047 18.5509 7.90486 18.6882C7.86078 18.7262 7.81177 18.7641 7.76161 18.803L7.76159 18.803L7.76156 18.803L7.76155 18.803C7.68069 18.8656 7.59683 18.9306 7.52578 19.0016C7.26362 18.852 6.99792 18.5253 7.13077 18.2279C7.17195 18.2538 7.21152 18.2789 7.25019 18.3034L7.25034 18.3035Z" fill="white"/>
</svg>
