<svg xmlns="http://www.w3.org/2000/svg" fill="none" viewBox="0 0 204 60">
  <path fill="#1E3765" fill-rule="evenodd" d="M15.74 47.48A15.7 15.7 0 010 31.84c0-8.64 7.06-15.66 15.74-15.66a15.7 15.7 0 0115.72 15.66 15.7 15.7 0 01-15.72 15.64zm0-30.77C7.35 16.71.54 23.5.54 31.84c0 8.33 6.81 15.11 15.2 15.11 8.37 0 15.19-6.78 15.19-15.1 0-8.35-6.82-15.14-15.19-15.14z" clip-rule="evenodd"/>
  <path fill="#1E3765" fill-rule="evenodd" d="M20.91 24.7c-7.54-1.31-11.99.23-16.02 2.84l-.29.86c4.5-3.06 10-3.9 15.3-2.99-1.18.41-2.5.62-3.8.83-.78.13-1.56.25-2.28.42l-1 .22c-1.08.23-1.98.42-3.66.97-2.2.72-3.49 1.46-4.3 2.4-.39.44-.69.95-.76 1.5-.03.33-.02.63.1.92.08.26.29.51.51.77-.26.44-.48 1.01-.1 1.68.16.3.58.62.99.92l-.11.32c-.06.4-.11.85.15 1.24.44.7.97 1.15 1.82 1.6.13.57.33 1.02.78 1.43.94.86 3.05 2.52 6.8 2.77 2.8.19 4.82-.66 5.58-1.03l.92-.47c-1.57.62-4.21.99-6.37.8-3.15-.25-5.95-2.3-6.3-2.88.09.06.2.1.3.15l.08.03c3.68 1.77 8.43 2.73 14.5.26l.5-.48C18.74 41.5 13.9 41.44 8.7 38.74c.05-.27.2-.5.4-.66a19.4 19.4 0 004.16 1.37c1.81.33 3.88.4 5.58.33 1.72-.07 5.12-.92 6.73-1.76.07-.07.13-.16.19-.25.05-.09.1-.18.18-.25-3.14 1.14-6.88 1.68-9.13 1.5-2.2-.16-4.15-.41-6.74-1.59.5-.2 1.01-.37 1.53-.52 1.7.52 3.44.83 5.49.92 2.03.1 6.78-.66 9.77-2.46.1-.25.18-.53.18-.53s-4.15 2.2-8.86 2.2c-2.2 0-3.55-.3-4.54-.55l2.08-.35c1.79-.28 3.84-.61 6.06-1.17a12.8 12.8 0 004.43-2.1c.76-.68 1.35-1.56 1.15-2.46-.04-.24-.37-.8-.78-1.01.4-.5.35-.92.3-1.29a2.4 2.4 0 00-.33-.86c-.26-.34-.5-.6-1-.89a1.8 1.8 0 00-.15-1.14C25 24.56 24.3 24 23.1 23.4c-.05-.24-.2-.56-.46-.87-1.52-1.49-3.99-2.2-6.08-2.24-2.6-.06-4.7.52-5.97 1.1-.55.25-1.09.55-1.58.9 3.86-1.7 8.57-1.6 11.1-.47l.16.07c.7.33 1.18.55 1.4.95-2.62-.7-3.74-.82-5.94-.77-3.12.06-7.28 1.29-8.87 2.23l-.7.86c2.29-1.34 6.56-2.22 8.92-2.3 2.65-.03 4.7.2 6.58.89-.11.47-.35.71-.76.95zm2.05-.41zm0 0c.52.33 1.11.83 1.19 1.34-.56-.2-1.15-.42-1.72-.57.18-.2.46-.51.53-.77zm-1.35 1.5c.77.2 1.52.46 2.24.78-.11.17-.81.8-.96.73-.28-.07-.54-.15-.8-.23-.6-.18-1.18-.36-1.9-.48.51-.19 1-.46 1.42-.8zm3.97 4.6l.17-.15c1.15 1.77-3.16 3.13-6.1 3.75-1.62.33-3.87.74-4.61.87-1.92.31-2.55.47-3.88.86-.67-.26-1.33-.53-1.94-.85.6-.25 1.27-.46 1.92-.62 1.44-.35 2.8-.57 4.21-.8 1.78-.3 3.65-.6 5.86-1.2 1.9-.5 3.29-1.03 4.16-1.7l.21-.17zm-9.92-1.26c1.9-.34 3.82-.69 5.75-1.2a9.32 9.32 0 00-4.15-.4c-2.44.29-5.14.8-7.45 1.48l-.12.04c-1.14.34-5.48 1.65-4.16 3.45l.01-.01c.13-.15 1.05-1.18 3.92-2 2.02-.6 4.1-.98 6.2-1.36zm-8.18 8.83c-.46-.38-.68-.7-.66-1.05.29.2.58.34.87.5l.07.04c-.13.18-.22.33-.28.51zm1.13-1.2c.33-.2.67-.38 1.03-.5l-.67-.3a39.9 39.9 0 01-.99-.44c-.26.16-.5.33-.68.5l1.3.73zm11.29-7.01c1.59-.39 2.7-.76 3.47-1.12.04-.06 1.3.55 1.42.7-.42.34-1.01.64-1.66.86-1.94.7-5.47 1.43-7.33 1.7l-.47.09c-1.69.27-3.17.51-5.07 1.02-1.2.31-2.02.68-2.61 1.07l-.4-.21a3.56 3.56 0 01-.71-.46c1.44-1.21 4.38-1.89 5.45-2.13 1.83-.4 3.58-.7 5.02-.96 1.26-.23 2.28-.4 2.89-.56zm4.6-1.8l.28.12c.28.13.54.25.79.43.24-.46.09-.76-.4-1.18-.21.24-.44.44-.67.62zM5.9 34.4c.23.15.44.27.73.43l-.16.13-.26.22c-.3-.17-.6-.53-.45-.87l.14.09zM59.1 30.28c.51 0 1.46-.33 1.46-1.34 0-1.2-1.1-1.27-1.4-1.27-.38 0-1.08.06-1.76.39l-.04-2.98c.9-.24 1.85-.36 2.79-.35 2.62 0 3.79 1.82 3.79 3.6 0 1.73-1 2.77-1.98 3.18v.13c.94.3 2.2 1.2 2.2 3.29 0 2.6-1.81 4.02-4.14 4.02a5.85 5.85 0 01-3.03-.71l.06-2.85c.9.39 1.51.42 2.12.42 1.04 0 1.44-.75 1.44-1.3 0-.77-.5-1.29-1.59-1.29h-1.3v-2.94h1.38zm-9.33 8.4h-3.23l2.73-13.71h4.02l2.74 13.7H52.8l-.39-2.36h-2.24l-.4 2.37zm2.12-5.39l-.6-4.19-.62 4.2h1.22zm22.48-8.32h-8.72v13.7h3.2v-10.4h2.33v10.4h3.2v-13.7zm5.03 3.01h.76c.72 0 1.18.44 1.18 1.58 0 1.47-.78 1.58-1.18 1.58h-.76v-3.16zm0 10.7h-3.2V24.97h4.27c3.01 0 4.14 2.8 4.14 4.55 0 1.8-.98 4.64-4.14 4.64H79.4v4.52zm11.12-3.16c-1.13 0-1.7-1.3-1.7-3.71s.57-3.72 1.7-3.72 1.7 1.3 1.7 3.72c0 2.4-.57 3.7-1.7 3.7zm5.06-3.71c0 3.5-1.27 7.04-5.06 7.04-3.79 0-5.06-3.53-5.06-7.04 0-3.51 1.27-7.04 5.06-7.04 3.79 0 5.06 3.53 5.06 7.04zm17.05 4.11v-3.1h.46c.4 0 1.39.02 1.39 1.43 0 1.43-1 1.67-1.39 1.67h-.46zm.69 2.76h-3.81V24.97h7.35v3.29h-4.23v1.82h.57c1.74 0 4.42.6 4.42 4.1-.02 4.15-3.48 4.5-4.3 4.5zm15.8-13.71h3.11v4.94h2.24v-4.94h3.12v13.7h-3.12v-5.49h-2.24v5.5h-3.12V24.97zm13.72 0h-3.15v13.7h3.15l-.02-5.5h.74l1.8 5.51h3.68l-2.79-7.2 2.44-6.51h-3.4l-1.8 4.92h-.67l.02-4.92zm-102.5 0h6.56v3.42h-3.3v10.29h-3.25V24.97zm59.5 0h-2.72v13.7h3.19v-8.35l1.92 2.39 1.92-2.4v8.37h3.2V24.97h-2.7l-2.42 3.23-2.4-3.23zM123 29.14l.59 4.17h-1.2l.6-4.17zm-1.52 9.56h-3.25l2.75-13.71h4.03l2.73 13.7h-3.25l-.39-2.36h-2.23l-.39 2.37z" clip-rule="evenodd"/>
</svg>
