<svg width="90" height="90" viewBox="0 0 90 90" fill="none" xmlns="http://www.w3.org/2000/svg">
<path opacity="0.3" fill-rule="evenodd" clip-rule="evenodd" d="M44.4706 89.4711C62.4707 89.4711 90.0001 69.5609 90.0001 45.0004C90.0001 12.1769 74.1177 0.529785 44.4706 0.529785C19.9102 0.529785 0 23.8239 0 45.0004C0 73.5887 17.7925 89.4711 44.4706 89.4711Z" fill="#00AC1C"/>
<path fill-rule="evenodd" clip-rule="evenodd" d="M44.4692 83.1201C65.5211 83.1201 82.5869 66.0543 82.5869 45.0025C82.5869 23.9506 65.5211 6.88477 44.4692 6.88477C23.4174 6.88477 6.35156 23.9506 6.35156 45.0025C6.35156 66.0543 23.4174 83.1201 44.4692 83.1201Z" fill="#10D129"/>
<path fill-rule="evenodd" clip-rule="evenodd" d="M62.4923 30.9237C61.0808 29.4148 58.7668 29.4148 57.3553 30.9237L37.8455 51.7794L31.5827 45.0845C30.1712 43.5756 27.8572 43.5756 26.4457 45.0845C25.065 46.5605 25.065 48.931 26.4457 50.407L35.277 59.8475C36.6885 61.3564 39.0025 61.3564 40.414 59.8475L62.4923 36.2461C63.873 34.7702 63.873 32.3996 62.4923 30.9237Z" fill="white"/>
</svg>
