<svg width="24" height="24" viewBox="0 0 24 24" fill="none" xmlns="http://www.w3.org/2000/svg">
<rect width="24" height="24" rx="6" fill="#B5EFBA"/>
<path fill-rule="evenodd" clip-rule="evenodd" d="M14.625 9.37766C14.8571 9.37766 15.0796 9.28548 15.2437 9.12138C15.4078 8.95729 15.5 8.73473 15.5 8.50266C15.5 7.5744 15.1313 6.68417 14.4749 6.02779C13.8185 5.37141 12.9283 5.00266 12 5.00266C11.0717 5.00266 10.1815 5.37141 9.52513 6.02779C8.86875 6.68417 8.5 7.5744 8.5 8.50266V11.1277H8.0625C7.7144 11.1277 7.38056 11.2659 7.13442 11.5121C6.88828 11.7582 6.75 12.0921 6.75 12.4402V17.6902C6.75 18.0383 6.88828 18.3721 7.13442 18.6182C7.38056 18.8644 7.7144 19.0027 8.0625 19.0027H15.9375C16.2856 19.0027 16.6194 18.8644 16.8656 18.6182C17.1117 18.3721 17.25 18.0383 17.25 17.6902V12.4402C17.25 12.0921 17.1117 11.7582 16.8656 11.5121C16.6194 11.2659 16.2856 11.1277 15.9375 11.1277H10.25V8.50266C10.25 8.03853 10.4344 7.59341 10.7626 7.26523C11.0908 6.93704 11.5359 6.75266 12 6.75266C12.4641 6.75266 12.9092 6.93704 13.2374 7.26523C13.5656 7.59341 13.75 8.03853 13.75 8.50266C13.75 8.73473 13.8422 8.95729 14.0063 9.12138C14.1704 9.28548 14.3929 9.37766 14.625 9.37766Z" fill="#00BD0F"/>
<rect x="13.75" y="8.5" width="1.75" height="3.5" fill="#00BD0F"/>
</svg>
