<svg width="28" height="10" viewBox="0 0 28 10" fill="none" xmlns="http://www.w3.org/2000/svg">
<path d="M27.8372 4.72685C27.4397 3.69178 26.4485 3.12248 25.379 3.32375L23.1839 3.72628C22.82 3.79528 22.5792 4.15181 22.6408 4.52559C22.708 4.89937 23.0551 5.14664 23.4191 5.08338L25.6142 4.68085C26.1349 4.58309 26.4597 4.90512 26.5885 5.23864C26.7173 5.57217 26.6949 6.0322 26.2469 6.32548L23.0215 8.47039C22.7248 8.67165 22.3552 8.68315 22.0472 8.51064C21.7336 8.33813 21.5488 8.0161 21.5488 7.64808V0.690052C21.5488 0.310523 21.2521 0 20.8769 0C20.5073 0 20.2049 0.310523 20.2049 0.690052V7.63657C20.2049 8.51639 20.6529 9.28695 21.4033 9.70673C21.7504 9.90224 22.1256 10 22.5008 10C22.932 10 23.3631 9.87349 23.7495 9.61472L26.9749 7.46981C27.8876 6.86602 28.2348 5.76193 27.8372 4.72685ZM16.498 3.318L14.3029 3.72053C13.9389 3.78953 13.6981 4.14606 13.7597 4.51984C13.8269 4.89362 14.1741 5.14089 14.5381 5.07763L16.7332 4.6751C17.2539 4.57734 17.5787 4.89937 17.7075 5.23289C17.8363 5.56642 17.8139 6.02645 17.3659 6.31973L14.1405 8.46464C13.8437 8.6659 13.4742 8.6774 13.1662 8.50489C12.8526 8.33237 12.6678 8.01035 12.6678 7.64232V2.36343C12.6678 1.48361 12.2198 0.713052 11.4695 0.293271C10.7191 -0.126511 9.83999 -0.092008 9.12324 0.385278L1.02056 5.77918C0.107816 6.38873 -0.233762 7.49281 0.163813 8.52789C0.561387 9.56297 1.55252 10.1323 2.62206 9.931L9.7 8.62565C10.064 8.55664 10.3048 8.20012 10.2432 7.82634C10.176 7.45256 9.82879 7.20529 9.46482 7.26855L2.38687 8.57389C1.8661 8.67165 1.54132 8.34963 1.41253 8.0161C1.28374 7.68258 1.30614 7.22254 1.75411 6.92927L9.85679 1.53536C10.1536 1.3341 10.5231 1.3226 10.8311 1.49511C11.1447 1.66763 11.3295 1.98965 11.3295 2.35768V7.63657C11.3295 8.51639 11.7775 9.28695 12.5278 9.70673C12.875 9.90224 13.2502 10 13.6253 10C14.0565 10 14.4877 9.87349 14.8685 9.61472L18.0939 7.46981C19.0066 6.86027 19.3482 5.75618 18.9506 4.7211C18.5586 3.68603 17.5675 3.12248 16.498 3.318Z" fill="#009C32"/>
</svg>
