<svg width="32" height="32" viewBox="0 0 32 32" fill="none" xmlns="http://www.w3.org/2000/svg">
<path d="M29.8372 15.7269C29.4397 14.6918 28.4485 14.1225 27.379 14.3237L25.1839 14.7263C24.82 14.7953 24.5792 15.1518 24.6408 15.5256C24.708 15.8994 25.0551 16.1466 25.4191 16.0834L27.6142 15.6809C28.1349 15.5831 28.4597 15.9051 28.5885 16.2386C28.7173 16.5722 28.6949 17.0322 28.2469 17.3255L25.0215 19.4704C24.7248 19.6717 24.3552 19.6832 24.0472 19.5106C23.7336 19.3381 23.5488 19.0161 23.5488 18.6481V11.6901C23.5488 11.3105 23.2521 11 22.8769 11C22.5073 11 22.2049 11.3105 22.2049 11.6901V18.6366C22.2049 19.5164 22.6529 20.2869 23.4033 20.7067C23.7504 20.9022 24.1256 21 24.5008 21C24.932 21 25.3631 20.8735 25.7495 20.6147L28.9749 18.4698C29.8876 17.866 30.2348 16.7619 29.8372 15.7269ZM18.498 14.318L16.3029 14.7205C15.9389 14.7895 15.6981 15.1461 15.7597 15.5198C15.8269 15.8936 16.1741 16.1409 16.5381 16.0776L18.7332 15.6751C19.2539 15.5773 19.5787 15.8994 19.7075 16.2329C19.8363 16.5664 19.8139 17.0265 19.3659 17.3197L16.1405 19.4646C15.8437 19.6659 15.4742 19.6774 15.1662 19.5049C14.8526 19.3324 14.6678 19.0104 14.6678 18.6423V13.3634C14.6678 12.4836 14.2198 11.7131 13.4695 11.2933C12.7191 10.8735 11.84 10.908 11.1232 11.3853L3.02056 16.7792C2.10782 17.3887 1.76624 18.4928 2.16381 19.5279C2.56139 20.563 3.55252 21.1323 4.62206 20.931L11.7 19.6256C12.064 19.5566 12.3048 19.2001 12.2432 18.8263C12.176 18.4526 11.8288 18.2053 11.4648 18.2685L4.38687 19.5739C3.8661 19.6717 3.54132 19.3496 3.41253 19.0161C3.28374 18.6826 3.30614 18.2225 3.75411 17.9293L11.8568 12.5354C12.1536 12.3341 12.5231 12.3226 12.8311 12.4951C13.1447 12.6676 13.3295 12.9896 13.3295 13.3577V18.6366C13.3295 19.5164 13.7775 20.2869 14.5278 20.7067C14.875 20.9022 15.2502 21 15.6253 21C16.0565 21 16.4877 20.8735 16.8685 20.6147L20.0939 18.4698C21.0066 17.8603 21.3482 16.7562 20.9506 15.7211C20.5586 14.686 19.5675 14.1225 18.498 14.318Z" fill="white"/>
</svg>
