<svg width="32" height="32" viewBox="0 0 32 32" fill="none" xmlns="http://www.w3.org/2000/svg">
<path d="M24.0479 4H7.99295C5.78851 4 4 5.78547 4 7.98616V24.0138C4 26.2145 5.78851 28 7.99295 28H24.0063C26.2108 28 27.9993 26.2145 27.9993 24.0138V7.98616C28.0409 5.78547 26.2524 4 24.0479 4ZM26.7931 23.5986C26.7515 23.6401 26.6683 23.6817 26.6267 23.6401C23.5488 21.7716 19.8886 20.692 16.0204 20.692C12.1523 20.692 8.49207 21.7716 5.41417 23.6401C5.37258 23.6817 5.28939 23.6401 5.2478 23.5986C5.2062 23.5156 5.2478 23.474 5.28939 23.4325C8.11773 21.2734 10.5301 18.5329 12.4018 15.2941C14.2735 12.0554 15.4381 8.56747 15.8957 5.07958C15.8957 5.03806 15.9373 4.95502 16.0204 4.95502C16.1036 4.95502 16.1452 4.99654 16.1452 5.07958C16.6027 8.56747 17.7674 12.0554 19.6391 15.2941C21.5107 18.5329 23.9647 21.2734 26.7515 23.391C26.8347 23.474 26.8347 23.5156 26.7931 23.5986Z" fill="#FE5000"/>
</svg>
