<svg xmlns="http://www.w3.org/2000/svg" fill="none" viewBox="0 0 204 60">
  <path fill="#373A36" d="M56.12 20.35c-.31-.81-.69-1-1.62-1h-2.43c-.87 0-1.25.19-1.56 1.06l-7.6 20.18c-.3.87-.12 1.24.88 1.24h2.18c1.55 0 1.99-.24 2.3-1.18l1-2.99h7.84l1 3c.31.93.75 1.17 2.37 1.17h2.36c.94 0 1.19-.43.88-1.24l-7.6-20.24zm-5.48 13.14l1.68-4.92c.75-2.24.75-3.86.75-3.86h.3s.07 1.62.82 3.92l1.62 4.92h-5.17v-.06zm27.09-14.2H62.66c-1 0-1.31.3-1.31 1.3v2.12c0 .94.31 1.25 1.3 1.25h4.99v16.5c0 1 .31 1.31 1.25 1.31h2.55c1 0 1.3-.3 1.3-1.3V24.01h4.93c1 0 1.3-.31 1.3-1.24v-2.12c0-1-.3-1.37-1.24-1.37zm13.52 8.28h-5.11V23.9h9.53c.93 0 1.3-.38 1.3-1.31v-2c0-1-.37-1.3-1.3-1.3H82.2c-.93 0-1.3.3-1.3 1.3v20c0 .93.37 1.24 1.24 1.24h9.03c4.36 0 7.23-2.74 7.23-7.1.06-4.42-2.8-7.16-7.16-7.16zm-.75 9.66h-4.42v-5.05h4.42c1.68 0 2.61 1 2.61 2.55.07 1.5-.93 2.5-2.61 2.5z"/>
  <path fill="#FE5000" d="M30.02 12H5.98A5.98 5.98 0 000 17.98v24.04C0 45.32 2.68 48 5.98 48h23.98c3.3 0 5.98-2.68 5.98-5.98V17.98A5.89 5.89 0 0030.02 12zm4.11 29.4c-.06.06-.19.12-.25.06A30.58 30.58 0 0018 37.04c-5.8 0-11.27 1.62-15.88 4.42-.06.06-.19 0-.25-.06-.06-.13 0-.19.06-.25a41.2 41.2 0 0010.65-12.2 41.51 41.51 0 005.23-15.33c0-.06.07-.19.19-.19s.19.06.19.19a41.51 41.51 0 0015.88 27.47c.12.12.12.18.06.3z"/>
</svg>
