<svg xmlns="http://www.w3.org/2000/svg" fill="none" viewBox="0 0 204 60">
  <path fill="#A92B3E" fill-rule="evenodd" d="M26.86 20.44L16.1 31.16l-5.4-5.37 5.4-5.36H5.3L0 25.78l16.2 16.1 13.82-13.86h8.29l7.63-7.6H26.86" clip-rule="evenodd"/>
  <path fill="#A92B3E" fill-rule="evenodd" d="M18.42 41.67l1.54-1.53 10.66-10.6h15.33l-7.64 7.59h-4.5l-4.56 4.54H18.42z" clip-rule="evenodd"/>
  <path fill="#A92B3E" fill-rule="evenodd" d="M135.78 19.07l.28-1.29h4.65l-1 1.29h-3.94zm-64.22 5.17a5.15 5.15 0 01-4.94 3.95c-2.38 0-3.67-1.7-3.17-3.95a5.16 5.16 0 014.93-3.96c2.42 0 3.68 1.7 3.18 3.96zm-13.62-.35l-1.38-3.45h-1.87l-1.7 7.6h1.67l1.12-5.02h.1l1.13 2.9h.88l2.42-2.9h.1l-1.12 5.02h1.68l1.69-7.6h-1.83l-2.9 3.45zm66.24 7.53l-.29 1.29h3.93l1-1.29h-4.64zm23.9 10.22l-1.45-7.6h-1.89l-4.83 7.6h1.86l.9-1.5h3.28l.25 1.5h1.89zm-94.74-7.6l-.64 2.9.85-.1 2.78-2.8h2.11l-3.63 3.55 2.21 4.05h-2.2l-1.6-3.24h-.85l-.72 3.24h-1.69l1.7-7.6h1.68zm10.05 0c1.82 0 2.8 1.1 2.43 2.75-.39 1.75-2 2.78-3.8 2.78h-1.55l-.46 2.07H58.3l1.7-7.6h3.39zm-1.03 4.02h-1.55l.55-2.5h1.62c.93 0 1.29.5 1.12 1.24-.17.76-.83 1.26-1.74 1.26zm11.41-4.01l-.34 1.53H69.4L69.1 37h3.59l-.33 1.48h-3.6l-.36 1.62h4.22l-.34 1.53h-5.9l1.69-7.6h5.71zm7.82 6.06l1.35-6.06h-5.77l-.27 1.23c-.39 1.74-.9 3.23-1.5 4.14-.32.49-.72.7-1.04.7h-.32l-.1.47-.5 2.64h1.55l.44-1.59h5.17l-.29 1.59h1.54l.74-2.65.1-.47h-1.1zm-3.07-4.55c-.49 2.14-1.12 3.69-1.74 4.55h3.1l1.01-4.55h-2.37zm7.92 3.54l1.13-5.05h-1.69l-1.7 7.6h1.68l4.58-4.78-1.06 4.77h1.7l1.69-7.6h-1.5l-4.83 5.06zm17.84-5.05l-.66 2.97h3.34l.67-2.97h1.72l-1.7 7.6h-1.72l.68-3.06h-3.34l-.68 3.05h-1.72l1.7-7.6h1.71zm8.26 2.33l.52-2.33h-1.7l-1.7 7.6h3.22c1.74 0 3.17-1.05 3.52-2.63.38-1.7-.62-2.64-2.42-2.64h-1.44zm-.83 3.74zm0 0l.5-2.23h1.37c.87 0 1.28.37 1.11 1.12-.16.73-.71 1.11-1.6 1.11h-1.38zm6.64 1.52l1.7-7.6h-1.72l-1.7 7.6h1.72zm5.4-7.6l-1.14 5.06 4.82-5.05h1.5l-1.69 7.6h-1.7l1.07-4.78-4.58 4.77h-1.67l1.7-7.6h1.68zm19.82 4.6h2.16l-.38-2.9h-.1l-1.68 2.9zm-49.36-4.6h7.17l-.98 1.55h-2.23l-1.35 6.05h-1.7l1.35-6.05h-2.6l.34-1.54zm42.94 2.72h-1.76l.27-1.18h3.44l.97-1.53h-5.77l-1.7 7.6h3.46c1.72 0 3.18-.9 3.53-2.47.37-1.64-.7-2.42-2.44-2.42zm-2.5 3.36h1.75c.84 0 1.35-.37 1.47-.94.14-.6-.24-.94-1-.94h-1.8l-.43 1.88zm18.23-6.07l-.66 2.97h3.34l.66-2.97h1.72l-1.69 7.6h-1.72l.68-3.06h-3.34l-.68 3.05h-1.72l1.7-7.6h1.71zm8.12 2.89l.64-2.9h-1.68l-1.7 7.6h1.69l.72-3.24h.84l1.6 3.24h2.2l-2.2-4.05 3.63-3.54h-2.1l-2.79 2.8-.85.09zM66.96 26.67c-1.46 0-2.12-1.06-1.81-2.43a3 3 0 012.9-2.44c1.46 0 2.11 1.03 1.8 2.44a3 3 0 01-2.9 2.43zm12.52-4.11a2.5 2.5 0 00-1.92-.73 3 3 0 00-2.97 2.4c-.32 1.45.44 2.41 1.88 2.41.85 0 1.7-.3 2.42-.86l.7 1.19a5.58 5.58 0 01-3.56 1.22c-2.38 0-3.68-1.54-3.14-3.93a5.17 5.17 0 015.09-3.98c1.18 0 2.1.38 2.72 1.04l-1.22 1.24zm4.26.77l.64-2.9h-1.69l-1.7 7.6h1.7l.72-3.24h.84l1.6 3.25h2.2l-2.2-4.05 3.62-3.55h-2.1l-2.78 2.8-.85.09zm13.86.9a5.15 5.15 0 01-4.94 3.96c-2.37 0-3.67-1.7-3.17-3.95a5.16 5.16 0 014.94-3.96c2.41 0 3.67 1.7 3.17 3.96zM93 26.68c-1.46 0-2.11-1.06-1.8-2.43a3 3 0 012.89-2.44c1.47 0 2.12 1.03 1.8 2.44A3 3 0 0193 26.67zm10.38-6.23c1.7 0 2.48.8 2.2 2.07a2.05 2.05 0 01-1.06 1.4l-.02.11c.69.24 1.03.92.84 1.75-.28 1.23-1.37 2.26-3.33 2.26h-3.7l1.7-7.6h3.37zm-.6 3h-1.74l.34-1.55h1.7c.64 0 .92.26.8.76-.1.48-.52.78-1.1.78zm-2.44 3.14h2.01c.75 0 1.2-.3 1.33-.9.13-.56-.21-.87-.94-.87h-2l-.4 1.77zm11.32-4.75c.84 0 1.48.26 1.91.73l1.23-1.24a3.56 3.56 0 00-2.72-1.04c-2.6 0-4.6 1.8-5.1 3.98-.53 2.4.77 3.93 3.15 3.93 1.29.02 2.55-.41 3.56-1.22l-.7-1.19c-.72.55-1.57.86-2.42.86-1.44 0-2.2-.96-1.88-2.4a3 3 0 012.97-2.4zm6.62-1.4l-.65 2.9.86-.09 2.78-2.8h2.1l-3.63 3.55 2.22 4.05h-2.2l-1.6-3.25h-.85l-.73 3.25h-1.68l1.69-7.6h1.69zm7.27 5.06l1.13-5.05h-1.69l-1.7 7.6h1.68l4.58-4.78-1.06 4.78h1.7l1.69-7.6h-1.5l-4.83 5.05zm10.05-5.05l-1.13 5.05 4.82-5.05h1.5l-1.69 7.6h-1.7l1.07-4.78-4.58 4.78h-1.67l1.7-7.6h1.68z" clip-rule="evenodd"/>
</svg>
