<svg width="32" height="32" viewBox="0 0 32 32" fill="none" xmlns="http://www.w3.org/2000/svg">
<path fill-rule="evenodd" clip-rule="evenodd" d="M13.2891 17.4662C17.4138 18.9267 21.9375 16.7538 23.3881 12.6067C24.8434 8.46053 22.6783 3.91689 18.5537 2.45518C14.4314 0.993463 9.91004 3.1685 8.45231 7.31466C6.99936 11.4618 9.16206 16.0043 13.2891 17.4662ZM23.8422 23.7306L23.8399 22.9328L23.8399 22.9241C23.8351 21.3954 20.284 20.1686 15.9131 20.1835C11.5405 20.1996 7.99925 21.4525 8.00317 22.9832L8.00318 22.9837L8.00556 23.7868C8.01034 25.3177 11.5591 26.5445 15.9323 26.5296C20.3079 26.5126 23.847 25.2593 23.8422 23.7306ZM15.9227 28.6316C11.5495 28.6316 8.00317 28.8538 8.00317 29.0781V29.5553C8.00317 29.7787 11.5495 29.9999 15.9227 29.9999C20.2959 29.9999 23.8422 29.7787 23.8422 29.5553V29.0781C23.8422 28.8538 20.2959 28.6316 15.9227 28.6316Z" fill="white"/>
</svg>
