<svg width="32" height="32" viewBox="0 0 32 32" fill="none" xmlns="http://www.w3.org/2000/svg">
<rect width="32" height="32" rx="16" fill="#F1F2F5"/>
<path opacity="0.4" fill-rule="evenodd" clip-rule="evenodd" d="M22.4845 11.5615L26.0495 12.5228L26.0497 12.5228L23.9003 20.5955L23.9002 20.5955L20.3351 19.6341L14.9873 18.1921L17.1367 10.1194L22.4845 11.5615Z" fill="#9397AD"/>
<path fill-rule="evenodd" clip-rule="evenodd" d="M16.1816 8.85721C16.1816 9.87867 15.8125 10.993 14.7975 10.993C14.1516 10.993 12.7675 9.87867 12.7675 8.85721C12.7675 7.83574 13.3212 7 14.3362 7C15.3512 7 16.1816 7.83574 16.1816 8.85721ZM12.3061 20.929L11.6062 19.6446L10.9222 20.8362L5.75488 21.0219V19.629L9.72261 19.0718C9.72261 19.0718 10.1401 18.3156 10.4985 17.5224C10.4236 17.2659 10.3793 16.9333 10.4607 16.5646C10.6119 16.184 10.8872 14.6806 11.134 13.3325C11.1883 13.0358 11.2412 12.7467 11.2911 12.4787C11.5604 11.3949 12.7026 10.7503 13.6989 11.2286C13.9767 11.3045 14.212 11.4625 14.3863 11.6706C14.608 11.83 14.828 12.0019 15.0743 12.2002L15.0702 12.2103C16.609 13.267 18.2098 13.9725 19.8724 14.4288V15.636C17.9129 15.4843 16.0765 14.899 14.4135 13.8294L14.4034 13.8543L14.4283 13.8717L13.5979 15.9146L13.5967 15.9052L13.3212 16.6575L13.2411 16.7971L14.1516 20.279L14.5207 24.6434H13.1366L12.3061 20.929Z" fill="#9397AD"/>
</svg>
