<svg width="32" height="32" viewBox="0 0 32 32" fill="none" xmlns="http://www.w3.org/2000/svg">
<rect width="32" height="32" rx="16" fill="#F1F2F5"/>
<path d="M16 8C12.4653 8 9.6 10.8653 9.6 14.4C9.6 16.1667 10.3158 17.7664 11.4736 18.9245C12.6317 20.0832 15.36 21.76 15.52 23.52C15.544 23.7839 15.735 24 16 24C16.265 24 16.456 23.7839 16.48 23.52C16.64 21.76 19.3683 20.0832 20.5264 18.9245C21.6842 17.7664 22.4 16.1667 22.4 14.4C22.4 10.8653 19.5347 8 16 8Z" fill="#9397AD"/>
<path d="M16 16.64C17.2371 16.64 18.24 15.6371 18.24 14.4C18.24 13.1629 17.2371 12.16 16 12.16C14.7629 12.16 13.76 13.1629 13.76 14.4C13.76 15.6371 14.7629 16.64 16 16.64Z" fill="#F7F8FA"/>
</svg>
