<svg width="32" height="32" viewBox="0 0 32 32" fill="none" xmlns="http://www.w3.org/2000/svg">
<rect width="32" height="32" rx="16" fill="#F1F2F5"/>
<path fill-rule="evenodd" clip-rule="evenodd" d="M24 16C24 20.4183 20.4183 24 16 24C11.5817 24 8 20.4183 8 16C8 11.5817 11.5817 8 16 8C20.4183 8 24 11.5817 24 16ZM20.3352 18.6593C20.5094 18.2533 20.3214 17.7829 19.9153 17.6088L16.8 16.2726V11.6C16.8 11.1582 16.4418 10.8 16 10.8C15.5582 10.8 15.2 11.1582 15.2 11.6V16.5363C15.2 17.0162 15.4859 17.45 15.927 17.6392L19.2847 19.0792C19.6907 19.2534 20.1611 19.0654 20.3352 18.6593Z" fill="#9397AD"/>
</svg>
