<svg width="32" height="32" viewBox="0 0 32 32" fill="none" xmlns="http://www.w3.org/2000/svg">
<path fill-rule="evenodd" clip-rule="evenodd" d="M16.0008 2C17.9806 2 18.6029 3.36561 19.1238 4.73282C19.344 5.31043 24.4867 18.8713 24.6404 19.2778C24.6836 19.3898 24.6553 19.5778 24.4742 19.6442C24.3751 19.6802 23.5437 19.991 22.7799 20.2765L22.7794 20.2767C22.135 20.5176 21.5389 20.7404 21.4717 20.765C21.3219 20.8159 21.1574 20.7414 21.1028 20.5978C21.0709 20.5163 20.6824 19.481 20.3385 18.5644L20.3375 18.5618C20.0909 17.9045 19.8674 17.3088 19.815 17.1705H12.1965L10.9004 20.5978C10.8489 20.7338 10.6886 20.825 10.5324 20.7658C10.4156 20.7205 8.89986 20.1546 8.06641 19.8433L8.0662 19.8433L7.53315 19.6442C7.38245 19.5868 7.30683 19.4242 7.36284 19.2778C7.46135 19.0131 8.87836 15.2771 10.2523 11.6545L10.2535 11.6513C11.5209 8.30969 12.7513 5.06559 12.8761 4.73282C13.3762 3.38721 14.0226 2 16.0008 2ZM6.95571 26.2632C6.87814 26.264 6.80411 26.2945 6.74988 26.3479C6.69566 26.4013 6.6657 26.4733 6.66658 26.548V29.716C6.66658 29.8736 6.79536 30 6.95571 30H25.0466C25.1239 29.999 25.1975 29.9683 25.2513 29.9149C25.3051 29.8615 25.3346 29.7896 25.3332 29.7152V26.5472C25.3343 26.4729 25.3048 26.4013 25.251 26.348C25.1973 26.2947 25.1237 26.2642 25.0466 26.2632H6.95571ZM13.4087 13.878L15.9859 6.42838H16.0183L18.6029 13.878H13.4087Z" fill="#EF3124"/>
</svg>
