<svg width="32" height="32" viewBox="0 0 32 32" fill="none" xmlns="http://www.w3.org/2000/svg">
<path d="M26.8196 23.478L26.2713 23.4421V17H20.8951V17.3574C20.8951 19.1101 20.8951 20.8623 20.8951 22.6139C20.8951 23.1126 20.7041 23.3338 20.2077 23.4238C20.0419 23.4535 19.8737 23.4706 19.6948 23.4951V25.181H21.8953V24.326H24.6384V25.2032C25.3417 25.2032 26.0131 25.2032 26.6851 25.1986C26.7307 25.1986 26.815 25.1291 26.8156 25.0915C26.8224 24.5557 26.8196 24.02 26.8196 23.478ZM24.3688 23.429H22.7981C23.1224 23.1685 23.1002 22.8134 23.1002 22.4669C23.1002 21.0667 23.1002 19.6668 23.1002 18.267V17.8965H24.3677L24.3688 23.429Z" fill="#004820"/>
<path d="M11.385 17.0039H7.93574C7.38403 19.4319 6.8329 21.8592 6.27435 24.3151C6.96854 24.3151 7.62284 24.3077 8.27599 24.3203C8.47034 24.3237 8.5336 24.2547 8.56438 24.0723C8.65329 23.5446 8.76272 23.0197 8.86702 22.4765C9.30018 22.4765 9.70769 22.4925 10.1135 22.4702C10.3745 22.456 10.4765 22.5426 10.5125 22.8008C10.5865 23.3035 10.6965 23.801 10.7906 24.2952H13.0578L11.385 17.0039ZM8.99127 21.4004C9.19588 20.2725 9.39707 19.1674 9.59769 18.0617H9.70427C9.90831 19.164 10.1118 20.2657 10.3221 21.401L8.99127 21.4004Z" fill="#004820"/>
<path d="M18.4279 17.059C16.9796 16.9957 15.528 17.0419 14.0467 17.0419V24.2921H16.2586V21.7109C16.3487 21.7069 16.4131 21.7029 16.4781 21.7006C17.0936 21.6807 17.7114 21.6892 18.3241 21.6356C19.1557 21.5621 19.4771 21.1797 19.4783 20.3555C19.4783 19.6648 19.4783 18.9729 19.4783 18.2815C19.48 17.4825 19.2258 17.0932 18.4279 17.059ZM17.5638 20.5544C17.5638 20.6513 17.4145 20.8183 17.3227 20.8263C16.9808 20.8594 16.628 20.8394 16.2649 20.8394V17.8865C16.6291 17.8865 16.9768 17.8803 17.3239 17.8865C17.4949 17.8911 17.5735 17.9943 17.5735 18.1675C17.5729 18.9649 17.5815 19.7599 17.5627 20.5544H17.5638Z" fill="#004820"/>
<path d="M4.50305 24.3078H2.31903V17.0068H6.77085V17.8754H4.50305V24.3078Z" fill="#004820"/>
<path d="M26.7228 9.92534H27.7281V7.02263H29.9999V14.3048H27.7407V11.006H26.7484V14.3031H24.4544V7.01807H26.7211L26.7228 9.92534Z" fill="#004820"/>
<path d="M15.3459 11.2791C15.3459 10.9046 15.1977 10.6978 14.833 10.5952C14.6352 10.5382 14.4255 10.5234 14.1821 10.4812C14.3029 10.4538 14.3913 10.4287 14.4808 10.4139C15.1077 10.3079 15.3266 10.0537 15.3294 9.41995C15.3294 8.99363 15.3294 8.56732 15.3294 8.141C15.3294 7.56137 15.151 7.32142 14.5885 7.15272C14.4463 7.10046 14.2974 7.0688 14.1462 7.05868C12.7567 7.05298 11.3643 7.05298 9.94061 7.05298V14.3021C9.98158 14.3109 10.0231 14.317 10.0649 14.3203C11.1557 14.3203 12.2477 14.35 13.3375 14.3089C13.8396 14.2901 14.3468 14.1687 14.833 14.0291C15.1886 13.9282 15.3619 13.6375 15.3522 13.2403C15.3362 12.5871 15.3488 11.9334 15.3459 11.2791ZM13.1317 13.1924C13.1317 13.2728 12.9978 13.4078 12.9134 13.4204C12.6644 13.4512 12.4085 13.4312 12.1412 13.4312V10.9884C12.4067 10.9884 12.6621 10.9685 12.9106 10.9998C12.9949 11.0107 13.1254 11.1503 13.1283 11.2352C13.1473 11.8872 13.1484 12.5396 13.1317 13.1924ZM13.1317 9.75337C13.1289 9.83031 12.9932 9.9557 12.9083 9.96595C12.6666 9.99559 12.4187 9.97621 12.1389 9.97621V7.90219C12.4238 7.90219 12.7048 7.89136 12.9841 7.91188C13.0411 7.9153 13.1323 8.0367 13.134 8.10509C13.1465 8.65452 13.1505 9.20451 13.1317 9.75337Z" fill="#004820"/>
<path d="M23.2306 14.0197C23.1086 13.476 22.9855 12.9324 22.8613 12.3891C22.4673 10.6663 22.0712 8.94455 21.673 7.22371C21.6536 7.13992 21.5521 7.01112 21.4889 7.01055C20.398 6.99573 19.3071 7.00086 18.1895 7.00086C17.6343 9.43907 17.0821 11.8665 16.5247 14.3138H18.7765L19.1236 12.478H20.6904C20.8118 13.0987 20.9315 13.7068 21.05 14.3127H23.2825C23.262 14.2032 23.2511 14.1109 23.2306 14.0197ZM19.241 11.4225C19.4485 10.2946 19.6525 9.18659 19.8565 8.07862L19.9637 8.06836C20.1672 9.17975 20.3701 10.2911 20.577 11.4225H19.241Z" fill="#004820"/>
<path d="M7.10669 7.01343H3.65967C3.10626 9.44651 2.55455 11.8745 2 14.3127H4.23817C4.2547 14.2557 4.27065 14.2084 4.2792 14.1622C4.36697 13.6789 4.45817 13.1933 4.53796 12.7111C4.56759 12.5345 4.63542 12.4484 4.83205 12.4575C5.14438 12.4723 5.45899 12.4575 5.77074 12.4609C6.19136 12.4609 6.1868 12.4609 6.25805 12.8781C6.34012 13.3586 6.42903 13.8385 6.51737 14.3138H8.76864C8.21238 11.8688 7.66125 9.44195 7.10669 7.01343ZM4.71293 11.402C4.92267 10.2689 5.12899 9.15527 5.33531 8.03932L5.44075 8.05015C5.64137 9.16154 5.84484 10.265 6.054 11.4014L4.71293 11.402Z" fill="#004820"/>
</svg>
