<svg width="32" height="32" viewBox="0 0 32 32" fill="none" xmlns="http://www.w3.org/2000/svg">
<path fill-rule="evenodd" clip-rule="evenodd" d="M8.14815 20V24.4444H7.01274V22.7777H5.14174V24.4444H4V20H5.14174V21.7845H7.01274V20H8.14815Z" fill="#E61C41"/>
<path fill-rule="evenodd" clip-rule="evenodd" d="M20.5926 24.4444H19.5008V22.216L18.5255 23.7385V23.745H17.9186V23.7385L16.937 22.2026L16.9433 24.4444H15.8519V20H16.6656L18.2222 22.3727L19.7787 20H20.5926V24.4444Z" fill="#E61C41"/>
<path fill-rule="evenodd" clip-rule="evenodd" d="M22.5528 20.9608V21.7714H24.4682V22.7127H22.5528V23.4837H24.7407V24.4444H21.4814V20H24.7407V20.9608H22.5528Z" fill="#E61C41"/>
<path fill-rule="evenodd" clip-rule="evenodd" d="M11.8523 20C10.1339 20 8.74078 21.2999 8.74078 22.9043C8.74078 23.47 8.91429 23.9981 9.21391 24.4444H10.7147C10.259 24.1066 9.96327 23.5724 9.96327 22.9695C9.96327 21.9473 10.8089 21.1187 11.8519 21.1187C12.8953 21.1187 13.7409 21.9473 13.7409 22.9695C13.7409 23.5724 13.4452 24.1066 12.9895 24.4444H14.4903C14.7901 23.9981 14.963 23.47 14.963 22.9043C14.963 21.2999 13.5707 20 11.8523 20Z" fill="#E61C41"/>
<path fill-rule="evenodd" clip-rule="evenodd" d="M10.8149 23.2593C10.9637 23.7767 11.3715 24.1482 11.852 24.1482C12.3325 24.1482 12.7406 23.7767 12.889 23.2593H10.8149Z" fill="#E61C41"/>
<path fill-rule="evenodd" clip-rule="evenodd" d="M10.1609 16.0895H10.9917C11.424 16.0895 11.763 15.8542 11.763 15.488C11.763 15.1286 11.424 14.8998 10.9917 14.8998H10.1609V16.0895ZM11.8759 18.3705L11.0187 17.0826H11.0116H10.1609V18.3705H9.03705V13.926H11.0116C12.1351 13.926 12.8859 14.5275 12.8859 15.488C12.8859 16.07 12.6003 16.54 12.1221 16.8147L13.1852 18.3705H11.8759Z" fill="#E61C41"/>
<path fill-rule="evenodd" clip-rule="evenodd" d="M14.8495 14.887V15.6973H16.7645V16.6386H14.8495V17.4095H17.0371V18.3705H13.7778V13.926H17.0371V14.887H14.8495Z" fill="#E61C41"/>
<path fill-rule="evenodd" clip-rule="evenodd" d="M20.6693 16.1354C20.6693 15.4488 20.1185 14.9198 19.3994 14.9198H18.725V17.3768H19.3994C20.1185 17.3768 20.6693 16.8411 20.6693 16.1354ZM21.7778 16.1354C21.7778 17.4553 20.7864 18.3705 19.3994 18.3705H17.6296V13.926H19.3994C20.7864 13.926 21.7778 14.8344 21.7778 16.1354Z" fill="#E61C41"/>
<path fill-rule="evenodd" clip-rule="evenodd" d="M22.6666 18.3705H23.8518V13.926H22.6666V18.3705Z" fill="#E61C41"/>
<path fill-rule="evenodd" clip-rule="evenodd" d="M28 14.913H26.7574V18.3705H25.6868V14.913H24.4445V13.926H28V14.913Z" fill="#E61C41"/>
<path fill-rule="evenodd" clip-rule="evenodd" d="M7.29885 16.7481C7.13188 17.1426 6.78362 17.376 6.29742 17.376C5.5872 17.376 5.09416 16.8601 5.09416 16.1486C5.09416 15.4368 5.5872 14.9209 6.29742 14.9209C6.78362 14.9209 7.13188 15.1547 7.29885 15.5488H8.44445C8.21959 14.5711 7.40213 13.926 6.30427 13.926C4.99167 13.926 4 14.8579 4 16.1486C4 17.439 4.99167 18.3705 6.30427 18.3705C7.40255 18.3705 8.21959 17.7259 8.44445 16.7481H7.29885Z" fill="#E61C41"/>
<path fill-rule="evenodd" clip-rule="evenodd" d="M8.14815 8V12.4444H7.01274V10.7777H5.14174V12.4444H4V8H5.14174V9.78451H7.01274V8H8.14815Z" fill="#E61C41"/>
<path fill-rule="evenodd" clip-rule="evenodd" d="M20.5926 12.4444H19.5008V10.216L18.5255 11.7385V11.745H17.9186V11.7385L16.937 10.2026L16.9433 12.4444H15.8519V8H16.6656L18.2222 10.3727L19.7787 8H20.5926V12.4444Z" fill="#E61C41"/>
<path fill-rule="evenodd" clip-rule="evenodd" d="M22.5528 8.96078V9.77138H24.4682V10.7127H22.5528V11.4837H24.7407V12.4444H21.4814V8H24.7407V8.96078H22.5528Z" fill="#E61C41"/>
<path fill-rule="evenodd" clip-rule="evenodd" d="M11.8523 8C10.1339 8 8.74078 9.2999 8.74078 10.9043C8.74078 11.47 8.91429 11.9981 9.21391 12.4444H10.7147C10.259 12.1066 9.96327 11.5724 9.96327 10.9695C9.96327 9.94731 10.8089 9.11872 11.8519 9.11872C12.8953 9.11872 13.7409 9.94731 13.7409 10.9695C13.7409 11.5724 13.4452 12.1066 12.9895 12.4444H14.4903C14.7901 11.9981 14.963 11.47 14.963 10.9043C14.963 9.2999 13.5707 8 11.8523 8Z" fill="#E61C41"/>
<path fill-rule="evenodd" clip-rule="evenodd" d="M10.8149 10.5186C10.9637 11.036 11.3715 11.4074 11.852 11.4074C12.3325 11.4074 12.7406 11.036 12.889 10.5186H10.8149Z" fill="#E61C41"/>
</svg>
