<svg width="32" height="32" viewBox="0 0 32 32" fill="none" xmlns="http://www.w3.org/2000/svg">
<path fill-rule="evenodd" clip-rule="evenodd" d="M28.1124 25.9101H5.14612C5.65314 25.4664 5.91758 25.2271 6.21206 24.9605C7.37943 23.9038 9.01897 22.4198 28.1124 6.08984V25.9101ZM21.5056 18.9889V17.7305H26.2247V24.3372H24.9663V18.9889H23.0787C24.0225 21.1911 24.6517 24.3372 21.5056 24.3372V23.0788C23.7079 23.0788 22.1348 19.9327 21.5056 18.9889ZM21.191 17.7305V18.9889H18.0449V23.0788H19.618C20.0201 22.6767 19.6513 21.8891 19.3326 21.2087C19.1527 20.8245 18.9888 20.4744 18.9888 20.2473H20.2472C20.5618 20.2473 21.191 22.135 21.191 22.7642C21.191 23.3934 21.191 24.3372 20.5618 24.3372H16.7865V17.7305H21.191Z" fill="#00858A"/>
<path d="M27.7977 14.2696L29.6853 11.1235L20.5618 13.0112C23.0786 13.0112 25.2809 13.3258 27.7977 14.2696ZM13.6404 14.8988C16.1573 13.6404 18.9887 13.3258 20.5618 13.0112C20.2471 13.0112 13.955 14.8988 13.6404 14.8988ZM13.6404 14.8988C11.4382 15.8426 9.23591 17.7303 9.55052 19.6179C9.86512 21.191 11.7528 22.1348 14.8988 22.764C15.2134 22.764 14.8988 23.0786 14.8988 23.0786C12.382 22.764 3.57299 22.4494 2.31456 20.2471C1.99996 18.3595 8.29209 16.4718 13.6404 14.8988Z" fill="#D7B56D"/>
</svg>
