<svg width="32" height="32" viewBox="0 0 32 32" fill="none" xmlns="http://www.w3.org/2000/svg">
<path d="M4 4.00305C4.95987 4.00305 5.91973 4.00305 6.8796 4.00305C6.8796 11.0276 6.8796 18.0522 6.8796 25.0767C8.75927 25.0801 10.6389 25.0784 12.5186 25.0784C14.435 19.3325 16.3497 13.5884 18.2628 7.84419C20.2276 7.84085 22.1924 7.84252 24.1572 7.84252C24.1589 13.2812 24.1572 18.7199 24.1589 24.1602C21.745 24.1602 19.3312 24.1619 16.919 24.1586C17.2361 23.1987 17.5567 22.2388 17.8772 21.279C18.9973 21.2823 20.1157 21.2806 21.2359 21.2806C21.2359 17.7751 21.2359 14.2695 21.2359 10.7639C20.9588 10.7639 20.6816 10.7655 20.4062 10.7655C18.4931 16.5114 16.5751 22.2539 14.6637 27.9997C11.1097 27.9997 7.55401 27.9997 4 27.9997V4.00305Z" fill="#93130A"/>
<path d="M7.80304 4C8.77459 4.00501 9.74615 4.00334 10.7177 4.00334C10.721 8.75593 10.7177 13.5102 10.7194 18.2645C12.3203 13.5185 13.8961 8.76428 15.4753 4.01169C19.6486 3.99165 23.8236 4.00835 27.997 4.00334C27.997 12.0011 27.997 20.0006 27.997 28C23.8771 28 19.7571 28 15.6372 28C15.9611 27.0268 16.2866 26.0536 16.6104 25.0803C19.4316 25.0753 22.2528 25.0803 25.0756 25.0787C25.0756 19.0273 25.0756 12.976 25.0756 6.92467C22.5983 6.923 20.1211 6.92801 17.6438 6.923C15.7274 12.6705 13.7893 18.4114 11.8796 24.1605C10.519 24.1589 9.15854 24.1605 7.79803 24.1605C7.80137 17.4398 7.79303 10.7207 7.80304 4Z" fill="#93130A"/>
</svg>
