<svg width="32" height="32" viewBox="0 0 32 32" fill="none" xmlns="http://www.w3.org/2000/svg">
<path d="M24.8642 15.3237C24.473 13.443 23.4311 11.7548 21.9167 10.5476C20.4023 9.34041 18.5095 8.68931 16.562 8.70562C14.8705 8.69845 13.2151 9.18795 11.8069 10.1117L23.7326 15.5346C24.8096 16.0033 24.8619 15.3635 24.8642 15.3237ZM8.13128 17.332C8.38805 21.6136 12.0613 24.9999 16.562 24.9999C17.7867 25.0043 18.998 24.7482 20.1132 24.2491C21.2284 23.7501 22.2212 23.0198 23.0241 22.1081C22.9296 22.1614 22.8236 22.1918 22.7149 22.1967C22.6061 22.2016 22.4978 22.1808 22.3988 22.1362C22.3988 22.1362 10.9962 17.9038 8.65671 17.0485C8.59508 17.0225 8.52879 17.0089 8.46176 17.0086C8.37694 17.006 8.29444 17.0362 8.23183 17.0927C8.16922 17.1491 8.13144 17.2274 8.12653 17.3109V17.3227L8.13128 17.332Z" fill="#005AA8"/>
<path fill-rule="evenodd" clip-rule="evenodd" d="M23.0169 20.8428C22.9551 20.8241 7.3253 14.4029 7.18503 14.342C6.62869 14.124 6.26493 14.6349 6.62394 15.1083L7.89829 16.73C7.7746 16.5289 7.67941 16.3121 7.61536 16.0855C7.59396 15.884 7.72235 15.6731 8.1289 15.8348C8.53546 15.9965 22.4844 21.5553 22.5224 21.574C22.9551 21.7216 23.3498 21.7076 23.5281 21.4639C23.8031 21.0824 24.0418 20.6769 24.2413 20.2523C24.1034 20.4866 23.6541 21.0842 23.0122 20.8428H23.0169ZM24.9594 15.9402C24.9403 16.1418 24.7977 17.0393 23.7849 16.5683C23.6089 16.4839 3.20269 7.1826 2.91976 7.05136C2.53223 6.86857 1.68345 7.17088 2.12329 8.00282C2.12329 8.02626 3.75665 10.5807 3.74001 10.5385C3.57553 10.1752 3.45042 9.79577 3.36674 9.40658C3.31443 9.19566 3.50463 8.99881 3.80182 9.13005C3.83749 9.13005 23.685 17.7213 23.83 17.7822C24.2556 17.9814 24.9594 17.8853 24.9998 17.3534V16.8542C25.0022 16.5488 24.9855 16.2436 24.9498 15.9402H24.9594ZM23.5804 18.9985C23.5376 18.9821 5.29253 10.897 5.09044 10.8103C4.58878 10.576 3.86602 11.0751 4.26068 11.6727L5.76327 13.7959C5.76327 13.7959 5.34008 13.1163 5.38525 12.7953C5.39133 12.7173 5.42853 12.6449 5.4887 12.5939C5.54888 12.543 5.6271 12.5176 5.70621 12.5234C5.73988 12.5253 5.77291 12.5333 5.80369 12.5469C5.96299 12.6031 23.1334 19.8609 23.2238 19.9031C23.8443 20.1679 24.3602 19.9804 24.5599 19.5352C24.69 19.1515 24.7956 18.7601 24.8761 18.3634C24.7953 18.5603 24.4315 19.3219 23.5875 18.9985H23.5804Z" fill="#F13627"/>
</svg>
