<svg width="32" height="32" viewBox="0 0 32 32" fill="none" xmlns="http://www.w3.org/2000/svg">
<path fill-rule="evenodd" clip-rule="evenodd" d="M4 16.0212C4 9.37117 9.37117 4 15.9786 4V8.34809C11.7584 8.34809 8.30546 11.801 8.30546 16.0212C8.30546 20.2414 11.7584 23.6943 15.9786 23.6943C20.1988 23.6943 23.6517 20.284 23.6517 15.9786H27.9998C27.9998 22.6286 22.6286 27.9998 15.9786 27.9998C9.37117 28.0424 4 22.6286 4 16.0212Z" fill="#006C3F"/>
<path d="M10.6927 16.0219C10.6927 13.0805 13.0799 10.6934 16.0213 10.6934C18.9626 10.6934 21.3498 13.0805 21.3498 16.0219C21.3498 18.9633 18.9626 21.3504 16.0213 21.3504C13.0799 21.3504 10.6927 18.9633 10.6927 16.0219Z" fill="#50B848"/>
<path d="M19.7299 9.24343C19.7299 7.5383 21.094 6.17419 22.7991 6.17419C24.5042 6.17419 25.8683 7.5383 25.8683 9.24343C25.8683 10.9486 24.5042 12.3127 22.7991 12.3127C21.094 12.3127 19.7299 10.9486 19.7299 9.24343Z" fill="#006C3F"/>
</svg>
