<svg width="32" height="32" viewBox="0 0 32 32" fill="none" xmlns="http://www.w3.org/2000/svg">
<path fill-rule="evenodd" clip-rule="evenodd" d="M28.0001 9.84308C28.0001 8.2934 27.3849 6.80719 26.2899 5.7114C25.1949 4.61561 23.7098 4 22.1612 4H13.9111C11.2912 4.00231 8.99349 5.75035 8.29053 8.27597H18.2622C22.0975 8.27597 23.7263 10.0616 23.7263 14.2525V23.7228C26.2013 23.0335 28.0001 20.7539 28.0001 18.1002V9.84308Z" fill="#2A4594"/>
<path fill-rule="evenodd" clip-rule="evenodd" d="M20.7086 13.228V13.2028C21.1713 13.0568 21.7877 12.6711 21.7877 11.6579C21.7877 10.5172 20.8622 9.99512 19.559 9.99512H17.3486V12.7223H16.0464C14.2978 12.7223 13.9375 13.9501 13.9375 14.6182C13.9375 15.5694 14.4862 15.9909 15.4986 16.4956C15.6032 16.5479 15.7111 16.5968 15.8184 16.6454L15.8184 16.6454C16.3435 16.8831 16.8511 17.1129 16.8511 17.6973C16.8511 18.0675 16.5091 18.5142 15.772 18.5142H14.4002C14.6069 18.1604 14.6919 17.7746 14.6919 17.4401C14.6919 17.0031 14.5374 15.2523 12.1029 15.2523H10.1147V22.0022H11.4682V19.0614L12.0169 19.6105H15.7208C17.4501 19.6105 18.2741 18.7191 18.2741 17.6557C18.2741 17.2787 18.2055 16.9751 18.0857 16.7286H19.474C21.6167 16.7286 22.1152 15.6652 22.1152 14.8318C22.1152 13.984 21.5655 13.3565 20.7086 13.228ZM12.1027 18.5145H11.468V16.3074H12.1027C12.892 16.3074 13.2513 16.7869 13.2513 17.3708C13.2513 17.9122 12.9258 18.5145 12.1027 18.5145ZM17.3485 15.964V14.3273H17.3475L17.8788 13.7869H16.3553C15.5323 13.7869 15.3603 14.1958 15.3603 14.4713C15.3603 15.0127 15.823 15.2525 16.252 15.442L16.3922 15.5026C16.7351 15.6506 17.0609 15.7912 17.3485 15.964ZM18.7021 11.0503H19.3204C20.3656 11.0503 20.4178 11.6932 20.4178 11.8904C20.4178 12.1814 20.2632 12.7228 19.3706 12.7228H18.7021V11.0503ZM18.7021 15.6653H19.474C20.3309 15.6653 20.6748 15.2022 20.6748 14.7217C20.6748 14.2413 20.4178 13.7869 19.474 13.7869H18.7021V15.6653Z" fill="#2A4594"/>
<path fill-rule="evenodd" clip-rule="evenodd" d="M4 22.1568C3.99974 23.7068 4.61496 25.1933 5.71023 26.2891C6.80549 27.385 8.29103 28.0004 9.83984 27.9999H18.09C20.7105 27.9985 23.0088 26.2496 23.7105 23.723H13.7389C9.90263 23.723 8.27386 21.9383 8.27386 17.7465V8.27612C5.80074 8.96639 4 11.247 4 13.9007V22.1568Z" fill="#E15D29"/>
</svg>
