<svg width="32" height="32" viewBox="0 0 32 32" fill="none" xmlns="http://www.w3.org/2000/svg">
<path fill-rule="evenodd" clip-rule="evenodd" d="M23.5814 24.1147L26.4279 28H21.6403L20.338 26.2171C18.8744 26.8465 17.2589 27.1845 15.5876 27.1845C9.39535 27.1845 4 22.5705 4 15.5938C4 8.61395 9.39535 4 15.5876 4C21.7767 4 27.169 8.61395 27.169 15.5938C27.169 19.1442 25.7705 22.0837 23.5814 24.1147ZM15.6 23.4047C16.4527 23.4047 17.2589 23.2713 18.0062 23.0202L16.1922 20.4651L19.3209 18.2264L21.2093 20.8775C22.4124 19.4884 23.1256 17.6372 23.1256 15.5938C23.1256 11.2589 19.9194 7.77984 15.6 7.77984C11.2806 7.77984 8.07442 11.2589 8.07442 15.5938C8.07442 19.9256 11.2806 23.4047 15.6 23.4047Z" fill="#007BA5"/>
</svg>
