<svg width="32" height="32" viewBox="0 0 32 32" fill="none" xmlns="http://www.w3.org/2000/svg">
<path d="M24.6927 21.8062C24.6608 21.5315 24.5003 20.9016 24.0831 20.7399C23.8743 20.659 23.6983 20.7233 23.6186 20.869C23.49 21.0955 23.5862 21.5315 23.8269 21.9198C24.0672 22.3075 24.292 22.5014 24.4525 22.5014C24.613 22.5014 24.757 22.3075 24.6927 21.8062Z" fill="#FF8C00"/>
<path d="M22.4478 22.9052C22.1911 22.6792 21.9025 22.5662 21.6458 22.5662C21.4215 22.5662 21.245 22.6466 21.1324 22.7922C20.8443 23.1473 20.9724 23.7943 21.4215 24.182C21.6139 24.3598 21.9025 24.4568 22.1751 24.4568C22.4478 24.4568 22.688 24.3438 22.8326 24.166C23.0892 23.8103 22.9447 23.3256 22.4478 22.9052Z" fill="#FF8C00"/>
<path d="M5 16.1179C5 22.2588 9.939 27.2364 16.0334 27.2364C17.6533 27.2364 19.2563 26.9295 21.6139 26.9129C23.7148 26.9129 26.024 27.6563 28.5576 29.9191C28.8143 30.1451 29.1507 29.8543 28.9264 29.5795C26.4407 26.3961 24.1315 25.7984 21.8222 25.281C19.0001 24.6507 17.5566 23.067 16.5463 21.3055C16.3539 20.9499 16.2577 21.0147 16.2412 21.4672C16.2231 22.1331 16.2715 22.7991 16.3858 23.4552H16.0493C12.024 23.4552 8.75223 20.1583 8.75223 16.1019C8.75223 12.0455 12.024 8.74851 16.0488 8.74851C20.0742 8.74851 23.3459 12.0455 23.3459 16.1019C23.3459 16.3927 23.3295 16.6835 23.2976 16.9583C22.7523 16.8613 21.7101 16.8452 20.9724 16.91C20.6997 16.9422 20.7316 17.0713 20.9405 17.1039C23.3459 17.556 24.9978 19.0593 25.3825 21.7902C25.3985 21.855 25.4787 21.871 25.5111 21.8228C26.4891 20.1583 27.0663 18.2024 27.0663 16.1179C27.0663 9.97758 22.1268 5 16.0329 5C9.9395 5 5 9.97708 5 16.1179Z" fill="#FF8C00"/>
</svg>
