<svg width="32" height="32" viewBox="0 0 32 32" fill="none" xmlns="http://www.w3.org/2000/svg">
<path fill-rule="evenodd" clip-rule="evenodd" d="M4 7C4 5.34315 5.34315 4 7 4H25C26.6569 4 28 5.34315 28 7V25C28 26.6569 26.6569 28 25 28H7C5.34315 28 4 26.6569 4 25V7Z" fill="#FEE600"/>
<path fill-rule="evenodd" clip-rule="evenodd" d="M7.35867 22.2923L9.87968 24.8763L15.7852 18.8509L21.8886 25L24.4461 22.4533L18.4042 16.3789L19.5655 15.2479V12.8378L20.2944 12.2169V14.1047L21.234 14.875L24.0381 12.0552L24.9394 12.7508C25.4716 10.7755 22.3946 6.29071 19.8498 8.77495L16.8843 11.7319L17.4896 12.4649L15.9825 13.9431L14.5247 12.5016L15.2907 11.806L12.0414 8.65065C9.5953 6.62504 7.08708 9.70692 7 12.7129L7.88905 11.9677L10.6201 14.9252L11.5957 14.1047V12.291L12.201 12.7502V15.1236L13.3872 16.3165L7.35867 22.2923Z" fill="#2B2D33"/>
</svg>
