<svg width="32" height="32" viewBox="0 0 32 32" fill="none" xmlns="http://www.w3.org/2000/svg">
<path d="M30 16.6234V16.6918C29.9007 16.7849 29.8951 16.9156 29.8602 17.034C29.1367 19.3312 28.4142 21.6288 27.6926 23.9269C27.5465 24.0262 27.3793 23.9954 27.2185 23.9954C18.8126 23.9954 10.4064 23.9954 2 23.9954V23.9269C2.33982 22.0791 3.04253 20.3244 3.57043 18.5252C3.72146 18.0127 3.88927 17.5042 4.0466 16.9923C4.17735 16.568 4.29132 16.4893 4.74581 16.4763C4.85069 16.4763 4.95557 16.4763 5.05976 16.4763C13.124 16.4763 21.1859 16.4774 29.2455 16.4797C29.4987 16.4763 29.7846 16.3934 30 16.6234Z" fill="#00B0CA"/>
<path d="M29.8008 11.1897C29.5617 10.1351 28.6758 9.55405 27.5955 9.74293C27.2212 9.80992 26.8772 9.98875 26.611 10.2548C26.6627 9.84422 26.8438 9.58347 27.1305 9.39185C27.4172 9.20023 27.7556 9.15711 28.0905 9.11468C28.459 9.06815 28.8338 9.04625 29.1694 8.86489C29.2806 8.80535 29.4078 8.75471 29.4022 8.59867C29.3855 8.06555 29.4421 7.53175 29.3722 7H29.3022C29.2246 7.12319 29.0862 7.11839 28.968 7.14098C28.3751 7.25664 27.7724 7.33055 27.1892 7.47905C25.8146 7.82876 24.8888 8.6281 24.6427 10.055C24.5628 10.5151 24.5394 10.9828 24.5728 11.4484C24.6742 12.8712 25.386 13.7246 26.6543 13.9381C27.0227 13.995 27.3973 14.0016 27.7675 13.9579C29.2974 13.7998 30.1343 12.6604 29.8008 11.1897ZM27.2403 12.425C26.8466 12.4373 26.5935 12.1711 26.5935 11.7406C26.5935 11.3101 26.8221 11.0672 27.2046 11.0617C27.5871 11.0562 27.8255 11.3053 27.8339 11.7228C27.8423 12.1403 27.6164 12.4133 27.2403 12.425Z" fill="#303F49"/>
<path d="M11.9099 10.1331C11.5974 9.48839 11.0499 9.13594 10.3234 9.05656C9.60953 8.97922 8.99981 9.19001 8.43904 9.80593C8.50896 9.11267 8.08944 9.17837 7.69368 9.19001C7.43752 9.20443 7.18071 9.20443 6.92455 9.19001C6.698 9.17153 6.64486 9.25844 6.65815 9.46375C6.67423 9.70191 6.66234 9.94281 6.66234 10.1803C6.66234 11.9199 6.66234 13.6596 6.66234 15.3985C6.66234 15.5936 6.67073 15.7092 6.93224 15.6976C7.52377 15.6723 8.1209 15.6826 8.71034 15.6785C8.77327 15.0824 8.71803 14.4849 8.7439 13.8888C8.7439 13.7999 8.64671 13.65 8.84389 13.6233C9.90599 14.3652 11.3729 14.0209 11.926 12.8705C12.3602 11.9651 12.3469 11.0378 11.9099 10.1331ZM9.34033 12.3586C8.89703 12.347 8.7439 12.1348 8.7439 11.5305C8.7439 10.8961 8.918 10.6641 9.38438 10.6785C9.80391 10.6915 10.0934 11.0494 10.0836 11.5387C10.0738 12.0281 9.75986 12.3696 9.34033 12.3586Z" fill="#303F49"/>
<path d="M12.956 11.4998C12.956 10.8154 12.9644 10.1358 12.9511 9.4542C12.9469 9.2441 13.0064 9.18045 13.2238 9.18798C13.7461 9.20372 14.2726 9.20098 14.7929 9.18798C14.9886 9.18387 15.0593 9.23588 15.0509 9.43435C15.0362 9.79775 15.0509 10.1618 15.0439 10.5252C15.0397 10.6888 15.0963 10.7305 15.2634 10.7394C16.0067 10.7689 16.0039 10.775 16.0074 10.0462C16.0074 9.77242 15.9179 9.41519 16.0591 9.25573C16.2262 9.06753 16.6052 9.20714 16.8926 9.19482C17.18 9.1825 17.475 9.20851 17.7638 9.18798C18.0127 9.17018 18.1029 9.22493 18.1001 9.49594C18.0841 10.8482 18.0883 12.2005 18.1001 13.5522C18.1001 13.7684 18.0554 13.8505 17.8156 13.8417C17.3051 13.8232 16.7926 13.8266 16.2815 13.8417C16.0717 13.8471 15.992 13.7992 16.0018 13.5802C16.0207 13.2291 16.0018 12.876 16.0095 12.5243C16.0137 12.3668 15.9682 12.3107 15.7962 12.3011C15.0467 12.2601 15.0495 12.2539 15.046 12.978C15.046 13.2517 15.1355 13.6028 14.9963 13.7684C14.8313 13.9648 14.453 13.8211 14.1685 13.8334C13.8552 13.8478 13.5392 13.8239 13.2266 13.841C13.0169 13.8526 12.9469 13.7944 12.9511 13.5789C12.9651 12.8856 12.956 12.193 12.956 11.4998Z" fill="#303F49"/>
<path d="M24.0897 9.18989C23.8401 9.83867 23.6163 10.4347 23.3786 11.0254C23.3468 11.0967 23.33 11.1736 23.3293 11.2515C23.3285 11.3293 23.3439 11.4065 23.3744 11.4784C23.6743 12.2442 23.954 13.0134 24.2617 13.8367C23.582 13.8367 22.9395 13.8367 22.2962 13.8367C22.1564 13.8367 22.134 13.732 22.0955 13.6383C21.9389 13.2591 21.7641 12.8855 21.6312 12.4988C21.5424 12.2408 21.3516 12.3044 21.1789 12.3085C20.9579 12.314 21.0565 12.4913 21.0523 12.5932C21.0404 12.9224 21.039 13.253 21.0523 13.5821C21.0586 13.7662 21.0138 13.8456 20.8041 13.8401C20.2692 13.8271 19.7336 13.8306 19.1959 13.8401C19.0253 13.8401 18.9491 13.8121 18.9505 13.6198C18.9584 12.2209 18.9584 10.8223 18.9505 9.42394C18.9505 9.25012 18.9938 9.18442 19.1833 9.18921C19.7184 9.20061 20.2545 9.20061 20.7915 9.18921C20.9873 9.1851 21.06 9.23643 21.0523 9.43489C21.0376 9.78666 21.0439 10.1398 21.0523 10.4922C21.0523 10.5798 20.9901 10.7147 21.1551 10.7352C21.2949 10.753 21.4229 10.7468 21.4886 10.5737C21.6382 10.1802 21.8081 9.7935 21.9669 9.40273C22.0151 9.28297 22.0585 9.18647 22.2298 9.18921C22.8353 9.19879 23.4359 9.18989 24.0897 9.18989Z" fill="#303F49"/>
</svg>
