<svg width="32" height="32" viewBox="0 0 32 32" fill="none" xmlns="http://www.w3.org/2000/svg">
<path fill-rule="evenodd" clip-rule="evenodd" d="M11.167 6.47504L11.5229 6.82203V2.28571H11.9245V8.9245L9.25199 6.28181V2.28571H9.6536V4.98431L10.0087 5.33376V2.28571H10.4119V5.72762L10.7638 6.07872V2.28571H11.167V6.47504ZM14.9586 8.49518L12.2861 11.1387V9.43336L14.9586 6.80218V8.49518ZM14.9586 15.1915L12.2861 17.835V16.0261L14.9586 13.3974V15.1915ZM12.2861 13.3553L14.9586 10.7101V9.01792L12.2861 11.6475V13.3553ZM12.2861 15.5706L14.9586 12.9263V11.2341L12.2861 13.8637V15.5706ZM11.9244 17.835L9.25183 15.1915V13.3974L11.9244 16.0261V17.835ZM14.5578 4.98433L14.2044 5.33296V2.28573H13.7995V5.72929L13.4452 6.07874V2.28573H13.0444V6.47342L12.6893 6.82287V2.28573H12.2861V8.92453L14.9586 6.28101V2.28573H14.5578V4.98433ZM11.9244 11.1403L9.25183 8.49518V6.80218L11.9244 9.43336V11.1403ZM9.25183 10.7105L11.9244 13.3548V11.6487L9.25183 9.01747V10.7105ZM11.9244 15.5717L9.25183 12.9266V11.2328L11.9244 13.8639V15.5717ZM18.2091 15.9665C18.2111 16.2791 18.0149 16.5581 17.7215 16.66C17.4281 16.7618 17.1028 16.6637 16.9133 16.4162C16.7237 16.1687 16.712 15.8269 16.8843 15.5669L17.0859 15.2248C16.9562 15.1107 16.8818 14.9457 16.8818 14.7722C16.8818 14.5987 16.9562 14.4337 17.0859 14.3195L16.8843 13.9758C16.806 13.8581 16.7645 13.7195 16.7651 13.5779C16.7651 13.1783 17.09 12.8502 17.4859 12.8502C17.8859 12.8502 18.2099 13.1783 18.2099 13.5779C18.2099 13.8739 17.8695 14.581 17.8695 14.581V14.9633C17.8695 14.9633 18.2099 15.6688 18.2099 15.9665H18.2091ZM18.6737 14.3218H25.1706V14.3226C25.3577 14.3257 25.5077 14.4794 25.5077 14.6679V14.8751C25.5086 15.064 25.3581 15.2182 25.1706 15.2205H24.2139V15.5165H24.6906V15.9325H24.2139V16.3626H24.6906V17.1544H24.2139V16.7959H23.507V17.1544H23.0286V16.3626H23.507V15.9325H23.0286V15.5165H23.507V15.2213H18.6737C18.81 15.4375 18.89 15.6916 18.89 15.9663C18.8891 16.5751 18.5003 17.1146 17.926 17.3041C17.3516 17.4937 16.7213 17.2906 16.3628 16.8004C16.0044 16.3102 15.9987 15.6436 16.3488 15.1473C16.2222 15.0645 16.1458 14.9228 16.1458 14.7707C16.1458 14.6186 16.2222 14.4769 16.3488 14.3941C16.0455 13.9645 16.0054 13.4003 16.2449 12.9316C16.4843 12.4628 16.9634 12.1678 17.4868 12.1667C18.2614 12.1667 18.89 12.799 18.89 13.5776C18.8899 13.8414 18.8148 14.0996 18.6737 14.3218Z" fill="#FFCB04"/>
<path fill-rule="evenodd" clip-rule="evenodd" d="M6.82196 15.2219V13.464L6.82278 13.4648C6.82278 13.4648 7.10766 14.4367 8.17538 15.5163C8.49307 15.834 8.85337 16.1864 9.29299 16.6163C9.63732 16.953 10.0303 17.3373 10.4896 17.7898C10.5268 17.8263 10.5669 17.8643 10.6092 17.9044C11.0778 18.3489 11.812 19.0452 11.812 20.6381V22.5868C11.6398 22.1535 11.5034 21.8994 10.7304 21.1396C10.6969 21.1035 8.21212 18.6425 7.96723 18.4007C7.5501 17.9806 6.82196 16.9026 6.82196 15.2219ZM9.47099 21.1399C9.77144 21.434 10.1081 21.7636 10.4915 22.1404C10.5285 22.1768 10.5685 22.2148 10.6106 22.2548C11.077 22.6977 11.8122 23.396 11.8122 24.9871V27.0427C11.8086 27.0336 11.805 27.0246 11.8014 27.0156C11.6341 26.5964 11.4891 26.2333 10.7315 25.4894C10.7021 25.4566 8.21074 23.0005 7.96585 22.7612C7.57974 22.323 6.82303 21.25 6.82303 19.5685V18.0547C6.82303 18.0547 7.10792 18.7865 8.17809 19.8661C8.53701 20.2256 8.94949 20.6294 9.47099 21.1399Z" fill="#006434"/>
<path fill-rule="evenodd" clip-rule="evenodd" d="M15.9996 5.54126C15.8061 5.54126 15.6159 5.54619 15.4249 5.55524V6.3783C15.6151 6.36844 15.8053 6.3635 15.9996 6.3635C22.1741 6.3635 27.1829 11.4071 27.1829 17.6291C27.1829 23.8493 22.1741 28.8946 15.9996 28.8946C9.82184 28.8946 4.8163 23.8493 4.8163 17.6291C4.8163 14.1765 6.35747 11.0857 8.78596 9.02017V7.9677C5.87994 10.1754 4 13.6798 4 17.6291C4 24.3049 9.3737 29.7144 16.0004 29.7144C22.6271 29.7144 28 24.304 28 17.6291C27.9984 10.9541 22.6255 5.54126 15.9996 5.54126" fill="#006434"/>
<path fill-rule="evenodd" clip-rule="evenodd" d="M14.4317 20.171H13.9631V24.9894H14.4317V20.171ZM26.025 20.934C26.1009 20.7013 26.1703 20.4661 26.2291 20.2285H24.4871V20.661H24.7508C25.2169 20.647 25.7336 20.6404 26.025 20.934ZM24.4872 23.9375C24.6742 23.6801 24.8505 23.4178 25.0162 23.1473V21.525H24.4872V23.9375Z" fill="#006434"/>
<path fill-rule="evenodd" clip-rule="evenodd" d="M14.435 19.2393H12.8751H12.8743V27.7807C12.7159 27.7314 12.5584 27.6788 12.4033 27.6212V18.7755H14.4342C15.2595 18.7755 15.7558 19.1011 15.9256 19.7597C16.1068 19.1332 16.5835 18.8191 17.3704 18.8191H17.8316C18.4839 18.8191 18.9271 19.0378 19.1622 19.4695L19.0585 18.9326H26.4689C26.4518 19.0781 26.4305 19.222 26.4085 19.3659H23.2413V25.3535C22.9547 25.6281 22.6511 25.8855 22.3327 26.1264V23.3719C22.3327 22.8563 22.2348 22.5389 21.7246 22.358L22.3327 19.3897H21.1956L21.0152 22.631H20.883L20.7026 19.3897H19.6193L20.1565 22.358C19.6691 22.5233 19.5557 22.89 19.5557 23.3719V27.6352C19.3402 27.7125 19.1222 27.7824 18.9018 27.8473V23.1885H17.8325V28.0948C17.6782 28.1228 17.5239 28.1458 17.3704 28.1655V20.2556H17.8333V22.7215H18.9026V20.4134C18.9026 19.9965 18.83 19.7046 18.6708 19.5402C18.407 19.2745 17.9271 19.2834 17.5418 19.2905C17.4823 19.2916 17.4251 19.2927 17.3713 19.2927C16.9753 19.2927 16.6913 19.3758 16.5345 19.5402C16.3819 19.7055 16.297 19.9957 16.297 20.4134V28.2494C16.199 28.2519 16.0986 28.2535 15.9999 28.2535L15.8448 28.2519V25.6429C15.6236 26.1371 15.1534 26.3829 14.435 26.3829V28.1368C14.2767 28.1146 14.1208 28.0866 13.964 28.0545V25.92C14.0359 25.92 14.1208 25.92 14.2024 25.9282C14.582 25.9282 15.035 25.9282 15.284 25.6791C15.4497 25.522 15.524 25.2384 15.524 24.8305V20.3296C15.524 19.9217 15.4497 19.6372 15.284 19.4826C15.1191 19.3231 14.8391 19.2393 14.435 19.2393ZM22.2017 22.1549L22.7127 22.6466V19.4941L22.2017 22.1549Z" fill="#006434"/>
<path fill-rule="evenodd" clip-rule="evenodd" d="M20.7017 27.1412C20.8658 27.059 21.0282 26.971 21.1874 26.8806V23.2347H20.7017V27.1404V27.1412Z" fill="#006434"/>
</svg>
