<svg width="32" height="32" viewBox="0 0 32 32" fill="none" xmlns="http://www.w3.org/2000/svg">
<path d="M21.3891 15.9975C21.3891 11.8923 23.4425 8.91176 27 6.86367C24.1376 3.28001 18.3563 0.913733 12.4733 2.50468C9.43586 3.31881 6.75973 5.09852 4.86452 7.56479C2.96932 10.0311 1.96221 13.0444 2.00108 16.1324C2.08322 22.5002 6.47951 28.0142 12.6787 29.5608C18.7998 31.0863 24.4476 28.4019 26.9897 25.1364C23.4343 23.0853 21.3871 20.1007 21.3891 15.9975ZM17.6571 9.48067C17.001 9.56425 16.3111 9.59949 15.7064 9.83108C13.7393 10.5843 12.8563 12.147 12.8142 14.1246C12.7495 17.226 12.7957 20.3303 12.7875 23.4337C12.7875 24.4335 11.9662 25.0337 11.0811 24.6833C10.5185 24.4597 10.306 24.0106 10.306 23.4407C10.306 21.8471 10.306 20.2535 10.306 18.6598H10.3789C10.3789 16.8665 10.2762 15.0661 10.4004 13.2808C10.6253 9.97306 12.9199 7.71352 16.2834 7.32786C16.7239 7.27122 17.1677 7.24263 17.6119 7.24227C18.3091 7.25134 18.7505 7.69237 18.7618 8.3358C18.7731 8.97922 18.3583 9.39005 17.6571 9.48067Z" fill="#199D00"/>
</svg>
