<svg width="32" height="32" viewBox="0 0 32 32" fill="none" xmlns="http://www.w3.org/2000/svg">
<path d="M27.0787 7.44037C27.7437 8.30022 28.3067 9.23437 28.7563 10.2241L16.0037 19.6252L10.674 16.2841V12.2646L16.0037 15.6057L27.0787 7.44037Z" fill="#21A038"/>
<path d="M5.23444 16.0005C5.23444 15.8201 5.23884 15.6409 5.24764 15.4628L2.01771 15.3045C2.00672 15.5354 2.00013 15.7685 2.00013 16.0037C1.99875 17.8418 2.36027 19.662 3.06396 21.3599C3.76764 23.0579 4.79964 24.6002 6.10074 25.8984L8.39181 23.6084C7.39026 22.6108 6.59573 21.4251 6.05389 20.1195C5.51204 18.8139 5.23356 17.414 5.23444 16.0005Z" fill="url(#paint0_linear)"/>
<path d="M16.0006 5.2338C16.1809 5.2338 16.36 5.2404 16.5381 5.24919L16.6997 2.01803C16.4682 2.00703 16.2351 2.00154 16.0006 2.00154C14.1617 1.99929 12.3407 2.36031 10.6418 3.06386C8.94289 3.7674 7.3997 4.79962 6.10083 6.10125L8.3919 8.39241C9.38944 7.3905 10.5752 6.59565 11.881 6.05358C13.1867 5.51152 14.5867 5.23291 16.0006 5.2338Z" fill="url(#paint1_linear)"/>
<path d="M16.0005 26.7665C15.8202 26.7665 15.641 26.7665 15.4618 26.7522L15.3002 29.9823C15.5326 29.994 15.766 29.9999 16.0005 29.9999C17.8386 30.0018 19.6588 29.6405 21.3568 28.9368C23.0548 28.233 24.5969 27.2007 25.8948 25.8991L23.6081 23.609C22.6104 24.6104 21.4248 25.4048 20.1193 25.9467C18.8137 26.4885 17.414 26.7672 16.0005 26.7665Z" fill="url(#paint2_linear)"/>
<path d="M22.0693 7.1124L24.7913 5.10598C22.3033 3.09126 19.1977 1.99453 15.9963 2.00014V5.23351C18.1642 5.23082 20.2817 5.88598 22.0693 7.1124Z" fill="url(#paint3_linear)"/>
<path d="M30 16.0001C30.0017 15.159 29.9282 14.3193 29.7801 13.4913L26.7668 15.7121C26.7668 15.8078 26.7668 15.9034 26.7668 16.0001C26.7676 17.5044 26.4522 18.9921 25.8413 20.3667C25.2303 21.7414 24.3373 22.9723 23.2202 23.9796L25.3937 26.3819C26.846 25.0707 28.0065 23.469 28.8001 21.6806C29.5937 19.8921 30.0024 17.9568 30 16.0001Z" fill="#21A038"/>
<path d="M16.0007 26.7664C14.4964 26.7669 13.0087 26.4514 11.6339 25.8405C10.2592 25.2295 9.02817 24.3366 8.02044 23.2197L5.61945 25.3921C6.93039 26.8447 8.53199 28.0055 10.3204 28.7993C12.1088 29.593 14.044 30.002 16.0007 29.9997V26.7664Z" fill="url(#paint4_linear)"/>
<path d="M8.78099 8.02056L6.60865 5.61835C5.15592 6.92926 3.99495 8.53089 3.20102 10.3194C2.4071 12.1079 1.99796 14.0433 2.00013 16.0001H5.23445C5.23378 14.4958 5.54915 13.0081 6.1601 11.6335C6.77105 10.259 7.66396 9.02803 8.78099 8.02056Z" fill="url(#paint5_linear)"/>
<defs>
<linearGradient id="paint0_linear" x1="6.75486" y1="25.495" x2="3.22122" y2="15.2804" gradientUnits="userSpaceOnUse">
<stop offset="0.14" stop-color="#F1E813"/>
<stop offset="0.3" stop-color="#E6E418"/>
<stop offset="0.58" stop-color="#C9DA26"/>
<stop offset="0.89" stop-color="#A2CC39"/>
</linearGradient>
<linearGradient id="paint1_linear" x1="7.02429" y1="6.67294" x2="16.126" y2="3.20457" gradientUnits="userSpaceOnUse">
<stop offset="0.06" stop-color="#0FA7DF"/>
<stop offset="0.54" stop-color="#0098F8"/>
<stop offset="0.92" stop-color="#0290EA"/>
</linearGradient>
<linearGradient id="paint2_linear" x1="15.087" y1="28.0484" x2="25.3792" y2="25.7234" gradientUnits="userSpaceOnUse">
<stop offset="0.12" stop-color="#A2CC39"/>
<stop offset="0.28" stop-color="#86C239"/>
<stop offset="0.87" stop-color="#219F38"/>
</linearGradient>
<linearGradient id="paint3_linear" x1="15.3236" y1="3.08306" x2="24.1229" y2="5.79838" gradientUnits="userSpaceOnUse">
<stop offset="0.06" stop-color="#0290EA"/>
<stop offset="0.79" stop-color="#0C89CA"/>
</linearGradient>
<linearGradient id="paint4_linear" x1="6.43077" y1="24.9985" x2="16.0085" y2="28.5779" gradientUnits="userSpaceOnUse">
<stop offset="0.13" stop-color="#F1E813"/>
<stop offset="0.3" stop-color="#EAE616"/>
<stop offset="0.53" stop-color="#D8DF1F"/>
<stop offset="0.8" stop-color="#BAD52D"/>
<stop offset="0.98" stop-color="#A2CC39"/>
</linearGradient>
<linearGradient id="paint5_linear" x1="3.20503" y1="16.3914" x2="7.0498" y2="6.39026" gradientUnits="userSpaceOnUse">
<stop offset="0.07" stop-color="#A2CC39"/>
<stop offset="0.26" stop-color="#81C45E"/>
<stop offset="0.92" stop-color="#0FA7DF"/>
</linearGradient>
</defs>
</svg>
