<svg width="32" height="32" viewBox="0 0 32 32" fill="none" xmlns="http://www.w3.org/2000/svg">
<path d="M2.29646 9.33252C2.29646 10.839 3.30132 11.4009 4.80948 11.7783C6.24869 12.123 6.54171 12.5695 6.54171 13.1348C6.54171 13.7622 5.97981 14.2 5.17316 14.2C4.30274 14.2 3.56504 13.888 2.77735 13.1848C2.74977 13.2175 2.02585 14.1138 2 14.1431C2.85017 14.9426 3.97334 15.3877 5.14041 15.3876C6.75199 15.3876 7.83614 14.4258 7.83614 13.0004C7.83614 11.749 7.08637 11.0044 5.4093 10.5873C3.88563 10.2116 3.58744 9.7979 3.58744 9.20842C3.58744 8.69134 4.02179 8.18632 4.84912 8.18632C5.52995 8.18632 6.20388 8.45004 6.90711 8.9878C6.92952 8.95505 7.57759 8.00879 7.59655 7.97604C6.83551 7.33183 5.86679 6.98525 4.86981 7.00048C3.37889 7.00048 2.29646 7.97949 2.29646 9.33252Z" fill="#FD8000"/>
<path d="M12.1348 9.34619C12.1245 9.37722 10.8473 13.5018 10.8473 13.5018C10.8473 13.5018 9.69077 9.39962 9.68043 9.36515H8.37738C8.39289 9.42031 10.2113 15.2857 10.2216 15.315H11.3627C11.3713 15.2857 12.6709 11.1991 12.6709 11.1991C12.6709 11.1991 13.9584 15.2857 13.9688 15.315H15.1098C15.1098 15.2857 16.9575 9.42031 16.9747 9.36515H15.7062C15.7062 9.39618 14.5186 13.5018 14.5186 13.5018C14.5186 13.5018 13.2311 9.37894 13.2207 9.34792L12.1348 9.34619Z" fill="#FD8000"/>
<path d="M18.8587 11.9024C18.9846 10.9389 19.5757 10.3184 20.3686 10.3184C21.1615 10.3184 21.7475 10.9251 21.844 11.9024V11.9265H18.8553V11.9024H18.8587ZM17.597 12.3212V12.3436C17.597 14.119 18.826 15.4082 20.5272 15.4082C21.2897 15.4319 22.0405 15.2167 22.6748 14.7929C22.6645 14.7619 22.3421 13.8018 22.3301 13.7587C21.8123 14.1253 21.1888 14.3123 20.5548 14.2913C19.643 14.2913 19.0173 13.738 18.8846 12.8125V12.7866H23.1023L23.1212 12.4419C23.1212 10.8613 22.2784 9.26355 20.3945 9.26355C18.8087 9.26355 17.6126 10.5856 17.6126 12.3402L17.597 12.3212Z" fill="#FD8000"/>
<path d="M25.584 12.3314V12.309C25.584 11.1938 26.289 10.3854 27.2577 10.3854C28.1557 10.3854 28.7503 10.9852 28.7503 11.2283V14.1584H28.7331C28.2451 14.2348 27.7514 14.2682 27.2577 14.2584C26.3045 14.2584 25.584 13.4293 25.584 12.3314ZM28.7296 7.00024V9.87177L28.6934 9.8442C28.2034 9.43518 27.5802 9.22049 26.9423 9.24093C25.6306 9.24093 24.3034 10.2941 24.3034 12.3055V12.3279C24.3034 14.3411 25.703 15.3925 27.0853 15.3925C28.0618 15.3711 29.0356 15.2824 29.9999 15.1271V7.00024H28.7296Z" fill="#FD8000"/>
<path d="M3.26685 24.1599H3.24961V21.2297C3.24961 20.9867 3.84426 20.3852 4.74226 20.3852C5.71265 20.3852 6.41416 21.197 6.41416 22.3122V22.3328C6.41416 23.4308 5.69714 24.2598 4.74226 24.2598C4.24858 24.2682 3.75507 24.2353 3.26685 24.1616V24.1599ZM2 17V25.1285C2.96471 25.2857 3.93917 25.3755 4.91634 25.3974C6.29523 25.3974 7.69824 24.3426 7.69824 22.3311V22.3104C7.69824 20.299 6.36934 19.2407 5.05423 19.2407C4.41616 19.219 3.79236 19.4325 3.30132 19.8405L3.26857 19.8664V17H2Z" fill="#FD8000"/>
<path d="M10.0164 23.5136V23.4912C10.0164 22.9017 10.5163 22.5467 11.3522 22.5467C11.8037 22.5452 12.2516 22.6258 12.6742 22.7845H12.6863V24.2978H12.6691C12.1653 24.3785 11.6555 24.4154 11.1454 24.4082C10.4697 24.4082 10.0164 24.0462 10.0164 23.5067V23.5136ZM9.25978 19.7579C9.27184 19.7923 9.59243 20.7696 9.6045 20.8093C10.1143 20.5725 10.6694 20.449 11.2316 20.4473C12.1572 20.4473 12.6656 20.9058 12.6656 21.7417V21.8848L12.638 21.8745C12.13 21.7015 11.5958 21.6181 11.0592 21.628C9.61656 21.628 8.75476 22.3467 8.75476 23.555V23.5774C8.75476 24.8235 9.80271 25.3906 10.7766 25.3906C11.8277 25.3736 12.8764 25.2844 13.9152 25.1235V21.7693C13.9152 20.1405 13.0534 19.2787 11.4177 19.2787C10.6707 19.2666 9.93143 19.4307 9.25978 19.7579Z" fill="#FD8000"/>
<path d="M15.5218 19.513V25.2733H16.7921V20.4817H16.811C17.2399 20.4157 17.6733 20.384 18.1072 20.3869C18.8897 20.3869 19.3568 20.9591 19.3568 21.9175V25.2733H20.6288V21.5107C20.6288 20.1128 19.8532 19.2441 18.607 19.2441C17.5735 19.2593 16.5424 19.3492 15.5218 19.513Z" fill="#FD8000"/>
<path d="M22.2574 25.2733H23.5277V23.5859L24.3585 22.6879L26.0942 25.2733H27.5627L25.2203 21.7675C25.2203 21.7675 27.4128 19.4389 27.48 19.37H25.9425C25.9287 19.382 23.5295 22.0398 23.5295 22.0398V17H22.2592L22.2574 25.2733Z" fill="#FD8000"/>
</svg>
