<svg width="32" height="32" viewBox="0 0 32 32" fill="none" xmlns="http://www.w3.org/2000/svg">
<path d="M30.611 15.1395L31 13.8998L29.7121 13.9406C29.6028 13.9406 28.8122 13.9178 28.0449 13.3647C28.102 13.3695 28.1591 13.378 28.2181 13.378C29.0077 13.378 29.7731 12.9045 30.0788 12.2273L30.6323 11.0037C29.9376 11.0132 29.3018 10.9251 29.3018 10.9251C29.297 10.9251 28.7958 10.8607 28.2181 10.2716C27.802 9.85016 27.2892 9.62665 26.7318 9.62665C26.5115 9.62724 26.2927 9.66209 26.0835 9.72988C26.1126 9.63044 26.1397 9.53005 26.1561 9.42682C26.3332 8.28086 25.593 7.40861 25.593 7.40956L24.6234 6.21435L24.0235 7.61602C24.0215 7.62075 23.8687 7.95033 23.5977 8.11039C23.496 7.61236 23.2486 7.15401 22.8856 6.79112C22.2824 6.17348 21.4459 5.82644 20.573 5.83174C20.333 5.83174 20.1617 5.85731 20.1211 5.86394L18.9512 6.09313C19.0511 5.69855 19.2109 5.32089 19.4254 4.97274L20.0708 3.97264L18.4471 4.15637L17.9304 3.06345L16.9289 3.57676L16.0019 2.66663L15.0788 3.57676L14.0754 3.06345L13.5587 4.15637L11.936 3.97169L12.5824 4.97274C12.8456 5.37998 12.9888 5.83174 13.0555 6.09123L11.9389 5.87246L11.9002 5.86678C11.7466 5.84283 11.5913 5.83111 11.4358 5.83174C10.919 5.83174 9.93304 5.95675 9.12411 6.79112C8.76056 7.1539 8.51248 7.61222 8.41001 8.11039C8.14005 7.95128 7.99007 7.62738 7.99007 7.62738L7.38821 6.21625L6.40414 7.41903C6.28319 7.5734 5.69101 8.39451 5.8526 9.42682C5.8697 9.52894 5.89362 9.62987 5.9242 9.72893C5.71508 9.66091 5.49627 9.62575 5.2759 9.62475C4.71952 9.62475 4.20572 9.84921 3.79061 10.2707C3.21294 10.8569 2.71559 10.9241 2.71946 10.9241C2.71946 10.9241 2.19307 11.0179 1.37834 11.0027L1.92891 12.2264C2.23565 12.9035 3.00103 13.377 3.78964 13.377C3.84866 13.377 3.90575 13.3676 3.96381 13.3638C3.48391 13.7129 2.90841 13.9137 2.31112 13.9406L1 13.8989L1.39769 15.1395C1.59799 15.7779 2.26564 16.8367 3.54483 16.9513C3.4055 17.5309 3.09683 18.1825 2.41949 18.4619L1.4422 18.8625L1.97439 19.7868C2.27532 20.284 2.98168 20.8665 3.98703 20.8665C4.20475 20.8665 4.41472 20.8447 4.61695 20.8021C4.66824 21.0294 4.73307 21.2567 4.81048 21.484C5.1085 22.3704 4.85112 22.9889 4.84821 22.9955L4.36537 24.0013L5.44233 24.2835C5.45588 24.2882 5.781 24.3773 6.18836 24.3773C6.49347 24.3798 6.79585 24.3208 7.07664 24.204C7.21597 24.453 7.38627 24.6803 7.5827 24.883C8.27261 25.5886 9.25087 25.9456 10.4894 25.9456H10.4933L11.3777 25.9343L9.55083 26.69L10.9384 27.3568C11.4416 27.602 12.0395 27.8909 12.6482 28.1116L12.475 28.5832L12.953 28.801C12.9956 28.82 13.9148 29.2291 15.4436 29.3162C15.4436 29.3162 15.8113 29.3333 16.0145 29.3333C16.2177 29.3333 16.5825 29.3144 16.5825 29.3144C18.1017 29.2253 19.0132 28.82 19.0557 28.8001L19.5357 28.5823L19.3605 28.1106C19.9856 27.8833 20.6059 27.5822 21.0887 27.3473L22.4501 26.6891L20.6291 25.9343L21.5174 25.9456C22.7578 25.9456 23.7361 25.5876 24.425 24.8821C24.6215 24.6803 24.7898 24.454 24.9301 24.204C25.2115 24.3201 25.514 24.379 25.8194 24.3773C26.22 24.3773 26.549 24.2892 26.5577 24.2864L27.6395 24.0022L27.1682 23.0144C27.1566 22.9889 26.8992 22.3704 27.1973 21.483C27.2747 21.2567 27.3385 21.0284 27.3908 20.8011C27.594 20.8447 27.8049 20.8665 28.0246 20.8674C28.8442 20.8731 29.6073 20.4594 30.0372 19.7764L30.5655 18.8615L29.5882 18.4628C28.909 18.1825 28.6013 17.5318 28.4639 16.9513C29.7266 16.8424 30.403 15.7826 30.611 15.1395Z" fill="white"/>
<path fill-rule="evenodd" clip-rule="evenodd" d="M18.1356 5.68905C17.5474 5.36332 16.7832 5.17771 16.0025 5.17763C15.2266 5.17771 14.4624 5.36332 13.8723 5.68905C13.8171 5.51005 13.7426 5.29223 13.64 5.06398L13.8626 5.0905L14.0958 5.11418L14.1964 4.90298L14.4896 4.27791L15.0353 4.55919L15.2463 4.66527L15.4147 4.50048L16.002 3.91992L16.5922 4.50048L16.7616 4.66527L16.9725 4.55919L17.5144 4.27791L17.8124 4.90298L17.9111 5.11418L18.1453 5.0905L18.3678 5.06398C18.2653 5.29223 18.1898 5.51005 18.1356 5.68905ZM16.0018 6.46561C14.9674 6.46656 14.1923 6.80371 14.023 7.20148L16.0027 7.97808L17.9825 7.20148C17.8151 6.80371 17.0391 6.46656 16.0027 6.46561H16.0018ZM16.0226 27.0454H15.9839C15.3559 27.0492 14.4918 26.9223 14.0777 26.801L13.5765 28.1478C13.9055 28.2652 15.024 28.4887 16.0052 28.4887C16.9825 28.4887 18.1001 28.2652 18.43 28.1478L17.9298 26.801C17.5127 26.9213 16.6496 27.0492 16.0236 27.0454H16.0226ZM18.1227 26.3762C18.6065 26.2294 19.4377 25.9141 19.8103 25.7048L19.5625 26.5145L20.4053 26.7939C19.8053 27.0865 19.1767 27.3194 18.5291 27.489L18.1227 26.3762ZM12.1957 25.7048L12.4453 26.5145L11.6016 26.7939C12.1105 27.0487 12.7308 27.2864 13.4768 27.489L13.8832 26.3762C13.4004 26.2294 12.5672 25.9141 12.1957 25.7048ZM27.9112 12.4067C28.0099 12.44 28.1135 12.4569 28.2179 12.4569C28.6591 12.4569 29.0849 12.1728 29.232 11.8479C29.232 11.8479 28.423 11.7987 27.5531 10.9198C27.2764 10.6357 26.9822 10.5504 26.7307 10.5504C26.3407 10.5504 26.0475 10.755 26.0475 10.755C26.6151 11.0558 26.9388 11.4546 27.2106 11.7896C27.4422 12.0749 27.6361 12.3139 27.9112 12.4067ZM4.09298 12.4056C3.99519 12.4399 3.89205 12.4572 3.78818 12.4568C3.34791 12.4568 2.92023 12.1717 2.77509 11.8478C2.77509 11.8478 3.58304 11.7986 4.45196 10.9197C4.73064 10.6346 5.02286 10.5494 5.27637 10.5494C5.66439 10.5494 5.95854 10.7549 5.95854 10.7549C5.39265 11.0551 5.06909 11.4529 4.79708 11.7874C4.56445 12.0734 4.36953 12.3131 4.09298 12.4056Z" fill="white"/>
<path fill-rule="evenodd" clip-rule="evenodd" d="M28.2485 16.0377C28.2311 16.0376 28.2136 16.037 28.1963 16.0358V16.0368C27.6912 16.0188 27.4318 15.8256 27.4318 15.8256C27.4318 15.8256 27.2344 18.4897 29.2326 19.3155C29.2326 19.3155 28.8697 19.9444 28.0356 19.9444H28.026C27.0235 19.9387 26.621 19.3316 26.621 19.3316C26.621 19.3316 26.679 20.1215 26.3181 21.1888C25.8837 22.475 26.322 23.3936 26.322 23.3936C26.322 23.3936 26.0878 23.4571 25.8188 23.4571C25.7163 23.4571 25.6079 23.4466 25.5082 23.4201C24.6712 23.2222 24.4632 22.4645 24.4632 22.4645C24.4632 22.4645 24.5396 25.0235 21.542 25.0235H21.5197C21.5197 25.0235 21.7839 24.6655 21.8613 23.637C22.0035 21.7391 23.2953 21.4777 23.2953 21.4777C23.2953 21.4777 22.6063 21.3915 22.3064 21.1263C21.84 20.7039 21.8729 20.2171 21.8729 20.2171C22.9276 20.2029 23.6175 19.8459 24.1448 19.2398C24.7148 18.5825 24.8096 17.876 24.8096 17.876C24.8096 17.876 24.2416 18.3874 23.1453 18.3874C23.0485 18.3874 22.946 18.3827 22.8395 18.3722C22.3199 18.3306 21.9619 18.0029 21.9619 18.0029C23.1037 17.2736 23.9039 16.0027 23.1946 14.0896C22.6257 12.5544 21.2584 11.4094 19.8825 10.5466C19.4238 10.2625 19.1694 9.94521 19.1694 9.6734C19.1694 9.28048 19.5135 9.12052 19.8662 8.9566C20.089 8.85304 20.3152 8.7479 20.4602 8.58143C20.8946 8.08138 20.6227 7.26974 20.2473 6.7801C20.2473 6.7801 20.3731 6.75548 20.5734 6.75548C21.1942 6.74954 21.7898 6.99574 22.2183 7.43547C22.9653 8.20544 22.6557 9.04549 22.6557 9.04549L22.856 9.08338C22.9678 9.10702 23.078 9.11285 23.1911 9.11884L23.2188 9.12031L23.3001 9.12126C24.3867 9.12126 24.8725 7.99046 24.8725 7.99046C24.8725 7.99046 26.0288 9.40538 24.3258 10.5135C24.0336 10.7029 23.9039 10.879 23.9387 11.0665L23.9649 11.1897L24.0868 11.2105C25.2674 11.53 25.8907 12.3202 26.6109 13.2334L26.7052 13.3528C27.8624 14.816 29.4987 14.8633 29.7019 14.8633H29.7232C29.7232 14.8633 29.3497 16.0377 28.2485 16.0377ZM26.1437 16.9809C26.2685 17.3616 26.7814 18.4214 27.5942 18.8201C27.5942 18.8201 26.5724 18.2074 26.1137 15.817V15.8359C25.8099 13.4029 24.0353 11.6461 22.0594 10.5778C21.8775 10.4812 21.7082 10.3978 21.5446 10.3183C22.1455 10.412 23.1141 10.4225 23.8621 9.77844C23.8621 9.77844 22.7174 10.6147 20.3758 9.85421C20.5637 9.97574 20.8033 10.1119 21.0768 10.2674C21.7455 10.6473 22.6172 11.1427 23.4344 11.8222C26.3111 14.3376 24.254 16.7906 24.254 16.7906C25.2864 15.7166 25.33 14.5668 25.0252 13.6273C25.5699 14.5299 25.9183 15.6238 25.8641 16.9733C25.7847 18.9063 24.7165 20.5788 23.5931 21.9218C23.0532 22.5743 22.9332 23.3755 22.9332 23.3755C22.9332 23.3755 23.1509 22.6681 23.775 21.9407C24.9797 20.5381 26.0083 19.0806 26.1437 16.9809ZM8.23181 21.9404C7.02713 20.5378 5.99758 19.0802 5.86115 16.9806C5.73729 17.3622 5.22542 18.4201 4.41262 18.8198C4.41262 18.8198 5.43443 18.207 5.89308 15.8176V15.8365C6.19691 13.4025 7.97152 11.6457 9.94739 10.5784C10.0994 10.4956 10.2446 10.4249 10.3835 10.3572L10.4622 10.3189C9.86128 10.4117 8.89269 10.423 8.14472 9.77713C8.14472 9.77713 9.28941 10.6143 11.631 9.85385C11.4425 9.97589 11.2023 10.1124 10.9282 10.2683L10.9282 10.2683C10.2599 10.6482 9.3899 11.1429 8.57338 11.8219C5.69568 14.3373 7.75381 16.7911 7.75381 16.7911C6.71846 15.7162 6.67782 14.5665 6.98165 13.6279C6.43688 14.5295 6.08854 15.6234 6.14466 16.973C6.22207 18.906 7.29032 20.5785 8.41179 21.9224C8.95365 22.574 9.07654 23.3742 9.07654 23.3742C9.07654 23.3742 8.85592 22.6677 8.23084 21.9404H8.23181ZM9.70125 21.1255C9.40226 21.3925 8.71235 21.4778 8.71235 21.4778C8.71235 21.4778 10.0051 21.7392 10.1473 23.6371C10.2247 24.6656 10.486 25.0236 10.486 25.0236H10.4657C7.46702 25.0236 7.54347 22.4646 7.54347 22.4646C7.54347 22.4646 7.33446 23.2223 6.49844 23.4193C6.39877 23.4467 6.29234 23.4571 6.1888 23.4571C5.91884 23.4571 5.68564 23.3937 5.68564 23.3937C5.68564 23.3937 6.12204 22.475 5.68758 21.1889C5.32859 20.1225 5.38665 19.3317 5.38665 19.3317C5.38665 19.3317 4.98412 19.9388 3.98167 19.9454H3.97199C3.13887 19.9454 2.77505 19.3156 2.77505 19.3156C4.77221 18.4898 4.57578 15.8257 4.57578 15.8257C4.57578 15.8257 4.31646 16.0179 3.8104 16.0368L3.75815 16.0378C2.65603 16.0378 2.28253 14.8644 2.28253 14.8644H2.30479C2.50895 14.8644 4.14423 14.8161 5.30053 13.3529L5.39669 13.2312C6.11702 12.319 6.7402 11.5298 7.9189 11.2106L8.04179 11.1897L8.06791 11.0666C8.10275 10.8791 7.97405 10.7029 7.68087 10.5135C5.98076 9.40546 7.13513 7.99054 7.13513 7.99054C7.13513 7.99054 7.61894 9.12134 8.70848 9.12134L8.78782 9.12039L8.81686 9.11885C8.92977 9.11289 9.04105 9.10701 9.15068 9.08346L9.35097 9.04557C9.35097 9.04557 9.04037 8.20552 9.7893 7.43555C10.3534 6.85405 11.0385 6.75556 11.4343 6.75556C11.6346 6.75556 11.7594 6.78018 11.7594 6.78018C11.3849 7.26982 11.113 8.08145 11.5465 8.58151C11.6917 8.74786 11.9177 8.85297 12.1401 8.95645C12.4926 9.12045 12.8363 9.28037 12.8363 9.67348C12.8363 9.94529 12.5818 10.2626 12.1242 10.5467C10.7472 11.4095 9.38097 12.5554 8.81201 14.0897C8.10275 16.0037 8.90297 17.2737 10.0467 18.003C10.0467 18.003 9.68674 18.3307 9.16713 18.3733C9.06166 18.3827 8.95909 18.3875 8.86039 18.3875C7.76505 18.3875 7.19899 17.8761 7.19899 17.8761C7.19899 17.8761 7.29285 18.5826 7.85988 19.2398C8.38916 19.845 9.07907 20.203 10.1338 20.2172C10.1338 20.2172 10.1676 20.704 9.70125 21.1255ZM15.3265 12.0503H16.7392V12.5333C16.5728 12.3306 16.2496 12.3723 16.2496 12.3723V13.0674C16.2496 13.0674 16.2622 13.4093 16.3822 13.558H15.6835C15.8055 13.4093 15.8161 13.0674 15.8161 13.0674V12.3713C15.8161 12.3713 15.4939 12.3306 15.3265 12.5323V12.0503ZM13.9311 12.2905C13.8837 12.2327 13.8353 12.1759 13.7869 12.1238C13.7803 12.1185 13.7752 12.1129 13.77 12.1071C13.7668 12.1035 13.7635 12.0999 13.7598 12.0963C13.5392 11.8719 13.277 11.7024 12.9325 11.6076L13.0873 11.5186H13.0951L13.7047 11.1673L14.3288 10.8112L15.9999 11.7166L16.0028 11.7128L16.0066 11.7166L17.6768 10.8112L18.3018 11.1682L18.9105 11.5186H18.9192L19.0721 11.6076C18.7559 11.6939 18.47 11.8636 18.2457 12.0982L18.2215 12.1219C18.1083 12.2453 18.0045 12.3767 17.9109 12.5149L17.8887 12.5481C17.8383 12.6229 17.79 12.7025 17.7416 12.7849C17.3081 13.5274 16.6172 13.9725 16.0028 13.9725C15.3883 13.9715 14.6975 13.5283 14.2649 12.7849L14.2586 12.7744C14.2125 12.6976 14.1679 12.6234 14.1198 12.5509C14.1168 12.5466 14.114 12.5423 14.1112 12.538C14.1047 12.5283 14.0985 12.5188 14.0917 12.5102C14.0501 12.4486 14.0066 12.388 13.963 12.3312C13.9554 12.3197 13.9478 12.3106 13.9402 12.3015C13.9372 12.2979 13.9341 12.2943 13.9311 12.2905Z" fill="white"/>
<path fill-rule="evenodd" clip-rule="evenodd" d="M15.8578 11.1141V11.1146H15.8587L15.8578 11.1141ZM15.8578 11.1141V8.28948L14.0512 7.67957L14.5283 10.4166L15.8578 11.1141ZM15.471 9.43852V8.98393L14.6485 8.64014C14.6485 8.64014 14.6563 8.90437 15.0259 9.18944C15.2218 9.344 15.3448 9.38532 15.3761 9.39585C15.3807 9.39738 15.3833 9.39826 15.3839 9.39875L15.471 9.43852ZM16.5356 8.98393L17.358 8.64014C17.358 8.64014 17.3503 8.90437 16.9797 9.18944C16.7786 9.34881 16.6542 9.38778 16.6278 9.39605L16.6278 9.39605C16.6249 9.39697 16.6231 9.39751 16.6227 9.3978L16.5356 9.43852V8.98393ZM17.9527 7.68061L17.4785 10.4176L16.1481 11.1147V8.28958L17.9527 7.68061ZM13.3036 17.6625C13.4788 17.726 13.6926 17.7392 13.8019 17.7392L13.8174 17.689C13.828 17.6567 13.8367 17.6238 13.8435 17.5906C13.87 17.4426 13.8846 17.2928 13.8871 17.1426C13.786 17.0826 13.704 16.9964 13.65 16.8935C13.5823 16.7524 13.4875 16.687 13.3472 16.687C13.1662 16.687 12.9708 16.796 12.8866 16.8471C12.8208 17.2373 13.1091 17.5915 13.3036 17.6625ZM16.3543 17.1151C16.5442 16.9302 17.0281 16.4592 17.2995 16.1644C17.3859 16.2734 17.4906 16.3673 17.6091 16.4419C17.551 16.7453 17.6133 17.0589 17.7833 17.3189C17.5085 17.5206 16.8021 18.0339 16.5447 18.212L14.0764 17.7706L14.0928 17.7053C14.1358 17.5396 14.1585 17.3695 14.1605 17.1986L16.2361 17.2318L16.2757 17.192C16.2816 17.1859 16.3099 17.1583 16.3543 17.1151Z" fill="white"/>
<path fill-rule="evenodd" clip-rule="evenodd" d="M16.2342 14.3676C16.6444 14.3269 17.1031 14.1517 17.5811 13.6801H20.7017C20.5662 14.038 20.453 14.4254 20.453 14.8099L20.4549 17.2969C19.9324 17.2098 19.8705 16.6501 19.8685 16.6254L19.8589 16.5118L19.7466 16.5023C19.5192 16.4805 19.3702 16.3858 19.2425 16.2627C18.9861 16.007 18.9861 15.5941 18.9861 15.5903C18.9857 15.5927 18.9819 15.5998 18.9759 15.611C18.9282 15.6997 18.7408 16.0479 19.0277 16.4237C19.1631 16.6018 19.3605 16.7116 19.615 16.7552C19.675 17.0649 19.9072 17.5034 20.4549 17.5697V18.7867H18.9145C18.2042 18.3927 18.5052 17.7013 18.5187 17.6729L18.5787 17.5403L18.4432 17.4892C17.673 17.2051 17.8859 16.4417 17.8956 16.4086L17.9265 16.2978L17.823 16.2485C17.1873 15.9549 17.2734 15.167 17.2811 15.1329C17.0866 15.291 17.015 15.6121 17.1505 15.9265C17.0813 16.0068 16.9894 16.1009 16.8879 16.2046L16.8879 16.2047L16.8728 16.2201C16.2148 16.0534 16.1945 15.453 16.1945 15.4246L16.1935 15.3327L16.1064 15.2986C15.8491 15.2039 15.6739 15.0618 15.5868 14.8724C15.515 14.7012 15.5021 14.5117 15.5501 14.3326C15.6976 14.364 15.8481 14.3798 15.999 14.3799H16.0087C16.084 14.3797 16.1593 14.3756 16.2342 14.3676ZM13.394 16.4034L13.4356 14.8199H13.4347L13.7927 14.4439L14.0172 14.9117L13.575 16.4308L13.394 16.4034ZM14.3925 20.6812C14.3677 20.6805 14.3444 20.6698 14.3279 20.6517C14.3114 20.6336 14.3033 20.6097 14.3054 20.5855C14.3069 20.5619 14.318 20.5398 14.3361 20.5242C14.3543 20.5085 14.3781 20.5006 14.4022 20.5022C14.4554 20.5031 14.4912 20.5495 14.4893 20.5969C14.488 20.6207 14.4771 20.6431 14.459 20.6591C14.4408 20.6751 14.4169 20.6834 14.3925 20.6821V20.6812ZM18.3531 22.0881C18.3386 22.0843 18.3231 22.0834 18.3095 22.0834V22.0824C18.2205 22.0824 18.1818 22.161 18.1818 22.161C18.2419 22.3209 18.257 22.4354 18.2707 22.5393C18.2858 22.6545 18.2993 22.7567 18.3705 22.8931C18.4566 23.0576 18.6008 23.1971 18.6867 23.2803C18.7012 23.2943 18.714 23.3067 18.7247 23.3174C18.7247 23.3174 18.7043 23.4642 18.684 23.5731L18.4915 24.5694C18.3686 24.5865 18.2399 24.595 18.1054 24.6007L18.3086 23.6423C18.3378 23.5037 18.1702 23.4116 17.9467 23.2888C17.7119 23.1597 17.4153 22.9967 17.221 22.7103C17.0352 22.9168 16.6868 22.9793 16.3366 22.9793C16.0163 22.9793 15.696 22.9282 15.5025 22.8903C15.4552 22.8822 15.4073 22.8778 15.3593 22.877C15.2424 22.8701 15.1316 22.9288 15.0738 23.0286L15.0187 23.1233L13.9717 22.878L13.7124 23.307C13.6756 23.3771 13.6727 23.4348 13.7317 23.5002L13.8024 23.5769C13.754 23.7284 13.5353 23.9586 13.5353 23.9586L13.3805 23.7644C13.2576 23.628 13.277 23.3771 13.4047 23.145L13.8208 22.4471L14.7071 22.5749L14.5697 22.2624C14.4408 21.9743 14.5393 21.6315 14.6208 21.3476C14.6562 21.2245 14.6884 21.1124 14.6974 21.0208C14.6868 21.1117 14.6026 21.1325 14.5039 21.1325C14.4562 21.1325 14.4054 21.1276 14.3583 21.1231C14.3175 21.1191 14.2794 21.1155 14.2485 21.1155C14.2223 21.1155 14.2001 21.1183 14.1885 21.1268L13.9475 21.2727L13.7588 21.106C13.7356 21.0738 13.7288 20.999 13.784 20.9422L14.2223 20.4525L13.7047 19.8502L14.4304 20.2129L14.651 19.9458C14.7119 20.0046 14.6858 20.1599 14.6858 20.1599C14.9122 20.1665 15.547 20.515 15.5809 21.3314L15.5818 21.411L15.5992 21.4375C15.6447 21.499 15.7686 21.6562 15.9253 21.6714L16.9278 21.7699H16.9326C16.9746 21.7699 17.033 21.751 17.1048 21.7278C17.2198 21.6905 17.3695 21.642 17.5422 21.642C17.7218 21.6432 17.8971 21.6959 18.0464 21.7936C18.1166 21.7453 18.1996 21.718 18.2854 21.715C18.297 21.7131 18.3105 21.7131 18.3202 21.7131C18.6975 21.7131 18.8891 21.9982 19.0838 22.2879C19.1212 22.3437 19.1588 22.3996 19.1978 22.4537C19.3797 22.7103 19.6226 23.0892 19.6226 23.0892C19.5326 23.1952 19.4494 23.254 19.3101 23.254C19.2714 23.254 19.2288 23.2511 19.1804 23.2416C18.9034 23.191 18.7626 22.8433 18.6405 22.5419C18.5503 22.3191 18.4703 22.1215 18.3531 22.0881Z" fill="white"/>
<path fill-rule="evenodd" clip-rule="evenodd" d="M13.341 23.1219C13.31 23.2638 12.9636 23.4645 12.9636 23.4645V23.4659L12.8882 23.2343C12.7905 22.9084 12.864 22.5324 13.0672 22.319L13.6303 21.8373L14.2283 22.0153C14.2167 22.2802 14.3299 22.4809 14.3299 22.4809L13.7048 22.311L13.3304 22.6763C13.2655 22.7379 13.2617 22.8516 13.2946 22.9587L13.341 23.1219ZM17.761 25.7516C17.6255 25.7516 17.5007 25.7543 17.3894 25.761L17.6826 24.4736C17.714 24.3533 17.6184 24.2096 17.5233 24.0667C17.4778 23.9984 17.4323 23.9302 17.401 23.8648C17.6277 24.055 17.8612 24.2292 18.1006 24.3867C18.0822 24.4268 17.761 25.7516 17.761 25.7516Z" fill="white"/>
<path fill-rule="evenodd" clip-rule="evenodd" d="M18.4763 18.7865H11.553V14.8098C11.553 14.4253 11.4397 14.0379 11.3062 13.6799H14.4258C14.7229 13.9726 15.0132 14.1563 15.2889 14.2567C15.2249 14.4972 15.2429 14.7516 15.3402 14.9812C15.4486 15.217 15.646 15.3979 15.9305 15.5182C15.9757 15.9344 16.2563 16.2904 16.6562 16.4387C16.4326 16.6623 16.2149 16.8744 16.1269 16.9596L14.0562 16.9265C13.9878 16.8938 13.9312 16.8416 13.8936 16.7769C13.8914 16.7707 13.8881 16.7659 13.8848 16.7611C13.8825 16.7577 13.8801 16.7543 13.8781 16.7503L14.2158 16.8043L14.2381 16.8053C14.3045 16.8055 14.361 16.7579 14.3707 16.6935C14.383 16.6209 14.3334 16.5521 14.2594 16.5391L13.8433 16.4738L14.3039 14.8884L13.8675 13.9735L13.1669 14.7103L13.1244 16.3582L12.6541 16.2844C12.5815 16.2702 12.5119 16.3232 12.4993 16.3961C12.4876 16.4689 12.5374 16.5375 12.6115 16.5505L12.8089 16.5808C12.7663 16.604 12.725 16.6293 12.6851 16.6566L12.6464 16.685L12.6348 16.7333C12.5206 17.1964 12.7789 17.6349 13.0586 17.8319L13.0489 17.8897C13.0238 18.034 13.123 18.171 13.2705 18.1956C13.4089 18.2162 13.5399 18.1278 13.5695 17.9938C13.6749 18.0062 13.7698 18.009 13.8356 18.009H13.8898L16.6068 18.4977L16.6533 18.4664C16.869 18.3168 17.6954 17.7182 17.9663 17.5194C18.0441 17.5871 18.1311 17.6442 18.2247 17.6889C18.1357 17.9815 18.1308 18.4314 18.4763 18.7865ZM11.5514 19.0558H20.4535L20.4554 22.3876C20.4554 23.4918 19.8023 24.2637 18.7766 24.5147L18.9488 23.6235C18.9513 23.6088 18.954 23.5933 18.9567 23.5775C18.9637 23.5374 18.971 23.4951 18.9759 23.4577C19.0259 23.4791 19.0781 23.495 19.1317 23.5051C19.19 23.5169 19.2493 23.5233 19.3088 23.524C19.571 23.524 19.7248 23.3858 19.8264 23.2683L19.958 23.1159L19.8506 22.9482C19.6789 22.6754 19.4995 22.4073 19.3126 22.1442L19.3124 22.1439C19.1035 21.8323 18.8432 21.4443 18.3189 21.4443H18.2724C18.197 21.4484 18.1226 21.4637 18.0518 21.4897C17.8873 21.413 17.717 21.3732 17.54 21.3732C17.3242 21.3732 17.1413 21.4329 17.0194 21.4736C17.0102 21.4764 17.0014 21.4792 16.993 21.4819C16.9691 21.4894 16.948 21.4962 16.9294 21.4983L15.9502 21.4036C15.9376 21.4017 15.8979 21.377 15.8495 21.3202V21.3155L16.0605 21.2312C16.0005 20.5285 15.3232 20.0966 14.9458 19.9498C14.9293 19.8797 14.8955 19.8096 14.8355 19.7528L14.6255 19.5539L14.4407 19.7746L14.3488 19.8863L12.9776 19.3266L13.8708 20.4413L13.5185 20.9717C13.3899 21.1081 13.5311 21.2444 13.5311 21.2444L13.895 21.4945L14.2723 21.3543C14.2805 21.3543 14.288 21.3553 14.2954 21.3564C14.3003 21.357 14.3051 21.3577 14.3101 21.3581C14.2991 21.3903 14.2869 21.4763 14.2756 21.5561C14.2669 21.6172 14.2587 21.6748 14.252 21.7019L13.5979 21.5731L12.9109 21.9595C12.6005 22.1852 12.4886 22.5896 12.64 22.9378L12.7154 23.1045L12.8238 23.3384L13.0647 23.239C13.0679 23.2389 13.0709 23.2379 13.0734 23.2361C12.9873 23.5108 13.0222 23.7722 13.177 23.9436L13.3221 24.1254L13.5176 24.3698L13.7305 24.1425C13.7924 24.08 13.9966 23.8536 14.0594 23.6595L14.1059 23.5098L14.0014 23.3962L13.9849 23.3763L14.1011 23.1831L14.9555 23.3839L15.148 23.4284L15.2496 23.2598L15.3057 23.1689C15.3164 23.149 15.3193 23.1462 15.358 23.1462C15.3893 23.1461 15.4204 23.1496 15.4509 23.1566C15.7418 23.2138 16.0376 23.2443 16.3343 23.2475C16.5907 23.2475 16.7436 23.2371 16.9265 23.1774L17.4006 23.7154L17.12 24.5781L17.1065 24.6302C16.5743 24.6738 16.3159 24.7893 16.0034 25.1C15.5486 24.6511 15.2264 24.6037 14.0053 24.6037C12.5422 24.6037 11.5514 23.7513 11.5514 22.3876V19.0558Z" fill="#FFE52B"/>
<path fill-rule="evenodd" clip-rule="evenodd" d="M18.3432 6.2134C17.8816 5.84783 17.0466 5.50309 16.0025 5.50309C14.9594 5.50309 14.1273 5.84783 13.6628 6.21434C13.6628 6.21434 13.5264 5.39323 13.058 4.66873L13.8989 4.76343L14.3382 3.83341L15.1849 4.26717L16.0025 3.46216L16.8221 4.26717L17.6668 3.83341L18.1061 4.76343L18.9479 4.66873C18.4796 5.39323 18.3432 6.2134 18.3432 6.2134ZM13.8623 5.08919L14.0946 5.11382L14.1962 4.90262L14.4894 4.27755L15.0351 4.55789L15.246 4.66585L16.0027 3.91861L16.592 4.50011L16.7613 4.66585L16.9723 4.55789L17.5141 4.27755L17.8122 4.90262L17.9109 5.11382L18.1441 5.09014L18.3666 5.06362C18.2762 5.26702 18.199 5.47579 18.1353 5.68869C17.547 5.3629 16.7826 5.17727 16.0027 5.17727C15.2257 5.17727 14.4623 5.3629 13.872 5.68869C13.8078 5.47587 13.7302 5.26712 13.6398 5.06362L13.8623 5.09014V5.08919ZM19.9296 26.3499L20.4424 26.545L21.0124 26.7572L20.8353 26.8429C20.2026 27.15 19.3808 27.5489 18.6243 27.7554L18.8207 28.2867C18.8207 28.2867 17.7699 28.764 16.0156 28.7678V28.7697H15.9914V28.7678C14.239 28.764 13.1882 28.2867 13.1882 28.2867L13.3837 27.7554C12.6349 27.551 11.8231 27.1583 11.1911 26.8525C11.1231 26.8196 11.0572 26.7877 10.9937 26.7572L11.5645 26.545L12.0793 26.3499L11.9342 25.8224L11.7813 25.2475C11.7813 25.2475 12.6889 25.7381 13.9691 26.1056C14.3319 26.2097 14.6077 26.2571 14.6077 26.2571V26.6492C14.6077 26.6492 15.2908 26.7666 15.9846 26.7666H16.0233C16.7152 26.7666 17.4002 26.6492 17.4002 26.6492V26.258C17.4002 26.258 17.675 26.2107 18.0379 26.1065C19.319 25.7381 20.2267 25.2475 20.2267 25.2475L20.0718 25.8224L19.9296 26.3499ZM11.6023 26.7936L12.4461 26.5142L12.1965 25.7045C12.569 25.9138 13.4021 26.2292 13.885 26.3769L13.4776 27.4897C12.8305 27.319 12.2024 27.0858 11.6023 26.7936ZM18.1227 26.376L18.5291 27.4897C19.2771 27.2852 19.8954 27.0475 20.4044 26.7936L19.5625 26.5142L19.8112 25.7045C19.4387 25.9138 18.6065 26.2292 18.1227 26.376ZM13.5762 28.1489C13.9071 28.2654 15.0247 28.4898 16.0049 28.4898C16.9822 28.4898 18.1018 28.2654 18.4308 28.1489L17.9305 26.8003C17.5135 26.9215 16.6503 27.0493 16.0233 27.0455H15.9837C15.3566 27.0493 14.4935 26.9215 14.0774 26.8003L13.5762 28.1489ZM29.232 19.3155C29.232 19.3155 28.8692 19.9453 28.0351 19.9453H28.0254C27.0239 19.9387 26.6204 19.3316 26.6204 19.3316C26.6204 19.3316 26.6785 20.1215 26.3175 21.1888C25.8831 22.4749 26.3214 23.3936 26.3214 23.3936C26.3214 23.3936 26.0873 23.457 25.8183 23.457C25.7131 23.458 25.6084 23.4453 25.5067 23.4192C24.6707 23.2222 24.4617 22.4645 24.4617 22.4645C24.4617 22.4645 24.5391 25.0235 21.5414 25.0235H21.5182C21.5182 25.0235 21.7833 24.6655 21.8607 23.637C22.0029 21.739 23.2947 21.4777 23.2947 21.4777C23.2947 21.4777 22.6048 21.3924 22.3068 21.1253C21.8394 20.7039 21.8723 20.2171 21.8723 20.2171C22.927 20.2029 23.6179 19.8449 24.1443 19.2397C24.4844 18.8503 24.7134 18.3798 24.8081 17.8759C24.8081 17.8759 24.241 18.3874 23.1447 18.3874C23.048 18.3874 22.9454 18.3826 22.839 18.3732C22.5151 18.3398 22.2093 18.2107 21.9623 18.0029C23.1041 17.2736 23.9043 16.0036 23.1941 14.0896C22.6251 12.5553 21.2588 11.4093 19.8819 10.5466C19.4242 10.2624 19.1688 9.94518 19.1688 9.67337C19.1688 9.28044 19.5129 9.12049 19.8656 8.95657C20.0884 8.85301 20.3146 8.74787 20.4596 8.58139C20.894 8.08134 20.6221 7.2697 20.2467 6.78006C20.2467 6.78006 20.3725 6.75544 20.5728 6.75544C20.9686 6.75544 21.6536 6.85394 22.2178 7.43544C22.9657 8.20541 22.6551 9.04546 22.6551 9.04546L22.8554 9.08334C22.9666 9.10704 23.077 9.11284 23.1912 9.11884L23.2183 9.12028L23.2995 9.12122C24.3862 9.12122 24.8719 7.99042 24.8719 7.99042C24.8719 7.99042 26.0273 9.40534 24.3262 10.5134C24.033 10.7028 23.9043 10.879 23.9382 11.0665L23.9643 11.1896L24.0853 11.2105C25.2652 11.5293 25.8876 12.3177 26.6058 13.2277L26.7046 13.3527C27.8619 14.8169 29.4991 14.8643 29.7013 14.8643H29.7226C29.7226 14.8643 29.3491 16.0377 28.2479 16.0377L28.1957 16.0367C27.6906 16.0178 27.4313 15.8255 27.4313 15.8255C27.4313 15.8255 27.2339 18.4896 29.232 19.3155ZM30.0681 14.971C30.0497 15.0297 29.5978 16.3963 28.248 16.3963L28.1851 16.3945C28.0399 16.3907 27.9112 16.3708 27.8 16.349C27.8541 17.0943 28.1289 18.4723 29.3704 18.9847L29.7507 19.141L29.5455 19.4961C29.5449 19.497 29.5439 19.4986 29.5426 19.5008C29.4971 19.5726 29.0354 20.303 28.0244 20.303C27.6492 20.3067 27.2787 20.2202 26.9455 20.0511C26.8934 20.4773 26.7978 20.8974 26.6601 21.305C26.2855 22.4123 26.6261 23.1929 26.6461 23.2387L26.6466 23.2399L26.8323 23.6301L26.4124 23.7418C26.4094 23.7424 26.4041 23.7436 26.3966 23.7453C26.3303 23.7603 26.0946 23.8138 25.8183 23.8138C25.396 23.8131 24.988 23.6638 24.6687 23.3933C24.5536 23.7437 24.3581 24.1396 24.0166 24.49C23.4389 25.0819 22.6058 25.3812 21.5172 25.3812L20.8583 25.3717L21.2231 24.8186C21.2231 24.8185 21.2233 24.8182 21.2237 24.8176C21.2364 24.7967 21.4377 24.466 21.5017 23.6111C21.5791 22.558 21.9788 21.9433 22.3736 21.591C22.2603 21.537 22.1529 21.4707 22.0639 21.3902C21.4833 20.8713 21.5075 20.2604 21.5114 20.1941L21.5366 19.8645L21.8665 19.8598C22.7538 19.8446 23.3712 19.5813 23.8734 19.0036C23.9904 18.8673 24.0843 18.7318 24.1607 18.5992C23.884 18.6835 23.5434 18.746 23.1447 18.746C23.0393 18.746 22.9261 18.7394 22.808 18.7318C22.1852 18.6788 21.7645 18.3099 21.7176 18.2688L21.7175 18.2687L21.373 17.9533L21.7669 17.7014C22.6445 17.1407 23.5482 16.0781 22.8554 14.2143C22.4084 13.003 21.3711 11.9044 19.6894 10.8531C19.1224 10.4952 18.8089 10.0747 18.8089 9.67309C18.8089 9.05276 19.3314 8.80747 19.7136 8.63321C19.7255 8.62752 19.7374 8.62183 19.7493 8.61614C19.9237 8.53283 20.0989 8.44914 20.1877 8.34719C20.4828 8.00625 20.2342 7.35277 19.9594 6.99857L19.6091 6.54018L20.1761 6.42654C20.1799 6.42654 20.1899 6.42521 20.2056 6.42312C20.2625 6.41557 20.3939 6.39812 20.5728 6.39812C20.9986 6.39812 21.8133 6.50041 22.4771 7.18514C23.0306 7.75433 23.1012 8.36045 23.0722 8.75254L23.2367 8.76201H23.2996C24.1263 8.76201 24.5213 7.89141 24.5398 7.85045L24.5401 7.84998L24.7752 7.30068L25.1506 7.76285C25.1748 7.79126 25.7283 8.47884 25.5948 9.34067C25.5048 9.91365 25.1438 10.4071 24.5226 10.8134C24.4559 10.8569 24.4075 10.8929 24.3736 10.9232C25.5384 11.3004 26.1919 12.1264 26.8795 12.9954L26.8885 13.0068L26.9881 13.1308C28.0438 14.4662 29.533 14.505 29.712 14.505H29.7139L30.22 14.4899L30.0681 14.971Z" fill="#1A1918"/>
<path fill-rule="evenodd" clip-rule="evenodd" d="M10.7837 24.8176C10.784 24.8182 10.7842 24.8185 10.7843 24.8186H10.7833L11.1481 25.3717L10.4892 25.3802C9.40156 25.3802 8.56845 25.0819 7.98884 24.49C7.64824 24.1395 7.45182 23.7437 7.33764 23.3933C7.01882 23.6645 6.61056 23.8139 6.18811 23.8138C5.89421 23.8138 5.64322 23.7534 5.59926 23.7428C5.59749 23.7424 5.59605 23.742 5.59496 23.7418L5.17308 23.63L5.35983 23.2398L5.36033 23.2387C5.38032 23.1929 5.72085 22.4123 5.34725 21.305C5.18469 20.821 5.10051 20.3882 5.06083 20.051C4.72862 20.2199 4.35916 20.3064 3.98485 20.303C2.94626 20.303 2.48516 19.5349 2.46209 19.4965L2.46182 19.4961L2.25668 19.1409L2.63502 18.9846C3.87647 18.4723 4.15224 17.0943 4.20836 16.3489C4.08151 16.3745 3.95269 16.3897 3.82325 16.3944L3.75842 16.3963C2.40763 16.3963 1.95769 15.0297 1.9393 14.971L1.78448 14.4898L2.29345 14.505C3.3658 14.4673 4.36497 13.963 5.01826 13.1298L5.11792 13.0067L5.12296 13.0004C5.81102 12.1295 6.46479 11.302 7.63276 10.9241C7.59889 10.8929 7.55245 10.8559 7.48471 10.8133C6.8635 10.407 6.50258 9.9136 6.4126 9.34062C6.2781 8.47879 6.83157 7.79121 6.85383 7.76375L7.23313 7.29968L7.46633 7.84898L7.46662 7.84962C7.48616 7.89273 7.88022 8.76196 8.70875 8.76196H8.76971L8.93324 8.75249C8.90518 8.3604 8.97775 7.75428 9.53122 7.18414C10.196 6.50035 11.0088 6.39807 11.4345 6.39807C11.6361 6.39807 11.7767 6.41948 11.8181 6.4258C11.8236 6.42664 11.8274 6.42721 11.8293 6.42743L12.4002 6.53918L12.047 6.99851C11.7722 7.35272 11.5235 8.0062 11.8196 8.34714C11.9081 8.44978 12.0851 8.53392 12.2615 8.61779C12.2722 8.62291 12.283 8.62803 12.2938 8.63316C12.676 8.80742 13.1966 9.05271 13.1966 9.67304C13.1966 10.0755 12.886 10.4951 12.318 10.8521C10.6343 11.9043 9.59896 13.002 9.15095 14.2142C8.45911 16.0781 9.35996 17.1407 10.2415 17.7014L10.6343 17.9533L10.2898 18.2677C9.98325 18.5289 9.6017 18.691 9.1974 18.7318C9.07935 18.7393 8.96807 18.746 8.86067 18.746C8.51701 18.7474 8.17512 18.6979 7.8466 18.5992C7.92952 18.7423 8.02572 18.8777 8.13399 19.0036C8.63521 19.5813 9.25352 19.8446 10.1389 19.8597L10.4717 19.8645L10.494 20.194C10.4979 20.2603 10.523 20.8712 9.94246 21.3902C9.85247 21.4707 9.747 21.537 9.63282 21.591C10.0276 21.9442 10.4282 22.5579 10.5066 23.6111C10.5716 24.4663 10.7712 24.7969 10.7837 24.8176ZM10.4648 25.023C7.46708 25.023 7.54352 22.464 7.54352 22.464C7.54352 22.464 7.33451 23.2216 6.49849 23.4196C6.39733 23.4449 6.29326 23.4573 6.18885 23.4565C5.91889 23.4565 5.68569 23.3931 5.68569 23.3931C5.68569 23.3931 6.12209 22.4744 5.68763 21.1883C5.32864 20.1219 5.38767 19.3311 5.38767 19.3311C5.38767 19.3311 4.98417 19.9382 3.98172 19.9448H3.97204C3.13893 19.9448 2.7751 19.315 2.7751 19.315C4.7713 18.4891 4.57584 15.825 4.57584 15.825C4.57584 15.825 4.31652 16.0182 3.81045 16.0362H3.7582C2.65512 16.0362 2.28258 14.8637 2.28258 14.8637H2.30484C2.50804 14.8637 4.14331 14.8164 5.30058 13.3522L5.39856 13.2282C6.11805 12.317 6.74032 11.5289 7.91895 11.2099L8.04184 11.1882L8.06893 11.065C8.1028 10.8785 7.97411 10.7023 7.68189 10.5129C5.98082 9.40483 7.13518 7.98991 7.13518 7.98991C7.13518 7.98991 7.61899 9.12071 8.70853 9.12071L8.78787 9.11976L8.8169 9.11822C8.92982 9.11226 9.0411 9.10638 9.15073 9.08283L9.35103 9.04495C9.35103 9.04495 9.03945 8.20489 9.79033 7.43493C10.2971 6.91353 11.033 6.66862 11.7594 6.77955C11.385 7.26919 11.1131 8.08083 11.5466 8.58088C11.6918 8.74723 11.9177 8.85234 12.1402 8.95583C12.4927 9.11982 12.8364 9.27974 12.8364 9.67285C12.8364 9.94466 12.5819 10.2619 12.1242 10.5461C10.7473 11.4088 9.38102 12.5548 8.81206 14.089C8.1028 16.0031 8.90302 17.2731 10.0467 18.0023C10.0467 18.0023 9.68679 18.33 9.16718 18.3717C9.06074 18.3821 8.95914 18.3869 8.86045 18.3869C7.7651 18.3869 7.19905 17.8754 7.19905 17.8754C7.19905 17.8754 7.29291 18.5819 7.85993 19.2392C8.38922 19.8453 9.07913 20.2024 10.1338 20.2166C10.1338 20.2166 10.1677 20.7034 9.7013 21.1258C9.40134 21.391 8.7124 21.4771 8.7124 21.4771C8.7124 21.4771 10.0051 21.7385 10.1474 23.6365C10.2248 24.665 10.486 25.023 10.486 25.023H10.4648ZM26.1135 15.8223V15.8173H26.1125L26.1135 15.8223ZM26.1135 15.8363V15.8223C26.5736 18.2076 27.5949 18.8195 27.5949 18.8195C26.7821 18.4199 26.2683 17.362 26.1435 16.9803C26.009 19.08 24.9794 20.5375 23.7747 21.9401C23.1506 22.6675 22.9329 23.3749 22.9329 23.3749C22.9329 23.3749 23.0529 22.5737 23.5928 21.9212C24.7162 20.5782 25.7845 18.9057 25.8638 16.9727C25.918 15.6232 25.5697 14.5293 25.0249 13.6267C25.3297 14.5662 25.2862 15.716 24.2527 16.79C24.2527 16.79 26.3109 14.337 23.4341 11.8216C22.6164 11.1411 21.7435 10.6452 21.0741 10.265C20.8017 10.1103 20.563 9.9747 20.3755 9.85361C22.7181 10.6141 23.8618 9.7769 23.8618 9.7769C23.1139 10.4228 22.1453 10.4114 21.5444 10.3186C21.7178 10.4013 21.8894 10.4875 22.0592 10.5772C24.035 11.6455 25.8096 13.4023 26.1135 15.8363ZM25.8763 11.072C26.3795 11.3391 26.6737 11.6971 26.931 12.0144L26.9354 12.0197C27.1854 12.3275 27.4248 12.6221 27.798 12.7455C27.9316 12.791 28.0738 12.8127 28.218 12.8127C28.7802 12.8127 29.3462 12.4699 29.561 11.9945L29.7768 11.519L29.2543 11.4878C29.2301 11.4878 28.5576 11.4262 27.8116 10.6667C27.5039 10.3541 27.1313 10.1912 26.7317 10.1912C26.2669 10.1912 25.9171 10.4106 25.8482 10.4539L25.8396 10.4593L25.3596 10.7955L25.8763 11.072ZM26.7319 10.5493C26.9835 10.5493 27.2767 10.6346 27.5535 10.9196C28.4243 11.7985 29.2323 11.8478 29.2323 11.8478C29.0852 12.1717 28.6594 12.4567 28.2182 12.4567C28.1137 12.457 28.01 12.4397 27.9115 12.4056C27.6363 12.3132 27.4423 12.0742 27.2106 11.7889C26.9388 11.4541 26.6151 11.0555 26.0478 10.7549C26.0478 10.7549 26.341 10.5493 26.7319 10.5493Z" fill="#1A1918"/>
<path fill-rule="evenodd" clip-rule="evenodd" d="M15.0261 9.18883C15.2242 9.34562 15.3487 9.38612 15.3764 9.39513C15.3798 9.39624 15.3818 9.39687 15.3822 9.39718L15.4702 9.43791V8.98331L14.6478 8.63953C14.6478 8.63953 14.6555 8.90281 15.0251 9.18883H15.0261ZM6.14435 16.973C6.08822 15.6234 6.43657 14.5296 6.98133 13.627C6.6775 14.5665 6.71911 15.7163 7.75349 16.7902C7.75349 16.7902 5.69537 14.3373 8.57306 11.8219C9.39171 11.1412 10.2642 10.6452 10.9331 10.265C11.205 10.1104 11.4433 9.97488 11.6307 9.85389C9.2891 10.6144 8.14538 9.77812 8.14538 9.77812C8.89238 10.4221 9.86096 10.4117 10.4619 10.318L10.4175 10.3396C10.2684 10.4125 10.1125 10.4887 9.94708 10.5775C7.97121 11.6457 6.1966 13.4026 5.89276 15.8356V15.8166C5.43411 18.2071 4.41231 18.8198 4.41231 18.8198C5.22511 18.4211 5.73698 17.3613 5.8618 16.9806C5.99727 19.0803 7.02681 20.5378 8.23053 21.9404C8.85561 22.6678 9.07526 23.3752 9.07526 23.3752C9.07526 23.3752 8.95334 22.574 8.41147 21.9215C7.28904 20.5785 6.22272 18.906 6.14435 16.973ZM4.2081 12.7461C4.07457 12.7915 3.9333 12.8133 3.78816 12.8133V12.8124C3.22597 12.8124 2.66088 12.4695 2.44511 11.9951L2.23126 11.5187L2.75378 11.4874C2.777 11.4874 3.44756 11.4259 4.19553 10.6663C4.50226 10.3547 4.87479 10.1909 5.27635 10.1909C5.74757 10.1909 6.10002 10.4164 6.161 10.4554L6.16656 10.4589L6.64747 10.7951L6.12882 11.0717C5.63064 11.3361 5.34114 11.6906 5.08469 12.0046L5.08469 12.0046L5.08469 12.0046L5.07702 12.014L5.06265 12.0316C4.81445 12.3349 4.57833 12.6234 4.2081 12.7461ZM5.27637 10.5498C5.02286 10.5498 4.73064 10.635 4.45196 10.9191C3.58305 11.798 2.77509 11.8473 2.77509 11.8473C2.92023 12.1712 3.34791 12.4553 3.78818 12.4553C3.89194 12.4564 3.99509 12.4397 4.09298 12.406C4.36879 12.3132 4.56355 12.0737 4.79594 11.7879C5.06821 11.4531 5.39213 11.0548 5.95854 10.7544C5.95854 10.7544 5.66439 10.5498 5.27637 10.5498ZM15.3262 12.5327V12.0497H16.7389V12.5317C16.5725 12.33 16.2493 12.3707 16.2493 12.3707V13.0668C16.2493 13.0668 16.2619 13.4087 16.3818 13.5574H15.6832C15.8061 13.4087 15.8158 13.0668 15.8158 13.0668V12.3717C15.8158 12.3717 15.4936 12.33 15.3262 12.5327ZM17.358 8.63953C17.358 8.63953 17.3503 8.90281 16.9787 9.18883H16.9797C16.7786 9.34734 16.6542 9.38699 16.6278 9.39541C16.6249 9.39635 16.6231 9.3969 16.6227 9.39718L16.5356 9.43791V8.98331L17.358 8.63953Z" fill="#1A1918"/>
<path fill-rule="evenodd" clip-rule="evenodd" d="M16.0069 6.03003C17.2938 6.03003 18.4598 6.64941 18.4598 7.33888L18.4346 7.50841L17.9208 10.4443L18.4346 10.7427L19.7728 11.5183H19.768C19.768 11.5183 20.0679 11.6717 20.2054 11.7664C20.7172 12.1187 20.8237 12.6311 20.5276 12.8433C20.455 12.4247 20.1231 11.9881 19.5019 11.9881C19.0539 11.9881 18.7133 12.2163 18.4346 12.5629C18.3649 12.6501 18.2982 12.7429 18.2353 12.8433C18.1579 12.9692 18.0805 13.08 18.0031 13.187H21.4439C21.1904 13.6928 20.9504 14.2288 20.9504 14.8103V22.3888C20.9504 24.2223 19.5348 25.0974 18.0011 25.0974C17.9125 25.0974 17.8297 25.0971 17.7519 25.0968C16.7882 25.0934 16.6066 25.0927 16.0049 25.6922C15.4006 25.0927 15.2179 25.0934 14.2556 25.0968C14.178 25.0971 14.0952 25.0974 14.0068 25.0974C12.4731 25.0974 11.0565 24.2223 11.0565 22.3878V14.8103C11.0565 14.2288 10.8156 13.6928 10.563 13.187H14.0039C13.9265 13.08 13.8491 12.9692 13.7717 12.8433C13.7088 12.7429 13.641 12.6501 13.5694 12.5629C13.2946 12.2182 12.9531 11.9881 12.5051 11.9881C11.8829 11.9881 11.551 12.4247 11.4784 12.8433C11.1833 12.6311 11.2917 12.1187 11.7997 11.7664C11.939 11.6727 12.2399 11.5193 12.2399 11.5193H12.2351L13.5704 10.7427L14.0861 10.4443L13.5723 7.50935L13.5472 7.33888C13.5472 6.64941 14.7132 6.03003 16.0001 6.03003H16.0069ZM14.0233 7.20106L16.0021 7.9786H16.0031L17.9828 7.20106C17.8154 6.80424 17.0384 6.46613 16.0031 6.46518C14.9677 6.46613 14.1917 6.80329 14.0233 7.20106ZM16.1481 11.1146L17.4786 10.4175L17.9537 7.68048L16.1481 8.2904V11.1146ZM18.3016 11.1661L18.9112 11.5175H18.919L19.0719 11.6065C18.7284 11.7012 18.4661 11.8717 18.2455 12.0971L18.2213 12.1208C18.1698 12.1757 18.1204 12.2326 18.0733 12.2912L18.0443 12.3272C17.9975 12.3878 17.953 12.4501 17.9107 12.5138L17.8885 12.5469C17.8369 12.6243 17.7878 12.7033 17.7414 12.7837C17.3079 13.5272 16.617 13.9704 16.0026 13.9713C15.3881 13.9713 14.6963 13.5262 14.2647 12.7837C14.2185 12.7045 14.1701 12.6265 14.1196 12.5498L14.0906 12.5091C14.0494 12.4481 14.0068 12.3881 13.9628 12.3291C13.9558 12.319 13.9487 12.3106 13.9416 12.3022L13.9309 12.2893C13.8845 12.2322 13.8361 12.1766 13.7858 12.1227C13.7816 12.1185 13.7779 12.1144 13.7743 12.1103L13.7743 12.1103C13.7696 12.1051 13.7651 12.1 13.7596 12.0952C13.5353 11.8611 13.2494 11.6921 12.9333 11.6065L13.0881 11.5175H13.0949L13.7045 11.1671L14.3296 10.81L15.9997 11.7154L16.0026 11.7116L16.0074 11.7154L17.6766 10.81L18.3016 11.1661ZM20.4532 14.8097C20.4532 14.4251 20.5664 14.0378 20.7019 13.6798H17.5813C17.1033 14.1514 16.6446 14.3267 16.2344 14.3674C16.1599 14.375 16.0854 14.3797 16.0079 14.3797H15.9983C15.8477 14.3787 15.6976 14.3628 15.5503 14.3323C15.5024 14.5114 15.5153 14.7009 15.587 14.8722C15.6741 15.0616 15.8502 15.2036 16.1066 15.2983L16.1928 15.3315L16.1947 15.4253C16.2129 15.8093 16.4902 16.1345 16.873 16.2208L16.8899 16.2033L16.8899 16.2033C16.9906 16.0995 17.081 16.0062 17.1507 15.9281C17.0162 15.6118 17.0859 15.2908 17.2813 15.1326C17.2736 15.1658 17.1875 15.9547 17.8222 16.2483L17.9267 16.2975L17.8958 16.4093C17.8861 16.4415 17.6742 17.2048 18.4434 17.4889L18.5789 17.5401L18.5189 17.6717C18.5054 17.7011 18.2044 18.3934 18.9147 18.7864H20.4551V17.5694C19.9074 17.5031 19.6752 17.0646 19.6152 16.7549C19.3607 16.7114 19.1633 16.6015 19.0279 16.4235C18.7418 16.0468 18.9286 15.6993 18.9761 15.6107C18.9822 15.5995 18.9859 15.5925 18.9863 15.59C18.9863 15.5948 18.9863 16.0068 19.2427 16.2625C19.3753 16.3998 19.5545 16.4851 19.7468 16.5021L19.8591 16.5115L19.8687 16.6252C19.8707 16.6498 19.9326 17.2095 20.4551 17.2967L20.4532 14.8097ZM18.7779 24.5143L18.9501 23.6231L18.9772 23.4574C19.0831 23.4991 19.1959 23.5215 19.3101 23.5237C19.5723 23.5237 19.7262 23.3854 19.8278 23.268L19.9593 23.1165L19.8519 22.9479C19.8423 22.9308 19.6033 22.5558 19.4194 22.2982C19.3829 22.2476 19.3477 22.1962 19.3139 22.1438C19.1059 21.8322 18.8447 21.443 18.3202 21.443L18.2738 21.4439C18.1983 21.4482 18.124 21.4636 18.0531 21.4894C17.8936 21.4134 17.7187 21.3736 17.5413 21.3729C17.3245 21.3729 17.1426 21.4326 17.0217 21.4733C17.008 21.477 16.9947 21.481 16.9822 21.4848C16.9629 21.4907 16.9454 21.496 16.9307 21.4989L15.9515 21.4032C15.9389 21.4004 15.8992 21.3776 15.8508 21.3199V21.3151L16.0618 21.2299C16.0028 20.5281 15.3254 20.0962 14.9471 19.9495C14.9304 19.8748 14.8921 19.8064 14.8368 19.7525L14.6268 19.5536L14.442 19.7742L14.351 19.886L12.979 19.3263L13.8721 20.441L13.5199 20.9713C13.3912 21.1077 13.5324 21.2441 13.5324 21.2441L13.8972 21.4932L14.2746 21.354C14.2818 21.354 14.2884 21.3549 14.2953 21.3559L14.2953 21.3559C14.3004 21.3566 14.3056 21.3573 14.3114 21.3577C14.3004 21.3899 14.2882 21.4759 14.2769 21.5558C14.2682 21.6169 14.26 21.6744 14.2533 21.7015L13.5992 21.5737L12.9122 21.9591C12.6011 22.1848 12.489 22.59 12.6413 22.9384L12.7167 23.1041L12.8261 23.3381L13.066 23.2396L13.0757 23.2348C12.9886 23.5095 13.0235 23.7718 13.1783 23.9433L13.3234 24.126L13.5189 24.3704L13.7318 24.1421C13.7937 24.0796 13.9979 23.8533 14.0608 23.6591L14.1072 23.5104L14.0027 23.3968L13.9853 23.376L14.1024 23.1828L14.9568 23.3835L15.1493 23.428L15.2509 23.2595L15.307 23.1685C15.3177 23.1496 15.3206 23.1458 15.3593 23.1458C15.3903 23.1458 15.4203 23.1487 15.4532 23.1562C15.7754 23.2168 16.0724 23.2462 16.3366 23.2462C16.592 23.2462 16.7449 23.2367 16.9268 23.1771L17.4019 23.715L17.1213 24.5768L17.1087 24.6299C16.5766 24.6725 16.3172 24.789 16.0047 25.0996C15.5499 24.6507 15.2277 24.6043 14.0066 24.6043C12.5435 24.6043 11.5527 23.751 11.5527 22.3882V19.0545H20.4548L20.4567 22.3882C20.4567 23.4924 19.8045 24.2634 18.7779 24.5153V24.5143ZM13.3411 22.7463L13.2946 22.6308C13.2627 22.556 13.2666 22.4745 13.3304 22.43L13.7049 22.1724L14.33 22.2927C14.2596 22.1969 14.2239 22.081 14.2284 21.9631L13.6304 21.8372L13.0672 22.1781C12.8641 22.3291 12.7905 22.5952 12.8882 22.8259L12.9637 22.9897C12.9637 22.9897 13.3101 22.8467 13.3411 22.7463ZM18.6845 23.5729L18.4919 24.5692C18.369 24.5862 18.2403 24.5957 18.1058 24.6004L18.309 23.643C18.3383 23.5045 18.1708 23.4124 17.9475 23.2895C17.7126 23.1603 17.4159 22.9971 17.2214 22.7101C17.0366 22.9165 16.6873 22.9791 16.337 22.9791C16.0568 22.975 15.7775 22.9452 15.503 22.89C15.4557 22.8819 15.4078 22.8775 15.3597 22.8768C15.2428 22.8698 15.1321 22.9286 15.0743 23.0283L15.0191 23.123L13.9722 22.8777L13.7119 23.3067C13.6761 23.3768 13.6732 23.4346 13.7322 23.4999L13.8029 23.5767C13.7545 23.7282 13.5368 23.9583 13.5368 23.9583L13.381 23.7642C13.2581 23.6278 13.2774 23.3759 13.4061 23.1448L13.8212 22.4468L14.7076 22.5747L14.5702 22.2621C14.4408 21.9725 14.5399 21.6282 14.6216 21.344C14.6567 21.2221 14.6886 21.1112 14.6979 21.0205C14.6873 21.1114 14.6021 21.1323 14.5044 21.1323C14.4567 21.1323 14.4059 21.1274 14.3588 21.1228H14.3588H14.3588C14.318 21.1189 14.2799 21.1152 14.2489 21.1152C14.2228 21.1152 14.2005 21.1181 14.1889 21.1266L13.948 21.2724L13.7593 21.1048C13.7361 21.0735 13.7293 20.9978 13.7845 20.9419L14.2228 20.4523L13.7051 19.8499L14.4308 20.2127L14.6514 19.9456C14.7124 20.0053 14.6863 20.1596 14.6863 20.1596C14.9127 20.1653 15.5475 20.5148 15.5813 21.3312C15.5833 21.3558 15.5833 21.3832 15.5833 21.4107L15.5997 21.4372C15.6442 21.4988 15.769 21.656 15.9258 21.6712L16.9283 21.7696H16.9331C16.9751 21.7696 17.0334 21.7506 17.1052 21.7272C17.2203 21.6897 17.3699 21.6408 17.5427 21.6408C17.6956 21.6408 17.8649 21.6797 18.0458 21.7933C18.0458 21.7933 18.1387 21.7213 18.2858 21.7147C18.2974 21.7128 18.31 21.7128 18.3207 21.7128C18.6997 21.7128 18.892 21.9998 19.0872 22.2913C19.1237 22.3458 19.1603 22.4005 19.1983 22.4534C19.3802 22.7091 19.6231 23.0889 19.6231 23.0889C19.5331 23.195 19.4499 23.2537 19.3105 23.2537C19.267 23.254 19.2235 23.2498 19.1809 23.2414C18.904 23.1902 18.7632 22.8426 18.6412 22.5414C18.5509 22.3184 18.4709 22.1209 18.3535 22.0879C18.3394 22.084 18.3247 22.0821 18.31 22.0822C18.222 22.0822 18.1832 22.1608 18.1832 22.1608C18.2428 22.3199 18.2577 22.4342 18.2712 22.538C18.2862 22.6536 18.2996 22.7562 18.371 22.8929C18.456 23.0554 18.5978 23.1935 18.684 23.2776L18.684 23.2776C18.6998 23.293 18.7137 23.3065 18.7251 23.3181C18.7251 23.3181 18.7058 23.464 18.6845 23.5729ZM17.3893 24.614C17.5128 24.6094 17.6364 24.6072 17.7599 24.6074C17.87 24.2839 17.9835 23.9616 18.1005 23.6404C17.9206 23.5618 17.5461 23.3629 17.401 23.273C17.4321 23.3192 17.4778 23.3676 17.5236 23.4161L17.5236 23.4161C17.6185 23.5167 17.7142 23.618 17.6835 23.7029L17.3893 24.614ZM13.3935 16.4027L13.3935 16.4017L13.5744 16.4301L14.0157 14.911L13.7922 14.4441L13.4351 14.8192L13.3935 16.4017L13.3935 16.4017V16.4027ZM13.8874 17.1425C13.8139 17.0961 13.7084 17.0146 13.6504 16.8934C13.5836 16.7532 13.4878 16.6869 13.3475 16.6869C13.1656 16.6869 12.9711 16.7958 12.8879 16.847C12.8202 17.2372 13.1104 17.5914 13.304 17.6633C13.4648 17.7148 13.6331 17.7403 13.8023 17.7391C13.8087 17.7228 13.8138 17.706 13.8178 17.6889C13.8279 17.6565 13.8366 17.6236 13.8439 17.5904C13.8739 17.4332 13.8855 17.2561 13.8874 17.1425ZM17.7831 17.3182C17.5083 17.519 16.8019 18.0333 16.5445 18.2113L14.0761 17.77L14.0926 17.7037C14.1255 17.5768 14.1584 17.4025 14.1603 17.198L16.2359 17.2311L16.2746 17.1913C16.2794 17.1865 16.2983 17.1681 16.3281 17.1392L16.3282 17.1391C16.497 16.9753 17.0148 16.4728 17.2993 16.1638C17.3786 16.2632 17.4783 16.3579 17.6089 16.4412C17.5644 16.6837 17.5838 17.0284 17.7831 17.3182ZM15.289 14.2566C15.0132 14.1562 14.7229 13.9734 14.4259 13.6798H11.3063C11.4398 14.0378 11.553 14.4251 11.553 14.8097V18.7874H18.4773C18.1309 18.4313 18.1367 17.9814 18.2238 17.6888C18.1231 17.6414 18.0399 17.5836 17.9654 17.5202C17.6955 17.7181 16.8701 18.3157 16.6533 18.4672L16.6069 18.4976L13.8908 18.0089H13.8347C13.7698 18.0089 13.674 18.006 13.5705 17.9937C13.5443 18.1127 13.4374 18.198 13.3131 18.1992C13.2268 18.1997 13.146 18.1582 13.0973 18.0884C13.0544 18.0313 13.0369 17.9595 13.049 17.8895L13.0586 17.8318C12.78 17.6348 12.5206 17.1963 12.6348 16.7332L12.6464 16.6849L12.6861 16.6564C12.7258 16.6292 12.7668 16.6039 12.809 16.5807L12.6116 16.5504C12.5381 16.5381 12.4877 16.4689 12.4994 16.396C12.5119 16.3221 12.5816 16.27 12.6542 16.2842L13.1244 16.3581L13.167 14.7102L13.8676 13.9734L14.3049 14.8883L13.8434 16.4737L14.2585 16.539C14.3329 16.5516 14.383 16.6205 14.3707 16.6934C14.3611 16.7577 14.3046 16.8054 14.2382 16.8051C14.2311 16.8054 14.2239 16.805 14.2169 16.8042L13.8782 16.7502C13.8803 16.7548 13.8828 16.7583 13.8853 16.7617C13.8884 16.7661 13.8915 16.7704 13.8937 16.7767C13.931 16.8417 13.9877 16.8939 14.0563 16.9264L16.127 16.9586C16.215 16.8733 16.4327 16.6621 16.6562 16.4377C16.1463 16.2454 15.9615 15.8088 15.9296 15.5181C15.6451 15.3978 15.4487 15.2169 15.3393 14.982C15.2067 14.6903 15.2542 14.3986 15.289 14.2566ZM14.0513 7.67944L15.8588 8.28935V11.1145L14.5283 10.4174L14.0513 7.68038V7.67944Z" fill="#1A1918"/>
</svg>
