<svg width="32" height="32" viewBox="0 0 32 32" fill="none" xmlns="http://www.w3.org/2000/svg">
<path fill-rule="evenodd" clip-rule="evenodd" d="M16.0223 2.00023C16.0149 2.00007 16.0074 1.99999 16 2C15.9926 1.99999 15.9851 2.00007 15.9777 2.00023C8.25596 2.01227 2 8.27566 2 16.0002C2 23.7242 8.25511 29.9873 15.9761 30.0002C15.9841 30.0004 15.9921 30.0005 16 30.0005C16.008 30.0005 16.0159 30.0004 16.0239 30.0002C23.7449 29.9873 30 23.7242 30 16.0002C30 8.27567 23.7441 2.01229 16.0223 2.00023ZM27.9337 14.9882H24.0718C23.8758 10.9757 22.508 7.32412 20.0192 4.71541C24.3526 6.25892 27.5354 10.2277 27.9337 14.9882ZM27.9337 17.0123C27.5354 21.7727 24.3527 25.7415 20.0192 27.285C22.508 24.6763 23.8758 21.0247 24.0718 17.0123H27.9337ZM11.9808 27.285C9.49202 24.6763 8.12418 21.0248 7.92818 17.0123H4.06626C4.46459 21.7727 7.64735 25.7415 11.9808 27.285ZM4.06626 14.9882H7.92818C8.12419 10.9757 9.49204 7.32411 11.9809 4.7154C7.64738 6.2589 4.46459 10.2277 4.06626 14.9882ZM17.0122 4.78312C20.0346 6.92058 21.8099 10.5979 22.0454 14.9882H17.0122V4.78312ZM14.9881 4.78299V14.9882H9.95461C10.1901 10.5978 11.9655 6.92042 14.9881 4.78299ZM14.9881 17.0123H9.95461C10.1901 21.4027 11.9655 25.08 14.9881 27.2175V17.0123ZM22.0454 17.0123H17.0122V27.2173C20.0346 25.0799 21.8099 21.4026 22.0454 17.0123Z" fill="#CCCCCC"/>
</svg>
