<svg width="32" height="32" viewBox="0 0 32 32" fill="none" xmlns="http://www.w3.org/2000/svg">
<path fill-rule="evenodd" clip-rule="evenodd" d="M10.117 16.0002C10.117 10.6073 14.5213 6.2063 20.0581 6.2063C25.532 6.2063 30.0621 10.6073 29.9992 16.0002C29.9992 21.3929 25.532 25.794 20.0581 25.794C14.5842 25.794 10.117 21.455 10.117 16.0002ZM16.3459 16.0002C16.3459 17.9837 18.0447 19.6573 20.0581 19.6573C22.1344 19.6573 23.7703 17.9837 23.7703 16.0002C23.7703 14.0166 22.0715 12.343 20.0581 12.343C18.0447 12.343 16.3459 14.0166 16.3459 16.0002ZM10.1165 23.3143V9.05748H2L6.53014 23.3143H10.1165Z" fill="#8B3FFD"/>
</svg>
