<svg width="32" height="32" viewBox="0 0 32 32" fill="none" xmlns="http://www.w3.org/2000/svg">
<circle cx="16" cy="16" r="14" fill="white"/>
<path fill-rule="evenodd" clip-rule="evenodd" d="M15.999 2C8.26895 2 2 8.26808 2 15.9985C2 23.7309 8.26895 30 15.999 30C23.7301 30 30 23.7309 30 15.9985C30 8.26808 23.731 2 15.999 2ZM13.052 22.8688C13.1646 22.9301 13.5456 23.1749 13.6463 23.6627C13.7125 24.0152 13.668 24.3223 13.4963 24.6077C13.287 24.9533 12.9335 25.1409 12.4863 25.1409C12.2583 25.1409 12.0233 25.0846 11.8041 24.9859L11.1496 24.6758C8.29354 23.1631 6.52145 20.1071 6.52145 16.7015V15.2974C6.52145 11.8928 8.29847 8.83478 11.1615 7.31318C11.1901 7.30331 11.8032 7.01202 11.8032 7.01202C12.0233 6.91032 12.2573 6.85799 12.4844 6.85799C12.9296 6.85799 13.287 7.05152 13.4963 7.39217C13.668 7.67457 13.7135 7.98363 13.6463 8.33515C13.5382 8.8786 13.0767 9.1196 13.0352 9.14129L13.0323 9.14285C11.3668 9.89921 10.2897 11.6153 10.2897 13.5171V18.4838C10.2897 20.3865 11.3678 22.1046 13.052 22.8679V22.8688ZM20.8504 24.6758C23.7075 23.1631 25.4786 20.108 25.4786 16.7015V15.2974C25.4786 11.8928 23.7055 8.83478 20.8366 7.31318C20.8109 7.3043 20.1959 7.01202 20.1959 7.01202C19.9807 6.91032 19.7437 6.85799 19.5137 6.85799C19.0685 6.85799 18.715 7.05152 18.5038 7.39217C18.335 7.67457 18.2886 7.98363 18.3547 8.33515C18.4618 8.87338 18.9164 9.11494 18.9646 9.1406C18.9671 9.14191 18.9685 9.14266 18.9688 9.14285C20.6342 9.89921 21.7143 11.6153 21.7143 13.5171V18.4847C21.7143 20.3865 20.6303 22.1046 18.947 22.8688C18.8345 22.9301 18.4544 23.1759 18.3557 23.6627C18.2886 24.0152 18.3359 24.3223 18.5038 24.6077C18.715 24.9533 19.0695 25.1409 19.5137 25.1409C19.7495 25.1383 19.9821 25.0855 20.1959 24.9859L20.8504 24.6758Z" fill="#0BB9EC"/>
</svg>
