<svg xmlns="http://www.w3.org/2000/svg" fill="none" viewBox="0 0 204 60">
  <path fill="#333" fill-rule="evenodd" d="M44.48 24.18c-4.74 0-6.67 3.66-6.67 6.06v1.06c0 2.8 2.73 5.85 6.67 5.85 3.66 0 6.73-2.72 6.73-5.92v-.86c0-3.2-2.53-6.19-6.73-6.19zm106.59 10.05zm-1.13-.14l1.13.14a6.77 6.77 0 01-5.6 2.92c-3.34 0-6.54-2.6-6.54-5.98v-.74c0-3.65 2.94-6.25 6.54-6.25a6.4 6.4 0 016.4 6.45h-9.67v2.07c0 1.8 1.47 3.26 3.6 3.26a5.4 5.4 0 004.14-1.87zm-38.6-9.7h11.06v2.45h-.8s-.13-1.26-1.4-1.26h-1.93v11.37h-2.74V25.58h-2c-1.06 0-1.33.86-1.4 1.26h-.8v-2.46zm23.12 0h2v12.56h-2.67v-8.78l-6.6 8.78h-2V26.71a1.58 1.58 0 00-1.26-1.66v-.67h3.93v8.85l6.6-8.85zM73.14 36.94h3.46v-.86c-.93 0-1.4-1.2-1.4-1.2l-.7-1.28c-1.33-2.45-1.68-3.09-2.43-3.38.8-.52 1.34-1.56 1.87-2.55.66-1.25 1.29-2.43 2.33-2.43v-.87H73.6c-.56 0-.69.25-1.17 1.21-.32.63-.79 1.56-1.63 2.91-.66 1.07-1.46 1.13-1.46 1.13h-1.2v-5.25h-4.07v.74s1.33.13 1.33 1.59v10.24h2.74V30.9h1c.8 0 1.53 1.4 1.53 1.4l2.47 4.65zm69.06-7.58h6.53v-.67a3.27 3.27 0 00-6.53 0v.67zm-56.18-5.19c-1.53 0-3 .67-3.67 1.6v-1.4h-4v.73s1.27.2 1.27 1.6v15.97h2.73v-7.06a4.53 4.53 0 003.47 1.53c3.53-.06 5.93-2.8 5.93-6.18v-.8c0-3.66-2.26-5.99-5.73-5.99zm-.34 11.64c1.74-.07 2.87-1.6 2.87-3.19v-3.99c-.07-3.06-2.6-3.2-2.6-3.2h-.53a3.16 3.16 0 00-3.07 2.67v5.39c.2 1.2 1.54 2.32 3.07 2.32h.26zm-41.2.13c2.06 0 3.46-1.6 3.46-3.39v-3.92c0-1.8-1.4-3.26-3.46-3.26-1.88 0-3.4 1.4-3.4 3.19v4c0 1.79 1.33 3.38 3.4 3.38zm64.99-11.57h-4v.73s1.33.2 1.33 1.67v10.17h2.67V24.38zm-11.74 0v4.8H101c2.6 0 4.27 1.38 4.27 3.65v.6c0 2.06-1.73 3.52-4.13 3.52h-6.2V26.71c0-1.46-1.2-1.6-1.2-1.6v-.73h4zm0 11.31v-5.26h2.33c1.27 0 2.27 1 2.27 2.47v.53c0 1.2-1.13 2.26-2.33 2.26h-2.27zm-34.99-11.3H51.68v2.45h.8c.06-.4.33-1.26 1.4-1.26h2v11.37h2.73V25.58h1.93c1.27 0 1.4 1.26 1.4 1.26h.8v-2.46z" clip-rule="evenodd"/>
  <circle cx="15" cy="31" r="15" fill="#fff"/>
  <path fill="#0BB9EC" fill-rule="evenodd" d="M15 16a15 15 0 100 30 15 15 0 000-30zm-3.16 22.36c.12.07.53.33.64.85.07.38.02.7-.16 1.01-.23.37-.6.57-1.08.57-.25 0-.5-.06-.74-.16l-.7-.33a9.56 9.56 0 01-4.96-8.55v-1.5c0-3.65 1.9-6.93 4.98-8.56.03 0 .68-.32.68-.32.24-.1.49-.16.73-.16.48 0 .86.2 1.09.57.18.3.23.63.16 1-.12.59-.61.85-.66.87a5.12 5.12 0 00-2.94 4.69v5.32a5.13 5.13 0 002.96 4.7zm8.36 1.94a9.56 9.56 0 004.96-8.55v-1.5a9.58 9.58 0 00-5.66-8.88c-.24-.1-.49-.16-.74-.16-.47 0-.85.2-1.08.57-.18.3-.23.63-.16 1 .12.58.6.84.66.87a5.12 5.12 0 012.94 4.69v5.32a5.14 5.14 0 01-2.96 4.7 1.3 1.3 0 00-.64.85c-.07.38-.02.7.16 1.01.23.37.6.57 1.08.57.26 0 .5-.06.74-.16l.7-.33z" clip-rule="evenodd"/>
</svg>
