<svg xmlns="http://www.w3.org/2000/svg" fill="none" viewBox="0 0 204 60">
  <path fill="#2B2D33" fill-rule="evenodd" d="M67.24 26.75v3.34h1.47v7.16h4.13V30.1h3.87v7.16h4.26v-7.2h2.66V26.8h-2.77v-2.35c-.07-.85 1.96-1.2 2.65-.5V20.5c-3.91-1.23-7.08.98-7.06 4.38v1.86H72.8v-2.3c-.05-.85 1.73-1.2 2.75-.5V20.5c-3.4-1-7.04.65-7.02 4.36v1.86l-1.3.02zm-.68-3.76a2.25 2.25 0 10-4.5 0 2.25 2.25 0 004.5 0zM34.88 37.25V22.13h6.01c5.25.07 7.11 6.66 2.12 9.07l4.32 6.05h-4.85l-3.5-4.91v4.91h-4.1zm4.1-8.46v-3.34h1.44c1.45.14 1.99 2.97 0 3.34h-1.44zm14.01-2.44a5.3 5.3 0 013.03.98v-.58h4.01l.03 10.5H56l.02-.65c-.88.62-1.94.96-3.03.95a5.52 5.52 0 01-5.43-5.58 5.54 5.54 0 015.43-5.62zm3.31 5.62c0-1.26-1.1-2.28-2.44-2.28-1.33 0-2.43 1.02-2.43 2.28 0 1.25 1.1 2.27 2.43 2.27 1.35 0 2.44-1.02 2.44-2.27zm5.88-5.22h4.27v10.5h-4.27v-10.5zm34.53 0h4.27v10.5H96.7v-10.5zm4.39-3.76a2.25 2.25 0 10-4.5 0 2.25 2.25 0 004.5 0zm-5.58 10.83c-.79 2.2-2.14 3.71-5.8 3.73-3.27.03-5.92-2.4-5.92-5.51s2.28-5.66 5.92-5.66c3.63 0 5.92 2.02 5.92 6.28h-7.83c-.12 1.74 2.33 3.3 4 1.16h3.71zm-7.18-3.64c.05-1.27 2.85-1.27 3.03 0h-3.03zm36.26 3.64c-.8 2.2-2.15 3.71-5.83 3.73-3.27.03-5.92-2.4-5.92-5.51s2.28-5.66 5.92-5.66c3.66 0 5.92 2.02 5.92 6.28h-7.83c-.12 1.74 2.33 3.3 4 1.16h3.74zm-7.2-3.64c.04-1.27 2.84-1.27 3.02 0h-3.03zm-6.93-.67l1.26-2.55c-1.47-.47-2.9-.7-4.27-.6-3.9.04-5.25 4.56-2.87 6.02.57.43 1.3.6 1.94.74.84.2 1.51.35 1.42 1.03-.14.95-2 .39-3.94-.56l-1.38 2.74a9.41 9.41 0 004.23 1.22c6.17.51 6.48-6.3 2.8-6.88-2.22-.31-2.25-.74-2.26-1.02v-.1c-.06-.44 1.48-.53 3.07-.04zm15.86-2.76v10.5h3.98v-6.42c.12-1.6 3.29-1.88 3.31 0v6.42h4.04v-6.58c-.1-3.69-4-5.47-7.51-3.13v-.8h-3.83z" clip-rule="evenodd"/>
  <path fill="#FEE600" fill-rule="evenodd" d="M0 23a7 7 0 017-7h12.81a7 7 0 017 7v12.67a7 7 0 01-7 7H7a7 7 0 01-7-7V23z" clip-rule="evenodd"/>
  <path fill="#FEE600" fill-rule="evenodd" d="M1.49 29.33A11.9 11.9 0 0113.4 17.48a11.9 11.9 0 0111.91 11.85A11.9 11.9 0 0113.41 41.2 11.9 11.9 0 011.49 29.33z" clip-rule="evenodd"/>
  <path fill="#2B2D33" fill-rule="evenodd" d="M5.34 35.45l2.38 2.43 5.58-5.67L19.06 38l2.42-2.4-5.7-5.71 1.09-1.07v-2.27l.69-.58v1.78l.88.72 2.65-2.65.85.65c.5-1.86-2.4-6.08-4.8-3.74l-2.8 2.78.57.7-1.43 1.38-1.37-1.35.72-.66-3.07-2.97c-2.3-1.9-4.68 1-4.76 3.83l.84-.7 2.58 2.78.92-.77v-1.71l.57.43v2.23l1.12 1.13-5.7 5.62z" clip-rule="evenodd"/>
</svg>
