<svg width="32" height="32" viewBox="0 0 32 32" fill="none" xmlns="http://www.w3.org/2000/svg">
<path fill-rule="evenodd" clip-rule="evenodd" d="M7 4C5.34315 4 4 5.34315 4 7V25C4 26.6569 5.34315 28 7 28H25C26.6569 28 28 26.6569 28 25V7C28 5.34315 26.6569 4 25 4H7ZM9.87968 24.8763L7.35867 22.2923L13.3872 16.3165L12.201 15.1236V12.7502L11.5957 12.291V14.1047L10.6201 14.9252L7.88905 11.9677L7 12.7129C7.08708 9.70692 9.5953 6.62504 12.0414 8.65065L15.2907 11.806L14.5247 12.5016L15.9825 13.9431L17.4896 12.4649L16.8843 11.7319L19.8498 8.77495C22.3946 6.29071 25.4716 10.7755 24.9394 12.7508L24.0381 12.0552L21.234 14.875L20.2944 14.1047V12.2169L19.5655 12.8378V15.2479L18.4042 16.3789L24.4461 22.4533L21.8886 25L15.7852 18.8509L9.87968 24.8763Z" fill="white"/>
</svg>
