<svg width="12" height="12" viewBox="0 0 12 12" fill="none" xmlns="http://www.w3.org/2000/svg">
<path fill-rule="evenodd" clip-rule="evenodd" d="M7.83783 8.71631L8.6143 5.01043H11.9188C11.9722 5.33235 12 5.66293 12 6C12 9.31371 9.31371 12 6 12C2.68629 12 0 9.31371 0 6C0 2.68629 2.68629 0 6 0C6.65358 0 7.28276 0.104502 7.87173 0.29771L7.22018 3.42219H3.779L3.42606 5.01043H6.88488L6.09077 8.71631H7.83783ZM9.45303 1.0926L8.96724 3.42219H11.4196C10.9737 2.48655 10.2927 1.68453 9.45303 1.0926Z" fill="url(#paint0_radial)"/>
<path fill-rule="evenodd" clip-rule="evenodd" d="M7.83783 8.71631L8.6143 5.01043H11.9188C11.9722 5.33235 12 5.66293 12 6C12 9.31371 9.31371 12 6 12C2.68629 12 0 9.31371 0 6C0 2.68629 2.68629 0 6 0C6.65358 0 7.28276 0.104502 7.87173 0.29771L7.22018 3.42219H3.779L3.42606 5.01043H6.88488L6.09077 8.71631H7.83783ZM9.45303 1.0926L8.96724 3.42219H11.4196C10.9737 2.48655 10.2927 1.68453 9.45303 1.0926Z" fill="url(#paint1_radial)"/>
<defs>
<radialGradient id="paint0_radial" cx="0" cy="0" r="1" gradientUnits="userSpaceOnUse" gradientTransform="translate(12) rotate(135) scale(16.9706 25.6847)">
<stop stop-color="#48CCE0"/>
<stop offset="0.288462" stop-color="#428BEB"/>
<stop offset="0.601763" stop-color="#505ADD"/>
</radialGradient>
<radialGradient id="paint1_radial" cx="0" cy="0" r="1" gradientUnits="userSpaceOnUse" gradientTransform="translate(-1.01453e-06 12) scale(12 34.042)">
<stop stop-color="#FCAB14"/>
<stop offset="0.159058" stop-color="#FA6641"/>
<stop offset="0.402081" stop-color="#BE40C0"/>
<stop offset="1" stop-color="#505ADD" stop-opacity="0"/>
</radialGradient>
</defs>
</svg>
