<svg xmlns="http://www.w3.org/2000/svg" fill="none" viewBox="0 0 204 60">
  <path fill="#009A82" fill-rule="evenodd" d="M15.38 25.52c2.27-.5 5.12-.94 5.44-3.78H3.12A3.29 3.29 0 000 25.01v13.61c.17-.71.69-3.68 2.12-5.9a13.11 13.11 0 014.23-3.98c2.62-1.6 5.78-2.5 9.03-3.22zm11.75-3.78v13.6a3.3 3.3 0 01-3.3 3.3h-8.4c2.32-.98 6.76-3.4 6.66-6.4-.15-4.24-6.1-2.9-6.1-2.9.8 1.17 1.4 2.58.78 4.17-.78 2.03-2.84 3.45-4.82 4.13a19 19 0 01-7.1.92c.5-2.12 1.15-4.42 2.5-6.11 1.77-2.22 4.52-3.26 7.11-4.2 2.66-.98 7.22-1.4 9.76-3.15 2.53-1.76 2.9-3.36 2.9-3.36z" clip-rule="evenodd"/>
  <path fill="#636466" fill-rule="evenodd" d="M97.14 32.35h6.8v-1.07c0-2.4-.33-6.05-3.83-6.05-3.26 0-5.23 3.2-5.23 7.38 0 4.51 2.2 6.26 4.62 6.26a7.77 7.77 0 004.45-1.67l-.45-.97c-3.4 1.86-6.4 1-6.4-3.89l.04.01zm2.37-5.97c1.9 0 2.3 2.36 2.3 4.77h-4.67c.07-2.04.58-4.77 2.37-4.77zM51.66 32.35h6.8v-1.07c0-2.4-.33-6.05-3.83-6.05-3.26 0-5.23 3.2-5.23 7.38 0 4.51 2.2 6.26 4.62 6.26a7.77 7.77 0 004.45-1.67l-.45-.97c-3.4 1.86-6.4 1-6.4-3.89l.04.01zm2.37-5.97c1.9 0 2.31 2.36 2.31 4.77h-4.68c.07-2.04.58-4.77 2.37-4.77z" clip-rule="evenodd"/>
  <path fill="#636466" d="M69.2 25.52h-1.95v13.04h1.94V25.52z"/>
  <path fill="#636466" fill-rule="evenodd" d="M140.73 25.23c-1.28.03-2.55.26-3.75.7h-.05l.32 1.9h.13c.49-.36 1.63-1.27 2.67-1.3 1.94 0 2.06 1.99 2.06 2.94v1.2h-1.67c-3.57 0-4.76 1.94-4.76 4.17 0 2.5 1.24 3.99 3.23 3.99a3.71 3.71 0 003.22-1.8h.07l.19 1.55h1.76v-9.04c0-2.23-.42-4.3-3.4-4.3h-.02zm1.38 10.53s-.78 1.45-2.23 1.45-2.07-1.15-2.07-2.85a2.45 2.45 0 012.63-2.63c.72 0 1.67.09 1.67.09v3.94zM164.64 31.23l4.05-5.6v-.12h-2.04l-3.6 5.61h-.5V21h-1.95v17.56h1.94v-6.38h.49l3.86 6.37h2.41v-.12l-4.66-7.2zM68.24 21.16c-.76 0-1.24.5-1.24 1.37a1.16 1.16 0 001.24 1.26 1.24 1.24 0 001.2-1.3c0-.82-.36-1.32-1.2-1.32z" clip-rule="evenodd"/>
  <path fill="#636466" d="M63.45 21H61.5v17.56h1.95V21z"/>
  <path fill="#636466" fill-rule="evenodd" d="M110.92 31.26c-2.46-1.35-2.83-2.14-2.83-2.85a1.57 1.57 0 01.98-1.55c.2-.08.42-.12.64-.12.97.04 1.9.35 2.7.9h.14l.68-1.89a9.5 9.5 0 00-2.8-.44c-2.61 0-4.01 1.76-4.01 3.79 0 1.29.48 2.38 2.91 3.78 2.17 1.25 2.82 1.71 2.82 2.58 0 1.02-.54 1.9-1.77 1.9a5.79 5.79 0 01-3.4-1.23h-.12l-.75 1.94c1.1.55 2.32.84 3.56.84a3.93 3.93 0 004.02-4.02c0-1.72-.84-2.58-2.77-3.63zM43.93 29.17v-.05a4.67 4.67 0 002.43-3.89c0-2.1-1.28-3.54-4-3.54h-5.28v16.87h5.07a5.15 5.15 0 005.28-5.4c0-1.95-1.1-3.47-3.5-4zm-4.7-6.26h1.6c2.34 0 3.36.92 3.36 2.88a4.5 4.5 0 01-1.64 3.24h-3.33v-6.12zm2.47 14.42h-2.48v-7.08h1.42c2.81 0 4.32.95 4.32 3.35 0 1.93-.88 3.73-3.26 3.73zM78.56 25.13c-1.58.07-2.95 1.14-3.56 1.7h-.07l-.3-1.31h-1.6v13.04h1.95v-10.5c.69-.6 1.5-1.02 2.39-1.23 2.08-.3 2.75 1.05 2.75 3.84v7.9h1.97v-9.09c0-3.27-1.24-4.45-3.53-4.35zM153.27 25.13c-1.58.07-2.95 1.14-3.56 1.7h-.07l-.3-1.31h-1.6v13.04h1.95v-10.5c.69-.6 1.5-1.02 2.39-1.23 2.08-.3 2.75 1.05 2.75 3.84v7.9h1.97v-9.09c0-3.27-1.24-4.45-3.53-4.35zM129.68 25.16a5.04 5.04 0 00-3.43 1.42V21h-1.94v17.56h.6l.51-.71h.05c.82.55 1.75.9 2.72 1.03 2.89.27 5.5-2.58 5.5-7.94 0-2.84-1.22-5.78-4.01-5.78zm-.6 12.03a4.19 4.19 0 01-2.83-1.31v-8.15a4.08 4.08 0 012.16-.8c2.33-.08 3.43 1.72 3.43 5.51 0 3.26-1.02 4.75-2.75 4.75zM121.4 36.77c-1.47.72-2.44.72-2.44-1.54V26.7h2.67v-1.19h-2.67v-3.21h-.84a3.76 3.76 0 01-3.15 3.6v.8h2.05v9.38c0 1.94.76 2.91 2.03 2.91 1.27 0 2.7-1.2 2.7-1.2l-.27-1-.09-.03zM89.1 35.98h-.15l-2.63-10.46h-2.23v.09l3.84 12.97h1.66l4.09-12.98v-.08h-1.66L89.1 35.98z" clip-rule="evenodd"/>
</svg>
