<svg width="32" height="32" viewBox="0 0 32 32" fill="none" xmlns="http://www.w3.org/2000/svg">
<path fill-rule="evenodd" clip-rule="evenodd" d="M17.8718 11.0305C20.2173 10.4872 23.1591 10.0319 23.4899 7.00517H5.21246C4.34856 7.05265 3.53486 7.43903 2.93773 8.0853C2.34061 8.73157 2.00517 9.58892 2 10.482L2 14.6677V24.9845C2.1704 24.2291 2.71165 21.0678 4.19008 18.693C5.3207 16.9634 6.81226 15.5172 8.55522 14.4608C11.2615 12.7637 14.5191 11.8014 17.8718 11.0305ZM30 7V21.4869C29.9974 22.4178 29.638 23.3098 29.0004 23.968C28.3628 24.6263 27.4988 24.9973 26.5971 25H17.917C20.3225 23.9652 24.9032 21.3783 24.7979 18.1963C24.6426 13.6692 18.5033 15.092 18.5033 15.092C19.3352 16.3492 19.9417 17.8445 19.3102 19.5415C18.5033 21.7042 16.3734 23.215 14.3386 23.9393C11.979 24.745 9.49256 25.0803 7.01163 24.9276C7.5128 22.6666 8.18937 20.2193 9.5826 18.4136C11.4118 16.0492 14.2534 14.9368 16.9246 13.933C19.671 12.8982 24.3769 12.4481 26.993 10.5803C29.6091 8.71256 30 7 30 7Z" fill="white"/>
</svg>
