<svg width="16" height="16" viewBox="0 0 16 16" fill="none" xmlns="http://www.w3.org/2000/svg">
<path fill-rule="evenodd" clip-rule="evenodd" d="M13.6666 4H5.05457L4.77707 2.98251C4.61887 2.40243 4.09199 2 3.49072 2H1.99992C1.63173 2 1.33325 2.29848 1.33325 2.66667C1.33325 3.03486 1.63173 3.33333 1.99992 3.33333H3.49072L5.19823 9.59418C5.37827 10.2543 6.02882 10.671 6.70378 10.5586L13.5525 9.41711C14.1954 9.30995 14.6666 8.7537 14.6666 8.10192V5C14.6666 4.44772 14.2189 4 13.6666 4ZM4.66659 14C5.40297 14 5.99992 13.403 5.99992 12.6667C5.99992 11.9303 5.40297 11.3333 4.66659 11.3333C3.93021 11.3333 3.33325 11.9303 3.33325 12.6667C3.33325 13.403 3.93021 14 4.66659 14ZM11.3333 14C12.0696 14 12.6666 13.403 12.6666 12.6667C12.6666 11.9303 12.0696 11.3333 11.3333 11.3333C10.5969 11.3333 9.99992 11.9303 9.99992 12.6667C9.99992 13.403 10.5969 14 11.3333 14Z" fill="#9397AD"/>
</svg>
