<svg width="32" height="32" viewBox="0 0 32 32" fill="none" xmlns="http://www.w3.org/2000/svg">
<path fill-rule="evenodd" clip-rule="evenodd" d="M4 4.7662C3.99948 4.56542 4.078 4.3725 4.21859 4.22913C4.35918 4.08576 4.55056 4.00345 4.75135 4H27.2486C27.4494 4.00345 27.6408 4.08576 27.7814 4.22913C27.922 4.3725 28.0005 4.56542 28 4.7662V27.2338C28.0005 27.4346 27.922 27.6275 27.7814 27.7709C27.6408 27.9142 27.4494 27.9965 27.2486 28H4.75135C4.55056 27.9965 4.35918 27.9142 4.21859 27.7709C4.078 27.6275 3.99948 27.4346 4 27.2338V4.7662Z" fill="#004279"/>
<path d="M14.2738 8.6774C14.2896 8.67974 14.3058 8.67743 14.3203 8.67076C14.3349 8.66409 14.3472 8.65334 14.3557 8.63982C14.3643 8.6263 14.3687 8.61058 14.3685 8.59459C14.3683 8.57859 14.3634 8.56299 14.3545 8.5497L14.1817 8.18913C14.1622 8.15223 14.1334 8.12105 14.0982 8.09866C14.0629 8.07627 14.0225 8.06344 13.9807 8.06144H7.63184C7.61601 8.0591 7.59984 8.0614 7.5853 8.06807C7.57075 8.07474 7.55846 8.08549 7.5499 8.09901C7.54135 8.11254 7.53691 8.12825 7.53712 8.14425C7.53732 8.16025 7.54217 8.17584 7.55107 8.18913L7.72388 8.5497C7.74372 8.58675 7.77285 8.618 7.80841 8.64039C7.84398 8.66278 7.88476 8.67553 7.92675 8.6774H14.2738Z" fill="white"/>
<path d="M14.7657 9.41619C14.7459 9.37952 14.717 9.34853 14.6819 9.32618C14.6467 9.30383 14.6064 9.29085 14.5647 9.28849H8.21583C8.2 9.28615 8.18383 9.28845 8.16928 9.29512C8.15474 9.30179 8.14244 9.31254 8.13389 9.32606C8.12534 9.33959 8.12089 9.3553 8.1211 9.3713C8.12131 9.3873 8.12616 9.40289 8.13506 9.41619L8.30787 9.77675C8.3277 9.8138 8.35683 9.84505 8.3924 9.86744C8.42796 9.88983 8.46874 9.90258 8.51073 9.90445H14.8578C14.8736 9.90679 14.8898 9.90448 14.9043 9.89781C14.9189 9.89114 14.9311 9.88039 14.9397 9.86687C14.9483 9.85335 14.9527 9.83763 14.9525 9.82164C14.9523 9.80564 14.9474 9.79004 14.9385 9.77675L14.7657 9.41619Z" fill="white"/>
<path d="M15.3548 10.6476C15.3349 10.6111 15.306 10.5802 15.2708 10.5579C15.2357 10.5355 15.1954 10.5225 15.1538 10.5199H8.80494C8.78911 10.5176 8.77294 10.5199 8.75839 10.5266C8.74385 10.5332 8.73155 10.544 8.723 10.5575C8.71445 10.571 8.71 10.5867 8.71021 10.6027C8.71042 10.6187 8.71527 10.6343 8.72417 10.6476L8.89698 11.0082C8.9165 11.0451 8.94531 11.0763 8.98055 11.0987C9.01579 11.1211 9.05626 11.1339 9.09797 11.1359H15.4469C15.4627 11.1382 15.4789 11.1359 15.4934 11.1293C15.508 11.1226 15.5203 11.1118 15.5288 11.0983C15.5374 11.0848 15.5418 11.0691 15.5416 11.0531C15.5414 11.0371 15.5365 11.0215 15.5276 11.0082L15.3548 10.6476Z" fill="white"/>
<path d="M15.9408 11.8874C15.921 11.8507 15.8921 11.8197 15.8569 11.7974C15.8217 11.775 15.7814 11.762 15.7398 11.7597H9.39088C9.37505 11.7573 9.35888 11.7596 9.34433 11.7663C9.32979 11.773 9.31749 11.7837 9.30894 11.7973C9.30038 11.8108 9.29594 11.8265 9.29615 11.8425C9.29636 11.8585 9.30121 11.8741 9.31011 11.8874L9.48292 12.2498C9.50304 12.2866 9.53224 12.3177 9.56774 12.34C9.60325 12.3624 9.64388 12.3753 9.68578 12.3775H16.0328C16.0486 12.3799 16.0648 12.3776 16.0794 12.3709C16.0939 12.3642 16.1062 12.3535 16.1147 12.3399C16.1233 12.3264 16.1277 12.3107 16.1275 12.2947C16.1273 12.2787 16.1225 12.2631 16.1136 12.2498L15.9408 11.8874Z" fill="white"/>
<path d="M16.5286 13.112C16.5086 13.0757 16.4796 13.0451 16.4445 13.0231C16.4093 13.0011 16.3691 12.9884 16.3277 12.9862H9.97875C9.96297 12.9833 9.94669 12.9851 9.93197 12.9915C9.91725 12.9979 9.90476 13.0085 9.8961 13.022C9.88743 13.0355 9.88298 13.0513 9.88332 13.0673C9.88365 13.0833 9.88876 13.0989 9.89798 13.112L10.0708 13.4745C10.0906 13.5111 10.1195 13.5421 10.1547 13.5645C10.1898 13.5868 10.2302 13.5998 10.2718 13.6022H16.6207C16.6365 13.6045 16.6527 13.6022 16.6672 13.5955C16.6818 13.5889 16.6941 13.5781 16.7026 13.5646C16.7112 13.5511 16.7156 13.5354 16.7154 13.5194C16.7152 13.5034 16.7104 13.4878 16.7015 13.4745L16.5286 13.112Z" fill="white"/>
<path d="M17.1167 14.3456C17.0966 14.3088 17.0674 14.2777 17.0319 14.2554C16.9964 14.233 16.9558 14.2201 16.9139 14.2179H10.5744C10.5587 14.216 10.5428 14.2186 10.5285 14.2254C10.5143 14.2323 10.5023 14.2431 10.494 14.2565C10.4857 14.2699 10.4814 14.2855 10.4817 14.3013C10.482 14.317 10.4867 14.3324 10.4955 14.3456L10.657 14.7043C10.6768 14.7413 10.706 14.7726 10.7415 14.795C10.7771 14.8174 10.8179 14.8301 10.8599 14.832H17.2088C17.2245 14.8339 17.2404 14.8313 17.2546 14.8244C17.2688 14.8176 17.2808 14.8068 17.2891 14.7934C17.2974 14.7799 17.3017 14.7644 17.3014 14.7486C17.3012 14.7328 17.2964 14.7174 17.2877 14.7043L17.1167 14.3437V14.3456Z" fill="white"/>
<path d="M17.7121 15.578C17.6906 15.5412 17.66 15.5106 17.6231 15.4892C17.5862 15.4678 17.5444 15.4563 17.5017 15.456H11.1528C11.137 15.4536 11.1208 15.4559 11.1063 15.4626C11.0917 15.4693 11.0795 15.48 11.0709 15.4935C11.0623 15.5071 11.0579 15.5228 11.0581 15.5388C11.0583 15.5548 11.0632 15.5704 11.0721 15.5837L11.2449 15.9461C11.2649 15.9824 11.2939 16.013 11.3291 16.035C11.3642 16.0571 11.4044 16.0698 11.4459 16.0719H17.7948C17.8105 16.0748 17.8268 16.073 17.8416 16.0666C17.8563 16.0602 17.8688 16.0496 17.8774 16.0361C17.8861 16.0226 17.8905 16.0069 17.8902 15.9908C17.8899 15.9748 17.8848 15.9592 17.8755 15.9461L17.7121 15.578Z" fill="white"/>
<path d="M15.8861 7.44409C15.9235 7.44409 15.9593 7.42925 15.9857 7.40283C16.0121 7.37642 16.027 7.3406 16.027 7.30324V6.96897C16.0265 6.93177 16.0115 6.89622 15.9852 6.86992C15.9589 6.84361 15.9233 6.82861 15.8861 6.82812H6.0359C5.99869 6.82861 5.96313 6.84361 5.93682 6.86992C5.9105 6.89622 5.89551 6.93177 5.89502 6.96897V7.30324C5.89502 7.3406 5.90986 7.37642 5.93628 7.40283C5.9627 7.42925 5.99853 7.44409 6.0359 7.44409H15.8861Z" fill="white"/>
<path d="M11.6826 16.6816C11.6668 16.6792 11.6506 16.6815 11.6361 16.6882C11.6215 16.6949 11.6092 16.7056 11.6007 16.7191C11.5921 16.7327 11.5877 16.7484 11.5879 16.7644C11.5881 16.7804 11.593 16.796 11.6019 16.8093L15.6141 25.1191C15.6196 25.1344 15.6297 25.1475 15.6429 25.1569C15.6562 25.1662 15.672 25.1712 15.6883 25.1712C15.7045 25.1712 15.7203 25.1662 15.7336 25.1569C15.7469 25.1475 15.7569 25.1344 15.7625 25.1191L19.4272 17.4196C19.447 17.3825 19.4761 17.3513 19.5117 17.3289C19.5473 17.3065 19.588 17.2937 19.63 17.2919H25.5413C25.5786 17.2919 25.6145 17.277 25.6409 17.2506C25.6673 17.2242 25.6822 17.1884 25.6822 17.151V16.8224C25.6822 16.785 25.6673 16.7492 25.6409 16.7228C25.6145 16.6964 25.5786 16.6816 25.5413 16.6816H11.6826Z" fill="white"/>
<path d="M25.5413 6.82812H20.4697C20.4323 6.82812 20.3965 6.84296 20.3701 6.86938C20.3437 6.89579 20.3288 6.93162 20.3288 6.96897V7.30324C20.3288 7.3406 20.3437 7.37642 20.3701 7.40284C20.3965 7.42925 20.4323 7.44409 20.4697 7.44409H21.221C21.4089 7.45536 22.489 7.46099 22.0757 8.72296L18.6946 15.9399C18.6857 15.9532 18.6809 15.9688 18.6807 15.9848C18.6805 16.0007 18.6849 16.0165 18.6935 16.03C18.702 16.0435 18.7143 16.0543 18.7289 16.0609C18.7434 16.0676 18.7596 16.0699 18.7754 16.0676H19.9287C19.9706 16.0653 20.0113 16.0524 20.0468 16.0301C20.0823 16.0077 20.1115 15.9767 20.1316 15.9399L23.7794 8.31921C23.8997 8.02845 24.1105 7.78416 24.3805 7.62249C24.6745 7.48721 24.9962 7.42289 25.3197 7.4347H25.5432C25.5806 7.4347 25.6164 7.41986 25.6428 7.39345C25.6692 7.36703 25.6841 7.33121 25.6841 7.29385V6.96897C25.6841 6.93162 25.6692 6.89579 25.6428 6.86938C25.6164 6.84296 25.5806 6.82812 25.5432 6.82812H25.5413Z" fill="white"/>
<path fill-rule="evenodd" clip-rule="evenodd" d="M24.1415 16.0657C24.446 16.0657 24.7438 15.9753 24.997 15.8061C25.2502 15.6369 25.4476 15.3964 25.5642 15.115C25.6807 14.8337 25.7112 14.524 25.6518 14.2253C25.5924 13.9266 25.4457 13.6522 25.2303 13.4369C25.015 13.2215 24.7406 13.0748 24.4419 13.0154C24.1432 12.956 23.8336 12.9865 23.5522 13.1031C23.2708 13.2196 23.0303 13.417 22.8611 13.6702C22.6919 13.9235 22.6016 14.2212 22.6016 14.5257C22.6016 14.9342 22.7638 15.3258 23.0526 15.6146C23.3414 15.9034 23.7331 16.0657 24.1415 16.0657Z" fill="#EE3444"/>
</svg>
