<svg width="32" height="32" viewBox="0 0 32 32" fill="none" xmlns="http://www.w3.org/2000/svg">
<path fill-rule="evenodd" clip-rule="evenodd" d="M16.0045 2.00082C8.27152 2 2.00082 8.2642 2 15.998C1.99754 23.7276 8.26412 29.9984 15.9971 30C23.7293 30.0016 29.9975 23.7333 30 16.0053C30.0025 8.27156 23.7359 2.00327 16.0045 2V2.00082ZM15.9966 29.1143C8.75482 29.1134 2.88421 23.2418 2.88668 15.9971C2.88914 8.75397 8.76139 2.88312 16.0039 2.88639C23.2481 2.88721 29.1188 8.7597 29.1171 16.0052C29.1146 23.2491 23.2416 29.1175 15.9974 29.1151L15.9966 29.1143ZM23.8666 10.0017C23.8452 9.9903 23.8228 9.97884 23.7995 9.96695C23.4879 9.8078 23.0256 9.57167 22.9851 8.44625C22.9464 7.23839 22.5365 6.60215 21.0438 5.27571C21.0438 5.27571 21.0249 5.52105 21.0635 5.66171C21.0635 5.66171 20.5969 5.12933 19.51 4.86682C19.51 4.86682 19.6316 4.38597 19.6645 4.09729C19.6858 3.87404 19.5141 3.64097 19.1395 3.72929C18.9405 3.77423 18.4893 3.92733 18.0261 4.0845L18.026 4.08451C17.562 4.24196 17.0859 4.4035 16.8392 4.46448C16.3463 4.58469 13.1136 5.70096 11.1609 7.56386C11.1609 7.56386 11.5774 6.40425 12.5328 5.20457H12.5271C11.8025 5.40656 11.1633 5.65189 10.502 5.98637C9.45867 7.39622 8.14998 10.1709 8.14916 12.5065C8.14916 12.5065 7.52234 10.5888 8.04483 7.64074L8.0325 7.653C7.36441 8.23886 6.76847 8.90153 6.25719 9.62712C6.13396 11.2848 6.12246 13.487 7.4714 16.5562C7.4714 16.5562 6.11014 15.574 4.86635 12.2726L4.85814 12.289C4.46571 13.364 4.23726 14.4914 4.18038 15.6337C5.28697 17.661 6.95138 19.6858 10.2942 21.4997C10.2942 21.4997 7.55027 21.0973 4.45066 18.7666C4.73275 20.0117 5.22379 21.2006 5.90311 22.2831C7.59052 23.0175 10.203 23.9669 13.9483 23.7543C13.9483 23.7543 11.9224 24.8975 7.77783 24.5582C7.77783 24.5582 8.49667 25.4495 10.4026 26.363C12.1294 27.1865 14.3689 26.6713 15.1223 26.1765C16.0194 25.582 16.9994 24.1239 16.5271 22.2962C16.5271 22.2962 16.1615 23.0052 15.2677 23.2792C15.2677 23.2792 15.9758 22.7263 15.9758 21.7147C15.9758 20.7007 15.142 20.0203 14.1027 19.932C13.5193 19.8836 12.6609 19.92 12.0544 19.9458H12.0544H12.0543L12.0543 19.9458C11.8001 19.9566 11.5901 19.9655 11.4632 19.9655C11.0344 19.9655 10.4527 19.9655 10.0502 19.4724C10.0502 19.4724 10.6318 19.4536 11.2471 19.3186C11.396 19.2873 11.5937 19.2307 11.814 19.1676L11.814 19.1676L11.8141 19.1676C12.3294 19.0201 12.9686 18.837 13.3979 18.8582C13.3979 18.8582 13.1818 18.5761 12.6889 18.5835C12.4912 18.5851 12.3949 18.6273 12.2921 18.6724C12.2372 18.6965 12.1805 18.7214 12.1056 18.7413C11.8222 18.8108 11.3038 18.8329 11.0048 18.2596C11.0048 18.2596 11.4336 18.5925 11.7992 18.491C12.022 18.4308 12.0996 18.3467 12.17 18.2704C12.198 18.2401 12.2249 18.211 12.2592 18.1852C12.3858 18.0903 12.6109 18.0126 12.8245 18.0126C13.038 18.0126 13.2443 18.0601 13.4283 18.2171C13.6148 18.3676 13.9812 18.3389 13.7651 18.1222C13.5515 17.9096 13.2443 17.697 12.7858 17.6929C12.0037 17.6831 10.6063 17.8466 10.1134 18.0936C9.77167 18.2645 9.50714 18.4845 9.38227 18.6382C9.3379 18.6939 9.24425 18.6963 9.24836 18.599C9.27218 18.1206 9.46935 16.8342 10.0699 16.2847C10.6975 15.709 12.3274 15.2976 12.9699 15.1774C12.9699 15.1774 12.8088 14.8037 12.9945 14.5624C13.2763 14.2141 14.1874 13.5606 19.5889 13.5623C19.5889 13.5623 19.2931 13.7945 19.1674 13.9802C19.1674 13.9802 21.2755 14.0971 22.4535 14.6875C22.6367 14.7775 23.0081 14.8102 23.1288 13.9818L22.792 13.7667C22.792 13.7667 22.8224 13.6424 22.8544 13.4911C22.8865 13.3358 22.8544 13.3047 22.7312 13.3677C22.6113 13.429 22.5776 13.4903 22.5776 13.4903C22.5776 13.4903 22.272 13.613 22.2391 13.4306C22.2087 13.245 21.8694 12.7838 21.1966 12.6913C21.1966 12.6913 21.5359 12.2301 22.3106 12.3381C22.3106 12.3381 22.3738 12.5613 22.5357 12.4975C22.5667 12.4859 22.5998 12.4715 22.6332 12.4569C22.7781 12.3936 22.9288 12.3278 22.9448 12.4787C22.9694 12.6644 23.0467 12.9661 23.4763 12.4975C23.4763 12.4975 23.9093 12.7232 24.2962 12.5793C24.6848 12.4354 24.9633 12.1892 25.052 11.5571L25.0576 11.5241C25.0773 11.408 25.0851 11.3623 25.1793 11.2512C25.2796 11.1286 25.3593 10.9544 25.1744 10.8015C24.9312 10.597 24.1738 10.1693 23.8666 10.0017ZM15.8027 10.5747C16.0114 10.4929 16.0705 10.6736 16.0303 10.7996C15.8331 11.3851 15.5587 12.2528 15.6614 12.6429C15.7616 13.0272 16.7228 13.2537 16.7228 13.2537C16.6691 13.2593 16.5393 13.2677 16.3768 13.2781H16.3768C15.9929 13.3028 15.4265 13.3392 15.2482 13.3789C14.9993 13.4345 14.5959 13.477 14.6789 12.9904C14.7774 12.3967 15.0855 11.3303 15.0855 11.3303C14.8013 11.4137 14.2073 11.6967 14.0027 11.8226C13.7974 11.9453 13.7399 11.9208 13.7974 11.7809C14.6296 9.85095 16.3778 7.79096 17.44 6.93147L17.4614 6.99363C16.0705 8.5883 15.1677 10.7996 15.1677 10.7996C15.2556 10.749 15.3923 10.7071 15.5311 10.6646L15.5311 10.6646L15.5311 10.6646L15.5311 10.6646C15.6256 10.6356 15.7211 10.6064 15.8027 10.5739V10.5747ZM18.2626 5.64054C18.3053 5.45735 18.6216 4.94215 18.8706 4.64775C18.933 4.56924 18.8706 4.51363 18.6915 4.62485L18.6798 4.63206C18.4771 4.7576 17.7105 5.2323 17.1798 6.11158C17.1149 6.22361 17.1568 6.3929 17.4395 6.29313C17.7214 6.19935 18.0112 6.13093 18.3053 6.08868C18.4655 6.06905 18.4655 5.95538 18.353 5.90877C18.2404 5.86543 18.2207 5.81636 18.2626 5.64054ZM22.3779 8.96167C22.3343 9.23154 22.1971 9.25199 21.9934 9.14159L21.9529 9.11833C21.7837 9.02107 21.716 8.98219 21.6122 8.96167C21.4988 8.93959 21.3871 8.98294 21.4783 9.14159C21.5687 9.30105 21.7248 9.75002 21.6557 10.0649C21.6557 10.0649 21.1546 9.09988 20.5549 8.62311C20.2028 8.33986 20.8216 8.40025 21.0052 8.41817L21.0273 8.4203C21.3929 8.45765 21.5041 8.50333 21.6069 8.54558L21.6069 8.54559C21.6369 8.55792 21.6662 8.56995 21.7009 8.58141C21.8513 8.61984 22.1758 8.70162 22.2924 7.81269C22.3015 7.76935 22.3524 7.78243 22.3565 7.81842C22.4058 8.24612 22.4173 8.72861 22.3779 8.96167ZM20.2823 20.0048C20.2823 20.0048 20.7275 20.5192 21.029 20.8839V20.8831C21.2105 21.1023 21.4279 21.3298 21.6597 21.5725C22.3679 22.3139 23.2104 23.1958 23.5725 24.4077L23.5848 24.3996C23.0253 24.9499 22.4215 25.4251 21.7602 25.8503C21.9073 25.5837 22.41 24.1215 21.4899 22.1948C20.5682 20.2747 19.3203 19.2304 18.1151 18.411C16.9158 17.5983 14.9739 16.9867 14.5621 16.857L14.5521 16.8539C14.166 16.7353 14.1858 16.6127 14.2679 16.3632C14.3509 16.1187 14.7181 15.5479 14.7181 15.5479C14.5571 15.5626 14.1036 15.7098 13.8785 15.8104C13.655 15.9143 13.471 15.893 13.4053 15.8317C12.9929 15.4187 13.8604 14.6009 13.8604 14.6009C13.8793 14.8912 13.982 15.0311 14.4108 14.973C14.8397 14.9084 16.2741 14.789 16.6002 14.7898C16.6002 14.7898 15.0451 15.9969 14.7805 16.4058C14.5641 16.7326 14.8004 16.7467 15.0078 16.7591H15.0079C15.0579 16.7621 15.1062 16.765 15.1461 16.7721C15.1772 16.778 15.2378 16.7851 15.3233 16.795L15.3233 16.795C15.8045 16.8507 17.0732 16.9976 18.2975 17.5531C19.0344 17.8835 20.0219 18.6473 20.5887 19.3334C20.6178 19.3673 20.6527 19.4085 20.6919 19.4546C20.9342 19.7398 21.3398 20.2172 21.5294 20.3777C21.5294 20.3777 20.7152 20.255 20.2823 20.0048ZM26.2652 20.3358C26.0244 20.967 25.7252 21.5745 25.3714 22.1505V22.1497C24.0849 18.5097 20.4652 17.0631 20.4652 17.0631C22.9596 17.6449 25.0039 19.3065 26.1981 20.2772L26.2652 20.3317V20.3358ZM25.5431 14.7507C24.8694 14.9331 23.8458 15.0157 22.9832 14.8938C22.9832 14.8938 24.9729 15.7501 26.9462 17.6269V17.6089C27.0029 17.1534 27.0317 16.6921 27.0276 16.2227C27.0326 16.1722 27.0326 16.1212 27.0276 16.0706C26.6809 15.9292 24.5392 15.3224 24.5392 15.3224C25.2596 15.2815 25.5431 14.7507 25.5431 14.7507ZM16.9285 27.5775C17.6837 27.4847 18.4285 27.3218 19.1532 27.0909L19.1614 27.0852C19.55 26.1856 19.9764 24.039 19.5237 22.3805C19.5237 22.3805 19.6091 26.2878 16.9277 27.5775H16.9285Z" fill="#333333"/>
</svg>
