<svg xmlns="http://www.w3.org/2000/svg" fill="none" viewBox="0 0 204 60">
  <path fill="#323E48" d="M39.07 19.4h7.91c4 0 6.71 3.3 6.71 6.5 0 3.3-2.7 6.6-6.7 6.6h-4.92v5.3h-3V19.4zm7.61 10.3c2.6 0 4-2 4-3.8 0-1.9-1.4-3.8-4-3.8h-4.6v7.6h4.6zM54.6 31.1c0-3.9 2.7-7 6.9-7 4.31 0 6.42 3.6 6.42 7.2v.7H57.6c.4 2.3 2.4 3.6 5.1 3.6 1.71 0 3.11-.5 4.31-1.2v2.5c-1.1.8-2.9 1.3-4.9 1.3-4.21 0-7.52-2.8-7.52-7.1zm10.31-1.4c0-1.4-1.1-3.2-3.5-3.2-2.3 0-3.61 1.6-3.71 3.2h7.21zM70.52 24.4h3v5.2h6.82v-5.2h3v13.4h-3v-5.6h-6.81v5.6h-3V24.4zM85.85 31.1c0-3.9 2.7-7 6.91-7 4.3 0 6.41 3.6 6.41 7.2v.7H88.85c.4 2.3 2.4 3.6 5.11 3.6 1.7 0 3.1-.5 4.3-1.2v2.5c-1.1.8-2.9 1.3-4.9 1.3-4.2 0-7.51-2.8-7.51-7.1zm10.32-1.4c0-1.4-1.1-3.2-3.51-3.2-2.3 0-3.6 1.6-3.7 3.2h7.2zM100.87 31.1c0-4.2 3.3-7 7.32-7 1.6 0 2.8.3 4 .9v2.5a7.7 7.7 0 00-3.6-.9c-2.6 0-4.81 1.8-4.81 4.5s2.1 4.5 4.8 4.5c1.5 0 2.71-.3 3.81-1v2.5a8.6 8.6 0 01-4.3 1.1c-3.91 0-7.22-2.9-7.22-7.1zM113.9 31.1c0-4.2 3.3-7 7.3-7 1.61 0 2.81.3 4.02.9v2.5a7.7 7.7 0 00-3.61-.9c-2.6 0-4.8 1.8-4.8 4.5s2.1 4.5 4.8 4.5c1.5 0 2.7-.3 3.8-1v2.5c-1.3.7-2.6 1.1-4.3 1.1-3.8 0-7.21-2.9-7.21-7.1zM141.84 35.3v2.2c-.4.3-1.1.4-1.7.4-1.3 0-2.4-.6-2.8-1.9-1 1.1-2.6 2.1-4.91 2.1-2.8 0-5.01-1.6-5.01-4.5 0-3 2.2-3.9 5.1-3.9h4.61v-.2c0-2.3-1.9-2.9-3.9-2.9-1.6 0-3.2.6-4.2 1.2v-2.6c1-.5 2.5-1.1 4.9-1.1 3.6 0 6.21 1.7 6.21 5.1v5c0 .8.5 1.3 1.1 1.3 0 0 .3 0 .6-.2zm-4.9-3.3h-3.51c-1.9 0-3.2.4-3.2 1.7 0 1.5 1.3 2 2.9 2 1.6 0 3.1-.8 3.8-1.6V32zM143.95 24.4h3v5.2h6.81v-5.2h3v13.4h-3v-5.6h-6.8v5.6h-3.01V24.4zM159.27 31.1c0-4.2 3.31-7 7.32-7 1.6 0 2.8.3 4 .9v2.5c-1.2-.6-2.3-.9-3.6-.9-2.6 0-4.81 1.8-4.81 4.5s2.1 4.5 4.8 4.5c1.5 0 2.71-.3 3.81-1v2.5a8.6 8.6 0 01-4.3 1.1c-3.91 0-7.22-2.9-7.22-7.1z"/>
  <path fill="#DF307C" d="M4.3 45H0V26.5C0 20.2 5.2 15 11.52 15h14.22v11.4c0 6.4-5.2 11.5-11.52 11.5h-7.2l1.6-4.3h5.5c4.01 0 7.22-3.2 7.22-7.2v-7.1h-9.92c-4 0-7.21 3.2-7.21 7.2V45h.1z"/>
</svg>
