<svg xmlns="http://www.w3.org/2000/svg" fill="none" viewBox="0 0 205 60">
  <path fill="#5B9DD5" fill-rule="evenodd" d="M20.68 17.58H4.34l1.18-3.24h16.33l-1.17 3.24zm-.6 1.62H3.76l-1.18 3.23H18.9l1.19-3.23zm-18.1 4.83h16.34l-1.2 3.24H.8l1.18-3.24z" clip-rule="evenodd"/>
  <path fill="#152C6B" fill-rule="evenodd" d="M35.2 28.35v-.07l.03-.01c.57-.24 1.1-.6 1.53-1.04A4.3 4.3 0 0038 24.07c0-2.45-1.47-4-3.73-4.6a11.5 11.5 0 00-2.94-.28h-6.22v19.42h7c.95.05 1.9-.04 2.82-.27 2.32-.57 3.73-2.5 3.73-5.15A4.58 4.58 0 0037 29.4a6.82 6.82 0 00-1.82-1.04zm9.34 10.27V22.44h-5.62V19.2h15.6l-1.1 3.26h-4.98v16.18h-3.9zm11.2-19.43v19.43h6.28c2.58 0 3.86-.24 5.07-1.08a5.58 5.58 0 002.29-4.8c.1-1.76-.61-3.45-1.92-4.61-.9-.77-2.22-1.38-4.74-1.38H59.6v-4.3h7.67l1.1-3.26H55.75zm6.8 16.17H59.6v-5.4h2.9c.66-.05 1.3.12 1.85.48a2.56 2.56 0 011.01 2.2 2.8 2.8 0 01-.57 1.85c-.56.65-1.4.98-2.25.87zm-31.36-8.39h-2.2v-4.6h2.07c.5-.02 1 .03 1.47.14.97.24 1.6 1.17 1.48 2.16.08.98-.53 1.9-1.48 2.2-.44.1-.89.13-1.34.1zm-2.2 3.36v5.1h2.68c.75.08 1.5-.12 2.09-.57.55-.52.85-1.25.8-2 .02-.6-.16-1.18-.51-1.67-.57-.73-1.28-.87-2.49-.87l-2.58.01z" clip-rule="evenodd"/>
</svg>
