<svg xmlns="http://www.w3.org/2000/svg" fill="none" viewBox="0 0 204 60">
  <path fill="#FD8000" d="M.85 23.66c0 4.3 2.86 5.9 7.17 6.98 4.1.98 4.94 2.26 4.94 3.87 0 1.8-1.6 3.04-3.9 3.04-2.49 0-4.6-.89-6.84-2.9L0 37.4a13.08 13.08 0 008.96 3.55c4.6 0 7.7-2.74 7.7-6.81 0-3.58-2.14-5.7-6.93-6.9-4.35-1.06-5.2-2.24-5.2-3.93 0-1.47 1.24-2.92 3.6-2.92 1.95 0 3.87.76 5.88 2.3l1.97-2.9A11.77 11.77 0 008.19 17C3.94 17 .85 19.8.85 23.66zM28.93 23.7l-3.68 11.86-3.33-11.81H18.2l5.27 16.98h3.26L30.46 29l3.7 11.74h3.26c0-.08 5.28-16.82 5.33-16.98h-3.63c0 .09-3.39 11.8-3.39 11.8l-3.7-11.85h-3.1zM48.12 31c.36-2.76 2.05-4.53 4.31-4.53 2.27 0 3.94 1.73 4.21 4.52v.07h-8.53V31h.01zm-3.6 1.19v.06c0 5.07 3.5 8.75 8.37 8.75 2.17.07 4.32-.55 6.13-1.76l-.99-2.95a8.3 8.3 0 01-5.07 1.52c-2.6 0-4.38-1.58-4.76-4.22v-.07h12.04l.05-.99c0-4.5-2.4-9.07-7.78-9.07-4.53 0-7.94 3.77-7.94 8.78l-.05-.05zM67.32 32.22v-.07c0-3.18 2.01-5.49 4.78-5.49 2.56 0 4.26 1.72 4.26 2.4v8.37h-.05c-1.4.22-2.8.32-4.21.29-2.72 0-4.78-2.37-4.78-5.5zM76.3 17v8.2l-.1-.08a7.43 7.43 0 00-5-1.72c-3.75 0-7.53 3-7.53 8.74v.07c0 5.74 3.99 8.75 7.94 8.75 2.78-.07 5.56-.32 8.32-.76V17H76.3zM88.38 37.44h-.05v-8.37c0-.69 1.7-2.4 4.26-2.4 2.77 0 4.77 2.31 4.77 5.5v.05c0 3.14-2.04 5.5-4.77 5.5-1.4.03-2.82-.07-4.21-.28zM84.76 17v23.2c2.76.45 5.54.7 8.33.77 3.93 0 7.94-3.01 7.94-8.75v-.06c0-5.74-3.8-8.76-7.55-8.76a7.43 7.43 0 00-5 1.7l-.1.08V17h-3.62zM107.65 35.6v-.07c0-1.68 1.42-2.7 3.8-2.7 1.3 0 2.58.23 3.78.68h.04v4.32h-.05c-1.44.23-2.9.34-4.35.32-1.93 0-3.22-1.04-3.22-2.58v.02zm-2.16-10.73l.98 3a11.1 11.1 0 014.64-1.03c2.65 0 4.1 1.3 4.1 3.7v.4l-.08-.03c-1.45-.49-2.98-.73-4.5-.7-4.13 0-6.59 2.05-6.59 5.5v.06c0 3.56 3 5.18 5.78 5.18 3-.05 5.99-.3 8.96-.76V30.6c0-4.65-2.47-7.1-7.13-7.1-2.14-.04-4.25.43-6.16 1.36zM123.36 24.17v16.45h3.63V26.94h.05c1.22-.19 2.46-.28 3.7-.27 2.23 0 3.57 1.63 3.57 4.37v9.58h3.63V29.88c0-4-2.22-6.47-5.77-6.47-2.95.04-5.9.3-8.81.76zM142.59 40.62h3.62V35.8l2.38-2.56 4.95 7.38h4.2l-6.7-10.01s6.26-6.65 6.46-6.84h-4.4l-6.88 7.62V17h-3.63v23.62z"/>
</svg>
