<svg width="16" height="16" viewBox="0 0 16 16" fill="none" xmlns="http://www.w3.org/2000/svg">
<path fill-rule="evenodd" clipRule="evenodd" d="M3 2H13V14H3L3 2ZM1 2C1 0.895431 1.89543 0 3 0H13C14.1046 0 15 0.895431 15 2V14C15 15.1046 14.1046 16 13 16H3C1.89543 16 1 15.1046 1 14V2ZM5 3C4.44772 3 4 3.44772 4 4C4 4.55228 4.44772 5 5 5H11C11.5523 5 12 4.55228 12 4C12 3.44772 11.5523 3 11 3H5ZM4 7C4 6.44772 4.44772 6 5 6H11C11.5523 6 12 6.44772 12 7C12 7.55228 11.5523 8 11 8H5C4.44772 8 4 7.55228 4 7ZM9.5 13C10.3284 13 11 12.3284 11 11.5C11 10.6716 10.3284 10 9.5 10C8.67157 10 8 10.6716 8 11.5C8 12.3284 8.67157 13 9.5 13Z" fill="currentColor"/>
</svg>
