<svg width="25" height="24" viewBox="0 0 25 24" fill="none" xmlns="http://www.w3.org/2000/svg">
  <path fill-rule="evenodd" clip-rule="evenodd" d="M5.99718 3.00605L10.4989 3.00098C11.0523 3.00098 11.5 3.44869 11.5 4.00098V9.99985C11.5 10.5521 11.0523 10.9998 10.5 10.9998H4.5C3.94772 10.9998 3.5 10.5521 3.5 9.99985V5.50605C3.5 4.12644 4.61757 3.00761 5.99718 3.00605ZM4.49887 13.0077C3.94703 13.0084 3.5 13.4559 3.5 14.0077V18.4998C3.5 19.8806 4.61929 20.9998 6 20.9998H10.5C11.0523 20.9998 11.5 20.5521 11.5 19.9998V14.001C11.5 13.4487 11.0523 13.001 10.4989 13.001L4.49887 13.0077ZM14.4989 13.0077C13.947 13.0084 13.5 13.4559 13.5 14.0077V19.9998C13.5 20.5521 13.9477 20.9998 14.5 20.9998H19C20.3807 20.9998 21.5 19.8806 21.5 18.4998V14.001C21.5 13.4487 21.0523 13.001 20.4989 13.001L14.4989 13.0077ZM6 18.9998C5.72386 18.9998 5.5 18.776 5.5 18.4998V15.0066L9.5 15.0021V18.9998H6ZM15.5 18.9998H19C19.2761 18.9998 19.5 18.776 19.5 18.4998V15.0021L15.5 15.0066V18.9998ZM9.5 5.0021V8.99985H5.5V5.50605C5.5 5.23013 5.72351 5.00636 5.99944 5.00605L9.5 5.0021Z" fill="#262633"/>
  <path d="M17.5 4V10" stroke="#262633" stroke-width="2" stroke-linecap="round" stroke-linejoin="round"/>
  <path d="M14.5 7H20.5" stroke="#262633" stroke-width="2" stroke-linecap="round" stroke-linejoin="round"/>
</svg>
