<svg width="53" height="52" viewBox="0 0 53 52" fill="none" xmlns="http://www.w3.org/2000/svg">
<path opacity="0.3" fill-rule="evenodd" clip-rule="evenodd" d="M26 52C36.5238 52 52.619 40.3594 52.619 26C52.619 6.80952 43.3333 0 26 0C11.6406 0 0 13.619 0 26C0 42.7143 10.4025 52 26 52Z" fill="#FF3333"/>
<path fill-rule="evenodd" clip-rule="evenodd" d="M25.9986 48.2872C38.3067 48.2872 48.2843 38.3096 48.2843 26.0015C48.2843 13.6935 38.3067 3.71582 25.9986 3.71582C13.6905 3.71582 3.71289 13.6935 3.71289 26.0015C3.71289 38.3096 13.6905 48.2872 25.9986 48.2872Z" fill="#FF3333"/>
<path fill-rule="evenodd" clip-rule="evenodd" d="M35.2482 19.9157C36.1216 19.0423 36.1216 17.6262 35.2482 16.7527C34.3748 15.8793 32.9587 15.8793 32.0852 16.7527L25.9993 22.8387L19.9133 16.7527C19.0399 15.8793 17.6238 15.8793 16.7503 16.7527C15.8769 17.6262 15.8769 19.0423 16.7503 19.9157L22.8363 26.0017L16.7488 32.0891C15.8754 32.9626 15.8754 34.3787 16.7488 35.2521C17.6223 36.1255 19.0384 36.1255 19.9118 35.2521L25.9993 29.1646L32.0867 35.2521C32.9602 36.1255 34.3763 36.1255 35.2497 35.2521C36.1231 34.3787 36.1231 32.9626 35.2497 32.0891L29.1622 26.0017L35.2482 19.9157Z" fill="white"/>
</svg>
