<svg width="16" height="16" viewBox="0 0 16 16" fill="none" xmlns="http://www.w3.org/2000/svg">
<path fill-rule="evenodd" clip-rule="evenodd" d="M1 0C1.55228 0 2 0.447715 2 1V14L15 14C15.5523 14 16 14.4477 16 15C16 15.5523 15.5523 16 15 16H2C0.895431 16 0 15.1046 0 14V1C0 0.447715 0.447715 0 1 0ZM5 5C4.44772 5 4 5.44772 4 6V11C4 11.5523 4.44772 12 5 12C5.55228 12 6 11.5523 6 11V6C6 5.44772 5.55228 5 5 5ZM8 8C8 7.44772 8.44771 7 9 7C9.55229 7 10 7.44772 10 8V11C10 11.5523 9.55229 12 9 12C8.44771 12 8 11.5523 8 11V8ZM13 2C12.4477 2 12 2.44772 12 3V11C12 11.5523 12.4477 12 13 12C13.5523 12 14 11.5523 14 11V3C14 2.44772 13.5523 2 13 2Z" fill="currentColor" />
</svg>
