<svg width="16" height="20" viewBox="0 0 16 20" fill="none" xmlns="http://www.w3.org/2000/svg">
<path fill-rule="evenodd" clip-rule="evenodd" d="M0 2C0 0.895431 0.895431 0 2 0L14 0C15.1046 0 16 0.895431 16 2V14V15V19C16 19.3658 15.8003 19.7024 15.4792 19.8777C15.1581 20.053 14.767 20.039 14.4592 19.8412L12.6667 18.6888L10.8741 19.8412C10.5447 20.0529 10.122 20.0529 9.79258 19.8412L8 18.6888L6.20742 19.8412C5.87802 20.0529 5.45532 20.0529 5.12591 19.8412L3.33333 18.6888L1.54076 19.8412C1.23305 20.039 0.841885 20.053 0.520812 19.8777C0.199739 19.7024 0 19.3658 0 19L0 15L0 14L0 2ZM2 14V15V17.1683L2.79258 16.6588C3.12198 16.4471 3.54468 16.4471 3.87409 16.6588L5.66667 17.8112L7.45924 16.6588C7.78865 16.4471 8.21135 16.4471 8.54076 16.6588L10.3333 17.8112L12.1259 16.6588C12.4553 16.4471 12.878 16.4471 13.2074 16.6588L14 17.1683V15V14V2H2V14ZM4 5C4 4.44772 4.44772 4 5 4H11C11.5523 4 12 4.44772 12 5C12 5.55228 11.5523 6 11 6H5C4.44772 6 4 5.55228 4 5ZM5 8C4.44772 8 4 8.44771 4 9C4 9.55229 4.44772 10 5 10H9C9.55228 10 10 9.55229 10 9C10 8.44771 9.55228 8 9 8H5ZM4 13C4 12.4477 4.44772 12 5 12H11C11.5523 12 12 12.4477 12 13C12 13.5523 11.5523 14 11 14H5C4.44772 14 4 13.5523 4 13Z" fill="white" fill-opacity="0.9"/>
</svg>
