<svg width="16" height="16" viewBox="0 0 16 16" fill="none" xmlns="http://www.w3.org/2000/svg">
<g clip-path="url(#clip0_4199_73162)">
<path fill-rule="evenodd" clip-rule="evenodd" d="M3 0C1.89543 0 1 0.895431 1 2V13V15C1 15.3788 1.214 15.725 1.55279 15.8944C1.89157 16.0638 2.29698 16.0273 2.6 15.8L4 14.75L5.4 15.8C5.75556 16.0667 6.24444 16.0667 6.6 15.8L8 14.75L9.4 15.8C9.75556 16.0667 10.2444 16.0667 10.6 15.8L12 14.75L13.4 15.8C13.703 16.0273 14.1084 16.0638 14.4472 15.8944C14.786 15.725 15 15.3788 15 15V13V2C15 0.895431 14.1046 0 13 0H3ZM13 13V2H3V13L3.4 12.7C3.75556 12.4333 4.24444 12.4333 4.6 12.7L6 13.75L7.4 12.7C7.75556 12.4333 8.24444 12.4333 8.6 12.7L10 13.75L11.4 12.7C11.7556 12.4333 12.2444 12.4333 12.6 12.7L13 13ZM6 4C5.44772 4 5 4.44772 5 5C5 5.55228 5.44772 6 6 6H10C10.5523 6 11 5.55228 11 5C11 4.44772 10.5523 4 10 4H6ZM5 8C5 7.44772 5.44772 7 6 7H9C9.55229 7 10 7.44772 10 8C10 8.55229 9.55229 9 9 9H6C5.44772 9 5 8.55229 5 8Z" fill="currentColor"/>
</g>
<defs>
<clipPath id="clip0_4199_73162">
<rect width="16" height="16" fill="white"/>
</clipPath>
</defs>
</svg>
