<svg width="14" height="15" viewBox="0 0 14 15" fill="none" xmlns="http://www.w3.org/2000/svg">
  <path fill-rule="evenodd" clip-rule="evenodd" d="M3 0C2.44772 0 2 0.447715 2 1V2H1.5C0.671573 2 0 2.67157 0 3.5V13.5C0 14.3284 0.671573 15 1.5 15H12.5C13.3284 15 14 14.3284 14 13.5V3.5C14 2.67157 13.3284 2 12.5 2H12V1C12 0.447715 11.5523 0 11 0C10.4477 0 10 0.447715 10 1V2H4V1C4 0.447715 3.55228 0 3 0ZM2 6V13H12V6H2ZM10.5 10C10.5 10.8284 9.82843 11.5 9 11.5C8.17157 11.5 7.5 10.8284 7.5 10C7.5 9.17157 8.17157 8.5 9 8.5C9.82843 8.5 10.5 9.17157 10.5 10Z" fill="#262633"/>
</svg>
