<svg width="19" height="20" viewBox="0 0 19 20" fill="none" xmlns="http://www.w3.org/2000/svg">
<path fill-rule="evenodd" clip-rule="evenodd" d="M1.13626 18.9151C1.21435 18.9694 1.30693 18.9989 1.40202 19C4.1264 19.0302 6.12338 18.5036 7.38666 17.3568C8.0663 17.4996 8.77363 17.575 9.5 17.575C14.7467 17.575 19 13.6407 19 8.7875C19 3.9343 14.7467 0 9.5 0C4.25329 0 0 3.9343 0 8.7875C0 11.0377 0.914321 13.0903 2.41805 14.6449C2.29043 15.9148 1.82454 17.1284 1.02042 18.2856C0.870726 18.501 0.920847 18.7654 1.13626 18.9151ZM7.80004 15.4185C7.21154 15.2948 6.59945 15.4609 6.1542 15.8651C5.65139 16.3216 4.58796 16.9534 3.59068 17.1447C4.05943 16.4662 4.30534 15.4761 4.37684 14.7646C4.43201 14.2156 4.24255 13.6702 3.85891 13.2736C2.66342 12.0377 2 10.4629 2 8.79688C2 5.07713 5.32662 2 9.5 2C13.6734 2 17 5.07713 17 8.79688C17 12.5166 13.6734 15.5938 9.5 15.5938C8.92127 15.5938 8.3523 15.5345 7.80004 15.4185Z" fill="#262633"/>
</svg>
