<svg width="44" height="44" viewBox="0 0 44 44" fill="none" xmlns="http://www.w3.org/2000/svg">
<path d="M0 22C0 16.4177 0 13.6266 0.688955 11.3554C2.24016 6.24182 6.24182 2.24016 11.3554 0.688955C13.6266 0 16.4177 0 22 0C27.5823 0 30.3734 0 32.6446 0.688955C37.7582 2.24016 41.7598 6.24182 43.311 11.3554C44 13.6266 44 16.4177 44 22C44 27.5823 44 30.3734 43.311 32.6446C41.7598 37.7582 37.7582 41.7598 32.6446 43.311C30.3734 44 27.5823 44 22 44C16.4177 44 13.6266 44 11.3554 43.311C6.24182 41.7598 2.24016 37.7582 0.688955 32.6446C0 30.3734 0 27.5823 0 22Z" fill="#F7F8FA"/>
<path fill-rule="evenodd" clip-rule="evenodd" d="M17.25 20.5C15.1789 20.5 13.5 18.8211 13.5 16.75C13.5 14.6789 15.1789 13 17.25 13C19.3211 13 21 14.6789 21 16.75C21 18.8211 19.3211 20.5 17.25 20.5ZM15.7071 29.7071C15.3166 30.0976 14.6834 30.0976 14.2929 29.7071C13.9024 29.3166 13.9024 28.6834 14.2929 28.2929L28.2929 14.2929C28.6834 13.9024 29.3166 13.9024 29.7071 14.2929C30.0976 14.6834 30.0976 15.3166 29.7071 15.7071L15.7071 29.7071ZM23 27.25C23 29.3211 24.6789 31 26.75 31C28.8211 31 30.5 29.3211 30.5 27.25C30.5 25.1789 28.8211 23.5 26.75 23.5C24.6789 23.5 23 25.1789 23 27.25ZM17.25 18.5C18.2165 18.5 19 17.7165 19 16.75C19 15.7835 18.2165 15 17.25 15C16.2835 15 15.5 15.7835 15.5 16.75C15.5 17.7165 16.2835 18.5 17.25 18.5ZM28.5 27.25C28.5 28.2165 27.7165 29 26.75 29C25.7835 29 25 28.2165 25 27.25C25 26.2835 25.7835 25.5 26.75 25.5C27.7165 25.5 28.5 26.2835 28.5 27.25Z" fill="#85889E"/>
</svg>
