<svg width="44" height="44" viewBox="0 0 44 44" fill="none" xmlns="http://www.w3.org/2000/svg">
<path d="M0 22C0 16.4177 0 13.6266 0.688955 11.3554C2.24016 6.24182 6.24182 2.24016 11.3554 0.688955C13.6266 0 16.4177 0 22 0C27.5823 0 30.3734 0 32.6446 0.688955C37.7582 2.24016 41.7598 6.24182 43.311 11.3554C44 13.6266 44 16.4177 44 22C44 27.5823 44 30.3734 43.311 32.6446C41.7598 37.7582 37.7582 41.7598 32.6446 43.311C30.3734 44 27.5823 44 22 44C16.4177 44 13.6266 44 11.3554 43.311C6.24182 41.7598 2.24016 37.7582 0.688955 32.6446C0 30.3734 0 27.5823 0 22Z" fill="#F7F8FA"/>
<path fill-rule="evenodd" clip-rule="evenodd" d="M22 32C27.5228 32 32 27.5228 32 22C32 16.4772 27.5228 12 22 12C16.4772 12 12 16.4772 12 22C12 27.5228 16.4772 32 22 32ZM22 30C26.4183 30 30 26.4183 30 22C30 17.5817 26.4183 14 22 14C17.5817 14 14 17.5817 14 22C14 26.4183 17.5817 30 22 30ZM26.4191 24.8939C26.6367 24.3863 26.4015 23.7984 25.8939 23.5809L23 22.3406V17C23 16.4477 22.5523 16 22 16C21.4477 16 21 16.4477 21 17V22.6703C21 23.2703 21.3576 23.8127 21.9091 24.049L25.1061 25.4191C25.6137 25.6367 26.2016 25.4015 26.4191 24.8939Z" fill="#85889E"/>
</svg>
