<svg width="20" height="20" viewBox="0 0 20 20" fill="none" xmlns="http://www.w3.org/2000/svg">
<path fill-rule="evenodd" clip-rule="evenodd" d="M10 20C15.5228 20 20 15.5228 20 10C20 4.47715 15.5228 0 10 0C4.47715 0 0 4.47715 0 10C0 15.5228 4.47715 20 10 20ZM10 18C14.4183 18 18 14.4183 18 10C18 5.58172 14.4183 2 10 2C5.58172 2 2 5.58172 2 10C2 14.4183 5.58172 18 10 18ZM14.4191 12.8939C14.6367 12.3863 14.4015 11.7984 13.8939 11.5809L11 10.3406V5C11 4.44772 10.5523 4 10 4C9.44771 4 9 4.44772 9 5V10.6703C9 11.2703 9.3576 11.8127 9.90912 12.049L13.1061 13.4191C13.6137 13.6367 14.2016 13.4015 14.4191 12.8939Z" fill="black"/>
</svg>
