<svg width="25" height="24" viewBox="0 0 25 24" fill="none" xmlns="http://www.w3.org/2000/svg">
<path fill-rule="evenodd" clip-rule="evenodd" d="M8.5 5H10.5H16.2951C17.4095 5 17.8137 5.11603 18.2211 5.33392C18.6285 5.5518 18.9482 5.87154 19.1661 6.27894C19.384 6.68635 19.5 7.09046 19.5 8.20486V16C19.5 16.5523 19.9477 17 20.5 17C21.0523 17 21.5 16.5523 21.5 16V8.12777C21.5 6.34473 21.3143 5.69816 20.9657 5.04631C20.6171 4.39446 20.1055 3.88288 19.4537 3.53427C18.8018 3.18565 18.1553 3 16.3722 3H10.5H8.5C7.94772 3 7.5 3.44772 7.5 4C7.5 4.55228 7.94772 5 8.5 5ZM6.70486 7C5.82287 7 5.31249 7.04857 4.77894 7.33392C4.37153 7.5518 4.0518 7.87154 3.83392 8.27894C3.54857 8.81249 3.5 9.32287 3.5 10.2049V17.7951C3.5 18.6771 3.54857 19.1875 3.83392 19.7211C4.0518 20.1285 4.37153 20.4482 4.77894 20.6661C5.31249 20.9514 5.82287 21 6.70486 21H14.2951C15.1771 21 15.6875 20.9514 16.2211 20.6661C16.6285 20.4482 16.9482 20.1285 17.1661 19.7211C17.4514 19.1875 17.5 18.6771 17.5 17.7951V10.2049C17.5 9.32287 17.4514 8.81249 17.1661 8.27894C16.9482 7.87154 16.6285 7.5518 16.2211 7.33392C15.6875 7.04857 15.1771 7 14.2951 7H6.70486ZM5.72214 9.09754C5.77244 9.07064 5.8124 9.05274 5.91912 9.03611C6.05707 9.01462 6.28184 9 6.70486 9H14.2951C14.7182 9 14.9429 9.01462 15.0809 9.03611C15.1876 9.05274 15.2276 9.07064 15.2779 9.09754C15.3367 9.12903 15.371 9.16327 15.4025 9.22214C15.4294 9.27244 15.4473 9.3124 15.4639 9.41912C15.4854 9.55707 15.5 9.78184 15.5 10.2049V17.7951C15.5 18.2182 15.4854 18.4429 15.4639 18.5809C15.4473 18.6876 15.4294 18.7276 15.4025 18.7779C15.371 18.8367 15.3367 18.871 15.2779 18.9025C15.2276 18.9294 15.1876 18.9473 15.0809 18.9639C14.9429 18.9854 14.7182 19 14.2951 19H6.70486C6.28184 19 6.05707 18.9854 5.91912 18.9639C5.8124 18.9473 5.77244 18.9294 5.72214 18.9025C5.66327 18.871 5.62903 18.8367 5.59754 18.7779C5.57064 18.7276 5.55274 18.6876 5.53611 18.5809C5.51462 18.4429 5.5 18.2182 5.5 17.7951V10.2049C5.5 9.78184 5.51462 9.55707 5.53611 9.41912C5.55274 9.3124 5.57064 9.27244 5.59754 9.22214C5.62903 9.16327 5.66327 9.12903 5.72214 9.09754Z" fill="#85889E"/>
</svg>
