<svg width="19" height="20" viewBox="0 0 19 20" fill="none" xmlns="http://www.w3.org/2000/svg">
<path fill-rule="evenodd" clip-rule="evenodd" d="M9.5 0C8.94771 0 8.5 0.447715 8.5 1V8C8.5 8.55229 8.94771 9 9.5 9C10.0523 9 10.5 8.55229 10.5 8V1C10.5 0.447715 10.0523 0 9.5 0ZM5.43052 4.03768C5.87552 3.71058 5.9711 3.08467 5.644 2.63967C5.3169 2.19467 4.69099 2.09909 4.24599 2.42619C1.97439 4.09593 0.5 6.81888 0.5 9.88639C0.5 14.9385 4.50773 19.0738 9.5 19.0738C14.4923 19.0738 18.5 14.9385 18.5 9.88639C18.5 6.81888 17.0256 4.09593 14.754 2.42619C14.309 2.09909 13.6831 2.19467 13.356 2.63967C13.0289 3.08467 13.1245 3.71058 13.5695 4.03768C15.341 5.33981 16.5 7.47064 16.5 9.88639C16.5 13.8778 13.3443 17.0738 9.5 17.0738C5.65571 17.0738 2.5 13.8778 2.5 9.88639C2.5 7.47064 3.65903 5.33981 5.43052 4.03768Z" fill="black"/>
</svg>
