<svg width="16" height="17" viewBox="0 0 16 17" fill="none" xmlns="http://www.w3.org/2000/svg">
<path fill-rule="evenodd" clip-rule="evenodd" d="M0 8.00269C0 12.421 3.58172 16.0027 8 16.0027C12.4183 16.0027 16 12.421 16 8.00269C16 3.58441 12.4183 0.00268555 8 0.00268555C3.58172 0.00268555 0 3.58441 0 8.00269ZM14 8.00269C14 11.3164 11.3137 14.0027 8 14.0027C4.68629 14.0027 2 11.3164 2 8.00269C2 4.68898 4.68629 2.00269 8 2.00269C11.3137 2.00269 14 4.68898 14 8.00269ZM6.86011 11.0307C6.86011 10.3587 7.35211 9.89069 8.00011 9.89069C8.64811 9.89069 9.14011 10.3587 9.14011 11.0307C9.14011 11.7027 8.64811 12.1707 8.00011 12.1707C7.35211 12.1707 6.86011 11.7027 6.86011 11.0307ZM7.57875 3.99994H8.42125C8.86497 3.99994 9.21168 4.38306 9.16753 4.82457L8.79503 8.54919C8.76947 8.80479 8.55438 8.99943 8.29751 8.99943H7.70249C7.44562 8.99943 7.23053 8.80479 7.20497 8.54919L6.83247 4.82458C6.78832 4.38306 7.13503 3.99994 7.57875 3.99994Z" fill="#FF3333"/>
</svg>
