<svg width="20" height="20" viewBox="0 0 20 20" fill="none" xmlns="http://www.w3.org/2000/svg">
<path fill-rule="evenodd" clip-rule="evenodd" d="M20 10C20 15.5228 15.5228 20 10 20C4.47715 20 0 15.5228 0 10C0 4.47715 4.47715 0 10 0C15.5228 0 20 4.47715 20 10ZM18 10C18 14.4183 14.4183 18 10 18C5.58172 18 2 14.4183 2 10C2 5.58172 5.58172 2 10 2C14.4183 2 18 5.58172 18 10ZM8.75 14.2428C8.75 13.5202 9.29913 13 9.99277 13C10.7009 13 11.25 13.5202 11.25 14.2428C11.25 14.9653 10.7009 15.5 9.99277 15.5C9.29913 15.5 8.75 14.9653 8.75 14.2428ZM9.32227 4C9.03756 4 8.81031 4.23741 8.82275 4.52185L9.129 11.5219C9.1407 11.7892 9.36088 12 9.62852 12H10.3713C10.639 12 10.8591 11.7892 10.8708 11.5219L11.1771 4.52185C11.1895 4.23741 10.9623 4 10.6776 4H9.32227Z" fill="white" fill-opacity="0.9"/>
</svg>
