<svg width="25" height="24" viewBox="0 0 25 24" fill="none" xmlns="http://www.w3.org/2000/svg">
<path fill-rule="evenodd" clip-rule="evenodd" d="M20.4999 14C19.9476 14 19.4999 14.4477 19.4999 15V18.0771C19.4999 18.5357 19.4782 18.6479 19.4177 18.761C19.3802 18.8312 19.3311 18.8803 19.2609 18.9178C19.1478 18.9783 19.0356 19 18.577 19H6.42278C5.96414 19 5.85196 18.9783 5.73883 18.9178C5.66866 18.8803 5.61956 18.8312 5.58203 18.761C5.52153 18.6479 5.49987 18.5357 5.49987 18.0771L5.49902 5.49993C5.49902 5.22386 5.72288 5 5.99902 5L9.49858 5.00451C10.0509 5.00522 10.4992 4.55808 10.4999 4.0058C10.5006 3.45351 10.0534 3.00522 9.50116 3.00451L6.00031 3C4.61831 3 3.49902 4.11929 3.49902 5.5L3.49987 18.0772C3.49987 18.8377 3.58176 19.2618 3.81841 19.7042C4.04234 20.1229 4.37692 20.4575 4.79564 20.6815C5.23812 20.9181 5.66221 21 6.42278 21H18.577C19.3375 21 19.7616 20.9181 20.2041 20.6815C20.6228 20.4575 20.9574 20.1229 21.1813 19.7042C21.418 19.2618 21.4999 18.8377 21.4999 18.0771V15C21.4999 14.4477 21.0522 14 20.4999 14ZM18.4999 4.94499V4.65385L18.1096 4.74391C17.3722 4.91409 16.6178 5 15.861 5H14.4999C13.9476 5 13.4999 4.55228 13.4999 4C13.4999 3.44772 13.9476 3 14.4999 3L20.0007 3.00293C20.8288 3.00337 21.4999 3.67481 21.4999 4.50293V10C21.4999 10.5523 21.0522 11 20.4999 11C19.9476 11 19.4999 10.5523 19.4999 10V8.63888C19.4999 7.88207 19.5858 7.12771 19.756 6.39029L19.846 6H19.5506C19.1494 6.64247 18.6761 7.23793 18.1395 7.77459L12.207 13.7071C11.8165 14.0976 11.1833 14.0976 10.7928 13.7071C10.4022 13.3166 10.4022 12.6834 10.7928 12.2929L16.7367 6.34896C17.2702 5.81546 17.8618 5.34462 18.4999 4.94499Z" fill="#262633"/>
</svg>
