<svg width="20" height="20" viewBox="0 0 20 20" fill="none" xmlns="http://www.w3.org/2000/svg">
<path d="M14.2806 7.03552L11.9364 9.37971L15.1387 10.2377L16.743 8.94859C17.1924 8.58752 17.8494 8.65909 18.2104 9.10845C18.5715 9.5578 18.4999 10.2148 18.0506 10.5758L17.638 10.9074L19.0623 11.2891C20.4066 11.6492 19.8663 13.6656 18.522 13.3054L17.0977 12.9238L17.2892 13.4172C17.4978 13.9546 17.2313 14.5594 16.694 14.768C16.1566 14.9766 15.5518 14.7101 15.3432 14.1727L14.5984 12.2541L11.3961 11.3961L12.2542 14.5983L14.1728 15.3431C14.7102 15.5518 14.9767 16.1565 14.7681 16.6939C14.5594 17.2313 13.9547 17.4978 13.4173 17.2892L12.9239 17.0976L13.3055 18.5219C13.6657 19.8662 11.6493 20.4065 11.2891 19.0622L10.9075 17.6379L10.5759 18.0505C10.2148 18.4999 9.55781 18.5714 9.10845 18.2104C8.65909 17.8493 8.58752 17.1923 8.94859 16.7429L10.2378 15.1386L9.37971 11.9364L7.03552 14.2806L7.34978 16.3145C7.4378 16.8842 7.04733 17.4174 6.47763 17.5054C5.90794 17.5935 5.37476 17.203 5.28674 16.6333L5.20591 16.1102L4.16321 17.1529C3.17914 18.1369 1.70303 16.6608 2.6871 15.6768L3.72981 14.6341L3.20668 14.5532C2.63699 14.4652 2.24652 13.932 2.33454 13.3623C2.42256 12.7926 2.95573 12.4022 3.52542 12.4902L5.55942 12.8044L7.90361 10.4603L4.70139 9.60226L3.09703 10.8914C2.64767 11.2525 1.99068 11.1809 1.62961 10.7315C1.26854 10.2822 1.34011 9.62521 1.78947 9.26413L2.20209 8.93257L0.777735 8.55092C-0.56653 8.19072 -0.0262388 6.17433 1.31803 6.53453L2.74239 6.91618L2.55082 6.42273C2.3422 5.88535 2.60871 5.2806 3.14609 5.07198C3.68347 4.86336 4.28822 5.12987 4.49684 5.66725L5.24168 7.58586L8.4439 8.4439L7.58587 5.24167L5.66725 4.49683C5.12987 4.28822 4.86336 3.68346 5.07198 3.14608C5.2806 2.60871 5.88535 2.34219 6.42273 2.55081L6.91619 2.74238L6.53453 1.31802C6.17434 -0.0262382 8.19073 -0.566528 8.55092 0.777733L8.93258 2.20209L9.26414 1.78946C9.62521 1.3401 10.2822 1.26853 10.7316 1.62961C11.181 1.99068 11.2525 2.64767 10.8915 3.09703L9.60225 4.70138L10.4603 7.90361L12.8045 5.55942L12.4903 3.52543C12.4022 2.95573 12.7927 2.42255 13.3624 2.33453C13.9321 2.24651 14.4653 2.63699 14.5533 3.20668L14.6341 3.72981L15.6768 2.6871C16.6609 1.70304 18.137 3.17914 17.1529 4.16321L16.1102 5.20591L16.6334 5.28673C17.2031 5.37475 17.5935 5.90794 17.5055 6.47763C17.4175 7.04732 16.8843 7.4378 16.3146 7.34978L14.2806 7.03552Z" fill="#0077FF"/>
</svg>
