<svg width="12" height="12" viewBox="0 0 12 12" fill="none" xmlns="http://www.w3.org/2000/svg">
<path fill-rule="evenodd" clip-rule="evenodd" d="M1 1C0.447715 1 0 1.44772 0 2C0 2.55228 0.447715 3 1 3H11C11.5523 3 12 2.55228 12 2C12 1.44772 11.5523 1 11 1H1ZM0 6C0 5.44772 0.447715 5 1 5H7C7.55228 5 8 5.44772 8 6C8 6.55228 7.55228 7 7 7H1C0.447715 7 0 6.55228 0 6ZM0 10C0 9.44771 0.447715 9 1 9H4.5C5.05228 9 5.5 9.44771 5.5 10C5.5 10.5523 5.05228 11 4.5 11H1C0.447715 11 0 10.5523 0 10Z" fill="#85889E"/>
</svg>
