<svg width="16" height="16" viewBox="0 0 16 16" fill="none" xmlns="http://www.w3.org/2000/svg">
  <path fill-rule="evenodd" clip-rule="evenodd" d="M8 0C7.44772 0 7 0.447715 7 1V7.78932C7 8.26251 7.03359 8.7351 7.1005 9.20354L7.2375 10.1625L7.19145 10.2085L6.72702 9.46673C6.32679 8.82746 5.85552 8.23552 5.32221 7.70221L4.90969 7.28969C4.51946 6.89946 3.88679 6.89946 3.49656 7.28969C3.10634 7.67991 3.10634 8.31259 3.49656 8.70281L7.29613 12.5024C7.68685 12.8931 8.32041 12.8929 8.71085 12.5019L12.5042 8.70307C12.8941 8.31262 12.8939 7.68011 12.5037 7.28994C12.1133 6.89958 11.4804 6.89958 11.0901 7.28994L10.6828 7.69722C10.151 8.22899 9.68093 8.81904 9.28144 9.45619L8.80927 10.2093L8.7625 10.1625L8.8995 9.20354C8.96641 8.7351 9 8.26251 9 7.78932V1C9 0.447715 8.55228 0 8 0ZM2 15C2 14.4477 2.44772 14 3 14H13C13.5523 14 14 14.4477 14 15C14 15.5523 13.5523 16 13 16H3C2.44772 16 2 15.5523 2 15Z" fill="#262633"/>
</svg>
