<svg width="17" height="16" viewBox="0 0 17 16" fill="none" xmlns="http://www.w3.org/2000/svg">
<path fill-rule="evenodd" clip-rule="evenodd" d="M8.5 16C4.08172 16 0.5 12.4183 0.5 8C0.5 3.58172 4.08172 0 8.5 0C12.9183 0 16.5 3.58172 16.5 8C16.5 12.4183 12.9183 16 8.5 16ZM8.5 14C11.8137 14 14.5 11.3137 14.5 8C14.5 4.68629 11.8137 2 8.5 2C5.18629 2 2.5 4.68629 2.5 8C2.5 11.3137 5.18629 14 8.5 14ZM12.2474 6.66163C12.6143 6.24885 12.5771 5.61677 12.1644 5.24986C11.7516 4.88294 11.1195 4.92012 10.7526 5.3329L7.45718 9.04023L6.20711 7.79016C5.81658 7.39963 5.18342 7.39963 4.79289 7.79016C4.40237 8.18068 4.40237 8.81385 4.79289 9.20437L6.79289 11.2044C6.98764 11.3991 7.25408 11.5049 7.52937 11.4968C7.80467 11.4887 8.06444 11.3675 8.24741 11.1616L12.2474 6.66163Z" fill="#00A85A"/>
</svg>
