<svg width="24" height="24" viewBox="0 0 24 24" fill="none" xmlns="http://www.w3.org/2000/svg">
<path fill-rule="evenodd" clip-rule="evenodd" d="M5.49718 3.0063L9.99887 3.00122C10.5523 3.00122 11 3.44894 11 4.00122V10.0001C11 10.5524 10.5523 11.0001 10 11.0001H4C3.44772 11.0001 3 10.5524 3 10.0001V5.5063C3 4.12668 4.11757 3.00785 5.49718 3.0063ZM3.99887 13.008C3.44703 13.0086 3 13.4561 3 14.008V18.5001C3 19.8808 4.11929 21.0001 5.5 21.0001H10C10.5523 21.0001 11 20.5524 11 20.0001V14.0012C11 13.4489 10.5523 13.0012 9.99887 13.0012L3.99887 13.008ZM13.9989 13.008C13.447 13.0086 13 13.4561 13 14.008V20.0001C13 20.5524 13.4477 21.0001 14 21.0001H18.5C19.8807 21.0001 21 19.8808 21 18.5001V14.0012C21 13.4489 20.5523 13.0012 19.9989 13.0012L13.9989 13.008ZM5.5 19.0001C5.22386 19.0001 5 18.7762 5 18.5001V15.0069L9 15.0023V19.0001H5.5ZM15 19.0001H18.5C18.7761 19.0001 19 18.7762 19 18.5001V15.0023L15 15.0069V19.0001ZM9 5.00235V9.00009H5V5.5063C5 5.23037 5.22351 5.00661 5.49944 5.0063L9 5.00235Z" fill="white" fill-opacity="0.9"/>
<path d="M17 4V10" stroke="white" stroke-width="2" stroke-linecap="round" stroke-linejoin="round"/>
<path d="M14 7H20" stroke="white" stroke-width="2" stroke-linecap="round" stroke-linejoin="round"/>
</svg>
