<svg width="18" height="18" viewBox="0 0 18 18" fill="none" xmlns="http://www.w3.org/2000/svg">
<path fill-rule="evenodd" clip-rule="evenodd" d="M17.0008 11C16.4486 11 16.0008 11.4477 16.0008 12V15.0771C16.0008 15.5357 15.9792 15.6479 15.9187 15.761C15.8812 15.8312 15.8321 15.8803 15.7619 15.9178C15.6488 15.9783 15.5366 16 15.0779 16H2.92376C2.46511 16 2.35294 15.9783 2.23981 15.9178C2.16963 15.8803 2.12054 15.8312 2.08301 15.761C2.02251 15.6479 2.00085 15.5357 2.00085 15.0771L2 2.49993C2 2.22386 2.22386 2 2.5 2L5.99956 2.00451C6.55184 2.00522 7.00013 1.55808 7.00084 1.0058C7.00156 0.453515 6.55442 0.00522278 6.00213 0.00451123L2.50129 0C1.11929 0 0 1.11929 0 2.5L0.000845464 15.0772C0.000845462 15.8377 0.0827411 16.2618 0.319382 16.7042C0.543312 17.1229 0.877899 17.4575 1.29661 17.6815C1.73909 17.9181 2.16318 18 2.92376 18H15.0779C15.8385 18 16.2626 17.9181 16.7051 17.6815C17.1238 17.4575 17.4584 17.1229 17.6823 16.7042C17.9189 16.2618 18.0008 15.8377 18.0008 15.0771V12C18.0008 11.4477 17.5531 11 17.0008 11ZM15.0008 1.94499V1.65385L14.6106 1.74391C13.8731 1.91409 13.1188 2 12.362 2H11.0008C10.4486 2 10.0008 1.55228 10.0008 1C10.0008 0.447715 10.4486 0 11.0008 0L16.5016 0.00292817C17.3298 0.00336899 18.0008 0.674813 18.0008 1.50293V7C18.0008 7.55228 17.5531 8 17.0008 8C16.4486 8 16.0008 7.55228 16.0008 7V5.63888C16.0008 4.88207 16.0868 4.12771 16.2569 3.39029L16.347 3H16.0516C15.6504 3.64247 15.1771 4.23793 14.6405 4.77459L8.70795 10.7071C8.31743 11.0976 7.68426 11.0976 7.29374 10.7071C6.90321 10.3166 6.90321 9.68342 7.29374 9.29289L13.2377 3.34896C13.7712 2.81546 14.3628 2.34462 15.0008 1.94499Z" fill="#262633"/>
</svg>
