<svg width="16" height="16" viewBox="0 0 16 16" fill="none" xmlns="http://www.w3.org/2000/svg">
<path fill-rule="evenodd" clip-rule="evenodd" d="M7.99977 0C7.44749 0 6.99977 0.447715 6.99977 1V1.60825C5.12209 2.02158 3.6504 3.57708 3.40138 5.55447L2.91084 9.4497C2.80598 10.2824 2.40982 11.051 1.79251 11.6196L1.43976 11.9445C1.07909 12.2766 0.969897 12.8016 1.16817 13.25C1.36975 13.7059 1.82132 14 2.31981 14H5.54977C5.7814 15.1411 6.79028 16 7.99976 16C9.20924 16 10.2181 15.1411 10.4497 14H13.6803C14.1783 14 14.6293 13.7058 14.8301 13.25C15.0276 12.8014 14.9181 12.2769 14.5576 11.9448L14.2044 11.6196C13.5871 11.051 13.1909 10.2824 13.0861 9.4497L12.5955 5.55447C12.3466 3.57801 10.8762 2.02303 8.99977 1.60883V1C8.99977 0.447715 8.55206 0 7.99977 0ZM12.1498 12C11.6498 11.5 11.2057 10.5247 11.1017 9.69959L10.6112 5.80436C10.4454 4.4876 9.32562 3.5 7.99846 3.5C6.6713 3.5 5.55153 4.4876 5.3857 5.80436L4.89517 9.69959C4.79126 10.5247 4.34978 11.5 3.84978 12H12.1498Z" fill="currentColor" />
</svg>
