<svg width="16" height="16" viewBox="0 0 16 16" fill="none" xmlns="http://www.w3.org/2000/svg">
<path fill-rule="evenodd" clip-rule="evenodd" d="M0 4C0 2.34315 1.34315 1 3 1H13C14.6569 1 16 2.34315 16 4V6C16 6.55228 15.5523 7 15 7V13C15.5523 13 16 13.4477 16 14C16 14.5523 15.5523 15 15 15H13H10H6H3H1C0.447715 15 0 14.5523 0 14C0 13.4477 0.447715 13 1 13V7C0.447715 7 0 6.55228 0 6V4ZM13 13V7H3V13H5V10C5 9.44772 5.44772 9 6 9H10C10.5523 9 11 9.44772 11 10V13H13ZM2 4C2 3.44772 2.44772 3 3 3V5H2V4ZM7 5H5V3H7V5ZM9 5H11V3H9V5ZM14 5H13V3C13.5523 3 14 3.44772 14 4V5ZM9 13H7V11H9V13Z" fill="#85889E"/>
</svg>
