<svg width="20" height="20" viewBox="0 0 20 20" fill="none" xmlns="http://www.w3.org/2000/svg">
<path fill-rule="evenodd" clip-rule="evenodd" d="M20 10C20 15.5228 15.5228 20 10 20C4.47715 20 0 15.5228 0 10C0 4.47715 4.47715 0 10 0C15.5228 0 20 4.47715 20 10ZM18 10C18 14.4183 14.4183 18 10 18C5.58172 18 2 14.4183 2 10C2 5.58172 5.58172 2 10 2C14.4183 2 18 5.58172 18 10ZM9 13C9 13.5523 8.55228 14 8 14C7.44772 14 7 13.5523 7 13V7C7 6.44772 7.44772 6 8 6C8.55228 6 9 6.44772 9 7V13ZM12 14C12.5523 14 13 13.5523 13 13V7C13 6.44772 12.5523 6 12 6C11.4477 6 11 6.44772 11 7V13C11 13.5523 11.4477 14 12 14Z" fill="white"/>
</svg>
