<svg width="20" height="20" viewBox="0 0 20 20" fill="currentColor" xmlns="http://www.w3.org/2000/svg">
<path fill-rule="evenodd" clip-rule="evenodd" d="M10 20C15.5228 20 20 15.5228 20 10C20 4.47715 15.5228 0 10 0C4.47715 0 0 4.47715 0 10C0 15.5228 4.47715 20 10 20ZM4.5 10.9996C3.94772 10.9996 3.5 10.5519 3.5 9.99958C3.5 9.44729 3.94772 8.99958 4.5 8.99958H9V4.5C9 3.94772 9.44771 3.5 10 3.5C10.5523 3.5 11 3.94772 11 4.5V8.99958H15.5C16.0523 8.99958 16.5 9.44729 16.5 9.99958C16.5 10.5519 16.0523 10.9996 15.5 10.9996H11V15.5C11 16.0523 10.5523 16.5 10 16.5C9.44771 16.5 9 16.0523 9 15.5V10.9996H4.5Z" />
</svg>
