<svg width="16" height="16" viewBox="0 0 16 16" fill="none" xmlns="http://www.w3.org/2000/svg">
<path fill-rule="evenodd" clip-rule="evenodd" d="M13.9991 5.5C13.9991 7.26291 12.6957 8.7214 11 8.96442V7C11 5.89543 10.1046 5 9 5H7.03451C7.27712 3.30385 8.73583 2 10.4991 2C12.4321 2 13.9991 3.567 13.9991 5.5ZM5.02148 5H2C0.895431 5 0 5.89543 0 7V14C0 15.1046 0.895431 16 2 16H9C10.1046 16 11 15.1046 11 14V10.9775C13.8028 10.7244 15.9991 8.3687 15.9991 5.5C15.9991 2.46243 13.5366 0 10.4991 0C7.63004 0 5.2741 2.19675 5.02148 5ZM2 7H9V14H2V7Z" fill="currentColor" />
</svg>
