<svg width="16" height="16" viewBox="0 0 16 16" fill="none" xmlns="http://www.w3.org/2000/svg">
  <path d="M11.9667 12.6751L12.5934 14.0637C12.6991 14.2978 12.6101 14.5739 12.3877 14.7024L11.6126 15.1499C11.3901 15.2783 11.1065 15.2173 10.9566 15.0087L10.0624 13.7648C9.87633 13.4789 9.58816 13.2582 9.23281 13.1629C8.49085 12.9641 7.72882 13.3859 7.4977 14.11L6.95892 15.535C6.86808 15.7753 6.60994 15.9076 6.36182 15.8411L5.49731 15.6095C5.24918 15.543 5.09181 15.2993 5.13327 15.0458L5.38057 13.5339C5.45112 13.2003 5.40347 12.8404 5.21953 12.5218C4.83546 11.8566 3.99843 11.6159 3.32297 11.9645L1.93435 12.5912C1.70021 12.6969 1.4241 12.6079 1.29567 12.3855L0.848159 11.6104C0.719722 11.3879 0.78075 11.1043 0.989327 10.9544L2.23326 10.0602C2.51908 9.87412 2.73986 9.58595 2.83508 9.2306C3.03388 8.48865 2.61217 7.72661 1.88806 7.49549L0.463025 6.95671C0.222749 6.86587 0.0904019 6.60774 0.156886 6.35962L0.388532 5.4951C0.455017 5.24698 0.698699 5.0896 0.952206 5.13107L2.4641 5.37836C2.79776 5.44891 3.15764 5.40126 3.47624 5.21732C4.14145 4.83326 4.3821 3.99622 4.0335 3.32077L3.40682 1.93215C3.30116 1.69801 3.3901 1.4219 3.61256 1.29346L4.38767 0.845954C4.61013 0.717516 4.89372 0.778544 5.04366 0.987121L5.93786 2.23105C6.1239 2.51687 6.41207 2.73766 6.76742 2.83287C7.50938 3.03168 8.27141 2.60997 8.50254 1.88585L9.04131 0.46082C9.13216 0.220543 9.39029 0.0881962 9.63841 0.15468L10.5029 0.386327C10.751 0.452811 10.9084 0.696493 10.867 0.95L10.6197 2.46189C10.5491 2.79555 10.5968 3.15543 10.7807 3.47403C11.1648 4.13925 12.0018 4.37989 12.6773 4.0313L14.0659 3.40462C14.3 3.29895 14.5761 3.3879 14.7046 3.61036L15.1521 4.38546C15.2805 4.60792 15.2195 4.89151 15.0109 5.04145L13.767 5.93565C13.4812 6.1217 13.2604 6.40987 13.1652 6.76522C12.9663 7.50717 13.3881 8.26921 14.1122 8.50033L15.5372 9.03911C15.7775 9.12995 15.9098 9.38808 15.8433 9.6362L15.6117 10.5007C15.5452 10.7488 15.3015 10.9062 15.048 10.8648L13.5361 10.6175C13.2025 10.5469 12.8426 10.5946 12.524 10.7785C11.8588 11.1626 11.6181 11.9996 11.9667 12.6751ZM7.17189 11.0889C8.87899 11.5463 10.6337 10.5332 11.0911 8.82613C11.5485 7.11904 10.5354 5.36436 8.82834 4.90695C7.12125 4.44953 5.36657 5.4626 4.90915 7.16969C4.45174 8.87678 5.4648 10.6315 7.17189 11.0889Z" fill="#262633"/>
</svg>
