<svg width="20" height="20" viewBox="0 0 20 20" fill="none" xmlns="http://www.w3.org/2000/svg">
<path d="M0 10C0 4.47715 4.47715 0 10 0C15.5228 0 20 4.47715 20 10C20 15.5228 15.5228 20 10 20C4.47715 20 0 15.5228 0 10Z" fill="#F1F2F5"/>
<path fill-rule="evenodd" clip-rule="evenodd" d="M5.34467 5.34467C5.05178 5.63756 5.05178 6.11244 5.34467 6.40533L8.93934 10L5.34467 13.5947C5.05178 13.8876 5.05178 14.3624 5.34467 14.6553C5.63756 14.9482 6.11244 14.9482 6.40533 14.6553L10 11.0607L13.5947 14.6553C13.8876 14.9482 14.3624 14.9482 14.6553 14.6553C14.9482 14.3624 14.9482 13.8876 14.6553 13.5947L11.0607 10L14.6553 6.40533C14.9482 6.11244 14.9482 5.63756 14.6553 5.34467C14.3624 5.05178 13.8876 5.05178 13.5947 5.34467L10 8.93934L6.40533 5.34467C6.11244 5.05178 5.63756 5.05178 5.34467 5.34467Z" fill="white"/>
</svg>
