<svg width="20" height="20" viewBox="0 0 20 20" fill="none" xmlns="http://www.w3.org/2000/svg">
<path d="M0 10C0 4.47715 4.47715 0 10 0C15.5228 0 20 4.47715 20 10C20 15.5228 15.5228 20 10 20C4.47715 20 0 15.5228 0 10Z" fill="#85889E"/>
<path fill-rule="evenodd" clip-rule="evenodd" d="M10 16C6.68629 16 4 13.3137 4 10C4 6.68629 6.68629 4 10 4C13.3137 4 16 6.68629 16 10C16 13.3137 13.3137 16 10 16ZM10 14.5C12.4853 14.5 14.5 12.4853 14.5 10C14.5 7.51472 12.4853 5.5 10 5.5C7.51472 5.5 5.5 7.51472 5.5 10C5.5 12.4853 7.51472 14.5 10 14.5ZM12.5181 11.6984C12.7312 11.3432 12.6161 10.8825 12.2609 10.6694L10.75 9.76286V7.75C10.75 7.33579 10.4142 7 10 7C9.58579 7 9.25 7.33579 9.25 7.75V10.1875C9.25 10.4509 9.38822 10.6951 9.61413 10.8306L11.4891 11.9556C11.8443 12.1687 12.305 12.0536 12.5181 11.6984Z" fill="white"/>
</svg>
