<svg width="20" height="20" viewBox="0 0 20 20" fill="none" xmlns="http://www.w3.org/2000/svg">
  <path d="M0 10C0 4.47715 4.47715 0 10 0C15.5228 0 20 4.47715 20 10C20 15.5228 15.5228 20 10 20C4.47715 20 0 15.5228 0 10Z" fill="#F1F2F5"/>
  <path fill-rule="evenodd" clip-rule="evenodd" d="M9.03134 6.93237C9.32526 6.63866 9.3245 6.16202 9.02965 5.86925C8.73635 5.57801 8.26274 5.57885 7.97047 5.87112L4.54875 9.29285C4.15823 9.68338 4.15823 10.3165 4.54875 10.7071L7.97044 14.1288C8.26273 14.4211 8.73636 14.4219 9.02968 14.1306C9.32452 13.8379 9.32529 13.3613 9.03141 13.0675L8.17163 12.2082C7.63999 11.6768 7.05013 11.2071 6.41322 10.8079L6.09231 10.6068L6.12725 10.5718L6.67059 10.6495C7.13902 10.7164 7.61162 10.75 8.0848 10.75H15.2491C15.6633 10.75 15.9991 10.4142 15.9991 9.99996C15.9991 9.58575 15.6633 9.24996 15.2491 9.24996H8.0848C7.61162 9.24996 7.13902 9.28355 6.67059 9.35047L6.12725 9.42808L6.0921 9.39294L6.41567 9.19003C7.05159 8.79125 7.6406 8.32214 8.17155 7.79156L9.03134 6.93237Z" fill="white"/>
</svg>
