<svg width="20" height="20" viewBox="0 0 20 20" fill="none" xmlns="http://www.w3.org/2000/svg">
<path d="M0 10C0 4.47715 4.47715 0 10 0C15.5228 0 20 4.47715 20 10C20 15.5228 15.5228 20 10 20C4.47715 20 0 15.5228 0 10Z" fill="#FF3333"/>
<path fill-rule="evenodd" clip-rule="evenodd" d="M4 10.002C4 13.3157 6.68629 16.002 10 16.002C13.3137 16.002 16 13.3157 16 10.002C16 6.68824 13.3137 4.00195 10 4.00195C6.68629 4.00195 4 6.68824 4 10.002ZM14.5 10.002C14.5 12.4872 12.4853 14.502 10 14.502C7.51472 14.502 5.5 12.4872 5.5 10.002C5.5 7.51667 7.51472 5.50195 10 5.50195C12.4853 5.50195 14.5 7.51667 14.5 10.002ZM9.14508 12.273C9.14508 11.769 9.51408 11.418 10.0001 11.418C10.4861 11.418 10.8551 11.769 10.8551 12.273C10.8551 12.777 10.4861 13.128 10.0001 13.128C9.51408 13.128 9.14508 12.777 9.14508 12.273ZM9.89125 6.99989H10.1088C10.5525 6.99989 10.8992 7.38301 10.855 7.82453L10.6075 10.2993C10.582 10.5549 10.3669 10.7495 10.11 10.7495H9.88999C9.63312 10.7495 9.41803 10.5549 9.39247 10.2993L9.14497 7.82453C9.10082 7.38301 9.44753 6.99989 9.89125 6.99989Z" fill="white"/>
</svg>
