<svg width="20" height="20" viewBox="0 0 20 20" fill="none" xmlns="http://www.w3.org/2000/svg">
<path d="M0 10C0 4.47715 4.47715 0 10 0C15.5228 0 20 4.47715 20 10C20 15.5228 15.5228 20 10 20C4.47715 20 0 15.5228 0 10Z" fill="#3BC46D"/>
<path d="M8.45616 12.953L5.68248 9.87111C5.40538 9.56323 4.93117 9.53827 4.62328 9.81537C4.3154 10.0925 4.29044 10.5667 4.56754 10.8746L7.94254 14.6246C8.25561 14.9724 8.80731 14.9517 9.09347 14.5814L15.4685 6.33142C15.7217 6.00366 15.6614 5.53264 15.3336 5.27938C15.0058 5.02611 14.5348 5.08649 14.2815 5.41425L8.45616 12.953Z" fill="white"/>
</svg>
