<svg width="17" height="16" viewBox="0 0 17 16" fill="none" xmlns="http://www.w3.org/2000/svg">
<path fill-rule="evenodd" clip-rule="evenodd" d="M5.5 2.99707V3.99707C5.5 4.54936 5.05228 4.99707 4.5 4.99707C3.94772 4.99707 3.5 4.54936 3.5 3.99707V2.49707C3.5 1.66864 4.17157 0.99707 5 0.99707H14C14.8284 0.99707 15.5 1.66864 15.5 2.49707V13.4971C15.5 14.3255 14.8284 14.9971 14 14.9971H5C4.17157 14.9971 3.5 14.3255 3.5 13.4971V11.9971C3.5 11.4448 3.94772 10.9971 4.5 10.9971C5.05228 10.9971 5.5 11.4448 5.5 11.9971V12.9971H13.5V2.99707H5.5ZM1.5 8.99981C0.947715 8.99981 0.5 8.55209 0.5 7.99981C0.5 7.44752 0.947715 6.99981 1.5 6.99981H7.5V5.16077C7.5 4.72202 8.02475 4.49603 8.34354 4.79748L11.3458 7.63652C11.5544 7.83379 11.5544 8.16583 11.3458 8.3631L8.34354 11.2021C8.02475 11.5036 7.5 11.2776 7.5 10.8388V8.99981H1.5Z" fill="#85889E"/>
</svg>
