<svg width="25" height="24" viewBox="0 0 25 24" fill="none" xmlns="http://www.w3.org/2000/svg">
<path fill-rule="evenodd" clip-rule="evenodd" d="M6.5 8C7.05229 8 7.5 7.55228 7.5 7V5.92291C7.5 5.46427 7.52166 5.35209 7.58216 5.23896C7.61969 5.16879 7.66879 5.11969 7.73896 5.08216C7.85209 5.02166 7.96427 5 8.42291 5L18.5771 5C19.0357 5 19.1479 5.02166 19.261 5.08216C19.3312 5.11969 19.3803 5.16879 19.4178 5.23896C19.4783 5.35209 19.5 5.46427 19.5 5.92291V18.0771C19.5 18.5357 19.4783 18.6479 19.4178 18.761C19.3803 18.8312 19.3312 18.8803 19.261 18.9178C19.1479 18.9783 19.0357 19 18.5771 19H8.42291C7.96427 19 7.85209 18.9783 7.73896 18.9178C7.66879 18.8803 7.61969 18.8312 7.58216 18.761C7.52166 18.6479 7.5 18.5357 7.5 18.0771L7.5 17C7.5 16.4477 7.05229 16 6.5 16C5.94771 16 5.5 16.4477 5.5 17L5.5 18.0771C5.5 18.8377 5.5819 19.2618 5.81854 19.7042C6.04247 20.1229 6.37705 20.4575 6.79577 20.6815C7.23825 20.9181 7.66234 21 8.42291 21H18.5771C19.3377 21 19.7618 20.9181 20.2042 20.6815C20.6229 20.4575 20.9575 20.1229 21.1815 19.7042C21.4181 19.2618 21.5 18.8377 21.5 18.0771V5.92291C21.5 5.16234 21.4181 4.73825 21.1815 4.29577C20.9575 3.87705 20.6229 3.54247 20.2042 3.31854C19.7618 3.0819 19.3377 3 18.5771 3L8.42291 3C7.66234 3 7.23825 3.0819 6.79577 3.31854C6.37705 3.54247 6.04247 3.87705 5.81854 4.29577C5.5819 4.73825 5.5 5.16234 5.5 5.92291V7C5.5 7.55228 5.94771 8 6.5 8ZM16.0934 10.9428C16.6767 11.5282 16.6765 12.4734 16.0931 13.0587C15.014 14.1412 13.4604 15.6995 13.2099 15.95C12.8199 16.34 12.1799 16.34 11.7899 15.95C11.3999 15.56 11.3999 14.93 11.7899 14.54C12.3005 14.0294 12.8667 13.5775 13.479 13.1946L13.866 12.9525L13.6589 12.7469C12.9252 12.9155 12.1739 13.0008 11.4195 13.0008L3.4976 13.0008C2.94532 13.0008 2.4976 12.5531 2.4976 12.0008C2.4976 11.4486 2.94532 11.0008 3.4976 11.0008L11.4195 11.0008C12.1739 11.0008 12.9252 11.0862 13.6589 11.2548L13.866 11.0492L13.48 10.8077C12.8671 10.4244 12.301 9.97114 11.7899 9.46C11.3999 9.07 11.3999 8.44 11.7899 8.05C12.1799 7.66 12.8199 7.66 13.2099 8.05C13.4604 8.30055 15.0142 9.85974 16.0934 10.9428Z" fill="#262633"/>
</svg>
