<svg width="17" height="16" viewBox="0 0 17 16" fill="none" xmlns="http://www.w3.org/2000/svg">
<path fill-rule="evenodd" clip-rule="evenodd" d="M4.5 3C4.5 1.34315 5.84315 0 7.5 0H9.5C11.1569 0 12.5 1.34315 12.5 3H14.5C15.0523 3 15.5 3.44772 15.5 4C15.5 4.55228 15.0523 5 14.5 5H13.8462L13.1065 14.615C13.0464 15.3965 12.3948 16 11.611 16H5.38905C4.60524 16 3.95358 15.3965 3.89347 14.615L3.15385 5H2.5C1.94772 5 1.5 4.55228 1.5 4C1.5 3.44772 1.94772 3 2.5 3H4.5ZM11.8402 5H5.15975L5.85206 14H11.1479L11.8402 5ZM7.5 2C6.94772 2 6.5 2.44772 6.5 3H10.5C10.5 2.44772 10.0523 2 9.5 2H7.5Z" fill="#262633"/>
</svg>
