<svg width="32" height="32" viewBox="0 0 32 32" fill="none" xmlns="http://www.w3.org/2000/svg">
<path fill-rule="evenodd" clip-rule="evenodd" d="M18.8001 2.31104V9.5703H16.0001C12.4742 9.5703 9.57056 12.474 9.57056 15.9999C9.57056 19.5259 12.4742 22.4296 16.0001 22.4296H18.8001V29.6888C25.2297 28.4444 30 22.8444 30 15.9999C30 9.25919 25.2297 3.65918 18.8001 2.31104Z" fill="white"/>
<path fill-rule="evenodd" clip-rule="evenodd" d="M15.9999 24.7111C11.2296 24.7111 7.28885 20.8741 7.28885 16C7.28885 11.2296 11.1259 7.28889 15.9999 7.28889H16.5184V2C16.311 2 16.1036 2 15.9999 2C8.32588 2 2 8.22222 2 16C2 23.6741 8.22218 30 15.9999 30C16.2073 30 16.4147 30 16.5184 30V24.7111H15.9999Z" fill="white"/>
</svg>
