<svg xmlns="http://www.w3.org/2000/svg" fill="none" viewBox="0 0 204 60">
  <path fill="#ED1D24" fill-rule="evenodd" d="M37.86 38.76c-.14 0-.3-.07-.44-.07h-.3l-2.73.15c-1.33 0-2.52-.15-3.48-.45a7.82 7.82 0 01-3.1-1.63 7.4 7.4 0 01-2.15-2.89 8.29 8.29 0 01-.15-6.52c.37-.96.96-1.7 1.7-2.3a7.8 7.8 0 012.6-1.33c.95-.3 1.99-.44 3.02-.44l2.52.22.74.08c.22 0 .44 0 .52-.08.14-.07.22-.22.37-.37l1.03 4.3-.37.07a4.45 4.45 0 00-2-2.22 5.92 5.92 0 00-5.02-.44c-.6.22-1.11.59-1.63 1.18-.44.6-.81 1.19-1.11 1.93a7.77 7.77 0 00-.37 2.22c0 2.07.6 3.78 1.85 5.18a6.43 6.43 0 004.95 2.3c1.11 0 2.15-.3 2.96-.96a6.57 6.57 0 002-2.6l.22.08-1.63 4.6zM40.9 34.17a8.07 8.07 0 001.77 2.6 5.53 5.53 0 002.51 1.47c.97.37 2 .52 3.04.52 2.14 0 4.06-.66 5.62-2.07a6.9 6.9 0 002.44-5.4c0-2.3-.74-4.23-2.3-5.71a8.03 8.03 0 00-5.76-2.23c-2.3 0-4.14.75-5.7 2.23a7.33 7.33 0 00-2.29 5.55c0 1.04.22 2.08.67 3.04zm11.46 1.7a4.35 4.35 0 01-3.63 1.78c-1.77 0-3.18-.81-4.29-2.44a8.9 8.9 0 01-1.47-4.97c0-1.55.37-2.88 1.18-4 .81-1.18 2-1.77 3.55-1.77 1.63 0 2.96.74 4.14 2.22a8.22 8.22 0 011.77 5.26c0 1.55-.44 2.89-1.25 3.92zM68.7 23.87a8.76 8.76 0 00-2.3-.22v-.07h-8.35v.22c.52.07.89.3 1.11.67.22.37.37 1.1.37 2.14v9.11c0 1.04-.15 1.7-.37 2-.22.3-.6.52-1.1.6v.22h5.69c.66 0 1.55 0 2.51-.07.96 0 1.85-.23 2.66-.52 1.7-.67 2.59-1.93 2.59-3.86 0-1.25-.52-2.37-1.55-3.33a7.99 7.99 0 00-3.33-1.85l.55-.3c.93-.48 1.48-.77 1.67-.96.81-.6 1.18-1.33 1.18-2.07 0-.9-.44-1.41-1.33-1.7zm-6.66 5.7a24.6 24.6 0 003.18-1.18c1.41-.74 2.08-1.55 2.08-2.37 0-.6-.37-.96-1.04-1.18a9.25 9.25 0 00-1.77-.15c-.6 0-1.04 0-1.41.07-.37.08-.67.15-.81.37-.08.08-.15.3-.15.6 0 .15-.02.31-.04.46-.02.13-.04.25-.04.35v3.04zm0 6.15c0 .75.08 1.26.3 1.49.22.22.67.3 1.48.3.67 0 1.33-.08 2-.16a3.9 3.9 0 001.62-.59c.45-.3.9-.74 1.11-1.26.3-.59.45-1.1.45-1.7a3.9 3.9 0 00-1.11-2.67 6.02 6.02 0 00-2.44-1.7l-3.4 1.26v5.03zM74.47 26.61c0-1.03-.15-1.77-.37-2.14-.22-.38-.6-.6-1.1-.67v-.22h5.39v.22c-.52.07-.89.22-1.11.6a4.27 4.27 0 00-.37 2.07v2.74l1.92-1.56a43.41 43.41 0 002.22-2c.52-.6.81-.96.81-1.26 0-.22-.07-.3-.14-.37-.08-.07-.22-.15-.45-.15v-.22h5.48v.22c-.74 0-1.56.22-2.3.67a38 38 0 00-1.92 1.48l-1.7 1.4a16.86 16.86 0 012.88 3.56 21.7 21.7 0 012.07 4.15l.45 1.04c.3.74.52 1.18.59 1.33.3.52.67.74 1.1.82v.22h-4.95v-.22c.52-.08.82-.37.82-.9 0-.58-.22-1.33-.6-2.29a19.98 19.98 0 00-2.5-4.22 13.6 13.6 0 00-1.7-2l-2.15 1.7v4.97c0 .89.07 1.48.14 1.77.23.6.67.9 1.26.97v.22h-5.4v-.22a1.46 1.46 0 001.26-.97c.15-.37.22-.88.22-1.7v-9.04h.15zM88.82 34.17a8.07 8.07 0 001.77 2.6 5.94 5.94 0 002.51 1.48c.97.37 2 .51 3.04.51 2.14 0 4.06-.66 5.62-2.07a6.9 6.9 0 002.44-5.4c0-2.3-.74-4.23-2.3-5.71a8.03 8.03 0 00-5.76-2.22c-2.3 0-4.14.74-5.7 2.22a7.33 7.33 0 00-2.29 5.55c0 1.04.22 2.08.67 3.04zm11.53 1.7a4.35 4.35 0 01-3.62 1.78 4.89 4.89 0 01-4.3-2.44 8.9 8.9 0 01-1.47-4.96c0-1.56.37-2.9 1.18-4 .82-1.19 2-1.78 3.55-1.78 1.63 0 2.96.74 4.14 2.22a8.22 8.22 0 011.78 5.26c0 1.56-.44 2.89-1.26 3.93zM109 25.2v10.38c0 .89.08 1.48.15 1.77.22.6.67.9 1.26.97v.22h-4.44v-.22c.67-.08 1.04-.37 1.26-.9.15-.29.22-.88.22-1.7v-9.1c0-1.04-.15-1.78-.37-2.15-.22-.38-.6-.6-1.1-.67v-.22h5.69v.22c-.23.07-.37.22-.37.44 0 .23.07.45.3.82l2.58 4.74 2.59-4.15c.37-.67.59-1.11.59-1.4 0-.23-.15-.45-.37-.45v-.22h5.4v.22c-.67.07-1.04.44-1.26.96-.15.3-.22.89-.22 1.7v9.12c0 1.03.15 1.77.37 2.14.22.37.6.6 1.1.67v.22H117v-.22c.67-.07 1.04-.37 1.26-.89.15-.37.22-.89.22-1.7V25.2l-4.95 8.08-4.52-8.07z" clip-rule="evenodd"/>
  <path fill="#00468E" fill-rule="evenodd" d="M125.57 24.84c.07.3.15.81.15 1.63h.07v9.33c0 1.04-.15 1.7-.37 2-.22.3-.6.52-1.1.6v.22h6.72c2.15 0 3.77-.45 4.8-1.19a3.64 3.64 0 001.49-3.11c0-1.48-.74-2.74-2.22-3.78-1.63-1.11-3.92-1.7-6.8-1.7V25.65c0-.44.14-.66.37-.74.22-.07.88-.15 2-.15 1.4 0 2.5.23 3.4.74a4.45 4.45 0 011.92 2.38l.22-.08-1.11-4.44c-.08.03-.13.07-.19.1-.05.04-.1.08-.18.12-.15.07-.37.07-.6.07h-9.83v.23c.6.07 1.04.44 1.26.96zm2.88 12.44c-.14-.15-.22-.59-.22-1.48h-.07v-5.93c2.22 0 3.92.45 5.03 1.41a3.65 3.65 0 011.47 2.97c0 .96-.37 1.77-1.18 2.37-.81.59-1.92.88-3.33.88-.96 0-1.55-.07-1.7-.22zM141.1 36.17c.05-.19.12-.41.22-.67l1.33-3.48c1.7 0 3.18.52 4.44 1.63 1.1 1.04 1.7 2.07 1.7 3.19 0 .44-.07.74-.22 1.03a1.3 1.3 0 01-.82.52v.22h5.1v-.22a1.43 1.43 0 01-1.03-.81l-.11-.22c-.1-.2-.2-.38-.26-.6l-3.84-11.11c-.04-.07-.06-.15-.08-.22a1.02 1.02 0 00-.07-.22c-.08-.23-.08-.3-.08-.45 0-.44.23-.67.67-.81v-.23h-5.03v.23c.22 0 .37.07.52.22.15.07.22.22.22.44 0 .23 0 .45-.07.6l-.1.25c-.05.14-.11.31-.2.49l-3.62 9.63a8.64 8.64 0 01-.96 2.07c-.15.22-.37.44-.52.52-.15.07-.37.15-.67.22v.22h4.59v-.22c-.37 0-.67-.15-.89-.37a1.23 1.23 0 01-.37-.89c0-.22 0-.52.08-.74l.06-.22zm1.85-5.4l2.07-5.42 2.51 7.19a5.54 5.54 0 00-2.07-1.33 7.2 7.2 0 00-2.51-.45zM157.66 35.58c0 .89.08 1.48.15 1.77.22.6.67.9 1.26.97v.22h-5.4v-.22c.52-.08.89-.3 1.11-.6.22-.3.37-.96.37-2v-9.1c0-1.04-.08-1.78-.37-2.15-.22-.38-.6-.6-1.11-.67v-.22h5.4v.22c-.67.07-1.04.37-1.26.89a4.7 4.7 0 00-.22 1.7v1.33h6.73v-1.18a9 9 0 00-.15-1.85c-.22-.6-.59-.9-1.26-.9v-.21h5.4v.22c-.66.07-1.03.37-1.25.89a4.7 4.7 0 00-.23 1.7v9.11c0 .9.08 1.48.15 1.78.22.6.67.89 1.26.96v.23h-5.4v-.23c.67 0 1.04-.3 1.26-.81.15-.37.22-.96.22-1.78v-6.89h-6.73v6.82h.07zM171.42 26.61c0-1.03-.15-1.77-.37-2.14-.22-.38-.6-.6-1.11-.67v-.22h5.4v.22c-.52.07-.89.22-1.11.6a4.26 4.26 0 00-.37 2.07v2.74l1.92-1.56a43.2 43.2 0 002.22-2c.52-.6.81-.96.81-1.26 0-.22-.07-.3-.14-.37-.08-.07-.23-.15-.45-.15v-.22h5.47v.22c-.73 0-1.55.22-2.29.67-.22.15-.81.6-1.92 1.48l-1.7 1.4a16.88 16.88 0 012.88 3.56 21.7 21.7 0 012.07 4.15l.45 1.04c.3.74.51 1.18.59 1.33.3.52.66.74 1.1.82v.22h-4.95v-.22c.52-.08.82-.37.82-.9 0-.58-.23-1.33-.6-2.29-.3-.66-.66-1.4-1.1-2.15-.45-.74-.9-1.4-1.33-2.07a20.53 20.53 0 00-1.7-2l-2.15 1.7v4.97c0 .89.07 1.48.15 1.77.22.6.66.9 1.25.97v.22h-5.4v-.22a1.46 1.46 0 001.26-.97c.15-.37.22-.88.22-1.7v-9.04h.08zM11.98 21.2v5.2h-2a4.61 4.61 0 00-4.58 4.58c0 2.52 2.07 4.6 4.58 4.6h2v5.18a9.88 9.88 0 007.99-9.78 10 10 0 00-7.99-9.77z" clip-rule="evenodd"/>
  <path fill="#ED1D24" fill-rule="evenodd" d="M9.98 37.2a6.2 6.2 0 01-6.2-6.22 6.2 6.2 0 016.2-6.22h.37v-3.78h-.37a10 10 0 000 20h.37v-3.77h-.37z" clip-rule="evenodd"/>
</svg>
