<svg width="25" height="24" viewBox="0 0 25 24" fill="none" xmlns="http://www.w3.org/2000/svg">
  <path fill-rule="evenodd" clip-rule="evenodd" d="M6.37283 3H17.9631C19.0775 3 19.4816 3.11603 19.889 3.33392C20.2964 3.5518 20.6162 3.87154 20.8341 4.27894C21.0519 4.68635 21.168 5.09046 21.168 6.20486V17.7951C21.168 18.9095 21.0519 19.3137 20.8341 19.7211C20.6162 20.1285 20.2964 20.4482 19.889 20.6661C19.4816 20.884 19.0775 21 17.9631 21H6.37283C5.25843 21 4.85432 20.884 4.44691 20.6661C4.0395 20.4482 3.71977 20.1285 3.50188 19.7211C3.284 19.3137 3.16797 18.9095 3.16797 17.7951V6.20486C3.16797 5.09046 3.284 4.68635 3.50188 4.27894C3.71977 3.87154 4.0395 3.5518 4.44691 3.33392C4.85432 3.11603 5.25843 3 6.37283 3ZM5.16797 9V17.7951C5.16797 18.2216 5.18696 18.4887 5.21694 18.644C5.22869 18.7048 5.23364 18.7183 5.26551 18.7779C5.297 18.8367 5.33124 18.871 5.39011 18.9025C5.4497 18.9343 5.46314 18.9393 5.52396 18.951C5.67922 18.981 5.94641 19 6.37283 19H17.9631C18.3895 19 18.6567 18.981 18.812 18.951C18.8728 18.9393 18.8862 18.9343 18.9458 18.9025C19.0047 18.871 19.0389 18.8367 19.0704 18.7779C19.1023 18.7183 19.1073 18.7048 19.119 18.644C19.149 18.4887 19.168 18.2216 19.168 17.7951L19.1723 9H5.16797ZM8.16797 11C7.61568 11 7.16797 11.4477 7.16797 12C7.16797 12.5523 7.61568 13 8.16797 13H16.168C16.7203 13 17.168 12.5523 17.168 12C17.168 11.4477 16.7203 11 16.168 11H8.16797ZM7.16797 16C7.16797 15.4477 7.61568 15 8.16797 15H13.168C13.7203 15 14.168 15.4477 14.168 16C14.168 16.5523 13.7203 17 13.168 17H8.16797C7.61568 17 7.16797 16.5523 7.16797 16ZM17.9107 4.75C17.2171 4.75 16.668 5.27023 16.668 5.99277C16.668 6.71532 17.2171 7.25 17.9107 7.25C18.6188 7.25 19.168 6.71532 19.168 5.99277C19.168 5.27023 18.6188 4.75 17.9107 4.75Z" fill="#262633"/>
</svg>
