<svg width="25" height="24" viewBox="0 0 25 24" fill="none" xmlns="http://www.w3.org/2000/svg">
<path fill-rule="evenodd" clip-rule="evenodd" d="M22.0962 13.0578C22.6809 12.4722 22.6809 11.5275 22.0962 10.9419C20.2848 9.1276 16.7515 5.58878 16.4625 5.29982C16.0725 4.90982 15.4325 4.90982 15.0425 5.29982C14.6525 5.68982 14.6525 6.31982 15.0425 6.70982L17.7592 9.42653C18.2936 9.96093 18.886 10.4321 19.5267 10.8329L19.8694 11.0472L19.6613 11.2538C18.9276 11.0852 18.1763 10.9998 17.4219 10.9998H3.5C2.94772 10.9998 2.5 11.4475 2.5 11.9998C2.5 12.5521 2.94772 12.9998 3.5 12.9998H17.4219C18.1763 12.9998 18.9276 12.9144 19.6613 12.7458L19.8694 12.9524L19.5267 13.1668C18.886 13.5675 18.2936 14.0387 17.7592 14.5731L15.0425 17.2898C14.6525 17.6798 14.6525 18.3098 15.0425 18.6998C15.4325 19.0898 16.0725 19.0898 16.4625 18.6998C16.7515 18.4109 20.2848 14.8721 22.0962 13.0578Z" fill="white"/>
</svg>
