<svg width="29" height="28" viewBox="0 0 29 28" fill="none" xmlns="http://www.w3.org/2000/svg">
  <path fill-rule="evenodd" clip-rule="evenodd" d="M14.3338 0C13.2908 0 12.2764 0.117329 11.2991 0.334325V14.0097C11.2991 15.6855 12.6654 17.0522 14.3418 17.0522C16.0172 17.0522 17.3832 15.6855 17.3832 14.0105C17.3832 12.4007 16.1253 11.0794 14.5441 10.9743V8.53894C17.4661 8.64492 19.8174 11.0621 19.8174 14.0105C19.8174 17.0257 17.3575 19.4867 14.3418 19.4867C11.3247 19.4867 8.86532 17.0257 8.86532 14.0097V1.10811C8.51963 1.25487 8.18192 1.41762 7.85095 1.59256V14.0097C7.85137 17.5838 10.7675 20.4985 14.3418 20.4985C17.9165 20.4985 20.8313 17.5838 20.8313 14.0105C20.8313 10.5037 18.0262 7.63185 14.5441 7.52378V5.0893C19.3661 5.19822 23.2642 9.16386 23.2642 14.0105C23.2642 18.9257 19.2559 22.933 14.3418 22.933C9.42634 22.933 5.41679 18.9257 5.41679 14.0097V3.20741C2.31311 5.77393 0.333984 9.65504 0.333984 13.9992C0.333984 21.7307 6.60191 28 14.3342 28C22.0677 28 28.334 21.7307 28.334 13.9992C28.334 6.26764 22.0677 0 14.3338 0Z" fill="#D91935"/>
</svg>
