<svg width="15" height="15" viewBox="0 0 15 15" fill="none" xmlns="http://www.w3.org/2000/svg">
  <path fill-rule="evenodd" clip-rule="evenodd" d="M10.125 4.37744C10.3571 4.37744 10.5796 4.28525 10.7437 4.12116C10.9078 3.95707 11 3.73451 11 3.50244C11 2.57418 10.6313 1.68394 9.97487 1.02757C9.3185 0.37119 8.42826 0.00244141 7.5 0.00244141C6.57174 0.00244141 5.6815 0.37119 5.02513 1.02757C4.36875 1.68394 4 2.57418 4 3.50244V6.12744H3.5625C3.2144 6.12744 2.88056 6.26572 2.63442 6.51186C2.38828 6.758 2.25 7.09184 2.25 7.43994V12.6899C2.25 13.038 2.38828 13.3719 2.63442 13.618C2.88056 13.8642 3.2144 14.0024 3.5625 14.0024H11.4375C11.7856 14.0024 12.1194 13.8642 12.3656 13.618C12.6117 13.3719 12.75 13.038 12.75 12.6899V7.43994C12.75 7.09184 12.6117 6.758 12.3656 6.51186C12.1194 6.26572 11.7856 6.12744 11.4375 6.12744H5.75V3.50244C5.75 3.03831 5.93437 2.59319 6.26256 2.265C6.59075 1.93682 7.03587 1.75244 7.5 1.75244C7.96413 1.75244 8.40925 1.93682 8.73744 2.265C9.06563 2.59319 9.25 3.03831 9.25 3.50244C9.25 3.73451 9.34219 3.95707 9.50628 4.12116C9.67038 4.28525 9.89294 4.37744 10.125 4.37744Z" fill="#00BD0F"/>
  <rect x="9.25" y="3.5" width="1.75" height="3.5" fill="#00BD0F"/>
</svg>
