<svg width="90" height="36" viewBox="0 0 90 36" fill="none" xmlns="http://www.w3.org/2000/svg">
  <g clip-path="url(#clip0_1603_135080)">
    <path fill-rule="evenodd" clip-rule="evenodd" d="M71.5 1.65H18.5C9.47014 1.65 2.15 8.97014 2.15 18C2.15 27.0299 9.47015 34.35 18.5 34.35H71.5C80.5299 34.35 87.85 27.0299 87.85 18C87.85 8.97015 80.5299 1.65 71.5 1.65ZM18.5 0C8.55887 0 0.5 8.05888 0.5 18C0.5 27.9411 8.55888 36 18.5 36H71.5C81.4411 36 89.5 27.9411 89.5 18C89.5 8.05888 81.4411 0 71.5 0H18.5Z" fill="black"/>
    <path fill-rule="evenodd" clip-rule="evenodd" d="M38.9466 11.2086V16.807H41.377C42.1146 16.8238 42.7515 16.7232 43.2879 16.5388C43.8075 16.3544 44.2265 16.0527 44.4947 15.6337C44.7629 15.2146 44.9137 14.6615 44.9137 13.9743C44.9137 13.0356 44.6456 12.3484 44.0924 11.8958C43.5561 11.4433 42.6845 11.2086 41.5279 11.2086H38.9466ZM38.9466 24.9029V19.3548H41.3603C42.8353 19.3548 44.1092 19.1704 45.1317 18.8184C46.1541 18.4664 46.9587 17.8965 47.5286 17.1087C48.0985 16.3209 48.3834 15.2817 48.3834 13.9743C48.3834 12.2143 47.8135 10.8901 46.657 10.0185C45.5004 9.13014 43.7404 8.69434 41.377 8.69434H38.9466H37.2034H35.5439V24.9029H38.9466ZM62.1783 23.4588V23.4589L62.1784 23.4615C62.1951 23.9307 62.2454 24.4166 62.2956 24.9025L62.2957 24.903H59.0271C58.9936 24.7857 58.9434 24.6013 58.8931 24.3834C58.826 24.1655 58.7925 23.9476 58.7589 23.7297H58.6416C58.3567 23.9476 58.0549 24.1655 57.7029 24.3666C57.351 24.5846 56.9151 24.7522 56.3955 24.8695C55.8759 25.0036 55.239 25.0706 54.5015 25.0706C53.194 25.0706 52.1548 24.7522 51.367 24.1152C50.5792 23.4783 50.1937 22.5731 50.1937 21.4166C50.1937 20.4947 50.4619 19.7572 50.9815 19.1873C51.5011 18.6174 52.3224 18.1816 53.4119 17.9301C54.5015 17.6787 55.943 17.5279 57.6862 17.5279H58.7589V17.0585C58.7589 16.6563 58.6584 16.321 58.4405 16.0528C58.2226 15.7846 57.9209 15.6003 57.5018 15.4997C57.0828 15.3991 56.5967 15.3488 55.9933 15.3488C55.3731 15.3488 54.7529 15.3991 54.116 15.4997C53.479 15.6003 52.9091 15.7344 52.4062 15.902C51.9034 16.0696 51.4844 16.2372 51.1659 16.4048V13.9744C51.6855 13.7062 52.4063 13.4715 53.3282 13.2871C54.2501 13.086 55.306 13.0022 56.5129 13.0022C57.7868 13.0022 58.8428 13.1195 59.6641 13.3877C60.4854 13.6391 61.1056 14.0749 61.5246 14.6784C61.9437 15.2818 62.1448 16.0864 62.1448 17.0753V22.0368C62.1448 22.5219 62.1615 22.9904 62.1783 23.4588ZM58.7757 19.5057H57.77C56.7643 19.5057 55.9597 19.556 55.3563 19.6734C54.7529 19.7907 54.3171 19.9751 54.0489 20.2265C53.7807 20.4947 53.6466 20.8467 53.6466 21.2993C53.6466 21.6345 53.7304 21.9362 53.8813 22.1709C54.0321 22.4055 54.2835 22.5899 54.602 22.724C54.9205 22.8581 55.3396 22.9419 55.8424 22.9419C56.5129 22.9419 57.0828 22.8246 57.5856 22.6067C58.0717 22.3888 58.474 22.0871 58.7924 21.7015V19.5057H58.7757ZM66.0671 25.7747V28.2052C66.6873 28.4231 67.341 28.5236 68.0282 28.5069C68.7322 28.5069 69.3692 28.4231 69.8888 28.2722C70.4252 28.1214 70.8944 27.8699 71.3135 27.5179C71.7325 27.1659 72.1013 26.7469 72.4533 26.2273C72.7886 25.7077 73.107 25.1042 73.4087 24.3835L78.1523 13.1699H74.934L71.5032 21.9552L67.8439 13.1699H64.3239L69.7036 25.1695C69.6279 25.2915 69.5504 25.4038 69.4697 25.5065C69.2854 25.7412 69.0507 25.9256 68.7825 26.0429C68.5143 26.1602 68.1791 26.2105 67.7768 26.2105C67.3913 26.2105 67.0728 26.177 66.8046 26.0932C66.5196 26.0261 66.285 25.9088 66.0671 25.7747Z" fill="black"/>
    <path d="M7.5 18C7.5 11.9249 12.4249 7 18.5 7C24.5751 7 29.5 11.9249 29.5 18C29.5 24.0751 24.5751 29 18.5 29C12.4249 29 7.5 24.0751 7.5 18Z" fill="black"/>
    <path d="M20.0503 24.6111H22.3484V11.4111H19.0057C15.6439 11.4111 13.8776 13.1395 13.8776 15.6845C13.8776 17.7167 14.8462 18.9133 16.5746 20.1478L13.5737 24.6111H16.0618L19.4045 19.616L18.246 18.8373C16.8405 17.8877 16.1568 17.147 16.1568 15.5516C16.1568 14.1461 17.1444 13.1965 19.0247 13.1965H20.0503V24.6111Z" fill="white"/>
  </g>
  <defs>
    <clipPath id="clip0_1603_135080">
      <rect width="89" height="36" fill="white" transform="translate(0.5)"/>
    </clipPath>
    </defs>
</svg>
