<svg width="85" height="36" viewBox="0 0 85 36" fill="none" xmlns="http://www.w3.org/2000/svg">
<g clip-path="url(#clip0_4711_167368)">
<path fill-rule="evenodd" clip-rule="evenodd" d="M38.7364 11.6599V17.1391H41.1151C41.8369 17.1555 42.4602 17.0571 42.9852 16.8766C43.4937 16.6961 43.9039 16.4009 44.1663 15.9907C44.4288 15.5806 44.5765 15.0393 44.5765 14.3667C44.5765 13.448 44.314 12.7754 43.7726 12.3325C43.2477 11.8896 42.3946 11.6599 41.2627 11.6599H38.7364ZM38.7364 25.0625V19.6326H41.0987C42.5423 19.6326 43.789 19.4521 44.7897 19.1076C45.7904 18.7631 46.5778 18.2054 47.1356 17.4344C47.6933 16.6633 47.9722 15.6463 47.9722 14.3667C47.9722 12.6442 47.4145 11.3482 46.2825 10.4952C45.1506 9.62574 43.4281 9.19922 41.1151 9.19922H38.7364H37.0303H35.4062V25.0625H38.7364ZM60.7945 23.6494L60.7946 23.6518C60.811 24.111 60.8601 24.5865 60.9093 25.0621L60.9094 25.0626H57.7105C57.6777 24.9478 57.6285 24.7673 57.5793 24.5541C57.5136 24.3408 57.4808 24.1275 57.448 23.9143H57.3331C57.0543 24.1275 56.759 24.3408 56.4145 24.5377C56.07 24.7509 55.6435 24.915 55.1349 25.0298C54.6264 25.161 54.003 25.2267 53.2812 25.2267C52.0016 25.2267 50.9845 24.915 50.2135 24.2916C49.4425 23.6682 49.0652 22.7824 49.0652 21.6504C49.0652 20.7482 49.3277 20.0264 49.8363 19.4686C50.3448 18.9109 51.1486 18.4843 52.2149 18.2383C53.2812 17.9922 54.692 17.8446 56.3981 17.8446H57.448V17.3852C57.448 16.9915 57.3496 16.6634 57.1363 16.4009C56.923 16.1385 56.6278 15.958 56.2176 15.8596C55.8075 15.7612 55.3318 15.712 54.7412 15.712C54.1343 15.712 53.5273 15.7612 52.9039 15.8596C52.2805 15.958 51.7228 16.0893 51.2306 16.2533C50.7385 16.4174 50.3284 16.5814 50.0167 16.7454V14.3668C50.5252 14.1043 51.2306 13.8746 52.1329 13.6942C53.0352 13.4973 54.0686 13.4153 55.2498 13.4153C56.4965 13.4153 57.53 13.5301 58.3339 13.7926C59.1377 14.0387 59.7446 14.4652 60.1548 15.0558C60.5649 15.6463 60.7617 16.4338 60.7617 17.4016V22.2574C60.7617 22.7323 60.7781 23.1909 60.7945 23.6494ZM57.4644 19.7803H56.4801C55.4958 19.7803 54.7084 19.8295 54.1178 19.9444C53.5273 20.0592 53.1008 20.2396 52.8383 20.4857C52.5758 20.7482 52.4446 21.0927 52.4446 21.5356C52.4446 21.8637 52.5266 22.159 52.6742 22.3886C52.8219 22.6183 53.0679 22.7988 53.3796 22.93C53.6913 23.0612 54.1015 23.1433 54.5936 23.1433C55.2498 23.1433 55.8075 23.0284 56.2996 22.8152C56.7754 22.6019 57.1691 22.3066 57.4808 21.9293V19.7803H57.4644ZM63.7874 25.9157V28.2944C64.3944 28.5077 65.0341 28.6061 65.7067 28.5897C66.3957 28.5897 67.0191 28.5077 67.5277 28.36C68.0526 28.2124 68.5119 27.9663 68.922 27.6218C69.3321 27.2773 69.6931 26.8672 70.0376 26.3587C70.3657 25.8501 70.6773 25.2595 70.9726 24.5541L75.6151 13.5794H72.4654L69.1077 22.1776L65.5263 13.5794H62.0813L67.3464 25.3235C67.2723 25.4428 67.1965 25.5527 67.1175 25.6533C66.9371 25.8829 66.7074 26.0634 66.445 26.1782C66.1825 26.293 65.8544 26.3423 65.4607 26.3423C65.0834 26.3423 64.7716 26.3094 64.5092 26.2274C64.2303 26.1618 64.0007 26.047 63.7874 25.9157Z" fill="black"/>
<path d="M8.55518 17.8508C8.55518 11.8093 13.4528 6.91162 19.4944 6.91162V6.91162C25.536 6.91162 30.4336 11.8093 30.4336 17.8508V17.8508C30.4336 23.8924 25.536 28.7901 19.4944 28.7901V28.7901C13.4528 28.7901 8.55518 23.8924 8.55518 17.8508V17.8508Z" fill="#FC3F1D"/>
<path d="M21.036 24.4254H23.3214V11.2983H19.9971C16.654 11.2983 14.8974 13.0171 14.8974 15.5481C14.8974 17.5691 15.8607 18.7591 17.5795 19.9868L14.5952 24.4254H17.0695L20.3938 19.4579L19.2416 18.6835C17.8439 17.7391 17.164 17.0025 17.164 15.4159C17.164 14.0182 18.1461 13.0738 20.016 13.0738H21.036V24.4254Z" fill="white"/>
<path fill-rule="evenodd" clip-rule="evenodd" d="M18.5 0L66.5 0C76.4411 0 84.5 8.05888 84.5 18C84.5 27.9411 76.4411 36 66.5 36H18.5C8.55886 36 0.5 27.9411 0.5 18C0.5 8.05888 8.55888 0 18.5 0ZM18.5 1.59116C9.43765 1.59116 2.09116 8.93765 2.09116 18C2.09116 27.0624 9.43763 34.4088 18.5 34.4088H66.5C75.5624 34.4088 82.9088 27.0624 82.9088 18C82.9088 8.93765 75.5624 1.59116 66.5 1.59116H18.5Z" fill="black"/>
</g>
<defs>
<clipPath id="clip0_4711_167368">
<rect width="84" height="36" fill="white" transform="translate(0.5)"/>
</clipPath>
</defs>
</svg>
