<svg width="98" height="28" viewBox="0 0 98 28" fill="none" xmlns="http://www.w3.org/2000/svg">
  <path fill-rule="evenodd" clip-rule="evenodd" d="M22.3625 9.65069C22.4791 10.285 22.4921 10.934 22.4011 11.5725C22.3172 12.1588 22.1162 12.7222 21.8102 13.2292C21.4922 13.7411 21.0616 14.1736 20.5511 14.4938C19.9528 14.864 19.2861 15.11 18.5907 15.2173L16.321 15.6149L17.3592 21.568L14.8244 22.0153L12.0908 6.55263L16.7628 5.7298C17.4255 5.60362 18.1042 5.58497 18.7729 5.67458C19.3642 5.75541 19.9301 5.96667 20.4296 6.29308C20.933 6.63273 21.3508 7.08452 21.6501 7.61293C22.0046 8.24541 22.2457 8.93507 22.3625 9.65069ZM19.8387 10.0373C19.7687 9.39553 19.4591 8.80386 18.9717 8.38055C18.711 8.2036 18.4155 8.08445 18.105 8.03111C17.7945 7.97777 17.4762 7.99147 17.1714 8.07129L15.0563 8.44682L15.9013 13.2292L18.0384 12.8537C18.3537 12.8236 18.6581 12.7225 18.9288 12.558C19.1994 12.3935 19.4293 12.1698 19.6013 11.9038C19.9012 11.3301 19.9854 10.6678 19.8387 10.0373Z" fill="black"/>
  <path fill-rule="evenodd" clip-rule="evenodd" d="M28.6195 22.4293L24.3231 21.6727C24.2679 21.8016 24.1685 22.0133 24.0249 22.3078C23.8813 22.6023 23.7322 22.9171 23.5776 23.2521L23.1358 24.2075C22.9996 24.5057 22.8965 24.7174 22.8265 24.8426L20.1758 24.3566L27.3549 9.65601L29.8013 10.0868L31.5629 26.3723L28.868 25.8973L28.6195 22.4293ZM26.6315 16.5259L25.2785 19.5024L28.4373 20.0547L28.2053 16.8241C28.2053 16.6842 28.2053 16.4522 28.2053 16.1282C28.2053 15.8043 28.1888 15.4656 28.1556 15.1121C28.1335 14.744 28.1133 14.4071 28.0949 14.1015C28.0819 13.8753 28.0819 13.6485 28.0949 13.4223H27.9844L26.6315 16.5259Z" fill="black"/>
  <path fill-rule="evenodd" clip-rule="evenodd" d="M34.5451 9.00459C34.6187 8.47075 34.7015 7.94429 34.7936 7.42518C34.8856 6.90608 34.9758 6.37777 35.0642 5.84026L35.8042 2.08503L38.4991 1.61011L36.1907 11.4676L37.2952 17.7907L34.8046 18.2325L33.7001 11.9094L28.1777 3.41041L30.9389 2.92444C31.2703 3.49509 31.6016 4.04732 31.933 4.58116C32.2643 5.11499 32.5883 5.66722 32.9049 6.23787L33.667 7.61847L34.4291 8.99907L34.5451 9.00459Z" fill="black"/>
  <path fill-rule="evenodd" clip-rule="evenodd" d="M45.5954 8.83344L43.2705 22.0099L40.7357 21.5625L43.0606 8.38613L39.6533 7.78971L40.062 5.47583L49.45 7.13255L49.0248 9.44643L45.5954 8.83344Z" fill="black"/>
  <path fill-rule="evenodd" clip-rule="evenodd" d="M58.5008 9.83862L60.406 20.6349C60.5334 21.3212 60.5334 22.025 60.406 22.7113C60.2942 23.3214 60.0511 23.8998 59.6936 24.4067C59.3387 24.9008 58.8856 25.3163 58.3627 25.6271C57.1423 26.3199 55.7135 26.5511 54.3369 26.2788C53.7328 26.139 53.1671 25.8674 52.6802 25.4835C52.1998 25.0963 51.8034 24.6153 51.5149 24.0698C51.2016 23.4845 50.9853 22.8523 50.8743 22.1977L48.9912 11.5174L51.526 11.0701L53.4202 21.8222C53.513 22.4441 53.8196 23.0143 54.2872 23.4347C54.5345 23.6408 54.8269 23.7856 55.1406 23.8576C55.4543 23.9296 55.7806 23.9266 56.093 23.8489C56.3809 23.808 56.6574 23.7085 56.9053 23.5565C57.1532 23.4046 57.3673 23.2033 57.5343 22.9653C57.7048 22.7079 57.8212 22.4185 57.8762 22.1147C57.9313 21.8109 57.924 21.499 57.8546 21.1982L55.9328 10.2915L58.5008 9.83862Z" fill="black"/>
  <path fill-rule="evenodd" clip-rule="evenodd" d="M68.2755 18.3538L67.0993 11.4895L65.1167 11.1416L63.9791 17.5973L61.4443 17.1499L64.1779 1.68726L69.1481 2.56531C69.7545 2.66605 70.3403 2.86567 70.8821 3.15621C71.3846 3.42061 71.8206 3.79553 72.1573 4.25274C72.494 4.70996 72.7226 5.23758 72.826 5.79591C72.9535 6.45804 72.9535 7.13841 72.826 7.80054C72.6932 8.6919 72.3232 9.53115 71.7546 10.2304C71.1992 10.8776 70.4529 11.3319 69.623 11.5282L71.0588 18.8729L68.2755 18.3538ZM70.3354 7.30905C70.4113 7.02052 70.4265 6.71935 70.3799 6.42466C70.3333 6.12996 70.226 5.84815 70.0648 5.59711C69.6851 5.14395 69.1449 4.85508 68.5572 4.79084L66.3096 4.39323L65.5309 8.81114L67.7399 9.20323C68.028 9.26952 68.3266 9.27729 68.6178 9.22606C68.909 9.17484 69.187 9.06567 69.4352 8.90502C69.682 8.71654 69.8887 8.48077 70.0432 8.21148C70.1978 7.94219 70.2971 7.64478 70.3354 7.33666V7.30905Z" fill="black"/>
  <path fill-rule="evenodd" clip-rule="evenodd" d="M77.2717 22.4406L74.5381 6.97789L83.153 5.45923L83.5727 7.78968L77.4981 8.86102L78.227 13.0028L83.4567 12.0806L83.8654 14.3945L78.6578 15.3167L79.4088 19.591L85.4835 18.5197L85.9087 20.9219L77.2717 22.4406Z" fill="black"/>
</svg>
