<svg width="99" height="28" viewBox="0 0 99 28" fill="none" xmlns="http://www.w3.org/2000/svg">
  <g clip-path="url(#clip0_1862_122352)">
    <path fill-rule="evenodd" clip-rule="evenodd" d="M74.175 15.3401C74.175 16.274 73.6524 16.888 72.6896 16.888C72.3086 16.888 71.9966 16.8898 71.4991 16.7551V13.9295C71.7187 13.8941 72.1723 13.8241 72.6896 13.8427C73.6685 13.8799 74.175 14.3318 74.175 15.3401ZM76.1515 15.201C76.1515 13.4706 75.1251 12.2771 72.9691 12.2771C72.4402 12.2771 72.0709 12.3276 71.499 12.4605L71.4954 9.96891C72.0372 9.90303 72.5828 9.87165 73.1287 9.87499C73.7634 9.87499 74.5666 9.90955 75.2712 9.99461L75.3196 8.55035C74.5191 8.37314 73.3573 8.26416 72.4564 8.26416C71.568 8.26416 70.1866 8.4839 69.5295 8.66022L69.5286 17.8707C70.5541 18.241 71.5545 18.4112 72.581 18.4112C74.9315 18.4112 76.1515 17.1796 76.1515 15.201ZM53.7286 14.6995C53.7286 15.9843 53.2113 16.8128 52.3588 16.8128C52.0002 16.8128 51.812 16.795 51.4068 16.6639V12.8061C51.8505 12.5969 52.0899 12.5987 52.4485 12.5987C53.3019 12.5987 53.7286 13.296 53.7286 14.6987V14.6995ZM47.2338 14.743C47.2338 13.3403 47.6615 12.5987 48.514 12.5987C48.8735 12.5987 49.1128 12.597 49.5565 12.8061V16.6639C49.1531 16.795 48.9631 16.8128 48.6036 16.8128C47.6328 16.8128 47.2338 16.0286 47.2338 14.743ZM51.4068 20.5235V18.0124C51.6426 18.1507 52.1114 18.3536 52.903 18.3536C54.4763 18.3536 55.6363 17.0608 55.6363 14.6995C55.6363 12.1548 54.4843 11.0667 52.591 11.0667C52.1096 11.0667 51.7968 11.1146 51.4077 11.298V8.29872H49.5566V11.298C49.1675 11.1146 48.852 11.0658 48.3724 11.0658C46.4791 11.0658 45.3262 12.2 45.3262 14.7429C45.3262 17.1051 46.3679 18.3536 48.0568 18.3536C48.852 18.3536 49.3208 18.1498 49.5566 18.0124V20.5235H51.4068ZM37.3479 18.2349V11.5009C36.3277 11.2014 35.5433 11.0712 34.5196 11.0712C33.4976 11.0712 32.7311 11.2014 31.711 11.5018V14.9485C31.711 15.8859 31.6948 16.1677 31.5909 16.4707C31.4887 16.7365 31.3506 17.0555 30.9768 17.301L31.4824 18.3766C32.975 17.9602 33.5361 17.3178 33.5361 15.279V12.744C34.0292 12.6731 34.1269 12.6554 34.5196 12.6554C34.914 12.6554 34.9974 12.6731 35.4886 12.744V18.2357H37.3479V18.2349ZM60.2342 16.7588C59.9143 16.8767 59.5751 16.935 59.2338 16.9307C58.5695 16.9307 58.1912 16.6711 58.1912 15.9968C58.1912 15.2968 58.6681 15.0585 59.5896 15.0585C59.8102 15.0585 60.0334 15.0922 60.1383 15.1276V15.6309C60.1383 16.1731 60.1652 16.5276 60.2333 16.7588H60.2342ZM62.5945 17.5641C62.1041 16.8269 61.9759 16.3919 61.9759 15.4642V13.5822C61.9759 12.5659 61.8576 12.1929 61.5842 11.8199C61.2086 11.2971 60.5802 11.0712 59.4202 11.0712C58.6026 11.0712 57.7976 11.1589 57.0294 11.352L57.3055 12.6997C57.8281 12.628 58.3722 12.5659 58.7658 12.5659C59.9957 12.5659 60.1373 12.7431 60.1373 13.654V13.9951C59.8315 13.9124 59.5158 13.8704 59.1988 13.8702C57.3395 13.8702 56.3615 14.7651 56.3615 16.2439C56.3615 17.6332 57.4059 18.3917 58.6878 18.3917C59.1629 18.3917 59.6595 18.304 60.0522 18.148C60.2879 18.0444 60.391 17.9859 60.6985 17.7865C60.8841 18.055 61.2543 18.327 61.4049 18.3766L62.5945 17.5641ZM80.7307 16.7579C80.4109 16.8762 80.0717 16.9348 79.7303 16.9307C79.0651 16.9307 78.6904 16.6711 78.6904 15.9968C78.6904 15.2968 79.1673 15.0585 80.088 15.0585C80.3121 15.0585 80.5326 15.0922 80.6339 15.1276V15.6309C80.6339 16.1731 80.6635 16.5275 80.7307 16.7588V16.7579ZM83.0927 17.5641C82.6006 16.8269 82.4742 16.3919 82.4742 15.4642V13.5822C82.4742 12.5659 82.3559 12.1929 82.0833 11.8199C81.7059 11.2971 81.0775 11.0712 79.9175 11.0712C79.0982 11.0712 78.2958 11.1589 77.5285 11.352L77.8028 12.6997C78.3236 12.628 78.8714 12.5659 79.264 12.5659C80.4921 12.5659 80.6338 12.7431 80.6338 13.654V13.9951C80.3283 13.9123 80.0129 13.8702 79.6961 13.8702C77.8387 13.8702 76.8606 14.7651 76.8606 16.2439C76.8606 17.6332 77.9059 18.3917 79.1851 18.3917C79.6509 18.3943 80.1132 18.3117 80.5486 18.148C80.7862 18.0444 80.8893 17.9859 81.195 17.7865C81.3814 18.055 81.7526 18.327 81.9032 18.3766L83.0927 17.5641ZM42.6297 15.8158C42.6297 16.5052 42.3832 16.9765 41.4912 16.9765C41.1909 16.9765 41.0672 16.9765 40.6773 16.8693V14.8545C41.1613 14.7614 41.2044 14.7455 41.4912 14.7455C42.3438 14.7455 42.6297 15.1557 42.6297 15.8158ZM38.8208 11.1835L38.8136 17.8669C39.6723 18.2174 40.592 18.3983 41.5209 18.3994C43.4949 18.3994 44.5509 17.392 44.5509 15.7307C44.5509 14.2271 43.6159 13.2967 41.8696 13.2967C41.4259 13.2967 41.165 13.3552 40.6774 13.4704V11.1844H38.8208V11.1835ZM89.8844 18.2348V11.2465H88.0252V13.8887H85.9212V11.2465H84.0656L84.0665 18.2348H85.9221V15.3817H88.0252V18.2348H89.8844ZM97.5103 18.2348C97.5103 18.2348 96.4973 16.0959 96.2481 15.6121C95.9684 15.0637 95.7102 14.6853 95.1383 14.5506V14.5187C95.5219 14.447 95.8267 14.2175 96.1557 13.5184C96.474 12.8361 96.5681 12.6891 96.7537 12.5278C96.9365 12.3639 97.1848 12.4268 97.1848 12.4268L97.2799 11.1544C96.9927 11.1221 96.7031 11.1159 96.4148 11.1358C95.9128 11.166 95.6501 11.3068 95.4045 11.5558C95.2127 11.7445 95.0791 12.0263 94.9159 12.3568C94.742 12.7103 94.6049 12.9956 94.4292 13.3554C94.2499 13.7231 94.1638 13.887 93.6824 13.887H93.3705V11.2466H91.5041V18.2348H93.3705V15.3791L93.6242 15.3747C94.1549 15.3747 94.2454 15.5058 94.5269 16.0587C94.8586 16.7197 95.4852 18.2348 95.4852 18.2348H97.5103ZM28.2571 18.2356H30.3978L27.1652 8.46785C26.7731 8.34311 26.3633 8.2809 25.9514 8.28355C25.461 8.28355 25.2862 8.34734 24.9017 8.46785L21.4736 18.2356H23.5238C23.5238 18.2356 23.799 17.3797 24.1343 16.3173H27.6797L28.2571 18.2356ZM24.6559 14.68C24.6559 14.68 25.2476 12.7218 25.3372 12.4153C25.5766 11.6196 25.9343 10.3649 25.9343 10.3649H25.9934C25.9934 10.3649 26.3224 11.6648 26.5376 12.4046C26.6218 12.6917 27.1866 14.68 27.1866 14.68H24.6559ZM65.7518 13.5653C65.0974 13.5653 64.5658 14.0925 64.5658 14.7376C64.5658 15.3845 65.0964 15.9089 65.7509 15.9089C66.4054 15.9089 66.936 15.3845 66.936 14.7376C66.936 14.0925 66.4053 13.5653 65.7518 13.5653Z" fill="#EF3124"/>
    <path fill-rule="evenodd" clip-rule="evenodd" d="M7.01518 4.63867C8.39707 4.63867 8.83141 5.61706 9.195 6.5966C9.34867 7.01042 12.9382 16.7261 13.0455 17.0173C13.0756 17.0975 13.0559 17.2322 12.9295 17.2798C12.8603 17.3056 12.28 17.5283 11.7469 17.7329C11.297 17.9055 10.8808 18.0652 10.8338 18.0828C10.7292 18.1193 10.6144 18.0659 10.5763 17.963C10.554 17.9046 10.2826 17.1621 10.0425 16.5052L10.0422 16.5044C9.87004 16.0334 9.71402 15.6066 9.67747 15.5076H4.35985L3.45522 17.963C3.41927 18.0604 3.30735 18.1258 3.19833 18.0834C3.11677 18.0509 2.05837 17.6453 1.47672 17.4223L1.10492 17.2798C0.999728 17.2387 0.946946 17.1222 0.98604 17.0173C1.0548 16.8277 2.04368 14.1515 3.0026 11.5563L3.00292 11.5554L3.00327 11.5545C3.88804 9.15999 4.74711 6.83504 4.83421 6.5966C5.1833 5.63254 5.63446 4.63867 7.01518 4.63867ZM0.701816 22.0221C0.647678 22.0227 0.596001 22.0445 0.558155 22.0828C0.520309 22.121 0.499395 22.1726 0.500013 22.2261V24.4958C0.500013 24.6088 0.589897 24.6993 0.701816 24.6993H13.329C13.3829 24.6986 13.4343 24.6766 13.4719 24.6383C13.5094 24.6001 13.53 24.5486 13.529 24.4953V22.2255C13.5298 22.1723 13.5092 22.121 13.4716 22.0828C13.4341 22.0447 13.3828 22.0228 13.329 22.0221H0.701816ZM5.20572 13.1485L7.00455 7.81125H7.02717L8.83121 13.1485H5.20572Z" fill="#EF3124"/>
  </g>
  <defs>
    <clipPath id="clip0_1862_122352">
      <rect width="98" height="28" fill="white" transform="translate(0.5)"/>
    </clipPath>
  </defs>
</svg>
