<svg width="99" height="28" viewBox="0 0 99 28" fill="none" xmlns="http://www.w3.org/2000/svg">
<g clip-path="url(#clip0_4255_36354)">
<path d="M62.9048 4H59.6196V22.8175H62.9048V4Z" fill="#465364"/>
<path d="M38.0996 6.05692C38.0989 5.74341 38.009 5.43648 37.8404 5.17149C37.6749 4.90743 37.442 4.69169 37.165 4.54631C36.8733 4.38934 36.5466 4.30713 36.2148 4.30713C35.883 4.30713 35.5564 4.38934 35.2646 4.54631C34.9866 4.69021 34.7533 4.90628 34.5893 5.17149C34.4193 5.43589 34.3293 5.74321 34.3301 6.05692C34.3289 6.37422 34.4188 6.68529 34.5893 6.95366C34.7552 7.22026 34.9878 7.43958 35.2646 7.59016C35.5553 7.7493 35.8814 7.8339 36.2134 7.83626C36.5462 7.83366 36.8733 7.74909 37.165 7.59016C37.4406 7.43794 37.6729 7.21898 37.8404 6.95366C38.0094 6.68466 38.0993 6.37401 38.0996 6.05692Z" fill="#465364"/>
<path d="M32.7858 13.9717V22.8175H29.4693V14.3112C29.4838 14.0292 29.4391 13.7472 29.3381 13.4833C29.237 13.2193 29.0818 12.9791 28.8823 12.7779C28.4079 12.3762 27.7949 12.1733 27.1727 12.2122C26.8038 12.213 26.4357 12.2471 26.0729 12.314C25.781 12.3577 25.4945 12.4317 25.2182 12.5346V22.8175H21.9358V10.5431C22.6794 10.2444 23.4503 10.0179 24.2379 9.86704C25.1934 9.68954 26.1637 9.60334 27.1357 9.60961C28.2205 9.57585 29.3018 9.74869 30.3211 10.1188C31.0825 10.4045 31.7322 10.9237 32.1761 11.6011C32.6013 12.3181 32.8127 13.1401 32.7858 13.9717Z" fill="#465364"/>
<path d="M20.1832 9.89307V22.1702H20.1946C19.7458 22.3809 19.276 22.544 18.7928 22.6569C18.2027 22.8074 17.6029 22.918 16.9977 22.9878C16.3359 23.0676 15.6699 23.1073 15.0033 23.1066C13.9747 23.1401 12.9496 22.9729 11.9859 22.6144C11.2069 22.3141 10.5525 21.7621 10.1282 21.0472C9.68179 20.2066 9.46656 19.2641 9.50421 18.3145V9.89307H12.7751V18.3796C12.7751 19.0784 12.9717 19.5876 13.345 19.927C13.8121 20.2866 14.3967 20.462 14.9862 20.4192C15.3678 20.4193 15.7488 20.39 16.1259 20.3316C16.3887 20.2888 16.6472 20.2225 16.898 20.1336V9.89307H20.1832Z" fill="#465364"/>
<path d="M34.5723 9.89453H37.8547V22.8167H34.5723V9.89453Z" fill="#465364"/>
<path d="M46.1969 22.6477V19.9405C46.0602 19.9996 45.918 20.0451 45.7724 20.0764C45.6024 20.1103 45.4298 20.1301 45.2566 20.1357C44.9948 20.1385 44.7348 20.0925 44.4901 20C44.2705 19.9173 44.0842 19.7652 43.9602 19.5672C43.816 19.308 43.7469 19.0143 43.7608 18.7185V12.3395H46.1969V9.8925H43.7608V6.08203L40.5212 7.01839V9.8925H38.8572V12.3395H40.5212V18.9335C40.5212 20.2913 40.8061 21.3097 41.4272 21.9887C42.0484 22.6676 42.9629 23.0127 44.2194 23.0127C44.4797 23.0112 44.7396 22.9923 44.9973 22.9561C45.2317 22.9309 45.4641 22.8893 45.6925 22.8316C45.8658 22.7853 46.0345 22.7237 46.1969 22.6477Z" fill="#465364"/>
<path fill-rule="evenodd" clip-rule="evenodd" d="M56.8333 11.2212C57.3197 11.7582 57.6875 12.3903 57.9131 13.0769C58.1655 13.8476 58.2887 14.6542 58.2778 15.4645V16.0105C58.2725 16.1997 58.2573 16.3885 58.2323 16.5762L49.8526 17.7077C49.9293 18.2777 50.1487 18.8194 50.4909 19.2834C50.8166 19.7072 51.2531 20.034 51.7531 20.2282C52.2963 20.4446 52.8774 20.5514 53.4626 20.5422C53.9035 20.5425 54.3438 20.5074 54.779 20.4376C55.2019 20.372 55.6199 20.2774 56.0298 20.1548C56.3933 20.0449 56.7461 19.9029 57.0841 19.7304L58.0243 22.1745C57.6065 22.381 57.1682 22.5441 56.7165 22.661C56.1745 22.8113 55.6222 22.922 55.0639 22.9921C54.4527 23.072 53.8369 23.1117 53.2205 23.1109C52.2481 23.125 51.2817 22.9581 50.3713 22.6186C49.5874 22.317 48.8843 21.8398 48.3169 21.224C47.7538 20.607 47.3277 19.8793 47.0661 19.0882C46.7733 18.206 46.6299 17.2816 46.6415 16.3527C46.6326 15.4277 46.7721 14.5072 47.0547 13.6257C47.3021 12.8431 47.7051 12.1178 48.2399 11.4928C48.7589 10.8928 49.4075 10.417 50.1375 10.101C50.9422 9.76364 51.8086 9.59603 52.6819 9.60876C53.4995 9.59545 54.3122 9.73856 55.0753 10.0303C55.7451 10.289 56.3465 10.6963 56.8333 11.2212ZM50.0463 13.6257C49.7786 14.2656 49.6439 14.9526 49.6503 15.6455L55.081 14.9129C55.0974 14.3565 54.9945 13.803 54.779 13.2891C54.6039 12.883 54.305 12.5416 53.9242 12.3131C53.5239 12.0861 53.0686 11.9726 52.6078 11.985C52.0707 11.974 51.5421 12.1185 51.0863 12.4008C50.6263 12.6991 50.2646 13.1251 50.0463 13.6257Z" fill="#465364"/>
<path d="M64.9453 4H68.2276V22.8175H64.9453V4Z" fill="#465364"/>
<path fill-rule="evenodd" clip-rule="evenodd" d="M80.838 13.0769C80.6116 12.3894 80.2418 11.7571 79.7526 11.2211C79.2683 10.6958 78.6687 10.2883 78.0003 10.0302C77.2359 9.73903 76.4226 9.59595 75.604 9.60869C74.7316 9.59593 73.8662 9.76356 73.0626 10.1009C72.3324 10.417 71.6838 10.8927 71.165 11.4927C70.6291 12.1176 70.2251 12.8429 69.9768 13.6257C69.6952 14.5073 69.5567 15.4278 69.5664 16.3527C69.5563 17.2814 69.6996 18.2056 69.991 19.0881C70.2543 19.8786 70.6835 20.6048 71.2504 21.2182C71.8172 21.8334 72.5192 22.3106 73.3019 22.6129C74.2123 22.9521 75.1787 23.119 76.1511 23.1052C76.7686 23.1062 77.3852 23.0665 77.9974 22.9864C78.5564 22.9154 79.1096 22.8048 79.6528 22.6553C80.0967 22.5372 80.5274 22.3741 80.9378 22.1688L79.9947 19.7246C79.6566 19.8986 79.3026 20.0406 78.9376 20.149C78.5288 20.272 78.1118 20.3665 77.6896 20.4318C77.2535 20.5018 76.8123 20.5369 76.3704 20.5365C75.7852 20.5462 75.2039 20.4394 74.661 20.2225C74.168 20.0257 73.7371 19.7013 73.413 19.2833C73.0727 18.8189 72.8551 18.2772 72.7804 17.7077L81.1572 16.5762C81.1828 16.3866 81.1971 16.1971 81.2056 16.0104V15.4786C81.2158 14.6635 81.0915 13.8522 80.838 13.0769ZM72.5752 15.6455C72.5652 14.9533 72.696 14.2663 72.9599 13.6257C73.1691 13.1261 73.5264 12.7015 73.9844 12.4084C74.4426 12.1153 74.9796 11.9676 75.5243 11.9849C75.9859 11.9729 76.442 12.0863 76.8435 12.3131C77.2238 12.5421 77.5226 12.8833 77.6983 13.289C77.9162 13.8023 78.02 14.3561 78.0031 14.9128L72.5752 15.6455Z" fill="#465364"/>
<path d="M88.7423 9.6405C89.0302 9.66312 89.2866 9.69142 89.5002 9.72536L88.8991 12.4411C88.6724 12.3745 88.441 12.3253 88.2067 12.294C87.9478 12.261 87.687 12.244 87.426 12.243C87.1263 12.2434 86.8272 12.2671 86.5314 12.3138C86.2754 12.3529 86.0243 12.4183 85.7819 12.5089V22.8173H82.4968V10.557C83.2658 10.2611 84.0615 10.0385 84.8731 9.89227C85.8411 9.7069 86.8247 9.61217 87.8106 9.60938C88.1496 9.60938 88.4546 9.61787 88.7423 9.6405Z" fill="#465364"/>
</g>
<defs>
<clipPath id="clip0_4255_36354">
<rect width="80" height="20" fill="white" transform="translate(9.5 4)"/>
</clipPath>
</defs>
</svg>
