<svg width="123" height="28" viewBox="0 0 123 28" fill="none" xmlns="http://www.w3.org/2000/svg">
  <path fill-rule="evenodd" clip-rule="evenodd" d="M42.6018 4.12012H15.5808C13.8708 4.12012 12.4865 5.51798 12.5001 7.21443V17.5288C12.5001 19.2388 13.8844 20.6231 15.5944 20.6231H28.3924L34.2418 23.8803L32.9117 20.6231H42.6018C44.3119 20.6231 45.6961 19.2388 45.6961 17.5288V7.21443C45.6961 5.50441 44.3119 4.12012 42.6018 4.12012ZM15.0109 6.50871C14.6309 6.53585 14.3459 6.67157 14.1559 6.92942C13.9659 7.17371 13.898 7.48586 13.9387 7.83872C14.7395 12.9281 15.4859 16.3617 16.178 18.1395C16.4495 18.7909 16.7616 19.1032 17.1281 19.076C17.6981 19.0352 18.3766 18.2481 19.1774 16.7145C19.5981 15.8459 20.2495 14.5431 21.1317 12.8059C21.8645 15.3709 22.8688 17.2981 24.131 18.5874C24.4839 18.9538 24.8503 19.1167 25.2031 19.0895C25.5153 19.0624 25.7595 18.8995 25.9224 18.6009C26.0581 18.3431 26.1124 18.0445 26.0853 17.7052C26.0038 16.4702 26.126 14.7466 26.4653 12.5345C26.8181 10.2545 27.2524 8.6123 27.7817 7.63515C27.8903 7.43157 27.931 7.22799 27.9174 6.98371C27.8903 6.67156 27.7546 6.41371 27.4967 6.21013C27.2389 6.00656 26.9538 5.91156 26.6417 5.9387C26.2481 5.96585 25.9495 6.15584 25.746 6.53585C24.9046 8.06944 24.3074 10.553 23.9546 14.0002C23.4388 12.6973 23.0045 11.1637 22.6652 9.35873C22.516 8.55802 22.1496 8.17801 21.5524 8.21873C21.1452 8.24586 20.806 8.5173 20.5345 9.03301L17.5624 14.6924C17.0738 12.7245 16.6123 10.3223 16.1916 7.48586C16.0966 6.78014 15.703 6.45442 15.0109 6.50871ZM41.1633 7.4859C42.1269 7.68948 42.8462 8.2052 43.3347 9.0602C43.769 9.79307 43.9861 10.6752 43.9861 11.7338C43.9861 13.1316 43.6333 14.4074 42.9275 15.5745C42.1133 16.9317 41.0547 17.6103 39.7383 17.6103C39.5076 17.6103 39.2633 17.5831 39.0054 17.5288C38.0418 17.3253 37.3225 16.8096 36.8339 15.9546C36.3997 15.2081 36.1825 14.3124 36.1825 13.2674C36.1825 11.8695 36.5354 10.5938 37.2411 9.44021C38.069 8.08305 39.1276 7.40447 40.4304 7.40447C40.6611 7.40447 40.9054 7.43162 41.1633 7.4859ZM40.5933 14.8281C41.0955 14.3802 41.4347 13.7152 41.6247 12.8195C41.679 12.5074 41.7197 12.1681 41.7197 11.8152C41.7197 11.4217 41.6383 11.0009 41.4754 10.5802C41.2719 10.0509 41.0004 9.76593 40.6747 9.69806C40.1861 9.60306 39.7111 9.8745 39.2633 10.5395C38.8969 11.0552 38.6661 11.5981 38.544 12.1545C38.4761 12.4667 38.4489 12.806 38.4489 13.1453C38.4489 13.5388 38.5304 13.9595 38.6932 14.3802C38.8969 14.9095 39.1682 15.1945 39.494 15.2624C39.8333 15.3302 40.1997 15.181 40.5933 14.8281ZM34.8253 9.0602C34.3367 8.2052 33.6039 7.68948 32.6539 7.4859C32.396 7.43162 32.1518 7.40447 31.921 7.40447C30.6182 7.40447 29.5596 8.08305 28.7317 9.44021C28.0259 10.5938 27.6731 11.8695 27.6731 13.2674C27.6731 14.3124 27.8903 15.2081 28.3245 15.9546C28.8132 16.8096 29.5325 17.3253 30.496 17.5288C30.7538 17.5831 30.9981 17.6103 31.2289 17.6103C32.5453 17.6103 33.6039 16.9317 34.4182 15.5745C35.1239 14.4074 35.4767 13.1316 35.4767 11.7338C35.4767 10.6752 35.2596 9.79307 34.8253 9.0602ZM33.1153 12.8195C32.9254 13.7152 32.586 14.3802 32.0839 14.8281C31.6903 15.181 31.3239 15.3302 30.9846 15.2624C30.6589 15.1945 30.3874 14.9095 30.1839 14.3802C30.021 13.9595 29.9396 13.5388 29.9396 13.1453C29.9396 12.806 29.9667 12.4667 30.0346 12.1545C30.1567 11.5981 30.3874 11.0552 30.7538 10.5395C31.2018 9.8745 31.6768 9.60306 32.1653 9.69806C32.491 9.76593 32.7625 10.0509 32.966 10.5802C33.1289 11.0009 33.2103 11.4217 33.2103 11.8152C33.2103 12.1681 33.1832 12.5074 33.1153 12.8195Z" fill="#7F54B3"/>
  <path d="M49.1287 8.93783C48.2193 9.83355 47.7715 10.9736 47.7715 12.3579C47.7715 13.8372 48.2193 15.045 49.1151 15.9543C50.0108 16.8636 51.178 17.325 52.6301 17.325C53.0508 17.325 53.5258 17.2572 54.0416 17.1079V14.9093C53.5666 15.045 53.1594 15.1129 52.8065 15.1129C52.0872 15.1129 51.5173 14.8686 51.0829 14.3936C50.6487 13.905 50.4315 13.2536 50.4315 12.4257C50.4315 11.6521 50.6487 11.0143 51.0694 10.5257C51.5036 10.0236 52.0329 9.77926 52.6844 9.77926C53.1051 9.77926 53.553 9.84712 54.0416 9.98284V7.78425C53.5937 7.6621 53.0916 7.60781 52.5622 7.60781C51.178 7.59424 50.038 8.04211 49.1287 8.93783ZM58.5474 7.59424C57.2988 7.59424 56.3216 8.01496 55.6158 8.84282C54.9102 9.67069 54.5709 10.8379 54.5709 12.3307C54.5709 13.9458 54.9237 15.1807 55.6158 16.0358C56.308 16.8908 57.3259 17.325 58.6559 17.325C59.9452 17.325 60.9359 16.8908 61.628 16.0358C62.3202 15.1807 62.6731 13.9729 62.6731 12.4257C62.6731 10.8786 62.3202 9.68426 61.6145 8.84282C60.8952 8.01496 59.8773 7.59424 58.5474 7.59424ZM59.6195 14.6514C59.3752 15.0315 59.0087 15.2215 58.5474 15.2215C58.113 15.2215 57.7873 15.0315 57.5566 14.6514C57.3259 14.2714 57.2173 13.5114 57.2173 12.3579C57.2173 10.58 57.6652 9.69783 58.5745 9.69783C59.5245 9.69783 60.013 10.5936 60.013 12.3986C59.9995 13.5114 59.8638 14.2714 59.6195 14.6514ZM69.3774 7.8521L68.8888 9.92855C68.7667 10.4578 68.6446 11.0007 68.536 11.5571L68.2646 12.9958C68.0067 11.5571 67.6538 9.84712 67.206 7.8521H64.0574L62.8766 17.0943H65.2381L65.876 10.7293L67.491 17.0943H69.1739L70.721 10.7428L71.386 17.0943H73.8561L72.6075 7.8521H69.3774ZM80.6825 7.8521L80.194 9.92855C80.0718 10.4578 79.9497 11.0007 79.8411 11.5571L79.5697 12.9958C79.3118 11.5571 78.9589 9.84712 78.5111 7.8521H75.3625L74.1818 17.0943H76.5432L77.181 10.7293L78.796 17.0943H80.479L82.0125 10.7428L82.6776 17.0943H85.1476L83.899 7.8521H80.6825ZM88.364 13.4436H90.5762V11.53H88.364V9.83355H90.9155V7.86567H85.8669V17.1079H90.9291V15.1401H88.364V13.4436ZM97.9591 11.9779C98.217 11.5571 98.3527 11.1228 98.3527 10.675C98.3527 9.80641 98.0134 9.11426 97.3349 8.61211C96.6562 8.10996 95.7198 7.8521 94.5527 7.8521H91.6483V17.0943H94.1455V12.8872H94.1863L96.2084 17.0943H98.8413L96.8462 12.9279C97.3212 12.7107 97.7013 12.3986 97.9591 11.9779ZM94.132 11.8286V9.62997C94.7291 9.64355 95.1498 9.73855 95.4077 9.92855C95.6656 10.1186 95.7877 10.4171 95.7877 10.8514C95.7877 11.4893 95.2312 11.815 94.132 11.8286ZM99.8181 8.93783C98.9091 9.83355 98.4613 10.9736 98.4613 12.3579C98.4613 13.8372 98.9091 15.045 99.8051 15.9543C100.701 16.8636 101.867 17.325 103.32 17.325C103.741 17.325 104.216 17.2572 104.731 17.1079V14.9093C104.257 15.045 103.849 15.1129 103.496 15.1129C102.777 15.1129 102.207 14.8686 101.773 14.3936C101.338 13.905 101.122 13.2536 101.122 12.4257C101.122 11.6521 101.338 11.0143 101.759 10.5257C102.194 10.0236 102.723 9.77926 103.374 9.77926C103.794 9.77926 104.243 9.84712 104.731 9.98284V7.78425C104.284 7.6621 103.781 7.60781 103.252 7.60781C101.881 7.59424 100.728 8.04211 99.8181 8.93783ZM107.921 15.1129V13.43H110.132V11.5164H107.921V9.81998H110.485V7.8521H105.437V17.0943H110.499V15.1264H107.921V15.1129Z" fill="black"/>
</svg>
