<svg width="75" height="28" viewBox="0 0 75 28" fill="none" xmlns="http://www.w3.org/2000/svg">
<g clip-path="url(#clip0_2206_122317)">
<path fill-rule="evenodd" clip-rule="evenodd" d="M10.7716 9.65045C10.8883 10.2848 10.9013 10.9338 10.8103 11.5722C10.7264 12.1585 10.5254 12.7219 10.2194 13.229C9.9014 13.7408 9.47076 14.1733 8.9603 14.4936C8.36194 14.8638 7.69523 15.1098 6.99985 15.217L4.73015 15.6146L5.76836 21.5678L3.23358 22.0151L0.5 6.55239L5.17194 5.72956C5.83468 5.60337 6.51342 5.58472 7.18209 5.67433C7.77335 5.75516 8.33924 5.96643 8.83881 6.29284C9.34222 6.63249 9.75998 7.08428 10.0593 7.61269C10.4138 8.24517 10.6549 8.93483 10.7716 9.65045ZM8.24791 10.037C8.17791 9.39529 7.86827 8.80362 7.3809 8.38031C7.12023 8.20336 6.82472 8.08421 6.51421 8.03087C6.2037 7.97753 5.88538 7.99123 5.5806 8.07105L3.46552 8.44657L4.31045 13.229L6.44761 12.8534C6.7629 12.8233 7.06729 12.7222 7.33795 12.5577C7.60861 12.3932 7.83852 12.1696 8.01045 11.9036C8.31034 11.3298 8.39459 10.6676 8.24791 10.037Z" fill="black"/>
<path fill-rule="evenodd" clip-rule="evenodd" d="M17.0287 22.429L12.7323 21.6725C12.6771 21.8013 12.5776 22.013 12.4341 22.3075C12.2905 22.6021 12.1414 22.9169 11.9868 23.2519L11.545 24.2072C11.4087 24.5055 11.3057 24.7172 11.2357 24.8423L8.58496 24.3564L15.7641 9.65576L18.2105 10.0865L19.9721 26.372L17.2772 25.8971L17.0287 22.429ZM15.0406 16.5256L13.6876 19.5022L16.8465 20.0544L16.6145 16.8238C16.6145 16.6839 16.6145 16.452 16.6145 16.128C16.6145 15.804 16.5979 15.4653 16.5648 15.1119C16.5427 14.7437 16.5225 14.4068 16.5041 14.1013C16.4911 13.875 16.4911 13.6483 16.5041 13.422H16.3936L15.0406 16.5256Z" fill="black"/>
<path fill-rule="evenodd" clip-rule="evenodd" d="M22.9542 9.00434C23.0279 8.47051 23.1107 7.94404 23.2027 7.42494C23.2948 6.90583 23.385 6.37753 23.4733 5.84001L24.2133 2.08479L26.9083 1.60986L24.5999 11.4673L25.7044 17.7905L23.2138 18.2323L22.1093 11.9091L16.5869 3.41017L19.3481 2.92419C19.6795 3.49484 20.0108 4.04708 20.3421 4.58091C20.6735 5.11474 20.9975 5.66698 21.3141 6.23763L22.0762 7.61823L22.8383 8.99882L22.9542 9.00434Z" fill="black"/>
<path fill-rule="evenodd" clip-rule="evenodd" d="M34.0046 8.8332L31.6797 22.0096L29.1449 21.5623L31.4698 8.38589L28.0625 7.78947L28.4712 5.47559L37.8592 7.1323L37.434 9.44618L34.0046 8.8332Z" fill="black"/>
<path fill-rule="evenodd" clip-rule="evenodd" d="M46.9099 9.83838L48.8152 20.6346C48.9426 21.3209 48.9426 22.0248 48.8152 22.7111C48.7033 23.3211 48.4603 23.8996 48.1028 24.4064C47.7479 24.9005 47.2948 25.316 46.7719 25.6269C45.5514 26.3196 44.1227 26.5509 42.7461 26.2785C42.142 26.1387 41.5763 25.8672 41.0893 25.4833C40.609 25.096 40.2125 24.615 39.9241 24.0696C39.6108 23.4843 39.3945 22.852 39.2835 22.1975L37.4004 11.5172L39.9352 11.0699L41.8293 21.822C41.9222 22.4439 42.2288 23.014 42.6964 23.4345C42.9437 23.6405 43.236 23.7854 43.5498 23.8574C43.8635 23.9293 44.1898 23.9263 44.5022 23.8487C44.7901 23.8078 45.0665 23.7083 45.3145 23.5563C45.5624 23.4043 45.7765 23.2031 45.9435 22.9651C46.114 22.7077 46.2303 22.4183 46.2854 22.1144C46.3405 21.8106 46.3331 21.4988 46.2638 21.1979L44.342 10.2912L46.9099 9.83838Z" fill="black"/>
<path fill-rule="evenodd" clip-rule="evenodd" d="M56.6847 18.3536L55.5084 11.4893L53.5259 11.1413L52.3883 17.597L49.8535 17.1497L52.5871 1.68701L57.5572 2.56507C58.1637 2.6658 58.7495 2.86543 59.2913 3.15597C59.7938 3.42037 60.2298 3.79528 60.5665 4.2525C60.9032 4.70972 61.1318 5.23734 61.2352 5.79567C61.3626 6.4578 61.3626 7.13817 61.2352 7.8003C61.1024 8.69166 60.7323 9.53091 60.1638 10.2301C59.6084 10.8773 58.8621 11.3317 58.0322 11.5279L59.468 18.8727L56.6847 18.3536ZM58.7446 7.30881C58.8205 7.02027 58.8356 6.71911 58.7891 6.42441C58.7425 6.12971 58.6352 5.84791 58.474 5.59686C58.0942 5.14371 57.5541 4.85483 56.9664 4.7906L54.7187 4.39299L53.9401 8.8109L56.149 9.20298C56.4372 9.26928 56.7357 9.27704 57.027 9.22582C57.3182 9.17459 57.5962 9.06542 57.8444 8.90478C58.0912 8.7163 58.2978 8.48052 58.4524 8.21123C58.607 7.94194 58.7063 7.64454 58.7446 7.33641V7.30881Z" fill="black"/>
<path fill-rule="evenodd" clip-rule="evenodd" d="M65.6809 22.4403L62.9473 6.97764L71.5622 5.45898L71.9819 7.78943L65.9073 8.86078L66.6362 13.0026L71.8659 12.0803L72.2746 14.3942L67.067 15.3165L67.818 19.5908L73.8926 18.5194L74.3179 20.9217L65.6809 22.4403Z" fill="black"/>
</g>
<defs>
<clipPath id="clip0_2206_122317">
<rect width="73.8179" height="28" fill="white" transform="translate(0.5)"/>
</clipPath>
</defs>
</svg>
