<svg width="81" height="28" viewBox="0 0 81 28" fill="none" xmlns="http://www.w3.org/2000/svg">
<g clip-path="url(#clip0_4711_164055)">
<g clip-path="url(#clip1_4711_164055)">
<path d="M53.9053 4H50.6201V22.8175H53.9053V4Z" fill="#465364"/>
<path d="M29.0996 6.05692C29.0989 5.74341 29.009 5.43648 28.8404 5.17149C28.6749 4.90743 28.442 4.69169 28.165 4.54631C27.8733 4.38934 27.5466 4.30713 27.2148 4.30713C26.883 4.30713 26.5564 4.38934 26.2646 4.54631C25.9866 4.69021 25.7533 4.90628 25.5893 5.17149C25.4193 5.43589 25.3293 5.74321 25.3301 6.05692C25.3289 6.37422 25.4188 6.68529 25.5893 6.95366C25.7552 7.22026 25.9878 7.43958 26.2646 7.59016C26.5553 7.7493 26.8814 7.8339 27.2134 7.83626C27.5462 7.83366 27.8733 7.74909 28.165 7.59016C28.4406 7.43794 28.6729 7.21898 28.8404 6.95366C29.0094 6.68466 29.0993 6.37401 29.0996 6.05692Z" fill="#465364"/>
<path d="M23.7855 13.9717V22.8175H20.469V14.3112C20.4835 14.0292 20.4389 13.7472 20.3378 13.4833C20.2367 13.2193 20.0815 12.9791 19.8821 12.7779C19.4077 12.3762 18.7946 12.1733 18.1725 12.2122C17.8035 12.213 17.4354 12.2471 17.0726 12.314C16.7807 12.3577 16.4942 12.4317 16.2179 12.5346V22.8175H12.9355V10.5431C13.6791 10.2444 14.4501 10.0179 15.2377 9.86704C16.1931 9.68954 17.1634 9.60334 18.1354 9.60961C19.2202 9.57585 20.3015 9.74869 21.3209 10.1188C22.0822 10.4045 22.7319 10.9237 23.1758 11.6011C23.601 12.3181 23.8125 13.1401 23.7855 13.9717Z" fill="#465364"/>
<path d="M11.1832 9.89307V22.1702H11.1946C10.7458 22.3809 10.276 22.544 9.79276 22.6569C9.20267 22.8074 8.60293 22.918 7.99773 22.9878C7.33595 23.0676 6.66989 23.1073 6.00325 23.1066C4.97473 23.1401 3.94959 22.9729 2.98591 22.6144C2.20688 22.3141 1.55246 21.7621 1.1282 21.0472C0.681791 20.2066 0.466558 19.2641 0.504214 18.3145V9.89307H3.77515V18.3796C3.77515 19.0784 3.97175 19.5876 4.345 19.927C4.81207 20.2866 5.39665 20.462 5.98616 20.4192C6.36777 20.4193 6.74881 20.39 7.12587 20.3316C7.38875 20.2888 7.64719 20.2225 7.89801 20.1336V9.89307H11.1832Z" fill="#465364"/>
<path d="M25.5723 9.89453H28.8547V22.8167H25.5723V9.89453Z" fill="#465364"/>
<path d="M37.1972 22.6477V19.9405C37.0605 19.9996 36.9182 20.0451 36.7726 20.0764C36.6026 20.1103 36.4301 20.1301 36.2569 20.1357C35.995 20.1385 35.735 20.0925 35.4904 20C35.2708 19.9173 35.0845 19.7652 34.9605 19.5672C34.8162 19.308 34.7472 19.0143 34.761 18.7185V12.3395H37.1972V9.8925H34.761V6.08203L31.5214 7.01839V9.8925H29.8574V12.3395H31.5214V18.9335C31.5214 20.2913 31.8064 21.3097 32.4274 21.9887C33.0486 22.6676 33.9632 23.0127 35.2197 23.0127C35.48 23.0112 35.7398 22.9923 35.9976 22.9561C36.232 22.9309 36.4644 22.8893 36.6928 22.8316C36.8661 22.7853 37.0348 22.7237 37.1972 22.6477Z" fill="#465364"/>
<path fill-rule="evenodd" clip-rule="evenodd" d="M47.833 11.2212C48.3194 11.7582 48.6873 12.3903 48.9129 13.0769C49.1653 13.8476 49.2885 14.6542 49.2775 15.4645V16.0105C49.2722 16.1997 49.257 16.3885 49.2321 16.5762L40.8523 17.7077C40.929 18.2777 41.1485 18.8194 41.4906 19.2834C41.8163 19.7072 42.2529 20.034 42.7529 20.2282C43.2961 20.4446 43.8771 20.5514 44.4623 20.5422C44.9033 20.5425 45.3435 20.5074 45.7787 20.4376C46.2017 20.372 46.6197 20.2774 47.0295 20.1548C47.393 20.0449 47.7458 19.9029 48.0838 19.7304L49.0241 22.1745C48.6062 22.381 48.1679 22.5441 47.7162 22.661C47.1742 22.8113 46.6219 22.922 46.0637 22.9921C45.4525 23.072 44.8366 23.1117 44.2202 23.1109C43.2478 23.125 42.2814 22.9581 41.371 22.6186C40.5871 22.317 39.8841 21.8398 39.3166 21.224C38.7535 20.607 38.3274 19.8793 38.0658 19.0882C37.773 18.206 37.6297 17.2816 37.6413 16.3527C37.6323 15.4277 37.7718 14.5072 38.0545 13.6257C38.3018 12.8431 38.7049 12.1178 39.2397 11.4928C39.7586 10.8928 40.4073 10.417 41.1373 10.101C41.9419 9.76364 42.8083 9.59603 43.6817 9.60876C44.4993 9.59545 45.3119 9.73856 46.075 10.0303C46.7449 10.289 47.3462 10.6963 47.833 11.2212ZM41.0461 13.6257C40.7783 14.2656 40.6437 14.9526 40.6501 15.6455L46.0807 14.9129C46.0971 14.3565 45.9942 13.803 45.7787 13.2891C45.6037 12.883 45.3047 12.5416 44.9239 12.3131C44.5237 12.0861 44.0683 11.9726 43.6075 11.985C43.0705 11.974 42.5418 12.1185 42.0861 12.4008C41.6261 12.6991 41.2643 13.1251 41.0461 13.6257Z" fill="#465364"/>
<path d="M55.9453 4H59.2276V22.8175H55.9453V4Z" fill="#465364"/>
<path fill-rule="evenodd" clip-rule="evenodd" d="M71.8385 13.0769C71.6121 12.3894 71.2422 11.7571 70.753 11.2211C70.2688 10.6958 69.6692 10.2883 69.0008 10.0302C68.2364 9.73903 67.423 9.59595 66.6045 9.60869C65.7321 9.59593 64.8666 9.76356 64.063 10.1009C63.3329 10.417 62.6842 10.8927 62.1654 11.4927C61.6296 12.1176 61.2256 12.8429 60.9773 13.6257C60.6957 14.5073 60.5572 15.4278 60.5669 16.3527C60.5568 17.2814 60.7001 18.2056 60.9914 19.0881C61.2548 19.8786 61.684 20.6048 62.2509 21.2182C62.8177 21.8334 63.5197 22.3106 64.3024 22.6129C65.2128 22.9521 66.1792 23.119 67.1516 23.1052C67.769 23.1062 68.3857 23.0665 68.9978 22.9864C69.5569 22.9154 70.1101 22.8048 70.6533 22.6553C71.0972 22.5372 71.5278 22.3741 71.9382 22.1688L70.9952 19.7246C70.657 19.8986 70.303 20.0406 69.9381 20.149C69.5293 20.272 69.1122 20.3665 68.6901 20.4318C68.254 20.5018 67.8128 20.5369 67.3709 20.5365C66.7857 20.5462 66.2044 20.4394 65.6614 20.2225C65.1685 20.0257 64.7376 19.7013 64.4134 19.2833C64.0732 18.8189 63.8556 18.2772 63.7809 17.7077L72.1577 16.5762C72.1833 16.3866 72.1976 16.1971 72.2061 16.0104V15.4786C72.2162 14.6635 72.092 13.8522 71.8385 13.0769ZM63.5757 15.6455C63.5657 14.9533 63.6965 14.2663 63.9604 13.6257C64.1696 13.1261 64.5269 12.7015 64.9849 12.4084C65.443 12.1153 65.9801 11.9676 66.5248 11.9849C66.9864 11.9729 67.4425 12.0863 67.844 12.3131C68.2242 12.5421 68.523 12.8833 68.6988 13.289C68.9166 13.8023 69.0205 14.3561 69.0036 14.9128L63.5757 15.6455Z" fill="#465364"/>
<path d="M79.7425 9.6405C80.0304 9.66312 80.2868 9.69142 80.5004 9.72536L79.8993 12.4411C79.6727 12.3745 79.4412 12.3253 79.2069 12.294C78.948 12.261 78.6872 12.244 78.4263 12.243C78.1265 12.2434 77.8275 12.2671 77.5316 12.3138C77.2756 12.3529 77.0245 12.4183 76.7821 12.5089V22.8173H73.4971V10.557C74.266 10.2611 75.0617 10.0385 75.8733 9.89227C76.8413 9.7069 77.8249 9.61217 78.8108 9.60938C79.1499 9.60938 79.4548 9.61787 79.7425 9.6405Z" fill="#465364"/>
</g>
</g>
<defs>
<clipPath id="clip0_4711_164055">
<rect width="80" height="28" fill="white" transform="translate(0.5)"/>
</clipPath>
<clipPath id="clip1_4711_164055">
<rect width="80" height="20" fill="white" transform="translate(0.5 4)"/>
</clipPath>
</defs>
</svg>
