<svg width="94" height="28" viewBox="0 0 94 28" fill="none" xmlns="http://www.w3.org/2000/svg">
<g clip-path="url(#clip0_2206_122486)">
<g clip-path="url(#clip1_2206_122486)">
<path d="M17.4754 2.92121L18.9162 6.48045C19.0058 6.70123 19.2159 6.846 19.4504 6.84795L34.2891 6.96544L34.3718 7.17008L23.9368 17.9305C23.7722 18.1001 23.7231 18.3539 23.8123 18.5747L25.2534 22.134C25.4123 22.5268 25.9124 22.627 26.2059 22.3255L41.2166 6.8744C41.3817 6.70457 41.4308 6.4501 41.3413 6.22904L39.8792 2.61718C39.7894 2.39584 39.5789 2.25107 39.3444 2.24967L18.0181 2.09961C18.0167 2.09961 18.0153 2.09961 18.014 2.09961C17.5996 2.10017 17.3168 2.52948 17.4754 2.92121Z" fill="url(#paint0_linear_2206_122486)"/>
<g opacity="0.1">
<g opacity="0.1">
<path opacity="0.1" d="M4.56202 23.8154C4.12635 24.2612 3.41905 24.262 2.98256 23.8179C2.54579 23.3736 2.54469 22.6522 2.98037 22.207C3.41578 21.7613 4.12308 21.7604 4.55985 22.2045C4.99661 22.6488 4.99743 23.3702 4.56202 23.8154Z" fill="#00DFB6"/>
</g>
</g>
<g opacity="0.1">
<g opacity="0.1">
<path opacity="0.1" d="M3.51906 21.2253C3.08366 21.6707 2.37636 21.6719 1.93959 21.2276C1.50282 20.7832 1.50173 20.0618 1.93741 19.6166C2.37281 19.1709 3.08011 19.1701 3.51688 19.6144C3.95365 20.0585 3.95501 20.7796 3.51906 21.2253Z" fill="#00DFB6"/>
</g>
</g>
<g opacity="0.1">
<g opacity="0.1">
<path opacity="0.1" d="M2.46241 18.612C2.02674 19.0575 1.31972 19.0586 0.882948 18.6143C0.446178 18.1699 0.445087 17.4486 0.880765 17.0033C1.31617 16.5576 2.02346 16.5568 2.46023 17.0011C2.897 17.4455 2.89809 18.1663 2.46241 18.612Z" fill="#00DFB6"/>
</g>
</g>
<path d="M59.1139 6.74412C60.202 7.6292 60.7466 8.87454 60.7466 10.4801C60.7466 11.8001 60.4341 12.9549 59.8092 13.9453C59.183 14.9356 58.2936 15.701 57.1383 16.2408C55.9842 16.7815 54.6414 17.0515 53.1113 17.0515H50.0228L49.2279 21.1695H44.8594L47.9479 5.41553H54.4795C56.4799 5.41553 58.0244 5.85904 59.1139 6.74412ZM55.5498 12.8428C56.0718 12.3775 56.3339 11.7171 56.3339 10.8624C56.3339 10.2176 56.1234 9.73289 55.7041 9.41048C55.2853 9.08836 54.6856 8.92716 53.9059 8.92716H51.6112L50.7063 13.5399H53.31C54.281 13.5399 55.0279 13.308 55.5498 12.8428Z" fill="black"/>
<path d="M63.5486 5.41553H76.4563L75.7729 8.85867H67.1667L66.6589 11.4017H70.6758C72.2637 11.4017 73.4892 11.7656 74.3497 12.4933C75.2101 13.2211 75.64 14.2674 75.64 15.6325C75.64 16.7581 75.3389 17.7375 74.7361 18.5703C74.1327 19.4027 73.2681 20.0439 72.1432 20.4944C71.0182 20.9438 69.6907 21.1695 68.1603 21.1695H60.459L63.5486 5.41553ZM68.5133 17.9731C69.3213 17.9731 69.9656 17.7971 70.4444 17.4444C70.9218 17.0928 71.1615 16.6083 71.1615 15.993C71.1615 15.513 70.9982 15.1578 70.6751 14.9245C70.352 14.6925 69.8512 14.5754 69.1753 14.5754H66.0412L65.3792 17.9733H68.5133V17.9731Z" fill="black"/>
<path d="M80.561 20.6175C79.383 20.0398 78.4791 19.2268 77.8461 18.1755C77.2143 17.1256 76.8975 15.9181 76.8975 14.5528C76.8975 12.752 77.306 11.1316 78.1223 9.69085C78.9386 8.25146 80.0822 7.12583 81.553 6.31621C83.0244 5.50547 84.7005 5.1001 86.5853 5.1001C88.0106 5.1001 89.2761 5.35902 90.3797 5.8766C91.4819 6.39444 92.3058 7.12583 92.8508 8.07077L89.695 10.6372C88.9454 9.40632 87.8122 8.79103 86.2974 8.79103C85.3122 8.79103 84.4442 9.02795 83.694 9.50042C82.9432 9.97317 82.359 10.6249 81.9401 11.4577C81.5199 12.2904 81.3105 13.2245 81.3105 14.2599C81.3105 15.3257 81.6487 16.1804 82.3252 16.8249C83.0017 17.4709 83.9214 17.7935 85.0835 17.7935C86.555 17.7935 87.8122 17.1852 88.8573 15.9707L91.4392 18.5589C90.6002 19.5943 89.6219 20.3402 88.5039 20.7982C87.3858 21.255 86.1058 21.4844 84.6647 21.4844C83.105 21.4844 81.7383 21.1952 80.561 20.6175Z" fill="black"/>
<path opacity="0.07" d="M4.89796 16.334C4.46256 16.7795 3.75526 16.7806 3.31849 16.3362C2.88172 15.8919 2.88064 15.1705 3.31632 14.7253C3.75199 14.2801 4.45901 14.2787 4.89578 14.7231C5.33255 15.1674 5.33391 15.8883 4.89796 16.334Z" fill="#00DFB6"/>
<path opacity="0.05" d="M7.98683 24.1391C7.55117 24.5849 6.84413 24.5857 6.40736 24.1417C5.97059 23.6973 5.9695 22.9759 6.40518 22.5307C6.84058 22.085 7.54787 22.0842 7.98462 22.5282C8.42145 22.9726 8.42248 23.694 7.98683 24.1391Z" fill="#00DFB6"/>
<path opacity="0.05" d="M6.95851 21.5491C6.52311 21.9945 5.81581 21.9956 5.37904 21.5513C4.94227 21.1069 4.94118 20.3855 5.37686 19.9404C5.81254 19.4947 6.51956 19.4938 6.95633 19.9381C7.39311 20.3822 7.39421 21.1033 6.95851 21.5491Z" fill="#00DFB6"/>
<path opacity="0.07" d="M5.90285 18.9363C5.46717 19.3817 4.76015 19.3828 4.32338 18.9385C3.88661 18.4941 3.88552 17.7727 4.32119 17.3276C4.7566 16.8819 5.46389 16.881 5.90066 17.3254C6.33743 17.7694 6.33852 18.4905 5.90285 18.9363Z" fill="#00DFB6"/>
<path opacity="0.09" d="M8.37158 16.3341C7.93592 16.7796 7.2289 16.7807 6.79213 16.3363C6.35536 15.892 6.35426 15.1706 6.78995 14.7255C7.22534 14.2799 7.93262 14.2788 8.36944 14.7232C8.8062 15.1675 8.80758 15.8884 8.37158 16.3341Z" fill="#00C2C4"/>
<path opacity="0.09" d="M7.2964 13.7208C6.86072 14.1663 6.1537 14.1674 5.71693 13.7231C5.28016 13.2788 5.27907 12.5577 5.71475 12.1121C6.15016 11.6667 6.85744 11.6656 7.29421 12.1097C7.73097 12.554 7.73207 13.2754 7.2964 13.7208Z" fill="#00C2C4"/>
<path opacity="0.2" d="M10.772 13.7208C10.3363 14.1663 9.62927 14.1674 9.19251 13.7231C8.75576 13.2788 8.75466 12.5577 9.19031 12.1121C9.62576 11.6667 10.333 11.6656 10.7698 12.1097C11.2065 12.554 11.2077 13.2754 10.772 13.7208Z" fill="#28A4D3"/>
<path opacity="0.2" d="M9.67044 11.1081C9.23471 11.5535 8.52743 11.5546 8.09095 11.1103C7.6542 10.6659 7.65309 9.94483 8.08875 9.49939C8.52413 9.05395 9.23148 9.05278 9.66823 9.49685C10.105 9.94119 10.1058 10.6623 9.67044 11.1081Z" fill="#28A4D3"/>
<path opacity="0.05" d="M11.4273 24.1391C10.9918 24.5848 10.2845 24.5857 9.84779 24.1417C9.41103 23.6973 9.40993 22.9759 9.84558 22.5307C10.281 22.085 10.9883 22.0842 11.4251 22.5282C11.8618 22.9726 11.8632 23.694 11.4273 24.1391Z" fill="#00D6BA"/>
<path opacity="0.06" d="M10.4321 21.5491C9.99649 21.9945 9.28921 21.9956 8.85266 21.5513C8.41591 21.1069 8.4148 20.3855 8.85053 19.9404C9.2859 19.4947 9.99319 19.4938 10.4299 19.9381C10.8668 20.3822 10.8675 21.1033 10.4321 21.5491Z" fill="#00D6BA"/>
<path opacity="0.1" d="M14.8667 24.1391C14.4311 24.5848 13.7241 24.5857 13.2872 24.1417C12.8505 23.6973 12.8494 22.9759 13.2851 22.5307C13.7205 22.085 14.4278 22.0842 14.8645 22.5282C15.3013 22.9726 15.3024 23.694 14.8667 24.1391Z" fill="#00D6BA"/>
<path opacity="0.1" d="M13.9077 21.5491C13.4721 21.9945 12.7651 21.9956 12.3283 21.5513C11.8915 21.1069 11.8904 20.3855 12.3261 19.9404C12.7615 19.4947 13.4688 19.4938 13.9056 19.9381C14.3423 20.3822 14.3432 21.1033 13.9077 21.5491Z" fill="#00D6BA"/>
<path opacity="0.6" d="M13.1148 11.1081C12.679 11.5535 11.972 11.5546 11.5353 11.1103C11.0985 10.6659 11.0974 9.94483 11.5331 9.49939C11.9685 9.05395 12.6758 9.05278 13.1126 9.49685C13.5493 9.94119 13.5504 10.6623 13.1148 11.1081Z" fill="#3299D8"/>
<path opacity="0.6" d="M12.0142 8.45703C11.5785 8.90252 10.8715 8.90362 10.4347 8.45926C9.99794 8.01519 9.99684 7.29382 10.4326 6.84836C10.8679 6.4029 11.5752 6.40206 12.012 6.84613C12.4488 7.29048 12.4499 8.01157 12.0142 8.45703Z" fill="#3299D8"/>
<path opacity="0.6" d="M21.7466 24.1391C21.3112 24.5849 20.6039 24.5857 20.1671 24.1417C19.7303 23.6973 19.7293 22.9759 20.1649 22.5307C20.6006 22.085 21.3076 22.0842 21.7444 22.5282C22.1812 22.9726 22.1823 23.694 21.7466 24.1391Z" fill="#27A5D3"/>
<path opacity="0.6" d="M20.7036 21.5491C20.2679 21.9945 19.5609 21.9956 19.1242 21.5513C18.6874 21.1069 18.6863 20.3855 19.122 19.9404C19.5574 19.4947 20.2647 19.4938 20.7014 19.9381C21.1382 20.3822 21.139 21.1033 20.7036 21.5491Z" fill="#27A5D3"/>
<path d="M15.3648 8.45703C14.929 8.90252 14.222 8.90362 13.7853 8.45926C13.3485 8.01519 13.3474 7.29382 13.7831 6.84836C14.2185 6.4029 14.9258 6.40206 15.3626 6.84613C15.7993 7.29048 15.8004 8.01157 15.3648 8.45703Z" fill="#4380E3"/>
<path d="M14.3013 5.80724C13.8656 6.2527 13.1583 6.25381 12.7216 5.80946C12.2851 5.36539 12.284 4.64402 12.7196 4.19856C13.1551 3.7531 13.8624 3.75199 14.2991 4.19634C14.7356 4.64068 14.7364 5.36177 14.3013 5.80724Z" fill="#4380E3"/>
<path opacity="0.2" d="M18.3072 24.1391C17.8714 24.5848 17.1644 24.5857 16.7277 24.1417C16.2909 23.6973 16.2898 22.9759 16.7255 22.5307C17.1609 22.085 17.8682 22.0842 18.305 22.5282C18.7417 22.9726 18.7428 23.694 18.3072 24.1391Z" fill="#00BBC8"/>
<path opacity="0.2" d="M17.352 21.5491C16.9164 21.9945 16.2094 21.9956 15.7726 21.5513C15.3358 21.1069 15.3348 20.3855 15.7704 19.9404C16.2058 19.4947 16.9131 19.4938 17.3499 19.9381C17.7867 20.3822 17.7878 21.1033 17.352 21.5491Z" fill="#00BBC8"/>
</g>
</g>
<defs>
<linearGradient id="paint0_linear_2206_122486" x1="17.4307" y1="2.77856" x2="41.3855" y2="2.77857" gradientUnits="userSpaceOnUse">
<stop stop-color="#016DE0"/>
<stop offset="1" stop-color="#01E89F"/>
</linearGradient>
<clipPath id="clip0_2206_122486">
<rect width="93" height="28" fill="white" transform="translate(0.5)"/>
</clipPath>
<clipPath id="clip1_2206_122486">
<rect width="93" height="24" fill="white" transform="translate(0.5 2)"/>
</clipPath>
</defs>
</svg>
