<svg xmlns="http://www.w3.org/2000/svg" fill="none" viewBox="0 0 204 60">
  <path fill="#DD3B41" fill-rule="evenodd" d="M0 16.86h28.25v14.28H0V16.86z" clip-rule="evenodd"/>
  <path fill="#000" fill-rule="evenodd" d="M0 30.86h28.26v14H0v-14z" clip-rule="evenodd"/>
  <path fill="#fff" fill-rule="evenodd" d="M4.93 30.01H23.3v1.7H4.93v-1.7z" clip-rule="evenodd"/>
  <path fill="#333" fill-rule="evenodd" d="M52.75 30.8c0 4.43 3.72 7.39 8.2 7.39 4.5 0 8.15-2.96 8.15-7.38 0-4.37-3.65-7.38-8.15-7.38-4.48 0-8.2 3.01-8.2 7.38zm-6.47-6.94c3.08 0 5 1.99 5 4.74 0 2.86-1.92 4.51-5 4.51h-6.11v4.69h-2.61V23.85h8.72zm.15 6.95c1.35 0 2.2-.93 2.2-2.17 0-1.38-.85-2.48-2.35-2.48h-6.11v4.65h6.26zm14.52-5c-3.27 0-5.5 2.2-5.5 5 0 2.88 2.14 5.02 5.5 5.02 3.34 0 5.45-2.16 5.45-5.02 0-2.8-2.11-5-5.45-5zm10.7 4.98c0 4.43 3.55 7.38 8.26 7.38 2.77 0 4.87-.74 6.65-2.04l-1.38-2.05c-1.3.98-3 1.67-5.16 1.67-3.45 0-5.6-2.08-5.6-4.96 0-2.79 2.13-4.94 5.56-4.94 2.16 0 3.79.72 5.08 1.7l1.4-2.04a10.48 10.48 0 00-6.55-2.08c-4.66 0-8.26 3.01-8.26 7.36zm37.44 3.62l-1.61 3.39h-2.82l6.85-13.95h2.73l6.87 13.95h-2.81l-1.61-3.39h-7.6zm6.51-2.26h-5.42l2.72-5.66 2.7 5.66zm19.31 5.65v-5.97h-9.2v5.97h-2.61V23.86h2.6v5.69h9.21v-5.7h2.61V37.8h-2.6zm6.47-13.94V37.8h2.61v-6.77l7.07 6.77h3.5L147 30.57l7.27-6.71h-3.2l-7.07 6.5v-6.5h-2.61zm-43.16 5.1h-6.1v-2.93h10.06v-2.19H89.5v13.94h8.71c3.07 0 5.19-1.66 5.19-4.4 0-2.87-2.12-4.41-5.19-4.41zm-6.1 6.51h6.25c1.83 0 2.57-.72 2.57-2.1 0-1.24-.93-2.1-2.57-2.1h-6.26v4.2z" clip-rule="evenodd"/>
</svg>
