<svg xmlns="http://www.w3.org/2000/svg" fill="none" viewBox="0 0 204 60">
  <path fill="#f8faff" fill-rule="evenodd" d="M7.51 10A7.5 7.5 0 000 17.5v25A7.5 7.5 0 007.51 50h25.04a7.5 7.5 0 007.51-7.5v-25a7.5 7.5 0 00-7.5-7.5H7.5z"/>
  <path fill="#072da0" d="M1.13 18.2c0-3.9 3.17-7.07 7.09-7.07h23.63a7.08 7.08 0 017.08 7.07v23.6a7.08 7.08 0 01-7.08 7.08H8.2a7.08 7.08 0 01-7.08-7.08V18.2z"/>
  <g fill="#fff">
    <path d="M10.02 20h4v4h4v4h4.01v4h-4v4h-4v4H10v-8h4.01v-4h-4v-8zm12.01 16v-4h4.01v4h-4z"/>
    <path d="M26.04 36h4v4h-4v-4zm-4 0h-4.01v4h4v-4zm4-4v-4h-4v-4h-4.01v-4h8.01v4h4v8h-4z"/>
  </g>
  <path fill="#072da0" d="M61.03 35.94l-.02-7.17-3.54 5.9h-1.24l-3.54-5.76v7.03h-2.61V23.97h2.3l4.5 7.44 4.44-7.44h2.3l.03 11.97h-2.62zM70.59 36.08a5.7 5.7 0 01-2.63-.6 4.6 4.6 0 01-2.46-4.14 4.51 4.51 0 012.46-4.12c.78-.41 1.65-.62 2.63-.62s1.84.2 2.61.62a4.47 4.47 0 012.46 4.12 4.63 4.63 0 01-2.46 4.14c-.77.4-1.64.6-2.61.6zm0-2.19c.69 0 1.25-.23 1.68-.68.45-.47.67-1.1.67-1.87s-.22-1.39-.67-1.85c-.43-.46-1-.7-1.68-.7s-1.26.24-1.7.7c-.45.46-.68 1.08-.68 1.85s.23 1.4.68 1.87c.44.45 1.01.68 1.7.68zM87.57 33.75v4.18h-2.5v-1.99h-6.5v1.99h-2.49v-4.18h.38c.57 0 .97-.34 1.19-1s.35-1.6.4-2.83l.13-3.18h8.06v7.01h1.33zm-7.09-3.64c-.03.94-.1 1.7-.22 2.3-.1.59-.3 1.04-.6 1.34h3.9v-4.82h-3.03l-.05 1.18zM98.35 26.74l-4.18 9.77a4.77 4.77 0 01-1.58 2.24c-.62.43-1.37.65-2.25.65-.48 0-.96-.07-1.43-.22s-.85-.36-1.15-.62l.98-1.9a2.33 2.33 0 00.7.43c.28.1.55.15.81.15.37 0 .67-.09.9-.27.22-.17.43-.46.61-.87l.04-.09-4-9.27h2.76l2.6 6.25 2.6-6.25h2.59zM107.69 26.74v9.2H105v-7.01h-2.93l-.08 1.63c-.05 1.2-.16 2.2-.35 3s-.48 1.43-.9 1.89-.98.68-1.71.68c-.39 0-.85-.07-1.4-.2l.15-2.2.39.04c.4 0 .7-.14.9-.43.2-.3.34-.66.4-1.1.08-.47.13-1.06.16-1.8l.14-3.7h7.9zM115.1 29.68c1.2.01 2.12.29 2.77.82.64.53.96 1.28.96 2.24 0 1.02-.36 1.81-1.08 2.38-.72.56-1.72.84-3.01.84l-4.65-.02v-9.2h2.67v2.94h2.34zm-.6 4.38c.51.01.9-.1 1.18-.32s.41-.57.41-1.03c0-.44-.13-.77-.4-.97-.27-.2-.67-.32-1.2-.33l-1.73-.02v2.67h1.74zM125.68 27.37c.88 0 1.66.19 2.32.55a3.66 3.66 0 011.53 1.5c.37.65.55 1.4.55 2.26a4.28 4.28 0 01-2.44 3.92c-.77.37-1.64.55-2.61.55a4.88 4.88 0 01-3.82-1.54c-.92-1.04-1.38-2.56-1.38-4.55 0-1.85.4-3.32 1.2-4.42a5.87 5.87 0 013.74-2.17l4.4-.87.36 2.29-3.89.77c-1.05.2-1.84.55-2.35 1.03-.5.47-.8 1.15-.9 2.03a3.99 3.99 0 011.45-.99 4.65 4.65 0 011.84-.36zm-.64 6.7c.7 0 1.24-.21 1.66-.66.42-.44.63-1 .63-1.7a2.2 2.2 0 00-.63-1.65 2.24 2.24 0 00-1.66-.62c-.7 0-1.26.2-1.68.62s-.64.96-.64 1.66.22 1.26.66 1.7c.43.44.99.66 1.66.66zM135.17 26.6c1.43 0 2.53.35 3.3 1.03.77.67 1.15 1.7 1.15 3.06v5.25h-2.5V34.8c-.51.85-1.45 1.28-2.83 1.28-.7 0-1.32-.12-1.85-.36a2.76 2.76 0 01-1.19-1 2.58 2.58 0 01-.41-1.43c0-.85.32-1.53.96-2.02.65-.49 1.66-.73 3.01-.73h2.13a1.7 1.7 0 00-.53-1.34c-.36-.32-.89-.48-1.6-.48a4.6 4.6 0 00-2.67.86l-.96-1.86c.5-.36 1.1-.63 1.8-.83a8.26 8.26 0 012.2-.29zm-.2 7.68c.45 0 .86-.1 1.22-.3a1.77 1.77 0 00.75-.94v-.95h-1.84c-1.1 0-1.65.36-1.65 1.08 0 .34.13.62.4.82.27.2.65.3 1.12.3zM141.78 26.74h2.67v3.6h4.02v-3.6h2.68v9.2h-2.68v-3.43h-4.02v3.43h-2.67v-9.2zM157.62 32.45h-1.39v3.5h-2.68v-9.21h2.68v3.58h1.44l2.52-3.58h2.85l-3.23 4.41 3.45 4.8h-3.16l-2.48-3.5z"/>
</svg>
