<svg width="32" height="32" viewBox="0 0 32 32" fill="none" xmlns="http://www.w3.org/2000/svg">
<path fill-rule="evenodd" clip-rule="evenodd" d="M8.5 4C6.01472 4 4 6.01472 4 8.50001V23.5C4 25.9854 6.01472 28.0001 8.5 28.0001H23.5C25.9853 28.0001 28 25.9854 28 23.5V8.50001C28 6.01472 25.9853 4 23.5 4H8.5ZM12.1853 9.6416H9.64221V14.7272H12.1853V17.2701H9.64221V22.3557H12.1853V19.8129H14.7286V17.2701H17.2717V14.7272H14.7286V12.1844H12.1853V9.6416ZM17.2719 19.8133V17.2705H19.8151V19.8125H22.3582V22.3553H19.815V19.8133H17.2719ZM17.2718 19.8125H14.7286V22.3553H17.2718V19.8125ZM19.8149 14.7272V17.2701H22.3581V12.1844H19.8149V9.6416H14.7286V12.1844H17.2718V14.7272H19.8149Z" fill="white"/>
</svg>
