<svg width="32" height="32" viewBox="0 0 32 32" fill="none" xmlns="http://www.w3.org/2000/svg">
<path fill-rule="evenodd" clip-rule="evenodd" d="M8.14815 20V24.4444H7.01274V22.7777H5.14174V24.4444H4V20H5.14174V21.7845H7.01274V20H8.14815Z" fill="white"/>
<path fill-rule="evenodd" clip-rule="evenodd" d="M20.5925 24.4444H19.5007V22.216L18.5254 23.7385V23.745H17.9185V23.7385L16.937 22.2026L16.9432 24.4444H15.8518V20H16.6655L18.2222 22.3727L19.7786 20H20.5925V24.4444Z" fill="white"/>
<path fill-rule="evenodd" clip-rule="evenodd" d="M22.5528 20.9608V21.7714H24.4682V22.7127H22.5528V23.4837H24.7407V24.4444H21.4814V20H24.7407V20.9608H22.5528Z" fill="white"/>
<path fill-rule="evenodd" clip-rule="evenodd" d="M11.8523 20C10.1339 20 8.74072 21.2999 8.74072 22.9043C8.74072 23.47 8.91423 23.9981 9.21385 24.4444H10.7147C10.2589 24.1066 9.96321 23.5724 9.96321 22.9695C9.96321 21.9473 10.8089 21.1187 11.8518 21.1187C12.8952 21.1187 13.7409 21.9473 13.7409 22.9695C13.7409 23.5724 13.4452 24.1066 12.9894 24.4444H14.4902C14.7901 23.9981 14.963 23.47 14.963 22.9043C14.963 21.2999 13.5707 20 11.8523 20Z" fill="white"/>
<path fill-rule="evenodd" clip-rule="evenodd" d="M10.8148 23.2593C10.9636 23.7767 11.3715 24.1482 11.852 24.1482C12.3324 24.1482 12.7405 23.7767 12.8889 23.2593H10.8148Z" fill="white"/>
<path fill-rule="evenodd" clip-rule="evenodd" d="M10.161 16.0892H10.9918C11.4241 16.0892 11.763 15.8539 11.763 15.4877C11.763 15.1283 11.4241 14.8996 10.9918 14.8996H10.161V16.0892ZM11.8759 18.3702L11.0187 17.0823H11.0116H10.161V18.3702H9.03711V13.9258H11.0116C12.1352 13.9258 12.886 14.5273 12.886 15.4877C12.886 16.0697 12.6004 16.5397 12.1221 16.8144L13.1853 18.3702H11.8759Z" fill="white"/>
<path fill-rule="evenodd" clip-rule="evenodd" d="M14.8495 14.8867V15.6971H16.7645V16.6383H14.8495V17.4093H17.0371V18.3702H13.7778V13.9258H17.0371V14.8867H14.8495Z" fill="white"/>
<path fill-rule="evenodd" clip-rule="evenodd" d="M20.6693 16.1352C20.6693 15.4486 20.1185 14.9195 19.3994 14.9195H18.725V17.3765H19.3994C20.1185 17.3765 20.6693 16.8409 20.6693 16.1352ZM21.7778 16.1352C21.7778 17.4551 20.7864 18.3702 19.3994 18.3702H17.6296V13.9258H19.3994C20.7864 13.9258 21.7778 14.8342 21.7778 16.1352Z" fill="white"/>
<path fill-rule="evenodd" clip-rule="evenodd" d="M22.6666 18.3702H23.8518V13.9258H22.6666V18.3702Z" fill="white"/>
<path fill-rule="evenodd" clip-rule="evenodd" d="M28 14.9128H26.7574V18.3702H25.6868V14.9128H24.4445V13.9258H28V14.9128Z" fill="white"/>
<path fill-rule="evenodd" clip-rule="evenodd" d="M7.29885 16.7481C7.13188 17.1426 6.78362 17.376 6.29742 17.376C5.5872 17.376 5.09416 16.8601 5.09416 16.1486C5.09416 15.4368 5.5872 14.9209 6.29742 14.9209C6.78362 14.9209 7.13188 15.1547 7.29885 15.5488H8.44445C8.21959 14.5711 7.40213 13.926 6.30427 13.926C4.99167 13.926 4 14.8579 4 16.1486C4 17.439 4.99167 18.3705 6.30427 18.3705C7.40255 18.3705 8.21959 17.7259 8.44445 16.7481H7.29885Z" fill="white"/>
<path fill-rule="evenodd" clip-rule="evenodd" d="M8.14815 8V12.4444H7.01274V10.7777H5.14174V12.4444H4V8H5.14174V9.78451H7.01274V8H8.14815Z" fill="white"/>
<path fill-rule="evenodd" clip-rule="evenodd" d="M20.5925 12.4444H19.5007V10.216L18.5254 11.7385V11.745H17.9185V11.7385L16.937 10.2026L16.9432 12.4444H15.8518V8H16.6655L18.2222 10.3727L19.7786 8H20.5925V12.4444Z" fill="white"/>
<path fill-rule="evenodd" clip-rule="evenodd" d="M22.5528 8.96078V9.77138H24.4682V10.7127H22.5528V11.4837H24.7407V12.4444H21.4814V8H24.7407V8.96078H22.5528Z" fill="white"/>
<path fill-rule="evenodd" clip-rule="evenodd" d="M11.8523 8C10.1339 8 8.74072 9.2999 8.74072 10.9043C8.74072 11.47 8.91423 11.9981 9.21385 12.4444H10.7147C10.2589 12.1066 9.96321 11.5724 9.96321 10.9695C9.96321 9.94731 10.8089 9.11872 11.8518 9.11872C12.8952 9.11872 13.7409 9.94731 13.7409 10.9695C13.7409 11.5724 13.4452 12.1066 12.9894 12.4444H14.4902C14.7901 11.9981 14.963 11.47 14.963 10.9043C14.963 9.2999 13.5707 8 11.8523 8Z" fill="white"/>
<path fill-rule="evenodd" clip-rule="evenodd" d="M10.8148 10.5186C10.9636 11.036 11.3715 11.4074 11.852 11.4074C12.3324 11.4074 12.7405 11.036 12.8889 10.5186H10.8148Z" fill="white"/>
</svg>
