<svg xmlns="http://www.w3.org/2000/svg" fill="none" viewBox="0 0 204 60">
  <g fill="#E61C41" fill-rule="evenodd" clip-rule="evenodd">
    <path d="M79.83 29.84h2.25c1.16 0 2.08-.63 2.08-1.62 0-.97-.92-1.6-2.08-1.6h-2.25v3.22zM84.46 36l-2.31-3.48h-2.32V36H76.8V24h5.33c3.03 0 5.06 1.62 5.06 4.22a4 4 0 01-2.06 3.58L88 36h-3.54zM92.5 26.6v2.18h5.16v2.54H92.5v2.09h5.91V36h-8.8V24h8.8v2.6h-5.9zM108.2 29.97a3.3 3.3 0 00-3.42-3.29h-1.82v6.64h1.82a3.33 3.33 0 003.43-3.35zm3 0c0 3.56-2.68 6.03-6.42 6.03H100V24h4.78c3.74 0 6.42 2.45 6.42 5.97zM113.6 36h3.2V24h-3.2v12zM128 26.66h-3.36V36h-2.89v-9.34h-3.35V24h9.6v2.66zM72.1 31.62c-.44 1.06-1.38 1.7-2.7 1.7-1.91 0-3.25-1.4-3.25-3.32s1.34-3.31 3.25-3.31c1.32 0 2.26.63 2.7 1.7h3.1c-.6-2.65-2.81-4.39-5.78-4.39-3.54 0-6.22 2.52-6.22 6 0 3.49 2.68 6 6.22 6 2.97 0 5.17-1.74 5.78-4.38h-3.1zM141.87 32.28c0-.75-.62-1.17-1.74-1.17h-2.73v2.42h2.68c1.24 0 1.79-.55 1.79-1.25zm-4.47-5.84v2.5h2.25c1.14 0 1.76-.56 1.76-1.34 0-.76-.6-1.16-1.76-1.16h-2.25zm7.4 6.22c0 2-1.62 3.34-4.33 3.34h-6.07V24h5.71c2.63 0 4.16 1.23 4.16 3.2 0 1.1-.63 2.25-1.67 2.62 1.47.32 2.2 1.56 2.2 2.84zM153.53 31.45L152 27.4l-1.54 4.04h3.08zm.96 2.48h-5l-.77 2.07h-3.12l5-12h2.81l4.99 12h-3.12l-.8-2.07zM170.4 24v12h-2.33l-5.84-6.58V36h-3.03V24h2.31l5.88 6.76V24h3.01zM177.68 31.52l-1.82 2.04V36h-3.06V24h3.06v5.5l4.92-5.5h3.62l-4.7 5.26 5.1 6.74h-3.82l-3.3-4.48zM11.2 24v12H8.13v-4.5H3.08V36H0V24h3.08v4.82h5.05V24h3.07zM44.8 36h-2.95v-6.02l-2.63 4.11v.02h-1.64v-.02l-2.65-4.14.02 6.05H32V24h2.2l4.2 6.4 4.2-6.4h2.2v12zM50.1 26.6v2.18h5.16v2.54H50.1v2.09H56V36h-8.8V24H56v2.6h-5.9zM21.2 24c-4.64 0-8.4 3.51-8.4 7.84 0 1.53.47 2.95 1.28 4.16h4.05a4.95 4.95 0 01-2.03-3.98c0-2.76 2.28-5 5.1-5s5.1 2.24 5.1 5c0 1.63-.8 3.07-2.03 3.98h4.05a7.42 7.42 0 001.28-4.16c0-4.33-3.76-7.84-8.4-7.84z"/>
    <path d="M18.4 32.8c.4 1.4 1.5 2.4 2.8 2.4 1.3 0 2.4-1 2.8-2.4h-5.6z"/>
  </g>
</svg>
