<svg width="32" height="32" viewBox="0 0 32 32" fill="none" xmlns="http://www.w3.org/2000/svg">
<path fill-rule="evenodd" clip-rule="evenodd" d="M25.6643 26.309L29.1044 31.0044H23.3185L21.7446 28.8497C19.9759 29.6104 18.0236 30.0188 16.0037 30.0188C8.52034 30.0188 2 24.4428 2 16.0114C2 7.57613 8.52034 2.00011 16.0037 2.00011C23.4834 2.00011 30 7.57613 30 16.0114C30 20.302 28.31 23.8545 25.6643 26.309ZM16.0187 25.4509C17.0493 25.4509 18.0236 25.2897 18.9267 24.9862L16.7345 21.8984L20.5155 19.1928L22.7976 22.3968C24.2516 20.718 25.1135 18.4808 25.1135 16.0114C25.1135 10.7726 21.2388 6.5681 16.0187 6.5681C10.7987 6.5681 6.92398 10.7726 6.92398 16.0114C6.92398 21.2464 10.7987 25.4509 16.0187 25.4509Z" fill="white"/>
</svg>
