<svg xmlns="http://www.w3.org/2000/svg" fill="none" viewBox="0 0 204 60">
  <path fill="#007BA5" fill-rule="evenodd" d="M19.58 38.11L22.43 42h-4.79l-1.3-1.78c-1.47.63-3.08.96-4.75.96C5.39 41.18 0 36.58 0 29.6 0 22.61 5.4 18 11.59 18c6.19 0 11.58 4.61 11.58 11.6 0 3.54-1.4 6.48-3.59 8.51zm-7.98-.7c.85 0 1.66-.14 2.4-.39l-1.8-2.55 3.12-2.24 1.89 2.65a8.02 8.02 0 001.92-5.29c0-4.33-3.21-7.81-7.53-7.81s-7.53 3.48-7.53 7.81c0 4.34 3.21 7.81 7.53 7.81zm22.68-15.08h-.06L30.6 32.1h7.17l-3.5-9.76zm6.47 17.98l-1.9-5.06H29.5l-1.93 5.06h-4.33l8.6-21.44h4.95l8.58 21.44h-4.61zm54.92-18.53c-4.16 0-7.53 3.5-7.53 7.81 0 4.32 3.37 7.82 7.53 7.82 4.15 0 7.52-3.5 7.52-7.82 0-4.31-3.37-7.81-7.52-7.81zm0-3.78a11.58 11.58 0 010 23.18c-6.4 0-11.57-5.19-11.57-11.59C84.1 23.2 89.27 18 95.67 18zM73.4 31.74l-2.2 2.4v6.17H67V18.87h4.2v10.1h.07l8.67-10.1h5.2l-9.12 10 9.94 11.44h-5.45l-7.1-8.57zm53.73 8.57V25.66h-.05l-6.57 8.96h-.06l-6.44-8.96h-.06v14.65h-4.22V18.87h4.35l6.5 9.48 6.45-9.48h4.32v21.44h-4.21zm-80.56 0v-3.52l12.3-14.6h-12v-3.32h16.75v3.53L51.17 37h12.6v3.31h-17.2z" clip-rule="evenodd"/>
</svg>
