<svg width="32" height="32" viewBox="0 0 32 32" fill="none" xmlns="http://www.w3.org/2000/svg">
<path d="M29.3343 15.4494C28.8083 15.0165 28.4275 14.4184 28.0604 13.8531C27.6823 13.2705 27.3435 12.7354 26.8568 12.2304C26.6833 12.0477 26.5089 11.8825 26.3272 11.7245C26.3445 11.4852 26.3482 11.2432 26.3436 10.9939C26.3308 10.2926 26.1929 9.6753 26.0487 8.99589C25.908 8.33657 25.7537 7.64347 25.8194 6.96589L25.9035 6.1011L25.0387 6.18512C24.3611 6.25178 23.6689 6.0938 23.0096 5.95682C22.3302 5.81254 21.7129 5.67373 21.0106 5.66095C20.7613 5.65638 20.5193 5.66095 20.2801 5.67739C20.123 5.49475 19.9541 5.32216 19.7742 5.14865C19.2692 4.66101 18.735 4.32679 18.1524 3.94417C17.5871 3.57889 16.9881 3.19718 16.5552 2.67119L16.0073 2L15.4594 2.67119C15.0265 3.19718 14.4284 3.57707 13.8632 3.94417C13.2805 4.32314 12.7454 4.66101 12.2404 5.14865C12.0578 5.32216 11.8925 5.49566 11.7345 5.67739C11.4944 5.66095 11.2533 5.65638 11.004 5.66095C10.3027 5.67373 9.68534 5.81254 9.00593 5.95682C8.34662 6.09745 7.65351 6.25178 6.97593 6.18512L6.11115 6.1011L6.19516 6.96589C6.26091 7.64347 6.10384 8.33566 5.96686 8.99589C5.82258 9.6753 5.68378 10.2926 5.67099 10.9939C5.66643 11.2441 5.67099 11.4861 5.68743 11.7245C5.50479 11.8825 5.3322 12.0505 5.1587 12.2304C4.67106 12.7354 4.33683 13.2705 3.95421 13.8531C3.58894 14.4184 3.20723 15.0174 2.68123 15.4494L2 16.0018L2.67119 16.5497C3.19627 16.9826 3.57798 17.5816 3.94416 18.1469C4.32222 18.7295 4.66101 19.2637 5.14865 19.7687C5.32216 19.9513 5.49566 20.1166 5.67738 20.2746C5.66095 20.5148 5.65638 20.7568 5.66095 21.0052C5.67373 21.7074 5.81254 22.3247 5.95682 23.0041C6.09745 23.6634 6.25086 24.3556 6.18511 25.0332L6.1011 25.8989L6.96588 25.814C7.64347 25.7482 8.33566 25.9053 8.99589 26.0432C9.6753 26.1875 10.2926 26.3263 10.9939 26.3381C11.2441 26.3427 11.4852 26.3381 11.7245 26.3226C11.8825 26.5052 12.0505 26.6778 12.2304 26.8513C12.7354 27.3381 13.2705 27.6732 13.8531 28.0549C14.4184 28.4202 15.0165 28.8028 15.4493 29.3288L16.0018 30L16.5497 29.3288C16.9826 28.8028 17.5816 28.422 18.1469 28.0549C18.7295 27.6769 19.2637 27.3381 19.7687 26.8513C19.9513 26.6778 20.1166 26.5043 20.2746 26.3226C20.5148 26.339 20.7568 26.3427 21.0051 26.3381C21.7065 26.3263 22.3247 26.1875 23.0041 26.0432C23.6634 25.9025 24.3556 25.7482 25.0332 25.814L25.898 25.8989L25.814 25.0332C25.7482 24.3556 25.9053 23.6634 26.0432 23.0041C26.1875 22.3247 26.3253 21.7074 26.3381 21.0052C26.3427 20.7559 26.3381 20.5139 26.3217 20.2746C26.5043 20.1166 26.6778 19.9486 26.8513 19.7687C27.3381 19.2637 27.6732 18.7295 28.0549 18.1469C28.4202 17.5816 28.8028 16.9826 29.3288 16.5497L29.9991 16.0018L29.3343 15.4494ZM21.5074 16.2164C22.9877 16.5388 24.4022 18.2126 24.7894 19.6409C23.5054 20.3778 21.3193 20.5613 20.0463 19.7422L19.1998 19.1943L19.7477 20.0408C20.5696 21.3193 20.3869 23.5 19.6472 24.7839C18.2181 24.3967 16.5424 22.9822 16.2219 21.5019L16.0073 20.5184L15.7891 21.5065C15.4667 22.9868 13.7928 24.4013 12.3637 24.7885C11.6277 23.5045 11.4441 21.3184 12.2633 20.0454L12.8112 19.1989L11.9637 19.7468C10.6853 20.5687 8.5046 20.386 7.22066 19.6454C7.60785 18.2172 9.02328 16.5406 10.5081 16.221L11.4916 16.0064L10.4981 15.7881C9.01781 15.4658 7.60237 13.791 7.21518 12.3628C8.49912 11.6259 10.6853 11.4432 11.9583 12.2614L12.8057 12.8093L12.2578 11.9619C11.4359 10.6835 11.6185 8.50277 12.3591 7.21884C13.7874 7.60603 15.464 9.02146 15.7845 10.5063L15.9991 11.4898L16.2137 10.5063C16.536 9.02603 18.2099 7.61059 19.639 7.2234C20.3751 8.50734 20.5586 10.6935 19.7395 11.9665L19.1916 12.8139L20.0381 12.266C21.3165 11.4441 23.4972 11.6268 24.7812 12.3664C24.3949 13.7947 22.9794 15.4713 21.4992 15.7918L20.5157 16.0064L21.5074 16.2164ZM24.3803 7.62338C24.4193 8.18163 24.4995 8.73623 24.6204 9.28263C24.7282 9.83054 24.867 10.2926 24.9172 10.8232L24.8067 10.772C23.9164 10.3657 22.6379 10.1639 21.6206 10.383C21.8398 9.36938 21.638 8.09001 21.2325 7.19692L21.1805 7.08734C21.711 7.13665 22.1768 7.27637 22.721 7.38412C23.2674 7.50467 23.822 7.58464 24.3803 7.62338ZM14.6594 5.15778C15.1313 4.85648 15.5803 4.52074 16.0027 4.15328C16.4248 4.52073 16.8735 4.85648 17.3451 5.15778C17.8072 5.46735 18.2355 5.69656 18.6464 6.03718L18.5304 6.07919C17.6154 6.42254 16.5643 7.18414 16.0027 8.05623C15.4402 7.18414 14.3937 6.42254 13.4741 6.07827L13.3591 6.03627C13.7691 5.69565 14.1983 5.46918 14.6594 5.15687V5.15778ZM7.38777 9.28263C7.50913 8.73631 7.58941 8.18168 7.62794 7.62338C8.18487 7.58536 8.73824 7.50631 9.28354 7.38686C9.83145 7.27911 10.2935 7.13939 10.8241 7.09008C10.8076 7.12661 10.7894 7.16222 10.7729 7.19966C10.3666 8.09275 10.1648 9.37212 10.3839 10.3858C9.37029 10.1666 8.09093 10.3684 7.19783 10.7748L7.08825 10.8259C7.13756 10.2926 7.27728 9.8278 7.38777 9.28263ZM5.15778 17.3406C4.85648 16.869 4.52073 16.4203 4.15328 15.9982C4.52074 15.5758 4.85648 15.1268 5.15778 14.6549C5.46735 14.1983 5.69656 13.7654 6.03718 13.3545C6.05088 13.3929 6.06366 13.4312 6.07827 13.4705C6.42254 14.3891 7.18505 15.4357 8.05714 15.9982C7.18505 16.5634 6.42254 17.6145 6.07827 18.5277C6.06366 18.567 6.05088 18.6053 6.03718 18.6437C5.69565 18.2346 5.47009 17.8063 5.15778 17.3406ZM7.62338 24.3721C7.58592 23.8166 7.50717 23.2648 7.38777 22.721C7.28093 22.1731 7.14122 21.7101 7.0919 21.1796L7.20149 21.2316C8.09458 21.638 9.37395 21.8389 10.3876 21.6197C10.1684 22.6343 10.3702 23.9136 10.7766 24.8067C10.793 24.8442 10.8113 24.8798 10.8277 24.9163C10.2972 24.867 9.83236 24.7273 9.28719 24.6195C8.73959 24.4985 8.18376 24.4182 7.62429 24.3794L7.62338 24.3721ZM17.3415 26.8468C16.8699 27.1481 16.4212 27.4838 15.9991 27.8513C15.5767 27.4838 15.1277 27.1481 14.6558 26.8468C14.1992 26.5372 13.7664 26.308 13.3554 25.9674L13.4705 25.9254C14.3901 25.5811 15.4366 24.8195 15.9991 23.9474C16.5643 24.8195 17.6154 25.5811 18.5286 25.9245L18.6446 25.9665C18.2355 26.308 17.8072 26.5372 17.3415 26.8468ZM24.6168 22.721C24.4959 23.2671 24.4157 23.8214 24.3766 24.3794C23.8184 24.4184 23.2638 24.4987 22.7174 24.6195C22.1695 24.7273 21.7074 24.867 21.1768 24.9163L21.2289 24.8067C21.6343 23.9136 21.8361 22.6343 21.617 21.6197C22.6315 21.8389 23.9109 21.638 24.804 21.2316L24.9209 21.1759C24.867 21.7101 24.7282 22.1804 24.6204 22.721H24.6168ZM26.844 17.3451C26.5345 17.8017 26.3053 18.2346 25.9646 18.6455C25.9509 18.6071 25.9372 18.5688 25.9226 18.5295C25.5784 17.6109 24.8168 16.5634 23.9447 16.0018C24.8168 15.4393 25.5784 14.3928 25.9226 13.4741C25.9372 13.4349 25.9509 13.3965 25.9646 13.3582C26.3053 13.7691 26.5345 14.1974 26.844 14.6585C27.1448 15.1308 27.4806 15.5798 27.8485 16.0018C27.4816 16.4237 27.147 16.8728 26.8477 17.3451H26.844Z" fill="white"/>
</svg>
