<svg width="63" height="17" viewBox="0 0 63 17" fill="none" xmlns="http://www.w3.org/2000/svg">
<path d="M0.249487 1.20389C0.237125 1.14495 0.230944 1.11548 0.227238 1.09181C0.14158 0.544924 0.54821 0.0441712 1.10104 0.0157571C1.12496 0.0145263 1.15507 0.0145264 1.21531 0.0145264H60.2319C61.5652 0.0145264 62.232 0.0145263 62.582 0.447736C62.9321 0.880951 62.7922 1.53279 62.5123 2.83648L60.286 13.2042C59.9068 14.9701 59.7172 15.853 59.0758 16.3713C58.4346 16.8896 57.5314 16.8896 55.7254 16.8896H19.5658C18.737 16.8896 18.3227 16.8896 17.9553 16.8751C9.68108 16.5488 2.61179 10.8083 0.594232 2.77719C0.504642 2.42058 0.419591 2.01502 0.249487 1.20389Z" fill="#8365FC"/>
<path d="M31.6971 4.89917C30.7737 4.89917 29.5865 5.41217 28.5899 6.61405L28.5312 6.58473L29.0662 5.51477L27.8423 4.91383L22.8735 14.888L24.1195 15.4963L26.1567 11.4069C27.747 8.21168 30.2167 6.30625 31.2794 6.30625C31.6531 6.30625 31.8657 6.49679 31.8657 6.89253C31.8657 8.09442 30.312 9.45753 28.2747 9.97786L27.5858 10.1537L27.8863 11.4803L28.2087 11.4142C31.0669 10.8499 33.3094 9.01782 33.346 6.68001C33.3681 5.61005 32.8257 4.89917 31.6971 4.89917Z" fill="white"/>
<path d="M24.8251 9.64832L24.9497 9.47976L23.9383 8.62964L23.8211 8.78354C23.1982 9.57503 22.5019 9.95611 21.4907 9.95611C21.4467 9.95611 21.4027 9.94879 21.3587 9.94879C22.3115 8.65896 23.1175 7.28852 23.8357 5.7422L23.9457 5.50036L22.7365 4.90675L22.5753 5.23653C21.7105 7.01004 20.9263 8.30718 20.0103 9.4651C19.3287 8.82018 19.1748 7.59632 19.4679 6.12328L18.2221 5.6909C16.1115 9.29654 14.0375 10.7842 11.5385 10.7842C10.5051 10.7842 10.1607 10.3738 10.1607 9.61167C10.1607 9.58969 10.1607 9.5677 10.1607 9.54572L10.4905 9.5677C13.3853 9.7729 15.5032 8.52704 15.5032 6.563C15.5032 5.50769 14.7777 4.89941 13.5758 4.89941C11.7583 4.89941 9.98481 6.28451 9.17867 7.8968L8.22597 7.11996C7.44181 8.11664 6.21794 8.72492 4.95743 8.73958C3.75555 8.75423 2.51702 8.27788 1.61561 7.2299L0.560303 8.14596C1.71821 9.53106 3.35248 10.0514 4.95743 10.0294C6.53307 10.0074 7.93283 9.39182 8.90019 8.37314L8.95881 8.40246C8.80491 8.83484 8.75361 9.26723 8.75361 9.69229C8.75361 11.1506 9.61839 12.162 11.2819 12.162C14.1474 12.162 16.2947 10.667 18.1049 8.2046L18.1708 8.21924C18.2001 9.0547 18.5885 9.91947 19.1748 10.4618C18.6765 11.0847 18.2661 11.5097 17.6138 12.1253L17.2987 12.4185L18.3613 13.3125L18.6618 13.0195C19.2921 12.4039 19.8783 11.7736 20.4207 11.136C20.6552 11.18 20.9117 11.2019 21.2268 11.2019C22.7292 11.2093 24.0409 10.6816 24.8251 9.64832ZM13.4659 6.26986C13.825 6.26986 14.0228 6.4604 14.0228 6.73156C14.0228 7.6696 12.7917 8.48308 10.7836 8.36582L10.5271 8.35116C11.1647 7.16394 12.4106 6.26986 13.4659 6.26986Z" fill="white"/>
<path d="M41.3299 9.57466C44.2247 9.77986 46.3426 8.4534 46.3426 6.56995C46.3426 5.43403 45.6171 4.90637 44.4152 4.90637C41.9455 4.90637 39.6003 7.30281 39.6003 9.69192C39.6003 11.1503 40.5237 12.1617 42.2386 12.1617C43.4039 12.1617 44.5764 11.8391 45.4192 11.2675L44.789 10.0657C44.166 10.5128 43.3013 10.7912 42.4951 10.7912C41.5644 10.7912 41.0001 10.3808 41.0001 9.61863C41.0001 9.59664 41.0001 9.57466 41.0001 9.55267L41.3299 9.57466ZM44.3053 6.26949C44.6644 6.26949 44.8622 6.46003 44.8622 6.73118C44.8622 7.66924 43.6237 8.4827 41.623 8.36544L41.3665 8.3508C42.0114 7.16357 43.2573 6.26949 44.3053 6.26949Z" fill="white"/>
<path d="M57.0708 6.26963L57.5252 6.21101L57.3932 4.86255L56.8875 4.92118C55.2606 5.10439 54.3519 5.62473 54.1833 6.70935L52.1826 7.85993L52.7982 9.0105L54.3299 8.14574C54.3592 8.24101 54.3885 8.32895 54.4178 8.42422L54.7476 9.41358C54.8282 9.6481 54.8722 9.86062 54.8722 10.0805C54.8722 10.4615 54.5717 10.7767 53.707 10.7914C53.2819 10.7987 52.7396 10.7401 52.2413 10.5276L51.7869 11.8614C52.3512 12.0591 52.9888 12.1544 53.5531 12.1544C55.4145 12.1544 56.2866 11.275 56.2866 10.1171C56.2866 9.73604 56.2206 9.40624 56.0375 8.85661L55.8396 8.24834C55.7297 7.91123 55.5831 7.4935 55.5831 7.16371C55.5831 6.67271 56.0521 6.40155 57.0708 6.26963Z" fill="white"/>
<path d="M39.8921 4.89917C38.5875 5.19965 37.4443 5.8299 36.5209 6.83391L36.4623 6.80459L37.1072 5.50745L35.8834 4.9065L32.5635 11.5389L33.8166 12.1545L34.5935 10.6301C35.9712 7.92586 37.9646 6.78994 40.2877 6.33557L39.8921 4.89917Z" fill="white"/>
<path d="M51.3816 6.31371L51.8287 6.1305L51.367 4.87732L50.9493 5.03854C50.2676 5.30238 49.1684 5.83003 48.5234 6.17447L47.0432 6.97328L47.6588 8.12387L49.0877 7.35437C49.0952 7.67683 49.1611 8.03593 49.2856 8.48297L49.403 8.92267C49.4981 9.27445 49.6007 9.60423 49.6007 9.89004C49.6007 10.4177 49.2637 10.7915 48.5674 10.7915C48.1643 10.7915 47.7979 10.6669 47.4975 10.1246L46.3323 10.9014C46.8453 11.7955 47.5927 12.1546 48.5747 12.1546C49.9452 12.1546 51.0152 11.3338 51.0152 9.98531C51.0152 9.69217 50.9345 9.2891 50.7881 8.76877L50.6121 8.13119C50.5316 7.85271 50.4436 7.55223 50.4436 7.28841C50.4509 6.89999 50.5975 6.62884 51.3816 6.31371Z" fill="white"/>
</svg>
