<svg width="18" height="18" viewBox="0 0 18 18" fill="none" xmlns="http://www.w3.org/2000/svg">
<path fill-rule="evenodd" clip-rule="evenodd" d="M17.3332 8.99984C17.3332 13.6022 13.6022 17.3332 8.99984 17.3332C4.39746 17.3332 0.666504 13.6022 0.666504 8.99984C0.666504 4.39746 4.39746 0.666504 8.99984 0.666504C13.6022 0.666504 17.3332 4.39746 17.3332 8.99984ZM15.6665 8.99984C15.6665 12.6817 12.6817 15.6665 8.99984 15.6665C5.31794 15.6665 2.33317 12.6817 2.33317 8.99984C2.33317 5.31794 5.31794 2.33317 8.99984 2.33317C12.6817 2.33317 15.6665 5.31794 15.6665 8.99984ZM7.95817 12.5355C7.95817 11.9334 8.41578 11.4998 8.99382 11.4998C9.58389 11.4998 10.0415 11.9334 10.0415 12.5355C10.0415 13.1376 9.58389 13.5832 8.99382 13.5832C8.41578 13.5832 7.95817 13.1376 7.95817 12.5355ZM9.18721 4.4165C7.38964 4.4165 6.04146 5.4526 6.04146 7.12534C6.04146 7.36664 6.23707 7.56225 6.47837 7.56225H7.1275C7.32743 7.56225 7.48951 7.40018 7.48951 7.20024C7.48951 6.26401 8.21353 5.76468 9.18721 5.76468C10.1359 5.76468 10.7601 6.26401 10.7601 6.97555C10.7601 7.64963 10.4106 7.96171 9.53674 8.36117L9.28708 8.47352C8.55057 8.79808 8.27594 9.28492 8.27594 10.1338V10.1665C8.27594 10.4426 8.4998 10.6665 8.77594 10.6665H9.27864C9.5246 10.6665 9.72399 10.4671 9.72399 10.2212C9.72399 9.84667 9.82385 9.69687 10.1234 9.55955L10.3731 9.4472C11.4217 8.97285 12.2081 8.34869 12.2081 6.98803V6.91313C12.2081 5.47757 10.9598 4.4165 9.18721 4.4165Z" fill="#9397AD"/>
</svg>
