<svg width="32" height="32" viewBox="0 0 32 32" fill="none" xmlns="http://www.w3.org/2000/svg">
<path d="M2 15.5941C2.13145 14.7166 2.20854 13.8269 2.40572 12.9647C3.28615 9.09579 5.43811 6.08341 8.85026 4.0838C13.2532 1.49969 17.8736 1.27868 22.3966 3.64664C27.5956 6.37162 30.1281 10.8242 29.995 16.6935C29.9252 19.6978 28.8379 22.3734 26.9683 24.7292C26.6843 25.0862 26.6161 25.0911 26.3443 24.7138C25.5101 23.5537 24.9283 22.2633 24.4601 20.9218C24.057 19.747 23.8146 18.5232 23.7396 17.2837C23.6901 16.547 23.9968 15.9673 24.4382 15.4435C25.1425 14.6081 25.8915 13.8099 26.5926 12.9728C26.9168 12.5948 27.1979 12.1821 27.4308 11.7422C27.7189 11.1828 27.5866 10.5886 27.2134 10.3976C26.8223 10.1976 26.3865 10.3927 26.0506 11.0063C25.4647 12.0766 24.5948 12.8311 23.5351 13.3921C23.4994 13.4107 23.4645 13.4447 23.4271 13.4464C23.1472 13.4626 22.7942 13.5832 22.6019 13.4593C22.3106 13.2707 22.4891 12.9129 22.6173 12.6498C22.9005 12.0677 23.2113 11.4994 23.5018 10.9205C23.6535 10.6194 23.7355 10.3077 23.4848 10.0122C23.234 9.71672 22.9167 9.70134 22.5621 9.72805C21.4383 9.81306 19.9493 11.7754 20.5854 12.9566C20.9344 13.6042 20.6885 14.1369 20.0823 14.566C18.8846 15.4136 17.5669 15.5472 16.1744 15.2039C15.5252 15.042 15.1439 14.6178 14.9199 13.9985C14.6132 13.1501 14.3178 12.2911 13.9202 11.484C13.7092 11.0549 13.3278 10.6866 12.9619 10.3595C12.1163 9.60419 12.0482 9.15084 12.6762 8.19879C12.9643 7.76325 13.2645 7.31718 13.4455 6.83388C13.7279 6.07856 13.3043 5.61954 12.4985 5.73611C11.1207 5.92717 10.0496 7.37466 10.3531 8.71125C10.5154 9.40828 10.3928 9.97092 9.8451 10.417C8.95737 11.1407 8.70176 12.126 8.68391 13.1946C8.66937 14.45 8.47286 15.6967 8.10048 16.8959C7.7759 17.9354 7.93819 18.9757 8.21327 20.007C8.78967 22.1662 8.82784 24.4333 8.32444 26.6106C8.12645 27.4785 8.02907 27.5165 7.3507 26.9701C4.49656 24.6644 2.77737 21.7022 2.19313 18.0835C2.11198 17.5808 2.06329 17.0716 2 16.5656V15.5941Z" fill="white"/>
<path d="M14.0094 23.273C14.1116 21.7843 14.2058 20.2939 14.3251 18.8059C14.361 18.5386 14.4408 18.2791 14.5612 18.0376C14.8687 17.3462 15.3889 16.9852 16.1313 17.0864C16.7584 17.1628 17.3721 17.324 17.9555 17.5656C18.831 17.9413 19.2716 18.7209 19.4161 19.6243C19.8518 22.308 20.3387 24.9917 20.4304 27.7151C20.4701 28.8971 20.2129 29.2419 19.0956 29.6143C18.0845 29.9511 17.0466 30.096 15.9837 29.9333C15.2282 29.8183 14.6472 29.4613 14.4906 28.6639C14.3486 27.9393 14.2082 27.2067 14.1709 26.4716C14.1165 25.4103 14.1571 24.3441 14.1571 23.2795L14.0094 23.273Z" fill="white"/>
<path d="M21.9518 24.1711C21.9932 23.878 22.024 23.4733 22.1141 23.0814C22.2407 22.5196 22.618 22.386 23.0107 22.8054C23.3859 23.21 23.705 23.6631 23.9593 24.1525C24.2498 24.7103 24.4519 25.3166 24.6677 25.9108C24.8835 26.5051 24.7277 27.0119 24.219 27.377C23.9 27.6003 23.5613 27.7944 23.2071 27.9566C22.9231 28.0918 22.6545 28.0198 22.5701 27.6838C22.3754 26.9026 22.1895 26.1189 22.0337 25.3296C21.9615 24.9912 21.981 24.6317 21.9518 24.1711Z" fill="white"/>
<path d="M10.2939 25.6851C10.4189 24.6804 10.5041 23.7956 10.6534 22.9229C10.6916 22.7011 10.9317 22.5133 11.0794 22.3101C11.2247 22.5044 11.4446 22.6792 11.5022 22.897C11.9765 24.6986 12.1412 26.5673 11.9891 28.4238C11.9639 28.7355 11.9461 29.1354 11.5087 29.2221C11.1947 29.2844 10.8409 29.0156 10.7443 28.525C10.5504 27.5519 10.4286 26.5651 10.2939 25.6851Z" fill="white"/>
</svg>
