<svg width="32" height="32" viewBox="0 0 32 32" fill="none" xmlns="http://www.w3.org/2000/svg">
<rect width="32" height="32" rx="16" fill="#F1F2F5"/>
<path fill-rule="evenodd" clip-rule="evenodd" d="M14.952 8.24328C15.5308 7.65222 16.4692 7.65222 17.048 8.24328L23.6722 15.0082C24.3724 15.7233 23.8765 16.946 22.8862 16.946H21.9282V21.4865C21.9282 22.3224 21.2646 23 20.4461 23H18.2231C17.4046 23 16.741 22.3224 16.741 21.4865V18.4595C16.741 18.0415 16.4093 17.7027 16 17.7027C15.5907 17.7027 15.259 18.0415 15.259 18.4595V21.4865C15.259 22.3224 14.5954 23 13.7769 23H11.5539C10.7354 23 10.0718 22.3224 10.0718 21.4865V16.946H9.11376C8.12349 16.946 7.62756 15.7233 8.32779 15.0082L14.952 8.24328Z" fill="#9397AD"/>
<path fill-rule="evenodd" clip-rule="evenodd" d="M18.6771 21.6867L20.1663 14.579H26.8002L26.865 14.2717C26.9539 14.8348 27 15.412 27 16C27 22.0751 22.0751 27 16 27C9.92487 27 5 22.0751 5 16C5 9.92487 9.92487 5 16 5C16.9607 5 17.8926 5.12315 18.7808 5.35453L17.4925 11.5328H10.8925L10.2155 14.579H16.8494L15.3263 21.6867H18.6771ZM21.8541 6.68541L20.8432 11.5328H26.0551C25.1641 9.53034 23.6925 7.84326 21.8541 6.68541Z" fill="url(#paint0_radial_6363_88205)"/>
<path fill-rule="evenodd" clip-rule="evenodd" d="M18.6771 21.6867L20.1663 14.579H26.8002L26.865 14.2717C26.9539 14.8348 27 15.412 27 16C27 22.0751 22.0751 27 16 27C9.92487 27 5 22.0751 5 16C5 9.92487 9.92487 5 16 5C16.9607 5 17.8926 5.12315 18.7808 5.35453L17.4925 11.5328H10.8925L10.2155 14.579H16.8494L15.3263 21.6867H18.6771ZM21.8541 6.68541L20.8432 11.5328H26.0551C25.1641 9.53034 23.6925 7.84326 21.8541 6.68541Z" fill="url(#paint1_radial_6363_88205)"/>
<rect width="32" height="32" rx="16" fill="#F1F2F5"/>
<path fill-rule="evenodd" clip-rule="evenodd" d="M8.52618 15.2239C7.54987 16.2002 7.54987 17.7831 8.52618 18.7594L13.2406 23.4739C14.217 24.4502 15.7999 24.4502 16.7762 23.4739L22.7678 17.4822C23.2367 17.0134 23.5001 16.3775 23.5001 15.7145V10C23.5001 9.17157 22.8285 8.5 22.0001 8.5H16.2856C15.6226 8.5 14.9867 8.76339 14.5178 9.23223L8.52618 15.2239ZM18.4904 11.8333C17.5656 11.8333 16.8334 12.527 16.8334 13.4904C16.8334 14.4538 17.5656 15.1667 18.4904 15.1667C19.4346 15.1667 20.1667 14.4538 20.1667 13.4904C20.1667 12.527 19.4346 11.8333 18.4904 11.8333Z" fill="#9397AD"/>
</svg>
