<svg width="32" height="32" viewBox="0 0 32 32" fill="none" xmlns="http://www.w3.org/2000/svg">
<path fill-rule="evenodd" clip-rule="evenodd" d="M5.97309 6C4.91869 6.00184 3.90814 6.40112 3.16325 7.11021C2.41836 7.81929 2 8.78024 2 9.78212V10.0674V10.6577V10.9973V18.9226V19.0729L2.00162 19.1724C2.00411 19.1768 2.0066 19.1812 2.0091 19.1856C2.21415 22.9746 5.5848 26 9.70258 26C13.9509 26 17.406 22.7803 17.406 18.8231V8.70041H21.7648C21.7921 8.70069 21.8195 8.70172 21.8468 8.7035C21.8987 8.70195 21.9507 8.70041 22.0027 8.70041C22.1719 8.70085 22.3407 8.70602 22.5088 8.71584C23.9421 9.1239 25.0412 10.6488 25.0412 12.1569C25.0446 12.7955 24.8497 13.4208 24.4809 13.9546C24.0578 14.5912 24.1642 15.291 24.8179 15.6451C25.236 15.8604 25.6169 16.1427 25.9384 16.4745C26.6986 17.2628 27.1189 18.294 27.1158 19.3632C27.1158 20.9278 26.2389 22.2943 24.9436 23.0124C24.4424 23.1286 23.9189 23.2002 23.3782 23.2224C23.2237 23.2387 23.0684 23.2472 22.9129 23.2479H18.326C17.9491 23.2479 17.5877 23.3902 17.3212 23.6434C17.0547 23.8966 16.905 24.24 16.905 24.5981C16.905 24.9562 17.0547 25.2996 17.3212 25.5528C17.5877 25.8061 17.9491 25.9483 18.326 25.9483H22.9137C26.821 25.9483 30 22.8583 30 19.0623V18.9797C29.9829 19.0185 29.9655 19.0572 29.9477 19.0956C29.9136 18.193 29.6943 17.3048 29.3013 16.4812C28.8814 15.6011 28.2725 14.8141 27.5137 14.1707C27.7516 13.5426 27.8791 12.8637 27.8791 12.1569C27.8791 11.8075 27.8027 11.1725 27.7348 10.7951C27.7366 10.7967 27.7384 10.7982 27.7402 10.7998C27.2051 8.07083 24.7302 6 21.7639 6H14.568V18.8231C14.568 21.2913 12.3854 23.2996 9.70258 23.2996C9.61813 23.2996 9.53287 23.2973 9.44923 23.2934C8.73781 23.2738 8.03472 23.1719 7.35494 22.992C5.85487 22.2286 4.83711 20.7578 4.83711 19.0729V9.44093C4.83711 9.19563 4.92315 8.96933 5.068 8.78782C5.36447 8.72954 5.66768 8.69974 5.97309 8.69964H8.79071C9.57428 8.69964 10.2093 8.09552 10.2093 7.3502C10.2093 6.60412 9.57428 6 8.79071 6H5.97309Z" fill="white"/>
</svg>
