<svg xmlns="http://www.w3.org/2000/svg" fill="none" viewBox="0 0 204 60">
  <path fill="#E30611" fill-rule="evenodd" d="M0 32.53C0 37.25 2.64 42 8.55 42s8.56-4.75 8.56-9.47a20.1 20.1 0 00-2.9-9.92C12.45 19.72 10.33 18 8.55 18c-1.78 0-3.9 1.72-5.64 4.61-1.82 3-2.91 6.7-2.91 9.92zm60.73-7.46h-5.99V19.3h18.39v5.78h-5.99v15.64h-6.41V25.07zm26.08 0h9.41V19.3h-9.4c-8.65 0-13.27 4.3-13.27 10.71 0 6.4 4.62 10.71 13.26 10.71h9.41v-5.78h-9.4c-4 0-6.64-1.43-6.64-4.93s2.63-4.93 6.63-4.93zm-48.54 7L41.7 19.3h11.34V40.7H46.6V23.27l-4.66 17.44h-7.36l-4.66-17.43v17.43h-6.41V19.3h11.33l3.42 12.79zm69.65-6.57h-2.26v2.1h2.26c.58 0 .92-.3.92-.85v-.38c0-.56-.3-.87-.92-.87zm.58 4.5h-5.86V19.29h8.61v2.56h-5.59v1.4h2.84c2.37 0 3.51 1.18 3.51 3.26 0 2.19-1.14 3.49-3.52 3.49zm10.48-4.38h-2.38l1.19-3.96 1.2 3.96zm4.59 4.38l-3.3-10.71h-4.5L112.48 30h2.83l.6-2.05h3.78l.62 2.05h3.27zm7.64 0v-4.15h-3.46V30h-3.1V19.29h3.1v3.92h3.46V19.3h3.1V30h-3.1zm8.6-6.79h-.55V19.3h-3.1V30h3.1v-4.15h.45l2.87 4.15h3.58l-3.87-5.6 3.56-5.11h-3.27l-2.77 3.92z" clip-rule="evenodd"/>
</svg>
