<svg width="32" height="32" viewBox="0 0 32 32" fill="none" xmlns="http://www.w3.org/2000/svg">
<path d="M14.0244 14.16H16.3303L16.3302 20H18.8008L18.8009 14.16H21.1067V12H14.0244V14.16Z" fill="#E30611"/>
<path d="M30 14.16H26.3762C24.8356 14.16 23.8224 14.695 23.8224 16C23.8224 17.305 24.8356 17.84 26.3762 17.84H30V20H26.3765C23.0471 20 21.2695 18.392 21.2695 16C21.2695 13.608 23.0471 12 26.3765 12H30V14.16Z" fill="#E30611"/>
<path d="M8.99888 12L7.68177 16.7751L6.36467 12H2V20H4.47061V13.4929L6.26544 20H9.09815L10.8941 13.4888V20H13.3646V12H8.99888Z" fill="#E30611"/>
</svg>
