<svg xmlns="http://www.w3.org/2000/svg" fill="none" viewBox="0 0 204 60">
  <path fill="#EF3124" fill-rule="evenodd" d="M109.7 32c0 1.4-.77 2.32-2.2 2.32-.57 0-1.04 0-1.78-.2v-4.23c.33-.05 1-.15 1.77-.13 1.46.06 2.22.74 2.22 2.24zm2.95-.2c0-2.6-1.53-4.38-4.74-4.38a8.6 8.6 0 00-2.19.28v-3.73c.8-.1 1.61-.14 2.43-.14.94 0 2.14.05 3.19.18l.07-2.16c-1.2-.27-2.92-.43-4.26-.43-1.33 0-3.38.33-4.36.6v13.77c1.52.55 3.01.8 4.54.8 3.5 0 5.32-1.84 5.32-4.8zm-33.39-.75c0 1.92-.77 3.16-2.04 3.16-.53 0-.81-.03-1.42-.23v-5.77c.66-.3 1.02-.3 1.55-.3 1.27 0 1.91 1.04 1.91 3.13zm-9.67.06c0-2.1.64-3.2 1.9-3.2.54 0 .9 0 1.56.3v5.77c-.6.2-.89.23-1.42.23-1.45 0-2.04-1.18-2.04-3.1zm6.21 8.64V36c.35.2 1.05.51 2.23.51 2.34 0 4.07-1.93 4.07-5.46 0-3.81-1.71-5.44-4.53-5.44-.72 0-1.19.07-1.77.35v-4.49h-2.75v4.49a3.7 3.7 0 00-1.77-.35c-2.82 0-4.53 1.7-4.53 5.5 0 3.53 1.55 5.4 4.06 5.4 1.19 0 1.89-.3 2.24-.51v3.75h2.75zm-20.93-3.42V26.26a13.72 13.72 0 00-4.21-.64c-1.53 0-2.67.2-4.19.64v5.16c0 1.4-.02 1.82-.17 2.27-.16.4-.36.88-.92 1.25l.75 1.6c2.23-.62 3.06-1.58 3.06-4.63v-3.79c.74-.1.88-.13 1.47-.13.58 0 .7.02 1.44.13v8.21h2.77zm34.08-2.2c-.48.17-.98.26-1.5.25-.98 0-1.55-.39-1.55-1.4 0-1.04.71-1.4 2.09-1.4a3 3 0 01.81.1v.76c0 .8.04 1.34.15 1.68zm3.51 1.2a4.72 4.72 0 01-.92-3.14v-2.82c0-1.52-.18-2.07-.58-2.63-.56-.78-1.5-1.12-3.23-1.12-1.21 0-2.41.13-3.56.42l.42 2.01c.77-.1 1.58-.2 2.17-.2 1.83 0 2.04.27 2.04 1.63V30a5.34 5.34 0 00-1.4-.18c-2.76 0-4.22 1.33-4.22 3.54 0 2.08 1.56 3.22 3.46 3.22.71 0 1.45-.13 2.04-.37.35-.15.5-.24.96-.54.27.4.83.81 1.05.88l1.77-1.21zm27-1.2c-.47.17-.97.26-1.48.25-1 0-1.55-.39-1.55-1.4 0-1.04.7-1.4 2.08-1.4.33 0 .66.05.81.1v.76c0 .8.05 1.34.15 1.68zm3.52 1.2a4.7 4.7 0 01-.92-3.14v-2.82c0-1.52-.17-2.07-.58-2.63-.56-.78-1.5-1.12-3.22-1.12-1.22 0-2.42.13-3.56.42l.4 2.01c.78-.1 1.6-.2 2.18-.2 1.83 0 2.04.27 2.04 1.63V30a5.32 5.32 0 00-1.4-.18c-2.76 0-4.22 1.33-4.22 3.54 0 2.08 1.56 3.22 3.47 3.22.69 0 1.38-.12 2.03-.37.35-.15.5-.24.96-.54.28.4.83.81 1.05.88l1.77-1.21zM62.73 32.7c0 1.04-.36 1.74-1.7 1.74-.44 0-.62 0-1.2-.16v-3.01c.72-.14.78-.17 1.2-.17 1.28 0 1.7.62 1.7 1.6zm-5.67-6.92v10c1.27.52 2.64.79 4.02.79 2.94 0 4.51-1.5 4.51-4 0-2.24-1.39-3.63-3.99-3.63-.66 0-1.05.08-1.77.26v-3.42h-2.77zm76.04 10.54V25.88h-2.77v3.95h-3.13v-3.95h-2.77v10.45h2.77v-4.26h3.13v4.26h2.77zm11.35 0s-1.5-3.2-1.88-3.92c-.41-.82-.8-1.39-1.65-1.59v-.05c.57-.1 1.03-.45 1.52-1.5.47-1.01.61-1.23.89-1.47.27-.25.64-.15.64-.15l.14-1.9a7.08 7.08 0 00-1.29-.03c-.75.04-1.14.25-1.5.62-.29.29-.49.7-.73 1.2l-.72 1.5c-.27.55-.4.79-1.12.79h-.46v-3.95h-2.78v10.45h2.78v-4.27h.38c.79 0 .92.2 1.34 1.02.5.99 1.43 3.25 1.43 3.25h3.01zm-103.12 0h3.19l-4.81-14.6a5.82 5.82 0 00-1.81-.28c-.73 0-1 .1-1.56.28l-5.11 14.6h3.05l.91-2.87h5.28l.86 2.87zm-5.36-5.31l1.01-3.4c.36-1.18.9-3.06.9-3.06h.08s.5 1.95.81 3.05l.97 3.4h-3.77zm61.2-1.67c-.98 0-1.77.79-1.77 1.75 0 .97.79 1.75 1.76 1.75.98 0 1.77-.78 1.77-1.75 0-.96-.8-1.75-1.77-1.75zM9.7 16c2.06 0 2.7 1.46 3.25 2.93l5.73 15.58c.05.12.02.32-.17.4l-1.76.67-1.36.53a.3.3 0 01-.39-.18l-.8-2.19-.53-1.49H5.75L4.4 35.93a.3.3 0 01-.38.18l-2.56-1-.56-.2a.3.3 0 01-.18-.4l3-8.17 2.73-7.41C6.97 17.49 7.65 16 9.7 16zM.3 42a.3.3 0 00-.3.3v3.4c0 .16.13.3.3.3h18.8a.3.3 0 00.3-.3v-3.4a.3.3 0 00-.3-.3H.3zM7 28.73l2.69-7.99h.03l2.69 7.99H7z" clip-rule="evenodd"/>
</svg>
