<svg xmlns="http://www.w3.org/2000/svg" fill="none" viewBox="0 0 204 60">
  <path fill="#0B45B3" d="M18.57 35.24l-.11.1c-1.76 1.8-3.8 2.74-5.9 2.74-4.37 0-7.54-3.28-7.54-7.81 0-4.52 3.17-7.81 7.55-7.81 2.1 0 4.13.95 5.89 2.75l.1.1 2.82-3.4-.07-.09a10.74 10.74 0 00-8.6-4.11c-3.47 0-6.64 1.16-8.92 3.26C1.31 23.25 0 26.47 0 30.27c0 3.8 1.3 7.02 3.8 9.3a12.99 12.99 0 008.9 3.27c3.46 0 6.27-1.35 8.6-4.12l.08-.08-2.81-3.4zM29.2 18.1h-4.98v24.28h4.98V18.1zM48.68 37.1A7.21 7.21 0 0145 38.32c-1.6 0-2.33-.85-2.33-2.74V22.7h5.07v-4.58h-5.07v-7.55l-4.87 2.61v4.94h-4.2v4.58h4.2v13.7c0 3.73 2.21 6.28 5.51 6.35 2.24.05 3.6-.62 4.41-1.11l.06-.04 1.19-4.68-.3.18zM57.77 18.1H52.8v24.28h4.98V18.1z"/>
  <path fill="#EB2227" d="M60.67 13.85A24.45 24.45 0 0040.91 3.57a24.43 24.43 0 00-19.76 10.28l-.23.33h5.72l.07-.07a19.7 19.7 0 0114.2-6.14c5.22 0 10.3 2.12 14.2 6.14l.08.07h5.71l-.23-.33z"/>
  <path fill="#0B45B3" d="M67.29 12.8c0 1.23-.95 2.18-2.2 2.18a2.15 2.15 0 01-2.18-2.19c0-1.24.95-2.19 2.19-2.19s2.19.95 2.19 2.2zm.42 0c0-1.49-1.13-2.62-2.61-2.62a2.56 2.56 0 00-2.61 2.61c0 1.48 1.13 2.6 2.6 2.6 1.49 0 2.62-1.12 2.62-2.6zm-1.42-.62c0-.6-.43-.86-.93-.86H64.1v2.84h.48v-1.1h.55l.56 1.1h.57l-.59-1.14c.37-.11.61-.4.61-.84zm-.5.01c0 .28-.19.4-.45.4h-.75v-.8h.75c.26 0 .46.14.46.4z"/>
</svg>
