<svg xmlns="http://www.w3.org/2000/svg" fill="none" viewBox="0 0 204 60">
  <path fill="#ED1B24" d="M157.5 31.77c-.21.63-.35 1.42.02 2.02.69.77 1.83.56 2.75.57.52-.06 1.2.05 1.54-.45.26-.76.2-1.56.22-2.35h-2.83c-.57.02-1.16 0-1.7.2zm-1.3-5.19c1.4.01 2.82-.02 4.23.02.91.1 1.9.3 2.58.96.68.6.88 1.56.95 2.43v5.83c-.45 0-.94.06-1.35-.2-.1-.36-.14-.74-.14-1.13-.52.78-1.47 1.14-2.35 1.32a5.2 5.2 0 01-3.76-.55c-1.55-1-1.42-3.58.07-4.57.89-.63 2.02-.69 3.07-.7.85.03 1.7 0 2.54 0 .02-.69-.35-1.4-1.04-1.62-1.41-.42-2.9-.11-4.34-.26-.13-.04-.26-.1-.38-.17-.08-.44-.11-.9-.09-1.35zm19.01-.15c.62.03 1.26-.05 1.84.2.4 1.55.06 3.17.22 4.74-.07-.6.32-1 .79-1.23 1.16-.7 1.6-2.11 2.71-2.85a4.94 4.94 0 012.95-.83c-.06.52.25 1.43-.46 1.6-1.07.12-1.91.9-2.52 1.74-.34.46-.74.88-1.18 1.25l4.2 4.8c-.71 0-1.44.04-2.15-.08-.62-.2-1.01-.77-1.44-1.23-.96-1.14-2-2.22-2.92-3.4-.03 1.57-.01 3.16-.01 4.74-.56.04-1.12 0-1.67-.1-.44-.24-.31-.83-.36-1.24-.03-2.7-.05-5.4 0-8.1zm-9.95.03c.6 0 1.24-.03 1.82.19.38 1.07.13 2.22.2 3.33 1.52.08 3.04 0 4.56 0v-3.51c.62 0 1.27-.04 1.87.19.1.3.16.62.18.94v8.22c-.63 0-1.28.06-1.87-.2-.36-1.3-.1-2.67-.19-4h-4.55v4.2c-.6 0-1.22.05-1.79-.18-.3-.62-.21-1.35-.26-2.02l.03-7.16zm-17.87 4.26v3.46c1.37 0 2.74.05 4.1-.04.37-.03.86-.08.92-.52.13-.68.25-1.47-.13-2.1-.44-.62-1.26-.75-1.96-.8h-2.92zm-1.8-6.34c.35-.12.72-.18 1.09-.18h7.24c-.05.5-.03 1.02-.24 1.49-.38.24-.84.17-1.27.18h-5.01v3.18c1.92.1 4.07-.34 5.79.76 1.75 1.03 1.92 3.83.37 5.1-.82.67-1.92.87-2.95.93h-3.92c-.38-.03-.78.01-1.1-.2-.22-.27-.2-.63-.22-.96v-9.05c0-.43 0-.88.21-1.26zM71.04 20.03a10 10 0 111.63 19.94 10 10 0 01-1.63-19.94z"/>
  <path fill="#005AAB" d="M7.05 24.94a7.12 7.12 0 012.85-.6c-.02.56.2 1.48-.56 1.63A4.88 4.88 0 006 28.41 3.43 3.43 0 014.27 30L10 36c-.76-.03-1.53 0-2.29-.09-.57-.06-.99-.5-1.37-.9l-3.92-4.38c-.36-.37-.42-1.19.14-1.4.79-.4 1.44-1 1.89-1.76.63-1.04 1.47-2.01 2.59-2.54v.01zm78.77-.44c.38-.24.85-.2 1.28-.23h5.58c.3.05.72-.01.93.27.16.46.14.96.17 1.44h-6.13v3.15l4.25.01c.38.03.8 0 1.12.23.18.45.16.95.19 1.43-1.86.02-3.71-.01-5.57.02.02 1.13 0 2.26.01 3.4 1.62.02 3.24-.04 4.86.03.36.04.8-.01 1.08.26.16.45.16.95.19 1.42h-6.1c-.6 0-1.22.03-1.8-.16-.27-.35-.25-.82-.27-1.24v-8.75c0-.44 0-.9.2-1.3l.01.02zM0 24.39c.6-.02 1.2-.04 1.77.14.29.29.25.74.29 1.12v10.37c-.6-.06-1.22.03-1.78-.2-.28-.37-.24-.86-.28-1.28V24.39zm14.99 2.14c1.27-.13 2.74.05 3.64 1.06.9 1 1.08 2.46 1.08 3.77-.02 1.33-.23 2.81-1.23 3.8-1 .95-2.51 1.05-3.82.84a3 3 0 01-2.01-1.06v4.6c-.59-.1-1.28.08-1.78-.29a2.5 2.5 0 01-.16-.93v-11.7a4 4 0 011.33.16c.1.35.16.72.15 1.09.6-.93 1.74-1.25 2.78-1.33l.02-.01zM13.8 28.2c-.35.09-.86.12-.96.55-.23.8-.17 1.64-.22 2.46.03.89.05 1.9.68 2.59.8.78 2.02.66 3.04.58.43-.07 1.08-.09 1.19-.62.2-.93.16-1.9.17-2.85-.04-.86-.17-1.87-.94-2.39-.88-.55-1.98-.42-2.96-.32zm10.22-1.63c1.39-.21 2.96-.07 4.06.9.97.85 1.29 2.2 1.2 3.45-.05.33 0 .78-.3 1-.38.13-.78.13-1.17.13h-5.36c-.03 1 .62 1.95 1.6 2.17 1.4.3 2.87-.09 4.26.26.37.4.23 1 .26 1.5-1.72-.06-3.47.14-5.16-.21a3.62 3.62 0 01-2.75-2.75 6.89 6.89 0 01.37-4.52 3.77 3.77 0 013-1.93h-.01zm-.22 1.5c-.4.07-.92.03-1.14.43-.21.64-.2 1.32-.2 1.99h4.79c0-.73-.15-1.56-.77-2.03-.77-.56-1.78-.42-2.68-.39zm82.92-.29c.72-1.14 2.22-1.4 3.47-1.37 1.18-.07 2.47.33 3.17 1.33.9 1.27.9 2.9.84 4.38-.1 1.13-.46 2.35-1.37 3.09-.96.8-2.3.86-3.49.72a3.06 3.06 0 01-2.17-1.14v4.6c-.57 0-1.15.02-1.69-.17-.25-.3-.22-.71-.24-1.08V26.53c.4 0 .82-.04 1.2.1.35.27.23.78.27 1.16h.01zm.7.66c-.28.9-.25 1.84-.25 2.77 0 .8.03 1.66.52 2.33.47.63 1.3.8 2.04.8.75-.02 1.51.02 2.17-.35.33-.58.27-1.28.32-1.92.03-1 .08-2.06-.36-2.99-.38-.78-1.32-1.07-2.13-1.04-.78.02-1.63-.06-2.3.4zm11.28-1.94c1.45-.19 3.1-.13 4.3.8 1 .78 1.4 2.08 1.46 3.3.08 1.4-.08 2.94-1.03 4.04-.85.96-2.2 1.3-3.43 1.3-1.28.04-2.67-.22-3.6-1.16-.91-.95-1.14-2.31-1.17-3.58.02-1.17.2-2.41.94-3.35.6-.78 1.57-1.2 2.53-1.35zm.56 1.56c-.58.07-1.29-.01-1.72.44-.32.8-.25 1.71-.27 2.57-.02.9.1 1.88.74 2.56.5.55 1.27.7 1.98.67.72-.04 1.51.06 2.12-.37.31-.54.28-1.21.33-1.82.03-1.1.1-2.32-.57-3.25-.6-.8-1.7-.86-2.62-.8zm6.4-1.43c.64-.25 1.34-.18 2.01-.19h5.13c.36.02.75.02 1.07.21.19.27.19.63.22.95v6.92c0 .36-.02.76-.22 1.08-.54.3-1.2.2-1.8.21v-7.3h-4.6v7.3c-.6-.01-1.25.09-1.8-.2-.24-.36-.22-.82-.23-1.24v-6.03c0-.57-.02-1.17.2-1.71h.02zm-93.27 0c.98-.16 1.97-.08 2.96-.1.83.01 1.67-.06 2.5.11.4.12.33.62.37.95v6.76c.33.07.88-.02.95.44.13.66.04 1.33.07 2-.03.36.04.83-.27 1.08-.54.16-1.11.14-1.66.18v-2.08h-5.94v2.08c-.52-.01-1.03-.06-1.54-.14-.34-.07-.35-.47-.39-.75a9.43 9.43 0 01.06-2.35c.02-.47.55-.4.88-.46.52-.5.78-1.2 1-1.87.46-1.64.57-3.36.6-5.06.02-.3.04-.75.42-.8h-.01zm1.27 1.53c-.05 2.1-.24 4.26-1.17 6.17 1.1 0 2.2.02 3.29 0a.49.49 0 00.51-.55v-5.62h-2.63zm12.05-.58c.3-.39.58-.9 1.12-.97.7-.08 1.43-.03 2.14-.04v8.26c-.05.33 0 .81-.37.96-.54.12-1.09.17-1.64.15v-6.87c-1.04 1.72-2.12 3.42-3.17 5.14-.35.54-.67 1.13-1.17 1.56-.8.27-1.66.14-2.48.17v-9.36c.62.04 1.33-.12 1.87.24.19.38.17.82.19 1.24v5.24c1.17-1.91 2.33-3.83 3.51-5.72zm4.35-.82a3.3 3.3 0 011.28-.2h7.2c-.03.52.08 1.1-.21 1.54-1 .35-2.08.1-3.1.18v7.66c-.56 0-1.12 0-1.65-.16-.36-.23-.29-.72-.34-1.08-.05-2.14-.01-4.28-.02-6.42H49.9c0-.51.05-1.02.16-1.51zm45.13-.15c.95-.23 1.94-.1 2.91-.13 1.36.05 2.74-.13 4.06.23.74.19 1.44.72 1.63 1.5.26.96.1 2.3-.96 2.7 1.55.71 1.82 3.03.64 4.16-.76.7-1.82.85-2.8.86h-4.82c-.3-.03-.8 0-.84-.4-.07-.47-.1-.96-.08-1.44v-6.5c.05-.32-.03-.75.26-.97zm1.56 1.43v2.3c1.74-.05 3.47.1 5.2-.1.19-.46.17-.97.1-1.44-.2-.56-.84-.76-1.38-.76h-3.92zm0 3.88v2.5h3.32c.72 0 1.45.05 2.14-.16.1-.52.2-1.07.04-1.58-.25-.6-1-.72-1.57-.76h-3.92zm39.22-5.35h3.94c1.08.06 2.28.28 3.05 1.11.77.88.82 2.11.83 3.22v4.92c-.46-.03-.98.08-1.36-.2-.1-.36-.16-.73-.18-1.1-.74 1.02-2.09 1.33-3.28 1.4-1.17.03-2.48-.18-3.3-1.1-1.03-1.21-.74-3.33.62-4.2.93-.6 2.08-.65 3.17-.64h2.38c0-.63-.28-1.34-.93-1.56-1.49-.55-3.12-.05-4.64-.37-.42-.32-.22-1-.3-1.48zm1.97 5.04c-.32 0-.74.11-.76.5-.1.63-.22 1.46.38 1.88.77.52 1.77.36 2.65.35.45-.07 1.05 0 1.36-.4.3-.75.23-1.6.24-2.39-1.29.03-2.58-.05-3.87.06z"/>
  <path fill="#fff" d="M66.98 30c1.62 1.62 3.23 3.26 4.88 4.86L76.7 30c-1.59-1.67-3.25-3.26-4.86-4.9-1.63 1.63-3.28 3.23-4.87 4.89z"/>
</svg>
