<svg xmlns="http://www.w3.org/2000/svg" fill="none" viewBox="0 0 204 60">
  <path fill="#F7000E" d="M0 29.45c.18-1.2.28-2.4.55-3.57a18.1 18.1 0 018.73-12.05c5.96-3.5 12.21-3.8 18.34-.6 7.04 3.7 10.46 9.75 10.28 17.71-.09 4.08-1.56 7.7-4.1 10.9-.38.5-.47.5-.84-.01a19.98 19.98 0 01-2.55-5.15c-.55-1.6-.87-3.26-.98-4.94-.06-1 .35-1.78.95-2.5.95-1.13 1.97-2.21 2.92-3.35.44-.51.82-1.07 1.13-1.67.4-.76.21-1.56-.3-1.82-.52-.27-1.11-.01-1.57.82a7.98 7.98 0 01-3.4 3.24c-.05.03-.1.07-.15.07-.38.03-.86.19-1.12.02-.39-.25-.15-.74.03-1.1.38-.79.8-1.56 1.2-2.34.2-.41.3-.84-.03-1.24-.34-.4-.77-.42-1.25-.38-1.52.11-3.54 2.78-2.68 4.38.48.88.14 1.6-.68 2.18a6.16 6.16 0 01-5.29.87c-.88-.22-1.4-.8-1.7-1.64-.41-1.15-.81-2.31-1.35-3.4a5.4 5.4 0 00-1.3-1.54c-1.14-1.02-1.23-1.64-.38-2.93.39-.59.8-1.2 1.04-1.85.38-1.02-.2-1.65-1.29-1.49-1.86.26-3.31 2.22-2.9 4.04.22.94.05 1.7-.69 2.31-1.2.99-1.55 2.32-1.57 3.77-.02 1.7-.29 3.4-.79 5.03-.44 1.4-.22 2.82.15 4.22.78 2.93.83 6 .15 8.96-.26 1.18-.4 1.23-1.32.49A18.89 18.89 0 01.26 32.83c-.1-.68-.17-1.38-.26-2.06v-1.32z"/>
  <path fill="#000" d="M150.85 36.15c-.93 0-1.87-.04-2.8-.02a1.2 1.2 0 01-.99-.42c-1.66-1.78-3.34-3.54-5.02-5.3-.08-.1-.18-.18-.37-.35v6.07c-.76 0-1.45.01-2.13-.01-.1 0-.2-.17-.25-.28a1.1 1.1 0 01-.02-.38V20.27h2.35v8.7l.55-.45c1.5-1.37 2.99-2.75 4.5-4.1.23-.2.52-.31.82-.33.88-.04 1.78 0 2.66.11L144 29.38l6.84 6.66v.11z"/>
  <path fill="#F7000E" d="M16.26 39.87c.14-2.02.27-4.04.43-6.06.05-.37.15-.72.32-1.05.41-.93 1.12-1.42 2.12-1.29.85.1 1.68.33 2.47.65 1.19.51 1.79 1.57 1.98 2.8.6 3.64 1.25 7.28 1.37 10.98.06 1.6-.29 2.07-1.8 2.58a8.9 8.9 0 01-4.22.43c-1.02-.16-1.8-.64-2.02-1.72a21.2 21.2 0 01-.43-2.98c-.07-1.44-.02-2.89-.02-4.33l-.2-.01z"/>
  <path fill="#000" d="M89.96 29.03c-.26-2.8-2.1-4.8-4.86-5.02-1.95-.15-3.91.02-5.87.04a.66.66 0 00-.2.07v15.72h2.38v-3.51c.3.02.54.04.77.04.93 0 1.88.1 2.79-.03 2.08-.3 3.7-1.32 4.52-3.37.51-1.26.6-2.6.47-3.94zm-2.91 3.33a3.17 3.17 0 01-2.86 2.14c-.9.08-1.81.01-2.79.01V30 26.3c-.01-.38.12-.52.5-.5.82.03 1.65-.07 2.45.06 1.83.31 2.79 1.41 3.03 3.25.14 1.1.06 2.19-.33 3.24zM112.24 28.58a5.15 5.15 0 00-4.24-4.65c-.95-.18-1.96-.1-2.95-.12-.39-.01-.78.04-1.25.08v-3.64h-2.36v15.7c1.83.4 4.23.53 5.83.3a5.65 5.65 0 004.92-4.57c.19-1 .16-2.08.05-3.1zm-2.6 3.1a3.64 3.64 0 01-3.7 2.82c-.61 0-1.22-.08-1.81-.1-.38 0-.33-.26-.33-.5v-3.84c0-1.28-.01-2.56.01-3.84 0-.17.17-.46.27-.47 1-.03 2.02-.12 3 .02 1.28.18 2.1 1.03 2.48 2.28a6.7 6.7 0 01.08 3.64zM124.34 27.15c-.04-1.65-.93-2.71-2.56-3.07-2.3-.5-4.62-.29-6.92.13-.1.02-.24.15-.24.23-.02.56-.01 1.11-.01 1.72l1.16-.2c1.54-.25 3.09-.4 4.64-.16.68.1 1.26.37 1.42 1.1.1.55.12 1.11.17 1.73h-1.16c-1.26.05-2.52.03-3.77.2-1.36.17-2.53.75-3.07 2.15-.99 2.54.46 4.95 3.16 5.26 2.29.27 4.57.1 6.85-.1.3-.04.36-.17.36-.43 0-2.85.03-5.7-.03-8.56zm-2.39 7.33c-1.4.09-2.79.27-4.16-.08-.97-.25-1.52-.94-1.52-1.9 0-1 .48-1.6 1.52-1.85 1.37-.33 2.75-.24 4.16-.13v3.96zM65.68 27.27c-.02-1.71-.89-2.82-2.55-3.18-2.3-.5-4.61-.3-6.92.12a.4.4 0 00-.26.27c-.03.54-.01 1.09-.01 1.68l1.15-.19c1.56-.26 3.12-.4 4.7-.17.63.1 1.19.36 1.35 1.03.14.57.14 1.18.21 1.85l-1.36-.06a12.2 12.2 0 00-4.72.51c-.96.36-1.66 1-1.97 2-.84 2.59.5 4.77 3.2 5.11 2.3.3 4.6.12 6.9-.13.11 0 .3-.29.3-.44 0-2.8.02-5.6-.02-8.4zm-2.37 6.96c0 .09-.17.27-.25.27-1.27-.01-2.56.06-3.82-.1-1.27-.18-1.83-1.19-1.57-2.44.15-.7.65-1.09 1.3-1.27 1.42-.39 2.86-.28 4.35-.18l-.01 3.72zM54 24.2l-6.1 5.15 6.85 6.58-.1.2c-.72 0-1.45-.07-2.16.01-.85.1-1.41-.23-1.97-.85-1.47-1.63-3-3.2-4.51-4.8-.12-.12-.18-.3-.27-.46l-.23.16v5.91h-2.3V20.27h2.26v8.7c.27-.21.42-.32.55-.45 1.49-1.35 2.98-2.71 4.45-4.08a1.26 1.26 0 01.97-.38c.84.03 1.67.01 2.5.01l.06.14zM126.52 24.06c.65 0 1.25-.02 1.85.01.13.01.3.2.35.34.06.18.01.39.01.65.74-.29 1.4-.56 2.06-.8a6.47 6.47 0 013.82-.28 3.15 3.15 0 012.47 3c.05 2.98.02 5.97.02 8.95a.66.66 0 01-.05.17h-2.35v-.67-6.86c0-.31 0-.62-.03-.93-.15-1.3-.76-1.92-2.03-1.74-1.2.17-2.36.6-3.52.96-.13.04-.23.38-.23.58-.02 2.66-.01 5.31-.01 7.96v.7h-2.35l-.01-12.04zM67.66 33.98c1.1.17 2.13.35 3.16.48 1 .13 2.02 0 2.96-.37.55-.23.93-.58.96-1.22a1.23 1.23 0 00-.84-1.28c-.82-.3-1.68-.48-2.52-.73-.68-.2-1.37-.4-2.02-.69a2.84 2.84 0 01-1.78-2.77c0-1.36.6-2.37 1.82-2.95a5.86 5.86 0 011.72-.52c1.78-.24 3.54-.07 5.31.25v1.88c-.81-.1-1.6-.27-2.39-.28-.93 0-1.85.04-2.77.14-.24.02-.49.16-.7.3-.76.5-.78 1.5.02 1.93.57.3 1.23.47 1.85.65.9.27 1.81.44 2.69.76 1.22.44 2.02 1.28 2.1 2.66.1 1.52-.44 2.74-1.84 3.37-.85.4-1.8.7-2.72.72-1.51.04-3.02-.18-4.53-.29-.37-.02-.5-.2-.48-.56.02-.49 0-.98 0-1.48zM94.1 36.1h-2.3V24.11h2.3v12z"/>
  <path fill="#F7000E" d="M27.01 41.09c.06-.4.1-.95.22-1.48.18-.76.69-.94 1.22-.37.5.55.94 1.16 1.28 1.82.4.76.67 1.58.96 2.39.3.8.08 1.5-.6 1.99-.44.3-.9.57-1.38.79-.38.18-.74.08-.86-.37a66.37 66.37 0 01-.72-3.2c-.1-.46-.08-.95-.12-1.57zM11.23 43.14c.17-1.36.28-2.56.49-3.74.05-.3.37-.56.57-.84.2.27.5.5.58.8.64 2.45.86 4.98.65 7.5-.03.42-.05.97-.65 1.08-.42.09-.9-.28-1.03-.94-.26-1.32-.43-2.66-.61-3.86z"/>
  <path fill="#000" d="M91.8 20.25h2.3v2.24h-2.3v-2.24z"/>
</svg>
