<svg width="204" height="60" viewBox="0 0 204 60" xmlns="http://www.w3.org/2000/svg" fill="none">
    <g fill="#DD0A34" clip-path="url(#a)">
        <path d="M69.757 18H63.77v25h5.333V26.508h.328l5.66 9.515h2.85l5.645-9.516h.328V43h5.38V18H83.4l-6.78 11.345L69.757 18ZM100.457 18h-5.406v25h5.402V32.33h2.703L110.609 43h7.049l-9.973-13.322L116.781 18h-6.757l-6.912 9.216-2.666.3.011-9.516Z"/>
        <path fill-rule="evenodd" d="M121.574 18h19.436l-4.786 5.038h-9.207v3.879h5.601a13.86 13.86 0 0 1 3.834.484 8.777 8.777 0 0 1 3.067 1.493 7.66 7.66 0 0 1 1.974 2.462 9.022 9.022 0 0 1 .693 3.545 8.76 8.76 0 0 1-.693 3.47 8.377 8.377 0 0 1-2.007 2.538 9.386 9.386 0 0 1-3.031 1.568c-1.248.353-2.538.53-3.833.523h-11.048V18Zm5.443 13.807V38l5.62-.004c1.351 0 2.371-.299 3.03-.822a2.79 2.79 0 0 0 .772-1.012c.178-.395.264-.826.252-1.26a2.677 2.677 0 0 0-.231-1.27 2.593 2.593 0 0 0-.793-1.003c-.673-.56-1.642-.822-2.883-.822h-5.767Z" clip-rule="evenodd"/>
        <path d="M30.222 18.026 18.092 30.5 12.03 24.26 18.099 18H5.96L0 24.261 18.22 43 33.777 26.87h9.309l8.598-8.845H30.222Z"/>
        <path d="m20.719 42.734 1.742-1.772 11.99-12.353h17.237l-8.606 8.841h-5.056l-5.118 5.284h-12.19Z"/>
    </g>
    <defs>
        <clipPath id="a">
            <path fill="#fff" d="M0 0h142.188v25H0z" transform="translate(0 18)"/>
        </clipPath>
    </defs>
</svg>