<svg xmlns="http://www.w3.org/2000/svg" fill="none" viewBox="0 0 204 60">
  <path fill="#005AA8" d="M34.52 28.75A12.69 12.69 0 0022 18.61c-2.56 0-5.06.74-7.18 2.16l18 8.3c1.63.72 1.7-.26 1.71-.32zM9.26 31.83a12.63 12.63 0 0012.73 11.74 12.86 12.86 0 009.75-4.43 1.03 1.03 0 01-.94.05s-17.22-6.49-20.75-7.8a.76.76 0 00-.3-.06.5.5 0 00-.5.46v.04z"/>
  <path fill="#F13627" fill-rule="evenodd" d="M31.73 37.2c-.1-.03-23.69-9.86-23.9-9.95-.84-.34-1.4.44-.85 1.17l1.93 2.48c-.2-.3-.34-.64-.43-.98-.03-.31.16-.64.77-.39L31 38.33c.65.22 1.24.2 1.51-.17.42-.59.78-1.21 1.08-1.86-.2.36-.89 1.27-1.86.9h.01zm2.93-7.5c-.02.3-.24 1.68-1.77.96L1.4 16.08c-.59-.28-1.87.18-1.2 1.46 0 .03 2.46 3.94 2.44 3.88a8.66 8.66 0 01-.57-1.73c-.08-.33.21-.63.66-.43.05 0 30.02 13.16 30.24 13.26.64.3 1.7.15 1.77-.66v-.77c0-.46-.03-.93-.08-1.4h.01zm-2.08 4.68L4.67 21.84c-.76-.36-1.85.4-1.26 1.32l2.27 3.25s-.64-1.04-.57-1.53a.45.45 0 01.63-.38c.24.08 26.17 11.2 26.3 11.26.94.41 1.72.12 2.02-.56.2-.59.36-1.19.48-1.8-.12.3-.67 1.47-1.95.98z" clip-rule="evenodd"/>
  <path fill="#005AA8" d="M108.68 43.74h5.33v-.9a1.07 1.07 0 01-.82-.64 7.5 7.5 0 01-.22-2.38v-4.08h3.33v4.08c0 1.26-.07 2.06-.2 2.4a1.07 1.07 0 01-.83.62v.9h5.34v-.9a1.2 1.2 0 01-.95-.69 7.65 7.65 0 01-.2-2.33V30.8c0-1.3.07-2.08.2-2.34a1.2 1.2 0 01.95-.69v-.9h-5.36v.9a1.1 1.1 0 01.83.64c.14.34.2 1.12.2 2.39v3.81h-3.31V30.8c0-1.27.07-2.05.22-2.4a1.08 1.08 0 01.82-.63v-.9h-5.33v.9a1.21 1.21 0 01.95.7c.13.25.18 1.03.18 2.33v9.02c0 1.3-.05 2.07-.18 2.33a1.22 1.22 0 01-.95.7v.9zM61.53 43.74v-.92h-.5c-.38.02-.75-.11-1.04-.36a1.8 1.8 0 01-.5-.82c-.12-.77-.16-1.56-.13-2.34V23.7c-.03-.76.01-1.51.12-2.26.08-.32.24-.6.47-.85.3-.25.68-.39 1.07-.37h.5v-.92h-6.21l-4.16 16.1-4.3-16.1h-6.26v.92h.49c.38-.02.75.1 1.03.36.24.21.42.49.51.8.12.76.16 1.54.13 2.32v14.95c0 1.08 0 1.7-.02 1.84-.06.45-.18.9-.36 1.32-.14.31-.37.57-.67.74-.28.18-.6.28-.94.26h-.16v.93h5.6v-.93c-.73 0-1.23-.18-1.55-.56a2.98 2.98 0 01-.65-1.47c-.03-.27-.05-1.02-.05-2.22V22.91l5.6 20.82h.72l5.39-20.49v16.07c.03.75-.01 1.51-.12 2.26-.07.33-.22.63-.45.88-.3.25-.68.38-1.07.36h-.5v.92l8 .01zM127.07 19.31h-4.3v.92a1.18 1.18 0 01.91.62c.15.3.23 1.1.23 2.37v16.61c0 1.29-.07 2.06-.2 2.32a1.2 1.2 0 01-.94.7v.9h5.44v-.9a1.19 1.19 0 01-.91-.61c-.17-.32-.24-.54-.24-2.4v-2.78l.69-1.08 2.08 4.63c.24.48.4 1 .47 1.53 0 .17-.06.33-.16.47a.62.62 0 01-.53.23v.9h5.45v-.9a1.32 1.32 0 01-.97-.7 31.89 31.89 0 01-1.8-3.7l-2.47-5.81s2.27-3.64 3.14-4.3c.32-.31.73-.5 1.18-.53v-.9h-4.69v.91c1.64 0 1.44 1.36 1.04 2.04l-3.4 5.29V19.3h-.02zM77.59 25.92v-6.6h-13.7v6.6h.93c.17-1.79.08-3.19.74-4.15.46-.71 1.22-1.05 2.24-1.05h1.12V39.3c.03.75-.01 1.51-.13 2.26-.06.33-.22.64-.46.88-.3.25-.69.38-1.08.36h-.48v.92h8v-.9h-.5c-.38.01-.76-.12-1.04-.37-.24-.22-.42-.5-.52-.82a13.9 13.9 0 01-.12-2.34V20.72h1.1c1.03 0 1.79.36 2.25 1.05.66.96.56 2.36.74 4.15h.92-.01zM79.92 43.74h7.76c2.17 0 3.82-.73 4.96-2.18 1.84-2.39 2.04-10 .12-12.5-1.67-2.2-4.56-2.48-7.15-2.45v-5.9h3c1.02 0 1.77.36 2.23 1.06.66.96.57 2.36.74 4.15h.93v-6.6h-12.6v.9c.72 0 1.19.11 1.44.32.26.2.44.5.53.82.1.34.15.92.15 2.24v15.6c0 1.32-.05 2.15-.15 2.48-.09.32-.27.6-.52.82-.27.22-.72.32-1.44.32v.92zm5.97-1.82a2.87 2.87 0 01-.3-1.47V28.02c1.15 0 2.01.16 2.6.51a3.65 3.65 0 011.36 1.9c.83 2.26.84 7.26.1 9.49a4.07 4.07 0 01-1.17 1.85c-.46.4-1.05.64-1.67.64a1.04 1.04 0 01-.92-.5zM104.12 44h.03c.57 0 1.12-.2 1.55-.56.5-.56.88-1.2 1.13-1.89l-.64-.6a.48.48 0 01-.24.28.49.49 0 01-.48-.03.95.95 0 01-.17-.43c-.05-.48-.07-.97-.05-1.46v-6.2c.03-1.16-.02-2.33-.17-3.48-.29-1.53-1.23-3.21-3.5-3.23-.84 0-1.66.21-2.4.62a4.43 4.43 0 00-1.79 1.81c-.43.8-.67 1.68-.7 2.59-.05 1.43.83 2 1.73 2a1.61 1.61 0 001.36-2.47c-.24-.44-1.43-1.31-.35-2.67a1.62 1.62 0 011.22-.52c.87 0 1.12.63 1.29 1.24.12.8.17 1.6.13 2.4v1.7c-2.32 1.7-3.83 3.07-4.51 4.1a5.42 5.42 0 00-1.17 3.22c0 1.91 1.08 3.55 2.7 3.55s2.5-1.08 2.98-2.7c.01.72.23 1.43.63 2.04a1.68 1.68 0 001.42.69zm-4.45-6.25a13.18 13.18 0 012.42-3.44v5.52a1.71 1.71 0 01-1.44.9c-1 0-1.88-1.13-1-3l.02.02z"/>
</svg>
