<svg xmlns="http://www.w3.org/2000/svg" fill="none" viewBox="0 0 204 60">
  <path fill="#404A71" fill-rule="evenodd" d="M56.13 34.47a4.73 4.73 0 01-4.23 2.24 4.74 4.74 0 01-4.22-2.24 9.32 9.32 0 01-.98-4.26c.02-1.21.04-2.16.34-3.24a4.76 4.76 0 012.87-3.38c.63-.25 1.32-.3 2-.3.67 0 1.36.05 1.99.3a4.77 4.77 0 012.87 3.38c.3 1.08.32 2.03.34 3.24.02 1.2-.3 3.1-.98 4.26zm3.2-10.54a7.67 7.67 0 00-3.43-2.73 10.4 10.4 0 00-4-.7c-1.35 0-2.68.16-3.98.7a7.68 7.68 0 00-3.43 2.72A10.87 10.87 0 0042.75 30c.02 1.8.18 2.8.7 4.13a8.19 8.19 0 003.41 4.1 9.54 9.54 0 005.06 1.27c1.78 0 3.52-.34 5.05-1.27a8.2 8.2 0 003.4-4.1c.53-1.34.7-2.32.71-4.13.01-1.8-.45-4.24-1.75-6.07zm32.36 7.45a5.27 5.27 0 00-2.79-1.52l.33-.12.36-.14a4.23 4.23 0 002.43-3.49c.17-1.6-.41-2.9-1.7-3.85-1-.76-2.18-1-3.42-1h-9.15a2.1 2.1 0 011.18 1.41c.14.48.22.98.25 1.48.03 1.37.01 2.75.01 4.13 0 2.78.02 5.57-.02 8.35-.01 1.08-.13 2.17-1.22 2.87h9.4c1.33 0 2.58-.3 3.68-1.1a4.78 4.78 0 00.66-7.02zm-8.6-7.62h.63c.65 0 1.3 0 1.94.03 1.17.04 2.03.7 2.25 1.85.19 1 .01 1.96-.8 2.7-.4.34-.92.53-1.45.53-.85.02-1.7 0-2.57 0v-5.1zm5.19 12.27a2.24 2.24 0 01-1.72.88c-1.15.06-2.3.02-3.47.02v-5.59h.16c.99.02 1.98-.02 2.97.06 1.4.11 2.4.96 2.57 2.43.09.8-.01 1.54-.51 2.2zm-14.79-3.59a1.8 1.8 0 00-1.58-.86c-1.15-.05-2.3-.03-3.46-.04h-.1v.3c0 1.54-.02 3.09.01 4.63.02.6.1 1.18.22 1.76a1.74 1.74 0 001.03 1.27h-6.53c.88-.4 1.13-1.16 1.26-1.97.06-.43.09-.86.08-1.29v-11.8c0-.36-.02-.72-.07-1.09-.13-.91-.51-1.68-1.49-2.1h12.3V26l-.2-.43a2.9 2.9 0 00-2.62-1.77c-1.3-.07-2.6-.03-3.89-.04h-.09v5.28h2.99c.33 0 .66-.04.98-.1a1.61 1.61 0 001.16-.8v4.31z" clip-rule="evenodd"/>
  <path fill="#D1AA3B" d="M37.09 29.25c-.71-.59-1.23-1.4-1.73-2.17-.51-.79-.97-1.51-1.63-2.2-.24-.25-.47-.47-.72-.68.02-.33.03-.66.02-1-.02-.95-.2-1.78-.4-2.7-.19-.9-.4-1.84-.31-2.76l.11-1.17-1.17.11c-.92.09-1.86-.12-2.75-.31-.92-.2-1.76-.38-2.71-.4-.34 0-.67 0-1 .02-.2-.25-.44-.48-.68-.72-.69-.66-1.41-1.11-2.2-1.63-.77-.5-1.58-1.01-2.17-1.73l-.74-.9-.75.9c-.58.72-1.4 1.23-2.16 1.73-.8.51-1.52.97-2.2 1.63-.25.24-.48.47-.7.72a11.4 11.4 0 00-.98-.02c-.95.02-1.8.2-2.71.4-.9.2-1.84.4-2.76.31l-1.17-.11.11 1.17c.1.92-.12 1.86-.3 2.75-.2.93-.4 1.76-.4 2.71-.02.34 0 .67.01 1-.24.21-.48.44-.71.68-.67.69-1.12 1.41-1.64 2.2-.5.77-1.01 1.58-1.73 2.17L0 30l.91.74c.71.6 1.23 1.4 1.73 2.17.51.8.97 1.52 1.63 2.2.24.25.47.47.72.69-.02.32-.03.65-.02.99.01.95.2 1.79.4 2.71.19.9.4 1.83.3 2.75l-.1 1.18 1.17-.12c.92-.09 1.86.13 2.75.31.92.2 1.76.39 2.71.4.34.01.67 0 1-.02.2.25.44.49.68.72.69.66 1.41 1.12 2.2 1.63.77.5 1.58 1.02 2.17 1.73L19 49l.74-.9c.59-.72 1.4-1.24 2.17-1.74.79-.5 1.51-.97 2.2-1.63.25-.23.47-.47.69-.72.32.03.65.03.99.02.95-.01 1.79-.2 2.71-.4.9-.19 1.83-.4 2.75-.3l1.18.1-.12-1.17c-.09-.92.13-1.85.31-2.75.2-.92.39-1.76.4-2.71.01-.34 0-.67-.02-1 .25-.2.48-.44.72-.68.66-.68 1.12-1.4 1.63-2.2.5-.77 1.02-1.58 1.73-2.17L38 30l-.9-.75zm-10.62 1.04c2 .44 3.93 2.7 4.45 4.65-1.74 1-4.7 1.25-6.43.14l-1.15-.75.74 1.15c1.12 1.73.87 4.7-.13 6.44-1.94-.53-4.22-2.45-4.65-4.46l-.3-1.33-.29 1.34c-.44 2-2.7 3.93-4.65 4.45-1-1.74-1.25-4.7-.13-6.43l.74-1.15-1.15.74c-1.74 1.12-4.7.87-6.44-.14.53-1.93 2.45-4.2 4.46-4.64l1.34-.3-1.35-.29c-2-.44-3.93-2.71-4.45-4.65 1.74-1 4.7-1.25 6.43-.14l1.15.75-.74-1.15c-1.12-1.74-.87-4.7.14-6.44 1.93.53 4.2 2.45 4.64 4.46l.3 1.34.29-1.34c.43-2 2.7-3.93 4.64-4.45 1 1.74 1.25 4.7.14 6.43l-.74 1.15 1.15-.74c1.73-1.11 4.69-.87 6.43.14-.52 1.93-2.44 4.21-4.45 4.64l-1.34.3 1.35.28zm3.9-11.66c.05.76.16 1.51.32 2.25.15.75.34 1.37.4 2.1l-.14-.08a7.48 7.48 0 00-4.33-.52 7.5 7.5 0 00-.52-4.33l-.07-.15c.72.07 1.35.26 2.09.4.74.17 1.49.28 2.25.33zm-13.2-3.34c.65-.41 1.26-.87 1.83-1.37.57.5 1.18.96 1.82 1.37.63.42 1.2.73 1.77 1.19l-.16.06A7.5 7.5 0 0019 19.22a7.5 7.5 0 00-3.43-2.69l-.16-.05c.56-.46 1.14-.77 1.77-1.2zm-9.86 5.6c.17-.75.27-1.5.33-2.26.75-.05 1.5-.16 2.24-.32.75-.15 1.37-.34 2.1-.4l-.08.15a7.5 7.5 0 00-.52 4.32 7.5 7.5 0 00-4.33.53l-.15.07c.07-.73.26-1.36.41-2.1zM4.28 31.81a15.4 15.4 0 00-1.36-1.83c.5-.57.96-1.18 1.36-1.82.42-.62.74-1.2 1.2-1.76l.05.16a7.5 7.5 0 002.69 3.42 7.56 7.56 0 00-2.69 3.44l-.05.15c-.47-.55-.77-1.13-1.2-1.76zm3.35 9.54c-.05-.76-.16-1.5-.32-2.24-.14-.75-.33-1.37-.4-2.1l.15.08a7.5 7.5 0 004.32.52 7.5 7.5 0 00.53 4.33l.07.15c-.72-.07-1.35-.26-2.1-.4-.74-.17-1.49-.28-2.25-.33v-.01zm13.19 3.36c-.64.4-1.25.86-1.82 1.36-.58-.5-1.19-.96-1.83-1.36-.62-.42-1.2-.74-1.76-1.2l.15-.06A7.5 7.5 0 0019 40.78a7.55 7.55 0 003.43 2.68l.15.06c-.55.46-1.13.77-1.76 1.2zm9.87-5.6c-.17.74-.27 1.49-.33 2.25-.76.05-1.5.16-2.25.32-.74.15-1.37.34-2.09.4l.07-.14a7.5 7.5 0 00.53-4.33 7.5 7.5 0 004.32-.52l.16-.08c-.07.73-.26 1.36-.4 2.1h-.01zm3.02-7.3c-.42.62-.73 1.2-1.2 1.77l-.05-.16A7.49 7.49 0 0029.78 30a7.5 7.5 0 002.74-3.59c.46.56.77 1.14 1.19 1.77.4.64.86 1.25 1.36 1.82-.5.57-.95 1.18-1.35 1.82h-.01z"/>
</svg>
