<svg xmlns="http://www.w3.org/2000/svg" fill="none" viewBox="0 0 204 60">
  <path fill="#006C3F" fill-rule="evenodd" d="M0 30.03A15 15 0 0114.97 15v5.44a9.62 9.62 0 00-9.59 9.59 9.6 9.6 0 1019.18-.05H30A15 15 0 0114.97 45 14.95 14.95 0 010 30.03z" clip-rule="evenodd"/>
  <path fill="#50B848" d="M8.37 30.03a6.66 6.66 0 1113.32 0 6.66 6.66 0 01-13.32 0z"/>
  <path fill="#006C3F" d="M19.66 21.55c0-2.13 1.7-3.83 3.84-3.83 2.13 0 3.84 1.7 3.84 3.83 0 2.14-1.71 3.84-3.84 3.84a3.82 3.82 0 01-3.84-3.84z"/>
  <path fill="#50B848" d="M141.2 25.12l-.47 2.35c-1.12 5.06-1.55 6.71-2.5 11.78l-.22.16-3.1.1-.15-.21 1.23-5.22.37-1.7c-1.34-.06-2.67-.06-4-.06-1.01 0-1.81 0-2.61.05-.43 2.03-.85 3.84-1.38 6.88l-.22.16-3.09.1-.16-.21 1.23-5.22.48-2.3c.8-3.56.95-4.36 1.43-7.67l.22-.21c1.44-.16 1.76-.27 3.2-.53l.16.21-.33 1.5-.47 2.34-.48 2.23c1.12 0 2.23.06 3.35.06 1.18 0 1.97 0 3.25-.06.43-1.91.59-2.98.96-5.48l.22-.22c1.44-.16 1.75-.26 3.2-.53l.15.21-.26 1.5zm-38.36 6.77c.21-.9.37-1.76.37-2.6 0-3.1-1.97-3.58-3.09-3.58-4.8 0-5.38 7.4-5.38 8.53 0 2.45 1.44 3.51 3.1 3.51 3.24 0 4.47-3.35 5-5.86zm3.14.96c-.69 2.61-2.5 7.14-8.25 7.14-4.05 0-6.3-2.08-6.3-6.23 0-.54.06-1.12.11-1.76 0-.16.06-.32.06-.48 1.17-6.82 4.15-13.32 10.7-13.38.86 0 2.62-.1 3.84-.37l-.42 2.72c-1.23.32-3.14.48-4.21.48-1.39 0-2.35.53-2.99 1.17-.31.32-.58.64-.8.96-.2.32-.31.59-.42.8a9.6 9.6 0 012.88-.43c4 0 6.34 2.24 6.34 6.13a13.83 13.83 0 01-.53 3.25z"/>
  <path fill="#50B848" fill-rule="evenodd" d="M118.67 35.52c-.32.26-.64.58-1.02.8-.8.47-1.8.69-2.6.69-2.78 0-3.52-2.35-3.52-3.79 0-.16.05-4.05 3.25-6.23a8.2 8.2 0 014.74-1.28c.48 0 .9.05 1.39.05l-2.24 9.76zm5.8-11.83l-.16-.27-4.15-.05c-2.77 0-6.72.16-9.49 3.46-1.28 1.5-2.4 4.1-2.4 6.5 0 3.78 2.51 5.97 5.6 5.97 2.56 0 3.9-1.12 4.42-1.55l-.21 1.23.16.21 2.82-.05.22-.21c.58-3.63.8-4.75 1.86-9.44l1.33-5.8z" clip-rule="evenodd"/>
  <path fill="#006C3F" fill-rule="evenodd" d="M49.08 31.2c-.59 2.66-1.23 3.46-1.55 3.89a2.9 2.9 0 01-2.18 1.17c-1.02 0-1.82-.48-2.14-1.44-.1-.21-.16-.58-.16-1.33 0-1.39.64-4.8 1.76-6.29a3.11 3.11 0 012.45-1.22c1.76 0 2.14 1.54 2.14 2.66 0 .96-.16 1.81-.32 2.56zm4.95 1.17c.27-1.01.37-2.02.37-3.04 0-1.8-.37-3.51-1.91-4.9-1.44-1.28-3.36-1.7-5.23-1.7-7.83 0-9.32 7.24-9.32 10.01 0 2.24.64 3.9 1.97 5.07 1.44 1.28 3.57 1.54 5.12 1.54 2.29 0 4.26-.48 5.96-1.92 1.6-1.17 2.56-3.09 3.04-5.06z" clip-rule="evenodd"/>
  <path fill="#006C3F" d="M66.29 26.94h-.32a190.9 190.9 0 01-1.12 4.8l-.48 2.23c-.53 2.56-.64 3.2-.96 5.33l-.21.16-5.23.1-.16-.2c.91-3.58 1.07-4.27 1.98-8.1l.32-1.5.58-2.77h-1.81l-3.52.1-.16-.26 1.02-3.57.26-.16h10.29l5.22-.1.16.15-.96 3.57-.27.22-2.98-.11h-1.65v.1zm17.9-.06l-5.75.06s-.7 2.29-1.34 4.85c-.64 2.55-1.33 5.38-1.75 7.46l-.22.16-4.9.1-.16-.21c1.07-3.57 1.28-4.26 2.3-8.1l.36-1.5c.32-1.27.54-2.07.7-2.87l.85-3.57.21-.16h9.91l5.23-.1.2.15s-1 4.96-1.64 8.26c-.64 3.36-1.33 7.73-1.33 7.73l-.22.16-5.11.1-.16-.2c.8-3.52 1.38-6.14 1.8-8.1.54-1.93.8-3.36 1.02-4.22z"/>
  <path fill="#50B848" d="M147.33 30.03c.75-.64 1.12-1.02 2.14-1.98 1.06-1 3.62-3.67 4.1-4.2l.32-.16h3.46l.1.26c-.31.27-.47.37-1.64 1.44-.48.37-.8.7-1.39 1.23l-3.94 3.62 4.69 8.95-.16.27-3.36.1-.27-.16c-.8-1.86-1-2.29-2.07-4.52l-2.14-4.32c-.63 2.98-1.06 4.85-1.8 8.74l-.22.16-3.1.1-.15-.2 1.22-5.23.48-2.3c.8-3.56.96-4.36 1.44-7.67l.22-.2c1.44-.17 1.75-.27 3.2-.54l.15.21-.32 1.5-.48 2.34-.48 2.56z"/>
</svg>
