<svg xmlns="http://www.w3.org/2000/svg" fill="none" viewBox="0 0 204 60">
  <defs/>
  <path fill="#001689" fill-rule="evenodd" d="M0 50h39.72V10.15H0V50z" clip-rule="evenodd"/>
  <path fill="#fff" fill-rule="evenodd" d="M12.06 23.1c.3.64.77 1.3 2.09 2.2.29.2.61.63.37 1.22-.25.58-.71 1.42-.44 1.75.28.32 1.27.5 2.07.17 0 0 .17.5.47.83 0 0-.14.28-.6.14 0 0 .16.42-.07.87 0 0-.54-.1-.77-.59 0 0-.22.39-.65.53 0 0-.36-.19-.28-.9 0 0-.26.64-1.06.74 0 0-.47-.59.13-1.38 0 0-.43.4-1.21.2 0 0-.13-.4.58-.95 0 0-.8-.04-1.11-.72 0 0 .34-.42 1.17-.32 0 0-.77-.17-.94-1.1 0 0 .56-.36 1.44.21 0 0-.16-.3-.53-.59s-.82-1.11-.66-2.32zM15.3 32.44c-.13-.16-.21-.32-.28-.46.14 1.12.19 1.88.8 2.61 0 0 .36-.49.13-1.67-.1-.03-.22-.08-.33-.16 0 0 .14.49.05.97 0 0-.22-.16-.38-1.3zM14.24 32.32c-.07-.1-.21-.29-.28-.42-.05.65-.23 2.37.35 2.91 0 0 .4-.29.53-2.8-.08.14-.23.29-.3.37 0 0 .1.8-.19 1.36 0 0-.28-.22-.1-1.42zM12.87 33.64c.48-.58.63-2.33.63-2.33l.2-.14.08-.07v.2c-.06 1.04-.14 2.12-.47 2.66-.32.52-.9.8-.9.8-.56-.99.1-2.3.67-3.22l.2-.1c-.2.7-.56 1.55-.4 2.2zM11.5 30.62a.77.77 0 00.06.32c-.46.45-.8.89-1.48 1.84-.69.95-1.77.99-1.77.99.1-.77.31-1.38.9-2.04a12.1 12.1 0 011.86-1.65 1.03 1.03 0 00.6.06.8.8 0 00-.13.29c-.42.23-1.61.84-2.1 1.82 0 0 .76-.24 2.06-1.63zM10.65 29.66l.04-.09.05-.07c-.45.17-2.03.77-2.54 1.04-.52.27-1.26.87-1.66 2.1 0 0 1.07.1 1.95-.63.88-.74 1.91-1.76 2.35-2.09a.73.73 0 01-.1-.11s-1.2 1.06-2.46 1.52c0 0 .27-.5.77-.85.6-.43 1.06-.58 1.6-.82zM9.74 28.93l.05-.12c-.52.1-1.83.26-2.41.44-.59.18-1.64.61-2.27 1.81 0 0 .92.28 2.66-.53 1.73-.82 2.28-1 2.6-1.08a1.2 1.2 0 01-.54-.17c-.7.3-1.62.67-2.54.7 0 0 .45-.32.93-.53a12.3 12.3 0 011.52-.52zM9.78 28.07c.17.07.3.11.53.14-.12.08-.24.18-.34.31-.61.18-1.66.37-3.38.5-1.72.12-2.64-.2-2.64-.2.6-.37 1.56-.74 2.2-.86.65-.13 2.35-.11 3.1-.22l.24.17c-.63.06-1.96.12-2.65.47 0 0 1.27.17 2.94-.31zM9.65 27.07l.32-.15c-.87-.26-2.06-.69-3.87-.8a9.8 9.8 0 00-2.76.11s1.2.85 2.58 1.15c1.37.3 2.49.11 3.3.12.06-.08.12-.17.21-.26-.95 0-2.54-.24-3.1-.43 0 0 1.38-.3 3.32.26zM9.65 26.04c0 .03.1.52.68.8-1.23-.54-3.64-.85-4.93-1.4-1.76-.72-2.08-1.63-2.08-1.63a11 11 0 013.7.62c1.1.34 2.78.97 3.37 1.23-.22.01-.46.08-.67.21-.82-.32-1.2-.45-1.95-.66-.6-.17-1.03-.2-1.4-.23 0 0 .52.34 1.38.61.85.28 1.21.32 1.9.45zM9.56 24.7c.05.1.2.3.25.38a8.74 8.74 0 01-4.72-2.7c-.66-.91-.47-2.27-.47-2.27.63.13 2.02 1.33 2.38 1.69.36.36 1.44 1.42 2.2 2l.23.7c-.64-.53-1.4-1.1-1.88-1.47a5.67 5.67 0 00-1.46-.85s.5.65.9.97c.47.38.95.7 1.34.91.35.2.52.3 1.23.64z" clip-rule="evenodd"/>
  <path fill="#fff" fill-rule="evenodd" d="M15.01 30.14l.16-.15c.08.11.38.49.53.86.11.32.23.75.3 1 .05.25.22.76.33.94 0 0-.47.06-.82-.35a2.2 2.2 0 01-.51-1.22c-.04-.32-.03-.77.01-1.08zM14.27 30.2c.09.12.17.16.18.17l.07.03.06-.02a.93.93 0 00.16-.07c.07.2.1.29.12.45.02.22.06.56-.02.83-.1.34-.3.55-.41.68 0 0-.31-.34-.4-.62-.09-.3-.12-.64 0-.99.05-.19.15-.36.24-.46zM13.2 30.23c.32-.04.56-.16.74-.29.04.11.1.26.06.48-.05.2-.2.44-.4.61-.32.26-.75.5-1.22.43 0 0-.1-.36.83-1.23zM12.85 29.64c.04.31.2.51.2.53-.1.13-.5.81-1.33.7 0 0-.23-.47.33-.84.37-.25.55-.3.8-.39zM12.92 29.06c-.22.05-.5.07-.85 0l-.1-.03-.03-.1c-.42.35-.93.41-1.1.73 0 0 .21.39.76.32.55-.06.97-.32 1.26-.7l.06-.22zM11.97 28.57c.08-.12.13-.3.3-.48-.37-.07-.7-.07-1.12.01-.51.1-1.03.22-1.29 1 0 0 .33.27.92.15.5-.1.94-.32 1.2-.68zM11.76 27.73a1.28 1.28 0 01-.33-.45l-.05-.1c-.44-.17-.9-.27-1.35-.1-.45.17-.56.36-.68.53 0 0 .5.42 1.07.43.58.02 1.1-.14 1.34-.31zM11.89 26.82l.25-.08c-.19-.17-.38-.43-.47-.83-.2.05-.69.05-.9-.03a1.15 1.15 0 00-.95.13s.1.57.84.77c.7.18.95.13 1.23.04zM11.62 25.7l.1-.06c.01 0 .18-.1.46-.13-.24-.18-.8-.65-1.2-.88a5.81 5.81 0 00-1.52-.61s.34.9.74 1.27c.42.38.7.52 1.42.41zM12.37 25.29a2.64 2.64 0 01-.42-.92c-.08-.3-.27-1.06-.39-1.25-.1-.2-.52-.88-1.3-1.1 0 0-.22.9.18 1.6.34.6 1.05 1.25 1.93 1.67zM16.77 29.43c.1.1.18.15.35.24 0 0 .26.49-.05 1.07-.3.59-.57 1.19-.69 1.52 0 0-.16-.03-.35-.94-.12-.62-.28-.78-.44-1 .18.1.32.12.33.13l.12.02.06-.11a1.25 1.25 0 00.13-.74.6.6 0 00.5-.21l.01-.02.03.04z" clip-rule="evenodd"/>
  <path fill="#fff" fill-rule="evenodd" d="M10.03 22.4v.28l.01.22-1.56-2a4.2 4.2 0 00-1.02-.95c.28.85.8 1.52 1.17 1.86.37.34.9.9 1.42 1.25l.05.17c.04.16.1.32.2.47.11.22.27.43.46.63a8.77 8.77 0 00-.5-.23l-.16-.06a9.42 9.42 0 01-3.42-3.44c-.57-1.1-.33-2.36-.18-3.04a14.4 14.4 0 011.99 2.22c.5.73 1.14 1.76 1.54 2.6v.02zM30.07 27.07l-.32-.15c.87-.26 2.07-.69 3.87-.8a9.8 9.8 0 012.77.11s-1.2.85-2.58 1.15c-1.38.3-2.5.11-3.31.12a1.42 1.42 0 00-.21-.26c.95 0 2.54-.24 3.11-.43 0 0-1.38-.3-3.33.26zM30.07 26.04c0 .03-.1.52-.67.8 1.22-.54 3.63-.85 4.93-1.4 1.75-.72 2.07-1.63 2.07-1.63a11 11 0 00-3.69.62c-1.1.34-2.79.97-3.38 1.23.22.01.47.08.67.21.82-.32 1.2-.45 1.95-.66.6-.17 1.03-.2 1.4-.23 0 0-.52.34-1.37.61-.85.28-1.22.32-1.9.45zM30.17 24.7c-.05.1-.2.3-.25.38a8.74 8.74 0 004.72-2.7c.66-.91.47-2.27.47-2.27-.64.13-2.03 1.33-2.39 1.69-.36.36-1.44 1.42-2.2 2l-.23.7c.65-.53 1.41-1.1 1.89-1.47.36-.27.91-.67 1.46-.85 0 0-.5.65-.91.97-.47.38-.94.7-1.34.91-.34.2-.52.3-1.22.64zM29.7 22.4v.28l-.02.22c.47-.6 1.03-1.33 1.57-2 .36-.45.67-.73 1.02-.95-.3.85-.81 1.52-1.18 1.86-.37.34-.9.9-1.42 1.25l-.05.17c-.04.16-.1.32-.19.47a3.4 3.4 0 01-.47.63l.5-.23.16-.06a9.4 9.4 0 003.42-3.44c.57-1.1.34-2.36.19-3.04-.65.55-1.59 1.63-2 2.22-.5.73-1.14 1.76-1.53 2.6v.02zM11.85 31.05c-.59.6-1.83 1.92-1.71 3.36 0 0 1.15-.36 1.63-1.21.47-.85.77-1.38.97-1.57a1.3 1.3 0 01-.39 0l-.1-.02c-.3.53-.87 1.4-1.4 1.71 0 0-.13-.7 1.4-2.14l.1-.2c-.14.05-.3.08-.48.07M27.66 23.1c-.29.64-.77 1.3-2.08 2.2-.3.2-.62.63-.37 1.22.24.58.7 1.42.43 1.75-.28.32-1.26.5-2.07.17 0 0-.17.5-.46.83 0 0 .14.28.6.14 0 0-.17.42.06.87 0 0 .54-.1.77-.59 0 0 .22.39.65.53 0 0 .36-.19.28-.9 0 0 .26.64 1.07.74 0 0 .46-.59-.14-1.38 0 0 .43.4 1.22.2 0 0 .12-.4-.6-.95 0 0 .81-.04 1.12-.72 0 0-.34-.42-1.17-.32 0 0 .77-.17.94-1.1 0 0-.55-.36-1.43.21 0 0 .15-.3.52-.59s.82-1.11.66-2.32zM24.43 32.44c.12-.16.2-.32.27-.46-.14 1.12-.19 1.88-.8 2.61 0 0-.36-.49-.12-1.67.1-.03.21-.08.32-.16 0 0-.13.49-.05.97 0 0 .22-.16.38-1.3zM25.48 32.32c.07-.1.22-.29.29-.42.05.65.22 2.37-.36 2.91 0 0-.39-.29-.53-2.8.08.14.23.29.3.37 0 0-.1.8.2 1.36 0 0 .28-.22.1-1.42zM26.85 33.64c-.48-.58-.63-2.33-.63-2.33a2.48 2.48 0 01-.28-.21v.2c.06 1.04.15 2.12.47 2.66.32.52.9.8.9.8.56-.99-.1-2.3-.66-3.22a1.94 1.94 0 01-.21-.1c.2.7.57 1.55.41 2.2zM28.22 30.62a.73.73 0 01-.06.32c.46.45.8.89 1.49 1.84.68.95 1.76.99 1.76.99a3.51 3.51 0 00-.89-2.04 12.03 12.03 0 00-1.87-1.65 1.03 1.03 0 01-.6.06c.07.1.11.2.14.29.41.23 1.61.84 2.1 1.82 0 0-.76-.24-2.07-1.63zM29.08 29.66l-.05-.09a.65.65 0 00-.05-.07c.45.17 2.04.77 2.55 1.04.51.27 1.25.87 1.65 2.1 0 0-1.06.1-1.95-.63-.88-.74-1.91-1.76-2.35-2.09a.92.92 0 00.1-.11s1.2 1.06 2.46 1.52c0 0-.27-.5-.77-.85-.6-.43-1.06-.58-1.6-.82zM29.98 28.93a1.23 1.23 0 00-.05-.12c.52.1 1.83.26 2.42.44a3.7 3.7 0 012.26 1.81s-.92.28-2.65-.53c-1.74-.82-2.28-1-2.61-1.08.26-.02.45-.11.54-.17.7.3 1.62.67 2.54.7 0 0-.45-.32-.93-.53-.52-.21-1.08-.4-1.52-.52zM29.94 28.07c-.17.07-.3.11-.52.14.12.08.23.18.34.31.61.18 1.65.37 3.37.5 1.73.12 2.64-.2 2.64-.2a7.71 7.71 0 00-2.2-.86c-.65-.13-2.35-.11-3.1-.22 0 .01-.09.08-.24.17.63.06 1.97.12 2.65.47 0 0-1.27.17-2.94-.31z" clip-rule="evenodd"/>
  <path fill="#fff" fill-rule="evenodd" d="M24.7 30.14a3.3 3.3 0 01-.14-.15c-.1.11-.4.49-.54.86-.1.32-.23.75-.29 1a5 5 0 01-.34.94s.47.06.82-.35c.34-.4.46-.8.52-1.22a4.6 4.6 0 00-.02-1.08zM25.45 30.2c-.09.12-.17.16-.18.17l-.06.03-.07-.02a1.07 1.07 0 01-.16-.07c-.07.2-.1.29-.11.45-.03.22-.07.56.01.83.1.34.3.55.41.68 0 0 .31-.34.4-.62.1-.3.13-.64.01-.99a1.43 1.43 0 00-.25-.46zM26.52 30.23a1.57 1.57 0 01-.74-.29c-.04.11-.1.26-.06.48.05.2.2.44.41.61.32.26.74.5 1.21.43 0 0 .11-.36-.82-1.23zM26.87 29.64c-.04.31-.19.51-.2.53.11.13.5.81 1.34.7 0 0 .22-.47-.33-.84-.38-.25-.55-.3-.81-.39zM26.8 29.06c.22.05.5.07.86 0l.1-.03.02-.1c.43.35.93.41 1.1.73 0 0-.2.39-.76.32a1.84 1.84 0 01-1.26-.7 1.48 1.48 0 00-.06-.22zM27.75 28.57c-.08-.12-.13-.3-.3-.48.37-.07.7-.07 1.13.01.5.1 1.02.22 1.28 1 0 0-.32.27-.92.15-.5-.1-.94-.32-1.19-.68zM27.97 27.73c.13-.12.24-.26.33-.45l.04-.1c.44-.17.9-.27 1.35-.1.45.17.57.36.68.53 0 0-.5.42-1.07.43-.57.02-1.1-.14-1.33-.31zM27.84 26.82a1.67 1.67 0 00-.26-.08c.2-.17.39-.43.48-.83.2.05.68.05.9-.03.2-.08.62-.08.95.13 0 0-.1.57-.85.77-.69.18-.94.13-1.22.04zM28.1 25.7l-.1-.06c-.01 0-.18-.1-.46-.13.24-.18.8-.65 1.2-.88a5.76 5.76 0 011.53-.61s-.35.9-.75 1.27c-.41.38-.7.52-1.42.41zM27.36 25.29c.17-.23.31-.55.41-.92.09-.3.28-1.06.4-1.25.1-.2.51-.88 1.3-1.1 0 0 .21.9-.18 1.6a4.47 4.47 0 01-1.93 1.67zM22.95 29.43c-.1.1-.17.15-.35.24 0 0-.25.49.05 1.07.31.59.57 1.19.7 1.52 0 0 .16-.03.34-.94.13-.62.28-.78.45-1-.18.1-.33.12-.34.13l-.12.02-.06-.11a1.23 1.23 0 01-.13-.74.59.59 0 01-.5-.21v-.02l-.04.04z" clip-rule="evenodd"/>
  <path fill="#fff" fill-rule="evenodd" d="M27.87 31.05c.59.6 1.83 1.92 1.71 3.36 0 0-1.15-.36-1.62-1.21-.48-.85-.77-1.38-.97-1.57h.38l.1-.02c.3.53.88 1.4 1.4 1.71 0 0 .13-.7-1.4-2.14a1.34 1.34 0 00-.1-.2c.14.05.3.08.48.07M18.96 19.58c0-.1.4-.2.9-.2s.9.1.9.2-.4.2-.9.2-.9-.1-.9-.2zM20.04 20a.18.18 0 11-.35 0c0-.1.07-.17.17-.17s.18.08.18.18zM18.9 19.4c-.3-.72-.5-1.25-.5-1.43 0-.1.14-.18.26-.22.11-.04.22-.05.3.01.16.13.3 1.1.36 1.5-.16.02-.25.04-.42.13zM19.44 19.24l.24-.02c-.05-.38-.18-1.02-.26-1.27-.08-.26-.18-.44-.34-.48 0 0 .12.35.2.71.06.37.12.71.16 1.06zM18.5 20.52c.33-.08.66-.43.66-.43-.53.08-.66.43-.66.43zm.49-.03c-.46.27-.98.23-.98.23.1-.19.2-.36.48-.56.3-.2.76-.26.95-.23a1.2 1.2 0 01-.45.56zM17.27 21.25v-.04c-.45.06-.99.04-.99.04.03.17.1.3.22.37.03-.37.77-.37.77-.37zm-1.5-.49s.57.22 1.14.19 1.63-.04 1.97-.2c0 0-.05.2-.33.33 0 0 .15 0 .29.13 0 0-.09.17-.33.27 0 0 .44.45.9.42 0 0-.2.27-.69.17-.48-.1-.63-.38-.71-.48 0 0 .06.26.03.36 0 0-.2-.01-.37-.22 0 0 .12.2.14.38 0 0-.13.02-.37-.12 0 0 .05.13.06.27 0 0-.55-.17-.82-.43l.01.28s-.86-.09-.92-1.35zM15.63 20.85c.02.27.1.54.19.73 0 0-.34-.25-.42-.47-.09-.21-.1-.36.23-.26zM14.96 21.88a.14.14 0 100-.28.14.14 0 00-.14.14c0 .08.06.14.14.14zm.82-.16c.23.1.43.35.43.35-.34.08-.5.17-.5.17-.65-.46-1.19 0-1.19 0-.36-.2-.42-.69-.25-.95.18-.26.58-.21.77-.17.12.38.54.5.74.6zM16.28 22.15s.24.32.42.46c0 0-.88 0-1.1.76 0 0-.31-.47-.09-.78.24-.32.46-.36.77-.44z" clip-rule="evenodd"/>
  <path fill="#fff" fill-rule="evenodd" d="M17.25 22.34l.38.11v-.24l.28.05s.29.64.51.9c0 0 .01.14-.11.35 0 0-.16-.37-.45-.68a3.38 3.38 0 00-.6-.49zM16.5 22.2c.1.03.55.17.77.33.28.2.47.43.44.82 0 0-.23-.31-.47-.45-.2-.11-.55-.42-.74-.7zM16.5 19.33c.1 0 .26.04.26.17 0 .14-.21.47-.27.61-.06-.14-.27-.47-.27-.6 0-.14.16-.18.24-.18h.05zM16.32 20.38c-.03-.19-.11-.68-.23-.8-.1-.1-.27-.1-.35-.1a.15.15 0 00-.14.2c.03.11.4.66.45.73l.27-.03zM16.65 20.38c.04-.19.11-.68.23-.8.11-.1.28-.1.36-.1.08 0 .17.09.14.2-.04.11-.4.66-.45.73l-.28-.03zM16.88 18.66h-.28v-.31h-.23v.31h-.29v.2h.29v.37h.23v-.37h.28v-.2zM13.43 20.7c0-.06 0-.12.02-.18a1.4 1.4 0 000-.4c-.2.08-.34.13-.62.59 0 0 .45-.28.6-.01zM13.83 21.42c0-.11.08-.47.17-.72.12-.31.05-.76-.1-1.04-.12-.26-.2-.5-.17-.78 0 0-.27.09-.42.18-.03.32.16.64.24.82.1.21.09.49.06.66-.04.29.02.6.22.88zM13.86 19a.35.35 0 010-.18s.43-.4.78-.47c.22-.05.36.05.42.1 0 0-.12-.01-.3.14-.2.16-.43.34-.6.39-.18.04-.22.03-.3.02zM15.1 18.48c.16.16.29.33.29.48 0 .15-.18.52-.27.67-.1.14-.23.33-.21.56 0 .11.09.23.18.33 0 0-.51-.13-.58-.44-.05-.29.07-.49.15-.65.08-.14.31-.49.38-.63.05-.13.08-.24.06-.32zM18.1 22.07c.1.37.28.7.45.98.15.24.25.64.24.78 0 0 .23-.52.11-.88-.1-.28-.34-.7-.8-.88zM18.68 22.19s.35 0 .52.12c.2.14.4.44.49.81 0 0-.36-.06-.53-.24-.18-.17-.4-.44-.48-.69zM16.86 22.83c-.07 0-.25.05-.34.07 0 0 .3.1.45.22.13.1.24.26.29.54.07.38.3.8.36.92h.03c-.04-.27.12-.82.17-.9 0 0-.24-.14-.35-.3-.08-.12-.22-.3-.61-.55zM18.42 23.66c.08.2.32.56.2.93-.1.37-.34.53-.5.85 0 0-.11-.57-.09-1.01.03-.44.19-.61.39-.77zM19.1 23.67s.34.68.4.95c.07.26.01.44-.1.6-.13.16-.33.33-.51.67 0 0-.22-.29-.25-.44-.02-.14.02-.5.07-.65.04-.15.23-.64.38-1.13zM19.27 25.85c-.07.08-.48.57-.54.72-.05.14-.15.41-.02.6.13.2.42.5.67.62 0 0-.27-.43-.24-.79.01-.22.19-.43.22-.57a.99.99 0 00-.09-.58zM18.47 25.57c.06.1.17.3.19.51.01.2-.02.37-.13.67-.14.38-.36.8-.46.98 0 0-.2-.27-.3-.52 0 0 .3-.41.43-.7.15-.35.21-.66.27-.94zM18.33 25.41s-.13.98-.7 1.7c-.38.48-.7.65-.9.65-.32 0-.63-.26-.73-.56-.11-.3-.08-.76.13-.92 0 0 .18.58.58.6.46.03 1.04-.48 1.62-1.46z" clip-rule="evenodd"/>
  <path fill="#fff" fill-rule="evenodd" d="M17.86 25c.05.18.07.45 0 .7a.95.95 0 01-.38.58c-.2.12-.65.15-.82-.28 0 0 .83.06 1.2-1zM19.22 28.92c.11.3.52.66.52.9 0 .6-.27.96-.33 1.16 0 0-.49-.38-.57-.82-.05-.23 0-.9.38-1.24zM18.68 29.35c.06-.16.24-.59.44-.73 0 0 .26-.78-.58-1.25 0 0-.35.46-.44.9-.1.43.37.69.58 1.08zM17.63 27.4c-.14.16-.33.39-.48.46 0 0-.05.34-.02.57.04.34.26.7.35.95 0 0 .37-.49.42-.77.04-.28.03-.52.05-.65 0 0-.21-.34-.32-.57zM16.65 29.05c-.1-.16-.44-.74-.44-1.17 0 0 .41.22.76.06 0 0 .05.55-.02.74a.75.75 0 01-.3.37zM16.75 29.17c.07-.06.23-.21.3-.3 0 0 .28.51.33.66 0 0-.14.04-.3-.07a2.26 2.26 0 01-.33-.29zM18.03 28.87c-.04.13-.48.75-.56.83a2.44 2.44 0 00.72 1.21s.28-.48.36-.69a.9.9 0 00.04-.57c-.1-.21-.42-.51-.56-.78zM18.7 30.5c.1.2.4.53.44.79.04.2 0 .37-.05.51-.06.14-.23.41-.35.62 0 0-.41-.39-.5-.66a.97.97 0 01.06-.69c.1-.18.3-.38.4-.57zM17.55 30.44c.1.24.35.47.41.67.07.24.09.39-.02.67-.1.24-.23.38-.27.53 0 0-.33-.43-.39-.6a1.2 1.2 0 010-.66c.06-.2.18-.43.27-.6zM19.18 32.08s-.57.69-.56 1.06c.02.45.32.75.36 1.03 0 0 .3-.33.41-.56.13-.26.23-.47.2-.76-.04-.3-.12-.48-.41-.77zM18.13 32.01c.09.13.34.59.27.85-.07.27-.35.65-.45.81 0 0-.22-.46-.27-.67-.05-.22 0-.56.45-.99zM19.87 18.84c.04-.26.34-.82.34-1.06a.34.34 0 10-.7 0c0 .24.3.8.35 1.06zM20.83 19.4c.3-.72.5-1.25.49-1.43 0-.1-.13-.18-.25-.22-.12-.04-.23-.05-.3.01-.16.13-.3 1.1-.36 1.5.15.02.24.04.42.13zM20.28 19.24l-.23-.02c.05-.38.18-1.02.26-1.27.07-.26.17-.44.34-.48 0 0-.13.35-.2.71-.07.37-.12.71-.17 1.06zM20.56 20.09s.34.35.67.43c0 0-.14-.35-.67-.43zm-.28-.16c.2-.03.66.02.95.23.29.2.38.37.48.56 0 0-.52.04-.98-.23-.21-.13-.4-.43-.45-.56zM23.22 21.62c.12-.08.2-.2.22-.37 0 0-.53.02-.99-.04v.04s.75 0 .77.37zm-.19.49c.02-.1.01-.28.01-.28-.27.26-.82.43-.82.43.01-.14.06-.27.06-.27-.24.14-.37.12-.37.12.03-.17.15-.38.15-.38-.17.2-.38.22-.38.22-.03-.1.04-.36.04-.36-.09.1-.24.37-.72.48-.48.1-.7-.17-.7-.17.48.03.91-.42.91-.42-.24-.1-.32-.27-.32-.27.14-.13.28-.13.28-.13-.27-.12-.33-.34-.33-.34.34.17 1.4.18 1.97.21.58.03 1.15-.19 1.15-.19-.07 1.26-.93 1.35-.93 1.35zM24.09 20.85c-.02.27-.1.54-.19.73 0 0 .34-.25.42-.47.09-.21.1-.36-.23-.26zM24.9 21.74a.14.14 0 00-.28 0c0 .08.07.14.15.14.07 0 .14-.06.14-.14zm-.22-.62c.2-.04.6-.09.77.17.18.26.1.76-.25.96 0 0-.54-.47-1.2 0 0 0-.15-.1-.49-.18 0 0 .2-.25.43-.35.2-.1.62-.22.74-.6zM23.44 22.15s-.24.32-.41.46c0 0 .88 0 1.1.76 0 0 .3-.47.08-.78-.24-.32-.46-.36-.77-.44z" clip-rule="evenodd"/>
  <path fill="#fff" fill-rule="evenodd" d="M22.47 22.34l-.38.11v-.24l-.28.05s-.29.64-.5.9c0 0-.02.14.1.35 0 0 .17-.37.45-.68.17-.16.27-.25.61-.49zM23.22 22.2c-.09.03-.55.17-.77.33-.27.2-.46.43-.43.82 0 0 .22-.31.47-.45.2-.11.54-.42.73-.7zM23.21 19.33c-.08 0-.24.04-.24.17 0 .14.2.47.26.61.07-.14.28-.47.28-.6 0-.14-.17-.18-.25-.18h-.05zM23.4 20.38c.04-.19.11-.68.23-.8.11-.1.28-.1.36-.1.08 0 .17.09.13.2-.03.11-.4.66-.44.73l-.28-.03zM23.07 20.38c-.04-.19-.11-.68-.23-.8-.11-.1-.27-.1-.36-.1a.15.15 0 00-.13.2c.03.11.4.66.45.73l.27-.03zM22.84 18.66h.29v-.31h.22v.31h.29v.2h-.29v.37h-.22v-.37h-.29v-.2zM19.46 16.79h.28v-.32h.24v.32h.28v.2h-.28v.37h-.24v-.37h-.28v-.2zM26.3 20.7l-.02-.18a1.46 1.46 0 01-.01-.4c.2.08.34.13.63.59 0 0-.45-.28-.6-.01z" clip-rule="evenodd"/>
  <path fill="#fff" fill-rule="evenodd" d="M25.9 21.42c-.01-.11-.08-.47-.18-.72-.11-.31-.05-.76.1-1.04.13-.26.2-.5.18-.78 0 0 .26.09.42.18.02.32-.16.64-.25.82-.1.21-.08.49-.06.66.04.29-.02.6-.21.88zM25.87 19l-.01-.18s-.42-.4-.77-.47a.48.48 0 00-.43.1s.12-.01.31.14a2 2 0 00.6.39c.18.04.21.03.3.02zM24.62 18.48c-.15.16-.29.33-.28.48 0 .15.17.52.26.67.1.14.23.33.21.56 0 .11-.08.23-.18.33 0 0 .52-.13.58-.44.06-.29-.06-.49-.15-.65-.07-.14-.31-.49-.37-.63-.06-.13-.09-.24-.07-.32zM21.62 22.07c-.1.37-.27.7-.45.98-.15.24-.25.64-.23.78 0 0-.24-.52-.12-.88.1-.28.34-.7.8-.88zM21.04 22.19s-.35 0-.51.12c-.22.14-.42.44-.5.81 0 0 .36-.06.54-.24.18-.17.4-.44.47-.69zM22.87 22.83c.07 0 .25.05.33.07 0 0-.3.1-.44.22a.86.86 0 00-.3.54c-.07.38-.3.8-.36.92h-.03c.04-.27-.12-.82-.16-.9 0 0 .24-.14.34-.3.08-.12.23-.3.62-.55zM21.3 23.66c-.08.2-.31.56-.2.93.1.37.35.53.5.85 0 0 .12-.57.09-1.01-.03-.44-.19-.61-.38-.77zM19.87 24.7c.01-.22.52-.74.5-1.03-.03-.29-.41-.49-.5-.53h-.01c-.1.04-.47.24-.5.53-.03.29.48.81.5 1.03zM20.63 23.67s-.35.68-.41.95c-.07.26 0 .44.11.6.12.16.32.33.5.67 0 0 .22-.29.25-.44.03-.14-.02-.5-.06-.65-.05-.15-.24-.64-.39-1.13zM19.87 26.3c.15-.13.3-.34.34-.46.05-.12.06-.3-.05-.44-.12-.16-.28-.34-.3-.49-.01.15-.17.33-.3.5-.1.13-.1.3-.05.43.04.12.19.33.35.47zM20.45 25.85c.08.08.49.57.54.72.06.14.15.41.02.6-.12.2-.41.5-.67.62 0 0 .28-.43.25-.79-.02-.22-.2-.43-.23-.57-.03-.13 0-.37.1-.58zM21.25 25.57c-.06.1-.17.3-.19.51-.01.2.02.37.13.67.14.38.36.8.46.98 0 0 .2-.27.3-.52 0 0-.3-.41-.43-.7-.15-.35-.2-.66-.27-.94zM21.4 25.41s.12.98.69 1.7c.39.48.7.65.9.65.32 0 .63-.26.74-.56.1-.3.07-.76-.13-.92 0 0-.19.58-.6.6-.44.03-1.03-.48-1.6-1.46z" clip-rule="evenodd"/>
  <path fill="#fff" fill-rule="evenodd" d="M21.86 25c-.05.18-.06.45 0 .7.05.2.16.44.38.58.2.12.65.15.82-.28 0 0-.82.06-1.2-1zM19.86 27.9c.12-.07.22-.1.35-.31.1-.17.2-.47.15-.68-.07-.26-.21-.37-.3-.53-.07.06-.1.11-.2.16-.09-.05-.13-.1-.2-.16-.09.16-.23.27-.3.53-.05.21.05.51.15.68.13.2.23.24.35.3zM19.86 29.53c.06-.26.6-.76.54-1.03-.07-.4-.33-.32-.53-.49-.22.17-.48.09-.55.5-.05.26.48.76.54 1.02zM20.5 28.92c-.11.3-.52.66-.51.9 0 .6.27.96.33 1.16 0 0 .48-.38.57-.82.04-.23-.01-.9-.39-1.24zM21.04 29.35c-.05-.16-.23-.59-.44-.73 0 0-.26-.78.58-1.25 0 0 .35.46.44.9.1.43-.36.69-.58 1.08zM22.1 27.4c.13.16.32.39.47.46 0 0 .05.34.02.57-.04.34-.26.7-.35.95 0 0-.37-.49-.41-.77-.05-.28-.04-.52-.05-.65l.32-.57zM23.07 29.05c.1-.16.44-.74.45-1.17 0 0-.42.22-.77.06 0 0-.04.55.02.74.06.15.13.24.3.37zM22.97 29.17a3.57 3.57 0 01-.3-.3s-.28.51-.32.66c0 0 .14.04.29-.07.15-.11.18-.14.33-.29zM21.7 28.87c.03.13.47.75.55.83 0 0-.04.22-.2.55-.16.32-.4.55-.52.66 0 0-.27-.48-.35-.69-.1-.24-.09-.48-.04-.57.09-.21.41-.51.55-.78zM19.87 32.55c.04-.17.3-.37.4-.67a.7.7 0 000-.52c-.09-.16-.38-.56-.4-.67-.04.11-.33.51-.41.67a.7.7 0 00-.01.52c.1.3.36.5.4.67h.02zM21.02 30.5c-.1.2-.39.53-.44.79-.03.2 0 .37.05.51.06.14.24.41.36.62 0 0 .4-.39.5-.66.06-.2.03-.5-.06-.69-.1-.18-.31-.38-.4-.57zM22.18 30.44c-.1.24-.36.47-.42.67a.86.86 0 00.03.67c.1.24.22.38.27.53 0 0 .33-.43.38-.6.06-.18.07-.48 0-.66-.06-.2-.18-.43-.26-.6zM19.86 35.85c.02-.21.46-.86.48-1.55 0-.35-.3-.89-.47-1.1h-.01c-.18.21-.48.75-.47 1.1.02.69.45 1.34.47 1.55zM20.55 32.08s.57.69.56 1.06c-.02.45-.33.75-.36 1.03 0 0-.3-.33-.42-.56-.13-.26-.22-.47-.19-.76.04-.3.11-.48.41-.77zM21.6 32.01c-.1.13-.35.59-.27.85.07.27.35.65.44.81 0 0 .23-.46.28-.67.05-.22 0-.56-.45-.99z" clip-rule="evenodd"/>
  <path fill="#fff" fill-rule="evenodd" d="M20.25 36.95c.03-.53.34-.85.4-1.13.05-.3.03-.6-.2-.95-.2.66-.4 1.14-.58 1.47v.03l-.02-.03a8.7 8.7 0 01-.57-1.47c-.24.35-.26.64-.2.95.06.28.36.6.4 1.13.03.54-.58.75-.58.75.2.07.44.1.8-.25a.76.76 0 00.16-.2c.04.07.1.14.16.2.36.35.6.32.8.25 0 0-.6-.2-.57-.75zM18.36 33.39c.06.2.25.57.27.68.05.22-.02.47-.4.75 0 0-.25-.18-.35-.41-.1-.22-.04-.37.06-.48.1-.11.32-.37.42-.54zM19.17 34.18a3 3 0 01-.25 1.02c-.24.42-.6.74-.91.74-.29 0-.35-.18-.5-.24 0 0 .08-.37.4-.47.4-.12 1.01-.6 1.26-1.05z" clip-rule="evenodd"/>
  <path fill="#fff" fill-rule="evenodd" d="M18.13 34.96c-.07-.06-.13-.09-.2-.18 0 0-.31.11-.56.28-.26.17-.5.46-.64.61 0 0 .38.1.62 0 0 0 .09-.37.36-.53.06-.04.25-.1.42-.18zM17.82 34.65c-.06-.1-.18-.26-.16-.53 0 0-.53.34-.69.47-.16.13-.49.47-.56.59 0 0 .4-.1.7-.2.35-.11.58-.26.7-.33zM16.92 35.22c-.29.1-.93.2-1.2.29-.27.08-.47.22-.73.5l.61.18s.34-.23.7-.37c.25-.1.36-.35.62-.6zM16.32 37.13c.06-.07.14-.15.08-.3-.05-.13-.28-.25-.42-.32-.23-.11-.87-.29-1.08-.35 0 0-.1.12-.16.25-.02.05 0 .1.1.12.18.03.6-.05.71.02.11.07.07.17.07.27 0 0 .2-.12.32-.1.17.04.28.13.38.4zM15.75 36.23c.04.02.3.1.54.25 0 0 .1-.04.16-.14.05-.1.27-.42.47-.46 0 0-.17-.02-.27-.05 0 0-.2.05-.36.11-.14.06-.33.15-.54.3zM17.4 35.82c-.04.02-.1.05-.26.06 0 0-.56.4-.62.78-.06.34.12.5.2.54.08.04.48.2.73-.33 0 0-.43.15-.55-.06-.12-.21.07-.52.2-.6.15-.12.43-.2.6-.17 0 0-.14-.13-.3-.22z" clip-rule="evenodd"/>
  <path fill="#fff" fill-rule="evenodd" d="M13.71 40.3c.07-.28.14-.58.28-.86.25-.54.87-1.98 2.18-2.23.12-.03-.15-.33-.26-.31-.12 0-.35.16-.45.23v-.36c0-.06-.06-.08-.1-.08-.06 0-.37 0-.47.12-.3.34-.8 1.27-1.08 1.96-.29.69-.48.9-.78.8-.3-.11-.48-.46-1-.35-.18.03-.38.15-.54.33.04.09.1.2.34.2.25 0 .71.1.97.28.26.18.54.24.91.28zM18.9 35.85c.04.22.14.43.26.64 0 0-.4 1.84-1.83 1.98 0 0 .03-.38.46-.67.42-.29 1.05-.74 1-1.42 0 0-.1.02-.3.28-.21.25-.66 1-1.35 1 0 0 .1-.35.4-.55.32-.2.7-.45.88-.76.18-.3.36-.45.49-.5zM18.23 42.53l.87 1.22.66-1.18-.23-.42-.46.83-.6-.83-.24.38z" clip-rule="evenodd"/>
  <path fill="#fff" fill-rule="evenodd" d="M18 41.5l-2-2.83.33-.24-1.04-.4.02 1.14.35-.25 2.1 2.95.25-.38zM10.84 34.78c.25-.28.69-.03 1.13.37.44.4.71.82.46 1.1-.24.26-.7.04-1.13-.36-.44-.4-.72-.82-.46-1.1z" clip-rule="evenodd"/>
  <path fill="#fff" fill-rule="evenodd" d="M11.55 39.77a1.14 1.14 0 01-.4-.9c-.01-.66.52-1.2 1.19-1.2.66 0 1.2.54 1.2 1.2l-.02.24.29-.65a1.53 1.53 0 00-2.85-.26c.1-.6.4-1.15.61-1.35.26-.24.69-.32.69-.32-.28.04-.66-.13-1.08-.52-.4-.36-.6-.69-.61-.95.02.37 0 .59-.1.9-.14.41-.54 1.19-.4 2.06.08.48.43 1.2 1 1.77.13.13.18.33.19.43 0 0 .85 0 1.06.02 0 0 .2-.02.2-.15s-.12-.16-.22-.16-.53.01-.75-.16zM16.27 40.06c-.55.2-1.1.3-1.62.39-.34.05-.67.07-.99.05a.3.3 0 01-.02.18s.06.07.06.15a8.52 8.52 0 002.77-.5l-.2-.27zM17.17 40.02a5.79 5.79 0 002.08-2l.11-.2c-.17.09-.4.03-.4.03a5.44 5.44 0 01-2 1.9l.2.27zM12.36 40.34c-.1-.02-.42-.01-.6.02-.22.03-.46.07-.48.19-.03.1.05.23.16.4.06.1.22.04.3 0 .1-.03.58-.3.66-.38.08-.09.12-.21-.04-.23zM12.87 40.66a.37.37 0 00-.32-.03c-.13.05-.62.33-.65.47-.03.14.03.2.11.23l.23.07c.12 0 .24-.06.3-.14.07-.08.3-.35.33-.41.03-.07.05-.16 0-.19zM12.93 40.96c-.08.08-.27.32-.3.36-.02.04.02.1.08.1.06-.01.4-.05.59-.18.19-.13.32-.38.18-.47-.13-.1-.33-.05-.55.2zM13.03 40.23c-.06-.01-.31-.08-.37 0-.07.11-.02.22.18.32.2.1.56.17.64.07.07-.1-.03-.28-.45-.39zM21.37 33.39c-.07.2-.25.57-.28.68-.04.22.02.47.4.75 0 0 .25-.18.35-.41.1-.22.04-.37-.05-.48-.1-.11-.33-.37-.42-.54zM20.55 34.18c0 .11.08.72.26 1.02.24.42.6.74.9.74.3 0 .35-.18.5-.24 0 0-.08-.37-.4-.47-.4-.12-1-.6-1.26-1.05z" clip-rule="evenodd"/>
  <path fill="#fff" fill-rule="evenodd" d="M21.6 34.96l.2-.18s.3.11.56.28c.25.17.5.46.63.61 0 0-.38.1-.62 0 0 0-.09-.37-.36-.53-.05-.04-.24-.1-.42-.18zM21.9 34.65c.07-.1.19-.26.16-.53 0 0 .53.34.69.47.16.13.5.47.57.59 0 0-.4-.1-.72-.2-.33-.11-.57-.26-.7-.33zM22.8 35.22c.3.1.93.2 1.2.29.28.08.47.22.73.5l-.6.18s-.34-.23-.71-.37c-.24-.1-.36-.35-.61-.6zM23.4 37.13c-.06-.07-.13-.15-.08-.3.05-.13.28-.25.42-.32.23-.11.87-.29 1.08-.35 0 0 .1.12.16.25.03.05 0 .1-.1.12-.18.03-.6-.05-.71.02-.11.07-.07.17-.07.27 0 0-.2-.12-.32-.1-.17.04-.28.13-.37.4zM23.98 36.23c-.05.02-.3.1-.54.25 0 0-.11-.04-.17-.14-.05-.1-.27-.42-.47-.46 0 0 .17-.02.27-.05a3.23 3.23 0 01.9.4zM22.32 35.82c.04.02.1.05.26.06 0 0 .56.4.62.78.06.34-.11.5-.2.54-.08.04-.48.2-.73-.33 0 0 .43.15.55-.06.12-.21-.07-.52-.19-.6a.93.93 0 00-.6-.17s.13-.13.3-.22z" clip-rule="evenodd"/>
  <path fill="#fff" fill-rule="evenodd" d="M26.01 40.3a4.35 4.35 0 00-.27-.86c-.26-.54-.88-1.98-2.18-2.23-.13-.03.14-.33.25-.31.12 0 .35.16.46.23v-.36c0-.06.05-.08.1-.08s.36 0 .46.12c.3.34.8 1.27 1.09 1.96.28.69.47.9.77.8.3-.11.48-.46 1-.35.19.03.39.15.55.33-.05.09-.1.2-.35.2a2 2 0 00-.97.28c-.26.18-.53.24-.9.28zM20.81 35.85c-.02.22-.13.43-.25.64 0 0 .4 1.84 1.83 1.98 0 0-.03-.38-.45-.67-.43-.29-1.06-.74-1.02-1.42 0 0 .12.02.32.28.2.25.65 1 1.34 1 0 0-.1-.35-.4-.55-.31-.2-.7-.45-.88-.76-.17-.3-.36-.45-.49-.5zM19.86 37.62c.09.25.63 1.02.87 1.24.24.21.81.8 1.12 1.08 0 0-.88-.21-1.37-.66 0 0-.36.2-.61.2h-.02c-.25 0-.6-.2-.6-.2-.5.45-1.38.66-1.38.66L19 38.86c.24-.22.79-1 .87-1.24z" clip-rule="evenodd"/>
  <path fill="#fff" fill-rule="evenodd" d="M19.87 39.66c.19 0 .37-.08.48-.12-.1.22-.3.56-.49.7a2.12 2.12 0 01-.49-.7c.1.04.29.12.48.12h.02z" clip-rule="evenodd"/>
  <path fill="#fff" fill-rule="evenodd" d="M20.62 43.75l3.44-4.83.35.25.02-1.14-1.04.4.33.24-3.07 4.31-1.55-2.83-.2.3-1.38 2.1-.35-.24v1.12l1.05-.42-.36-.23 1.2-1.81 1.56 2.78z" clip-rule="evenodd"/>
  <path fill="#fff" fill-rule="evenodd" d="M21.25 41.85l-.59-.88-.46.83-.25-.44.67-1.21.2.3.69 1.04-.26.36zM21.96 42.17l.25.38.34-.24v1.12l-1.05-.42.36-.23-.16-.25.26-.36zM28.89 34.78c-.26-.28-.7-.03-1.14.37-.44.4-.71.82-.46 1.1.24.26.7.04 1.14-.36.44-.4.71-.82.46-1.1z" clip-rule="evenodd"/>
  <path fill="#fff" fill-rule="evenodd" d="M28.18 39.77l.04-.03c.23-.2.37-.52.37-.87a1.2 1.2 0 00-2.4 0l.02.24c-.06-.1-.26-.57-.3-.65a1.53 1.53 0 012.85-.26c-.1-.6-.4-1.15-.6-1.35-.26-.24-.7-.32-.7-.32.29.04.66-.13 1.08-.52.4-.36.6-.69.62-.95a2 2 0 00.09.9c.14.41.54 1.19.4 2.06-.08.48-.42 1.2-1 1.77a.8.8 0 00-.19.43s-.85 0-1.05.02c0 0-.2-.02-.2-.15s.11-.16.21-.16c.1 0 .53.01.76-.16zM22.55 40.02a5.82 5.82 0 01-2.08-2l-.11-.2c.17.09.4.03.4.03l.05.09c.6.88 1.26 1.44 1.94 1.8l-.2.28zM23.45 40.06a8.49 8.49 0 002.6.44c0 .05 0 .12.03.18 0 0-.06.07-.06.15a8.5 8.5 0 01-2.77-.5l.2-.27zM27.36 40.34a3 3 0 01.61.02c.21.03.45.07.48.19.02.1-.06.23-.16.4-.07.1-.23.04-.31 0-.09-.03-.58-.3-.66-.38-.08-.09-.11-.21.04-.23zM26.85 40.66a.38.38 0 01.32-.03c.13.05.62.33.65.47.03.14-.03.2-.1.23a.98.98 0 01-.24.07.38.38 0 01-.3-.14 7.12 7.12 0 01-.33-.41c-.03-.07-.04-.16 0-.19zM26.8 40.96l.29.36c.02.04-.02.1-.08.1-.06-.01-.4-.05-.58-.18-.2-.13-.32-.38-.2-.47.14-.1.34-.05.57.2zM26.69 40.23c.06-.01.31-.08.37 0 .07.11.02.22-.18.32-.2.1-.56.17-.64.07-.07-.1.03-.28.45-.39z" clip-rule="evenodd"/>
  <g fill-rule="evenodd" clip-rule="evenodd">
    <path fill="#CC003D" d="M42.28 50.07H82V10.22H42.28v39.85z"/>
    <path fill="#fff" d="M74.28 22.86l.03-1.58h.3c1.17 0 1.36.2 1.47 1.58h-1.8zm3.3-.69c-.18-1.54-.9-2.34-2.6-2.34H72.8l-.3 8.7h1.58l.16-4.23h1.99l.32 4.22h1.62l-.6-6.35zM55.15 34.8l.04-1.59.28-.02c1.16 0 1.38.23 1.48 1.6h-1.8zm3.3-.7c-.18-1.53-.9-2.33-2.6-2.33H53.7l-.3 8.69h1.58l.15-4.22h2l.31 4.22h1.63l-.6-6.35zM46.63 19.83v8.69h1.59v-7.24h1.97v7.24h1.6v-8.69h-5.16zM63.48 22.86h-.87c-.36 0-.62-.08-.8-.25a.6.6 0 01-.17-.46v-2.32h-1.6v2.48c0 .57.23 1.06.67 1.44.44.38.98.57 1.6.57h1.17v4.2h1.6v-8.69h-1.6v3.03zM66.84 19.83v1.45h1.32v7.24h1.61v-7.24h1.33v-1.45h-4.26zM64.5 31.77v2.77H62.3v-2.77h-1.59v8.69h1.6v-4.47h2.18v4.47h1.59v-8.7h-1.6zM48.76 39.11l-.54-.03V36.02s.13-.03.26-.03c.81 0 1.77-.05 1.77 1.56 0 1.47-1.05 1.56-1.49 1.56zm.2-4.5c-.28 0-.52 0-.74.02V33.2h2.86v-1.44h-4.45v8.69h2.42c2.4 0 2.78-2.15 2.78-2.95 0-.94-.37-2.9-2.87-2.9zM54.88 24.19c.01-2.35.59-3.13 1.2-3.14.61.01 1.2.79 1.2 3.14 0 2.3-.59 3.08-1.2 3.1-.61-.02-1.19-.8-1.2-3.1zm4-.32a6.3 6.3 0 00-.58-2.77c-.52-1.08-1.35-1.48-2.2-1.5h-.02-.01c-.86.02-1.7.42-2.21 1.5a6.3 6.3 0 00-.57 3.05c0 .77.08 1.52.25 2.13.44 1.78 1.45 2.41 2.5 2.43h.08c1.05-.02 2.06-.65 2.5-2.43.17-.6.25-1.36.25-2.13v-.28zM74.02 40.46l-1.91-5.1c.4-.3.7-.86.84-1.43.14-.55.31-2.16.31-2.16H71.7c0 .16-.04.71-.09 1.27-.07.83-.31 1.6-1.16 1.6h-.66v-2.87H68.2v8.69h1.6v-4.41h.96l1.56 4.4h1.71z"/>
  </g>
</svg>
