<svg xmlns="http://www.w3.org/2000/svg" fill="none" viewBox="0 0 204 60">
  <path fill="#ffec00" fill-rule="evenodd" d="M10 39.54a9.58 9.58 0 01-8.86-5.92 9.58 9.58 0 012.08-10.44 9.58 9.58 0 0110.44-2.07 9.58 9.58 0 015.91 8.85 9.56 9.56 0 01-.72 3.67 9.56 9.56 0 01-2.08 3.11 9.56 9.56 0 01-6.78 2.8z"/>
  <path fill="#1a1a18" d="M12.98 20.46a9.05 9.05 0 00-2.91-.46h-.08a10 10 0 000 20h.08a9.23 9.23 0 002.91-.54 9.97 9.97 0 005.04-3.6 9.96 9.96 0 001.93-5.9 9.97 9.97 0 00-6.97-9.5zm0 18.63a9.25 9.25 0 01-2.91.45h-.08a9.58 9.58 0 110-19.16h.08a9.06 9.06 0 012.91.53 9.56 9.56 0 016.6 9.1 9.57 9.57 0 01-1.83 5.6 9.56 9.56 0 01-4.77 3.48zm3.67-13.85a5.52 5.52 0 01.38 1.9c0 2.76-2.77 3.88-3.9 3.8H13c-.15 0-.23-.06-.23-.14 0-.22.08-.38.23-.38.04-.04.1-.06.15-.07.3 0 .38.07.67.07s.38-.22.53-.52a.91.91 0 00.21-.68c0-.6-.6-1.8-.9-2.91 0 .3 0 .96-.29.96a.42.42 0 01-.22-.05.41.41 0 01-.15-.17l-.45-.76a3.72 3.72 0 010 .9c0 .3-.07.52-.22.52s-.38-.23-.38-.76l.07-1.8a3.08 3.08 0 00-.52-1.75 3.08 3.08 0 00-1.43-1.16 3.5 3.5 0 00-.89-.15c-2.62 0-2.92 2.39-3.06 2.46s-.3-.44-1.14-.44c-.97 0-2.02 1.27-2.39 2.03a8.26 8.26 0 00-.97 3.88 8.35 8.35 0 002.47 5.89 8.35 8.35 0 005.91 2.42h.07c1 0 2-.2 2.92-.6a8.22 8.22 0 003.86-3.02A8.22 8.22 0 0018.3 30a8.37 8.37 0 00-1.57-4.85l-.08.08zm-6.58 4.35a4.36 4.36 0 01-.98-2.78c0-.52.16-.6.3-.6.3 0 .46.46.68 1.05a1.51 1.51 0 00.3.6l.6 1.35a2.88 2.88 0 00.07 1.13 12 12 0 01-.98-.75zm2.91 5.16a1.76 1.76 0 01-1.6-1.12 1.75 1.75 0 01-.12-.68 2.23 2.23 0 01.38-1.13c.38.52.9.9 1.34.52l.08-.08c.37-.37.07-.9-.08-1.04a1.76 1.76 0 011.8 1.72 1.82 1.82 0 01-1.8 1.81zm31.58 1.42l1.95-6.06 2.32-7.34H30.27L26 36.17h6.97l2.92-9.43h4.7l-2.98 9.43h6.96zm17.74-4.49c.15-.3.82-2.39-.22-3.73-.6-.83-1.72-1.35-3.75-1.35a6.4 6.4 0 00-3.96 1.2c-.31.2-.59.46-.83.75l.6-1.72h-5.76l-1.85 5.83L44.21 40h6.1l1.64-5.02c.3.45.82 1.14 2.4 1.35.32.06.65.09.97.07 4.2 0 6-2.47 6.74-4.04.1-.22.18-.44.24-.68zm-6.36 0c-.15.45-.53 1.51-1.58 1.8a1.41 1.41 0 01-.6.15c-1.5 0-1.13-1.42-.9-2.1.24-.53.53-1.57 1.52-1.87.23 0 .38-.08.6-.08 1.57 0 1.14 1.42.97 2.1h-.01zm102.9-4.86h-6.14l-1.05 3.3h-2.17l1.05-3.3h-6.21l-2.47 7.63-.52 1.72H147.54l1.04-3.37h2.17l-1.04 3.37h6.13l1.95-6.06 1.05-3.3zm17.66 0h-7.04l-4.79 3.74 2.55-7.86h-6.21l-3.22 10.19-1.05 3.28h6.14l1.5-4.56 2.02 4.56h7.26l-2.85-5.24 5.69-4.12zm-34.2 3.66c.07-.3.07-.52.15-.76a1.86 1.86 0 00-.07-.94 1.84 1.84 0 00-.53-.78c-.76-.82-2.47-1.42-6.14-1.42h-1.42a28.3 28.3 0 00-4.11.52l-.83 2.62a18.43 18.43 0 014.57-.75h.38c2.32.07 2.54.67 2.47 1.13a.27.27 0 01-.02.12.28.28 0 01-.06.1 19.72 19.72 0 00-2.32-.15h-.07c-4.64 0-6.59 1.51-7.41 2.85a4.42 4.42 0 00-.3.9 1.59 1.59 0 00-.02.74 1.58 1.58 0 00.32.68c.6.66 1.94 1.04 3.6 1.04a7.94 7.94 0 003.8-.9l.9-.67-.44 1.35h5.76l1.35-4.42.44-1.26zm-6.2 1.89a2.68 2.68 0 01-.91 1.2 4.45 4.45 0 01-.9.37 2.15 2.15 0 01-.67.08c-.82 0-1.27-.22-1.2-.67v-.23a1.58 1.58 0 01.49-.6c.2-.15.45-.26.71-.3.22 0 .38-.07.67-.07a5.95 5.95 0 011.28-.08h.6l-.08.3zm-8.92-1.51a2.9 2.9 0 00-.3-2.18c-.6-1.13-2.24-2.02-5.6-2.02-.66 0-1.31.06-1.96.15-.97.23-1.71.67-2.77 1.43.15-1.05 1.28-1.95 2.25-2.32.15-.1.33-.15.52-.16a21.85 21.85 0 012.85-.52 13.64 13.64 0 002.61-.45l.08-.15 1.5-4.64c-.22 0-.45.08-.66.08l-3.22.45a16 16 0 00-3.15.82c-.15 0-.22.08-.38.08a11.59 11.59 0 00-3.36 2.32 17.15 17.15 0 00-2.85 4.64 13.56 13.56 0 00-1.27 3.74c-.08.15-1.28 4.26 6.2 4.26a11.88 11.88 0 001.65-.07c5.09-.38 6.89-2.85 7.56-4.57.13-.28.24-.58.3-.9zm-6.6.52c-.23.68-.53 1.8-1.28 2.17a1.22 1.22 0 01-.75.15c-1.2 0-.9-1.27-.53-2.4a2.77 2.77 0 011.27-1.79 1.41 1.41 0 01.6-.15c1.3 0 1 1.12.69 2.02zM106.9 26.6a6.48 6.48 0 00-3.94 1.18c-.3.24-.57.5-.82.76l.6-1.72h-5.8l-2.91 9.28-1.27 3.9h6.2l1.6-5.02c.3.45.9 1.13 2.39 1.35.34.06.7.09 1.04.07 4.87 0 6.59-3.44 6.96-4.71.36-1.34 1.26-5.09-4.05-5.09zm-2.4 5.1c-.14.52-.52 1.56-1.56 1.78a1.47 1.47 0 01-.6.16c-1.52 0-1.14-1.42-.9-2.1.14-.53.6-1.52 1.5-1.8a2.11 2.11 0 01.68-.15c1.49 0 1.11 1.42.88 2.1zm-10.47 1.49c.51-.67.9-1.43 1.13-2.25a2.81 2.81 0 00-1.13-3.22c-.98-.67-2.7-1.13-5.46-1.13a10.47 10.47 0 00-1.58.07c-5.16.38-6.95 2.55-7.63 3.9a4.56 4.56 0 01-.22.75c-.15.6-.53 2.02.22 3.14.76 1.05 2.4 1.95 6.05 1.95a11.47 11.47 0 001.57-.07c3.91-.3 5.92-1.72 7.05-3.14zm-5.62-1.9c-.22.68-.52 1.8-1.42 2.25a2.13 2.13 0 01-.75.15c-1.42 0-.83-1.56-.52-2.4a2.67 2.67 0 01.43-1.07 2.68 2.68 0 01.84-.8 2.17 2.17 0 01.67-.14c1.35.02.98 1.29.75 2.03v-.01zm-8.52-4.47H72.4L68 32.35 70 26.81h-5.54l-2.4 7.49-.59 1.87h7.33l4.65-5.69-2.1 5.7h5.53l2.47-7.87.53-1.5z"/>
</svg>
