<svg xmlns="http://www.w3.org/2000/svg" fill="none" viewBox="0 0 204 60">
  <path fill="#2A4594" fill-rule="evenodd" d="M26.65 24.24a6.43 6.43 0 00-6.49-6.44H11a6.48 6.48 0 00-6.24 4.71h11.07c4.26 0 6.07 1.97 6.07 6.6v10.45a6.47 6.47 0 004.75-6.2v-9.12z" clip-rule="evenodd"/>
  <path fill="#E15D29" fill-rule="evenodd" d="M0 37.83a6.43 6.43 0 006.48 6.45h9.16c2.91 0 5.46-1.93 6.24-4.72H10.81c-4.26 0-6.06-1.97-6.06-6.6V22.51A6.47 6.47 0 000 28.72v9.11z" clip-rule="evenodd"/>
  <path fill="#2A4594" fill-rule="evenodd" d="M131.2 30.66A3.91 3.91 0 00130 28.7c-.96-.92-4.3-1.65-5.93.75 0-2.53 1.07-3.79 3.23-4.14 2.17-.34 3.38-.56 3.38-.56l-.22-2.06s-2.21.31-4.05.73a5.53 5.53 0 00-4.34 4.77c-.3 1.85-.27 5.1.3 6.6.64 1.74 1.94 3.05 4.33 3.05 3.28 0 4.79-2 4.79-5.12 0-.61-.1-1.29-.27-2.05zm-112.65-2.7v.02c.95.14 1.56.83 1.56 1.77 0 .92-.55 2.1-2.93 2.1h-1.54c.13.26.2.6.2 1.01 0 1.18-.9 2.16-2.83 2.16h-4.1l-.62-.6v3.24H6.8v-7.45h2.2c2.7 0 2.88 1.93 2.88 2.42 0 .37-.1.8-.32 1.18h1.52c.82 0 1.2-.5 1.2-.9 0-.64-.57-.9-1.15-1.16-.12-.05-.24-.1-.35-.17-1.13-.55-1.74-1.02-1.74-2.07 0-.73.4-2.09 2.34-2.09h1.45v-3h2.45c1.45 0 2.48.57 2.48 1.83 0 1.11-.69 1.54-1.2 1.7zM8.3 33.8H9c.92 0 1.28-.66 1.28-1.26 0-.64-.4-1.17-1.27-1.17h-.7v2.43zm6.53-4.62V31c-.32-.18-.68-.34-1.06-.5l-.16-.07c-.47-.2-.99-.47-.99-1.07 0-.3.2-.75 1.1-.75h1.7l-.6.6h.01zm2.19-3.61h-.69v1.84h.75c.99 0 1.16-.6 1.16-.92 0-.22-.06-.92-1.22-.92zm.17 5.09h-.86V28.6h.86c1.05 0 1.33.5 1.33 1.03s-.38 1.04-1.33 1.04zm124.32-2.64v9.58h2.77v-4.28h3.05v4.28h2.77v-9.58h-2.77v3.55h-3.05v-3.55h-2.77zm-9.5 6.84c0-1.31.7-2.29 2.01-2.8.52-.2 1.06-.35 1.6-.43l1.7-.24.13-.02v-.32c.06-1.39-.75-1.62-1.72-1.64-.92 0-1.84.3-2.65.73l-.19-1.73c1.11-.4 2.29-.62 3.47-.61.75 0 1.4.08 1.92.24a2.41 2.41 0 011.75 2.12c.03.2.04.54.04.97v5.98c-2.44.92-8.06 1.54-8.06-2.25zm5.46-2.18v3.4c-.7.28-2.9.68-2.9-1.37 0-1.63 1.65-1.86 2.81-2.01l.1-.02zm-10.75 3.63c.49 0 .86-.19 1.13-.55.56-.74.72-1.81.72-2.81 0-.77-.1-1.62-.41-2.42-.31-.8-.87-1.18-1.5-1.18-.48 0-.87.18-1.16.52a4.21 4.21 0 00-.76 2.65c0 1.19.4 3.79 1.98 3.79zm24.98 1.29v-9.58h2.75v4.39l3.1-4.4h2.7l-3.14 4.28 3.45 5.3h-3.08l-3.03-4.77v4.78h-2.75zm-46.62-.19c.84.33 1.76.4 2.64.4a7 7 0 002.87-.55 2.7 2.7 0 001.64-2.55c0-.66-.27-1.4-.93-1.84a3.2 3.2 0 00-1.25-.44c.76-.24 1.8-.96 1.78-2.2.06-1.5-1.33-2.5-3.57-2.45-1.06 0-2.12.15-3.1.52l.17 1.61a4.65 4.65 0 012.33-.61c.56-.02 1.63.23 1.6 1.25 0 1.31-1.6 1.35-2.64 1.35h-.18v1.44h.68c.31 0 .63.02.94.06.35.02.7.15.96.38.29.22.43.56.43 1 .04.88-.73 1.54-2.11 1.52-.76 0-1.37-.17-2.03-.56l-.23 1.67zm-22.2.4c-3.17 0-4.96-1.95-4.96-5.06 0-3.11 1.9-4.97 5.02-4.97.83 0 1.47.1 2.27.37l-.33 1.74c-.5-.25-.95-.4-1.51-.4-1.87 0-2.66 1.53-2.66 3.2 0 1.67.77 3.37 2.68 3.37.56 0 1.05-.13 1.56-.38l.19 1.77a7 7 0 01-2.27.35zm35.76-3.6c0 2.35-2.5 1.85-2.5 1.85v-3.4a16.73 16.73 0 00.29-.01h.4c.67 0 1.3.09 1.6.56.14.23.21.56.21 1zm-5.23 3.39v-9.58h2.73v3.01c.37-.01.74-.03 1.12-.03 1.27 0 2.2.22 2.78.66.7.51 1.16 1.42 1.13 2.41-.07 3.15-3.28 3.73-4.98 3.73-1.82 0-2.78-.2-2.78-.2zm-18.92-7.3c0 1.11-.58 1.84-1.73 2.2 1.55.21 2.2 1.22 2.16 2.29v.1c-.07 2.42-3.02 2.91-4.95 2.91-1.96 0-3.34-.2-3.34-.2v-9.58s1.31-.24 3.34-.24c1.06 0 2.26.09 3.16.5.43.15.8.45 1.04.84.2.31.32.7.32 1.18zm-4.46 3.19c.25 0 .53 0 .87.03.34.01.63.12.88.33.24.19.37.5.37.95 0 1.05-.92 1.45-2.14 1.45-.32 0-.68-.05-.68-.05V33.5h.7zm-.7-4.12V32h.64c1.33 0 1.92-.46 1.92-1.41 0-.49-.27-1.25-1.58-1.25-.7 0-.98.03-.98.03zm11-1.6c-2.02 0-4.56.34-4.56 2.93 0 1.35.67 2.21 2.02 2.57L95.2 37.6h2.85l2.07-3.83h.8v3.83h2.73v-9.58s-1.31-.24-3.33-.24zm-.06 4.4h.68v-2.83s-.33-.06-1-.06c-.7 0-1.56.26-1.56 1.38 0 1.06.56 1.5 1.88 1.5zm-66.9 5.42V24.38h10.16V37.6h-2.95V26.23h-4.24V37.6h-2.96zm11.78-9.33V41.5h2.8v-4.1c.83.34 3.4.54 4.95-1.32a5.73 5.73 0 001.22-3.8c0-5.8-6.44-4.5-8.9-4.01l-.07.01zm6.24 4.22c0-3.6-2.54-3.3-3.45-3.07v6.27l.13.03c.7.18 3.32.86 3.32-3.23zm3.71.32c0 3 1.39 5 4.55 5 3.39 0 4.76-1.83 4.76-5.07 0-.74-.11-1.5-.33-2.26a3.53 3.53 0 00-1.37-1.92 4.55 4.55 0 00-2.75-.77c-3.2 0-4.86 1.91-4.86 5.02zm4.77 3.49c.8 0 1.35-.64 1.57-1.5.22-.86.24-1.47.24-2.12 0-.92-.1-1.6-.37-2.31a1.55 1.55 0 00-1.44-1.08c-.8 0-1.36.58-1.62 1.35-.27.77-.3 1.53-.3 2.04 0 1.2.26 3.62 1.92 3.62zm6.13-8.27l-1 9.58h2.23l.52-6.94 2.13 6.94h2.2l2.11-6.9.54 6.9h2.55l-.92-9.58h-3.18l-2 6.52-1.97-6.52H66z" clip-rule="evenodd"/>
</svg>
