<svg xmlns="http://www.w3.org/2000/svg" fill="none" viewBox="0 0 204 60">
  <path fill="#00B0CA" d="M67.72 32.78v.17c-.24.23-.25.55-.34.84l-5.24 17.04c-.35.24-.76.16-1.15.16H0v-.16c.83-4.57 2.52-8.9 3.8-13.35.37-1.27.77-2.52 1.15-3.79.32-1.05.6-1.24 1.7-1.27H65.9c.6 0 1.3-.2 1.82.36z"/>
  <path fill="#303F49" d="M67.24 19.35a4.42 4.42 0 00-5.33-3.57c-.91.16-1.74.6-2.39 1.26a2.8 2.8 0 011.26-2.13c.7-.47 1.51-.58 2.32-.68.9-.12 1.8-.17 2.61-.62.27-.15.58-.27.56-.66-.04-1.32.1-2.64-.07-3.95h-.17c-.18.3-.52.3-.8.35-1.44.28-2.9.47-4.3.83-3.33.87-5.57 2.84-6.17 6.37a14.5 14.5 0 00-.17 3.44c.25 3.52 1.97 5.63 5.04 6.15.89.14 1.8.16 2.7.05 3.7-.39 5.72-3.2 4.9-6.84zm-6.2 3.05c-.95.04-1.56-.62-1.56-1.69 0-1.06.55-1.66 1.48-1.67.92-.02 1.5.6 1.52 1.63.02 1.03-.52 1.7-1.43 1.73zM23.97 16.74a4.55 4.55 0 00-3.84-2.66c-1.72-.19-3.2.33-4.55 1.85.17-1.71-.85-1.55-1.8-1.52-.63.04-1.25.04-1.87 0-.54-.04-.67.17-.64.68.04.59 0 1.18 0 1.77v12.9c0 .47.03.76.66.73 1.43-.06 2.88-.04 4.3-.05.15-1.47.02-2.95.08-4.42 0-.22-.23-.59.25-.65A4.98 4.98 0 0024 23.5a7.63 7.63 0 00-.04-6.77zm-6.21 5.5c-1.08-.03-1.45-.55-1.45-2.05 0-1.56.42-2.14 1.55-2.1 1.02.03 1.72.92 1.7 2.12-.03 1.21-.79 2.06-1.8 2.03zM26.5 20.12c0-1.7.02-3.37-.01-5.06-.01-.51.13-.67.66-.65 1.26.04 2.53.03 3.8 0 .47-.01.64.11.62.6-.04.9 0 1.8-.02 2.7-.01.4.13.5.53.53 1.8.07 1.8.09 1.8-1.71 0-.68-.22-1.56.12-1.96.4-.46 1.33-.12 2.02-.15.7-.03 1.4.04 2.1-.01.61-.05.83.09.82.76-.04 3.34-.03 6.68 0 10.02 0 .53-.1.74-.69.72a55.37 55.37 0 00-3.7 0c-.51 0-.7-.11-.68-.65.04-.87 0-1.74.01-2.61.02-.39-.1-.53-.51-.55-1.81-.1-1.8-.12-1.82 1.67 0 .68.22 1.55-.12 1.95-.4.49-1.3.13-2 .17-.76.03-1.52-.03-2.28.01-.5.03-.67-.11-.66-.64.03-1.72.01-3.43.01-5.14zM53.43 14.41c-.6 1.6-1.15 3.08-1.72 4.54a1.43 1.43 0 00-.01 1.12c.72 1.89 1.4 3.79 2.14 5.82H49.1c-.34 0-.4-.26-.49-.49-.38-.93-.8-1.86-1.12-2.81-.21-.64-.68-.48-1.1-.47-.53.01-.29.45-.3.7a32.7 32.7 0 000 2.44c.02.46-.1.66-.6.64-1.3-.03-2.59-.02-3.89 0-.41 0-.6-.07-.6-.54.03-3.46.03-6.91 0-10.37 0-.43.11-.6.57-.58 1.3.03 2.6.03 3.89 0 .47-.01.65.12.63.6-.03.88-.02 1.75 0 2.62 0 .22-.15.55.25.6.34.04.65.03.8-.4.37-.97.78-1.93 1.16-2.9.12-.29.22-.53.64-.52 1.46.02 2.92 0 4.5 0z"/>
</svg>
