<svg xmlns="http://www.w3.org/2000/svg" fill="none" viewBox="0 0 204 60">
  <path fill="#006434" fill-rule="evenodd" d="M44.62 24.52c1 0 2.11.04 3.07.7.65.41 1.4 1.25 1.4 2.75 0 1.65-1.04 3.58-3.93 3.58h-2.44v4.5H40.6V24.52h4.03zm.08 5.35h.04c.47 0 1.13 0 1.65-.49.37-.34.58-.9.58-1.4 0-.45-.19-.98-.56-1.3a2.53 2.53 0 00-1.63-.48h-2.06v3.67h1.98zm9.15 4.93c-.74 0-1.17-.4-1.35-.61-.14-.15-.65-.83-.65-2.43s.51-2.26.65-2.41c.18-.22.6-.62 1.35-.62a1.7 1.7 0 011.35.62c.14.15.64.82.64 2.41 0 1.6-.5 2.28-.64 2.43-.18.21-.6.61-1.35.61zm-2.79-6.45a3.92 3.92 0 012.79-1.04c1.32 0 2.2.5 2.79 1.04.88.83 1.33 2.1 1.33 3.41s-.45 2.6-1.33 3.42a3.9 3.9 0 01-2.8 1.04c-1.3 0-2.19-.49-2.78-1.04a4.67 4.67 0 01-1.34-3.41c0-1.32.46-2.59 1.34-3.42zm13.23 1.01c.22.32.39.83.42 1.26l1.8-.21a4 4 0 00-1.02-2.16 3.46 3.46 0 00-2.5-.94c-1.14 0-2.2.5-2.95 1.35-.44.52-1 1.5-1 3.12 0 1.75.63 2.86 1.3 3.48.48.45 1.31.96 2.6.96 1.14 0 1.96-.42 2.48-.9.63-.56.98-1.44 1.08-2.23l-1.79-.21c-.04.46-.2.9-.46 1.29-.32.44-.74.64-1.25.64-.7 0-1.15-.44-1.37-.77a4.76 4.76 0 01-.45-2.27c0-.5.03-1.57.45-2.26.27-.45.71-.78 1.37-.78.68 0 1.08.33 1.29.63zm8.81 1.26c-.03-.43-.2-.94-.42-1.26-.2-.3-.6-.63-1.29-.63-.66 0-1.1.33-1.36.78-.42.7-.46 1.77-.46 2.26 0 .79.12 1.73.46 2.27.21.33.65.77 1.36.77.51 0 .93-.2 1.25-.64.26-.36.43-.86.46-1.3l1.8.22c-.1.8-.46 1.67-1.09 2.24-.52.47-1.33.89-2.48.89a3.7 3.7 0 01-2.6-.96c-.66-.62-1.3-1.73-1.3-3.48 0-1.63.56-2.6 1-3.12a3.9 3.9 0 012.95-1.35c1.06 0 1.94.37 2.5.94.56.56.9 1.4 1.01 2.16l-1.79.21zm8.47-1.17c.25.37.37.92.37 1.4H78c0-.61.23-1.13.5-1.47.34-.4.9-.72 1.55-.72.6 0 1.17.3 1.52.79zm2.37 4.12c-.24.79-.74 1.47-1.42 1.94a4.5 4.5 0 01-2.49.71 4.45 4.45 0 01-3.06-1.21 4.63 4.63 0 01-1.15-3.21c0-1.75.73-2.9 1.52-3.56a3.98 3.98 0 012.62-.93c1.64 0 2.69.76 3.25 1.53.59.81.86 1.94.86 2.91v.39h-6.12v.01c0 .15 0 .89.28 1.48a2.01 2.01 0 001.87 1.17c.45 0 1.03-.13 1.5-.61.29-.3.4-.6.46-.86l1.88.24zm8.48 2.48v-8.57h-5.78l-.02.91c0 1.05-.05 2.1-.12 3.16v.07c-.07.95-.15 2.1-.8 2.63-.23.17-.57.3-.82.32h-.17v1.48a2.32 2.32 0 001.2-.03c.37-.1.9-.32 1.32-.88.72-.97.82-2.71.87-3.65v-.15l.05-.88.08-1.53h2.23v7.12h1.96zm4.03-1.41h1.54c.37 0 .77-.02 1.11-.3.2-.19.44-.5.44-1.05 0-.47-.13-.83-.52-1.09a1.96 1.96 0 00-1.03-.25h-1.54v2.69zm2.16-4.1h-2.16v-3.06H94.5v8.57h4.29c1.2 0 1.83-.48 1.99-.6.4-.32.9-.95.9-2.17 0-.47-.07-1.34-.7-1.97-.72-.7-1.8-.77-2.36-.77zm5.91-3.06l1.59 2.67 1.66-2.67h1.79l-2.52 3.88 3 4.7h-2.31l-1.96-3.23-2.06 3.22h-1.8l2.95-4.45-2.64-4.12h2.3zm9.81 7.32c-.74 0-1.16-.4-1.35-.61-.13-.15-.64-.83-.64-2.43s.5-2.26.64-2.41c.19-.22.6-.62 1.35-.62a1.7 1.7 0 011.36.62c.13.15.64.82.64 2.41 0 1.6-.5 2.28-.64 2.43-.19.21-.61.61-1.36.61zm-2.78-6.45a3.9 3.9 0 012.79-1.04c1.31 0 2.2.5 2.78 1.04.88.83 1.34 2.1 1.34 3.41s-.46 2.6-1.33 3.42a3.9 3.9 0 01-2.8 1.04 3.9 3.9 0 01-2.78-1.04 4.67 4.67 0 01-1.34-3.41c0-1.32.46-2.59 1.34-3.42zm9.34-.45a3 3 0 00-1.39 1.9l1.71.37c.06-.39.26-.74.56-1 .47-.4 1.05-.45 1.44-.45.28 0 .84.02 1.23.34.23.17.36.44.36.72 0 .5-.2.79-.56.98-.27.13-.76.2-1.1.2h-.9v1.3h.9c.5 0 1.02.06 1.4.38.3.25.38.53.38.89.01.39-.18.76-.51.97-.37.25-.85.3-1.29.3-.44 0-1.13-.05-1.57-.55-.2-.23-.35-.64-.42-.9l-1.78.3c.12.71.5 1.36 1.05 1.81.85.67 2.06.76 2.86.76.79 0 1.86-.07 2.63-.57a2.49 2.49 0 001.15-2.04c0-.57-.23-1.1-.54-1.43-.33-.35-.9-.57-1.4-.63v-.04a1.83 1.83 0 001.76-1.88c0-.53-.24-1.3-1.18-1.81-.65-.35-1.5-.5-2.36-.5-1.35 0-2.14.4-2.43.58zm10.59 6.14h2.18c.4 0 .78-.02 1.17-.4.37-.38.42-.8.42-1.12 0-.37-.1-.74-.42-1.06a1.66 1.66 0 00-1.24-.42h-2.11v3zm0-7.5h5.6v-2.02h-8.3v11.53h5.4c1.02 0 1.99-.12 2.83-.96a3.6 3.6 0 001-2.6 3.1 3.1 0 00-1.4-2.72 4.29 4.29 0 00-2.64-.68h-2.5v-2.55zm12.7 5.46c-.84.07-1.69.15-2.16.74a1.2 1.2 0 00-.27.77c0 .37.18.62.37.76.24.18.6.27.93.27.5 0 1.1-.22 1.44-.62.05-.06.45-.56.45-1.53v-.45l-.76.06zm-3.3-4.15a3.13 3.13 0 00-1.48 2.02l2.33.25c.1-.47.39-.74.6-.87.36-.22.79-.26 1.14-.26.26 0 .9.02 1.22.4.23.26.25.76.25 1v.18l-.81.04c-.7.03-2.23.17-3.18.55-1.47.6-1.84 1.63-1.84 2.49 0 .77.33 1.48.88 1.91.56.46 1.37.66 2.16.66 1.8 0 2.57-.96 2.9-1.53 0 .46.05.91.13 1.36h2.45a6.64 6.64 0 01-.25-1.85v-3.3-.15c0-.6 0-1.29-.3-1.93-.65-1.32-2.09-1.5-3.51-1.5-1.11 0-2.01.14-2.69.53zm10.97-.37v3.21h2.72v-3.2h2.52v8.56h-2.52v-3.6h-2.72v3.6h-2.52v-8.57h2.52zm9.72 3.3v-3.3h-2.53v8.57h2.53v-3.6h.75c.53 0 .87.14 1.12.78l.12.3.2.56c.05.18.11.4.23.72.3.87.55 1.12.92 1.24h2.37a3.49 3.49 0 01-.55-.94l-.01-.03v-.01c-.22-.52-.32-.75-.56-1.42a6.53 6.53 0 00-.6-1.4 1.87 1.87 0 00-1.29-.82v-.03c.86-.07 1.2-.6 1.4-1.14l.2-.55c.13-.42.3-.94.48-1.3.18-.34.4-.65.66-.93h-2.08c-.22.03-.56.15-.81.62-.16.3-.24.6-.32.92-.08.3-.17.64-.34 1.01-.19.39-.5.74-1.22.74h-.67z" clip-rule="evenodd"/>
  <path fill="#FFCB04" fill-rule="evenodd" d="M10.4 14.35l.5.5v-6.5h.6v9.5l-3.88-3.78V8.35h.58v3.86l.51.5V8.35h.59v4.93l.5.5V8.35h.6v6zm5.49 2.89l-3.88 3.78v-2.44l3.88-3.77v2.43zm0 9.58l-3.88 3.78v-2.59l3.88-3.76v2.57zm-3.88-2.63l3.88-3.78v-2.43l-3.88 3.77v2.44zm0 3.17l3.88-3.78v-2.43l-3.88 3.77v2.44zm-.52 3.24l-3.87-3.78v-2.57l3.87 3.76v2.59zm3.82-18.39l-.51.5V8.35h-.6v4.93l-.5.5V8.35h-.59v6l-.51.5v-6.5h-.59v9.5l3.88-3.78V8.35h-.58v3.86zm-3.82 8.81l-3.87-3.78V14.8l3.87 3.77v2.44zm-3.87-.61l3.87 3.78v-2.44l-3.87-3.77v2.43zm3.87 6.95l-3.87-3.78v-2.43l3.87 3.77v2.44zm9.11.57c0 .44-.28.84-.7.99-.43.14-.9 0-1.18-.35-.27-.35-.29-.84-.04-1.22l.3-.49a.86.86 0 010-1.3l-.3-.48a1.01 1.01 0 01-.17-.57 1.05 1.05 0 012.1 0c0 .42-.5 1.43-.5 1.43v.55s.5 1.01.5 1.44zm.68-2.36h9.42a.5.5 0 01.49.5v.3a.5.5 0 01-.5.49h-1.38v.42h.7v.6h-.7v.61h.7v1.14h-.7v-.52h-1.03v.52h-.69v-1.14h.7v-.61h-.7v-.6h.7v-.42h-7.01a2.02 2.02 0 01-1.08 2.98 2.04 2.04 0 01-2.27-.72 2 2 0 01-.02-2.37.64.64 0 010-1.07 2 2 0 01-.16-2.1 2.03 2.03 0 013.84.93c0 .38-.1.74-.31 1.06z" clip-rule="evenodd"/>
  <path fill="#006434" fill-rule="evenodd" d="M4.1 26.86v-2.51s.4 1.39 1.95 2.93a212.2 212.2 0 003.36 3.26l.17.16c.68.64 1.75 1.63 1.75 3.91v2.79c-.25-.62-.45-.98-1.57-2.07l-4-3.92a6.48 6.48 0 01-1.67-4.55zm3.83 8.47l1.48 1.43.17.16c.68.64 1.75 1.64 1.75 3.91v2.94l-.02-.03c-.24-.6-.45-1.12-1.55-2.19l-4.01-3.9a6.82 6.82 0 01-1.66-4.57v-2.17s.42 1.05 1.97 2.6l1.87 1.82z" clip-rule="evenodd"/>
  <path fill="#006434" fill-rule="evenodd" d="M17.4 13c-.28 0-.56.02-.83.03v1.18c.27-.02.55-.02.83-.02 8.95 0 16.21 7.21 16.21 16.11 0 8.9-7.26 16.12-16.21 16.12A16.17 16.17 0 011.18 30.3c0-4.94 2.24-9.36 5.76-12.31v-1.5A17.24 17.24 0 000 30.3c0 9.56 7.8 17.3 17.4 17.3 9.6 0 17.4-7.74 17.4-17.3C34.8 20.75 27 13 17.4 13" clip-rule="evenodd"/>
  <path fill="#006434" fill-rule="evenodd" d="M15.13 33.94h-.68v6.9h.68v-6.9zm16.8 1.1c.12-.34.22-.68.3-1.02h-2.52v.62h.38c.67-.02 1.42-.03 1.85.4zm-2.22 4.3c.27-.38.52-.75.76-1.14v-2.32h-.76v3.45z" clip-rule="evenodd"/>
  <path fill="#006434" fill-rule="evenodd" d="M15.13 32.6h-2.26v12.23l-.69-.23V31.95h2.95c1.2 0 1.92.46 2.16 1.4.26-.9.96-1.34 2.1-1.34h.66c.95 0 1.6.31 1.93.93l-.15-.77h10.75l-.09.62h-4.6v8.57c-.4.39-.85.76-1.3 1.1v-3.94c0-.74-.15-1.19-.89-1.45l.88-4.25h-1.65l-.26 4.64h-.2l-.25-4.64h-1.57l.78 4.25c-.71.24-.88.76-.88 1.45v6.1c-.3.11-.62.21-.94.3v-6.66h-1.55v7.02l-.67.1V34.06h.67v3.53h1.55v-3.3c0-.6-.1-1.02-.34-1.25-.38-.38-1.08-.37-1.64-.36h-.24c-.58 0-.99.12-1.22.36-.22.24-.34.65-.34 1.25V45.5h-.66v-3.73c-.32.7-1 1.06-2.04 1.06v2.51a11.2 11.2 0 01-.68-.12v-3.05l.34.01c.55 0 1.21 0 1.57-.36.24-.22.35-.63.35-1.21v-6.44c0-.58-.1-1-.35-1.21-.24-.23-.64-.35-1.23-.35zm11.26 4.18l.74.7v-4.5l-.74 3.8z" clip-rule="evenodd"/>
  <path fill="#006434" fill-rule="evenodd" d="M24.22 43.92l.7-.38v-5.21h-.7v5.58z" clip-rule="evenodd"/>
</svg>
