<svg xmlns="http://www.w3.org/2000/svg" fill="none" viewBox="0 0 204 60">
  <path fill="#199D00" d="M24.45 30c0-5.28 2.59-9.11 7.07-11.75-3.6-4.6-10.9-7.65-18.31-5.6A17.94 17.94 0 000 30.17a18 18 0 0013.47 17.27c7.71 1.96 14.84-1.5 18.04-5.7-4.48-2.63-7.06-6.47-7.06-11.74zm-4.7-8.38c-.83.1-1.7.15-2.47.45-2.48.97-3.6 2.98-3.64 5.52-.09 3.99-.03 7.98-.04 11.97 0 1.28-1.03 2.06-2.15 1.6-.7-.28-.98-.86-.98-1.6v-6.14h.1c0-2.3-.13-4.62.02-6.92.29-4.25 3.18-7.15 7.42-7.65.56-.07 1.12-.11 1.68-.11.88.01 1.43.58 1.45 1.4.01.83-.51 1.36-1.4 1.48z"/>
  <path fill="#000" d="M115.9 13.23a1.31 1.31 0 00-1.28-1.21c-.99-.06-1.6.5-1.6 1.51v8.53c-1.27-.82-2.5-1.69-3.8-2.4a9.55 9.55 0 00-4.45-.98 11.1 11.1 0 00-8.5 3.73 11.24 11.24 0 00-.8 14 10.88 10.88 0 008.45 4.72c3.53.23 6.52-1.04 9.1-3.63v2.31c.03.8.57 1.31 1.38 1.34 1 .03 1.5-.5 1.5-1.65V13.68v-.45zM104.62 38.5a8.58 8.58 0 01.07-17.15 8.55 8.55 0 018.34 8.64 8.54 8.54 0 01-8.4 8.51zM38.32 18.75a11.24 11.24 0 104.53 21.6 11.25 11.25 0 00-4.53-21.6zm.1 19.8a8.58 8.58 0 010-17.15c4.63.01 8.44 3.92 8.42 8.65a8.56 8.56 0 01-8.41 8.51zM90.96 33.13v6.4c0 .92-.45 1.5-1.2 1.6-.98.16-1.7-.47-1.71-1.51v-8.16c0-1.25.02-2.5-.01-3.75-.11-3.75-2.56-6.21-6.14-6.21-3.54 0-6.02 2.44-6.14 6.15-.07 2.41-.02 4.83-.02 7.25v4.79c0 .88-.56 1.44-1.39 1.46-.89.03-1.54-.5-1.54-1.38 0-4.42-.1-8.85.1-13.27.21-4.23 3.03-7.01 7.25-7.59 1.93-.26 3.84-.14 5.67.57 3.24 1.26 4.81 3.77 5.04 7.11.15 2.17.03 4.36.03 6.54h.06zM52.13 26.72V20.5c0-1.1.54-1.72 1.48-1.71.94 0 1.46.6 1.46 1.74 0 3.7-.02 7.42.01 11.13 0 .8.09 1.6.27 2.37.75 2.93 3.31 4.65 6.46 4.4a5.83 5.83 0 005.51-5.55c.04-.45.05-.9.05-1.35V20.65c0-.21 0-.43.03-.65a1.45 1.45 0 012.86.03c.02.2.03.39.02.58 0 3.73.03 7.47-.01 11.2 0 1.08-.12 2.15-.36 3.2a7.37 7.37 0 01-5.32 5.65c-2.18.69-4.51.7-6.7.02-3.43-1.02-5.56-3.79-5.71-7.56-.1-2.13-.02-4.27-.02-6.4h-.03z"/>
</svg>
