<svg xmlns="http://www.w3.org/2000/svg" fill="none" viewBox="0 0 204 60">
  <path fill="#333" fill-rule="evenodd" d="M21.25 11.47A21.22 21.22 0 000 32.67c0 11.7 9.5 21.2 21.24 21.2a21.22 21.22 0 0021.25-21.2c0-11.7-9.5-21.2-21.24-21.2zm-.01 41.05c-10.99 0-19.9-8.89-19.9-19.86a19.88 19.88 0 0119.91-19.84c11 0 19.9 8.89 19.9 19.86a19.88 19.88 0 01-19.9 19.84h-.01zm11.84-28.99c-.47-.24-1.17-.6-1.23-2.3-.06-1.83-.68-2.79-2.95-4.8 0 0-.03.37.03.59 0 0-.7-.8-2.36-1.2 0 0 .19-.73.24-1.17.03-.34-.23-.7-.8-.56-.3.07-.99.3-1.69.54-.7.24-1.43.48-1.8.57-.75.19-5.65 1.88-8.62 4.7 0 0 .63-1.76 2.08-3.58-1.1.31-2.07.68-3.08 1.19-1.58 2.13-3.57 6.33-3.57 9.87 0 0-.95-2.9-.16-7.37l-.02.02a17.01 17.01 0 00-2.69 2.99c-.19 2.51-.2 5.84 1.84 10.5 0 0-2.06-1.5-3.95-6.5l-.01.03c-.6 1.63-.94 3.33-1.03 5.06 1.68 3.07 4.2 6.14 9.28 8.88 0 0-4.17-.6-8.87-4.13a17.12 17.12 0 002.2 5.32 25.69 25.69 0 0012.21 2.23s-3.07 1.73-9.36 1.22c0 0 1.09 1.34 3.98 2.73a8.57 8.57 0 007.16-.28 5.45 5.45 0 002.14-5.88s-.56 1.07-1.92 1.49c0 0 1.08-.84 1.08-2.37 0-1.53-1.27-2.56-2.84-2.7-.89-.07-2.2-.02-3.11.02l-.9.03c-.65 0-1.53 0-2.14-.74 0 0 .88-.03 1.81-.24.23-.04.53-.13.86-.23.79-.22 1.76-.5 2.4-.46 0 0-.32-.43-1.07-.42-.3 0-.45.07-.6.13-.08.04-.17.08-.28.1-.43.11-1.22.15-1.67-.72 0 0 .65.5 1.2.35.34-.1.46-.22.56-.33.05-.05.09-.1.14-.13.2-.15.53-.26.86-.26.32 0 .63.07.91.3.29.23.84.19.51-.14a2.07 2.07 0 00-1.48-.65c-1.19-.01-3.3.23-4.06.6-.52.27-.92.6-1.1.83-.07.09-.22.1-.21-.06.04-.72.34-2.67 1.25-3.5.95-.87 3.42-1.5 4.4-1.68 0 0-.25-.56.03-.93.43-.53 1.82-1.51 10.01-1.51 0 0-.45.35-.64.63 0 0 3.2.18 4.99 1.07.28.14.84.19 1.02-1.07l-.5-.32.09-.42c.05-.23 0-.28-.19-.19-.18.1-.23.19-.23.19s-.47.18-.52-.1c-.04-.27-.56-.97-1.58-1.11 0 0 .52-.7 1.7-.54 0 0 .09.34.33.25l.15-.07c.22-.1.45-.2.48.04.03.28.15.74.8.03 0 0 .66.34 1.25.12.59-.22 1-.6 1.14-1.55l.01-.05c.03-.17.04-.24.19-.41.15-.19.27-.45-.01-.68-.37-.31-1.52-.96-1.99-1.21l-.1-.05zm-12.13.92c.31-.12.4.15.34.34-.3.9-.71 2.2-.56 2.8.15.58 1.61.92 1.61.92l-.52.04c-.59.03-1.44.09-1.72.15-.37.08-.99.15-.86-.59.15-.9.62-2.51.62-2.51-.43.12-1.33.55-1.65.74-.3.19-.4.15-.3-.06a22.52 22.52 0 015.52-7.34l.03.1a23.84 23.84 0 00-3.48 5.75c.14-.07.34-.14.55-.2l.42-.14zm3.73-7.47c.06-.27.54-1.05.92-1.5.1-.12 0-.2-.27-.03h-.02c-.3.2-1.47.92-2.27 2.25-.1.17-.04.42.4.27a7.6 7.6 0 011.3-.3c.25-.04.25-.2.08-.28-.17-.06-.2-.14-.14-.4zm6.25 5.03c-.07.41-.28.44-.59.27l-.06-.03c-.26-.15-.36-.2-.52-.24-.17-.03-.34.03-.2.27.14.25.37.93.27 1.4 0 0-.76-1.46-1.67-2.18-.54-.43.4-.34.68-.31h.04c.55.06.72.13.88.2l.14.05c.23.06.72.18.9-1.17 0-.06.09-.04.1.01.07.65.08 1.38.03 1.73zm-3.19 16.72l1.14 1.33c.27.33.6.68.95 1.04 1.08 1.13 2.36 2.46 2.9 4.3l.03-.01c-.85.83-1.77 1.55-2.77 2.2.22-.41.98-2.63-.41-5.54a13.9 13.9 0 00-5.12-5.73c-1.82-1.23-4.77-2.16-5.4-2.35h-.01c-.59-.19-.56-.37-.43-.75.12-.37.68-1.24.68-1.24-.24.03-.93.25-1.27.4-.34.16-.62.13-.72.03-.63-.62.69-1.86.69-1.86.03.44.18.65.83.56.65-.1 2.83-.27 3.33-.27 0 0-2.36 1.82-2.76 2.44-.33.5.03.52.34.54a5.1 5.1 0 00.48.05c.73.09 2.65.3 4.51 1.15a11.15 11.15 0 013.63 2.88c.37.43.99 1.15 1.28 1.4 0 0-1.24-.19-1.9-.57zm9.08.5c-.36.96-.82 1.88-1.35 2.75-1.95-5.51-7.45-7.7-7.45-7.7 3.79.88 6.89 3.4 8.7 4.86l.1.09zm-1.1-8.45c-1.01.27-2.57.4-3.88.21 0 0 3.02 1.3 6.02 4.14v-.03a15.8 15.8 0 00.12-2.32c-.52-.22-3.78-1.14-3.78-1.14 1.1-.06 1.53-.86 1.53-.86zM22.67 50.2c1.14-.14 2.27-.4 3.37-.74h.01c.6-1.37 1.24-4.62.55-7.13 0 0 .13 5.91-3.94 7.87zM123.82 18.32c0 .64.76 1.34 2.57 1.34 1.82 0 2.56-.7 2.56-1.34a1.4 1.4 0 00-.44-.97h-.95c.16.22.25.5.24.77 0 .36-.42 1.03-1.4 1.03-1 0-1.43-.67-1.43-1.03 0-.32.1-.52.26-.77h-.96c-.26.23-.45.64-.45.97zM98.56 21.3c-.12.19-.32.55-.32 1.3v7.9c0 .76.2 1.1.32 1.3h-2.8c.12-.2.32-.54.32-1.3v-7.9c0-.75-.2-1.11-.32-1.3h2.8zm17.26 9.21c0 .75-.17 1.1-.3 1.3h2.76c-.12-.2-.3-.55-.3-1.3v-7.9c0-.76.18-1.12.3-1.3h-2.76c.13.18.3.54.3 1.3v.23l-4.72 5.6V22.6c0-.76.2-1.12.33-1.3h-2.81c.14.18.32.54.32 1.3v7.9c0 .75-.19 1.1-.32 1.3h2.81c-.13-.2-.33-.55-.33-1.3v-.27l4.73-5.6v5.87zm-10.1 1.3h-.01zm-.01 0c-.28-.23-.76-.73-1.23-1.3l-3.83-4.63 3.44-3.28.03-.02c.74-.7 1-.95 1.43-1.28h-2.86c.22.3.28.67-.36 1.3l-3.98 3.78 3.43 4.13c.58.7.58.98.36 1.3h3.57zm22.73 0c.13-.2.31-.55.31-1.3v-5.86l-4.73 5.59v.27c0 .75.2 1.1.31 1.3h-2.79c.13-.2.32-.55.32-1.3v-7.9c0-.76-.19-1.11-.32-1.3h2.8a2.3 2.3 0 00-.31 1.3v5.82l4.72-5.59v-.23c0-.76-.18-1.11-.3-1.3h2.77a2.2 2.2 0 00-.32 1.3v7.9c0 .75.2 1.1.32 1.3h-2.77zm-74.88-3.79h1.72c2.65 0 5.1-1.37 5.1-4.38 0-2.54-1.93-4.13-5.1-4.13h-4.45c.13.2.38.64.38 1.5v9.26c0 .88-.25 1.32-.39 1.52h3.09c-.14-.2-.35-.64-.35-1.52v-2.25zm0-7.18v5.83h1.34c1.55 0 3.05-.6 3.05-3.05 0-2.24-1.62-2.78-3.26-2.78h-1.13zm32.93 5.7c0-2.2 1.04-4.43 3.4-4.43 1.23 0 2.14.34 2.75 1.1l.85-1.95c-.3.15-.55.2-.96.2-.3 0-.6-.07-.95-.14-.48-.1-1.06-.22-1.8-.22-3.44 0-5.58 2.19-5.58 5.43 0 3.01 1.83 5.47 5.38 5.47 1.53 0 2.96-.6 3.9-1.84l-.38-.85a3.83 3.83 0 01-3.2 1.68c-1.52 0-3.41-1.24-3.41-4.46zM71.74 22.6l-3.78 8.83c-1.1 2.57-2.07 4.06-4.28 4.06a3.96 3.96 0 01-2.77-1.21l.6-1.28c.57 1 1.3 1.43 2.24 1.43 1.27 0 2.1-1.12 2.92-3.1L62.7 22.6a3.57 3.57 0 00-.82-1.3H65c-.11.3-.11.53.21 1.3l2.62 6.07 2.5-6.06c.29-.64.35-.93.22-1.3h1.9c-.3.37-.48.72-.7 1.3zm3.99 3.93c0-2.19 1.04-4.42 3.43-4.42 1.22 0 2.14.34 2.75 1.1l.85-1.95c-.32.15-.57.2-.98.2-.29 0-.6-.07-.94-.14a8.45 8.45 0 00-1.82-.22c-3.42 0-5.57 2.19-5.57 5.43 0 3.01 1.83 5.47 5.4 5.47 1.53 0 2.95-.6 3.88-1.84l-.38-.86c-.76.98-1.7 1.7-3.2 1.7-1.52 0-3.42-1.25-3.42-4.47zM55.83 37.2c-2.79 0-4.18 2.62-4.18 5.2 0 3.76 2.4 5.23 4.17 5.23 1.75 0 2.88-.83 3.76-1.98l.45 1a5.55 5.55 0 01-4.56 2.17c-4.17 0-6.36-2.9-6.36-6.43 0-3.81 2.53-6.38 6.55-6.38.88 0 1.56.13 2.13.24.42.08.78.15 1.12.15.5 0 .78-.03 1.15-.2l-1 2.3c-.73-.88-1.8-1.3-3.23-1.3zm12.72 2.04c.58 0 1.2.01 1.64.58l.76-1.74h-9.4l-.77 1.74c.86-.6 1.55-.6 2.25-.58h1.68v8.04c0 .75-.21 1.1-.34 1.3h2.81c-.13-.19-.31-.55-.31-1.3v-8.04h1.68zm10.41 9.34c.12-.19.22-.6-.1-1.3l-.49-1.15h-4.8l-.51 1.15c-.3.7-.2 1.11-.07 1.3h-2.1c.22-.24.48-.55.82-1.3l3.59-8.11-.04-.08c-.21-.5-.45-.8-.7-1h2.59l4.03 9.2c.36.75.6 1.06.84 1.3l-3.06-.01zm-1.1-3.57h-3.8l1.91-4.31L77.86 45zm12.98 3.57c.11-.19.32-.54.32-1.3v-3.54h-4.41v3.55c0 .75.2 1.1.31 1.3h-2.8c.13-.2.31-.55.31-1.3v-7.9c0-.75-.18-1.12-.31-1.3h2.8c-.12.18-.31.55-.31 1.3v3.2h4.4v-3.2c0-.75-.2-1.12-.3-1.3h2.8c-.12.18-.33.55-.33 1.3v7.9c0 .75.2 1.1.33 1.3h-2.81zm8.3 0h4.25c.8 0 2.11.3 3.07.96v-1.58c-1-.32-1.31-.96-1.31-1.72V39.4c0-.76.18-1.13.32-1.31h-7.5c.14.18.34.55.34 1.3v4.7c0 1.98-.4 3.09-2.24 3.93v1.52a5.92 5.92 0 013.06-.95zm3.84-9.33h-2.72a.6.6 0 00-.62.6v4.24c0 1.54-.22 2.64-.88 3.34h3.62a.61.61 0 00.6-.62v-7.56zm13.52 8.04c.32.7.2 1.1.08 1.3h3.07a4.1 4.1 0 01-.82-1.3l-4.05-9.2h-2.59c.26.2.5.5.7 1.01l.04.08-3.57 8.11c-.34.75-.6 1.06-.83 1.3h2.1c-.13-.2-.23-.6.08-1.3l.5-1.15h4.8l.49 1.15zm-2.89-6.58l-1.9 4.31h3.8l-1.9-4.31zm10.76 4.66h1.5c2.25 0 4.37-1.2 4.37-3.75 0-2.19-1.65-3.53-4.37-3.53h-3.98c.12.19.31.56.31 1.31v7.9c0 .75-.19 1.1-.31 1.3h2.8l-.02-.05c-.1-.2-.3-.55-.3-1.25v-1.93zm1-6.13h-1v4.98h1.17c1.3 0 2.5-.54 2.5-2.63 0-1.9-1.27-2.35-2.67-2.35zm13.62.02c.55 0 1.2.01 1.63.58l.75-1.74h-9.05l-.75 1.73c.86-.6 1.53-.58 2.23-.57h1.51v8.04c0 .75-.2 1.1-.33 1.3h2.81c-.13-.2-.33-.55-.33-1.3v-8.04H139z" clip-rule="evenodd"/>
</svg>
