<svg xmlns="http://www.w3.org/2000/svg" fill="none" viewBox="0 0 204 60">
  <g fill-rule="evenodd" clip-rule="evenodd">
    <path fill="#EA5A62" d="M105.05 15h.02c.69.71 1.4 1.4 2.1 2.1a8.42 8.42 0 01-3.84 2.08c-1.64.36-3.3.55-4.98.56a6.35 6.35 0 00-3.83 1.71 6.5 6.5 0 00-2 3.92 8.78 8.78 0 11-2.62 8.72c-.36-1.31-.26-2.68-.28-4.02v-3.95a9.36 9.36 0 014.69-8.08 9.15 9.15 0 014.71-1.21c.75-.03 1.5-.07 2.23-.14a6.23 6.23 0 003.8-1.69zm-7.86 11.1a5.9 5.9 0 102.39 11.57 5.9 5.9 0 00-2.39-11.57zm13.92-1.25c1.43-1.45 3.52-2.04 5.5-2.06 1.87-.04 3.8.52 5.2 1.82a5.37 5.37 0 011.73 3.88v8.7a1.22 1.22 0 001.13 1.27c.55.07 1-.34 1.28-.76.58.6 1.21 1.21 1.79 1.82a4.27 4.27 0 01-2.69 1.47 5.43 5.43 0 01-2.95-.48 2.57 2.57 0 01-1.4-1.77c-.38.43-.82.82-1.3 1.15-.98.62-2.1.98-3.26 1.06a8.96 8.96 0 01-3.65-.3 4.4 4.4 0 01-2.87-5.89A5.12 5.12 0 01112 32.1a13.24 13.24 0 014.66-1.36c1.32-.19 2.65-.34 3.97-.49-.02-.84.1-1.73-.23-2.53a3.68 3.68 0 00-2.53-2.1 5.83 5.83 0 00-2.94.05c-.72.18-1.38.57-1.87 1.14l-1.95-1.95v-.01zm6.17 8.4c-.86.07-1.7.22-2.54.43-.75.18-1.43.6-1.94 1.17a2.08 2.08 0 00.1 2.68c.48.44 1.1.7 1.74.74a6.65 6.65 0 005.98-2.79c.02-.87 0-1.75 0-2.62l-3.34.38zm12.5-10.1h2.91v7.22h9.18v-7.21h2.91v17.48h-2.91v-7.6h-9.17v7.6h-2.91V23.15h-.01zm19.13 0h2.92c-.04 2.43-.04 4.88-.03 7.32l.03.03h3.22l6.6-7.36h3.64l-7.61 8.5 8.2 9h-4.09l-6.82-7.42c-1.05-.07-2.12 0-3.19-.03 0 2.48-.02 4.96.04 7.43h-2.91c.06-4.83.03-9.66.03-14.5 0-1 0-1.99-.03-2.98v.01zM75 31.89l2.05-2.05c.68.68 1.35 1.37 2.04 2.04-3 3.05-6.05 6.07-9.08 9.1l-1.9-1.9c-.05-.06-.21-.14-.1-.21l6.99-6.99z"/>
    <path fill="#009072" d="M51.22 16.42a7 7 0 002.4-1.42c.69.7 1.38 1.4 2.08 2.08a8.13 8.13 0 01-4.02 2.15c-1.34.27-2.68.44-4.04.5a6.4 6.4 0 00-6.55 5.65 8.77 8.77 0 11-2.92 6.84v-6.07c.01-2.12.73-4.17 2.05-5.83a9.22 9.22 0 016-3.4c.7-.12 1.4-.06 2.09-.11.97-.07 1.97-.09 2.91-.39zm-4.94 9.6a5.92 5.92 0 101.32 11.76 5.92 5.92 0 00-1.32-11.76zM5.47 23.07c1.9-.7 3.98-.8 5.94-.27a8.74 8.74 0 014.83 3.3c.1.1-.08.17-.13.24l-1.56 1.56a6.63 6.63 0 00-4.56-2.73 7.12 7.12 0 00-4.46.79 5.9 5.9 0 00-2.52 3 7.1 7.1 0 00.4 5.93 5.95 5.95 0 002.77 2.56 7.3 7.3 0 003.92.52 6.26 6.26 0 004.45-2.74c.64.67 1.3 1.3 1.94 1.95-1 1.38-2.4 2.4-4.02 2.93-1.85.62-3.83.7-5.73.27a8.6 8.6 0 01-5.12-3.42A9.44 9.44 0 010 32.09v-.96c.06-1.62.51-3.2 1.33-4.6a8.23 8.23 0 014.14-3.46zm62.5 1.8l2.05-2.06 7.04 7.03L75 31.89c-2.37-2.32-4.7-4.69-7.05-7.02zm-48.29-1.73h2.9c-.03 2.46-.03 4.91-.02 7.37h3.24l6.6-7.36h3.64a2617.25 2617.25 0 00-7.6 8.5l8.17 8.99h-3.94c-.17.02-.24-.14-.34-.23l-6.6-7.19h-3.17c0 2.47-.02 4.95.03 7.43h-2.9c.05-5.84.05-11.67 0-17.5z"/>
  </g>
</svg>
