<svg xmlns="http://www.w3.org/2000/svg" fill="none" viewBox="0 0 204 60">
  <defs/>
  <path fill="#12151A" fill-rule="evenodd" d="M102.43 44.15c-.17.47-.52.5-.7.5l-4.12-.02v-4.32h3.99v-1.26h-4v-3.68h4.06c.18 0 .53.02.7.48h.42v-1.73h-7.1v.42c.14.05.24.12.3.2.16.17.18.4.19.5v9.53c-.01.13-.03.46-.47.69h-.02v.43h7.17v-1.74h-.42zM120.83 44.15c-.17.47-.52.5-.7.5l-4.12-.02v-4.32h3.98v-1.26h-3.98v-3.68h4.05c.18 0 .53.02.7.48h.42v-1.73h-7.1v.42c.14.05.23.12.3.2.17.17.18.4.19.5v9.53c-.01.13-.03.46-.47.69h-.02v.43h7.17v-1.74h-.42zM93.57 34.54v-.42h-9.26v.42c.47.17.49.52.49.7v9.53c0 .17-.02.53-.49.7v.42h2.41v-.43c-.47-.16-.49-.52-.49-.7v-9.38h5.42v9.39c0 .17-.02.53-.49.7v.42h2.41v-.43c-.47-.16-.48-.52-.48-.7v-9.52c0-.18.02-.53.48-.7zM76.9 40.3h4.96v-1.24h-4.95v1.24zM34.32 44.07c-.16.51-.54.54-.67.56 0 0-.74.07-1.67.07-.89 0-1.57-.3-2.05-.9-.47-.61-.66-1.5-.66-2.7v-2.2c0-2.4.87-3.59 2.71-3.59.8 0 1.64.08 1.64.08.13.02.5.07.67.56h.43v-1.62s-.5-.11-1.15-.2a12.1 12.1 0 00-1.6-.12 3.9 3.9 0 00-3.06 1.24c-.75.83-1.12 2.05-1.12 3.66v2.2c0 1.6.37 2.81 1.13 3.64A3.92 3.92 0 0031.97 46a12.86 12.86 0 002.79-.27v-1.66h-.44zM151.36 34.12h-2.63v.42c.35.13.52.36.31.9l-2.06 5.52s-.3-.03-.44-.3c-.17-.34-2.07-5.1-2.2-5.4-.12-.3-.03-.63.34-.72v-.42h-2.71v.42c.5.08.7.42.8.68.14.3 2.24 5.52 2.4 5.92.16.4.28.6.43.74.25.24.52.31.86.42 0 0-.3.81-.56 1.45-.28.71-.8.95-1.3.95-.18 0-.55-.11-.65-.48h-.46v1.55s.3.23 1.2.23c.77 0 1.1-.16 1.54-.46.36-.23.7-.72 1-1.4.28-.67 3.19-8.52 3.35-8.9.15-.38.33-.62.78-.7v-.42zM40.32 23.87s1.44-5.17 1.49-5.3c.04-.13.14-.2.26-.2.14 0 .23.07.28.22l1.46 5.28h-3.49zm6.04 3.92l-2.68-9.47c-.23-.8-.77-1.19-1.6-1.19-.86 0-1.4.4-1.62 1.2 0 0-2.47 8.8-2.69 9.46-.16.5-.43.68-.8.79V29h2.74v-.42s-.56-.2-.42-.78c.27-1.1.73-2.68.73-2.68h4.1l.73 2.68c.14.58-.42.78-.42.78V29h2.73v-.42c-.37-.11-.63-.29-.8-.8zM39.17 40.75s1.44-5.16 1.49-5.3c.04-.13.14-.2.27-.2s.22.07.27.22l1.46 5.28h-3.5zm6.04 3.92l-2.69-9.47c-.22-.8-.76-1.19-1.6-1.19-.84 0-1.38.4-1.61 1.2 0 0-2.47 8.8-2.68 9.46-.17.5-.44.68-.8.79v.43h2.73v-.43s-.56-.2-.42-.78c.28-1.1.73-2.67.73-2.67h4.1l.73 2.67c.14.58-.42.78-.42.78v.43h2.73v-.43c-.36-.11-.63-.28-.8-.79zM57.2 18.36c0-.18.01-.53.48-.7v-.42h-2.41v.42c.47.17.49.52.49.7v3.81h-5.42v-3.81c0-.18.02-.53.49-.7v-.42h-2.41v.42c.47.17.48.52.48.7v9.52c0 .18-.01.53-.48.7V29h2.4v-.42c-.46-.17-.48-.52-.48-.7v-4.45h5.42v4.45c0 .18-.02.53-.5.7V29h2.42v-.42c-.47-.17-.49-.52-.49-.7v-9.52zM56 35.24c0-.18.03-.53.5-.7v-.42h-2.42v.42c.47.17.5.52.5.7v3.82h-5.42v-3.82c0-.18.01-.53.48-.7v-.42h-2.4v.42c.46.17.48.52.48.7v9.53c0 .17-.02.53-.49.7v.42h2.41v-.43c-.47-.16-.48-.52-.48-.7v-4.45h5.41v4.46c0 .17-.02.53-.49.7v.42h2.42v-.43c-.47-.16-.5-.52-.5-.7v-9.52zM68.05 27.88l-4.17-5.73 3.36-3.8c.42-.47.63-.57 1.08-.7v-.41h-1.86l-4.7 5.47v-4.35c0-.18.03-.53.5-.7v-.42h-2.41v.42c.46.17.48.52.48.7v9.52c0 .18-.02.53-.48.7V29h2.4v-.42c-.46-.17-.48-.52-.48-.7v-3.34l1.15-1.3L67.08 29h2.12v-.42c-.47-.1-.79-.3-1.15-.7zM66.86 44.76l-4.17-5.72 3.37-3.8c.41-.48.63-.57 1.07-.7v-.42h-1.85l-4.7 5.47v-4.35c0-.18.02-.53.5-.7v-.42h-2.42v.42c.47.17.49.52.49.7v9.53c0 .17-.02.53-.49.7v.42h2.41v-.43c-.47-.16-.49-.52-.49-.7v-3.34l1.15-1.3 4.16 5.77h2.12v-.43c-.46-.1-.78-.29-1.15-.7zM34.66 25.63c0 .74-.24 1.29-.72 1.63-.48.35-1.2.52-2.46.52-.42 0-.95 0-1.66-.05V23.4c.7-.04 1.25-.06 1.66-.06 1.16 0 1.98.17 2.46.51.48.34.72.88.72 1.62v.16zm-3.18-3.51c-.48 0-1.04.02-1.66.06v-3.7h4.08c.18 0 .53.02.7.5h.42v-1.74H27.9v.42c.46.17.49.49.49.69v9.53c0 .18-.02.53-.49.7V29h3.66c2.99 0 4.55-1.15 4.55-3.37v-.14c0-2.25-1.54-3.37-4.62-3.37zM139.65 42.52c0 .74-.23 1.28-.71 1.62-.48.35-1.21.52-2.47.52-.42 0-.95 0-1.66-.05v-4.33c.7-.04 1.25-.06 1.66-.06 1.16 0 1.99.17 2.47.51.48.35.71.89.71 1.62v.17zM136.47 39c-.48 0-1.03.02-1.66.06v-3.7h4.09c.17 0 .53.03.69.5h.42v-1.74h-7.13v.42c.47.17.5.5.5.7v9.53c0 .17-.02.53-.5.7v.42h3.67c2.98 0 4.54-1.16 4.54-3.37v-.15c0-2.25-1.54-3.37-4.62-3.37zM68.14 34.12v1.73h.43c.16-.46.52-.48.7-.48h2.27v9.4c0 .17-.02.53-.49.7v.42h2.41v-.43c-.46-.16-.48-.52-.48-.7v-9.4h2.27c.18 0 .53.03.7.5h.42v-1.74h-8.23zM104.36 34.12v1.73h.42c.17-.46.53-.48.7-.48h2.28v9.4c0 .17-.02.53-.49.7v.42h2.41v-.43c-.47-.16-.49-.52-.49-.7v-9.4h2.28c.17 0 .53.03.7.5h.42v-1.74h-8.23zM129.78 37.65c0 .85-.23 1.45-.7 1.81-.47.36-1.23.54-2.3.54l-1.56-.08V35.3c.54-.04 1.06-.07 1.57-.07 1.05 0 1.81.18 2.28.53.47.34.71.9.71 1.69v.2zm-3-3.64a494.7 494.7 0 00-3.5.1v.43c.49.17.5.52.5.7v9.53c0 .17-.01.53-.49.7v.42h2.42v-.43c-.47-.16-.5-.52-.5-.7l.01-3.64c.68.05 1.2.08 1.57.08 2.95 0 4.43-1.18 4.43-3.55v-.2c0-2.3-1.48-3.44-4.43-3.44zM158.94 37.65c0 .85-.22 1.45-.7 1.81-.46.36-1.22.54-2.28.54l-1.57-.08V35.3c.54-.04 1.05-.07 1.57-.07 1.05 0 1.8.18 2.28.53.47.34.7.9.7 1.69v.2zm-2.98-3.64c-.44 0-1 .02-1.7.05l-1.8.06v.42c.47.17.5.52.5.7l-.01 9.53c0 .17-.02.53-.49.7v.42h2.41v-.43c-.47-.16-.49-.52-.49-.7v-3.64c.69.05 1.2.08 1.58.08 2.95 0 4.42-1.18 4.42-3.55v-.2c0-2.3-1.47-3.44-4.42-3.44zM161.89 34.12v.42c.47.17.48.52.48.7v9.53c0 .17-.01.53-.48.7v.42h2.4v-.43c-.46-.16-.48-.52-.48-.7v-9.4h3.7c.17 0 .53.03.7.5h.42v-1.74h-6.74z" clip-rule="evenodd"/>
  <path fill="url(#paint0_linear)" fill-rule="evenodd" d="M17.59 26.12a9.03 9.03 0 01-11.55 5.56 9.1 9.1 0 01-5.52-11.6 9.04 9.04 0 0111.54-5.56 9.1 9.1 0 015.53 11.6z" clip-rule="evenodd"/>
  <path fill="url(#paint1_linear)" fill-rule="evenodd" d="M18.1 37.91v.92c.01 1.75-4.03 3.18-9.03 3.2-5 .02-9.06-1.38-9.06-3.13v-.92l18.1-.07z" clip-rule="evenodd"/>
  <path fill="url(#paint2_linear)" fill-rule="evenodd" d="M18.1 37.91c0 1.75-4.04 3.19-9.03 3.2-5 .02-9.06-1.38-9.07-3.13 0-1.75 4.05-3.18 9.04-3.2 5-.02 9.06 1.39 9.06 3.13z" clip-rule="evenodd"/>
  <path fill="url(#paint3_linear)" fill-rule="evenodd" d="M0 44.95c0-.26 4.06-.51 9.05-.51 5 0 9.06.25 9.06.5v.55c0 .26-4.06.51-9.06.51-5 0-9.05-.25-9.05-.5v-.55z" clip-rule="evenodd"/>
  <defs>
    <linearGradient id="paint0_linear" x1="6.85" x2="20.7" y1="26.07" y2="7.57" gradientUnits="userSpaceOnUse">
      <stop stop-color="#C72536"/>
      <stop offset="1" stop-color="#E5762B"/>
    </linearGradient>
    <linearGradient id="paint1_linear" x1="12.12" x2="18.42" y1="39.94" y2="43.13" gradientUnits="userSpaceOnUse">
      <stop stop-color="#8F2033"/>
      <stop offset="1" stop-color="#B02837"/>
    </linearGradient>
    <linearGradient id="paint2_linear" x1="7.92" x2="11.13" y1="38.52" y2="25.34" gradientUnits="userSpaceOnUse">
      <stop stop-color="#C72536"/>
      <stop offset="1" stop-color="#EA8B31"/>
    </linearGradient>
    <linearGradient id="paint3_linear" x1="7.16" x2="6.68" y1="45.29" y2="47.84" gradientUnits="userSpaceOnUse">
      <stop stop-color="#8F2033"/>
      <stop offset="1" stop-color="#B02837"/>
    </linearGradient>
  </defs>
</svg>
