<svg xmlns="http://www.w3.org/2000/svg" fill="none" viewBox="0 0 204 60">
  <path fill="#fff" d="M35.53 28.97l.47-1.49-1.55.05c-.13 0-1.08-.03-2-.7l.21.02a2.5 2.5 0 002.23-1.38l.67-1.47c-.83.02-1.6-.09-1.6-.09s-.6-.08-1.3-.78a2.47 2.47 0 00-2.56-.65c.04-.12.07-.24.09-.37a3.28 3.28 0 00-.68-2.42l-1.16-1.43-.72 1.68s-.19.4-.51.6a3.12 3.12 0 00-.86-1.6 3.85 3.85 0 00-3.31-1.1l-1.4.27c.11-.47.3-.92.56-1.34l.77-1.2-1.94.22-.62-1.31-1.2.61L18 14l-1.1 1.1-1.2-.62-.63 1.3-1.95-.21.78 1.2c.31.49.49 1.03.57 1.34l-1.34-.26-.05-.01a3.84 3.84 0 00-3.33 1.1c-.44.44-.74 1-.86 1.6-.32-.2-.5-.59-.5-.59l-.72-1.7-1.19 1.45a3.3 3.3 0 00-.66 2.41c.02.12.05.25.09.36a2.47 2.47 0 00-2.56.65c-.7.7-1.3.79-1.29.79 0 0-.63.11-1.6.1l.65 1.46a2.5 2.5 0 002.24 1.38l.2-.01c-.57.42-1.26.66-1.98.69L0 27.48l.48 1.49c.24.76 1.04 2.03 2.57 2.17-.16.7-.53 1.48-1.35 1.81l-1.17.48.64 1.11c.36.6 1.2 1.3 2.41 1.3.27 0 .52-.03.76-.08a8 8 0 00.23.82c.36 1.06.05 1.8.05 1.81l-.58 1.21 1.3.34s.4.11.89.11c.36 0 .73-.06 1.06-.2.17.3.37.57.6.81.84.85 2.01 1.27 3.5 1.27h1.06l-2.19.9 1.67.8c.6.3 1.32.64 2.05.9l-.21.57.57.26c.05.02 1.16.52 3 .62a19.95 19.95 0 001.36 0c1.82-.11 2.92-.6 2.97-.62l.57-.26-.2-.57c.74-.27 1.49-.63 2.07-.91l1.63-.8-2.19-.9 1.07.01c1.49 0 2.66-.42 3.49-1.27.24-.24.44-.52.6-.82.34.14.7.21 1.07.21.48 0 .88-.1.89-.1l1.3-.35-.57-1.18c-.01-.03-.32-.78.04-1.84.09-.27.17-.55.23-.82.24.05.5.08.76.08.98 0 1.9-.49 2.41-1.3l.64-1.1-1.17-.48c-.82-.34-1.19-1.12-1.35-1.82 1.51-.13 2.32-1.4 2.57-2.17z"/>
  <path fill="#fff" fill-rule="evenodd" d="M20.56 17.63A5.4 5.4 0 0018 17a5.4 5.4 0 00-2.55.62 6.49 6.49 0 00-.28-.75l.27.03.28.03.12-.26.35-.75.65.34.26.13.2-.2.7-.7.71.7.2.2.26-.13.65-.34.36.75.11.26.28-.03.27-.03c-.12.27-.21.53-.28.75zm-2.56.93c-1.24 0-2.17.4-2.37.88l2.37.93 2.38-.93c-.2-.48-1.13-.88-2.38-.88zm.03 24.7h-.05c-.75 0-1.79-.15-2.29-.3l-.6 1.62c.4.14 1.74.4 2.92.4 1.17 0 2.51-.26 2.9-.4l-.6-1.62c-.5.15-1.53.3-2.28.3zm2.52-.8a13.3 13.3 0 002.02-.81l-.3.97 1.02.33c-.72.35-1.48.63-2.25.84l-.5-1.34zm-7.11-.81l.3.97-1.02.33c.61.3 1.36.6 2.25.84l.5-1.34a13.3 13.3 0 01-2.03-.8zm18.85-15.96c.12.04.25.06.37.06a1.4 1.4 0 001.22-.73s-.97-.06-2.02-1.12a1.35 1.35 0 00-.98-.44c-.47 0-.82.25-.82.25.68.36 1.07.84 1.4 1.24.27.34.5.63.83.74zm-28.58 0a1.1 1.1 0 01-.36.06 1.4 1.4 0 01-1.22-.73s.97-.06 2.01-1.12c.34-.34.69-.44 1-.44.46 0 .81.25.81.25-.68.36-1.07.83-1.4 1.23-.27.35-.5.64-.84.75z" clip-rule="evenodd"/>
  <path fill="#fff" fill-rule="evenodd" d="M32.7 30.04h-.07c-.6-.02-.91-.25-.91-.25s-.24 3.2 2.16 4.19c0 0-.44.75-1.44.75-1.21 0-1.7-.73-1.7-.73s.07.95-.36 2.23a3.74 3.74 0 000 2.64s-.28.08-.6.08c-.12 0-.25-.01-.37-.05-1-.23-1.25-1.14-1.25-1.14s.09 3.07-3.51 3.07h-.03s.32-.43.41-1.67c.17-2.27 1.72-2.59 1.72-2.59s-.82-.1-1.18-.42c-.56-.5-.52-1.09-.52-1.09a3.4 3.4 0 002.72-1.17c.69-.8.8-1.64.8-1.64s-.68.61-2 .61l-.36-.01a1.93 1.93 0 01-1.06-.45c1.37-.87 2.33-2.4 1.48-4.7-.68-1.84-2.32-3.2-3.97-4.24-.55-.35-.86-.73-.86-1.05 0-.47.42-.67.84-.86.27-.13.54-.25.71-.45.52-.6.2-1.58-.25-2.16 0 0 .15-.03.39-.03.74-.01 1.46.28 1.97.81.9.93.53 1.93.53 1.93l.24.05c.13.03.26.04.4.04h.13c1.3 0 1.89-1.35 1.89-1.35s1.38 1.7-.66 3.03c-.35.22-.5.43-.46.66l.03.15.14.02c1.42.39 2.17 1.33 3.03 2.43l.12.14a4.8 4.8 0 003.6 1.82h.02s-.45 1.4-1.77 1.4zm-2.53 1.14c.15.45.77 1.73 1.74 2.2 0 0-1.22-.73-1.77-3.6v.02c-.37-2.92-2.5-5.03-4.87-6.3l-.62-.32c.72.11 1.89.13 2.78-.65 0 0-1.37 1-4.18.1l.84.49c.8.46 1.85 1.05 2.83 1.87 3.45 3.01.98 5.96.98 5.96a3.6 3.6 0 00.93-3.8 7.03 7.03 0 011 4.02c-.09 2.32-1.37 4.32-2.72 5.94-.65.78-.79 1.74-.79 1.74s.26-.85 1.01-1.72c1.45-1.68 2.68-3.43 2.84-5.95zm-21.5 5.95C7.24 35.45 6 33.7 5.84 31.18c-.15.45-.76 1.72-1.73 2.2 0 0 1.22-.73 1.77-3.6v.02c.37-2.92 2.5-5.03 4.87-6.3l.52-.27.1-.05c-.73.11-1.89.13-2.79-.65 0 0 1.38 1 4.19.1l-.85.5c-.8.45-1.84 1.04-2.82 1.86-3.46 3.01-.99 5.96-.99 5.96a3.6 3.6 0 01-.92-3.8 7 7 0 00-1 4.02c.09 2.32 1.37 4.32 2.71 5.94a4 4 0 01.8 1.74s-.26-.85-1.01-1.72zm1.77-.98c-.36.32-1.18.42-1.18.42s1.55.32 1.72 2.6c.09 1.23.4 1.66.4 1.66h-.02c-3.6 0-3.5-3.07-3.5-3.07s-.26.9-1.26 1.14a1.4 1.4 0 01-.37.05c-.33 0-.6-.08-.6-.08s.52-1.1 0-2.64C5.19 34.95 5.26 34 5.26 34s-.48.73-1.68.73h-.01c-1 0-1.44-.75-1.44-.75 2.4-1 2.16-4.19 2.16-4.19s-.31.23-.92.25h-.06c-1.32 0-1.77-1.4-1.77-1.4h.03c.24 0 2.2-.06 3.6-1.82l.1-.14c.87-1.1 1.62-2.04 3.03-2.43l.15-.02.03-.15c.04-.23-.11-.44-.46-.66-2.04-1.33-.66-3.03-.66-3.03s.58 1.36 1.9 1.36h.12c.14-.02.27-.02.4-.05l.24-.05s-.37-1 .53-1.93a2.72 2.72 0 012.36-.78c-.45.58-.77 1.56-.25 2.16.17.2.44.32.7.45.43.2.84.39.84.86 0 .32-.3.7-.85 1.05-1.65 1.03-3.3 2.4-3.98 4.25-.85 2.3.11 3.82 1.49 4.7 0 0-.44.39-1.06.44l-.37.01c-1.31 0-2-.6-2-.6s.12.84.8 1.63a3.42 3.42 0 002.73 1.17s.04.58-.52 1.09zm6.75-10.89h1.7v.58c-.2-.24-.6-.2-.6-.2v.84s.02.41.17.59h-.84c.15-.18.16-.59.16-.59v-.83s-.39-.05-.59.19v-.58zm-1.67.29a4.41 4.41 0 00-.2-.22v-.02a2.15 2.15 0 00-1-.58l.18-.1h.01l.74-.43.74-.43L18 24.86l2.01-1.09.75.43.73.42h.01l.19.1c-.38.11-.73.32-1 .6l-.02.03c-.14.14-.26.3-.38.47l-.02.04-.18.28c-.52.9-1.35 1.43-2.09 1.43-.73 0-1.56-.54-2.08-1.43l-.01-.01c-.05-.1-.1-.18-.17-.27v-.02l-.03-.03a4.42 4.42 0 00-.18-.25l-.01-.01z" clip-rule="evenodd"/>
  <path fill="#fff" fill-rule="evenodd" d="M17.83 24.14zm0 0v-3.4l-2.17-.72.57 3.28 1.6.84zm-.46-2.01v-.55l-1-.41s.02.31.46.66c.24.18.38.23.42.24h.01l.1.06zm1.27-.55l.99-.41s0 .31-.45.66a1.33 1.33 0 01-.43.25l-.1.05v-.55zm1.7-1.56l-.57 3.28-1.6.84v-3.4l2.17-.72zm-5.58 11.97c.21.08.47.1.6.1l.02-.06.03-.12c.03-.18.05-.36.05-.54a.76.76 0 01-.28-.3c-.08-.17-.2-.25-.36-.25-.22 0-.46.14-.56.2-.08.46.27.89.5.97zm3.67-.65c.22-.22.8-.79 1.13-1.14.1.13.23.24.37.33-.07.36 0 .74.21 1.05-.33.24-1.18.86-1.49 1.07l-2.96-.53.02-.07c.05-.2.08-.4.08-.61l2.5.04.04-.05.1-.1z" clip-rule="evenodd"/>
  <path fill="#fff" fill-rule="evenodd" d="M18.28 28.04c.5-.05 1.04-.26 1.62-.82h3.74c-.16.43-.3.9-.3 1.35v2.99c-.62-.1-.7-.78-.7-.8v-.15h-.14a.95.95 0 01-.6-.3c-.32-.3-.32-.8-.32-.8v.02c-.07.11-.3.53.05.98.17.21.4.34.7.4.08.37.36.9 1.02.97v1.46H21.5c-.85-.47-.5-1.3-.48-1.33l.07-.16-.16-.06c-.92-.34-.67-1.26-.66-1.3l.04-.13-.12-.06c-.77-.35-.66-1.3-.65-1.34-.24.19-.32.57-.16.95l-.31.34-.02.01c-.8-.2-.82-.92-.82-.95v-.11l-.1-.04c-.31-.12-.52-.29-.63-.51a1 1 0 01-.04-.65c.18.04.36.06.54.06H18c.1 0 .18 0 .27-.02zm-3.4 2.44l.04-1.9.43-.45.27.56-.53 1.83-.22-.04zm1.2 5.14a.1.1 0 01-.09-.04.1.1 0 01-.02-.08.1.1 0 01.03-.07.11.11 0 01.08-.03.1.1 0 01.07.2.11.11 0 01-.08.02zm4.74 1.69a.2.2 0 00-.05-.01c-.1 0-.15.1-.15.1.07.19.09.32.1.45.02.14.04.26.12.42.1.2.28.37.38.47l.05.04-.05.3-.23 1.2-.46.04.24-1.15c.04-.17-.17-.28-.43-.42-.29-.16-.64-.35-.87-.7-.23.25-.65.33-1.07.33a5.46 5.46 0 01-1.17-.13.37.37 0 00-.34.18l-.07.12-1.25-.3-.31.52c-.05.08-.05.15.02.23l.08.1c-.05.17-.32.45-.32.45l-.18-.23c-.15-.17-.13-.47.03-.75l.5-.83 1.06.15-.17-.37c-.15-.35-.03-.76.07-1.1.04-.15.08-.28.09-.4-.02.11-.12.14-.24.14l-.17-.01-.13-.01-.07.01-.3.18-.22-.2c-.03-.04-.04-.13.03-.2l.53-.59-.62-.72.87.44.26-.32c.07.07.04.25.04.25.27.01 1.04.43 1.08 1.4v.1l.02.04c.05.07.2.26.4.28l1.2.11a.8.8 0 00.2-.05c.14-.04.32-.1.53-.1.22 0 .43.07.6.18.09-.06.19-.09.3-.1h.03c.46 0 .69.35.92.7l.14.2c.22.3.5.76.5.76-.1.12-.2.2-.37.2a.8.8 0 01-.15-.02c-.34-.06-.5-.48-.65-.84-.1-.27-.2-.5-.35-.54z" clip-rule="evenodd"/>
  <path fill="#fff" fill-rule="evenodd" d="M14.8 38.55c-.03.17-.44.4-.44.4l-.1-.27c-.11-.39-.02-.84.22-1.1l.68-.58.71.22c-.01.32.13.56.13.56l-.75-.2-.45.43c-.08.08-.09.21-.05.34l.06.2zm5.31 3.15l-.44.01.35-1.54c.04-.15-.08-.32-.2-.49l-.14-.24c.27.23.55.44.84.62l-.4 1.64z" clip-rule="evenodd"/>
  <path fill="#FFE52B" fill-rule="evenodd" d="M20.97 33.34h-8.3v-4.77c0-.46-.14-.92-.3-1.35h3.74c.36.35.7.57 1.04.69-.08.29-.06.6.06.87.13.28.37.5.7.64.06.5.4.93.88 1.1-.27.28-.53.53-.64.63l-2.48-.04a.45.45 0 01-.22-.2l.4.06h.04c.08 0 .14-.06.15-.14a.16.16 0 00-.13-.18l-.5-.08.55-1.9-.52-1.1-.84.88-.05 1.98-.57-.09a.16.16 0 10-.05.32l.24.04-.15.09-.04.03-.02.06a1.3 1.3 0 00.51 1.32l-.01.07a.32.32 0 00.62.12c.13.02.24.02.32.02h.07l3.26.59.05-.04 1.58-1.14c.1.09.2.15.31.2-.1.36-.11.9.3 1.32zm-8.3.33h10.67v4a2.5 2.5 0 01-2 2.55l.2-1.07a13.9 13.9 0 01.03-.2 1.14 1.14 0 00.4.08c.32 0 .5-.17.62-.3l.16-.2-.13-.2c-.2-.32-.42-.64-.64-.96-.26-.37-.57-.84-1.2-.84h-.05a.9.9 0 00-.27.06c-.2-.1-.4-.14-.61-.14-.26 0-.48.07-.63.12h-.03l-.07.03-1.18-.12c-.01 0-.06-.03-.12-.1l.25-.1c-.07-.85-.88-1.36-1.34-1.54a.47.47 0 00-.13-.24l-.25-.24-.22.27-.11.13-1.65-.67 1.07 1.34-.42.64c-.15.16.02.32.02.32l.43.3.46-.16h.04l-.04.24-.03.17-.78-.15-.83.46a.97.97 0 00-.32 1.18l.09.2.13.28.29-.12c-.1.32-.05.64.13.84l.18.22.23.3.26-.28c.07-.07.32-.35.4-.58l.05-.18-.13-.13-.02-.03.14-.23 1.03.24.23.05.12-.2.07-.1c.01-.03.01-.03.06-.03a2.1 2.1 0 001.88.04l.57.64-.34 1.03-.01.07c-.64.05-.95.19-1.33.56-.54-.54-.93-.6-2.4-.6-1.75 0-2.94-1.02-2.94-2.66v-4z" clip-rule="evenodd"/>
  <path fill="#1A1918" fill-rule="evenodd" d="M20.81 18.26a4.64 4.64 0 00-2.8-.86c-1.26 0-2.26.42-2.81.86 0 0-.17-.99-.73-1.86l1 .12.54-1.12 1.01.52.98-.97.99.97L20 15.4l.53 1.12 1-.12c-.55.87-.72 1.86-.72 1.86zm-5.38-1.35l.28.03.13-.26.35-.75.65.34.26.13.9-.9.71.7.2.2.26-.13.65-.34.35.75.12.26.28-.03.27-.03c-.1.24-.2.5-.28.75A5.4 5.4 0 0018 17a5.4 5.4 0 00-2.55.62 6.4 6.4 0 00-.28-.75l.26.03zm7.29 25.51l.61.23.68.26-.2.1c-.77.37-1.75.85-2.66 1.1l.23.63s-1.26.58-3.36.58h-.03c-2.1 0-3.36-.58-3.36-.58l.23-.63c-.9-.25-1.87-.72-2.63-1.09l-.24-.11.69-.26.62-.23-.18-.63-.18-.7a14.5 14.5 0 003.39 1.22v.47s.82.14 1.65.14h.05c.83 0 1.65-.14 1.65-.14v-.47s.33-.06.77-.18a14.55 14.55 0 002.62-1.03l-.18.69-.17.63zm-10 .53l1.02-.33-.3-.97c.44.25 1.44.62 2.02.8l-.49 1.34c-.77-.2-1.53-.49-2.25-.84zm7.83-.5l.48 1.34c.9-.25 1.64-.53 2.26-.84l-1.01-.33.3-.97c-.45.25-1.45.62-2.03.8zm-5.46 2.13c.4.14 1.74.4 2.92.4 1.17 0 2.51-.26 2.9-.4l-.6-1.62c-.5.15-1.53.3-2.28.3h-.05c-.75 0-1.79-.15-2.29-.3l-.6 1.62zm18.79-10.6s-.44.75-1.44.75h-.01c-1.2 0-1.69-.73-1.69-.73s.07.95-.36 2.23a3.74 3.74 0 000 2.64s-.28.08-.6.08c-.12 0-.25-.02-.37-.05-1-.23-1.26-1.14-1.26-1.14s.1 3.07-3.5 3.07h-.03s.32-.43.41-1.67c.17-2.27 1.72-2.59 1.72-2.59s-.82-.1-1.18-.42c-.56-.5-.52-1.09-.52-1.09a3.4 3.4 0 003.52-2.8s-.68.6-2 .6l-.36-.01c-.4-.04-.76-.2-1.06-.45 1.37-.87 2.34-2.4 1.48-4.7-.68-1.83-2.32-3.2-3.97-4.24-.55-.35-.86-.73-.86-1.05 0-.47.42-.67.84-.86.27-.13.54-.25.71-.45.52-.6.2-1.58-.25-2.16 0 0 .15-.03.39-.03.47 0 1.3.11 1.97.81.9.93.53 1.93.53 1.93l.24.05c.13.03.26.04.4.04h.13c1.3 0 1.89-1.35 1.89-1.35s1.38 1.7-.66 3.03c-.35.22-.5.43-.46.66l.03.15.14.02c1.42.39 2.16 1.33 3.03 2.42l.12.15a4.8 4.8 0 003.6 1.82h.02s-.45 1.4-1.77 1.4h-.07c-.6-.02-.91-.25-.91-.25s-.24 3.2 2.16 4.19zm1-5.21c-.02.07-.56 1.7-2.18 1.7h-.08c-.17 0-.33-.02-.46-.05.07.9.4 2.55 1.88 3.16l.46.19-.25.43c-.05.09-.6.96-1.82.96-.45 0-.9-.1-1.3-.3a7.57 7.57 0 01-.34 1.5 3.33 3.33 0 00-.01 2.33l.22.47-.5.13h-.02c-.08.02-.37.09-.7.09-.5 0-1-.18-1.38-.5-.14.41-.37.89-.78 1.3-.7.72-1.7 1.08-3 1.08l-.79-.01.44-.67c.01-.02.26-.42.33-1.45.1-1.26.57-2 1.05-2.42a1.85 1.85 0 01-1.03-1.68l.02-.4h.4a3 3 0 002.75-1.51 4.17 4.17 0 01-1.62.16c-.75-.07-1.25-.5-1.3-.56l-.42-.38.47-.3c1.05-.67 2.14-1.95 1.3-4.18-.53-1.46-1.77-2.77-3.8-4.04-.67-.43-1.05-.93-1.05-1.41 0-.75.63-1.04 1.09-1.25l.04-.02c.2-.1.42-.2.53-.32.35-.41.05-1.2-.28-1.62l-.42-.55.68-.14h.04a3.21 3.21 0 012.72.91c.67.69.75 1.41.72 1.88l.2.01h.07c1 0 1.47-1.04 1.49-1.09l.28-.66.45.56c.03.03.7.85.53 1.89-.1.69-.54 1.28-1.28 1.77l-.18.13c1.4.45 2.18 1.44 3 2.48l.02.02.12.15a4.35 4.35 0 003.26 1.65l.61-.02-.18.58z" clip-rule="evenodd"/>
  <path fill="#1A1918" fill-rule="evenodd" d="M11.74 40.58l.44.67h-.8c-1.3 0-2.3-.35-3-1.06-.4-.42-.64-.9-.77-1.32-.39.33-.88.5-1.38.5-.36 0-.66-.07-.71-.08L5 39.16l.22-.47c.03-.06.44-1-.01-2.32-.2-.58-.3-1.1-.35-1.5-.4.2-.84.3-1.29.3-1.24 0-1.8-.93-1.83-.97l-.24-.43.45-.19c1.5-.61 1.82-2.27 1.89-3.16-.15.03-.3.05-.46.05H3.3c-1.62 0-2.16-1.63-2.18-1.7l-.19-.58.61.02a4.35 4.35 0 003.27-1.65l.12-.15c.83-1.05 1.62-2.05 3.02-2.5a1.2 1.2 0 00-.18-.13C7.04 23.28 6.6 22.7 6.5 22c-.17-1.04.5-1.86.52-1.9l.46-.55.28.66c.02.05.5 1.1 1.5 1.1h.06l.2-.02a2.4 2.4 0 01.72-1.88 3.17 3.17 0 012.76-.9l.68.13-.42.55c-.33.42-.63 1.2-.28 1.62.11.12.32.22.53.32l.04.02c.46.2 1.09.5 1.09 1.25 0 .48-.38.98-1.06 1.41-2.02 1.27-3.26 2.58-3.8 4.04-.83 2.23.25 3.5 1.31 4.18l.47.3-.41.38a2.4 2.4 0 01-1.72.58c-.41 0-.82-.06-1.21-.18a2.99 2.99 0 002.75 1.51h.4l.02.4a1.85 1.85 0 01-1.03 1.68c.47.42.95 1.16 1.05 2.42.08 1.03.32 1.43.33 1.45zm-.38.25c-3.6 0-3.5-3.07-3.5-3.07s-.26.9-1.26 1.14c-.12.03-.25.05-.37.05-.33 0-.6-.08-.6-.08s.52-1.1 0-2.64C5.19 34.95 5.27 34 5.27 34s-.49.73-1.7.73c-1 0-1.44-.75-1.44-.75 2.4-1 2.16-4.19 2.16-4.19s-.31.23-.92.25h-.06c-1.32 0-1.77-1.4-1.77-1.4h.03c.24 0 2.2-.06 3.6-1.82l.1-.15c.87-1.09 1.62-2.04 3.03-2.42l.15-.02.03-.15c.04-.23-.11-.44-.46-.66-2.04-1.33-.66-3.03-.66-3.03s.58 1.36 1.9 1.36h.12c.14-.02.27-.02.4-.05l.24-.05s-.37-1 .53-1.93c.6-.62 1.49-.92 2.36-.78-.45.58-.77 1.56-.25 2.16.17.2.44.32.7.45.43.2.84.39.84.86 0 .32-.3.7-.85 1.05-1.65 1.03-3.3 2.4-3.98 4.25-.85 2.3.11 3.82 1.49 4.7 0 0-.44.39-1.06.44l-.37.01c-1.31 0-2-.6-2-.6s.12.84.8 1.63a3.41 3.41 0 002.73 1.17s.04.58-.52 1.1c-.36.3-1.18.41-1.18.41s1.55.32 1.72 2.6c.09 1.23.4 1.66.4 1.66h-.02zm18.78-11.04zm0 .01v-.01c.55 2.86 1.77 3.6 1.77 3.6-.97-.49-1.59-1.76-1.74-2.21-.16 2.52-1.4 4.27-2.84 5.95a5.38 5.38 0 00-1.01 1.72s.14-.96.8-1.74c1.34-1.62 2.62-3.62 2.72-5.94a7.03 7.03 0 00-1.01-4.02 3.6 3.6 0 01-.93 3.8s2.47-2.95-.98-5.96c-.98-.82-2.03-1.42-2.83-1.87a18.6 18.6 0 01-.84-.5c2.81.92 4.18-.09 4.18-.09-.9.78-2.06.76-2.78.65l.62.31c2.37 1.29 4.5 3.4 4.87 6.31zm-.29-5.71a4 4 0 011.27 1.13c.3.37.59.73 1.04.87.16.06.33.09.5.09.68 0 1.36-.42 1.61-.99l.26-.57-.62-.03c-.03 0-.84-.08-1.74-.99a1.8 1.8 0 00-1.3-.57c-.55 0-.97.26-1.05.31l-.01.01-.58.4.62.34zm1.03-.63c.3 0 .65.1.98.44a3.44 3.44 0 002.02 1.12 1.4 1.4 0 01-1.22.73c-.12 0-.25-.02-.37-.06-.33-.11-.56-.4-.84-.74-.32-.4-.71-.88-1.4-1.24 0 0 .36-.25.83-.25z" clip-rule="evenodd"/>
  <path fill="#1A1918" fill-rule="evenodd" d="M16.83 21.83a1.36 1.36 0 00.43.25l.1.05v-.55l-.98-.41s0 .31.45.66zM6.17 31.17a7.01 7.01 0 011-4.02 3.6 3.6 0 00.93 3.8S5.63 28 9.1 24.99c.98-.82 2.03-1.42 2.83-1.87.33-.19.61-.35.84-.5-2.81.92-4.19-.09-4.19-.09.9.78 2.06.76 2.78.65l-.05.03-.56.28c-2.37 1.29-4.5 3.4-4.87 6.31v-.02c-.55 2.87-1.77 3.6-1.77 3.6.97-.47 1.58-1.75 1.73-2.2.17 2.52 1.4 4.27 2.85 5.95a5.41 5.41 0 011.01 1.72s-.15-.96-.8-1.74c-1.34-1.62-2.62-3.62-2.72-5.94zM3.85 26.1c-.16.05-.33.08-.5.08-.68 0-1.36-.42-1.62-.99l-.25-.57.63-.03c.02 0 .83-.08 1.73-.99a1.8 1.8 0 011.3-.57c.56 0 .98.27 1.05.32h.01l.58.4-.62.34c-.6.31-.95.74-1.26 1.12l-.02.03c-.3.36-.59.7-1.03.86zm1.28-2.64c-.3 0-.65.1-.99.44-1.04 1.06-2 1.12-2 1.12.16.39.68.73 1.2.73.13 0 .25-.02.37-.06.33-.11.57-.4.85-.74.32-.4.71-.88 1.4-1.24 0 0-.36-.25-.83-.25zm12.06 2.38v-.58h1.7v.58c-.2-.24-.6-.2-.6-.2v.84s.02.41.17.59h-.84c.15-.18.16-.59.16-.59v-.83s-.39-.05-.59.19zm2.44-4.67s0 .31-.46.66c-.24.19-.38.23-.42.24l-.1.06v-.55l.98-.41z" clip-rule="evenodd"/>
  <path fill="#1A1918" fill-rule="evenodd" d="M18 18.04c1.55 0 2.95.74 2.95 1.57l-.03.2-.62 3.52.62.36 1.6.93s.36.19.53.3c.61.42.74 1.04.38 1.3a1.2 1.2 0 00-1.23-1.03c-.54 0-.94.27-1.28.69l-.24.33c-.1.15-.18.29-.28.41h4.13c-.3.61-.59 1.25-.59 1.95v9.1c0 2.2-1.7 3.25-3.54 3.25h-.3c-1.15 0-1.37 0-2.1.71-.72-.72-.94-.72-2.1-.71h-.3c-1.83 0-3.53-1.05-3.53-3.25v-9.1c0-.7-.3-1.34-.6-1.95h4.13a6.5 6.5 0 01-.27-.4 3.2 3.2 0 00-.25-.34c-.33-.42-.74-.7-1.27-.7a1.2 1.2 0 00-1.24 1.03c-.35-.25-.22-.87.39-1.29.17-.11.53-.3.53-.3l1.6-.93.61-.36-.61-3.52-.03-.2c0-.83 1.4-1.57 2.94-1.57zm-2.37 1.4l2.37.93 2.38-.93c-.2-.47-1.13-.88-2.38-.88-1.24 0-2.17.4-2.37.88zm2.55 4.7l1.6-.84.56-3.28-2.16.73v3.39zm2.58.06l.73.42h.01l.19.1c-.42.12-.73.33-1 .6l-.02.03c-.07.06-.13.13-.18.2l-.04.04-.16.23-.02.04c-.07.09-.12.18-.18.28-.52.9-1.35 1.43-2.09 1.43-.73 0-1.56-.54-2.08-1.43l-.18-.28-.03-.05a5.7 5.7 0 00-.37-.46l-.01-.02-.02-.01a2.15 2.15 0 00-.99-.6l.19-.1.74-.42.75-.43 2 1.09 2.01-1.09.75.43zm2.58 4.37c0-.46.14-.92.3-1.35H19.9a2.63 2.63 0 01-1.9.84c-.18 0-.36-.02-.54-.06a1 1 0 00.04.65c.1.22.32.4.63.5l.1.05v.11c.03.46.36.85.82.96l.02-.03c.12-.12.23-.23.31-.33-.16-.38-.08-.76.16-.95-.01.04-.12.99.65 1.34l.12.06-.04.13c0 .04-.26.96.66 1.3l.16.06-.07.16c-.01.03-.37.86.48 1.33h1.85v-1.46c-.66-.08-.94-.6-1.01-.97-.3-.06-.54-.19-.7-.4-.35-.45-.13-.87-.07-.98l.01-.02s0 .5.31.8c.16.17.38.27.6.3h.14l.01.14c0 .03.08.7.7.8v-2.98zm-2 11.65l.2-1.07.03-.2c.13.05.27.08.4.08.32 0 .5-.17.62-.3l.16-.19-.13-.2a19.2 19.2 0 00-.64-.97c-.25-.37-.57-.84-1.2-.84h-.05c-.1 0-.18.03-.27.06-.19-.1-.4-.14-.61-.14-.26 0-.48.07-.62.12l-.05.01a.71.71 0 01-.06.02l-1.18-.12c-.01 0-.06-.03-.12-.1l.25-.1c-.07-.85-.88-1.36-1.33-1.54a.47.47 0 00-.14-.24l-.25-.24-.22.27-.1.13-1.66-.67 1.08 1.34-.43.64c-.15.16.02.32.02.32l.44.3.45-.16h.04l-.04.24c0 .07-.02.14-.03.17l-.78-.15-.83.46a.97.97 0 00-.32 1.18l.09.2.13.28.29-.12h.01c-.1.32-.06.64.12.84l.18.22.23.3.26-.28c.07-.07.32-.35.4-.58l.05-.18-.13-.13-.02-.03.14-.23 1.03.24.23.05.12-.2.07-.1c.01-.03.01-.03.06-.03a2.08 2.08 0 001.88.04l.57.64-.33 1.03-.02.07c-.64.05-.95.19-1.32.56-.55-.54-.94-.6-2.4-.6-1.76 0-2.95-1.02-2.95-2.65v-4h10.69v4a2.5 2.5 0 01-2.02 2.55zM14.8 38.1l-.06-.14c-.03-.1-.03-.19.05-.24l.45-.31.75.14a.63.63 0 01-.13-.4l-.71-.14-.68.4a.65.65 0 00-.21.78l.09.2s.41-.17.45-.3zm6.41.99l-.23 1.2c-.15.01-.3.03-.46.03l.24-1.15c.04-.16-.17-.27-.43-.42a2.35 2.35 0 01-.87-.7c-.23.25-.65.33-1.07.33a5.48 5.48 0 01-1.17-.13.37.37 0 00-.34.18l-.07.12-1.25-.3-.32.52c-.04.08-.04.15.03.23l.08.1c-.05.17-.32.45-.32.45l-.18-.23c-.15-.17-.13-.47.03-.75l.5-.83 1.06.15-.17-.37c-.15-.35-.03-.77.07-1.1.04-.15.08-.29.09-.4-.02.11-.12.14-.23.14l-.18-.01-.13-.01-.07.01-.3.18-.22-.2c-.03-.04-.03-.13.03-.2l.53-.59-.62-.72.87.44.26-.32c.07.07.04.25.04.25.28 0 1.04.43 1.08 1.4v.1l.02.04c.05.07.2.26.4.28l1.2.11a.8.8 0 00.2-.05c.14-.04.32-.1.53-.1.18 0 .39.05.6.18 0 0 .12-.08.3-.1h.03c.46 0 .69.35.92.7l.14.2c.22.3.5.76.5.76-.1.12-.2.2-.37.2l-.15-.02c-.34-.06-.5-.48-.65-.84-.1-.27-.2-.5-.35-.54a.2.2 0 00-.05-.01c-.1 0-.15.1-.15.1.07.18.09.32.1.45.02.13.04.26.13.42.1.2.27.36.37.46l.05.05-.05.3zm-1.55 1.25l.44-.01.41-1.16c-.22-.1-.66-.33-.84-.44l.15.17c.11.12.23.24.19.34l-.35 1.1zm-4.8-9.86l.22.04.53-1.83-.27-.56-.43.45-.05 1.9zm.6.9a.76.76 0 01-.29-.3c-.08-.18-.2-.26-.36-.26-.22 0-.46.14-.55.2-.09.46.26.89.5.98.19.06.39.09.6.09l.01-.06.03-.12c.04-.19.05-.4.05-.54zm4.67.2c-.33.24-1.18.86-1.49 1.07l-2.96-.53.02-.07c.04-.16.08-.37.08-.61l2.5.04.04-.05.06-.06c.2-.2.83-.8 1.17-1.17.1.12.21.23.37.33-.05.3-.03.7.21 1.05zm-3-3.67a2.9 2.9 0 01-1.03-.7h-3.74c.16.44.3.9.3 1.36v4.78h8.3c-.41-.43-.4-.97-.3-1.32a1.37 1.37 0 01-.31-.2l-1.58 1.13-.05.04-3.26-.59h-.07c-.08 0-.2 0-.32-.02a.32.32 0 01-.56.12.31.31 0 01-.06-.24l.01-.07a1.3 1.3 0 01-.5-1.32v-.06l.05-.03.15-.1-.24-.03a.16.16 0 01-.13-.18c.01-.1.1-.16.18-.14l.57.09.05-1.98.84-.88.53 1.1-.56 1.9.5.08c.09.01.15.1.13.18a.16.16 0 01-.15.14h-.03l-.4-.07v.01l.01.02c.05.08.12.14.2.18l2.48.04.64-.62a1.34 1.34 0 01-.87-1.1 1.3 1.3 0 01-.71-.65c-.16-.35-.1-.7-.06-.87zM15.67 20l2.17.74v3.39l-1.6-.84-.57-3.28zM62.62 19.93c.4-.4.9-.6 1.51-.6.55 0 1.08.21 1.47.6.41.4.62.89.62 1.45 0 .55-.2 1.02-.62 1.42-.41.4-.9.6-1.47.6-.6 0-1.1-.2-1.51-.6-.4-.4-.6-.87-.6-1.42 0-.56.2-1.05.6-1.45zm-15.89 2.5h5.17v15.84h3.69V22.43h4.99v-3.1H46.73v3.1zm50.35 2.62h-4.05l-4.75 5.64V19.74l-3.52 1.28v17.25h3.52v-6.46l4.64 6.46h4.19l-5.22-7.11 5.19-6.11zm9.08 9.49c.24-.37.43-.8.56-1.3.13-.48.2-1 .2-1.57 0-1.21-.25-2.2-.76-2.94a2.53 2.53 0 00-2.25-1.13c-.93 0-1.64.38-2.13 1.14a5.24 5.24 0 00-.73 2.88c0 1.3.25 2.31.76 3.03.5.7 1.23 1.07 2.19 1.07a2.48 2.48 0 002.16-1.18zm2.5-7.95a5.65 5.65 0 00-2.04-1.37 7.06 7.06 0 00-2.62-.47c-.9-.01-1.79.15-2.62.47a5.87 5.87 0 00-3.4 3.53 8.49 8.49 0 00-.48 2.92c0 1.05.15 2 .46 2.85a5.73 5.73 0 003.31 3.56c.8.33 1.69.49 2.67.49a7.1 7.1 0 002.62-.48 5.82 5.82 0 003.42-3.55c.32-.86.49-1.84.49-2.92 0-1.05-.16-2-.48-2.85a6.3 6.3 0 00-1.32-2.18zm-46.32-1.57h3.55v13.25h-3.55V25.02zm10.48 1.1s1.46-1.42 4.04-1.23c2.1.16 4.51 1.38 4.51 5.54v7.84h-3.54v-7.9a2.47 2.47 0 00-2.5-2.43 2.47 2.47 0 00-2.5 2.43v7.9h-3.55V25.02h3.54v1.1zm41.02-1.37v.24h-2.13v2.72h2.13v10.56h3.55V27.7h2.12v-2.72h-2.12v-.27c0-1.83.86-2.73 2.53-2.47l.55-2.74c-5.4-.64-6.63 2.23-6.63 5.24zm9.16.24v-.24c0-3.01 1.23-5.88 6.63-5.24l-.55 2.74c-1.68-.26-2.53.64-2.53 2.47v.27h2.11v2.72h-2.12v10.56H123V27.7h-2.12v-2.72H123z" clip-rule="evenodd"/>
</svg>
