<svg xmlns="http://www.w3.org/2000/svg" fill="none" viewBox="0 0 204 60">
  <path fill="#B30064" fill-rule="evenodd" d="M0 22.52v11.92a11.63 11.63 0 009.91 6.12 6.37 6.37 0 01-6.14-6.26V20.82c0-.84.68-1.52 1.52-1.52-2.3 0-4.3.48-5.29 2.4" clip-rule="evenodd"/>
  <path fill="#B30064" fill-rule="evenodd" d="M5.29 16A5.3 5.3 0 000 21.3V23a5.95 5.95 0 015.29-3.22h3.74a1.89 1.89 0 000-3.78H5.3zm25.36 8.62c0 .9-.25 1.77-.74 2.52-.57.89-.43 1.87.44 2.36a5.96 5.96 0 013.06 5.2 5.8 5.8 0 01-5.04 5.83 9.86 9.86 0 008.81-5.94 9.7 9.7 0 00-3.24-7.15c.32-.88.49-1.83.49-2.82 0-.53-.12-1.53-.22-2.03a11.46 11.46 0 00-7.84-2.93c2.33.05 4.28 2.52 4.28 4.96z" clip-rule="evenodd"/>
  <path fill="#B30064" fill-rule="evenodd" d="M26.3 16c3.94 0 7.23 2.9 7.94 6.72a11.46 11.46 0 00-7.95-2.94h-5.8v14.17C20.5 39.5 15.9 44 10.25 44 4.65 44 .08 39.57 0 34.1a11.63 11.63 0 0010.25 6.12 6.38 6.38 0 006.47-6.27V16h9.57zm2.14 24.11c-.2.02-.41.04-.62.04h-6.1a1.89 1.89 0 100 3.78h6.1c5.2 0 9.43-4.33 9.43-9.64v-.12a9.86 9.86 0 01-8.81 5.94z" clip-rule="evenodd"/>
  <path fill="#010101" fill-rule="evenodd" d="M47.3 41.9c.14 0 .17-.01.17-.14V40.2c.3.06.62.1.94.1 1.33 0 1.95-1 1.95-2.24 0-1.24-.54-2.24-2.1-2.24-.63 0-1.25.11-1.84.34a.24.24 0 00-.16.26v5.35c0 .11.05.13.17.13h.86zm.17-4.95c.2-.06.41-.09.63-.09.62 0 .99.3.99 1.2 0 .88-.38 1.22-.94 1.22-.23 0-.46-.03-.68-.09v-2.24zm7.12 1.46c.39 0 .62-.17.62-.74 0-1.17-.68-1.85-1.94-1.85-1.25 0-2.06.84-2.06 2.28 0 1.54.7 2.22 2.14 2.22a2.9 2.9 0 001.46-.37c.08-.05.12-.1.08-.2l-.27-.58c-.04-.1-.07-.1-.2-.06-.3.12-.63.2-.96.2-.55 0-.97-.2-1-.9h2.13zm-.55-.76H52.5a.83.83 0 01.8-.84c.59 0 .74.36.74.84z" clip-rule="evenodd"/>
  <path fill="#010101" d="M57.22 40.13h-.9c-.1 0-.15 0-.15-.13v-4.04c0-.12.05-.13.15-.13h.9c.11 0 .15 0 .15.13v1.42h.39c.3 0 .54-.09.69-.55l.29-.9a.13.13 0 01.14-.1h.92c.1 0 .1.09.1.13l-.3 1.08a1.02 1.02 0 01-.6.75.91.91 0 01.72.75l.42 1.43c0 .04.03.14-.1.14h-.96a.13.13 0 01-.14-.1l-.4-1.26a.64.64 0 00-.68-.47h-.48v1.7c0 .12-.05.13-.15.13"/>
  <path fill="#010101" fill-rule="evenodd" d="M61.13 38.08c0 1.42.63 2.25 2.06 2.25h.02c1.42 0 2.11-.88 2.11-2.27 0-1.4-.72-2.24-2.1-2.24-1.3 0-2.09.84-2.09 2.26zm1.25-.02c0-.75.28-1.23.86-1.23l-.01.02c.62 0 .82.57.82 1.25s-.24 1.21-.83 1.21c-.6 0-.84-.43-.84-1.25z" clip-rule="evenodd"/>
  <path fill="#010101" d="M67.1 40.13h-.83c-.12 0-.18-.04-.18-.17v-3.98c0-.11.06-.16.18-.16h.83c.16 0 .2.03.2.16v1.4h1.54v-1.4c0-.11.05-.16.18-.16h.83c.16 0 .19.03.19.16v3.98c0 .14-.03.17-.19.17h-.82c-.14 0-.19-.04-.19-.17v-1.63H67.3v1.65c0 .14-.03.16-.18.16v-.01zm7.08-1.06c.14-.05.18-.05.22.07l.23.62c.05.1.06.16-.06.23-.48.23-1 .35-1.53.34-1.3 0-2-.76-2-2.23 0-1.4.8-2.28 2.07-2.28.45 0 .9.1 1.31.28.14.07.15.1.1.23l-.24.64c-.05.12-.1.11-.26.07a2.78 2.78 0 00-.82-.15c-.66 0-.9.56-.9 1.21 0 .65.2 1.16.93 1.16.32 0 .65-.07.95-.19zm3.55-2.27v3.17c0 .14-.04.16-.2.16h-.82c-.14 0-.19-.04-.19-.16V36.8h-1.18c-.12 0-.16-.06-.16-.18v-.6c0-.15.02-.2.16-.2h3.59c.13 0 .16.05.16.2v.6c0 .11-.04.17-.16.17h-1.2z"/>
  <path fill="#010101" fill-rule="evenodd" d="M81.18 41.9c.15 0 .17-.01.17-.14V40.2c.3.06.62.1.94.1 1.33 0 1.95-1 1.95-2.24 0-1.24-.53-2.24-2.1-2.24-.63 0-1.25.11-1.84.34a.24.24 0 00-.16.26v5.35c0 .11.05.13.17.13h.87zm.17-4.95c.2-.06.42-.09.63-.09.62 0 1 .3 1 1.2 0 .88-.39 1.22-.94 1.22-.23 0-.46-.03-.69-.09v-2.24z" clip-rule="evenodd"/>
  <path fill="#010101" d="M87.9 40.83a1.37 1.37 0 01-1.5 1.05c-.27 0-.55-.04-.82-.12-.13-.03-.16-.06-.13-.18l.14-.64c.03-.14.06-.13.18-.1.14.02.27.04.4.04.4 0 .6-.1.72-.48l.15-.44h-.24c-.24 0-.34-.06-.43-.34l-1.26-3.64c-.04-.11.02-.16.1-.16h.98c.16 0 .2.03.24.15l.47 1.66.4 1.42h.05l.42-1.45.5-1.61c.03-.12.06-.16.23-.16h.99c.09 0 .12.04.09.13l-1.68 4.89v-.02zm3.2-.7h-.9c-.1 0-.15 0-.15-.13v-4.04c0-.12.05-.13.15-.13h.9c.11 0 .15 0 .15.13v1.42h.4c.28 0 .53-.09.68-.55l.3-.9a.13.13 0 01.13-.1h.93c.1 0 .1.09.1.13l-.31 1.08a1.02 1.02 0 01-.59.75.92.92 0 01.72.76l.42 1.42c0 .04.02.14-.1.14h-.96a.13.13 0 01-.14-.1l-.4-1.26a.64.64 0 00-.68-.47h-.48v1.7c0 .12-.04.13-.14.13l-.02.02zm7.89-.96l.39.03c.23 0 .27.16.26.34l-.09 1.74a.1.1 0 01-.03.1.11.11 0 01-.1.02h-.73c-.1 0-.13-.04-.14-.13l-.04-1.13H95.5c-.39 0-.49-.21-.49-.51v-3.66c0-.1.06-.15.18-.15h.86c.15 0 .16.03.16.15v3.2h1.56v-3.2c0-.1.05-.15.18-.15h.87c.13 0 .16.03.16.15l.01 3.2zm1.81-3.2c0-.1.04-.14.15-.14h.88c.14 0 .16.02.16.13v2.51h.04c.44-.7.5-.83.65-1.05l.83-1.32a.5.5 0 01.51-.27h.4c.31 0 .47.1.47.46V40c0 .1-.04.13-.14.13h-.9c-.13 0-.16 0-.16-.13v-2.46h-.04l-.72 1.14c-.24.37-.5.8-.77 1.18a.49.49 0 01-.51.28h-.39c-.38 0-.46-.16-.46-.46v-3.72zm4.96 0c0-.1.04-.14.15-.14h.88c.14 0 .16.02.16.13v2.51h.04c.43-.7.5-.83.65-1.05l.83-1.32a.5.5 0 01.51-.27h.4c.31 0 .47.1.47.46V40c0 .1-.04.13-.15.13h-.9c-.12 0-.15 0-.15-.13v-2.46h-.04l-.72 1.14c-.24.37-.5.8-.77 1.18a.49.49 0 01-.51.28h-.4c-.37 0-.45-.16-.45-.46v-3.72zm8.26 0c0-.1.04-.14.15-.14h.89c.13 0 .16.02.16.13v2.51h.04l.64-1.05.83-1.32a.5.5 0 01.52-.27h.4c.3 0 .46.1.46.46V40c0 .1-.04.13-.14.13h-.9c-.12 0-.16 0-.16-.13v-2.46h-.04c-.25.38-.47.77-.71 1.14-.24.37-.5.8-.77 1.18a.49.49 0 01-.52.28h-.39c-.38 0-.46-.16-.46-.46v-3.72z"/>
  <path fill="#010101" fill-rule="evenodd" d="M122.5 41.9c.15 0 .17-.01.17-.14V40.2c.3.06.62.1.94.1 1.33 0 1.95-1 1.95-2.24 0-1.24-.54-2.24-2.1-2.24-.63 0-1.25.11-1.84.34a.24.24 0 00-.16.26v5.35c0 .11.05.13.17.13h.87zm.17-4.95c.2-.06.42-.09.63-.09.62 0 1 .3 1 1.2 0 .88-.39 1.22-.94 1.22-.23 0-.47-.03-.69-.09v-2.24zm5.68 3.37c.6.01 1.2-.1 1.75-.3a.3.3 0 00.18-.31v-2.38c0-.99-.56-1.5-1.75-1.5-.55-.01-1.09.07-1.6.24-.09.03-.12.07-.09.19l.14.57c.02.1.06.14.2.1.39-.09.78-.14 1.17-.15.62 0 .72.28.72.58v.13h-.9c-1.2 0-1.75.62-1.75 1.47 0 .76.43 1.36 1.93 1.36zm.07-2.03h.65v1c-.22.06-.45.1-.68.1-.44 0-.72-.14-.72-.52 0-.52.45-.58.75-.58z" clip-rule="evenodd"/>
  <path fill="#010101" d="M132.02 37c-.13.04-.17.02-.2-.05l-.2-.56c-.05-.13-.06-.17.07-.23.5-.22 1.05-.34 1.6-.34 1.03 0 1.68.37 1.68 1.16a1.13 1.13 0 01-.63.94v.04c.44.12.75.52.76.97 0 .93-.9 1.38-1.96 1.38a4.48 4.48 0 01-1.67-.29c-.12-.06-.1-.12-.08-.2l.22-.6c.03-.08.07-.1.22-.06.39.11.78.18 1.19.2.64 0 .86-.27.86-.54s-.28-.44-.96-.45c-.2 0-.31-.08-.31-.26v-.25c0-.19.12-.25.32-.26.55-.03.8-.18.8-.43s-.3-.36-.69-.36c-.34.02-.68.08-1 .18"/>
  <path fill="#010101" fill-rule="evenodd" d="M139.65 37.77c.44.15.72.57.69 1.02 0 .8-.69 1.33-1.6 1.33h-1.91c-.39 0-.5-.14-.5-.42v-3.42c0-.28.08-.46.46-.46h1.94c.78 0 1.42.3 1.42 1.1a.94.94 0 01-.49.81v.04zm-2.14-.34h1a.35.35 0 00.38-.36.35.35 0 00-.1-.24.34.34 0 00-.24-.1h-1.03v.7zm0 .8h1.04a.46.46 0 01.52.47.47.47 0 01-.53.49h-1.03v-.97z" clip-rule="evenodd"/>
  <path fill="#010101" d="M141.3 35.96c0-.1.04-.13.14-.13h.9c.13 0 .15.02.15.13v2.51h.04c.43-.7.5-.83.65-1.05l.82-1.32a.5.5 0 01.52-.27h.4c.3 0 .47.1.47.46V40c0 .1-.04.13-.15.13h-.9c-.12 0-.15 0-.15-.13v-2.46h-.03l-.72 1.14c-.24.37-.5.8-.77 1.18a.48.48 0 01-.51.28h-.4c-.39 0-.47-.16-.47-.46v-3.72zm7.5.84v3.17c0 .14-.04.16-.2.16h-.82c-.14 0-.19-.04-.19-.16V36.8h-1.18c-.12 0-.16-.06-.16-.18v-.6c0-.15.02-.2.16-.2H150c.13 0 .16.05.16.2v.6c0 .11-.04.17-.16.17h-1.2zm2.4-.84c0-.1.05-.13.16-.13h.88c.13 0 .16.02.16.13v2.51h.04c.43-.7.5-.83.65-1.05l.82-1.32a.49.49 0 01.52-.27h.4c.31 0 .47.1.47.46V40c0 .1-.04.13-.15.13h-.9c-.12 0-.16 0-.16-.13v-2.46h-.04c-.25.38-.47.77-.71 1.14-.24.37-.5.8-.77 1.18a.49.49 0 01-.51.28h-.39c-.38 0-.46-.16-.46-.46v-3.72z"/>
  <path fill="#010101" fill-rule="evenodd" d="M158.44 38.5h.65l-.03 1.5c0 .1.02.13.16.13h.86c.11 0 .17-.03.17-.13v-3.86c-.03-.2-.18-.32-.47-.32h-1.86c-.93 0-1.5.56-1.5 1.3a1.02 1.02 0 00.75 1.1.86.86 0 00-.64.66 80.8 80.8 0 00-.36 1.15v.02c0 .04.03.08.12.08h.83c.11 0 .24-.02.28-.18l.1-.34.2-.63c.11-.4.36-.48.74-.48zm.65-.8h-.86c-.4 0-.6-.19-.6-.48a.5.5 0 01.18-.37.5.5 0 01.4-.12h.88v.97z" clip-rule="evenodd"/>
  <path fill="#010101" d="M54.4 20.13c.17 0 .22.1.17.24l-2.94 8.04c-.51 1.43-1.31 1.91-2.79 1.91-.46 0-.92-.06-1.37-.2-.24-.07-.3-.1-.26-.3l.23-1.18c.05-.2.12-.18.35-.16.26.04.52.06.78.06.65 0 .95-.07 1.17-.7l.23-.64h-.37c-.45 0-.6-.1-.8-.6l-2.52-6.2c-.08-.18.03-.27.2-.27h1.66c.35 0 .4.06.47.28l1.06 2.88.8 2.33h.1l.76-2.45.9-2.74c.09-.24.15-.3.44-.3h1.72z"/>
  <path fill="#010101" fill-rule="evenodd" d="M57.13 33.07c.26 0 .3-.02.3-.24v-2.69c.54.12 1.08.18 1.62.17 2.3 0 3.36-1.68 3.36-3.84s-.91-3.86-3.62-3.86a8.24 8.24 0 00-3.16.56.42.42 0 00-.28.44v9.22c0 .2.08.24.3.24h1.48zm.3-8.54c.35-.1.71-.15 1.08-.16v.02c1.07 0 1.71.5 1.71 2.03 0 1.54-.65 2.12-1.6 2.12-.4 0-.8-.05-1.2-.15v-3.86zm9.51 5.86a7.82 7.82 0 003.03-.52h-.01a.51.51 0 00.3-.56v-4.1c0-1.71-.96-2.6-3.02-2.6a8.53 8.53 0 00-2.75.42c-.14.07-.2.15-.14.34l.25.95c.02.18.1.24.34.18a9.37 9.37 0 012.02-.26c1.05 0 1.24.5 1.24 1.01v.23h-1.57c-2.05 0-3.02 1.07-3.02 2.53 0 1.36.76 2.38 3.33 2.38zm.1-3.53h1.13v1.73c-.39.12-.79.18-1.19.18-.75 0-1.24-.24-1.24-.89 0-.92.77-1.02 1.3-1.02z" clip-rule="evenodd"/>
  <path fill="#010101" d="M78.46 22.61c.68 0 .86.27.86.86v6.3c0 .22-.08.26-.35.26h-1.44c-.26 0-.34-.07-.34-.28v-5.47h-1.74l-.04.73c-.2 3.3-.44 4.64-2.67 5.32-.26.08-.34 0-.43-.17l-.38-.96c-.1-.24-.1-.32.15-.44 1.03-.47 1.22-.9 1.4-3.77l.1-1.55c.03-.62.26-.83.9-.83h3.98z"/>
  <path fill="#010101" fill-rule="evenodd" d="M80.96 29.21c0 .5.16.82.9.82l3.17-.01c1.59 0 2.82-1.1 2.82-2.56 0-.75-.24-2.55-3.05-2.55h-1.75v-2.03c0-.23-.07-.27-.34-.27h-1.43c-.21 0-.31.07-.31.27v6.33zm2.08-2.72h1.7a.93.93 0 01.94.57.9.9 0 01.06.38.92.92 0 01-.63.93.95.95 0 01-.4.05h-1.67v-1.93z" clip-rule="evenodd"/>
  <path fill="#010101" d="M94.64 28.2c.24-.08.3-.08.37.13l.4 1.06c.08.18.1.28-.1.4-.82.4-1.73.6-2.65.58-2.23 0-3.43-1.3-3.43-3.85 0-2.41 1.37-3.91 3.56-3.91.78 0 1.55.16 2.26.48.24.11.25.17.16.4l-.4 1.08c-.1.22-.2.2-.45.13a4.75 4.75 0 00-1.42-.25c-1.13 0-1.55.96-1.55 2.08 0 1.11.34 2 1.6 2a4.9 4.9 0 001.64-.34v.01zm3.84 1.83h-1.56c-.17 0-.26-.03-.26-.23v-6.97c0-.2.1-.22.26-.22h1.56c.19 0 .26.03.26.22v2.46h.69c.5 0 .93-.16 1.18-.95l.47-1.55a.22.22 0 01.25-.18h1.59c.18 0 .18.16.16.24l-.52 1.85a1.76 1.76 0 01-1.03 1.3v.03c.82.21 1.03.68 1.23 1.3l.72 2.45c0 .08.05.25-.18.25h-1.65a.23.23 0 01-.24-.17l-.69-2.18a1.1 1.1 0 00-1.2-.8h-.81v2.93c0 .2-.07.23-.26.23h.03zm6.48-7.2c0-.16.07-.22.25-.22h1.54c.22 0 .27.05.27.23v4.33h.07c.74-1.22.87-1.45 1.12-1.81l1.43-2.28a.85.85 0 01.88-.46h.69c.53 0 .8.17.8.79v6.4c0 .18-.07.23-.26.23h-1.54c-.22 0-.28-.03-.28-.23v-4.26h-.07c-.43.66-.81 1.32-1.23 1.95-.41.64-.87 1.36-1.33 2.04a.84.84 0 01-.88.47h-.69c-.66 0-.8-.27-.8-.8l.03-6.37z"/>
  <path fill="#010101" fill-rule="evenodd" d="M114.88 20.23c.58.86 1.51 1.65 2.64 1.65 1.02 0 1.95-.54 2.83-1.7l.01-.02c.05-.08.11-.16-.06-.32l-.54-.46-.01-.01c-.1-.08-.15-.11-.33.04-.9.86-1.36.99-1.82.99-.55 0-1.17-.36-1.77-.97a1.01 1.01 0 01-.05-.04c-.09-.08-.13-.12-.3 0l-.55.53c-.17.14-.1.25-.05.3zm-.57 2.33c-.18 0-.26.06-.26.23l-.03 6.37c0 .53.14.8.8.8h.69a.84.84 0 00.88-.47l.88-1.33.45-.7.6-.94.63-1.02h.07v4.26c0 .2.06.23.28.23h1.54c.18 0 .26-.05.26-.23v-6.4c0-.62-.27-.8-.8-.8h-.7a.85.85 0 00-.88.47l-1.43 2.28c-.18.26-.3.46-.63 1.01l-.49.8h-.07v-4.33c0-.19-.04-.23-.27-.23h-1.52zm12.1-1.47v8.09c0 .6.18.85.87.85h3.58c1.94 0 3.44-1.32 3.44-3.12 0-.96-.23-3.2-3.63-3.2h-2.06v-1.74h4.3c.2 0 .25-.07.25-.27v-1.26c0-.24-.04-.31-.26-.31h-5.57c-.68 0-.91.31-.91.96zm2.2 4.42h2.06v-.02c.36-.03.72.09.98.34.27.24.4.6.4.95a1.3 1.3 0 01-1.37 1.36h-2.07v-2.63zm10.23 4.88a7.83 7.83 0 003.03-.52h-.01a.51.51 0 00.3-.56v-4.1c0-1.71-.96-2.6-3.02-2.6a8.53 8.53 0 00-2.74.42c-.15.07-.2.15-.15.34l.24.95c.03.18.1.24.34.18a9.38 9.38 0 012.02-.27c1.06 0 1.25.5 1.25 1.02v.23h-1.58c-2.04 0-3.02 1.07-3.02 2.53 0 1.36.76 2.38 3.34 2.38zm.1-3.53h1.13v1.73c-.38.12-.78.18-1.19.18-.75 0-1.24-.24-1.24-.89 0-.92.77-1.02 1.3-1.02z" clip-rule="evenodd"/>
  <path fill="#010101" d="M146.34 30.03h-1.43c-.21 0-.31-.07-.31-.28v-6.87c0-.2.1-.27.31-.27h1.43c.27 0 .34.04.34.27v2.41h2.68v-2.41c0-.2.08-.27.31-.27h1.43c.27 0 .31.04.31.27v6.87c0 .24-.04.28-.31.28h-1.43c-.23 0-.31-.07-.31-.28V26.9h-2.68v2.85c0 .24-.05.28-.34.28zm8.34 0h-1.56c-.17 0-.26-.02-.26-.22v-6.97c0-.2.09-.23.26-.23h1.56c.18 0 .25.03.25.23v2.46h.7c.5 0 .92-.16 1.18-.95l.5-1.56a.22.22 0 01.25-.18h1.58c.19 0 .19.16.17.24l-.53 1.85a1.77 1.77 0 01-1.03 1.3v.03c.83.21 1.03.68 1.24 1.3l.72 2.45c0 .08.05.25-.18.25h-1.65a.23.23 0 01-.24-.17l-.69-2.18a1.1 1.1 0 00-1.2-.8h-.82v2.93c0 .2-.07.22-.25.22"/>
</svg>
