<svg xmlns="http://www.w3.org/2000/svg" fill="none" viewBox="0 0 204 60">
  <path fill="#000" d="M1.54 22.66h9.16v2.1H3.96v3.52h2.42c1.72 0 3.04.34 3.96 1.02.92.67 1.38 1.73 1.38 3.18 0 .8-.13 1.49-.4 2.06a3.8 3.8 0 01-1.12 1.42c-.48.36-1.06.63-1.74.8-.67.16-1.41.24-2.24.24H1.54V22.66zm2.42 7.7v4.56h2.26a4.2 4.2 0 002.2-.5c.55-.35.82-.96.82-1.84 0-.76-.25-1.32-.74-1.68a3.64 3.64 0 00-2.16-.54H3.96zm15.92 4.82a3.49 3.49 0 01-2.02 1.84c-.36.12-.78.18-1.26.18-.46 0-.88-.07-1.26-.2-.39-.12-.73-.3-1.02-.56-.28-.25-.5-.57-.68-.94a3.43 3.43 0 01-.24-1.32c0-1.13.42-1.98 1.26-2.54a6.27 6.27 0 013.56-.86h1.58v-.64c0-.68-.18-1.15-.52-1.4-.35-.27-.92-.4-1.72-.4-.68 0-1.32.1-1.92.3-.59.19-1.1.4-1.56.66v-1.94a8.42 8.42 0 013.86-.94c1.33 0 2.36.28 3.08.84.73.55 1.1 1.43 1.1 2.64v5.84l.02.46a56.75 56.75 0 00.08.8h-2.14a9.14 9.14 0 01-.18-1.68l-.02-.14zm-2.64.22c.5 0 .9-.1 1.22-.3A2.82 2.82 0 0019.8 33v-.7h-1.44c-.92 0-1.6.15-2.02.44-.43.28-.64.68-.64 1.2 0 .45.12.81.38 1.08.26.25.65.38 1.16.38zm14.08-2.78h-4.38V37h-2.32V26.62h2.32v4.12h4.38v-4.12h2.32V37h-2.32v-4.38zm8.14.16h-.9V37h-2.32V26.62h2.32v4.28h.98l3.3-4.28h2.44l-3.92 5L45.44 37H42.7l-3.24-4.22z" opacity=".8"/>
</svg>
