<svg xmlns="http://www.w3.org/2000/svg" fill="none" viewBox="0 0 204 60">
  <path fill="#004279" fill-rule="evenodd" d="M0 11.28A1.27 1.27 0 011.25 10h37.49a1.27 1.27 0 011.25 1.28v37.44A1.27 1.27 0 0138.74 50H1.25A1.27 1.27 0 010 48.72V11.28z" clip-rule="evenodd"/>
  <path fill="#fff" d="M17.12 17.8a.14.14 0 00.14-.22l-.3-.6a.4.4 0 00-.33-.21H6.05a.14.14 0 00-.13.21l.29.6a.4.4 0 00.33.22h10.58zM17.94 19.03a.4.4 0 00-.33-.22H7.03a.14.14 0 00-.14.22l.29.6a.4.4 0 00.34.21h10.57a.14.14 0 00.14-.21l-.29-.6zM18.92 21.08a.41.41 0 00-.33-.21H8a.14.14 0 00-.14.2l.29.61a.4.4 0 00.33.21h10.58a.14.14 0 00.14-.21l-.29-.6zM19.9 23.15a.4.4 0 00-.34-.22H8.98a.14.14 0 00-.13.22l.29.6a.4.4 0 00.33.21h10.58a.14.14 0 00.13-.21l-.28-.6zM20.88 25.19a.4.4 0 00-.34-.21H9.96a.14.14 0 00-.16.13c0 .03.01.05.03.08l.29.6a.4.4 0 00.33.21h10.58a.14.14 0 00.13-.2l-.28-.61zM21.86 27.24a.41.41 0 00-.34-.21H10.95a.14.14 0 00-.13.21l.27.6a.4.4 0 00.34.21h10.58a.14.14 0 00.13-.21l-.28-.6zM22.85 29.3a.41.41 0 00-.35-.2H11.92a.14.14 0 00-.16.13c0 .03 0 .05.02.08l.3.6a.4.4 0 00.33.2h10.58a.13.13 0 00.13-.2l-.27-.61z"/>
  <path fill="#EE3444" fill-rule="evenodd" d="M33.56 30.11a2.57 2.57 0 100-5.13 2.57 2.57 0 000 5.13z" clip-rule="evenodd"/>
  <path fill="#fff" d="M19.8 15.74a.23.23 0 00.24-.23v-.56a.24.24 0 00-.23-.24H3.39a.24.24 0 00-.23.24v.56a.23.23 0 00.23.23h16.42zM12.8 31.14a.14.14 0 00-.13.2l6.68 13.86a.13.13 0 00.25 0l6.1-12.83a.4.4 0 01.34-.22h9.85a.23.23 0 00.24-.23v-.55a.23.23 0 00-.24-.23H12.8zM35.9 14.71h-8.46a.24.24 0 00-.23.24v.56a.23.23 0 00.23.23h1.25c.32.02 2.12.03 1.43 2.13L24.49 29.9a.14.14 0 000 .15.14.14 0 00.13.06h1.92a.41.41 0 00.34-.21l6.08-12.7c.2-.49.55-.9 1-1.16a3.44 3.44 0 011.56-.32h.38a.24.24 0 00.23-.23v-.54a.24.24 0 00-.23-.24z"/>
  <path fill="#004279" d="M78.71 31.45h-1.67a.15.15 0 00-.14.15v3.73h-4.91V31.6a.16.16 0 00-.15-.14h-1.67a.16.16 0 00-.14.14v9.07a.16.16 0 00.15.15h1.66a.16.16 0 00.15-.15v-3.82h4.9v3.82a.16.16 0 00.15.15h1.66a.16.16 0 00.17-.15V31.6a.16.16 0 00-.14-.15h-.02zM54.82 39.06a1.22 1.22 0 01-.9.25h-2.98c-.2 0-.49 0-.6-.15 0-.02-.06-.08-.06-.47v-1.84h3.63c.32-.04.64.05.9.23a1.2 1.2 0 01.28.94v.04c0 .28 0 .73-.27.99v.01zm1.77-3.02c-.39-.47-.97-.7-1.76-.7h-4.55v-1.87a.56.56 0 01.12-.4c.15-.08.3-.11.47-.1h4.65a.16.16 0 00.15-.15V31.6a.16.16 0 00-.15-.16H49.7a1.25 1.25 0 00-1.38 1.41v6.68a1.16 1.16 0 001.3 1.3h5.22a2.22 2.22 0 001.71-.63c.36-.4.54-1.11.54-2.12 0-.94-.16-1.6-.5-2.03zM61.53 36.85l1.51-3.67s.12-.31.26-.31c.15 0 .26.31.26.31l1.51 3.67h-3.54zm7.01 3.76l-3.47-8.17c-.37-.8-.85-1.08-1.75-1.08s-1.38.26-1.76 1.08l-3.49 8.15v.08a.16.16 0 00.16.15h1.55a.16.16 0 00.14-.08l.97-2.36h4.78l.97 2.36a.16.16 0 00.14.09h1.59a.16.16 0 00.15-.16v-.05l.02-.01zM89.7 40.56l-4.4-3.76c-.21-.18-.6-.51-.6-.8 0-.18.23-.42.49-.65l4.01-3.64a.15.15 0 00-.1-.26h-2.01a.16.16 0 00-.09.03l-3.79 3.45c-.14.13-.26.28-.36.44V31.6a.15.15 0 00-.14-.14h-1.67a.15.15 0 00-.14.14v9.07a.16.16 0 00.14.15h1.67a.15.15 0 00.14-.14v-4.02c.13.23.3.43.5.6l4.1 3.53c.03.02.06.03.1.03h2.05a.16.16 0 00.14-.18.16.16 0 00-.04-.08zM157.28 20.38c.01-.35-.06-.7-.2-1.03-.25-.46-.7-.7-1.35-.7-.73 0-1.17.28-1.67 1.07l-3.91 6.06c-.05.09-.1.19-.16.19h-.04-.03a.55.55 0 01-.04-.32V18.8a.15.15 0 00-.05-.1.15.15 0 00-.1-.04h-1.66a.15.15 0 00-.1.04.15.15 0 00-.04.1v7.58c0 .49 0 1.64 1.5 1.64a1.6 1.6 0 001.58-.89l4-6.14c.08-.13.18-.29.24-.29s.07.03.07.24v6.94c0 .04.02.07.05.1.02.03.06.04.1.04h1.65c.04 0 .07-.01.1-.04a.17.17 0 00.04-.1v-7.5h.02zM54.82 26.2c-.27.31-.78.31-1.02.31h-2.9a.77.77 0 01-.52-.12.84.84 0 01-.1-.5v-1.84h3.65a1.1 1.1 0 01.94.36c.15.28.21.59.2.9.01.31-.07.63-.24.9h-.01zm-4.54-3.66v-1.92a.54.54 0 01.11-.36.42.42 0 01.31-.09h3.03c.3-.04.61.04.86.22a1.25 1.25 0 01.31.94c0 .59-.12.81-.19.9-.23.3-.6.3-.94.3h-3.49zm6.3 1.2c-.23-.25-.54-.41-.87-.47.29-.08.54-.24.73-.47.35-.42.52-.98.47-1.53 0-.6-.06-1.48-.63-2.03-.51-.5-1.23-.57-1.8-.57h-4.76a1.36 1.36 0 00-1.07.4c-.22.3-.33.64-.31 1v6.58c-.02.36.1.71.34.99.37.4.79.39 1.22.39h4.78c.63 0 1.25 0 1.82-.63.56-.63.57-1.37.57-1.98 0-.51 0-1.2-.48-1.7v.01zM61.08 20.82c.62-.75 1.66-.75 2.41-.75.91 0 1.85.06 2.43.75.4.49.59 1.29.59 2.52 0 1.24-.2 2.02-.6 2.5-.62.77-1.7.77-2.42.77-1.16 0-1.88-.12-2.41-.76-.42-.51-.6-1.29-.6-2.5 0-1.23.17-2.02.6-2.53zm6.33-1.27c-1.07-1-2.78-1-3.9-1-1.2 0-2.82 0-3.91 1-1.09 1-1.14 2.45-1.14 3.8 0 1.02 0 2.74 1.14 3.79 1.08 1 2.78 1 3.9 1 1.13 0 2.85 0 3.9-1 1.12-1.05 1.12-2.98 1.12-3.8 0-1.28-.13-2.87-1.11-3.8zM92.72 20.82c.63-.75 1.67-.75 2.42-.75.9 0 1.84.06 2.42.75.4.49.6 1.29.6 2.52 0 1.24-.2 2.02-.6 2.5-.63.77-1.7.77-2.42.77-1.17 0-1.88-.12-2.42-.76-.42-.51-.6-1.29-.6-2.5 0-1.23.18-2.02.6-2.53zm6.33-1.27c-1.07-1-2.77-1-3.9-1-1.18 0-2.82 0-3.9 1-1.09 1-1.15 2.45-1.15 3.8 0 1.02 0 2.74 1.15 3.79 1.08 1 2.78 1 3.9 1s2.85 0 3.9-1c1.1-1.05 1.1-2.98 1.1-3.8 0-1.28-.12-2.87-1.1-3.8zM135.21 26.51h-5.08c-.2.03-.4 0-.57-.1a.4.4 0 01-.12-.31v-2.05h4.7a.16.16 0 00.14-.15v-1.21a.16.16 0 00-.15-.15h-4.7v-1.85c0-.07 0-.15.02-.22a.49.49 0 01.11-.18.7.7 0 01.46-.12h5.14a.15.15 0 00.15-.15v-1.2a.15.15 0 00-.04-.12.16.16 0 00-.1-.04h-6.13a1.58 1.58 0 00-1.21.37c-.23.29-.36.64-.35 1.01v6.55a1.42 1.42 0 00.38 1.13c.34.31.73.31 1.15.31h6.2c.04 0 .08-.02.1-.05a.16.16 0 00.05-.1v-1.22a.15.15 0 00-.04-.1.16.16 0 00-.1-.05zM166.82 26.51h-5.08c-.2.03-.4 0-.57-.1a.41.41 0 01-.12-.31v-2.05h4.7a.16.16 0 00.14-.15v-1.21a.16.16 0 00-.15-.15h-4.7v-1.85c0-.07 0-.15.02-.22a.49.49 0 01.11-.18.7.7 0 01.46-.12h5.15c.03 0 .07-.02.1-.05a.15.15 0 00.04-.1v-1.2a.15.15 0 00-.04-.12.16.16 0 00-.1-.04h-6.13a1.58 1.58 0 00-1.21.37c-.23.29-.36.64-.35 1.01v6.55a1.42 1.42 0 00.38 1.13c.34.31.73.31 1.15.31h6.2a.15.15 0 00.14-.1v-1.32a.15.15 0 00-.14-.1zM145.89 18.66h-1.67a.15.15 0 00-.1.04.15.15 0 00-.05.1v3.74h-4.9V18.8a.17.17 0 00-.05-.1.16.16 0 00-.1-.04h-1.67a.16.16 0 00-.1.04.15.15 0 00-.04.1v9.08c0 .04.02.08.05.1.02.03.06.05.1.05h1.66a.16.16 0 00.15-.14v-3.84h4.9v3.83a.16.16 0 00.15.15h1.66c.04 0 .08-.02.1-.05a.15.15 0 00.05-.1V18.8a.15.15 0 00-.14-.15zM86.32 22.91c-.32.32-.75.32-1.15.32h-3.4v-2.57a.48.48 0 01.1-.38.46.46 0 01.35-.1h2.98c.4-.04.78.07 1.1.3.28.3.3.84.3 1.23 0 .22 0 .9-.3 1.22l.02-.02zm1.56-3.68c-.62-.57-1.46-.57-1.97-.57h-4.6a1.56 1.56 0 00-1.15.37 1.32 1.32 0 00-.35 1.08v7.77a.16.16 0 00.15.15h1.67a.16.16 0 00.14-.15v-3.13h4.47c.54.02 1.08-.15 1.52-.46.59-.46.87-1.3.87-2.58 0-.84-.09-1.88-.75-2.48zM114.26 27.77l-3.78-3.75c-.25-.2-.43-.5-.49-.82a1 1 0 01.39-.63l3.42-3.65a.14.14 0 00.03-.1.16.16 0 00-.14-.15h-2a.15.15 0 00-.08.04l-3.03 3.42c-.12.14-.23.29-.32.45v-3.75a.16.16 0 00-.04-.1.16.16 0 00-.1-.04h-1.7a.16.16 0 00-.14.15v3.75c-.1-.16-.2-.32-.32-.46l-3.03-3.41a.15.15 0 00-.09-.04h-2a.16.16 0 00-.14.15c0 .04.01.07.04.1l3.42 3.65c.2.15.34.37.39.62-.06.33-.24.62-.5.82l-3.8 3.76a.16.16 0 00-.03.1c0 .05.01.08.04.11s.06.05.1.05h2.1l.08-.04.03-.02 3.25-3.48c.18-.19.34-.4.47-.63v4c0 .05.01.08.04.1.03.04.06.05.1.05h1.67a.16.16 0 00.14-.14v-4.03c.13.23.29.44.47.63l3.25 3.48.03.02c.02.03.06.04.09.04h2.09c.03 0 .07-.02.1-.05a.16.16 0 000-.21zM120.45 20.39s.11-.32.25-.32.26.32.26.32l2.47 6.12h-5.45l2.47-6.13zm5.6 6.12h-.76l-2.87-6.89c-.36-.8-.83-1.08-1.72-1.08-.88 0-1.34.26-1.71 1.08l-2.87 6.89h-.77a.16.16 0 00-.15.15v1.21c0 .04.02.08.05.1.03.04.06.05.1.06h10.7c.05 0 .08-.02.11-.05a.16.16 0 00.05-.1v-1.22a.16.16 0 00-.16-.15zM77.51 23.73c-.24-.24-.54-.4-.87-.47.28-.07.54-.23.72-.46.36-.43.52-.98.47-1.53 0-.6-.06-1.48-.62-2.03-.52-.5-1.24-.57-1.8-.57h-5.3a.16.16 0 00-.15.15v1.2a.16.16 0 00.15.15h4.56c.3-.04.61.04.86.22a1.25 1.25 0 01.3.94c0 .58-.13.8-.2.89-.23.31-.6.31-.94.31h-3.54a.16.16 0 00-.15.16v1.2a.15.15 0 00.14.16h3.71a1.1 1.1 0 01.94.36c.15.27.22.58.2.9.02.31-.07.63-.24.89-.27.31-.77.31-1.01.31h-4.69a.15.15 0 00-.15.15v1.22a.15.15 0 00.15.15h5.55c.62 0 1.25 0 1.81-.63.57-.62.58-1.37.58-1.98 0-.51 0-1.2-.48-1.7v.01z"/>
</svg>
