<svg xmlns="http://www.w3.org/2000/svg" viewBox="0 0 36 24">
  <path d="M13.5833 19.5834C17.7715 19.5834 21.1667 16.1882 21.1667 12.0001C21.1667 7.81192 17.7715 4.41675 13.5833 4.41675C9.39517 4.41675 6 7.81192 6 12.0001C6 16.1882 9.39517 19.5834 13.5833 19.5834Z" fill="#EB001B"/>
  <path d="M24.4166 19.5833C28.6048 19.5833 32 16.1882 32 12C32 7.81184 28.6048 4.41666 24.4166 4.41666C20.2285 4.41666 16.8333 7.81184 16.8333 12C16.8333 16.1882 20.2285 19.5833 24.4166 19.5833Z" fill="#F79E1B"/>
  <path d="M19.0003 6.69244C17.6601 8.06019 16.8337 9.93342 16.8337 11.9997C16.8337 14.0659 17.6601 15.9392 19.0003 17.3069C20.3406 15.9392 21.167 14.0659 21.167 11.9997C21.167 9.93342 20.3406 8.06019 19.0003 6.69244Z" fill="#FF5F00"/>
</svg>
