<svg xmlns="http://www.w3.org/2000/svg" viewBox="0 0 36 24">
  <path d="M12.4506 7.44569L11.015 12.5H10.7689L9.33339 7.44569C9.09025 6.58949 8.31881 6 7.44143 6H4V17H7.44595V10.5H7.69204L9.66128 17H12.1227L14.0919 10.5H14.338V17H17.7841V6H14.3425C13.4653 6 12.6937 6.58949 12.4506 7.44569Z M19.2961 16.9698H22.7312V6.0812H19.2961V16.9698Z M23.7136 6.0812C24.1751 8.61504 26.3736 10.5357 29.0193 10.5357H34.9261C34.9742 10.2958 35 10.0475 35 9.79327C35 7.74325 33.3522 6.0812 31.3196 6.0812H23.7136Z M34.9992 16.9714L32.5625 13.2848C33.5977 12.9084 34.4176 12.0783 34.7853 11.0307H24.2036V16.97H27.6317V13.5053H29.2733L31.0736 16.9714H34.9992Z" fill="currentColor"/>
</svg>
