<svg xmlns="http://www.w3.org/2000/svg" viewBox="0 0 36 24">
  <path d="M18.5823 10.1928C18.5977 8.12243 20.5091 6.67627 23.2244 6.67627C24.2833 6.67627 25.1333 6.90745 25.7948 7.14786L25.3121 9.40388C24.0825 8.83681 22.9968 8.87664 22.6035 8.92768C21.8095 9.03186 21.4471 9.43751 21.4383 9.8189C21.4115 11.0734 25.2994 11.2284 25.2873 14.0359C25.2781 16.2484 23.3907 17.6763 20.5042 17.6763C19.2756 17.6633 18.0905 17.4061 17.4491 17.111L17.9465 14.7796C18.5854 15.0779 19.3871 15.4733 20.7681 15.4516C21.5589 15.4394 22.4047 15.1247 22.4127 14.4106C22.4168 13.9444 22.0578 13.6098 20.9879 13.0885C19.9465 12.5791 18.5644 11.7253 18.5823 10.1928ZM30.4366 6.8706H32.7813L34.9993 17.5097H32.4584L32.1264 15.9201H28.6021L28.0289 17.5097H25.1444L29.267 7.65092C29.4642 7.17775 29.9089 6.8706 30.4366 6.8706ZM30.8417 9.74535L29.3954 13.74H31.674L30.8417 9.74535ZM15.09 6.8706H17.8367L15.5648 17.5097H12.8173L15.09 6.8706ZM11.0231 6.8706H13.9086L9.45744 17.5097H6.5536L4.36302 9.01901C4.23006 8.49639 4.11487 8.3045 3.71045 8.08453C3.04999 7.7253 1.95943 7.38822 1 7.17907L1.06477 6.8706H5.73977C6.3352 6.8706 6.8714 7.26769 7.00686 7.95503L8.1635 14.1117L11.0231 6.8706Z" fill="currentColor"/>
</svg>
