<svg width="32" height="32" fill="none" xmlns="http://www.w3.org/2000/svg">
    <rect width="32" height="32" rx="16" fill="#F1F2F5"/>
    <path fill-rule="evenodd" clip-rule="evenodd" d="M10.07 1.117a15.504 15.504 0 0 1 3.661-.96c4.874-.682 9.998.864 13.665 4.57.097.097.192.195.287.294v.001l.001.002.001.003.01.01v.001l.037.04-.025.023a.299.299 0 0 1 .007.077 1.23 1.23 0 0 0 .016-.085l.002-.008s.12.131.128.24c.031.704-2.444 3.131-6.972 6.856 5.528 6.257 8.317 12.69 6.51 15.064-.083.102-.17.2-.267.29-.07.063-.143.12-.219.174l.016.017a.747.747 0 0 1-.028.026l-.028.027c-6.457 5.964-16.684 5.558-22.649-.902-5.964-6.46-5.562-16.684.898-22.652a15.813 15.813 0 0 1 4.907-3.091l.042-.017zm5.974 14.932a240.008 240.008 0 0 0 4.613-3.678c2.605 2.948 4.663 6.014 5.85 8.733 1.27 2.911 1.383 5.13.312 6.092l-.022.02-.017-.015.008-.008.012-.012-.003-.003-.01-.009-.02-.02.026-.024-.035-.031a.454.454 0 0 0 .024-.022l-.04-.036.005-.005.004-.003a.32.32 0 0 0 .01-.013l-.004-.004-.008-.007-.007-.006-.015-.014a.514.514 0 0 1 .024-.02l-.007-.007-.011-.01-.018-.015.01-.009.01-.008.009-.008-.04-.034a.558.558 0 0 1 .025-.022l-.034-.03a1.29 1.29 0 0 1 .012-.01l.005-.004.006-.005-.043-.036a.669.669 0 0 1 .028-.024l-.037-.03.006-.006.007-.006.004-.004a.295.295 0 0 1 .008-.007l-.039-.031a.631.631 0 0 1 .024-.021.97.97 0 0 0-.04-.032l.03-.025a.74.74 0 0 0-.04-.031.613.613 0 0 1 .028-.025l-.036-.028a.613.613 0 0 1 .028-.024l-.044-.035.008-.007a.565.565 0 0 1 .018-.015s-.012-.01-.037-.027v-.001a.613.613 0 0 1 .029-.024l-.012-.01a2.808 2.808 0 0 0-.031-.022 2.299 2.299 0 0 1 .028-.025l-.039-.028a.453.453 0 0 1 .024-.02l-.041-.03.03-.027-.042-.03a.566.566 0 0 1 .027-.023l-.042-.029.03-.027-.01-.007a1.94 1.94 0 0 0-.032-.022.458.458 0 0 1 .027-.023l-.042-.03.031-.027-.038-.025c.01-.01.02-.02.03-.027a.392.392 0 0 0-.047-.032l.033-.029-.041-.026.01-.01.006-.004.003-.003.006-.005a.366.366 0 0 0-.04-.027l.033-.03-.046-.029a.26.26 0 0 1 .031-.027 2 2 0 0 0-.042-.026.446.446 0 0 1 .03-.027.41.41 0 0 0-.043-.027.404.404 0 0 1 .029-.025l-.044-.027.032-.03c.003-.002-.494-.263-1.3-.684l-1.809-1.009-7.275-7.805z" fill="url(#a)" transform="matrix(.5 0 0 .5 8 8)"/>
    <path d="m11.796 19.306-.187.28c5.822 6.08 12.169 9.582 14.95 8.32a2.34 2.34 0 0 0 .271-.142 2.192 2.192 0 0 0 .568-.519c1.807-2.375-.982-8.807-6.51-15.064l-.23.19c2.604 2.948 4.662 6.014 5.85 8.733 1.269 2.911 1.382 5.13.311 6.092a1.88 1.88 0 0 1-.007.004c1.074-.961.961-3.185-.312-6.092-1.187-2.718-3.245-5.78-5.85-8.732-2.41 1.976-5.384 4.307-8.854 6.93z" fill="url(#b)" transform="matrix(.5 0 0 .5 8 8)"/>
    <defs>
        <radialGradient id="a" cx="0" cy="0" r="1" gradientUnits="userSpaceOnUse" gradientTransform="rotate(2.385 -36.46 493.253) scale(71.728 54.544)">
            <stop stop-color="#2DE087"/>
            <stop offset=".102" stop-color="#2AD57F"/>
            <stop offset=".285" stop-color="#21B66B"/>
            <stop offset=".526" stop-color="#138549"/>
            <stop offset=".811" stop-color="#00421C"/>
        </radialGradient>
        <linearGradient id="b" x1="28.313" y1="39.132" x2="8.24" y2="-1.738" gradientUnits="userSpaceOnUse">
            <stop offset=".101" stop-color="#FF8475"/>
            <stop offset=".241" stop-color="#FB6B5A"/>
            <stop offset=".424" stop-color="#F7513D"/>
            <stop offset=".606" stop-color="#F43E28"/>
            <stop offset=".786" stop-color="#F3331C"/>
            <stop offset=".961" stop-color="#F22F18"/>
        </linearGradient>
    </defs>
</svg>
