<svg width="24" height="24" fill="none" xmlns="http://www.w3.org/2000/svg">
    <path fill-rule="evenodd" clip-rule="evenodd" d="M12.58 2.781h-1.16c-.935 0-1.304.078-1.682.237a2.358 2.358 0 0 0-.948.716c-.255.32-.43.654-.686 1.553l-.158.557H5.875a.875.875 0 1 0 0 1.75h.492l.586 9.374c.083 1.32.124 1.981.407 2.482a2.5 2.5 0 0 0 1.083 1.017c.518.252 1.18.252 2.502.252h2.11c1.323 0 1.984 0 2.502-.252a2.5 2.5 0 0 0 1.083-1.017c.283-.5.324-1.161.407-2.482l.586-9.374h.492a.875.875 0 0 0 0-1.75h-2.072l-.157-.557c-.256-.9-.431-1.232-.687-1.553a2.358 2.358 0 0 0-.948-.716c-.377-.159-.746-.237-1.681-.237Zm1.655 3.063-.023-.08c-.178-.626-.253-.791-.37-.939a.61.61 0 0 0-.257-.193c-.174-.073-.353-.1-1.005-.1h-1.16c-.652 0-.83.027-1.005.1a.61.61 0 0 0-.256.193c-.118.148-.193.313-.371.94l-.023.079h4.47ZM9.908 8.912a.656.656 0 0 0-.633.678l.26 7.433a.656.656 0 1 0 1.312-.046l-.26-7.433a.656.656 0 0 0-.679-.632Zm3.508.633a.656.656 0 0 1 1.311.046l-.26 7.433a.656.656 0 0 1-1.31-.046l.259-7.433Z" fill="currentColor"/>
</svg>
