<svg xmlns="http://www.w3.org/2000/svg" fill="none" viewBox="0 -1 160 17">
    <path fill="currentColor" d="M0 .19h8.702v1.995H2.299v3.344h2.299c1.634 0 2.888.323 3.762.969.874.633 1.311 1.64 1.311 3.021 0 .76-.127 1.412-.38 1.957a3.606 3.606 0 0 1-1.064 1.349c-.456.342-1.007.595-1.653.76a9.136 9.136 0 0 1-2.128.228H0V.19Zm2.299 7.315v4.332h2.147c.874 0 1.57-.158 2.09-.475.52-.33.779-.912.779-1.748 0-.722-.234-1.254-.703-1.596-.469-.342-1.153-.513-2.052-.513H2.299ZM19.473 10.412c0 .57-.108 1.07-.323 1.501a2.82 2.82 0 0 1-.855 1.064 3.819 3.819 0 0 1-1.311.627 6.296 6.296 0 0 1-1.672.209h-3.667V3.952h2.204v3.192h1.539c1.292 0 2.292.266 3.002.798.722.532 1.083 1.355 1.083 2.47Zm3.325 3.401h-2.204V3.952h2.204v9.861Zm-8.95-4.921v3.192h1.293c.608 0 1.102-.12 1.482-.361.392-.253.589-.665.589-1.235 0-.57-.171-.975-.513-1.216-.342-.253-.836-.38-1.482-.38h-1.368ZM29.71 14.003c-.798 0-1.514-.114-2.147-.342a4.66 4.66 0 0 1-1.615-1.007 4.521 4.521 0 0 1-1.026-1.615c-.24-.633-.361-1.355-.361-2.166 0-.798.12-1.514.36-2.147a4.292 4.292 0 0 1 2.66-2.603c.647-.24 1.369-.361 2.167-.361.684 0 1.28.076 1.786.228.52.152.93.342 1.235.57v1.824a4.994 4.994 0 0 0-1.292-.589c-.456-.14-.988-.209-1.596-.209-2.04 0-3.06 1.096-3.06 3.287s1.002 3.287 3.003 3.287c.646 0 1.197-.07 1.653-.209a6.65 6.65 0 0 0 1.292-.57v1.824a5.36 5.36 0 0 1-1.235.57c-.494.152-1.102.228-1.824.228ZM39.112 5.738v8.075h-2.204V5.738h-2.983V3.952h8.227v1.786h-3.04ZM49.172 14.003c-.748 0-1.394-.165-1.938-.494a3.94 3.94 0 0 1-1.292-1.368v5.035h-2.204V3.952h2.014l.152 1.748a3.79 3.79 0 0 1 1.31-1.406c.545-.355 1.21-.532 1.996-.532.582 0 1.133.108 1.653.323.532.203.994.52 1.387.95.392.418.703.95.93 1.596.241.633.362 1.38.362 2.242 0 .874-.12 1.634-.361 2.28-.228.633-.545 1.165-.95 1.596a3.877 3.877 0 0 1-1.387.95 4.656 4.656 0 0 1-1.672.304Zm-.532-1.843c.785 0 1.418-.266 1.9-.798.494-.545.74-1.374.74-2.489 0-1.102-.246-1.925-.74-2.47-.482-.545-1.109-.817-1.881-.817-.393 0-.754.07-1.083.209-.33.127-.621.33-.874.608-.241.279-.431.627-.57 1.045-.14.405-.21.88-.21 1.425 0 .557.07 1.045.21 1.463.139.405.329.747.57 1.026.24.266.525.469.855.608.342.127.703.19 1.083.19ZM59.589 14.003a5.374 5.374 0 0 1-1.938-.342 4.539 4.539 0 0 1-1.558-.988 4.894 4.894 0 0 1-1.026-1.615c-.241-.633-.361-1.362-.361-2.185s.12-1.552.36-2.185a4.681 4.681 0 0 1 1.027-1.596 4.193 4.193 0 0 1 1.558-.988 5.374 5.374 0 0 1 1.938-.342c.696 0 1.342.114 1.938.342a4.193 4.193 0 0 1 1.558.988c.443.43.791.963 1.045 1.596.253.633.38 1.362.38 2.185s-.127 1.552-.38 2.185a4.742 4.742 0 0 1-1.045 1.615c-.444.43-.963.76-1.558.988a5.374 5.374 0 0 1-1.938.342Zm0-1.843c.76 0 1.387-.266 1.88-.798.507-.532.76-1.362.76-2.489 0-1.115-.253-1.938-.76-2.47-.493-.545-1.12-.817-1.88-.817-.748 0-1.375.272-1.881.817-.494.532-.741 1.355-.741 2.47 0 1.127.247 1.957.74 2.489.507.532 1.134.798 1.882.798ZM74.613 14.003a5.375 5.375 0 0 1-1.938-.342 4.54 4.54 0 0 1-1.558-.988 4.897 4.897 0 0 1-1.026-1.615c-.24-.633-.36-1.362-.36-2.185s.12-1.552.36-2.185a4.684 4.684 0 0 1 1.026-1.596 4.193 4.193 0 0 1 1.558-.988 5.375 5.375 0 0 1 1.938-.342c.697 0 1.343.114 1.938.342a4.193 4.193 0 0 1 1.558.988c.444.43.792.963 1.045 1.596.254.633.38 1.362.38 2.185s-.126 1.552-.38 2.185a4.741 4.741 0 0 1-1.044 1.615 4.54 4.54 0 0 1-1.559.988 5.374 5.374 0 0 1-1.938.342Zm0-1.843c.76 0 1.387-.266 1.881-.798.507-.532.76-1.362.76-2.489 0-1.115-.253-1.938-.76-2.47-.494-.545-1.12-.817-1.88-.817-.748 0-1.375.272-1.882.817-.494.532-.74 1.355-.74 2.47 0 1.127.246 1.957.74 2.489.507.532 1.134.798 1.881.798ZM93.386 8.873c0 .798-.132 1.507-.398 2.128a4.464 4.464 0 0 1-1.121 1.558 5.22 5.22 0 0 1-1.672.988c-.634.24-1.318.38-2.052.418v3.211h-2.204v-3.211a7.849 7.849 0 0 1-2.09-.418 5.04 5.04 0 0 1-1.672-1.007 4.581 4.581 0 0 1-1.103-1.558c-.266-.608-.398-1.311-.398-2.109s.132-1.501.398-2.109a4.581 4.581 0 0 1 1.103-1.558 5.04 5.04 0 0 1 1.671-.988 6.965 6.965 0 0 1 2.09-.418V0h2.204v3.8a6.763 6.763 0 0 1 2.072.418 4.798 4.798 0 0 1 1.671.988c.47.43.837.95 1.102 1.558.267.608.4 1.311.4 2.109Zm-2.26 0c0-1.064-.28-1.868-.837-2.413-.557-.545-1.273-.849-2.147-.912v6.65c.874-.063 1.59-.367 2.148-.912.557-.545.835-1.349.835-2.413Zm-8.209 0c0 1.064.28 1.868.837 2.413.57.545 1.298.849 2.184.912v-6.65c-.899.076-1.627.386-2.184.931-.558.545-.837 1.343-.837 2.394ZM99.435 14.003a5.374 5.374 0 0 1-1.938-.342 4.538 4.538 0 0 1-1.558-.988 4.894 4.894 0 0 1-1.026-1.615c-.24-.633-.36-1.362-.36-2.185s.12-1.552.36-2.185a4.681 4.681 0 0 1 1.026-1.596 4.192 4.192 0 0 1 1.558-.988 5.374 5.374 0 0 1 1.938-.342c.697 0 1.343.114 1.938.342a4.193 4.193 0 0 1 1.558.988c.444.43.792.963 1.045 1.596.253.633.38 1.362.38 2.185s-.127 1.552-.38 2.185a4.727 4.727 0 0 1-1.045 1.615c-.443.43-.963.76-1.558.988a5.371 5.371 0 0 1-1.938.342Zm0-1.843c.76 0 1.387-.266 1.881-.798.507-.532.76-1.362.76-2.489 0-1.115-.253-1.938-.76-2.47-.494-.545-1.121-.817-1.88-.817-.748 0-1.375.272-1.882.817-.494.532-.74 1.355-.74 2.47 0 1.127.246 1.957.74 2.489.507.532 1.134.798 1.881.798ZM111.539 14.003c-.747 0-1.393-.165-1.938-.494a3.946 3.946 0 0 1-1.292-1.368v5.035h-2.204V3.952h2.014l.152 1.748a3.802 3.802 0 0 1 1.311-1.406c.545-.355 1.21-.532 1.995-.532a4.27 4.27 0 0 1 1.653.323c.532.203.995.52 1.387.95.393.418.703.95.931 1.596.241.633.361 1.38.361 2.242 0 .874-.12 1.634-.361 2.28-.228.633-.544 1.165-.95 1.596a3.87 3.87 0 0 1-1.387.95 4.655 4.655 0 0 1-1.672.304Zm-.532-1.843c.786 0 1.419-.266 1.9-.798.494-.545.741-1.374.741-2.489 0-1.102-.247-1.925-.741-2.47-.481-.545-1.108-.817-1.881-.817-.392 0-.753.07-1.083.209-.329.127-.62.33-.874.608a3.08 3.08 0 0 0-.57 1.045c-.139.405-.209.88-.209 1.425 0 .557.07 1.045.209 1.463.14.405.33.747.57 1.026.241.266.526.469.855.608.342.127.703.19 1.083.19ZM126.934 6.669l-2.907 6.194h-1.615l-2.736-6.251v7.201h-1.995V3.952h3.021l2.698 6.118 2.85-6.118h2.888v9.861h-2.204V6.669ZM133.706 10.83l4.56-6.878h2.166v9.861h-2.185v-6.84l-4.522 6.84h-2.204V3.952h2.185v6.878ZM147.226 5.738v8.075h-2.204V5.738h-2.983V3.952h8.227v1.786h-3.04ZM159.794 10.412c0 .57-.108 1.07-.323 1.501-.203.43-.487.785-.855 1.064a3.812 3.812 0 0 1-1.311.627 6.298 6.298 0 0 1-1.672.209h-3.8V3.952h2.204v3.192h1.653c1.292 0 2.299.266 3.021.798s1.083 1.355 1.083 2.47Zm-5.757-1.52v3.192h1.425c.608 0 1.102-.12 1.482-.361.38-.253.57-.665.57-1.235 0-.57-.171-.975-.513-1.216-.342-.253-.836-.38-1.482-.38h-1.482ZM170.119 14.003c-.798 0-1.514-.114-2.147-.342a4.669 4.669 0 0 1-1.615-1.007 4.53 4.53 0 0 1-1.026-1.615c-.24-.633-.361-1.355-.361-2.166 0-.798.121-1.514.361-2.147a4.297 4.297 0 0 1 2.66-2.603c.646-.24 1.368-.361 2.166-.361.684 0 1.28.076 1.786.228.52.152.931.342 1.235.57v1.824a4.978 4.978 0 0 0-1.292-.589c-.456-.14-.988-.209-1.596-.209-2.039 0-3.059 1.096-3.059 3.287s1.001 3.287 3.002 3.287c.646 0 1.197-.07 1.653-.209.469-.152.9-.342 1.292-.57v1.824a5.353 5.353 0 0 1-1.235.57c-.494.152-1.102.228-1.824.228Z"/>
</svg>