<svg width="141" height="28" viewBox="0 0 141 28" fill="none" xmlns="http://www.w3.org/2000/svg">
    <path d="M3.03113 0.527921H10.3591V2.20792H4.96713V5.02392H6.90313C8.27913 5.02392 9.33513 5.29592 10.0711 5.83992C10.8071 6.37325 11.1751 7.22125 11.1751 8.38392C11.1751 9.02392 11.0685 9.57325 10.8551 10.0319C10.6418 10.4906 10.3431 10.8693 9.95913 11.1679C9.57513 11.4559 9.11113 11.6693 8.56713 11.8079C8.0338 11.9359 7.43646 11.9999 6.77513 11.9999H3.03113V0.527921ZM4.96713 6.68792V10.3359H6.77513C7.51113 10.3359 8.09779 10.2026 8.53513 9.93592C8.97246 9.65859 9.19113 9.16792 9.19113 8.46392C9.19113 7.85592 8.99379 7.40792 8.59913 7.11992C8.20446 6.83192 7.62846 6.68792 6.87113 6.68792H4.96713Z" fill="currentColor"/>
    <path d="M19.5093 9.13592C19.5093 9.61592 19.4186 10.0373 19.2373 10.3999C19.0666 10.7626 18.8266 11.0613 18.5173 11.2959C18.2079 11.5306 17.8399 11.7066 17.4133 11.8239C16.9866 11.9413 16.5173 11.9999 16.0053 11.9999H12.9173V3.69592H14.7733V6.38392H16.0693C17.1573 6.38392 17.9999 6.60792 18.5973 7.05592C19.2053 7.50392 19.5093 8.19725 19.5093 9.13592ZM22.3093 11.9999H20.4533V3.69592H22.3093V11.9999ZM14.7733 7.85592V10.5439H15.8613C16.3733 10.5439 16.7893 10.4426 17.1093 10.2399C17.4399 10.0266 17.6053 9.67992 17.6053 9.19992C17.6053 8.71992 17.4613 8.37859 17.1733 8.17592C16.8853 7.96259 16.4693 7.85592 15.9253 7.85592H14.7733Z" fill="currentColor"/>
    <path d="M28.21 12.1599C27.538 12.1599 26.9353 12.0639 26.402 11.8719C25.8687 11.6693 25.4153 11.3866 25.042 11.0239C24.6687 10.6506 24.3807 10.1973 24.178 9.66392C23.9753 9.13059 23.874 8.52259 23.874 7.83992C23.874 7.16792 23.9753 6.56525 24.178 6.03192C24.3807 5.49859 24.6687 5.05059 25.042 4.68792C25.4153 4.31459 25.874 4.03192 26.418 3.83992C26.962 3.63725 27.57 3.53592 28.242 3.53592C28.818 3.53592 29.3193 3.59992 29.746 3.72792C30.1833 3.85592 30.53 4.01592 30.786 4.20792V5.74392C30.4553 5.53059 30.0927 5.36525 29.698 5.24792C29.314 5.13059 28.866 5.07192 28.354 5.07192C26.6367 5.07192 25.778 5.99459 25.778 7.83992C25.778 9.68525 26.6207 10.6079 28.306 10.6079C28.85 10.6079 29.314 10.5493 29.698 10.4319C30.0927 10.3039 30.4553 10.1439 30.786 9.95192V11.4879C30.5087 11.6693 30.162 11.8293 29.746 11.9679C29.33 12.0959 28.818 12.1599 28.21 12.1599Z" fill="currentColor"/>
    <path d="M36.2074 5.19992V11.9999H34.3514V5.19992H31.8394V3.69592H38.7674V5.19992H36.2074Z" fill="currentColor"/>
    <path d="M44.7589 12.1599C44.1295 12.1599 43.5855 12.0213 43.1269 11.7439C42.6789 11.4559 42.3162 11.0719 42.0389 10.5919V14.8319H40.1829V3.69592H41.8789L42.0069 5.16792C42.2842 4.66659 42.6522 4.27192 43.1109 3.98392C43.5695 3.68525 44.1295 3.53592 44.7909 3.53592C45.2815 3.53592 45.7455 3.62659 46.1829 3.80792C46.6309 3.97859 47.0202 4.24525 47.3509 4.60792C47.6815 4.95992 47.9429 5.40792 48.1349 5.95192C48.3375 6.48525 48.4389 7.11459 48.4389 7.83992C48.4389 8.57592 48.3375 9.21592 48.1349 9.75992C47.9429 10.2933 47.6762 10.7413 47.3349 11.1039C47.0042 11.4559 46.6149 11.7226 46.1669 11.9039C45.7189 12.0746 45.2495 12.1599 44.7589 12.1599ZM44.3109 10.6079C44.9722 10.6079 45.5055 10.3839 45.9109 9.93592C46.3269 9.47725 46.5349 8.77859 46.5349 7.83992C46.5349 6.91192 46.3269 6.21859 45.9109 5.75992C45.5055 5.30125 44.9775 5.07192 44.3269 5.07192C43.9962 5.07192 43.6922 5.13059 43.4149 5.24792C43.1375 5.35459 42.8922 5.52525 42.6789 5.75992C42.4762 5.99459 42.3162 6.28792 42.1989 6.63992C42.0815 6.98125 42.0229 7.38125 42.0229 7.83992C42.0229 8.30925 42.0815 8.71992 42.1989 9.07192C42.3162 9.41325 42.4762 9.70125 42.6789 9.93592C42.8815 10.1599 43.1215 10.3306 43.3989 10.4479C43.6869 10.5546 43.9909 10.6079 44.3109 10.6079Z" fill="currentColor"/>
    <path d="M53.611 12.1599C53.0243 12.1599 52.4803 12.0639 51.979 11.8719C51.4777 11.6799 51.0403 11.4026 50.667 11.0399C50.3043 10.6666 50.0163 10.2133 49.803 9.67992C49.6003 9.14659 49.499 8.53325 49.499 7.83992C49.499 7.14659 49.6003 6.53325 49.803 5.99992C50.0163 5.46659 50.3043 5.01859 50.667 4.65592C51.0403 4.28259 51.4777 4.00525 51.979 3.82392C52.4803 3.63192 53.0243 3.53592 53.611 3.53592C54.1977 3.53592 54.7417 3.63192 55.243 3.82392C55.7443 4.00525 56.1817 4.28259 56.555 4.65592C56.9283 5.01859 57.2217 5.46659 57.435 5.99992C57.6483 6.53325 57.755 7.14659 57.755 7.83992C57.755 8.53325 57.6483 9.14659 57.435 9.67992C57.2217 10.2133 56.9283 10.6666 56.555 11.0399C56.1817 11.4026 55.7443 11.6799 55.243 11.8719C54.7417 12.0639 54.1977 12.1599 53.611 12.1599ZM53.611 10.6079C54.251 10.6079 54.779 10.3839 55.195 9.93592C55.6217 9.48792 55.835 8.78925 55.835 7.83992C55.835 6.90125 55.6217 6.20792 55.195 5.75992C54.779 5.30125 54.251 5.07192 53.611 5.07192C52.9817 5.07192 52.4537 5.30125 52.027 5.75992C51.611 6.20792 51.403 6.90125 51.403 7.83992C51.403 8.78925 51.611 9.48792 52.027 9.93592C52.4537 10.3839 52.9817 10.6079 53.611 10.6079Z" fill="currentColor"/>
    <path d="M66.4235 12.1599C65.8368 12.1599 65.2928 12.0639 64.7915 11.8719C64.2902 11.6799 63.8528 11.4026 63.4795 11.0399C63.1168 10.6666 62.8288 10.2133 62.6155 9.67992C62.4128 9.14659 62.3115 8.53325 62.3115 7.83992C62.3115 7.14659 62.4128 6.53325 62.6155 5.99992C62.8288 5.46659 63.1168 5.01859 63.4795 4.65592C63.8528 4.28259 64.2902 4.00525 64.7915 3.82392C65.2928 3.63192 65.8368 3.53592 66.4235 3.53592C67.0102 3.53592 67.5542 3.63192 68.0555 3.82392C68.5568 4.00525 68.9942 4.28259 69.3675 4.65592C69.7408 5.01859 70.0342 5.46659 70.2475 5.99992C70.4608 6.53325 70.5675 7.14659 70.5675 7.83992C70.5675 8.53325 70.4608 9.14659 70.2475 9.67992C70.0342 10.2133 69.7408 10.6666 69.3675 11.0399C68.9942 11.4026 68.5568 11.6799 68.0555 11.8719C67.5542 12.0639 67.0102 12.1599 66.4235 12.1599ZM66.4235 10.6079C67.0635 10.6079 67.5915 10.3839 68.0075 9.93592C68.4342 9.48792 68.6475 8.78925 68.6475 7.83992C68.6475 6.90125 68.4342 6.20792 68.0075 5.75992C67.5915 5.30125 67.0635 5.07192 66.4235 5.07192C65.7942 5.07192 65.2662 5.30125 64.8395 5.75992C64.4235 6.20792 64.2155 6.90125 64.2155 7.83992C64.2155 8.78925 64.4235 9.48792 64.8395 9.93592C65.2662 10.3839 65.7942 10.6079 66.4235 10.6079Z" fill="currentColor"/>
    <path d="M82.3124 7.83992C82.3124 8.51192 82.2004 9.10925 81.9764 9.63192C81.7524 10.1439 81.4377 10.5813 81.0324 10.9439C80.6377 11.2959 80.1684 11.5733 79.6244 11.7759C79.091 11.9786 78.515 12.0959 77.8964 12.1279V14.8319H76.0404V12.1279C75.411 12.0853 74.8244 11.9679 74.2804 11.7759C73.7364 11.5733 73.267 11.2906 72.8724 10.9279C72.4777 10.5653 72.1684 10.1279 71.9444 9.61592C71.7204 9.10392 71.6084 8.51192 71.6084 7.83992C71.6084 7.16792 71.7204 6.57592 71.9444 6.06392C72.1684 5.55192 72.4777 5.11459 72.8724 4.75192C73.2777 4.38925 73.747 4.11192 74.2804 3.91992C74.8244 3.71725 75.411 3.59992 76.0404 3.56792V0.36792H77.8964V3.56792C78.5257 3.59992 79.107 3.71725 79.6404 3.91992C80.1844 4.11192 80.6537 4.38925 81.0484 4.75192C81.443 5.11459 81.7524 5.55192 81.9764 6.06392C82.2004 6.57592 82.3124 7.16792 82.3124 7.83992ZM80.4084 7.83992C80.4084 6.94392 80.1737 6.26659 79.7044 5.80792C79.235 5.34925 78.6324 5.09325 77.8964 5.03992V10.6399C78.6324 10.5866 79.235 10.3306 79.7044 9.87192C80.1737 9.41325 80.4084 8.73592 80.4084 7.83992ZM73.4964 7.83992C73.4964 8.73592 73.731 9.41325 74.2004 9.87192C74.6804 10.3306 75.2937 10.5866 76.0404 10.6399V5.03992C75.283 5.10392 74.6697 5.36525 74.2004 5.82392C73.731 6.28259 73.4964 6.95459 73.4964 7.83992Z" fill="currentColor"/>
    <path d="M87.486 12.1599C86.8993 12.1599 86.3553 12.0639 85.854 11.8719C85.3527 11.6799 84.9153 11.4026 84.542 11.0399C84.1793 10.6666 83.8913 10.2133 83.678 9.67992C83.4753 9.14659 83.374 8.53325 83.374 7.83992C83.374 7.14659 83.4753 6.53325 83.678 5.99992C83.8913 5.46659 84.1793 5.01859 84.542 4.65592C84.9153 4.28259 85.3527 4.00525 85.854 3.82392C86.3553 3.63192 86.8993 3.53592 87.486 3.53592C88.0727 3.53592 88.6167 3.63192 89.118 3.82392C89.6193 4.00525 90.0567 4.28259 90.43 4.65592C90.8033 5.01859 91.0967 5.46659 91.31 5.99992C91.5233 6.53325 91.63 7.14659 91.63 7.83992C91.63 8.53325 91.5233 9.14659 91.31 9.67992C91.0967 10.2133 90.8033 10.6666 90.43 11.0399C90.0567 11.4026 89.6193 11.6799 89.118 11.8719C88.6167 12.0639 88.0727 12.1599 87.486 12.1599ZM87.486 10.6079C88.126 10.6079 88.654 10.3839 89.07 9.93592C89.4967 9.48792 89.71 8.78925 89.71 7.83992C89.71 6.90125 89.4967 6.20792 89.07 5.75992C88.654 5.30125 88.126 5.07192 87.486 5.07192C86.8567 5.07192 86.3287 5.30125 85.902 5.75992C85.486 6.20792 85.278 6.90125 85.278 7.83992C85.278 8.78925 85.486 9.48792 85.902 9.93592C86.3287 10.3839 86.8567 10.6079 87.486 10.6079Z" fill="currentColor"/>
    <path d="M97.7589 12.1599C97.1295 12.1599 96.5855 12.0213 96.1269 11.7439C95.6789 11.4559 95.3162 11.0719 95.0389 10.5919V14.8319H93.1829V3.69592H94.8789L95.0069 5.16792C95.2842 4.66659 95.6522 4.27192 96.1109 3.98392C96.5695 3.68525 97.1295 3.53592 97.7909 3.53592C98.2815 3.53592 98.7455 3.62659 99.1829 3.80792C99.6309 3.97859 100.02 4.24525 100.351 4.60792C100.682 4.95992 100.943 5.40792 101.135 5.95192C101.338 6.48525 101.439 7.11459 101.439 7.83992C101.439 8.57592 101.338 9.21592 101.135 9.75992C100.943 10.2933 100.676 10.7413 100.335 11.1039C100.004 11.4559 99.6149 11.7226 99.1669 11.9039C98.7189 12.0746 98.2495 12.1599 97.7589 12.1599ZM97.3109 10.6079C97.9722 10.6079 98.5055 10.3839 98.9109 9.93592C99.3269 9.47725 99.5349 8.77859 99.5349 7.83992C99.5349 6.91192 99.3269 6.21859 98.9109 5.75992C98.5055 5.30125 97.9775 5.07192 97.3269 5.07192C96.9962 5.07192 96.6922 5.13059 96.4149 5.24792C96.1375 5.35459 95.8922 5.52525 95.6789 5.75992C95.4762 5.99459 95.3162 6.28792 95.1989 6.63992C95.0815 6.98125 95.0229 7.38125 95.0229 7.83992C95.0229 8.30925 95.0815 8.71992 95.1989 9.07192C95.3162 9.41325 95.4762 9.70125 95.6789 9.93592C95.8815 10.1599 96.1215 10.3306 96.3989 10.4479C96.6869 10.5546 96.9909 10.6079 97.3109 10.6079Z" fill="currentColor"/>
    <path d="M110.803 5.98392L108.355 11.1999H106.995L104.691 5.93592V11.9999H103.011V3.69592H105.555L107.827 8.84792L110.227 3.69592H112.659V11.9999H110.803V5.98392Z" fill="currentColor"/>
    <path d="M116.585 9.48792L120.425 3.69592H122.249V11.9999H120.409V6.23992L116.601 11.9999H114.745V3.69592H116.585V9.48792Z" fill="currentColor"/>
    <path d="M128.051 5.19992V11.9999H126.195V5.19992H123.683V3.69592H130.611V5.19992H128.051Z" fill="currentColor"/>
    <path d="M138.715 9.13592C138.715 9.61592 138.624 10.0373 138.443 10.3999C138.272 10.7626 138.032 11.0613 137.723 11.2959C137.413 11.5306 137.045 11.7066 136.619 11.8239C136.192 11.9413 135.723 11.9999 135.211 11.9999H132.011V3.69592H133.867V6.38392H135.259C136.347 6.38392 137.195 6.60792 137.803 7.05592C138.411 7.50392 138.715 8.19725 138.715 9.13592ZM133.867 7.85592V10.5439H135.067C135.579 10.5439 135.995 10.4426 136.315 10.2399C136.635 10.0266 136.795 9.67992 136.795 9.19992C136.795 8.71992 136.651 8.37859 136.363 8.17592C136.075 7.96259 135.659 7.85592 135.115 7.85592H133.867Z" fill="currentColor"/>
    <g opacity="0.6">
        <path d="M6.8045 21.9961L4.6925 26.3041H3.8525L1.8605 21.9721V27.0001H0.864502V20.7721H2.4365L4.3445 24.9481L6.3845 20.7721H7.8485V27.0001H6.8045V21.9961Z" fill="currentColor"/>
        <path d="M12.1275 27.1201C11.7035 27.1201 11.3075 27.0481 10.9395 26.9041C10.5715 26.7601 10.2515 26.5521 9.97953 26.2801C9.71553 26.0001 9.50753 25.6601 9.35553 25.2601C9.20353 24.8601 9.12753 24.4001 9.12753 23.8801C9.12753 23.3681 9.20353 22.9121 9.35553 22.5121C9.50753 22.1041 9.71553 21.7641 9.97953 21.4921C10.2515 21.2201 10.5715 21.0121 10.9395 20.8681C11.3075 20.7241 11.7035 20.6521 12.1275 20.6521C12.5595 20.6521 12.9595 20.7241 13.3275 20.8681C13.6955 21.0121 14.0115 21.2201 14.2755 21.4921C14.5475 21.7641 14.7595 22.1041 14.9115 22.5121C15.0715 22.9121 15.1515 23.3681 15.1515 23.8801C15.1515 24.4001 15.0715 24.8601 14.9115 25.2601C14.7595 25.6601 14.5475 26.0001 14.2755 26.2801C14.0115 26.5521 13.6955 26.7601 13.3275 26.9041C12.9595 27.0481 12.5595 27.1201 12.1275 27.1201ZM12.1275 26.1721C12.4075 26.1721 12.6635 26.1281 12.8955 26.0401C13.1355 25.9441 13.3435 25.8041 13.5195 25.6201C13.6955 25.4281 13.8315 25.1881 13.9275 24.9001C14.0235 24.6121 14.0715 24.2721 14.0715 23.8801C14.0715 23.4881 14.0235 23.1481 13.9275 22.8601C13.8315 22.5721 13.6955 22.3361 13.5195 22.1521C13.3435 21.9601 13.1355 21.8201 12.8955 21.7321C12.6635 21.6361 12.4075 21.5881 12.1275 21.5881C11.8475 21.5881 11.5915 21.6361 11.3595 21.7321C11.1275 21.8201 10.9235 21.9601 10.7475 22.1521C10.5795 22.3361 10.4475 22.5721 10.3515 22.8601C10.2555 23.1481 10.2075 23.4881 10.2075 23.8801C10.2075 24.2721 10.2555 24.6121 10.3515 24.9001C10.4475 25.1881 10.5795 25.4281 10.7475 25.6201C10.9235 25.8041 11.1275 25.9441 11.3595 26.0401C11.5915 26.1281 11.8475 26.1721 12.1275 26.1721Z" fill="currentColor"/>
        <path d="M20.4403 20.7721V23.4481H21.0043L22.9843 20.7721H24.1483L21.8323 23.8201L24.2323 27.0001H22.9483L20.9563 24.3481H20.4403V27.0001H19.3843V24.3481H18.8563L16.8403 27.0001H15.5923L17.9923 23.8561L15.6763 20.7721H16.8883L18.8323 23.4481H19.3843V20.7721H20.4403Z" fill="currentColor"/>
        <path d="M29.413 24.2401H26.401V27.0001H25.345V20.7721H26.401V23.3401H29.413V20.7721H30.469V27.0001H29.413V24.2401Z" fill="currentColor"/>
        <path d="M34.7564 27.1201C34.3324 27.1201 33.9364 27.0481 33.5684 26.9041C33.2004 26.7601 32.8804 26.5521 32.6084 26.2801C32.3444 26.0001 32.1364 25.6601 31.9844 25.2601C31.8324 24.8601 31.7564 24.4001 31.7564 23.8801C31.7564 23.3681 31.8324 22.9121 31.9844 22.5121C32.1364 22.1041 32.3444 21.7641 32.6084 21.4921C32.8804 21.2201 33.2004 21.0121 33.5684 20.8681C33.9364 20.7241 34.3324 20.6521 34.7564 20.6521C35.1884 20.6521 35.5884 20.7241 35.9564 20.8681C36.3244 21.0121 36.6404 21.2201 36.9044 21.4921C37.1764 21.7641 37.3884 22.1041 37.5404 22.5121C37.7004 22.9121 37.7804 23.3681 37.7804 23.8801C37.7804 24.4001 37.7004 24.8601 37.5404 25.2601C37.3884 25.6601 37.1764 26.0001 36.9044 26.2801C36.6404 26.5521 36.3244 26.7601 35.9564 26.9041C35.5884 27.0481 35.1884 27.1201 34.7564 27.1201ZM34.7564 26.1721C35.0364 26.1721 35.2924 26.1281 35.5244 26.0401C35.7644 25.9441 35.9724 25.8041 36.1484 25.6201C36.3244 25.4281 36.4604 25.1881 36.5564 24.9001C36.6524 24.6121 36.7004 24.2721 36.7004 23.8801C36.7004 23.4881 36.6524 23.1481 36.5564 22.8601C36.4604 22.5721 36.3244 22.3361 36.1484 22.1521C35.9724 21.9601 35.7644 21.8201 35.5244 21.7321C35.2924 21.6361 35.0364 21.5881 34.7564 21.5881C34.4764 21.5881 34.2204 21.6361 33.9884 21.7321C33.7564 21.8201 33.5524 21.9601 33.3764 22.1521C33.2084 22.3361 33.0764 22.5721 32.9804 22.8601C32.8844 23.1481 32.8364 23.4881 32.8364 23.8801C32.8364 24.2721 32.8844 24.6121 32.9804 24.9001C33.0764 25.1881 33.2084 25.4281 33.3764 25.6201C33.5524 25.8041 33.7564 25.9441 33.9884 26.0401C34.2204 26.1281 34.4764 26.1721 34.7564 26.1721Z" fill="currentColor"/>
        <path d="M44.2603 27.1201C43.8363 27.1201 43.4403 27.0481 43.0723 26.9041C42.7043 26.7601 42.3843 26.5521 42.1123 26.2801C41.8483 26.0001 41.6403 25.6601 41.4883 25.2601C41.3363 24.8601 41.2603 24.4001 41.2603 23.8801C41.2603 23.3681 41.3363 22.9121 41.4883 22.5121C41.6403 22.1041 41.8483 21.7641 42.1123 21.4921C42.3843 21.2201 42.7043 21.0121 43.0723 20.8681C43.4403 20.7241 43.8363 20.6521 44.2603 20.6521C44.6923 20.6521 45.0923 20.7241 45.4603 20.8681C45.8283 21.0121 46.1443 21.2201 46.4083 21.4921C46.6803 21.7641 46.8923 22.1041 47.0443 22.5121C47.2043 22.9121 47.2843 23.3681 47.2843 23.8801C47.2843 24.4001 47.2043 24.8601 47.0443 25.2601C46.8923 25.6601 46.6803 26.0001 46.4083 26.2801C46.1443 26.5521 45.8283 26.7601 45.4603 26.9041C45.0923 27.0481 44.6923 27.1201 44.2603 27.1201ZM44.2603 26.1721C44.5403 26.1721 44.7963 26.1281 45.0283 26.0401C45.2683 25.9441 45.4763 25.8041 45.6523 25.6201C45.8283 25.4281 45.9643 25.1881 46.0603 24.9001C46.1563 24.6121 46.2043 24.2721 46.2043 23.8801C46.2043 23.4881 46.1563 23.1481 46.0603 22.8601C45.9643 22.5721 45.8283 22.3361 45.6523 22.1521C45.4763 21.9601 45.2683 21.8201 45.0283 21.7321C44.7963 21.6361 44.5403 21.5881 44.2603 21.5881C43.9804 21.5881 43.7243 21.6361 43.4923 21.7321C43.2603 21.8201 43.0563 21.9601 42.8803 22.1521C42.7123 22.3361 42.5803 22.5721 42.4843 22.8601C42.3883 23.1481 42.3403 23.4881 42.3403 23.8801C42.3403 24.2721 42.3883 24.6121 42.4843 24.9001C42.5803 25.1881 42.7123 25.4281 42.8803 25.6201C43.0563 25.8041 43.2603 25.9441 43.4923 26.0401C43.7243 26.1281 43.9804 26.1721 44.2603 26.1721Z" fill="currentColor"/>
        <path d="M48.5715 20.7721H53.5635V27.0001H52.5075V21.6721H49.6275V27.0001H48.5715V20.7721Z" fill="currentColor"/>
        <path d="M55.7664 25.0681C55.8784 24.6601 55.9504 24.1081 55.9824 23.4121C56.0144 22.7161 56.0304 21.8361 56.0304 20.7721H60.2184V27.0001H59.1504V21.6721H57.0264C57.0184 22.5281 56.9904 23.2881 56.9424 23.9521C56.9024 24.6161 56.8104 25.1761 56.6664 25.6321C56.5304 26.0881 56.3264 26.4361 56.0544 26.6761C55.7904 26.9081 55.4344 27.0241 54.9864 27.0241C54.9544 27.0241 54.9224 27.0241 54.8904 27.0241C54.8584 27.0241 54.8224 27.0201 54.7824 27.0121V25.9681C54.8224 25.9761 54.8744 25.9801 54.9384 25.9801C55.3464 25.9801 55.6224 25.6761 55.7664 25.0681Z" fill="currentColor"/>
        <path d="M65.5789 25.8121C65.5069 25.9561 65.4149 26.1081 65.3029 26.2681C65.1909 26.4201 65.0509 26.5601 64.8829 26.6881C64.7149 26.8161 64.5149 26.9201 64.2829 27.0001C64.0589 27.0801 63.7949 27.1201 63.4909 27.1201C62.9309 27.1201 62.4789 26.9641 62.1349 26.6521C61.7909 26.3321 61.6189 25.8761 61.6189 25.2841C61.6189 24.6041 61.8549 24.1041 62.3269 23.7841C62.8069 23.4641 63.4869 23.3041 64.3669 23.3041H65.5309V22.7881C65.5309 22.3561 65.4189 22.0481 65.1949 21.8641C64.9709 21.6801 64.5869 21.5881 64.0429 21.5881C63.6589 21.5881 63.2949 21.6521 62.9509 21.7801C62.6069 21.9001 62.2989 22.0401 62.0269 22.2001V21.2521C62.2509 21.1161 62.5509 20.9841 62.9269 20.8561C63.3109 20.7201 63.7309 20.6521 64.1869 20.6521C64.9709 20.6521 65.5669 20.8161 65.9749 21.1441C66.3829 21.4641 66.5869 21.9641 66.5869 22.6441V25.9921C66.5869 26.0641 66.5869 26.1481 66.5869 26.2441C66.5949 26.3321 66.5989 26.4241 66.5989 26.5201C66.6069 26.6161 66.6149 26.7081 66.6229 26.7961C66.6309 26.8761 66.6389 26.9441 66.6469 27.0001H65.6869C65.6629 26.8881 65.6389 26.7321 65.6149 26.5321C65.5989 26.3241 65.5909 26.1441 65.5909 25.9921L65.5789 25.8121ZM63.7189 26.1721C64.0469 26.1721 64.3269 26.1041 64.5589 25.9681C64.7909 25.8321 64.9789 25.6761 65.1229 25.5001C65.2669 25.3161 65.3709 25.1401 65.4349 24.9721C65.4989 24.7961 65.5309 24.6721 65.5309 24.6001V24.1441H64.4749C63.8429 24.1441 63.3829 24.2361 63.0949 24.4201C62.8149 24.5961 62.6749 24.8641 62.6749 25.2241C62.6749 25.5041 62.7589 25.7321 62.9269 25.9081C63.0949 26.0841 63.3589 26.1721 63.7189 26.1721Z" fill="currentColor"/>
        <path d="M70.6967 21.6721V27.0001H69.6407V21.6721H67.6847V20.7721H72.6887V21.6721H70.6967Z" fill="currentColor"/>
        <path d="M74.9635 25.5601L78.2875 20.7721H79.3555V27.0001H78.2995V22.2241L74.9875 27.0001H73.9075V20.7721H74.9635V25.5601Z" fill="currentColor"/>
        <path d="M83.5873 21.6721V27.0001H82.5313V21.6721H80.5753V20.7721H85.5793V21.6721H83.5873Z" fill="currentColor"/>
        <path d="M91.4301 24.9241C91.4301 25.2841 91.3661 25.5961 91.2381 25.8601C91.1101 26.1241 90.9301 26.3401 90.6981 26.5081C90.4661 26.6761 90.1901 26.8001 89.8701 26.8801C89.5501 26.9601 89.2021 27.0001 88.8261 27.0001H86.7621V20.7721H87.8181V22.9441H88.8981C89.6901 22.9441 90.3101 23.1001 90.7581 23.4121C91.2061 23.7241 91.4301 24.2281 91.4301 24.9241ZM87.8181 23.8441V26.1001H88.8261C89.2821 26.1001 89.6501 26.0161 89.9301 25.8481C90.2181 25.6721 90.3621 25.3841 90.3621 24.9841C90.3621 24.5761 90.2341 24.2841 89.9781 24.1081C89.7221 23.9321 89.3621 23.8441 88.8981 23.8441H87.8181Z" fill="currentColor"/>
        <path d="M100.235 27.0001H99.1794V24.2641C98.9634 24.4321 98.7114 24.5641 98.4234 24.6601C98.1434 24.7481 97.8234 24.7921 97.4634 24.7921C96.7594 24.7921 96.2194 24.6201 95.8434 24.2761C95.4754 23.9241 95.2914 23.3641 95.2914 22.5961V20.7721H96.3594V22.6081C96.3594 23.0961 96.4714 23.4361 96.6954 23.6281C96.9194 23.8201 97.2354 23.9161 97.6434 23.9161C97.9234 23.9161 98.1954 23.8761 98.4594 23.7961C98.7234 23.7161 98.9634 23.5921 99.1794 23.4241V20.7721H100.235V27.0001Z" fill="currentColor"/>
        <path d="M105.61 25.8121C105.538 25.9561 105.446 26.1081 105.334 26.2681C105.222 26.4201 105.082 26.5601 104.914 26.6881C104.746 26.8161 104.546 26.9201 104.314 27.0001C104.09 27.0801 103.826 27.1201 103.522 27.1201C102.962 27.1201 102.51 26.9641 102.166 26.6521C101.822 26.3321 101.65 25.8761 101.65 25.2841C101.65 24.6041 101.886 24.1041 102.358 23.7841C102.838 23.4641 103.518 23.3041 104.398 23.3041H105.562V22.7881C105.562 22.3561 105.45 22.0481 105.226 21.8641C105.002 21.6801 104.618 21.5881 104.074 21.5881C103.69 21.5881 103.326 21.6521 102.982 21.7801C102.638 21.9001 102.33 22.0401 102.058 22.2001V21.2521C102.282 21.1161 102.582 20.9841 102.958 20.8561C103.342 20.7201 103.762 20.6521 104.218 20.6521C105.002 20.6521 105.598 20.8161 106.006 21.1441C106.414 21.4641 106.618 21.9641 106.618 22.6441V25.9921C106.618 26.0641 106.618 26.1481 106.618 26.2441C106.626 26.3321 106.63 26.4241 106.63 26.5201C106.638 26.6161 106.646 26.7081 106.654 26.7961C106.662 26.8761 106.67 26.9441 106.678 27.0001H105.718C105.694 26.8881 105.67 26.7321 105.646 26.5321C105.63 26.3241 105.622 26.1441 105.622 25.9921L105.61 25.8121ZM103.75 26.1721C104.078 26.1721 104.358 26.1041 104.59 25.9681C104.822 25.8321 105.01 25.6761 105.154 25.5001C105.298 25.3161 105.402 25.1401 105.466 24.9721C105.53 24.7961 105.562 24.6721 105.562 24.6001V24.1441H104.506C103.874 24.1441 103.414 24.2361 103.126 24.4201C102.846 24.5961 102.706 24.8641 102.706 25.2241C102.706 25.5041 102.79 25.7321 102.958 25.9081C103.126 26.0841 103.39 26.1721 103.75 26.1721Z" fill="currentColor"/>
        <path d="M110.967 27.1201C110.487 27.1201 110.051 27.0481 109.659 26.9041C109.275 26.7521 108.947 26.5401 108.675 26.2681C108.403 25.9881 108.195 25.6481 108.051 25.2481C107.907 24.8481 107.835 24.3921 107.835 23.8801C107.835 23.3761 107.907 22.9241 108.051 22.5241C108.203 22.1241 108.415 21.7881 108.687 21.5161C108.959 21.2361 109.291 21.0241 109.683 20.8801C110.075 20.7281 110.519 20.6521 111.015 20.6521C111.399 20.6521 111.751 20.6961 112.071 20.7841C112.391 20.8641 112.655 20.9841 112.863 21.1441V22.0921C112.607 21.9241 112.319 21.8001 111.999 21.7201C111.687 21.6321 111.363 21.5881 111.027 21.5881C110.299 21.5881 109.763 21.7761 109.419 22.1521C109.083 22.5281 108.915 23.1041 108.915 23.8801C108.915 24.6561 109.079 25.2321 109.407 25.6081C109.735 25.9841 110.255 26.1721 110.967 26.1721C111.343 26.1721 111.687 26.1281 111.999 26.0401C112.319 25.9441 112.607 25.8241 112.863 25.6801V26.6281C112.639 26.7641 112.367 26.8801 112.047 26.9761C111.735 27.0721 111.375 27.1201 110.967 27.1201Z" fill="currentColor"/>
        <path d="M116.787 21.6721V27.0001H115.731V21.6721H113.775V20.7721H118.779V21.6721H116.787Z" fill="currentColor"/>
        <path d="M119.634 22.7881C119.634 22.4361 119.698 22.1361 119.826 21.8881C119.954 21.6321 120.134 21.4241 120.366 21.2641C120.598 21.0961 120.874 20.9721 121.194 20.8921C121.514 20.8121 121.862 20.7721 122.238 20.7721H124.242V27.0001H123.186V24.7441H122.046L120.45 27.0001H119.19L120.99 24.4801C120.558 24.3521 120.222 24.1561 119.982 23.8921C119.75 23.6281 119.634 23.2601 119.634 22.7881ZM123.186 23.8441V21.6721H122.238C121.79 21.6721 121.422 21.7561 121.134 21.9241C120.846 22.0921 120.702 22.3641 120.702 22.7401C120.702 23.1321 120.83 23.4161 121.086 23.5921C121.342 23.7601 121.706 23.8441 122.178 23.8441H123.186Z" fill="currentColor"/>
        <path d="M131.914 21.9961L129.802 26.3041H128.962L126.97 21.9721V27.0001H125.974V20.7721H127.546L129.454 24.9481L131.494 20.7721H132.958V27.0001H131.914V21.9961Z" fill="currentColor"/>
        <path d="M135.737 25.5601L139.061 20.7721H140.129V27.0001H139.073V22.2241L135.761 27.0001H134.681V20.7721H135.737V25.5601Z" fill="currentColor"/>
    </g>
</svg>
