<svg viewBox="0 0 88 15" xmlns="http://www.w3.org/2000/svg">
  <path fill="currentColor" d="M7.47271 14.6545C6.52656 14.6545 5.63874 14.499 4.80925 14.1879C3.99271 13.8769 3.27986 13.4168 2.6707 12.8076C2.0745 12.1984 1.60142 11.4532 1.25148 10.5718C0.901535 9.67755 0.726562 8.64716 0.726562 7.48068C0.726562 6.3142 0.901535 5.29028 1.25148 4.40894C1.60142 3.51464 2.0745 2.76939 2.6707 2.17319C3.27986 1.56403 3.99271 1.1104 4.80925 0.812295C5.63874 0.501234 6.52656 0.345703 7.47271 0.345703C8.43182 0.345703 9.31964 0.501234 10.1362 0.812295C10.9657 1.1104 11.685 1.55755 12.2942 2.15375C12.9033 2.74995 13.3764 3.4952 13.7134 4.3895C14.0633 5.27084 14.2383 6.29475 14.2383 7.46123C14.2383 8.61475 14.0633 9.63866 13.7134 10.533C13.3764 11.4273 12.9033 12.179 12.2942 12.7882C11.685 13.3973 10.9657 13.8639 10.1362 14.1879C9.31964 14.499 8.43182 14.6545 7.47271 14.6545ZM7.47271 12.6326C8.08187 12.6326 8.64567 12.5419 9.16411 12.3605C9.6955 12.179 10.1491 11.8874 10.525 11.4856C10.9138 11.0708 11.2184 10.5394 11.4387 9.8914C11.6591 9.2304 11.7692 8.4333 11.7692 7.50012C11.7692 6.56693 11.6591 5.77632 11.4387 5.12827C11.2184 4.48023 10.9138 3.95531 10.525 3.55352C10.1491 3.13878 9.6955 2.84067 9.16411 2.65922C8.64567 2.46481 8.08187 2.3676 7.47271 2.3676C6.86355 2.3676 6.29975 2.46481 5.78131 2.65922C5.26288 2.84067 4.80925 3.13878 4.42042 3.55352C4.04455 3.95531 3.74645 4.48023 3.52612 5.12827C3.30578 5.77632 3.19561 6.56693 3.19561 7.50012C3.19561 8.4333 3.30578 9.2304 3.52612 9.8914C3.74645 10.5394 4.04455 11.0708 4.42042 11.4856C4.80925 11.8874 5.26288 12.179 5.78131 12.3605C6.29975 12.5419 6.86355 12.6326 7.47271 12.6326Z M16.2687 4.37006H24.8423V14.4601H22.5871V6.19755H18.5239V14.4601H16.2687V4.37006Z M28.2502 10.8829C28.3928 10.2219 28.4835 9.36649 28.5224 8.31665C28.5742 7.25386 28.6001 5.93833 28.6001 4.37006H35.8518V14.4601H33.5966V6.19755H30.6609C30.635 7.53252 30.5832 8.71196 30.5054 9.73587C30.4276 10.7598 30.2656 11.6282 30.0194 12.341C29.7861 13.0409 29.4426 13.5788 28.989 13.9546C28.5483 14.3305 27.9521 14.5184 27.2004 14.5184C27.0967 14.5184 26.993 14.512 26.8893 14.499C26.7986 14.499 26.7014 14.4925 26.5977 14.4796V12.3799C26.7273 12.4058 26.8245 12.4188 26.8893 12.4188C27.2392 12.4188 27.5179 12.2956 27.7253 12.0494C27.9456 11.7902 28.1206 11.4013 28.2502 10.8829Z M44.219 12.691C44.1153 12.9243 43.9727 13.1575 43.7913 13.3908C43.6228 13.6241 43.4089 13.838 43.1497 14.0324C42.9034 14.2139 42.6053 14.3629 42.2554 14.4796C41.9055 14.5962 41.4972 14.6545 41.0306 14.6545C40.5899 14.6545 40.1817 14.5897 39.8058 14.4601C39.4299 14.3435 39.0994 14.162 38.8143 13.9158C38.5421 13.6695 38.3218 13.3649 38.1533 13.002C37.9977 12.6262 37.92 12.1984 37.92 11.7189C37.92 10.6172 38.3283 9.7942 39.1448 9.24984C39.9613 8.69252 41.1148 8.41386 42.6053 8.41386H44.1412V7.79174C44.1412 7.13073 43.9727 6.6771 43.6357 6.43084C43.2988 6.17163 42.7414 6.04202 41.9638 6.04202C41.3028 6.04202 40.6807 6.13922 40.0974 6.33364C39.5271 6.51509 39.0217 6.72894 38.581 6.9752V5.08939C38.9828 4.86906 39.5142 4.66168 40.1752 4.46727C40.8362 4.27285 41.5555 4.17565 42.3332 4.17565C43.6293 4.17565 44.6272 4.44783 45.3271 4.99218C46.04 5.52358 46.3964 6.379 46.3964 7.55844V12.827C46.3964 12.9437 46.3964 13.0798 46.3964 13.2353C46.4094 13.3779 46.4158 13.5269 46.4158 13.6825C46.4288 13.838 46.4418 13.987 46.4547 14.1296C46.4677 14.2592 46.4807 14.3694 46.4936 14.4601H44.4134C44.3745 14.2787 44.3356 14.0259 44.2967 13.7019C44.2708 13.3779 44.2514 13.0863 44.2384 12.827L44.219 12.691ZM41.6527 12.9048C42.1323 12.9048 42.5276 12.8076 42.8386 12.6132C43.1627 12.4058 43.4219 12.1725 43.6163 11.9133C43.8107 11.6411 43.9468 11.3754 44.0246 11.1162C44.1023 10.857 44.1412 10.6755 44.1412 10.5718V9.8914H42.7414C41.8471 9.8914 41.1926 10.034 40.7779 10.3191C40.3631 10.5913 40.1557 10.9801 40.1557 11.4856C40.1557 11.9263 40.2789 12.2762 40.5251 12.5354C40.7843 12.7817 41.1602 12.9048 41.6527 12.9048Z M53.2066 6.19755V14.4601H50.9515V6.19755H47.8992V4.37006H56.3173V6.19755H53.2066Z M60.273 11.4078L64.9389 4.37006H67.1552V14.4601H64.9195V7.46123L60.2924 14.4601H58.0372V4.37006H60.273V11.4078Z M74.2048 6.19755V14.4601H71.9496V6.19755H68.8973V4.37006H77.3154V6.19755H74.2048Z M87.1619 10.9801C87.1619 11.5634 87.0517 12.0753 86.8314 12.516C86.624 12.9567 86.3324 13.3196 85.9565 13.6047C85.5806 13.8898 85.1335 14.1037 84.6151 14.2463C84.0966 14.3888 83.5263 14.4601 82.9042 14.4601H79.016V4.37006H81.2711V7.63621H82.9625C84.2846 7.63621 85.3149 7.90839 86.0537 8.45274C86.7925 8.9971 87.1619 9.83956 87.1619 10.9801ZM81.2711 9.42481V12.691H82.7292C83.3514 12.691 83.8568 12.5678 84.2457 12.3216C84.6345 12.0624 84.8289 11.6411 84.8289 11.0579C84.8289 10.4746 84.6539 10.0599 84.304 9.81364C83.954 9.55442 83.4486 9.42481 82.7876 9.42481H81.2711Z"/>
</svg>
