<svg viewBox="0 0 168 22" width="168" height="22" fill="none" xmlns="http://www.w3.org/2000/svg">
    <path fill="currentColor" d="M135.027 3.93v13.498h-2.824V3.93h2.824Zm3.603 6.532c.431-.153.779-.404 1.001-.753.223-.35.348-.81.348-1.382 0-.782-.223-1.354-.682-1.731-.445-.377-1.168-.572-2.128-.572h-3.589V3.93h3.464c1.961 0 3.422.363 4.382 1.102.959.726 1.432 1.83 1.432 3.295 0 1.089-.236 1.954-.709 2.61-.473.656-1.141 1.13-1.989 1.424-.849.293-1.906.446-3.13.446h-3.45v-2.121h3.464c.612.014 1.14-.07 1.586-.224ZM154.273 15.04c0 .404.014.795.028 1.186.014.39.056.796.098 1.2h-2.713a8.976 8.976 0 0 1-.111-.432 3.626 3.626 0 0 1-.111-.545h-.098a6.886 6.886 0 0 1-.779.53 3.528 3.528 0 0 1-1.085.42c-.431.111-.96.167-1.572.167-1.085 0-1.947-.265-2.601-.796-.654-.53-.974-1.284-.974-2.247 0-.768.223-1.382.654-1.857.431-.474 1.113-.837 2.017-1.046.904-.21 2.101-.335 3.547-.335h.891v-.391c0-.335-.084-.614-.265-.838-.181-.223-.431-.377-.779-.46a5.326 5.326 0 0 0-1.252-.126c-.514 0-1.029.042-1.558.125a8.854 8.854 0 0 0-1.418.336c-.418.14-.765.279-1.03.418V8.325c.431-.223 1.03-.419 1.795-.572.765-.168 1.641-.237 2.643-.237 1.057 0 1.933.097 2.615.32.681.21 1.196.573 1.544 1.076.347.502.514 1.172.514 1.996v4.132Zm-2.796-2.108h-.834c-.835 0-1.502.042-2.003.14-.501.097-.863.25-1.085.46-.223.223-.334.516-.334.893 0 .28.069.53.195.726.125.196.334.35.598.46.264.112.612.182 1.029.182a3.57 3.57 0 0 0 1.447-.279 2.72 2.72 0 0 0 1.001-.754v-1.828h-.014ZM157.529 20.177v-2.024c.181.112.375.21.612.266.222.07.487.097.807.097.333 0 .612-.042.834-.14.223-.097.417-.25.57-.446.153-.195.293-.433.432-.712l-.056.838-4.646-10.4h2.921l3.506 8.445-.946.098 3.324-8.543h2.671l-3.937 9.339c-.25.6-.514 1.102-.793 1.535a5.134 5.134 0 0 1-.945 1.075 3.128 3.128 0 0 1-1.183.628c-.431.126-.96.196-1.544.196a4.517 4.517 0 0 1-1.627-.252Z"/>
    <path fill="#FC3F1D" d="M104.703 11c0-6.075 4.925-11 11-11s11 4.925 11 11-4.925 11-11 11-11-4.925-11-11Z"/>
    <path fill="#FFF" d="M117.25 17.614h2.298v-13.2h-3.343c-3.361 0-5.128 1.728-5.128 4.273 0 2.033.969 3.23 2.697 4.464l-3.001 4.463h2.488l3.343-4.995-1.158-.779c-1.406-.95-2.09-1.69-2.09-3.286 0-1.405.988-2.355 2.868-2.355h1.026v11.415Z"/>
    <path fill="currentColor" d="M7.038 17.187a7.353 7.353 0 0 1-2.603-.456 5.881 5.881 0 0 1-2.09-1.349C1.763 14.787 1.3 14.06.958 13.197c-.342-.874-.513-1.88-.513-3.02 0-1.14.171-2.142.513-3.003.342-.874.805-1.602 1.387-2.185a5.669 5.669 0 0 1 2.09-1.33 7.353 7.353 0 0 1 2.603-.456c.938 0 1.805.152 2.603.456a5.76 5.76 0 0 1 2.11 1.311c.595.583 1.057 1.311 1.386 2.185.342.861.513 1.862.513 3.002 0 1.127-.17 2.128-.513 3.002-.329.874-.791 1.609-1.387 2.204a6.065 6.065 0 0 1-2.109 1.368 7.253 7.253 0 0 1-2.603.456Zm0-1.976a4.97 4.97 0 0 0 1.653-.266c.52-.177.963-.462 1.33-.855.38-.405.678-.925.893-1.558.216-.646.323-1.425.323-2.337 0-.912-.107-1.685-.323-2.318-.215-.633-.513-1.146-.893-1.539a3.132 3.132 0 0 0-1.33-.874 4.671 4.671 0 0 0-1.653-.285c-.595 0-1.146.095-1.653.285-.506.177-.95.469-1.33.874-.367.393-.658.906-.874 1.54-.215.632-.323 1.405-.323 2.317 0 .912.108 1.691.323 2.337.216.633.507 1.153.874 1.558.38.393.824.678 1.33.855a4.97 4.97 0 0 0 1.653.266ZM15.635 7.136h8.379v9.861H21.81V8.922h-3.971v8.075h-2.204v-9.86ZM27.344 13.501c.14-.646.228-1.482.266-2.508.05-1.039.076-2.324.076-3.857h7.087v9.861H32.57V8.922H29.7a62.141 62.141 0 0 1-.152 3.458c-.076 1-.234 1.85-.475 2.546-.228.684-.564 1.21-1.007 1.577-.43.367-1.013.551-1.748.551-.101 0-.203-.006-.304-.019a2.3 2.3 0 0 1-.285-.019v-2.052c.127.025.222.038.285.038.342 0 .614-.12.817-.36.216-.254.387-.634.513-1.14ZM42.95 15.268a3.31 3.31 0 0 1-.418.684 2.942 2.942 0 0 1-.627.627c-.24.177-.532.323-.874.437a3.79 3.79 0 0 1-1.197.171c-.43 0-.83-.063-1.197-.19a2.679 2.679 0 0 1-.969-.532 2.745 2.745 0 0 1-.646-.893 3.255 3.255 0 0 1-.228-1.254c0-1.076.4-1.88 1.197-2.413.798-.544 1.926-.817 3.382-.817h1.501v-.608c0-.646-.164-1.09-.494-1.33-.329-.253-.874-.38-1.634-.38-.646 0-1.254.095-1.824.285a8.024 8.024 0 0 0-1.482.627V7.84c.393-.215.912-.418 1.558-.608a7.447 7.447 0 0 1 2.11-.285c1.266 0 2.241.266 2.925.798.697.52 1.045 1.355 1.045 2.508V15.8c.013.14.02.285.02.437l.037.437c.013.127.026.235.038.323H43.14a8.675 8.675 0 0 1-.114-.74 29.16 29.16 0 0 1-.057-.856l-.019-.133Zm-2.508.21c.47 0 .855-.096 1.16-.286.316-.203.57-.43.76-.684.19-.266.322-.525.398-.779.076-.253.114-.43.114-.532v-.665h-1.368c-.874 0-1.513.14-1.919.418-.405.266-.608.646-.608 1.14 0 .43.12.773.361 1.026.254.24.621.361 1.102.361ZM51.734 8.922v8.075H49.53V8.922h-2.983V7.136h8.227v1.786h-3.04ZM58.64 14.014l4.56-6.878h2.166v9.861H63.18v-6.84l-4.522 6.84h-2.204v-9.86h2.185v6.877ZM72.255 8.922v8.075h-2.203V8.922h-2.984V7.136h8.228v1.786h-3.04ZM84.918 13.596c0 .57-.107 1.07-.323 1.501-.202.43-.487.786-.855 1.064a3.817 3.817 0 0 1-1.31.627 6.292 6.292 0 0 1-1.673.21h-3.8V7.135h2.204v3.192h1.653c1.292 0 2.3.266 3.021.798.722.532 1.083 1.356 1.083 2.47Zm-5.757-1.52v3.192h1.425c.608 0 1.102-.12 1.482-.36.38-.254.57-.666.57-1.236s-.17-.975-.513-1.216c-.342-.253-.836-.38-1.482-.38h-1.482ZM95.433 17.187c-.798 0-1.513-.114-2.147-.342a4.659 4.659 0 0 1-1.615-1.007 4.52 4.52 0 0 1-1.026-1.615c-.24-.633-.36-1.355-.36-2.166 0-.798.12-1.514.36-2.147a4.292 4.292 0 0 1 2.66-2.603c.646-.24 1.368-.36 2.166-.36.684 0 1.28.075 1.786.227.52.152.931.342 1.235.57v1.824A4.992 4.992 0 0 0 97.2 8.98c-.456-.14-.988-.209-1.596-.209-2.039 0-3.059 1.096-3.059 3.287s1.001 3.287 3.002 3.287c.646 0 1.197-.07 1.653-.209.47-.152.9-.342 1.292-.57v1.824c-.329.216-.74.405-1.235.57-.494.152-1.102.228-1.824.228Z"/>
</svg>