<svg xmlns="http://www.w3.org/2000/svg" fill="none" viewBox="0 0 204 60">
  <path fill="#93130A" d="M115.22 12h1.26c.3.18.58.39.9.53.34-.1.62-.35.93-.53h1.23c-.4.77-.98 1.6-1.95 1.58-1.1.18-1.94-.65-2.37-1.58zM0 13.95h4.08v29.88h8l8.14-24.43h8.35v23.13H18.32l1.36-4.09h4.76v-14.9h-1.17l-8.14 24.43H0V13.95z"/>
  <path fill="#93130A" d="M5.4 13.95h4.12v20.22c2.27-6.73 4.5-13.47 6.75-20.2 5.91-.03 11.83-.01 17.75-.02v34.02H16.5l1.38-4.14h12V18.09H19.34c-2.72 8.15-5.46 16.29-8.17 24.44H5.38l.01-28.58zM40.76 13.95h2.11c.73 2.04 1.4 4.1 2.16 6.15l2.12-6.15h2.13v8.23h-1.6c0-1.94.02-3.88 0-5.82-.72 1.92-1.3 3.89-2 5.82h-1.35c-.62-1.96-1.33-3.89-1.94-5.85-.06 1.95-.02 3.9-.03 5.85h-1.6v-8.23zM53.53 13.94c1.58-.37 3.38.1 4.42 1.38a4.35 4.35 0 01-.66 6.2c-2.06 1.61-5.52.9-6.6-1.55-1.19-2.33.25-5.5 2.84-6.03zm.3 1.52c-1.07.29-1.91 1.3-1.95 2.42a2.77 2.77 0 002.58 2.98c1.76.15 3.34-1.69 2.84-3.4-.3-1.52-2.02-2.47-3.48-2zM59.57 17.91a4.22 4.22 0 013.36-4.01 4.23 4.23 0 014.8 2.47h-1.75c-.92-1.1-2.7-1.4-3.81-.42a2.75 2.75 0 00-.2 4.12 2.67 2.67 0 003.89-.13c.6-.02 1.22-.01 1.83 0a4.78 4.78 0 01-1.77 1.93c-1.6.88-3.77.64-5.07-.66a4.45 4.45 0 01-1.28-3.3zM72.28 14.45c.43-.86 1.5-.4 2.26-.49-1.02 1.37-2.08 2.7-3.09 4.07 1.04 1.37 2.07 2.75 3.08 4.14h-1.9c-.82-1.15-1.63-2.31-2.46-3.46v3.47h-1.6v-8.23h1.6v3.42c.73-.95 1.4-1.95 2.1-2.92z"/>
  <path fill="#93130A" d="M77.24 14.03a4.46 4.46 0 014.56 1.1 4.36 4.36 0 01.2 5.74 4.5 4.5 0 01-5.94.72 4.3 4.3 0 011.18-7.56zm.72 1.4a2.7 2.7 0 00-2.06 2.47 2.75 2.75 0 002.2 2.9c1.61.38 3.3-.98 3.3-2.64.12-1.76-1.75-3.23-3.44-2.73zM84 13.95c1.33.06 2.78-.23 3.98.46 1.14.68 1.15 2.43.17 3.27 1.55.73 1.63 3.22.13 4.04-1.31.7-2.85.4-4.27.45v-8.22zm1.55 1.51v1.66c.42-.04.86 0 1.27-.13.46-.14.52-.72.4-1.11-.4-.51-1.11-.35-1.67-.42zm0 3.15v2.04c.66-.06 1.49.16 2-.38.45-.44.23-1.29-.34-1.5-.53-.2-1.11-.13-1.66-.16zM90.2 16.75a4.14 4.14 0 013.04-2.83 4.46 4.46 0 013.4.58c.7.45 1.14 1.16 1.53 1.86-.6.02-1.2.02-1.8.01-.57-.59-1.31-1.12-2.2-1.01-1.62 0-2.92 1.69-2.56 3.26a2.79 2.79 0 003.04 2.22c.65-.07 1.13-.54 1.66-.87.6-.1 1.2-.04 1.8-.03-.45.77-1 1.53-1.8 1.95a4.5 4.5 0 01-3.87.13 4.36 4.36 0 01-2.24-5.27zM99.04 13.95h1.53v3.47c.84-1.15 1.66-2.3 2.48-3.46h1.93c-1.03 1.34-2.06 2.7-3.1 4.03 1.02 1.4 2.07 2.79 3.09 4.19-.65 0-1.3 0-1.94-.02-.8-1.16-1.63-2.31-2.45-3.47v3.49h-1.54v-8.23zM105.84 13.95h1.6v5.64c1.2-1.88 2.38-3.77 3.59-5.64h1.55v8.23h-1.6v-5.6l-3.55 5.6h-1.6v-8.23zM114 13.95h1.6v5.65c1.19-1.88 2.39-3.75 3.57-5.64l1.58-.01v8.23h-1.54c0-1.88.01-3.76-.01-5.64-1.22 1.86-2.4 3.74-3.57 5.62l-1.63.02v-8.23zM139.34 24.86l1.3-.02c.31.67 1.26.72 1.57 0l1.35.02a2.16 2.16 0 01-2.53 1.56c-.87-.06-1.44-.8-1.69-1.56zM71.67 28.3a4.33 4.33 0 016-.73c.55.42.9 1.04 1.25 1.64-.58 0-1.17.06-1.75-.04-.55-.33-1.03-.83-1.7-.92a2.75 2.75 0 00-3.13 2.69 2.74 2.74 0 002.93 2.78c.74 0 1.33-.49 1.85-.95h1.77c-.36.61-.72 1.25-1.3 1.67a4.33 4.33 0 01-5.75-.57 4.42 4.42 0 01-.17-5.57zM40.76 26.85h1.6v5.58c1.2-1.85 2.38-3.72 3.56-5.58h1.59c-.01 2.74.02 5.49-.02 8.23l-1.58-.01v-5.6c-1.21 1.85-2.38 3.74-3.58 5.6l-1.56.01c-.02-2.74 0-5.49 0-8.23zM48.93 26.85h1.59v3.25h2.9v-3.25h1.6v8.22h-1.6v-3.43h-2.9v3.43h-1.6v-8.22zM56.54 33.54c1.02-2.23 2-4.47 3.04-6.7l1.4.01c.97 2.24 2 4.44 2.98 6.67l.77.03v2.53h-1.54v-1h-5.87v1H55.8v-2.55h.75zm3.7-4.47c-.63 1.5-1.3 2.98-1.94 4.46h3.93c-.67-1.48-1.3-2.98-1.98-4.46zM63.47 26.85h1.93c.74 1.4 1.38 2.86 2.13 4.26.6-1.42 1.22-2.85 1.85-4.27l1.72.01c-1.22 2.74-2.48 5.47-3.7 8.22h-1.75c.3-.72.75-1.4.92-2.18-1-2.03-2.07-4.02-3.1-6.04zM79.1 26.85h4.61v1.54h-1.54v6.68h-1.6V28.4H79.1v-1.54zM84.42 26.85c1.3.07 2.65-.2 3.89.26 1.65.7 1.87 3.27.46 4.31-.79.58-1.82.57-2.75.6v3.05h-1.6v-8.22zm1.6 1.53v2.09c.62-.04 1.37.1 1.88-.37.35-.47.28-1.31-.3-1.58-.5-.2-1.05-.11-1.58-.14zM90.58 26.85h1.6v5.63c1.2-1.87 2.37-3.77 3.58-5.64l1.56.01v8.22h-1.54v-5.66l-3.59 5.65-1.61.02v-8.23zM101.5 26.85h1.26c1.17 2.72 2.29 5.48 3.44 8.22h-1.75l-.85-2.12h-2.95l-.83 2.12h-1.75c1.13-2.74 2.3-5.48 3.43-8.22zm.63 2.34l-.86 2.21H103c-.28-.74-.57-1.48-.87-2.21zM106.24 35.08c1.1-2.75 2.16-5.5 3.27-8.24l1.39.01c1.07 2.75 2.17 5.48 3.25 8.22h-1.75c-.74-1.99-1.46-4-2.21-5.98l-2.2 5.99h-1.75zM114.9 26.85h1.59v3.13c1 .01 2.12-.12 2.98.51 1.38 1.03 1.2 3.55-.41 4.27-1.31.56-2.78.23-4.17.31v-8.22zm1.59 4.67v2.02c.58-.02 1.18.06 1.74-.12.73-.26.77-1.42.08-1.76-.58-.24-1.22-.11-1.82-.14zM121.28 26.85h1.6v3.26h2.9v-3.26h1.6v8.22h-1.6v-3.43h-2.9v3.43h-1.6v-8.22zM128.8 26.85h1.6v3.13c1 .02 2.14-.13 3 .52 1.4 1.08 1.14 3.67-.55 4.32-1.3.47-2.7.17-4.04.26-.03-2.74-.01-5.49-.02-8.23zm1.6 4.67v2.02c.57-.02 1.17.06 1.74-.1.81-.3.73-1.67-.11-1.86-.54-.1-1.1-.06-1.64-.06zM135.06 26.85h1.54v8.22h-1.54v-8.22zM138.08 26.85h1.54v5.67l3.6-5.66 1.6-.01v8.22h-1.59v-5.64l-3.59 5.64h-1.56v-8.22zM40.76 39.75h4.85v1.53h-3.25v1.6c1.05.02 2.24-.12 3.12.57.85.67 1.03 1.92.72 2.92a2.43 2.43 0 01-2.16 1.58c-1.1.06-2.19 0-3.28.02v-8.22zm1.6 4.66v2.02c.88.02 2.46.24 2.42-1.07-.17-1.17-1.57-.92-2.42-.95zM50.13 39.74h1.24c1.16 2.73 2.3 5.48 3.44 8.23h-1.76c-.26-.7-.54-1.38-.81-2.07h-2.97l-.81 2.07H46.7l3.43-8.23zm-.25 4.62h1.76c-.3-.75-.6-1.5-.88-2.25-.3.74-.6 1.5-.88 2.25zM55.55 39.74h1.6v3.32h2.9v-3.31h1.6v8.22h-1.6v-3.42l-2.9-.01v3.42l-1.6.01v-8.23zM67.1 39.76l1.94-.01a764.2 764.2 0 01-3.1 4.05c1.01 1.4 2.05 2.78 3.08 4.17-.73-.12-1.82.36-2.26-.47-.7-1-1.39-2-2.1-2.98v3.45h-1.6v-8.22h1.6v3.42c.83-1.12 1.65-2.26 2.44-3.4z"/>
</svg>
