<svg width="32" height="32" viewBox="0 0 32 32" fill="none" xmlns="http://www.w3.org/2000/svg">
<path d="M4 4.00293C4.95987 4.00293 5.91973 4.00293 6.8796 4.00293C6.8796 11.0275 6.8796 18.052 6.8796 25.0766C8.75927 25.0799 10.6389 25.0783 12.5186 25.0783C14.435 19.3324 16.3497 13.5882 18.2628 7.84407C20.2276 7.84073 22.1924 7.8424 24.1572 7.8424C24.1589 13.2811 24.1572 18.7198 24.1589 24.1601C21.745 24.1601 19.3312 24.1618 16.919 24.1585C17.2361 23.1986 17.5567 22.2387 17.8772 21.2789C18.9973 21.2822 20.1157 21.2805 21.2359 21.2805C21.2359 17.7749 21.2359 14.2693 21.2359 10.7637C20.9588 10.7637 20.6816 10.7654 20.4062 10.7654C18.4931 16.5112 16.5751 22.2537 14.6637 27.9996C11.1097 27.9996 7.55401 27.9996 4 27.9996V4.00293Z" fill="white"/>
<path d="M7.8031 4C8.77466 4.00501 9.74621 4.00334 10.7178 4.00334C10.7211 8.75593 10.7178 13.5102 10.7194 18.2645C12.3203 13.5185 13.8962 8.76428 15.4754 4.01169C19.6487 3.99165 23.8237 4.00835 27.997 4.00334C27.997 12.0011 27.997 20.0006 27.997 28C23.8771 28 19.7572 28 15.6373 28C15.9611 27.0268 16.2867 26.0536 16.6105 25.0803C19.4317 25.0753 22.2529 25.0803 25.0757 25.0787C25.0757 19.0273 25.0757 12.976 25.0757 6.92467C22.5984 6.923 20.1211 6.92801 17.6438 6.923C15.7274 12.6705 13.7893 18.4114 11.8796 24.1605C10.5191 24.1589 9.1586 24.1605 7.7981 24.1605C7.80143 17.4398 7.79309 10.7207 7.8031 4Z" fill="white"/>
</svg>
