<svg xmlns="http://www.w3.org/2000/svg" width="32" height="32" fill="none">
    <rect width="32" height="32" fill="#F2F2F2" rx="16" />
    <path fill="#75736F" fill-rule="evenodd" d="M15.994 17.066c2.122 0 3.713-2.26 3.713-4.894C19.707 9.54 18.337 8 15.994 8s-3.713 1.539-3.713 4.172c0 2.634 1.591 4.894 3.713 4.894Zm.002 6.933c-3.16 0-5.133-.923-5.92-1.558a.645.645 0 0 1-.216-.534c0-2.009 2.418-3.356 6.132-3.356 3.713 0 6.139 1.348 6.139 3.355a.646.646 0 0 1-.216.536c-.787.635-2.76 1.557-5.919 1.557Z" clip-rule="evenodd"/>
    <rect x="2" y="2" width="28" height="28" rx="16" stroke-width="4" stroke="currentColor" />
</svg>
