<svg width="32" height="32" viewBox="0 0 32 32" fill="none" xmlns="http://www.w3.org/2000/svg">
<path fill-rule="evenodd" clip-rule="evenodd" d="M28.0001 9.8432C28.0001 8.29352 27.3849 6.80731 26.2899 5.71152C25.1949 4.61573 23.7098 4.00012 22.1612 4.00012H13.9111C11.2912 4.00243 8.99349 5.75047 8.29053 8.27609H18.2622C22.0975 8.27609 23.7263 10.0617 23.7263 14.2526V23.7229C26.2013 23.0336 28.0001 20.754 28.0001 18.1003V9.8432Z" fill="#0459CB"/>
<path fill-rule="evenodd" clip-rule="evenodd" d="M20.7086 13.2281V13.2029C21.1713 13.057 21.7877 12.6712 21.7877 11.6581C21.7877 10.5173 20.8622 9.99524 19.559 9.99524H17.3486V12.7225H16.0464C14.2978 12.7225 13.9375 13.9502 13.9375 14.6183C13.9375 15.5696 14.4862 15.9911 15.4986 16.4957C15.6032 16.548 15.7111 16.5969 15.8184 16.6455L15.8184 16.6455C16.3435 16.8832 16.8511 17.113 16.8511 17.6974C16.8511 18.0677 16.5091 18.5143 15.772 18.5143H14.4002C14.6069 18.1605 14.6919 17.7747 14.6919 17.4402C14.6919 17.0033 14.5374 15.2525 12.1029 15.2525H10.1147V22.0024H11.4682V19.0615L12.0169 19.6106H15.7208C17.4501 19.6106 18.2741 18.7193 18.2741 17.6558C18.2741 17.2788 18.2055 16.9752 18.0857 16.7287H19.474C21.6167 16.7287 22.1152 15.6653 22.1152 14.8319C22.1152 13.9841 21.5655 13.3567 20.7086 13.2281ZM12.1027 18.5146H11.468V16.3075H12.1027C12.892 16.3075 13.2513 16.787 13.2513 17.3709C13.2513 17.9123 12.9258 18.5146 12.1027 18.5146ZM17.3485 15.9641V14.3274H17.3475L17.8788 13.787H16.3553C15.5323 13.787 15.3603 14.1959 15.3603 14.4715C15.3603 15.0128 15.823 15.2526 16.252 15.4421L16.3922 15.5027C16.7351 15.6507 17.0609 15.7913 17.3485 15.9641ZM18.7021 11.0504H19.3204C20.3656 11.0504 20.4178 11.6933 20.4178 11.8906C20.4178 12.1815 20.2632 12.7229 19.3706 12.7229H18.7021V11.0504ZM18.7021 15.6654H19.474C20.3309 15.6654 20.6748 15.2023 20.6748 14.7219C20.6748 14.2414 20.4178 13.787 19.474 13.787H18.7021V15.6654Z" fill="#0459CB"/>
<path fill-rule="evenodd" clip-rule="evenodd" d="M4 22.157C3.99974 23.7069 4.61496 25.1934 5.71023 26.2893C6.80549 27.3851 8.29103 28.0006 9.83984 28H18.09C20.7105 27.9986 23.0088 26.2497 23.7105 23.7231H13.7389C9.90263 23.7231 8.27386 21.9385 8.27386 17.7466V8.27625C5.80074 8.96651 4 11.2471 4 13.9008V22.157Z" fill="#E15D29"/>
</svg>
