<svg xmlns="http://www.w3.org/2000/svg" fill="none" viewBox="0 0 204 60">
  <g fill-rule="evenodd">
    <path fill="#00734A" d="M0 22.45h15.12v15.12H0V22.45z"/>
    <path fill="#fff" d="M6.86 36.72A5.99 5.99 0 00.93 30.8v2.58a3.36 3.36 0 013.35 3.35h2.58z"/>
    <path fill="#fff" d="M10.49 36.72a9.58 9.58 0 00-9.56-9.56v2.58a6.99 6.99 0 016.99 6.98h2.57z"/>
    <path fill="#fff" d="M14.12 36.72a13.18 13.18 0 00-5.4-10.63h5.4v-2.56H.92v2.56a10.64 10.64 0 0110.63 10.63h2.57z"/>
    <path fill="#00734A" d="M163.43 22.4c.29 0 .57.03.85.07.37 0 .65.07.83.07.18 0 .45 0 .83-.07.28-.04.56-.07.85-.07v6.99a196.4 196.4 0 005.8-7l.6.09.6.06c.2 0 .38-.02.56-.05l.62-.1v.19a67.94 67.94 0 00-4.46 4.66c-.54.6-1 1.1-1.32 1.52l6.23 8.64v.3l-1.9-.1-1.9.09-4.83-7.08v7.08c-.18 0-.46 0-.83-.05-.37-.05-.66 0-.85 0h-.83c-.37 0-.65.05-.85.05V22.4zm-17.35 0c.27 0 .55.03.82.07.37 0 .65.07.85.07.2 0 .45 0 .82-.07.28-.04.57-.07.85-.07v6.05c.48 0 1.14.02 2 .06l1.46.05h1.28l2.14-.1V22.4c.27 0 .55.03.82.07.38 0 .65.07.83.07.18 0 .48 0 .85-.07.27-.04.53-.06.8-.07v15.3c-.18-.01-.46-.01-.83-.06-.37-.05-.66 0-.87 0h-.8c-.38 0-.65.05-.85.05v-7.46c-.4 0-1.06 0-2-.05h-3.23l-1.63.06v7.46c-.18 0-.45 0-.82-.05-.37-.05-.66 0-.85 0h-.82c-.38 0-.66.05-.85.05V22.4h.03zm-24.75 13.97l.91-.05c.26 0 .53-.04.78-.1a2.57 2.57 0 001.58-1.12c.36-.58.54-1.24.53-1.92.03-.76-.2-1.51-.65-2.13a1.92 1.92 0 00-1.54-.82h-1.6v6.14zm0-12.34v4.96h2.37a5.9 5.9 0 013.62 1 3.3 3.3 0 011.26 2.82 4.29 4.29 0 01-1.82 3.85c-1.22.68-2.6 1-3.99.94h-4.8V22.4h9.87l-.08.47v.49a5 5 0 00.11 1c-.79-.11-1.64-.2-2.56-.24-.91-.05-2.22-.08-3.99-.08l.01-.01zm-6.28 11.12l-.48 1.91c-.67.34-1.38.58-2.11.72-.76.16-1.53.24-2.3.24a8.8 8.8 0 01-6-2 6.93 6.93 0 01-2.35-5.54 7.99 7.99 0 012.6-6.42 9.26 9.26 0 016.23-2.06c.8 0 1.6.1 2.37.28.76.17 1.5.45 2.18.82l-.52 2.3h-.3a5 5 0 00-1.64-1.48 4.48 4.48 0 00-6.06 1.6 8.38 8.38 0 00-1.2 4.64 7.43 7.43 0 001.38 4.73 4.66 4.66 0 003.94 1.77 5.82 5.82 0 004-1.69l.28.15-.02.03zm-20.46-1.5a40.3 40.3 0 00-2-3.57L90.12 26c-1-1.62-1.74-2.82-2.16-3.6.33 0 .66.03 1 .07.43 0 .77.07 1 .07.21 0 .55 0 .99-.07.33-.04.66-.06 1-.07.2.4.6 1.13 1.2 2.19l1.77 2.99c.71 1.22 1.15 2 1.32 2.33.67-1.14 1.28-2.31 1.83-3.5.44-1 1.04-2.28 1.8-4l1.1.07 1.07-.07c-.44.78-1.23 2.28-2.4 4.53a358.34 358.34 0 00-3 5.99 73.3 73.3 0 00-2.16 4.73l-.45-.05a3.5 3.5 0 00-.49 0l-1 .09c.26-.44.68-1.25 1.25-2.44l.78-1.61.03.02zm-13.36-3.88c.5 0 .99-.05 1.47-.16a2.5 2.5 0 001.54-1.14c.32-.58.48-1.24.45-1.9.04-.75-.17-1.5-.6-2.12a1.76 1.76 0 00-1.47-.82h-1.4v6.14zm0 7.92c-.18 0-.45 0-.83-.05-.38-.05-.65 0-.85 0h-.85c-.38 0-.64.05-.82.05V22.4h5.5c3.17 0 4.76 1.27 4.76 3.78a4.15 4.15 0 01-1.93 3.9 10.19 10.19 0 01-5 .94v6.68h.02zm-11.5-5.99l-1.99-5.2-2.08 5.18 4.08.02zm-24.47-9.3c0 .17-.05.34-.08.52v.44a3.37 3.37 0 00.07.97c-.76-.11-1.54-.2-2.33-.24-.83-.1-1.77-.1-2.84-.1v4.84H43.6c.38 0 .9-.08 1.57-.16l-.06.45v.49.46c0 .21.05.37.06.5-.91-.13-1.83-.19-2.75-.19h-2.34v5.6c1.07 0 2 0 2.81-.09.8-.08 1.6-.13 2.37-.24 0 .17-.05.34-.08.52v.45a3.5 3.5 0 00.07.96h-8.52V22.4h8.53zM26.67 36.37l.92-.05c.26 0 .52-.04.78-.1a2.56 2.56 0 001.57-1.14 3.5 3.5 0 00.53-1.92c.03-.76-.2-1.51-.65-2.13a1.9 1.9 0 00-1.53-.82h-1.62V36.37zM51.68 22.4a.8.8 0 01.73.85c0 .1-.02.22-.06.32-.47 1.27-1 2.6-1.54 3.99-.66 1.69-1.36 3.38-2.1 5.07l-2.16 5.06 1-.06 1 .06a119.46 119.46 0 012.69-7.42c.58-1.47 1.07-2.68 1.46-3.62.68 1.84 1.37 3.7 2.08 5.53a92.6 92.6 0 011.86 5.51c.23 0 .55 0 1-.06.66-.1 1.34-.1 2 0 .44 0 .76.06 1 .06l-2.06-5.06c-.92-2.3-1.58-4-2-5.09-.68-1.73-1.28-3.44-1.9-5.15h-3zm18.19.9l-.35-1h-3a.8.8 0 01.72.85c.02.1.02.21 0 .32l-5.87 14.23 1.07-.09 1 .09c.13-.48.31-1 .52-1.68.21-.68.56-1.62 1-3h5.2c.26.65.53 1.4.83 2.29l.88 2.4.78-.06h1.96l1.09.05-5.83-14.4zm68.17 8.45l-2-5.2-2.1 5.2h4.1zm.14-8.4l-.35-1h-3a.8.8 0 01.73.86c0 .1-.02.22-.06.32l-5.84 14.15 1.06-.09 1.06.1c.13-.48.31-1 .52-1.68.21-.67.56-1.62 1-3h5.2c.25.65.53 1.4.83 2.28.16.5.4 1.3.76 2.37h.79c.5 0 .87-.05 1.1-.05l.85.05h1.09l-5.79-14.4.05.1zM26.67 24v4.99h2.37a5.89 5.89 0 013.62 1 3.3 3.3 0 011.28 2.77 4.27 4.27 0 01-1.86 3.9 7.48 7.48 0 01-4.04.94h-4.71V22.4h9.86l-.1.47v.49c0 .33.04.67.12 1-.8-.11-1.65-.2-2.56-.24-.9-.05-2.25-.12-3.98-.12z"/>
  </g>
</svg>
