<svg xmlns="http://www.w3.org/2000/svg" width="48" height="11" fill="none">
    <path fill="url(#b)" d="M3.627 6.217h-.845V10H.923V.679h1.859v4.004h.923L6.513.679H8.45L5.174 5.333 8.58 10H6.383L3.627 6.217Zm11.357 3.341a6.47 6.47 0 0 1-.364.195c-.13.06-.29.121-.481.182a4.77 4.77 0 0 1-.65.13 5.036 5.036 0 0 1-.871.065c-1.318 0-2.293-.308-2.925-.923-.633-.615-.95-1.478-.95-2.587 0-.546.083-1.036.248-1.469.173-.433.411-.797.715-1.092a2.99 2.99 0 0 1 1.079-.689 3.853 3.853 0 0 1 1.404-.247c.52 0 .988.087 1.404.26.416.165.758.412 1.027.741.277.33.468.745.572 1.248.104.503.104 1.083 0 1.742h-4.576c.07.529.26.927.572 1.196.32.26.827.39 1.52.39.556 0 1.006-.06 1.353-.182.355-.121.663-.247.923-.377v1.417Zm-2.77-5.096c-.398 0-.732.121-1 .364-.269.243-.45.594-.546 1.053h2.808c.008-.477-.096-.832-.312-1.066-.217-.234-.533-.351-.95-.351ZM25.44 10h-8.918V3.253h1.794V8.57h1.768V3.253h1.807V8.57h1.742V3.253h1.807V10Zm8.082-3.341c0 .563-.087 1.062-.26 1.495a3.02 3.02 0 0 1-.728 1.092 2.914 2.914 0 0 1-1.092.663 4.023 4.023 0 0 1-1.352.221c-.494 0-.95-.082-1.365-.247a3.039 3.039 0 0 1-1.08-.754 3.513 3.513 0 0 1-.714-1.235c-.174-.503-.26-1.088-.26-1.755 0-.667.03-1.252.09-1.755.062-.511.157-.958.287-1.339.139-.39.312-.724.52-1.001.208-.277.455-.52.74-.728.365-.251.76-.42 1.184-.507A8.536 8.536 0 0 1 30.87.627c.338-.009.624-.022.858-.039a6.376 6.376 0 0 0 1.027-.195c.112-.043.216-.091.312-.143v1.573c-.096.052-.2.1-.312.143a2.583 2.583 0 0 1-.403.091c-.156.026-.347.052-.572.078l-.82.065c-.407.035-.77.082-1.091.143a1.73 1.73 0 0 0-.832.364c-.252.2-.45.472-.598.819-.139.338-.238.763-.3 1.274.425-.953 1.258-1.43 2.497-1.43a2.732 2.732 0 0 1 2.002.871c.269.277.48.62.637 1.027.165.407.247.871.247 1.391ZM30.09 8.687c.46 0 .836-.16 1.13-.481.296-.32.443-.819.443-1.495 0-.659-.148-1.148-.442-1.469a1.45 1.45 0 0 0-1.131-.494c-.45 0-.823.165-1.118.494-.295.32-.442.806-.442 1.456 0 .676.147 1.179.442 1.508.294.32.667.481 1.118.481ZM40.15 6.62c0 .555-.086 1.049-.26 1.482a3.008 3.008 0 0 1-.715 1.105 3.282 3.282 0 0 1-1.144.689c-.45.156-.953.234-1.508.234-.528 0-.966-.056-1.313-.169a3.11 3.11 0 0 1-.832-.39V8.154c.13.078.26.152.39.221.14.06.286.117.442.169.156.043.33.078.52.104.191.026.408.039.65.039 1.075 0 1.703-.472 1.885-1.417h-2.6V5.853h2.574c-.208-.867-.827-1.3-1.859-1.3-.468 0-.849.048-1.144.143-.286.095-.559.23-.819.403v-1.43c.2-.147.473-.273.82-.377.355-.113.792-.169 1.312-.169.555 0 1.053.082 1.495.247.451.156.832.386 1.144.689.312.295.55.659.715 1.092.165.433.247.923.247 1.469Zm3.558.754h-.585V10h-1.794V3.253h1.794v2.691h.61l1.977-2.691h1.807L45.15 6.451 47.686 10H45.58l-1.872-2.626Z"/>
    <defs>
        <linearGradient id="b" x1="144" x2="-29.816" y1="18.667" y2="24.66" gradientUnits="userSpaceOnUse">
            <stop offset=".008" stop-color="#30ABD1"/>
            <stop offset=".22" stop-color="#397DDB"/>
            <stop offset=".428" stop-color="#505ADD"/>
            <stop offset=".694" stop-color="#BE40C0"/>
            <stop offset=".864" stop-color="#F06151"/>
            <stop offset="1" stop-color="#F2991D"/>
        </linearGradient>
    </defs>
</svg>
