<svg xmlns="http://www.w3.org/2000/svg" fill="none" viewBox="0 0 204 60">
  <path fill="#231F20" d="M46.55 34.07c0-1.29-.92-2.39-2.63-2.39h-5.6v4.74h5.6c1.65 0 2.63-.89 2.63-2.35zm-.4-8.32c0-1.28-.92-2.23-2.38-2.23h-5.44v4.43h5.44c1.46 0 2.38-.92 2.38-2.2zM34 40.18V19.79h10.73c3.89 0 5.87 2.47 5.87 5.2 0 2.58-1.59 4.29-3.51 4.69 2.16.32 3.91 2.43 3.91 5 0 3.05-2.05 5.5-5.93 5.5H33.99zM58.53 31.04v5.32h4.71c1.68 0 2.9-1.04 2.9-2.66s-1.22-2.66-2.9-2.66h-4.7zM69.08 19.8v3.8H58.53v3.62h5.3c4.33 0 6.75 2.96 6.75 6.48 0 3.51-2.39 6.48-6.76 6.48H54.2V19.79h14.89zM85.26 26.36c0-1.7-1.28-2.74-3-2.74h-4.62v5.5h4.62c1.7 0 3-1.08 3-2.75zM73.31 40.18V19.79h9.54c4.43 0 6.85 3 6.85 6.58 0 3.59-2.44 6.58-6.85 6.58h-5.21v7.23H73.3zM103.99 26.36c0-1.7-1.28-2.74-3-2.74h-4.62v5.5H101c1.72 0 3-1.08 3-2.75zM92.03 40.18V19.79h9.54c4.44 0 6.86 3 6.86 6.58 0 3.59-2.45 6.58-6.86 6.58h-5.2v7.23h-4.34z"/>
  <path fill="#FFD200" d="M108.4 44.73H5.1V47h103.3v-2.27z"/>
  <path fill="#231F20" d="M12.25 39.84l-6.8.36-.56-10.87 6.79-.35.57 10.86zM24.87 33.63L23.1 40.2 12.6 37.38l1.76-6.57 10.5 2.82zM22.86 19.69l5.7 3.7-5.93 9.12-5.7-3.7 5.93-9.12zM9 17.28L14.28 13l6.85 8.45-5.28 4.28L9 17.28zM2.44 29.74L0 23.39l10.16-3.9 2.43 6.35-10.15 3.9z"/>
</svg>
