<svg width="32" height="32" viewBox="0 0 32 32" fill="none" xmlns="http://www.w3.org/2000/svg">
<path fill-rule="evenodd" clip-rule="evenodd" d="M2 16.025C2 8.26649 8.26649 2 15.9753 2V7.07287C11.0516 7.07287 7.02314 11.1013 7.02314 16.025C7.02314 20.9487 11.0516 24.9771 15.9753 24.9771C20.8989 24.9771 24.9274 20.9984 24.9274 15.9753H30.0002C30.0002 23.7338 23.7338 30.0002 15.9753 30.0002C8.26649 30.05 2 23.7338 2 16.025Z" fill="#006C3F"/>
<path d="M9.80811 16.0256C9.80811 12.5939 12.5932 9.80884 16.0249 9.80884C19.4565 9.80884 22.2416 12.5939 22.2416 16.0256C22.2416 19.4572 19.4565 22.2423 16.0249 22.2423C12.5932 22.2423 9.80811 19.4572 9.80811 16.0256Z" fill="#50B848"/>
<path d="M20.3516 8.11723C20.3516 6.12787 21.943 4.53638 23.9324 4.53638C25.9218 4.53638 27.5133 6.12787 27.5133 8.11723C27.5133 10.1066 25.9218 11.6981 23.9324 11.6981C21.943 11.6981 20.3516 10.1066 20.3516 8.11723Z" fill="#006C3F"/>
</svg>
