<svg xmlns="http://www.w3.org/2000/svg" fill="none" viewBox="0 0 206 60">
  <path fill="#DB322A" fill-rule="evenodd" d="M11.05 24.73l-.02.03-.2.27v.02c-.04.03-.08.08-.13.15l-2.92 3.73c-.72.94-4 5.52-5.34 7.38A10.07 10.07 0 010 29.74c0-5.69 4.74-10.3 10.6-10.3 2.51 0 4.94.87 6.88 2.47l.03.03c-.62-.02-1.3-.02-1.75-.02h-.12c-1.27 0-4.98.15-6.04.43-.33.09-.47.27-.47.5 0 .15.07.29.2.36 0 0 1.64.97 1.7 1.03.12.1.18.26.02.5zm-.45 15.3c-2.33 0-4.6-.75-6.46-2.14-.82.56-1.01.67-1.01.67a.67.67 0 01-.27.07c-.26 0-.7-.5-.98-.93-.01-.01 0-.04 0-.07.1.11.24.18.38.17.1 0 .18-.02.26-.06 0 0 .5-.27 3.03-2.11a145.5 145.5 0 007.7-6.08 248.65 248.65 0 006.04-5.31c.37-.33.88-.8.62-1.56l-.01-.03c.1.1.52.56.6.76.28.68-.14 1.22-.5 1.56a10 10 0 011.2 4.77c0 5.68-4.75 10.29-10.6 10.29z" clip-rule="evenodd"/>
  <path fill="#fff" fill-rule="evenodd" d="M11.04 24.73c.16-.23.09-.4-.02-.5l-1.71-1.02a.43.43 0 01-.2-.36c0-.24.15-.41.48-.5 1.05-.28 4.77-.43 6.03-.43.6 0 1.78 0 2.55.04.88.06 1.54.23 1.7.64.32.8-.21 1.3-.6 1.63-.2.18-2.88 2.64-6.04 5.32-2.5 2.11-5.06 4.14-7.7 6.08a43.68 43.68 0 01-3.02 2.1.64.64 0 01-.26.07.45.45 0 01-.39-.71s5-6.98 5.9-8.16c.91-1.18 3.1-3.95 3.1-3.95l.17-.25" clip-rule="evenodd"/>
  <path fill="#333" fill-rule="evenodd" d="M123.97 29.55v-.08c1.6-.32 3.5-1.5 3.5-3.92 0-2.6-2.24-4.5-6.74-4.5-2.28 0-4.19.42-5.32.98v16.91s1.47.07 5.54.07c4.25 0 7.16-1.55 7.16-5.07 0-2.59-2.4-4.07-4.14-4.4zm-61.69-8.48c1.52 0 2.95.32 4.13 1.03v3.09a4.06 4.06 0 00-3.43-1.55c-3.28 0-5.3 3.14-5.3 6.4 0 3.07 2.12 6.42 5.3 6.42 1.4 0 2.68-.4 3.43-1.38v3.05c-.94.68-2.42 1.05-4.15 1.05-5.22 0-7.97-4.64-7.97-9.11 0-4.41 2.75-9 8-9zM36.72 34.19V21.32h-.17a2.91 2.91 0 00-2.95 2.86v9.99c0 1.59-1.4 2.46-2.7 2.46-1.35 0-2.75-.94-2.75-2.46V21.32h-.22a3.06 3.06 0 00-3.1 3.03v9.84c0 2.83 2.57 5 5.95 5 3.38 0 5.94-2.17 5.94-5zm11.75-4.38c0-1.48-.73-3.94-5.24-3.94-1.6 0-3.81.38-5.19.96v12.16h3.23V28.24a4.98 4.98 0 011.84-.28c1.76 0 2.12 1.03 2.12 1.9v6.16a3.08 3.08 0 003.1 2.97h.14v-9.18zm4.62-3.94v10.17A3 3 0 0150.05 39h-.15V25.87h3.19zm.14-2.98c0-.86-.77-1.57-1.73-1.57-.97 0-1.77.7-1.77 1.57 0 .85.8 1.53 1.77 1.53.96 0 1.73-.68 1.73-1.53zm20.7 3.12c-.6-.1-1.28-.14-1.8-.14a10 10 0 00-4.64 1V39h.17a3.02 3.02 0 003.04-2.95v-7.7c.65-.34 2.12-.6 3.23.18v-2.5zm8.4 4.78c-.1-2.6-1.76-2.88-2.65-2.88h-.12c-1.81.05-2.66 1.29-2.66 3.6l5.43-.72zm-5.23 2.86l8.03-1.08v-.49c0-3.94-1.95-6.21-5.47-6.21-3.58 0-5.75 2.6-5.75 6.6 0 4.13 2.34 6.71 6.28 6.71 2.17 0 3.69-.51 4.51-.94v-2.6a6.68 6.68 0 01-4.2 1.27c-2.03 0-3.14-1.13-3.4-3.26zm16.46-5.25c-.36-.1-.73-.14-1.1-.14-2.66 0-3.22 2.48-3.22 4.55 0 2.88 1 4.3 3 4.3.33 0 1.08-.06 1.32-.1V28.4zm3.16 10.43v-17.5h-.14a3 3 0 00-3.04 2.97v2.27a7.79 7.79 0 00-1.76-.18c-3.48 0-5.72 2.57-5.72 6.58 0 3.96 2.14 6.16 6.08 6.21h.22c1.06 0 3.6-.19 4.36-.35zm4.7-12.96v10.17A3 3 0 0198.38 39h-.15V25.87h3.19zm.14-2.98c0-.86-.77-1.57-1.74-1.57-.96 0-1.76.7-1.76 1.57 0 .85.8 1.53 1.76 1.53.97 0 1.74-.68 1.74-1.53zm5.5-1.57v4.55h2.08v2.5h-2.08v6.97c0 .84.3 1.1 1.23 1.1.24 0 .6-.07.85-.16v2.6c-.02 0-.04 0-.07.02-.22.08-.8.28-1.55.28-2.36 0-3.67-1.12-3.67-3.16v-7.64h-1.4v-2.5h1.4v-1.6a3 3 0 013.02-2.96h.2zm11.59 9.1l1.06-.03c3.54-.1 4.94 1.06 4.94 3.5 0 2.28-1.6 3.1-3.82 3.1h-2.18v-6.57zm5.49-4.66c0-1.95-1.16-2.86-3.41-2.86-.82 0-1.45.1-2.08.28v5.6l1.06.01c3.32.1 4.43-.89 4.43-3.03zm11.94 6.42c-2.83.25-4.55.82-4.55 3 0 1.62 1.02 2.35 2.76 2.35.68 0 1.48-.05 1.8-.12v-5.23zm0-2.33v.87c-4.04.38-7.43 1.18-7.43 4.56 0 2.46 1.87 3.92 5.45 3.92h.68c1.25 0 3.34-.19 4.23-.35v-8.36c0-3.3-2.27-4.63-5-4.63-1.57 0-3.11.33-4.53.99v2.09a8.92 8.92 0 013.99-1.2c1.55 0 2.61.44 2.61 2.11zm9.5-4c4.52 0 5.25 2.46 5.25 3.94v9.2h-.15a3.09 3.09 0 01-3.1-2.98v-6.17c0-.87-.36-1.9-2.12-1.9-.83 0-1.3.09-1.84.28V39h-3.24V26.8c1.38-.58 3.6-.96 5.2-.96zm6.7 13.15a3.07 3.07 0 003.17-3.06V32.5l4.35 6.5h3.39l-4.84-6.95 4.14-5.87h-3.03l-4.01 5.78V21.29h-.03a3.07 3.07 0 00-3.17 3.05V39h.03z" clip-rule="evenodd"/>
</svg>
