<svg width="32" height="32" viewBox="0 0 32 32" fill="none" xmlns="http://www.w3.org/2000/svg">
<path fill-rule="evenodd" clip-rule="evenodd" d="M16.5985 9.46507L16.5726 9.50045L16.3179 9.84718L16.2963 9.87407C16.2593 9.92059 16.2062 9.98722 16.1394 10.071C15.4459 10.941 13.2771 13.6619 12.2768 14.9463C11.327 16.1691 6.98371 22.1541 5.22509 24.5826C3.21175 22.2546 2 19.2628 2 15.9992C2 8.5763 8.26742 2.56012 15.9999 2.56012C19.319 2.55029 22.536 3.68848 25.088 5.77554L25.1268 5.81092C24.3123 5.78903 23.4144 5.7894 22.8234 5.78965C22.7649 5.78967 22.7094 5.7897 22.6573 5.7897C20.9893 5.7897 16.0819 5.98217 14.6874 6.35013C14.2499 6.46618 14.057 6.70111 14.057 7.00963C14.0573 7.19954 14.1554 7.37639 14.3175 7.47949C14.3175 7.47949 16.4877 8.74047 16.5798 8.81831C16.7238 8.9386 16.8144 9.16362 16.5985 9.46507ZM16.0001 29.4397C12.922 29.4477 9.92501 28.4689 7.46322 26.6517V26.6531C6.39251 27.3876 6.12915 27.5277 6.12915 27.5277C6.02117 27.579 5.9036 27.608 5.78376 27.6126C5.43693 27.6126 4.84257 26.9659 4.48278 26.4069C4.46695 26.3828 4.47271 26.346 4.49142 26.305L4.4943 26.3092C4.61452 26.4557 4.79653 26.5397 4.98792 26.5371C5.10787 26.5332 5.22561 26.5042 5.33331 26.4521C5.33331 26.4521 5.98524 26.1026 9.33409 23.6967C12.8126 21.1648 16.2032 18.5182 19.5001 15.7614C23.1409 12.7052 26.3139 9.864 27.2355 9.03876C27.3688 8.91933 27.4551 8.84212 27.4887 8.8126C27.9723 8.39227 28.6472 7.77381 28.3062 6.78598L28.286 6.73503C28.427 6.8808 28.971 7.47661 29.0847 7.73985C29.4503 8.62437 28.8948 9.33058 28.4112 9.77496C29.4563 11.6885 30.0022 13.8271 30 15.9992C30 23.4235 23.7326 29.4397 16.0001 29.4397Z" fill="#DB322A"/>
<path fill-rule="evenodd" clip-rule="evenodd" d="M16.578 9.46163C16.7938 9.16019 16.7032 8.93516 16.5578 8.81487C16.4671 8.73703 14.2955 7.47464 14.2955 7.47464C14.1338 7.37181 14.0358 7.19559 14.035 7.00619C14.035 6.69626 14.2279 6.46274 14.6654 6.34669C16.0613 5.97873 20.9688 5.78626 22.6353 5.78626C23.4225 5.78626 24.981 5.7806 26.0086 5.8457C27.1599 5.91787 28.032 6.14714 28.2493 6.6821C28.6753 7.72938 27.9701 8.37615 27.4693 8.81204C27.2045 9.04272 23.6499 12.261 19.4821 15.7594C16.1854 18.5165 12.7948 21.1631 9.31611 23.6947C5.96581 26.1006 5.31532 26.4502 5.31532 26.4502C5.20762 26.5022 5.08988 26.5312 4.96993 26.5351C4.74299 26.541 4.53196 26.4209 4.42428 26.2243C4.31659 26.0278 4.33059 25.7884 4.46048 25.6053C4.46048 25.6053 11.056 16.4855 12.2563 14.9429C13.4565 13.4002 16.3362 9.79138 16.3362 9.79138C16.3362 9.79138 16.3707 9.75176 16.5765 9.46163" fill="white"/>
</svg>
