<svg width="32" height="32" viewBox="0 0 32 32" fill="none" xmlns="http://www.w3.org/2000/svg">
<path fill-rule="evenodd" clip-rule="evenodd" d="M25.1236 5.80796C24.3086 5.7855 23.407 5.78592 22.8112 5.7862C22.7491 5.78623 22.6903 5.78626 22.6353 5.78626C20.9688 5.78626 16.0613 5.97873 14.6654 6.34669C14.2279 6.46274 14.035 6.69626 14.035 7.00619C14.0358 7.19559 14.1338 7.37181 14.2955 7.47464C14.2955 7.47464 16.4671 8.73703 16.5578 8.81487C16.7032 8.93516 16.7938 9.16019 16.578 9.46163H16.5765C16.3707 9.75176 16.3362 9.79138 16.3362 9.79138C16.3362 9.79138 13.4565 13.4002 12.2563 14.9429C11.3062 16.1639 6.97614 22.1319 5.21188 24.5673C3.20645 22.2415 2 19.2556 2 15.9992C2 8.5763 8.26742 2.56012 15.9999 2.56012C19.319 2.55029 22.536 3.68848 25.088 5.77554L25.1236 5.80796ZM4.48655 26.3163C4.59272 26.4451 4.75005 26.5251 4.92026 26.5344C4.94263 26.5365 4.96521 26.5374 4.98792 26.5371C5.10787 26.5332 5.22561 26.5042 5.33331 26.4521C5.33331 26.4521 5.98524 26.1026 9.33409 23.6967C12.8126 21.1648 16.2032 18.5182 19.5001 15.7614C23.1408 12.7053 26.3137 9.86413 27.2354 9.03882L27.2355 9.03876C27.3688 8.91933 27.4551 8.84212 27.4887 8.8126C27.9723 8.39227 28.6472 7.77381 28.3062 6.78598L28.286 6.73503C28.427 6.8808 28.971 7.47661 29.0847 7.73985C29.4503 8.62437 28.8948 9.33058 28.4112 9.77496C29.4563 11.6885 30.0022 13.8271 30 15.9992C30 23.4235 23.7326 29.4397 16.0001 29.4397C12.922 29.4477 9.92501 28.4689 7.46322 26.6517V26.6531C6.39251 27.3876 6.12915 27.5277 6.12915 27.5277C6.02117 27.579 5.9036 27.608 5.78376 27.6126C5.43693 27.6126 4.84257 26.9659 4.48278 26.4069C4.46842 26.385 4.47183 26.3527 4.48655 26.3163Z" fill="white"/>
</svg>
