<svg width="137" height="28" viewBox="0 0 137 28" fill="none" xmlns="http://www.w3.org/2000/svg">
<path d="M46.9154 13.9999L56.479 24.2602C56.4625 24.2767 56.4461 24.2898 56.4297 24.3062C50.7802 29.5252 41.8312 29.1702 36.6123 23.5175C31.3934 17.8648 31.745 8.91898 37.3977 3.69678C43.034 -1.51228 51.9535 -1.17377 57.1823 4.44281L46.9154 13.9999Z" fill="#2BA661"/>
<path d="M37.412 3.68723C43.0384 -1.50539 51.9513 -1.17346 57.1801 4.44312C57.1834 4.44969 47.1925 13.78 46.8836 14.0166C46.8704 14.0265 48.0503 15.3115 48.0338 15.3213L56.4702 24.2112C56.4538 24.2277 56.4373 24.2408 56.4209 24.2572C50.7813 29.463 41.8323 29.1015 36.6232 23.4652C31.4142 17.8256 31.7724 8.89629 37.412 3.68723Z" fill="url(#paint0_radial_1073_27011)"/>
<path d="M37.4244 3.67683C43.041 -1.50265 51.9441 -1.17071 57.1794 4.44258C57.1893 4.45572 47.4745 13.5625 46.85 14.0325C46.8237 14.0522 47.9609 15.3142 47.9346 15.3372L56.4597 24.1647C56.4432 24.1811 56.4268 24.1943 56.4104 24.2107C50.7807 29.4033 41.8349 29.0352 36.6357 23.4121C31.4332 17.7856 31.7947 8.87274 37.4244 3.67683Z" fill="url(#paint1_radial_1073_27011)"/>
<path d="M37.4369 3.67027C43.0403 -1.49935 51.9401 -1.1707 57.1754 4.4393C57.1886 4.45574 47.7498 13.3391 46.8165 14.0457C46.7803 14.0752 47.8714 15.3175 47.832 15.3471C47.832 15.3471 56.4491 24.1154 56.4458 24.1154C56.4294 24.1318 56.413 24.145 56.3965 24.1614C50.78 29.3376 41.8342 28.9629 36.6449 23.3562C31.4555 17.7462 31.8203 8.84975 37.4369 3.67027Z" fill="url(#paint2_radial_1073_27011)"/>
<path d="M37.4538 3.66059C43.044 -1.4926 51.9372 -1.17053 57.1759 4.43619C57.1923 4.4592 48.0296 13.1158 46.7873 14.0623C46.738 14.0984 47.7864 15.321 47.7338 15.3604L56.4397 24.0663C56.4233 24.0827 56.4068 24.0959 56.3904 24.1123C50.7837 29.2753 41.8412 28.8941 36.6617 23.3005C31.479 17.707 31.847 8.82363 37.4538 3.66059Z" fill="url(#paint3_radial_1073_27011)"/>
<path d="M37.4667 3.65087C43.0471 -1.48917 51.9305 -1.17039 57.1724 4.43633C57.1921 4.46591 48.3088 12.899 46.7543 14.0788C46.6918 14.1248 47.6975 15.3244 47.6318 15.3737L56.4264 24.0204C56.4099 24.0368 56.3935 24.05 56.3771 24.0664C50.7802 29.213 41.8377 28.8252 36.6714 23.2481C31.5018 17.6677 31.8731 8.80077 37.4667 3.65087Z" fill="url(#paint4_radial_1073_27011)"/>
<path d="M37.4801 3.64096C43.0474 -1.48594 51.9275 -1.16715 57.1694 4.43628C57.1957 4.47243 48.5851 12.6788 46.7217 14.0952C46.6461 14.1511 47.6123 15.3276 47.5302 15.3901C47.5302 15.3901 56.4168 23.9743 56.4135 23.9776C56.3971 23.9941 56.3806 24.0072 56.3642 24.0236C50.7805 29.1538 41.838 28.7595 36.6815 23.1987C31.5251 17.6282 31.8997 8.77771 37.4801 3.64096Z" fill="url(#paint5_radial_1073_27011)"/>
<path d="M37.4965 3.63127C43.0539 -1.47919 51.9241 -1.16697 57.1693 4.43317C57.1989 4.47261 48.8644 12.4587 46.6921 14.1085C46.6066 14.1743 47.5268 15.3278 47.4315 15.4001C47.4315 15.4001 56.4069 23.9252 56.4036 23.9252C56.3872 23.9417 56.3707 23.9548 56.3543 23.9712C50.7837 29.0883 41.8412 28.6873 36.6946 23.1398C31.5447 17.5889 31.9227 8.75488 37.4965 3.63127Z" fill="url(#paint6_radial_1073_27011)"/>
<path d="M37.5095 3.62142C43.0538 -1.4759 51.9206 -1.16697 57.1659 4.42989C57.1987 4.4759 49.1436 12.2353 46.6557 14.125C46.5571 14.2006 47.4346 15.3311 47.3262 15.4133C47.3262 15.4133 56.3935 23.8759 56.3902 23.8792C56.3738 23.8957 56.3574 23.9088 56.3409 23.9252C50.7802 29.0258 41.8378 28.6183 36.7043 23.0872C31.5675 17.5495 31.9488 8.73188 37.5095 3.62142Z" fill="url(#paint7_radial_1073_27011)"/>
<path d="M37.5229 3.61156C43.0573 -1.47261 51.9144 -1.16697 57.1661 4.42661C57.2056 4.47919 49.4232 12.0151 46.6264 14.1381C46.5147 14.2236 47.3495 15.3311 47.2279 15.4231C47.2279 15.4231 56.384 23.8266 56.3807 23.8299C56.3642 23.8464 56.3478 23.8595 56.3314 23.8759C50.7838 28.9634 41.8446 28.546 36.7177 23.0313C31.5908 17.51 31.9754 8.70888 37.5229 3.61156Z" fill="url(#paint8_radial_1073_27011)"/>
<path d="M37.5359 3.60117C43.0571 -1.46985 51.9109 -1.16421 57.1627 4.42608C57.2054 4.48523 49.6991 11.7943 46.5934 14.154C46.4685 14.2493 47.2605 15.3372 47.1258 15.439C47.1258 15.439 56.3706 23.7801 56.3673 23.7834C56.3509 23.7998 56.3345 23.813 56.318 23.8294C50.7803 28.9004 41.8411 28.4798 36.7274 22.9782C31.6136 17.4701 32.0014 8.68534 37.5359 3.60117Z" fill="url(#paint9_radial_1073_27011)"/>
<path d="M37.5523 3.59181C43.0637 -1.46607 51.9076 -1.16372 57.1626 4.42328C57.2086 4.48573 49.9817 11.5746 46.5638 14.1677C46.4257 14.2728 47.1783 15.3377 47.0271 15.4494C47.0271 15.4494 56.364 23.7313 56.3607 23.7346C56.3443 23.751 56.3279 23.7642 56.3114 23.7806C50.7836 28.8385 41.8444 28.4112 36.7438 22.9228C31.6366 17.4311 32.0277 8.65954 37.5523 3.59181Z" fill="url(#paint10_radial_1073_27011)"/>
<path d="M37.5652 3.5816C43.0668 -1.46313 51.9008 -1.16406 57.1592 4.42294C57.2085 4.49196 50.2576 11.3541 46.5307 14.1838C46.3828 14.2955 47.0894 15.3406 46.9284 15.4622C46.9284 15.4622 56.354 23.6817 56.3507 23.6882C56.3343 23.7047 56.3178 23.7178 56.3014 23.731C50.7867 28.7724 41.8475 28.3386 36.7568 22.8666C31.6561 17.3914 32.0505 8.6362 37.5652 3.5816Z" fill="url(#paint11_radial_1073_27011)"/>
<path d="M37.5787 3.57192C43.0671 -1.45638 51.8978 -1.16388 57.1562 4.41983C57.212 4.49542 50.5339 11.1341 46.4949 14.2004C46.3338 14.322 46.9977 15.3441 46.8235 15.4755C46.8235 15.4755 56.3411 23.6358 56.3345 23.6391C56.3181 23.6555 56.3017 23.6687 56.2852 23.6818C50.7804 28.7101 41.8445 28.2697 36.7603 22.8109C31.6794 17.3521 32.0771 8.61337 37.5787 3.57192Z" fill="url(#paint12_radial_1073_27011)"/>
<path d="M37.595 3.56207C43.0703 -1.45308 51.8945 -1.16387 57.1561 4.41655C57.2153 4.49871 50.8165 10.9106 46.4652 14.2135C46.291 14.345 46.9122 15.3441 46.7249 15.4887C46.7249 15.4887 56.3312 23.5865 56.3246 23.5931C56.3082 23.6063 56.2918 23.6227 56.2753 23.6358C50.7836 28.6477 41.8445 28.2007 36.7734 22.7583C31.7024 17.3127 32.1034 8.59037 37.595 3.56207Z" fill="url(#paint13_radial_1073_27011)"/>
<path d="M37.608 3.55236C43.0734 -1.44965 51.891 -1.16373 57.1559 4.4167C57.2184 4.50543 51.0957 10.6906 46.4355 14.2301C46.2481 14.3714 46.8298 15.3475 46.6261 15.502C46.6261 15.502 56.3212 23.5407 56.3179 23.544C56.3014 23.5571 56.285 23.5735 56.2686 23.5867C50.7867 28.5854 41.8508 28.1286 36.7897 22.7026C31.7252 17.2734 32.1295 8.56751 37.608 3.55236Z" fill="url(#paint14_radial_1073_27011)"/>
<path d="M37.6211 3.54281C43.0734 -1.44605 51.8844 -1.16013 57.1526 4.41373C57.2216 4.50575 51.375 10.4707 46.4026 14.2436C46.2021 14.3947 46.7411 15.3478 46.5242 15.5121C46.5242 15.5121 56.3113 23.4884 56.3047 23.495C56.2883 23.5081 56.2719 23.5246 56.2554 23.5377C50.7835 28.52 41.8508 28.0599 36.7995 22.6471C31.7482 17.2342 32.1525 8.54482 37.6211 3.54281Z" fill="url(#paint15_radial_1073_27011)"/>
<path d="M37.6374 3.53278C43.0798 -1.43965 51.8809 -1.1603 57.1524 4.41356C57.2247 4.51215 51.6542 10.2503 46.3728 14.2631C46.1625 14.4241 46.6554 15.3575 46.4254 15.5284C46.4254 15.5284 56.3012 23.4455 56.2947 23.4521C56.2782 23.4652 56.2618 23.4817 56.2454 23.4948C50.7865 28.4639 41.8506 27.994 36.8125 22.5976C31.7677 17.1946 32.1785 8.52164 37.6374 3.53278Z" fill="url(#paint16_radial_1073_27011)"/>
<path d="M37.6508 3.52293C43.0801 -1.43635 51.8779 -1.16029 57.1494 4.41028C57.225 4.51545 51.9305 10.0301 46.337 14.2763C46.1135 14.4472 46.5637 15.3575 46.3205 15.5383C46.3205 15.5383 56.2884 23.3962 56.2818 23.3995C56.2654 23.4126 56.2489 23.4291 56.2325 23.4422C50.7868 28.3982 41.8542 27.925 36.8259 22.5417C31.791 17.1552 32.2051 8.49536 37.6508 3.52293Z" fill="url(#paint17_radial_1073_27011)"/>
<path d="M37.6638 3.51259C43.0832 -1.43354 51.8745 -1.16077 57.1493 4.40651C57.2281 4.51825 52.213 9.80619 46.3072 14.2889C46.0706 14.4697 46.4781 15.357 46.2217 15.5509C46.2217 15.5509 56.2783 23.3464 56.2718 23.353C56.2553 23.3662 56.2389 23.3826 56.2225 23.3957C50.7866 28.3353 41.854 27.8555 36.8389 22.4887C31.8139 17.1153 32.2312 8.47188 37.6638 3.51259Z" fill="url(#paint18_radial_1073_27011)"/>
<path d="M37.6767 3.50338C43.0863 -1.42962 51.8677 -1.16013 57.1458 4.40716C57.2312 4.52218 52.4889 9.58992 46.2741 14.306C46.0244 14.4933 46.3925 15.361 46.1197 15.5647C46.1197 15.5647 56.265 23.3011 56.2584 23.3076C56.242 23.3208 56.2256 23.3372 56.2091 23.3504C50.7832 28.2735 41.8538 27.7871 36.8453 22.4334C31.8367 17.0765 32.2573 8.44951 37.6767 3.50338Z" fill="url(#paint19_radial_1073_27011)"/>
<path d="M37.6933 3.49335C43.0897 -1.4265 51.8646 -1.15701 57.1459 4.4037C57.2347 4.5253 52.7684 9.36627 46.2447 14.3223C45.9851 14.5195 46.3071 15.3641 46.0212 15.5777C46.0212 15.5777 56.2586 23.2516 56.2487 23.2582C56.2323 23.2713 56.2159 23.2878 56.1994 23.3009C50.7866 28.2076 41.854 27.7146 36.8585 22.3774C31.8598 17.0369 32.2805 8.42634 37.6933 3.49335Z" fill="url(#paint20_radial_1073_27011)"/>
<path d="M37.7066 3.48332C43.0931 -1.42009 51.8614 -1.15718 57.1428 4.40353C57.2348 4.5317 53.0478 9.14591 46.212 14.3352C45.9392 14.5423 46.2186 15.3639 45.9195 15.5874C45.9195 15.5874 56.2456 23.2021 56.239 23.2087C56.2226 23.2219 56.2061 23.2383 56.1897 23.2514C50.7867 28.145 41.8574 27.6455 36.8718 22.3214C31.8797 16.9973 32.3069 8.40317 37.7066 3.48332Z" fill="url(#paint21_radial_1073_27011)"/>
<path d="M37.7196 3.47347C43.0929 -1.4168 51.8547 -1.15716 57.1426 4.40026C57.2412 4.535 53.327 8.92573 46.1822 14.3517C45.8963 14.5686 46.1329 15.3672 45.824 15.6038C45.824 15.6038 56.2421 23.1561 56.2322 23.1627C56.2158 23.1759 56.1994 23.1923 56.183 23.2054C50.7931 28.0826 41.8638 27.5764 36.8881 22.2688C31.9025 16.9579 32.333 8.38017 37.7196 3.47347Z" fill="url(#paint22_radial_1073_27011)"/>
<path d="M37.7365 3.46314C43.0967 -1.41398 51.8518 -1.15764 57.1398 4.3965C57.2417 4.53781 53.6035 8.70506 46.1465 14.3644C45.8475 14.5911 46.0414 15.37 45.7193 15.6132C45.7193 15.6132 56.2261 23.1064 56.2163 23.1129C56.1998 23.1261 56.1834 23.1425 56.167 23.1557C50.787 28.0196 41.8577 27.5037 36.8951 22.2124C31.926 16.9179 32.3598 8.3534 37.7365 3.46314Z" fill="url(#paint23_radial_1073_27011)"/>
<path d="M37.7494 3.45329C43.0998 -1.41068 51.8484 -1.15763 57.1396 4.39322C57.2448 4.53783 53.886 8.48159 46.1168 14.3808C45.8046 14.6174 45.959 15.3733 45.6205 15.6264C45.6205 15.6264 56.2161 23.0571 56.2095 23.0669C56.1931 23.0801 56.1767 23.0965 56.1602 23.1097C50.7901 27.9572 41.8641 27.438 36.9114 22.1599C31.9488 16.8785 32.3859 8.33041 37.7494 3.45329Z" fill="url(#paint24_radial_1073_27011)"/>
<path d="M37.7624 3.44358C43.1029 -1.40397 51.8449 -1.1542 57.1361 4.39337C57.2446 4.54454 54.1619 8.26483 46.0837 14.3974C45.7617 14.6439 45.8701 15.3768 45.5185 15.6397C45.5185 15.6397 56.2061 23.0112 56.1962 23.0178C56.1798 23.0309 56.1633 23.0474 56.1469 23.0605C50.79 27.8949 41.8639 27.3658 36.9211 22.1042C31.9684 16.8359 32.4087 8.30755 37.7624 3.44358Z" fill="url(#paint25_radial_1073_27011)"/>
<path d="M37.7759 3.43716C43.1032 -1.40052 51.8387 -1.15403 57.1332 4.39353C57.2482 4.55128 54.4383 8.0448 46.0512 14.414C45.716 14.6703 45.7817 15.3802 45.4169 15.6563C45.4169 15.6563 56.1932 22.9654 56.1834 22.9752C56.1669 22.9884 56.1505 23.0048 56.1374 23.018C50.7903 27.8359 41.8642 27.3035 36.9345 22.055C31.9917 16.7967 32.4353 8.28471 37.7759 3.43716Z" fill="url(#paint26_radial_1073_27011)"/>
<path d="M37.7923 3.42732C43.1065 -1.39722 51.8354 -1.15402 57.1331 4.39026C57.2515 4.55458 54.7209 7.82133 46.0216 14.4271C45.6732 14.6901 45.6962 15.3802 45.3183 15.6661C45.3183 15.6661 56.1834 22.9161 56.1735 22.9259C56.1571 22.9391 56.1406 22.9555 56.1275 22.9687C50.7903 27.7735 41.8675 27.2312 36.9444 21.9992C32.0147 16.7572 32.4616 8.26172 37.7923 3.42732Z" fill="url(#paint27_radial_1073_27011)"/>
<path d="M37.8052 3.41761C43.1096 -1.3905 51.8319 -1.15059 57.1297 4.3904C57.2513 4.55801 54.9968 7.60457 45.9853 14.447C45.6237 14.7198 45.6073 15.3869 45.2129 15.6827C45.2129 15.6827 56.17 22.8702 56.1602 22.8801C56.1437 22.8932 56.1273 22.9097 56.1142 22.9228C50.7901 27.7112 41.8673 27.1656 36.9573 21.9467C32.0375 16.718 32.4877 8.23886 37.8052 3.41761Z" fill="url(#paint28_radial_1073_27011)"/>
<path d="M37.8187 3.40746C43.1132 -1.3875 51.8289 -1.15417 57.13 4.38682C57.2582 4.56101 55.2797 7.3808 45.956 14.4599C45.5846 14.7425 45.5222 15.3866 45.1147 15.6923C45.1147 15.6923 56.1605 22.8206 56.1506 22.8305C56.1342 22.8436 56.1178 22.8601 56.1046 22.8732C50.7937 27.6485 41.8676 27.093 36.9708 21.8906C32.0608 16.6782 32.5143 8.21556 37.8187 3.40746Z" fill="url(#paint29_radial_1073_27011)"/>
<path d="M37.8351 3.39743C43.1165 -1.38438 51.8223 -1.15104 57.1267 4.38338C57.2582 4.56413 55.5558 7.16044 45.9231 14.4728C45.5386 14.7653 45.4334 15.3898 45.0128 15.7053C45.0128 15.7053 56.1506 22.7712 56.1375 22.7843C56.121 22.7975 56.1046 22.8139 56.0915 22.827C50.7937 27.5859 41.8709 27.0239 36.9806 21.8378C32.0805 16.6386 32.5373 8.18911 37.8351 3.39743Z" fill="url(#paint30_radial_1073_27011)"/>
<path d="M37.8476 3.38774C43.1191 -1.38093 51.8184 -1.15088 57.126 4.38354C57.2608 4.57087 55.8345 6.94041 45.8929 14.4894C45.4952 14.7918 45.3473 15.3932 44.9135 15.7186C44.9135 15.7186 56.1401 22.7253 56.1269 22.7352C56.1105 22.7483 56.0941 22.7648 56.0809 22.7779C50.793 27.5236 41.8702 26.955 36.9931 21.7821C32.1029 16.5993 32.563 8.16627 37.8476 3.38774Z" fill="url(#paint31_radial_1073_27011)"/>
<path d="M37.8611 3.3779C43.1194 -1.37762 51.8154 -1.15086 57.1231 4.38027C57.2611 4.57089 56.1141 6.72024 45.8603 14.5059C45.4495 14.8181 45.2589 15.3965 44.8152 15.7317C44.8152 15.7317 56.1306 22.6761 56.1207 22.6892C56.1043 22.7023 56.0878 22.7188 56.0747 22.7319C50.7933 27.4612 41.8706 26.886 37.0033 21.7296C32.1262 16.5599 32.5896 8.14328 37.8611 3.3779Z" fill="url(#paint32_radial_1073_27011)"/>
<path d="M37.8745 3.36855C43.123 -1.37383 51.8125 -1.15035 57.1234 4.37749C57.268 4.57468 56.3938 6.49727 45.8278 14.5195C45.4038 14.8416 45.1738 15.397 44.7137 15.7421C44.7137 15.7421 56.121 22.6273 56.1079 22.6371C56.0914 22.6503 56.075 22.6667 56.0619 22.6798C50.7937 27.3959 41.8742 26.8175 37.0168 21.6742C32.1495 16.521 32.6162 8.12078 37.8745 3.36855Z" fill="url(#paint33_radial_1073_27011)"/>
<path d="M37.8905 3.35786C43.1258 -1.36808 51.8054 -1.14789 57.1196 4.37667C57.2675 4.58043 56.6694 6.27954 45.7944 14.5351C45.3606 14.8671 45.0846 15.3995 44.6113 15.7577C44.6113 15.7577 56.1074 22.5837 56.0942 22.5936C56.0778 22.6067 56.0614 22.6232 56.0482 22.6363C50.7932 27.336 41.8737 26.7477 37.0261 21.6241C32.172 16.4807 32.642 8.09695 37.8905 3.35786Z" fill="url(#paint34_radial_1073_27011)"/>
<path d="M37.9039 3.34851C43.1294 -1.36429 51.8024 -1.14738 57.1199 4.37389C57.2711 4.58422 56.9523 6.05656 45.7652 14.5488C45.3182 14.8873 44.9994 15.4 44.513 15.7681C44.513 15.7681 56.1011 22.5316 56.088 22.5448C56.0715 22.5579 56.0551 22.5744 56.042 22.5875C50.7968 27.274 41.8806 26.6792 37.0429 21.5687C32.1921 16.4418 32.6653 8.07446 37.9039 3.34851Z" fill="url(#paint35_radial_1073_27011)"/>
<path d="M37.9169 3.33833C43.1326 -1.36132 51.799 -1.1477 57.1165 4.37357C57.2742 4.58719 57.2282 5.83605 45.7321 14.5649C45.272 14.9133 44.9105 15.403 44.411 15.7809C44.411 15.7809 56.0878 22.4853 56.0747 22.4952C56.0582 22.5083 56.0418 22.5247 56.0287 22.5379C50.7933 27.208 41.8771 26.6098 37.0526 21.5125C32.2149 16.4021 32.6914 8.04784 37.9169 3.33833Z" fill="url(#paint36_radial_1073_27011)"/>
<path d="M37.9338 3.32898C43.133 -1.35752 51.7929 -1.14719 57.117 4.37079C57.278 4.59099 57.508 5.61637 45.703 14.5819C45.2298 14.9401 44.8288 15.41 44.3129 15.7946C44.3129 15.7946 56.0784 22.4365 56.0653 22.4497C56.0489 22.4628 56.0324 22.4792 56.0193 22.4924C50.7971 27.146 41.8776 26.5413 37.0662 21.4572C32.2384 16.3631 32.7182 8.02535 37.9338 3.32898Z" fill="url(#paint37_radial_1073_27011)"/>
<path d="M37.9468 3.31882C43.1362 -1.35125 51.7894 -1.14749 57.1135 4.3672C57.2778 4.59397 57.7872 5.39587 45.67 14.5947C45.1836 14.9628 44.74 15.4097 44.2108 15.8074C44.2108 15.8074 56.0684 22.3902 56.052 22.4034C56.0356 22.4165 56.0191 22.4329 56.006 22.4461C50.7969 27.0866 41.8807 26.472 37.0759 21.4076C32.2612 16.3234 32.7443 8.00204 37.9468 3.31882Z" fill="url(#paint38_radial_1073_27011)"/>
<path d="M37.9598 3.30896C43.1393 -1.34797 51.786 -1.14421 57.1133 4.3672C57.281 4.60054 58.0664 5.17567 45.637 14.6111C45.1407 14.9891 44.6511 15.413 44.1088 15.8205C44.1088 15.8205 56.0551 22.3409 56.042 22.3541C56.0255 22.3672 56.0091 22.3836 55.996 22.3968C50.7968 27.0208 41.8806 26.3997 37.0889 21.3484C32.2841 16.2839 32.7705 7.97903 37.9598 3.30896Z" fill="url(#paint39_radial_1073_27011)"/>
<path d="M44.1171 15.9833C44.1171 15.9833 56.0485 22.2949 56.0321 22.3081C50.8526 26.965 41.897 26.3471 37.102 21.2958C32.3071 16.2445 32.7967 7.95605 37.9762 3.29912C43.1426 -1.34466 51.7827 -1.14419 57.1101 4.36394C57.2908 4.61371 57.6504 5.95001 44.1171 15.9833Z" fill="url(#paint40_radial_1073_27011)"/>
<path d="M43.0439 16.7503C45.6468 19.5011 48.4568 21.7326 50.9841 23.0636C53.4719 24.3716 55.4405 24.6411 56.3772 23.7998C57.3171 22.9585 57.2185 21.0129 56.1044 18.4691C55.0527 16.0601 53.2189 13.3422 50.8986 10.7295C48.9596 12.2807 43.0505 16.7437 43.0439 16.7503Z" fill="url(#paint41_linear_1073_27011)"/>
<path d="M51.109 10.5625C51.0399 10.6184 50.9742 10.671 50.9052 10.7268C53.2254 13.3363 55.0593 16.0575 56.111 18.4665C57.2218 21.0135 57.3204 22.9558 56.3837 23.7971C55.4438 24.6384 53.4785 24.3722 50.9906 23.0609C48.4601 21.7299 45.6468 19.4886 43.0472 16.7345C42.9782 16.7871 42.9125 16.8429 42.8435 16.8955L42.8369 16.9087C47.9934 22.3774 53.6856 25.5389 56.157 24.4183C56.2293 24.3854 56.2983 24.3492 56.364 24.3098C56.3739 24.3032 56.3837 24.2999 56.3936 24.2934C56.4856 24.2342 56.5744 24.1685 56.6565 24.0929C56.742 24.014 56.8176 23.9286 56.8899 23.8398C58.4805 21.7496 56.0025 16.0673 51.109 10.5625Z" fill="url(#paint42_linear_1073_27011)"/>
<path d="M43.2049 16.9186L43.0308 16.7411C56.926 6.24412 57.0969 4.9361 57.1823 4.44971C57.1823 4.44971 57.2875 4.56473 57.294 4.66004C57.3368 5.60983 52.154 10.155 43.2049 16.9186Z" fill="url(#paint43_linear_1073_27011)"/>
<path fill-rule="evenodd" clip-rule="evenodd" d="M14.8335 28C22.5655 28 28.8335 21.732 28.8335 14C28.8335 6.26801 22.5655 0 14.8335 0C7.10151 0 0.833496 6.26801 0.833496 14C0.833496 21.732 7.10151 28 14.8335 28ZM15.4808 7.84017H16.8977V22.4137H19.7314V5.61366H15.4808C11.2302 5.61366 9.0037 7.84017 9.0037 11.0787C9.0037 13.71 10.2182 15.1269 12.4447 16.7462L8.59888 22.4137H11.8374L15.8856 16.139L14.4688 15.1269C12.6471 13.9125 11.8374 12.9004 11.8374 10.8763C11.8374 9.05463 13.0519 7.84017 15.4808 7.84017Z" fill="black"/>
<path d="M72.9311 24.7899C75.2061 24.7899 76.7531 23.9709 77.6934 23.3339V20.3916C76.4801 21.2712 75.1454 21.9386 73.2041 21.9386C69.8674 21.9386 68.2901 19.2389 68.2901 13.9609C68.2901 8.53123 69.8067 5.9529 73.3861 5.9529C75.0544 5.9529 76.6014 6.6809 77.6934 7.37856V4.43623C76.7227 3.73856 75.1454 3.10156 73.2041 3.10156C67.5924 3.10156 64.5591 7.2269 64.5591 13.9609C64.5591 20.8769 67.7137 24.7899 72.9311 24.7899Z" fill="#18191A"/>
<path d="M79.9769 9.2289V24.4866H83.5866V12.0802H88.2579V24.4866H91.8676V9.2289H79.9769Z" fill="#18191A"/>
<path d="M93.6933 21.3622V24.4866C93.6933 24.4866 94.2696 24.7899 95.119 24.7899C98.213 24.7899 99.0016 22.6059 99.1836 17.5402L99.396 12.0802H103.066V24.4866H106.676V9.2289H96.3323L96.029 17.3886C95.9076 20.6342 95.6953 21.6352 94.5123 21.6352C93.9966 21.6352 93.6933 21.3622 93.6933 21.3622Z" fill="#18191A"/>
<path d="M109.718 9.2289V24.4866H112.842L118.423 15.0529V24.4866H121.942V9.2289H118.818L113.236 18.6626V9.2289H109.718Z" fill="#18191A"/>
<path d="M136.166 12.0802V9.2289H124.063V12.0802H128.31V24.4866H131.92V12.0802H136.166Z" fill="#18191A"/>
<defs>
<radialGradient id="paint0_radial_1073_27011" cx="0" cy="0" r="1" gradientUnits="userSpaceOnUse" gradientTransform="translate(50.4651 1.55006) rotate(0.0568598) scale(64.0794 47.5969)">
<stop stop-color="#2BA762"/>
<stop offset="0.8115" stop-color="#2AA45F"/>
</radialGradient>
<radialGradient id="paint1_radial_1073_27011" cx="0" cy="0" r="1" gradientUnits="userSpaceOnUse" gradientTransform="translate(50.4734 1.5414) rotate(0.113651) scale(63.9763 47.4918)">
<stop stop-color="#2BA963"/>
<stop offset="0.8115" stop-color="#29A15E"/>
</radialGradient>
<radialGradient id="paint2_radial_1073_27011" cx="0" cy="0" r="1" gradientUnits="userSpaceOnUse" gradientTransform="translate(50.483 1.54153) rotate(0.170358) scale(63.8794 47.3868)">
<stop stop-color="#2BAA64"/>
<stop offset="0.8115" stop-color="#289F5C"/>
</radialGradient>
<radialGradient id="paint3_radial_1073_27011" cx="0" cy="0" r="1" gradientUnits="userSpaceOnUse" gradientTransform="translate(50.4936 1.54183) rotate(0.226985) scale(63.7824 47.2818)">
<stop stop-color="#2BAC65"/>
<stop offset="0.6199" stop-color="#28A15D"/>
<stop offset="0.8115" stop-color="#279C5A"/>
</radialGradient>
<radialGradient id="paint4_radial_1073_27011" cx="0" cy="0" r="1" gradientUnits="userSpaceOnUse" gradientTransform="translate(50.5035 1.54206) rotate(0.283532) scale(63.6851 47.1767)">
<stop stop-color="#2BAD66"/>
<stop offset="0.5415" stop-color="#28A25E"/>
<stop offset="0.8115" stop-color="#269A59"/>
</radialGradient>
<radialGradient id="paint5_radial_1073_27011" cx="0" cy="0" r="1" gradientUnits="userSpaceOnUse" gradientTransform="translate(50.5132 1.5421) rotate(0.340034) scale(63.5813 47.0716)">
<stop stop-color="#2BAE67"/>
<stop offset="0.4659" stop-color="#28A35F"/>
<stop offset="0.8115" stop-color="#259757"/>
</radialGradient>
<radialGradient id="paint6_radial_1073_27011" cx="0" cy="0" r="1" gradientUnits="userSpaceOnUse" gradientTransform="translate(50.5231 1.54231) rotate(0.396428) scale(63.4836 46.9666)">
<stop stop-color="#2BB067"/>
<stop offset="0.4106" stop-color="#28A55F"/>
<stop offset="0.8115" stop-color="#249555"/>
</radialGradient>
<radialGradient id="paint7_radial_1073_27011" cx="0" cy="0" r="1" gradientUnits="userSpaceOnUse" gradientTransform="translate(50.5328 1.54237) rotate(0.452743) scale(63.3857 46.8615)">
<stop stop-color="#2BB168"/>
<stop offset="0.3688" stop-color="#28A661"/>
<stop offset="0.8115" stop-color="#239254"/>
</radialGradient>
<radialGradient id="paint8_radial_1073_27011" cx="0" cy="0" r="1" gradientUnits="userSpaceOnUse" gradientTransform="translate(50.5428 1.54242) rotate(0.509029) scale(63.2813 46.7564)">
<stop stop-color="#2BB369"/>
<stop offset="0.3353" stop-color="#28A862"/>
<stop offset="0.8115" stop-color="#229052"/>
</radialGradient>
<radialGradient id="paint9_radial_1073_27011" cx="0" cy="0" r="1" gradientUnits="userSpaceOnUse" gradientTransform="translate(50.5524 1.54655) rotate(0.565191) scale(63.183 46.645)">
<stop stop-color="#2BB46A"/>
<stop offset="0.3142" stop-color="#28A962"/>
<stop offset="0.8115" stop-color="#218E50"/>
</radialGradient>
<radialGradient id="paint10_radial_1073_27011" cx="0" cy="0" r="1" gradientUnits="userSpaceOnUse" gradientTransform="translate(50.562 1.54761) rotate(0.619912) scale(63.0845 46.5399)">
<stop stop-color="#2CB66B"/>
<stop offset="0.2851" stop-color="#29AB63"/>
<stop offset="0.791" stop-color="#1F8C4F"/>
<stop offset="0.8115" stop-color="#1F8B4E"/>
</radialGradient>
<radialGradient id="paint11_radial_1073_27011" cx="0" cy="0" r="1" gradientUnits="userSpaceOnUse" gradientTransform="translate(50.5719 1.54773) rotate(0.676377) scale(62.9795 46.4348)">
<stop stop-color="#2CB76C"/>
<stop offset="0.2704" stop-color="#29AC64"/>
<stop offset="0.7501" stop-color="#1F8D50"/>
<stop offset="0.8115" stop-color="#1E894D"/>
</radialGradient>
<radialGradient id="paint12_radial_1073_27011" cx="0" cy="0" r="1" gradientUnits="userSpaceOnUse" gradientTransform="translate(50.5818 1.5483) rotate(0.732701) scale(62.8807 46.3297)">
<stop stop-color="#2CB86D"/>
<stop offset="0.2533" stop-color="#29AD65"/>
<stop offset="0.7024" stop-color="#208E51"/>
<stop offset="0.8115" stop-color="#1D864B"/>
</radialGradient>
<radialGradient id="paint13_radial_1073_27011" cx="0" cy="0" r="1" gradientUnits="userSpaceOnUse" gradientTransform="translate(50.5941 1.54869) rotate(0.788945) scale(62.7816 46.2246)">
<stop stop-color="#2CBA6E"/>
<stop offset="0.2384" stop-color="#29AF66"/>
<stop offset="0.6611" stop-color="#209051"/>
<stop offset="0.8115" stop-color="#1C8449"/>
</radialGradient>
<radialGradient id="paint14_radial_1073_27011" cx="0" cy="0" r="1" gradientUnits="userSpaceOnUse" gradientTransform="translate(50.6022 1.54916) rotate(0.84511) scale(62.6823 46.1195)">
<stop stop-color="#2CBB6F"/>
<stop offset="0.2254" stop-color="#29B067"/>
<stop offset="0.6249" stop-color="#209153"/>
<stop offset="0.8115" stop-color="#1B8148"/>
</radialGradient>
<radialGradient id="paint15_radial_1073_27011" cx="0" cy="0" r="1" gradientUnits="userSpaceOnUse" gradientTransform="translate(50.6115 1.54972) rotate(0.901284) scale(62.5766 46.0144)">
<stop stop-color="#2CBD70"/>
<stop offset="0.2139" stop-color="#29B268"/>
<stop offset="0.593" stop-color="#209354"/>
<stop offset="0.8115" stop-color="#1A7F46"/>
</radialGradient>
<radialGradient id="paint16_radial_1073_27011" cx="0" cy="0" r="1" gradientUnits="userSpaceOnUse" gradientTransform="translate(50.6191 1.54978) rotate(0.957296) scale(62.4769 45.9093)">
<stop stop-color="#2CBE71"/>
<stop offset="0.2061" stop-color="#29B369"/>
<stop offset="0.5714" stop-color="#209454"/>
<stop offset="0.8115" stop-color="#197D44"/>
</radialGradient>
<radialGradient id="paint17_radial_1073_27011" cx="0" cy="0" r="1" gradientUnits="userSpaceOnUse" gradientTransform="translate(50.6269 1.54998) rotate(1.01323) scale(62.377 45.8041)">
<stop stop-color="#2CBF72"/>
<stop offset="0.1966" stop-color="#29B46A"/>
<stop offset="0.5451" stop-color="#209556"/>
<stop offset="0.8115" stop-color="#187A43"/>
</radialGradient>
<radialGradient id="paint18_radial_1073_27011" cx="0" cy="0" r="1" gradientUnits="userSpaceOnUse" gradientTransform="translate(50.6359 1.54963) rotate(1.06919) scale(62.2708 45.699)">
<stop stop-color="#2CC173"/>
<stop offset="0.1881" stop-color="#29B66B"/>
<stop offset="0.5214" stop-color="#209756"/>
<stop offset="0.8115" stop-color="#177841"/>
</radialGradient>
<radialGradient id="paint19_radial_1073_27011" cx="0" cy="0" r="1" gradientUnits="userSpaceOnUse" gradientTransform="translate(50.6523 1.55036) rotate(1.12497) scale(62.1705 45.5939)">
<stop stop-color="#2CC274"/>
<stop offset="0.1804" stop-color="#29B76C"/>
<stop offset="0.5" stop-color="#209857"/>
<stop offset="0.8115" stop-color="#16753F"/>
</radialGradient>
<radialGradient id="paint20_radial_1073_27011" cx="0" cy="0" r="1" gradientUnits="userSpaceOnUse" gradientTransform="translate(50.6597 1.55024) rotate(1.18067) scale(62.07 45.4888)">
<stop stop-color="#2CC474"/>
<stop offset="0.1733" stop-color="#29B96C"/>
<stop offset="0.4818" stop-color="#209A58"/>
<stop offset="0.8115" stop-color="#15733E"/>
</radialGradient>
<radialGradient id="paint21_radial_1073_27011" cx="0" cy="0" r="1" gradientUnits="userSpaceOnUse" gradientTransform="translate(50.6695 1.5527) rotate(1.23076) scale(61.9631 45.3836)">
<stop stop-color="#2CC575"/>
<stop offset="0.1669" stop-color="#29BA6D"/>
<stop offset="0.4639" stop-color="#209B59"/>
<stop offset="0.8115" stop-color="#14703C"/>
</radialGradient>
<radialGradient id="paint22_radial_1073_27011" cx="0" cy="0" r="1" gradientUnits="userSpaceOnUse" gradientTransform="translate(50.6762 1.55286) rotate(1.28632) scale(61.8623 45.2785)">
<stop stop-color="#2CC776"/>
<stop offset="0.161" stop-color="#29BC6E"/>
<stop offset="0.4475" stop-color="#209D5A"/>
<stop offset="0.8115" stop-color="#136E3A"/>
</radialGradient>
<radialGradient id="paint23_radial_1073_27011" cx="0" cy="0" r="1" gradientUnits="userSpaceOnUse" gradientTransform="translate(50.6833 1.55247) rotate(1.34179) scale(61.7612 45.1733)">
<stop stop-color="#2CC877"/>
<stop offset="0.1555" stop-color="#29BD6F"/>
<stop offset="0.4323" stop-color="#209E5B"/>
<stop offset="0.7958" stop-color="#136D3B"/>
<stop offset="0.8115" stop-color="#126B39"/>
</radialGradient>
<radialGradient id="paint24_radial_1073_27011" cx="0" cy="0" r="1" gradientUnits="userSpaceOnUse" gradientTransform="translate(50.7014 1.55256) rotate(1.39718) scale(61.6599 45.0683)">
<stop stop-color="#2CC978"/>
<stop offset="0.1517" stop-color="#29BE70"/>
<stop offset="0.4217" stop-color="#209F5C"/>
<stop offset="0.7763" stop-color="#126E3B"/>
<stop offset="0.8115" stop-color="#116937"/>
</radialGradient>
<radialGradient id="paint25_radial_1073_27011" cx="0" cy="0" r="1" gradientUnits="userSpaceOnUse" gradientTransform="translate(50.7112 1.55273) rotate(1.45264) scale(61.5525 44.9632)">
<stop stop-color="#2CCB79"/>
<stop offset="0.1469" stop-color="#29C071"/>
<stop offset="0.4082" stop-color="#20A15D"/>
<stop offset="0.7516" stop-color="#13703B"/>
<stop offset="0.8115" stop-color="#106735"/>
</radialGradient>
<radialGradient id="paint26_radial_1073_27011" cx="0" cy="0" r="1" gradientUnits="userSpaceOnUse" gradientTransform="translate(50.718 1.55285) rotate(1.50788) scale(61.4508 44.8581)">
<stop stop-color="#2CCC7A"/>
<stop offset="0.1424" stop-color="#29C172"/>
<stop offset="0.3959" stop-color="#20A25E"/>
<stop offset="0.7287" stop-color="#13713D"/>
<stop offset="0.8115" stop-color="#0F6434"/>
</radialGradient>
<radialGradient id="paint27_radial_1073_27011" cx="0" cy="0" r="1" gradientUnits="userSpaceOnUse" gradientTransform="translate(50.7243 1.55282) rotate(1.56304) scale(61.349 44.753)">
<stop stop-color="#2CCE7B"/>
<stop offset="0.1383" stop-color="#29C373"/>
<stop offset="0.3843" stop-color="#20A45F"/>
<stop offset="0.7074" stop-color="#13733E"/>
<stop offset="0.8115" stop-color="#0E6232"/>
</radialGradient>
<radialGradient id="paint28_radial_1073_27011" cx="0" cy="0" r="1" gradientUnits="userSpaceOnUse" gradientTransform="translate(50.7343 1.55284) rotate(1.61828) scale(61.2411 44.6478)">
<stop stop-color="#2CCF7C"/>
<stop offset="0.1344" stop-color="#29C474"/>
<stop offset="0.3736" stop-color="#20A560"/>
<stop offset="0.6876" stop-color="#13743E"/>
<stop offset="0.8115" stop-color="#0D5F30"/>
</radialGradient>
<radialGradient id="paint29_radial_1073_27011" cx="0" cy="0" r="1" gradientUnits="userSpaceOnUse" gradientTransform="translate(50.7407 1.5524) rotate(1.6733) scale(61.1389 44.5428)">
<stop stop-color="#2CD07D"/>
<stop offset="0.1316" stop-color="#29C575"/>
<stop offset="0.3659" stop-color="#20A661"/>
<stop offset="0.6733" stop-color="#13753F"/>
<stop offset="0.8115" stop-color="#0C5D2F"/>
</radialGradient>
<radialGradient id="paint30_radial_1073_27011" cx="0" cy="0" r="1" gradientUnits="userSpaceOnUse" gradientTransform="translate(50.7614 1.55203) rotate(1.72823) scale(61.0366 44.4379)">
<stop stop-color="#2DD27E"/>
<stop offset="0.1273" stop-color="#2AC776"/>
<stop offset="0.3538" stop-color="#21A862"/>
<stop offset="0.6512" stop-color="#137741"/>
<stop offset="0.8115" stop-color="#0A5A2D"/>
</radialGradient>
<radialGradient id="paint31_radial_1073_27011" cx="0" cy="0" r="1" gradientUnits="userSpaceOnUse" gradientTransform="translate(50.7672 1.55197) rotate(1.78308) scale(60.9342 44.3329)">
<stop stop-color="#2DD37F"/>
<stop offset="0.1249" stop-color="#2AC877"/>
<stop offset="0.3471" stop-color="#21A962"/>
<stop offset="0.6387" stop-color="#127841"/>
<stop offset="0.8115" stop-color="#09582B"/>
</radialGradient>
<radialGradient id="paint32_radial_1073_27011" cx="0" cy="0" r="1" gradientUnits="userSpaceOnUse" gradientTransform="translate(50.779 1.5517) rotate(1.83804) scale(60.8257 44.2279)">
<stop stop-color="#2DD580"/>
<stop offset="0.1218" stop-color="#2ACA78"/>
<stop offset="0.3385" stop-color="#21AB63"/>
<stop offset="0.6229" stop-color="#137A42"/>
<stop offset="0.8115" stop-color="#085629"/>
</radialGradient>
<radialGradient id="paint33_radial_1073_27011" cx="0" cy="0" r="1" gradientUnits="userSpaceOnUse" gradientTransform="translate(50.7863 1.55193) rotate(1.89274) scale(60.7231 44.1231)">
<stop stop-color="#2DD681"/>
<stop offset="0.1188" stop-color="#2ACB79"/>
<stop offset="0.3303" stop-color="#21AC65"/>
<stop offset="0.6078" stop-color="#137B43"/>
<stop offset="0.8115" stop-color="#075328"/>
</radialGradient>
<radialGradient id="paint34_radial_1073_27011" cx="0" cy="0" r="1" gradientUnits="userSpaceOnUse" gradientTransform="translate(50.7934 1.55082) rotate(1.94736) scale(60.6205 44.0184)">
<stop stop-color="#2DD881"/>
<stop offset="0.1161" stop-color="#2ACD79"/>
<stop offset="0.3227" stop-color="#21AE65"/>
<stop offset="0.5936" stop-color="#137D44"/>
<stop offset="0.8115" stop-color="#065126"/>
</radialGradient>
<radialGradient id="paint35_radial_1073_27011" cx="0" cy="0" r="1" gradientUnits="userSpaceOnUse" gradientTransform="translate(50.8248 1.55102) rotate(2.0021) scale(60.5121 43.9141)">
<stop stop-color="#2DD982"/>
<stop offset="0.1134" stop-color="#2ACE7A"/>
<stop offset="0.3154" stop-color="#21AF66"/>
<stop offset="0.5802" stop-color="#137E45"/>
<stop offset="0.8115" stop-color="#054E24"/>
</radialGradient>
<radialGradient id="paint36_radial_1073_27011" cx="0" cy="0" r="1" gradientUnits="userSpaceOnUse" gradientTransform="translate(50.8352 1.55618) rotate(2.05099) scale(60.4096 43.8099)">
<stop stop-color="#2DDA83"/>
<stop offset="0.1116" stop-color="#2ACF7B"/>
<stop offset="0.3101" stop-color="#21B067"/>
<stop offset="0.5705" stop-color="#137F46"/>
<stop offset="0.8115" stop-color="#044C23"/>
</radialGradient>
<radialGradient id="paint37_radial_1073_27011" cx="0" cy="0" r="1" gradientUnits="userSpaceOnUse" gradientTransform="translate(50.848 1.55666) rotate(2.10539) scale(60.3075 43.706)">
<stop stop-color="#2DDC84"/>
<stop offset="0.1086" stop-color="#2AD17C"/>
<stop offset="0.3018" stop-color="#21B268"/>
<stop offset="0.5566" stop-color="#138147"/>
<stop offset="0.8115" stop-color="#034921"/>
</radialGradient>
<radialGradient id="paint38_radial_1073_27011" cx="0" cy="0" r="1" gradientUnits="userSpaceOnUse" gradientTransform="translate(50.8687 1.55641) rotate(2.15992) scale(60.2 43.6026)">
<stop stop-color="#2DDD85"/>
<stop offset="0.1069" stop-color="#2AD27D"/>
<stop offset="0.2971" stop-color="#21B369"/>
<stop offset="0.5485" stop-color="#138247"/>
<stop offset="0.8115" stop-color="#02471F"/>
</radialGradient>
<radialGradient id="paint39_radial_1073_27011" cx="0" cy="0" r="1" gradientUnits="userSpaceOnUse" gradientTransform="translate(50.8861 1.55649) rotate(2.21417) scale(60.0989 43.4996)">
<stop stop-color="#2DDF86"/>
<stop offset="0.1041" stop-color="#2AD47E"/>
<stop offset="0.2895" stop-color="#21B56A"/>
<stop offset="0.5345" stop-color="#138449"/>
<stop offset="0.8115" stop-color="#01441E"/>
</radialGradient>
<radialGradient id="paint40_radial_1073_27011" cx="0" cy="0" r="1" gradientUnits="userSpaceOnUse" gradientTransform="translate(50.9259 1.55677) rotate(2.26834) scale(59.9982 43.3974)">
<stop stop-color="#2DE087"/>
<stop offset="0.1025" stop-color="#2AD57F"/>
<stop offset="0.2851" stop-color="#21B66B"/>
<stop offset="0.5265" stop-color="#138549"/>
<stop offset="0.8115" stop-color="#00421C"/>
</radialGradient>
<linearGradient id="paint41_linear_1073_27011" x1="57.3296" y1="33.5158" x2="40.5199" y2="-1.00242" gradientUnits="userSpaceOnUse">
<stop offset="0.1008" stop-color="#FF8475"/>
<stop offset="0.2408" stop-color="#FB6B5A"/>
<stop offset="0.4236" stop-color="#F7513D"/>
<stop offset="0.6059" stop-color="#F43E28"/>
<stop offset="0.7859" stop-color="#F3331C"/>
<stop offset="0.9608" stop-color="#F22F18"/>
</linearGradient>
<linearGradient id="paint42_linear_1073_27011" x1="44.9419" y1="11.2215" x2="56.8447" y2="25.8258" gradientUnits="userSpaceOnUse">
<stop offset="0.2264" stop-color="#55D48C"/>
<stop offset="0.3626" stop-color="#5AD68F"/>
<stop offset="0.5171" stop-color="#67DB99"/>
<stop offset="0.6806" stop-color="#7EE4A9"/>
<stop offset="0.8493" stop-color="#9EF0BF"/>
<stop offset="0.8511" stop-color="#9EF0BF"/>
</linearGradient>
<linearGradient id="paint43_linear_1073_27011" x1="42.7201" y1="16.5375" x2="53.8997" y2="7.81367" gradientUnits="userSpaceOnUse">
<stop stop-color="#43C27B"/>
<stop offset="0.1957" stop-color="#5BCC8C"/>
<stop offset="0.539" stop-color="#7EDBA7"/>
<stop offset="0.8194" stop-color="#94E5B7"/>
<stop offset="1" stop-color="#9CE8BD"/>
</linearGradient>
</defs>
</svg>
