<svg width="32" height="32" viewBox="0 0 32 32" fill="none" xmlns="http://www.w3.org/2000/svg">
<path fill-rule="evenodd" clip-rule="evenodd" d="M24.1668 4.62653C21.4703 2.69061 18.1735 1.77618 14.8651 2.04651C11.7873 2.29452 8.87814 3.55434 6.59155 5.62942C4.30497 7.70449 2.76957 10.4781 2.22491 13.5175C1.77281 16.0078 2.00504 18.5741 2.89682 20.9428C3.7886 23.3115 5.30651 25.3938 7.2887 26.9676C9.27089 28.5415 11.643 29.5479 14.1522 29.8795C16.6614 30.2111 19.2136 29.8556 21.5366 28.8507C24.5857 27.5387 27.0693 25.1855 28.5437 22.2115C30.0181 19.2375 30.3874 15.8362 29.5856 12.615C28.7839 9.39379 26.8633 6.56244 24.1668 4.62653ZM10.4542 17.2648C10.0328 16.8402 9.61141 16.4156 9.18964 15.9915C10.69 14.4196 12.2349 12.8865 13.7817 11.3514C14.5196 10.6192 15.2579 9.88651 15.992 9.14899C16.923 10.1 17.8677 11.0381 18.8123 11.9762C20.1528 13.3072 21.4931 14.6382 22.7943 16.0062C20.5388 18.2786 18.2763 20.5404 16.0067 22.7917C14.1334 20.9716 12.2935 19.1179 10.4542 17.2648Z" fill="white"/>
</svg>
