<svg width="32" height="32" viewBox="0 0 32 32" fill="none" xmlns="http://www.w3.org/2000/svg">
<path fill-rule="evenodd" clip-rule="evenodd" d="M22.0693 7.11253L24.7913 5.1061C22.3033 3.09139 19.1977 1.99465 15.9963 2.00027V2.00147C14.1589 1.99979 12.3393 2.36079 10.6418 3.06379C9.04539 3.72489 7.58649 4.6762 6.33859 5.86853C5.01158 7.13101 3.94502 8.64315 3.2009 10.3194C2.40748 12.1068 1.99836 14.0408 2.00001 15.9964C2 15.9988 2 16.0012 2 16.0036C1.99863 17.8417 2.36015 19.6619 3.06384 21.3598C3.73158 22.9711 4.69495 24.4422 5.90337 25.6975C7.15901 27.008 8.65908 28.062 10.3203 28.7993C12.0437 29.5642 13.9035 29.9718 15.7874 29.9984C15.8584 29.9995 15.9294 30 16.0005 30C17.8386 30.0019 19.6588 29.6406 21.3568 28.9369C22.8403 28.3221 24.2049 27.4564 25.3915 26.3794L25.3937 26.3819C26.846 25.0707 28.0065 23.4689 28.8001 21.6805C29.5937 19.892 30.0024 17.9567 30 16.0001C30.0017 15.1589 29.9282 14.3193 29.7801 13.4912L26.7668 15.712V16.0001C26.7676 17.5044 26.4522 18.9921 25.8413 20.3667C25.3031 21.5777 24.5459 22.6771 23.6095 23.6105L23.6082 23.6091C22.6105 24.6105 21.4248 25.4049 20.1193 25.9468C18.8138 26.4886 17.4141 26.7673 16.0007 26.7666V26.7664C15.8306 26.7665 15.6608 26.7625 15.4914 26.7545L15.4619 26.7523L15.4619 26.7531C14.1421 26.6873 12.8442 26.3784 11.6339 25.8406C10.4231 25.3025 9.32378 24.5456 8.3903 23.6097L8.39168 23.6083C7.39014 22.6108 6.59561 21.4251 6.05376 20.1195C5.51192 18.8138 5.23344 17.414 5.23432 16.0004C5.23432 16.0003 5.23432 16.0002 5.23432 16.0001H5.23433C5.23433 15.9916 5.23433 15.9831 5.23435 15.9745C5.23467 15.8392 5.23746 15.7044 5.24274 15.5703C5.2965 14.2132 5.60729 12.8771 6.15997 11.6336C6.69798 10.4231 7.45464 9.32408 8.39045 8.39091L8.3919 8.39235C9.38944 7.39044 10.5752 6.59559 11.881 6.05352C13.1867 5.51146 14.5867 5.23285 16.0006 5.23374C16.1809 5.23374 16.36 5.24034 16.5381 5.24913L16.5382 5.24667C18.5155 5.34435 20.431 5.98852 22.0693 7.11253ZM28.7563 10.2241C28.3068 9.23443 27.7438 8.30028 27.0787 7.44043L16.0037 15.6057L10.6741 12.2646V16.2841L16.0037 19.6252L28.7563 10.2241Z" fill="white"/>
</svg>
