<svg width="32" height="32" viewBox="0 0 32 32" fill="none" xmlns="http://www.w3.org/2000/svg">
<path d="M27.0787 7.44043C27.7438 8.30028 28.3068 9.23443 28.7563 10.2241L16.0037 19.6252L10.6741 16.2841V12.2646L16.0037 15.6057L27.0787 7.44043Z" fill="#21A038"/>
<path d="M5.23444 16.0004C5.23444 15.82 5.23884 15.6409 5.24764 15.4627L2.01771 15.3044C2.00672 15.5353 2.00013 15.7684 2.00013 16.0036C1.99875 17.8417 2.36027 19.6619 3.06396 21.3598C3.76764 23.0579 4.79964 24.6002 6.10074 25.8984L8.39181 23.6083C7.39026 22.6108 6.59573 21.4251 6.05389 20.1195C5.51204 18.8138 5.23356 17.414 5.23444 16.0004Z" fill="url(#paint0_linear_32470_52944)"/>
<path d="M16.0006 5.23374C16.1809 5.23374 16.36 5.24034 16.5381 5.24913L16.6997 2.01797C16.4682 2.00697 16.2351 2.00148 16.0006 2.00148C14.1617 1.99923 12.3407 2.36025 10.6418 3.06379C8.94289 3.76734 7.3997 4.79956 6.10083 6.10118L8.3919 8.39235C9.38944 7.39044 10.5752 6.59559 11.881 6.05352C13.1867 5.51146 14.5867 5.23285 16.0006 5.23374Z" fill="url(#paint1_linear_32470_52944)"/>
<path d="M16.0004 26.7666C15.8202 26.7666 15.6409 26.7666 15.4618 26.7523L15.3002 29.9824C15.5325 29.9941 15.7659 30 16.0004 30C17.8385 30.0019 19.6587 29.6406 21.3567 28.9369C23.0547 28.2332 24.5969 27.2008 25.8948 25.8992L23.6081 23.6091C22.6104 24.6105 21.4247 25.4049 20.1192 25.9468C18.8137 26.4887 17.414 26.7673 16.0004 26.7666Z" fill="url(#paint2_linear_32470_52944)"/>
<path d="M22.0693 7.11253L24.7913 5.1061C22.3033 3.09139 19.1977 1.99465 15.9963 2.00027V5.23363C18.1642 5.23094 20.2817 5.8861 22.0693 7.11253Z" fill="url(#paint3_linear_32470_52944)"/>
<path d="M30 16.0001C30.0017 15.1589 29.9282 14.3193 29.7801 13.4912L26.7668 15.712C26.7668 15.8077 26.7668 15.9033 26.7668 16.0001C26.7676 17.5044 26.4522 18.9921 25.8413 20.3667C25.2303 21.7413 24.3373 22.9722 23.2202 23.9796L25.3937 26.3819C26.846 25.0707 28.0065 23.4689 28.8001 21.6805C29.5937 19.892 30.0024 17.9567 30 16.0001Z" fill="#21A038"/>
<path d="M16.0007 26.7664C14.4963 26.767 13.0086 26.4515 11.6339 25.8406C10.2592 25.2296 9.02811 24.3367 8.02038 23.2197L5.61938 25.3922C6.93033 26.8448 8.53193 28.0055 10.3203 28.7993C12.1087 29.5931 14.044 30.0021 16.0007 29.9998V26.7664Z" fill="url(#paint4_linear_32470_52944)"/>
<path d="M8.78099 8.02062L6.60865 5.61841C5.15592 6.92932 3.99495 8.53095 3.20102 10.3194C2.4071 12.1079 1.99796 14.0433 2.00013 16.0001H5.23445C5.23378 14.4959 5.54915 13.0082 6.1601 11.6336C6.77105 10.259 7.66396 9.02809 8.78099 8.02062Z" fill="url(#paint5_linear_32470_52944)"/>
<defs>
<linearGradient id="paint0_linear_32470_52944" x1="6.75486" y1="25.4949" x2="3.22122" y2="15.2804" gradientUnits="userSpaceOnUse">
<stop offset="0.14" stop-color="#F1E813"/>
<stop offset="0.3" stop-color="#E6E418"/>
<stop offset="0.58" stop-color="#C9DA26"/>
<stop offset="0.89" stop-color="#A2CC39"/>
</linearGradient>
<linearGradient id="paint1_linear_32470_52944" x1="7.02429" y1="6.67288" x2="16.126" y2="3.20451" gradientUnits="userSpaceOnUse">
<stop offset="0.06" stop-color="#0FA7DF"/>
<stop offset="0.54" stop-color="#0098F8"/>
<stop offset="0.92" stop-color="#0290EA"/>
</linearGradient>
<linearGradient id="paint2_linear_32470_52944" x1="15.0869" y1="28.0485" x2="25.3791" y2="25.7235" gradientUnits="userSpaceOnUse">
<stop offset="0.12" stop-color="#A2CC39"/>
<stop offset="0.28" stop-color="#86C239"/>
<stop offset="0.87" stop-color="#219F38"/>
</linearGradient>
<linearGradient id="paint3_linear_32470_52944" x1="15.3236" y1="3.08318" x2="24.1229" y2="5.7985" gradientUnits="userSpaceOnUse">
<stop offset="0.06" stop-color="#0290EA"/>
<stop offset="0.79" stop-color="#0C89CA"/>
</linearGradient>
<linearGradient id="paint4_linear_32470_52944" x1="6.43071" y1="24.9986" x2="16.0085" y2="28.578" gradientUnits="userSpaceOnUse">
<stop offset="0.13" stop-color="#F1E813"/>
<stop offset="0.3" stop-color="#EAE616"/>
<stop offset="0.53" stop-color="#D8DF1F"/>
<stop offset="0.8" stop-color="#BAD52D"/>
<stop offset="0.98" stop-color="#A2CC39"/>
</linearGradient>
<linearGradient id="paint5_linear_32470_52944" x1="3.20503" y1="16.3915" x2="7.0498" y2="6.39032" gradientUnits="userSpaceOnUse">
<stop offset="0.07" stop-color="#A2CC39"/>
<stop offset="0.26" stop-color="#81C45E"/>
<stop offset="0.92" stop-color="#0FA7DF"/>
</linearGradient>
</defs>
</svg>
