<svg width="32" height="32" viewBox="0 0 32 32" fill="none" xmlns="http://www.w3.org/2000/svg">
<path fill-rule="evenodd" clip-rule="evenodd" d="M29.9497 15.5675C29.9497 15.4293 29.928 15.2904 29.9072 15.1578L29.9008 15.1133C29.5389 12.4568 27.0844 9.83765 24.9236 8.84127C23.6333 8.08862 22.035 7.79963 20.6228 7.54557C19.4 7.32486 18.2437 7.11606 17.4494 6.64684C17.3641 6.59267 17.2768 6.54156 17.1878 6.49362C17.1044 6.44757 17.0177 6.39993 16.9447 6.3523C16.7345 6.21892 16.0605 5.6457 15.5903 5.10741C15.3614 4.83667 15.1688 4.53779 15.0174 4.21821L14.905 3.99988V15.6992H16.18V7.40108C16.3702 7.5813 16.5989 7.74644 16.911 7.92507C17.6171 8.33554 18.8415 8.56339 20.1382 8.80395C21.5014 9.05563 22.9104 9.31683 24.0369 9.8186C26.8116 11.0635 28.5303 13.9883 28.7028 15.6167C28.7028 15.6834 28.7084 15.7501 28.714 15.8152C28.7197 15.8707 28.7237 15.9223 28.7237 15.966V17.6968H17.2167V23.5195H17.2488C17.6492 23.5195 17.9059 23.498 18.3103 23.444L18.4106 23.4417V18.8186H30.0003V17.6356C30.0003 17.0021 30.0003 16.2145 29.9497 15.5675Z" fill="#CD1F45"/>
<path fill-rule="evenodd" clip-rule="evenodd" d="M29.4425 19.7894H29.4431L29.4439 19.7886L29.4425 19.7894ZM29.4425 19.7894H19.2801V20.985H26.2384C25.9977 21.2026 25.7834 21.363 25.3766 21.6519L25.3734 21.6567C22.9005 23.2485 19.6492 24.1393 16.2142 24.1639V16.8518H27.8768V15.5712H8.28346C8.31235 15.2179 8.36209 14.8789 8.43511 14.5391C8.45918 14.4153 8.48406 14.2882 8.50733 14.1898C8.58756 13.8555 8.68545 13.5475 8.80019 13.2752L8.98073 13.3355C9.0171 13.3474 9.05369 13.3594 9.09051 13.3714C9.2876 13.4359 9.49113 13.5025 9.70207 13.5673C10.3544 13.7634 10.9739 13.9024 11.5949 13.9921L11.7714 14.0159C12.248 14.1112 12.8001 14.1866 13.4115 14.2398C13.8969 14.2811 14.3824 14.3033 14.9176 14.3248V12.9433C14.4923 12.9314 14.0422 12.9036 13.5391 12.8544C13.0031 12.8052 12.4815 12.7528 11.9768 12.6543C11.8501 12.6543 11.7201 12.6289 11.6053 12.6027C10.9645 12.4961 10.3332 12.3395 9.71732 12.1343C9.63847 12.1171 9.56076 12.0951 9.48463 12.0684L9.40599 12.0446C9.46887 11.9278 9.5392 11.8191 9.61207 11.7065C9.62197 11.6912 9.63192 11.6758 9.64189 11.6603L9.73818 11.5111C10.2531 10.7814 10.8887 10.1429 11.6182 9.6223C12.5611 8.94761 13.6493 8.49839 14.7972 8.30993C14.8246 8.30958 14.8519 8.30773 14.879 8.30437C14.8919 8.30437 14.9047 8.30437 14.9176 8.30278V6.89355L14.8863 6.90308C14.8585 6.91158 14.8297 6.91684 14.8016 6.92198C14.7955 6.92309 14.7895 6.92419 14.7836 6.92531C14.7442 6.93087 14.7041 6.93722 14.6656 6.95072C13.637 7.02455 12.6035 7.16746 11.5925 7.37706C10.8784 7.53743 10.2597 7.71607 9.70207 7.9217C9.30088 8.04079 8.90771 8.1829 8.464 8.37265C8.12138 8.52111 7.74506 8.70372 7.27888 8.94428C6.64334 9.28012 6.03541 9.66476 5.46068 10.0947C4.65028 10.7042 3.93516 11.4287 3.33837 12.2447C2.92376 12.8223 2.59241 13.4543 2.35385 14.1223C2.12143 14.7904 2.00188 15.4919 2 16.1984V16.2238C2 18.4588 3.22925 20.6365 5.46148 22.353C5.59227 22.4427 5.72867 22.5388 5.86508 22.6348L6.24461 22.9024C6.49013 23.0532 6.75492 23.2041 7.01088 23.3494L7.27807 23.5026C7.60464 23.6733 7.95769 23.8289 8.29871 23.9782L8.464 24.0512C8.82427 24.2052 9.2054 24.3513 9.70127 24.5252C10.3255 24.7292 10.9626 24.9071 11.5933 25.05C13.0831 25.377 14.6047 25.5408 16.1308 25.5382C19.9308 25.5382 23.487 24.5673 26.1421 22.8047C26.6853 22.4753 27.1531 22.0807 27.584 21.7043C27.9563 21.3622 29.0299 20.3134 29.4022 19.8465L29.4439 19.7941H29.4343L29.4425 19.7894ZM7.13368 10.6116C7.18824 10.5798 7.25002 10.5433 7.3102 10.4981C7.63886 10.3016 7.99571 10.1233 8.34244 9.95002L8.41187 9.91531L8.4897 9.87721C8.80825 9.7208 9.11797 9.59695 9.44695 9.46674L9.72216 9.35559L9.81684 9.32384L9.68846 9.45087C9.20463 9.92722 8.78739 10.4322 8.44878 10.9514C8.38625 11.0418 8.3271 11.1345 8.27145 11.2293L8.26312 11.2428L8.26311 11.2428C8.21517 11.3204 8.16571 11.4004 8.11338 11.4762C7.82806 11.3212 7.56063 11.1359 7.31582 10.9236C7.22688 10.8388 7.14302 10.7489 7.06467 10.6545L7.13368 10.6116ZM4.47679 13.0314C4.13643 13.5013 3.86645 14.0174 3.67521 14.5637C3.56368 14.8749 3.48424 15.2052 3.43048 15.5704H6.88715C6.92276 15.1278 6.98168 14.6874 7.06367 14.2509C7.10341 14.0444 7.16426 13.8358 7.22334 13.6333L7.22335 13.6333L7.23217 13.603L7.26266 13.4998C7.33809 13.2243 7.43999 12.956 7.53146 12.7281C7.46085 12.6892 7.39104 12.6432 7.33327 12.6043L7.2763 12.5662C6.70902 12.2478 6.25648 11.8762 5.93071 11.4658C5.88252 11.5134 5.83301 11.5589 5.78446 11.6036L5.73412 11.65C5.6579 11.7182 5.58007 11.7881 5.50384 11.8643C5.08821 12.2533 4.75201 12.6725 4.47679 13.0314ZM14.9167 18.0403C13.7244 18.0879 12.6075 18.211 11.5932 18.4095C10.9497 18.527 10.3134 18.6778 9.70202 18.8588C9.40425 18.9454 9.11194 19.0493 8.82662 19.1701C8.7183 18.8771 8.63325 18.5984 8.54418 18.3031L8.50807 18.184C8.40896 17.7438 8.33449 17.2985 8.28501 16.8502H14.9159V18.0403H14.9167ZM14.9168 24.0854L14.916 24.0853V19.4195C13.8047 19.4621 12.6982 19.5879 11.6061 19.7958C10.9225 19.9459 10.2702 20.1174 9.72214 20.2912C9.68188 20.3075 9.64302 20.3203 9.60682 20.3322L9.59857 20.3349C9.57574 20.3436 9.55382 20.3515 9.53253 20.3591C9.49771 20.3715 9.46454 20.3833 9.43168 20.3976C9.52563 20.5584 9.62794 20.7142 9.73819 20.8645C10.2407 21.6038 10.8783 22.2438 11.6182 22.7516C11.9129 22.9637 12.2235 23.1532 12.5473 23.3185C13.1668 23.6257 13.6514 23.8107 14.1216 23.9171C14.3462 23.9756 14.5694 24.0186 14.7863 24.0604L14.8421 24.0711L14.916 24.0853V24.0854H14.9168ZM8.49049 22.5461C8.90452 22.7533 9.29689 22.9184 9.72215 23.0693V23.0701C9.77092 23.0826 9.81867 23.0988 9.86497 23.1185C9.80239 23.0589 9.74301 22.9915 9.68524 22.92C9.22226 22.4683 8.80583 21.972 8.44877 21.4488C8.40356 21.3821 8.35834 21.3093 8.3144 21.2385L8.30354 21.221L8.28511 21.1912C8.2453 21.1267 8.20481 21.0611 8.16312 21.0027C8.14145 21.0138 8.11658 21.0281 8.09331 21.0424L8.01548 21.086C7.72101 21.2702 7.51479 21.46 7.36796 21.6045L7.28932 21.7188C7.25482 21.7688 7.22112 21.8148 7.18822 21.8545C7.22351 21.8829 7.26235 21.9067 7.30377 21.9252C7.62912 22.1179 7.97478 22.2897 8.30915 22.4559L8.30922 22.456L8.30927 22.456L8.30936 22.456L8.3094 22.456L8.32279 22.4627L8.49049 22.5461ZM6.33355 20.6875L6.32312 20.7002L6.31133 20.7153C6.22679 20.8232 6.14012 20.9339 6.05271 21.0591L6.03099 21.0401C5.85089 20.8834 5.66657 20.723 5.50228 20.5589C4.30352 19.4283 3.60625 18.1803 3.42972 16.8512H6.88719C6.93533 17.5403 7.0589 18.2112 7.2619 18.898C7.33572 19.1949 7.43763 19.4902 7.55638 19.753C7.5181 19.7797 7.47982 19.8026 7.44043 19.8262L7.44042 19.8262L7.44041 19.8262L7.44039 19.8262L7.42479 19.8356L7.42006 19.8385C7.3758 19.8654 7.33006 19.8931 7.28357 19.9261H7.25789L7.24987 19.9317C6.8888 20.1667 6.59031 20.4128 6.33355 20.6875Z" fill="#073C59"/>
</svg>
