<svg xmlns="http://www.w3.org/2000/svg" fill="none" viewBox="0 0 204 60">
  <path fill="#CD1F45" fill-rule="evenodd" d="M41.45 30.43c0-.2-.03-.4-.06-.6v-.07c-.55-3.95-4.19-7.84-7.4-9.32-1.9-1.12-4.28-1.55-6.37-1.93-1.81-.32-3.53-.63-4.7-1.33a6.27 6.27 0 00-.4-.23l-.36-.2c-.3-.2-1.3-1.06-2-1.86-.34-.4-.63-.84-.85-1.32l-.17-.32v17.38h1.9V18.3c.27.27.61.51 1.07.78 1.05.6 2.87.95 4.8 1.3 2.01.38 4.1.77 5.77 1.51 4.12 1.85 6.67 6.2 6.92 8.62a3.45 3.45 0 00.03.51v2.58H22.57v8.65h.05c.59 0 .97-.04 1.57-.12h.15v-6.87h17.19v-1.75c0-.95 0-2.12-.08-3.08z" clip-rule="evenodd"/>
  <path fill="#073C59" fill-rule="evenodd" d="M52.16 37.83V25.42h8.59v2.02h-6.4v3h2.96c1.12 0 2.31 0 3.26.8.83.72 1.3 1.76 1.3 2.86a3.6 3.6 0 01-1.16 2.76c-.6.53-1.6.97-3.19.97h-5.36zm2.19-1.92h3.1c.65 0 1.23-.23 1.56-.53.34-.31.52-.73.52-1.2 0-.52-.2-1.01-.58-1.36-.49-.44-1.18-.48-1.72-.48h-2.88v3.57zm14.62-8.86c.05.38.12.76.22 1.14l1.73 5.75h-3.85l1.72-5.79c.07-.26.14-.78.18-1.1zm3.16 10.74l-.61-1.94h-5.04l-.58 1.94h-2.2l3.99-12.37h2.6l4.12 12.37h-2.28zm6.66-12.37h-2.17v12.39h2.17v-5.46h5.56v5.46h2.17V25.42h-2.17v5.01H78.8v-5.01z" clip-rule="evenodd"/>
  <path fill="#CD1F45" fill-rule="evenodd" d="M126 26.9a6.97 6.97 0 011.59 4.7c0 1.26-.23 3.17-1.6 4.69a5.28 5.28 0 01-4.05 1.71c-1.23 0-2.8-.32-4.05-1.71a6.95 6.95 0 01-1.59-4.7c0-1.26.23-3.16 1.6-4.69a5.28 5.28 0 014.04-1.7c1.23 0 2.8.32 4.06 1.7zm-20.45-1.52h4.51c1.67 0 2.67.56 3.21 1.05a3.93 3.93 0 011.14 3c0 1.3-.45 2.15-1.11 2.87-.63.68-1.77.99-3.1.99h-2.46v4.5h-2.19V25.37zm4.4 6.02a2.2 2.2 0 001.58-.54 2 2 0 00.58-1.53c0-.72-.23-1.16-.54-1.47a2.23 2.23 0 00-1.58-.56h-2.25v4.1h2.22zm8.62.2c0-1.67.47-2.64.88-3.2a2.96 2.96 0 012.5-1.24c.8 0 1.76.25 2.5 1.23.4.57.87 1.54.87 3.2 0 1.67-.46 2.64-.88 3.2a2.97 2.97 0 01-2.5 1.24c-.8 0-1.76-.25-2.5-1.23a5.25 5.25 0 01-.87-3.2zm38.7 2.42v-8.57h-2.17v12.33h2.16l5.85-8.63v8.63h2.16V25.45h-2.16l-5.85 8.57z" clip-rule="evenodd"/>
  <path fill="#073C59" fill-rule="evenodd" d="M96.19 25.42h2.68l-5.55 5.77 6 6.64H96.6l-5.43-5.7v5.7h-2.16v-12.4h2.16v5.09l5.02-5.1z" clip-rule="evenodd"/>
  <path fill="#CD1F45" fill-rule="evenodd" d="M137.94 34.1c-.1.24-.24.47-.4.7a2.96 2.96 0 01-2.5 1.23c-.8 0-1.76-.25-2.5-1.24a5.25 5.25 0 01-.87-3.2c0-1.66.46-2.63.87-3.2a2.96 2.96 0 012.5-1.23c.8 0 1.77.24 2.5 1.23.2.27.4.64.57 1.12h2.33a6.1 6.1 0 00-1.34-2.6 5.29 5.29 0 00-4.06-1.72c-1.23 0-2.8.33-4.05 1.71a6.95 6.95 0 00-1.6 4.7c0 1.26.24 3.16 1.6 4.69a5.28 5.28 0 004.05 1.71 5.28 5.28 0 005.28-3.9h-2.38zm29.79 3.68h2.59l3.06-4.5h2.83v4.5h2.16V25.43h-6.2c-3.54 0-4.2 2.33-4.2 3.89 0 2.21 1.43 3.52 3.1 3.71l-3.34 4.75zm5.08-10.5l.29.01h3.1v4.12h-3.03c-2.63 0-2.97-1.24-2.97-2.16 0-2.06 1.66-2 2.6-1.96zm-22.62 7.51c.15-.22.28-.45.4-.7h2.37a5.28 5.28 0 01-5.28 3.9c-1.23.01-2.8-.32-4.05-1.7a6.95 6.95 0 01-1.59-4.7c0-1.26.23-3.17 1.6-4.69a5.28 5.28 0 014.04-1.71c1.24 0 2.8.33 4.06 1.71a6.08 6.08 0 011.34 2.61h-2.33a4.26 4.26 0 00-.56-1.12 2.97 2.97 0 00-2.5-1.23c-.8 0-1.77.24-2.5 1.23a5.26 5.26 0 00-.88 3.2c0 1.67.47 2.63.88 3.2.73 1 1.7 1.24 2.5 1.24s1.76-.25 2.5-1.24z" clip-rule="evenodd"/>
  <path fill="#073C59" fill-rule="evenodd" d="M40.7 36.7zm0 0H25.63v1.78h10.32c-.36.32-.68.56-1.28 1-3.67 2.36-8.5 3.69-13.59 3.72V32.34h17.3v-1.9H9.32a11.84 11.84 0 01.33-2.05c.12-.5.27-.96.44-1.36l.26.09.17.05.9.29c.97.3 1.89.5 2.81.63l.26.04c.71.14 1.53.25 2.44.33.72.06 1.43.1 2.23.13v-2.06a29.2 29.2 0 01-2.05-.13c-.8-.07-1.56-.15-2.31-.3a18.42 18.42 0 01-3.7-.87l-.12-.03.31-.5.04-.07.15-.22c.76-1.09 1.7-2.04 2.79-2.81a11.22 11.22 0 014.83-1.96h.06v-2.1l-.05.02a1.1 1.1 0 01-.12.03h-.03a.91.91 0 00-.17.04c-1.53.11-3.06.32-4.56.63-1.06.24-1.98.5-2.8.81-.6.18-1.18.4-1.84.67a20.46 20.46 0 00-4.45 2.56c-1.2.9-2.27 1.98-3.15 3.2-.62.85-1.11 1.8-1.47 2.79-.34.99-.52 2.03-.52 3.08v.04c0 3.32 1.82 6.55 5.13 9.1l.6.42.57.4c.36.22.75.45 1.13.66l.4.23c.48.26 1 .49 1.51.7l.25.12c.53.23 1.1.44 1.83.7a31.1 31.1 0 009.54 1.5c5.63 0 10.9-1.44 14.85-4.06.8-.48 1.5-1.07 2.14-1.63.55-.5 2.14-2.07 2.7-2.76l.05-.08h-.01.01zM7.61 23.07c.08-.05.18-.1.27-.17.48-.3 1.01-.56 1.53-.81l.1-.06.12-.05c.47-.23.93-.42 1.41-.61l.41-.17.14-.04-.19.18A13.5 13.5 0 009.3 24L9.3 24l-.22.34a4.68 4.68 0 01-1.56-1.22l.1-.06zm-3.94 3.6a8.9 8.9 0 00-1.55 3.77h5.13c.05-.66.14-1.32.26-1.96.06-.31.15-.62.24-.92l.01-.05.05-.15c.1-.4.26-.8.4-1.15-.11-.05-.21-.12-.3-.18l-.08-.06a6.7 6.7 0 01-2-1.63l-.22.2-.07.07c-.11.1-.23.2-.34.32-.62.58-1.12 1.2-1.53 1.73zm15.49 7.44a32.55 32.55 0 00-7.74 1.21c-.44.13-.87.29-1.3.46-.16-.43-.28-.84-.41-1.28l-.06-.18c-.14-.65-.25-1.32-.33-1.98h9.84v1.77zm0 8.98v-6.93c-1.65.06-3.3.25-4.91.55a32.5 32.5 0 00-2.97.8h-.01l-.1.04-.15.06a10.69 10.69 0 003.24 3.5 10.64 10.64 0 003.72 1.73l.98.21.09.02.1.02zM9.63 40.8c.61.3 1.2.55 1.82.78l.22.07c-.1-.09-.19-.19-.27-.3a14.42 14.42 0 01-2.03-2.5l-.02-.02-.03-.04-.18-.28c-.03.01-.07.03-.1.06l-.12.06c-.43.27-.74.56-.96.77l-.12.17-.14.2c.05.04.1.08.17.1.48.3 1 .55 1.49.8h.02l.25.13zm-3.2-2.76l-.02.02-.02.02-.38.51-.03-.03c-.27-.23-.54-.47-.79-.71-1.77-1.68-2.8-3.54-3.07-5.51h5.13a14.1 14.1 0 001 4.31 2.9 2.9 0 01-.18.1l-.02.02h-.01l-.2.14h-.05c-.54.35-.98.72-1.36 1.13z" clip-rule="evenodd"/>
</svg>
