<svg width="32" height="32" viewBox="0 0 32 32" fill="none" xmlns="http://www.w3.org/2000/svg">
<path fill-rule="evenodd" clip-rule="evenodd" d="M29.9072 15.1579C29.928 15.2905 29.9497 15.4294 29.9497 15.5676C30.0003 16.2146 30.0003 17.0022 30.0003 17.6358V18.8187H18.4106V23.4418L18.3103 23.4442C17.9059 23.4982 17.6492 23.5196 17.2488 23.5196H17.2167V17.6969H28.7237V15.9661C28.7237 15.9225 28.7197 15.8709 28.714 15.8153C28.7084 15.7502 28.7028 15.6835 28.7028 15.6168C28.5303 13.9884 26.8116 11.0636 24.0369 9.81872C22.9104 9.31696 21.5014 9.05575 20.1382 8.80408C18.8415 8.56352 17.6171 8.33566 16.911 7.92519C16.5989 7.74656 16.3702 7.58142 16.18 7.4012V15.5712H27.8768V16.8518H16.2142V24.1639C19.6492 24.1393 22.9005 23.2485 25.3734 21.6567L25.3766 21.6519C25.7834 21.363 25.9977 21.2026 26.2384 20.985H19.2801V19.7894H29.4425L29.4343 19.7941H29.4439L29.4022 19.8465C29.0299 20.3134 27.9563 21.3622 27.584 21.7043C27.1531 22.0807 26.6853 22.4753 26.1421 22.8047C23.487 24.5673 19.9308 25.5382 16.1308 25.5382C14.6047 25.5408 13.0831 25.377 11.5933 25.05C10.9626 24.9071 10.3255 24.7292 9.70127 24.5252C9.2054 24.3513 8.82427 24.2052 8.464 24.0512L8.29871 23.9782C7.95769 23.8289 7.60464 23.6733 7.27807 23.5026L7.01088 23.3494C6.75492 23.2041 6.49013 23.0532 6.24461 22.9024L5.86508 22.6348C5.72867 22.5388 5.59227 22.4427 5.46148 22.353C3.22925 20.6365 2 18.4588 2 16.2238V16.1984C2.00188 15.4919 2.12143 14.7904 2.35385 14.1223C2.59241 13.4543 2.92376 12.8223 3.33837 12.2447C3.93516 11.4287 4.65028 10.7042 5.46068 10.0947C6.03541 9.66476 6.64334 9.28012 7.27888 8.94428C7.74506 8.70372 8.12138 8.52111 8.464 8.37265C8.90771 8.1829 9.30088 8.04079 9.70207 7.9217C10.2597 7.71607 10.8784 7.53743 11.5925 7.37706C12.6035 7.16746 13.637 7.02455 14.6656 6.95072C14.7041 6.93722 14.7442 6.93087 14.7836 6.92531L14.8016 6.92198C14.8297 6.91684 14.8585 6.91158 14.8863 6.90308L14.905 6.89737V4L15.0174 4.21833C15.1688 4.53792 15.3614 4.83679 15.5903 5.10753C16.0605 5.64582 16.7345 6.21904 16.9447 6.35242C17.016 6.39892 17.1003 6.44543 17.1819 6.49045L17.1878 6.49374C17.2768 6.54168 17.3641 6.59279 17.4494 6.64697C18.2437 7.11618 19.4 7.32498 20.6228 7.5457C22.035 7.79975 23.6333 8.08874 24.9236 8.84139C27.0844 9.83777 29.5389 12.457 29.9008 15.1134L29.9072 15.1579ZM14.905 8.30388C14.8964 8.30437 14.8877 8.30437 14.879 8.30437C14.8519 8.30773 14.8246 8.30958 14.7972 8.30993C13.6493 8.49839 12.5611 8.94761 11.6182 9.6223C10.8887 10.1429 10.2531 10.7814 9.73818 11.5111L9.64189 11.6603L9.61207 11.7065C9.5392 11.8191 9.46887 11.9278 9.40599 12.0446L9.48463 12.0684C9.56076 12.0951 9.63847 12.1171 9.71732 12.1343C10.3332 12.3395 10.9645 12.4961 11.6053 12.6027C11.7201 12.6289 11.8501 12.6543 11.9768 12.6543C12.4815 12.7528 13.0031 12.8052 13.5391 12.8544C14.0372 12.9031 14.4835 12.9309 14.905 12.943V8.30388ZM14.905 14.3242V15.5712H8.28346C8.31235 15.2179 8.36209 14.8789 8.43511 14.5391C8.45918 14.4153 8.48406 14.2882 8.50733 14.1898C8.58756 13.8555 8.68545 13.5475 8.80019 13.2752L8.98073 13.3355L9.09051 13.3714L9.09064 13.3714C9.28769 13.4359 9.49118 13.5025 9.70207 13.5673C10.3544 13.7634 10.9739 13.9024 11.5949 13.9921L11.7714 14.0159C12.248 14.1112 12.8001 14.1866 13.4115 14.2398C13.8931 14.2808 14.3748 14.303 14.905 14.3242ZM29.4425 19.7894L29.4439 19.7886L29.4431 19.7894H29.4425ZM7.3102 10.4981C7.25002 10.5433 7.18824 10.5798 7.13368 10.6116L7.06467 10.6545C7.14302 10.7489 7.22688 10.8388 7.31582 10.9236C7.56063 11.1359 7.82806 11.3212 8.11338 11.4762C8.16571 11.4004 8.21516 11.3204 8.2631 11.2428L8.26311 11.2428L8.26312 11.2428L8.27145 11.2293C8.3271 11.1345 8.38625 11.0418 8.44878 10.9514C8.78739 10.4322 9.20463 9.92722 9.68846 9.45087L9.81684 9.32384L9.72216 9.35559L9.44695 9.46674C9.11797 9.59695 8.80825 9.7208 8.4897 9.87721L8.41187 9.91531L8.34244 9.95002C7.99571 10.1233 7.63886 10.3016 7.3102 10.4981ZM3.67521 14.5637C3.86645 14.0174 4.13643 13.5013 4.47679 13.0314C4.75201 12.6725 5.08821 12.2533 5.50384 11.8643C5.58007 11.7881 5.6579 11.7182 5.73412 11.65L5.78446 11.6036C5.83301 11.5589 5.88252 11.5134 5.93071 11.4658C6.25648 11.8762 6.70902 12.2478 7.2763 12.5662L7.33327 12.6043C7.39104 12.6432 7.46085 12.6892 7.53146 12.7281C7.43999 12.956 7.33809 13.2243 7.26266 13.4998L7.23217 13.603L7.22335 13.6333L7.22334 13.6333C7.16426 13.8358 7.10341 14.0444 7.06367 14.2509C6.98168 14.6874 6.92276 15.1278 6.88715 15.5704H3.43048C3.48424 15.2052 3.56368 14.8749 3.67521 14.5637ZM11.5932 18.4095C12.6075 18.211 13.7244 18.0879 14.9167 18.0403H14.9159V16.8502H8.28501C8.33449 17.2985 8.40896 17.7438 8.50807 18.184L8.54418 18.3031C8.63325 18.5984 8.7183 18.8771 8.82662 19.1701C9.11194 19.0493 9.40425 18.9454 9.70202 18.8588C10.3134 18.6778 10.9497 18.527 11.5932 18.4095ZM14.916 24.0853L14.9168 24.0854H14.916V24.0853ZM14.916 24.0853L14.8421 24.0711L14.7863 24.0604C14.5694 24.0186 14.3462 23.9756 14.1216 23.9171C13.6514 23.8107 13.1668 23.6257 12.5473 23.3185C12.2235 23.1532 11.9129 22.9637 11.6182 22.7516C10.8783 22.2438 10.2407 21.6038 9.73819 20.8645C9.62794 20.7142 9.52563 20.5584 9.43168 20.3976C9.46454 20.3833 9.49771 20.3715 9.53253 20.3591C9.55382 20.3515 9.57574 20.3436 9.59857 20.3349L9.60682 20.3322C9.64302 20.3203 9.68188 20.3075 9.72214 20.2912C10.2702 20.1174 10.9225 19.9459 11.6061 19.7958C12.6982 19.5879 13.8047 19.4621 14.916 19.4195V24.0853ZM9.72215 23.0693C9.29689 22.9184 8.90452 22.7533 8.49049 22.5461L8.32279 22.4627L8.3094 22.456L8.30936 22.456L8.30927 22.456L8.30922 22.456L8.30915 22.4559C7.97478 22.2897 7.62912 22.1179 7.30377 21.9252C7.26235 21.9067 7.22351 21.8829 7.18822 21.8545C7.22112 21.8148 7.25482 21.7688 7.28932 21.7188L7.36796 21.6045C7.51479 21.46 7.72101 21.2702 8.01548 21.086L8.09331 21.0424C8.11658 21.0281 8.14145 21.0138 8.16312 21.0027C8.20481 21.0611 8.24529 21.1267 8.2851 21.1912L8.28511 21.1912L8.30354 21.221L8.3144 21.2385C8.35834 21.3093 8.40356 21.3821 8.44877 21.4488C8.80583 21.972 9.22226 22.4683 9.68524 22.92C9.74301 22.9915 9.80239 23.0589 9.86497 23.1185C9.81867 23.0988 9.77092 23.0826 9.72215 23.0701V23.0693ZM6.32312 20.7002L6.33355 20.6875C6.59031 20.4128 6.8888 20.1667 7.24987 19.9317L7.25789 19.9261H7.28357C7.33006 19.8931 7.3758 19.8654 7.42006 19.8385L7.42479 19.8356L7.44039 19.8262L7.44041 19.8262L7.44042 19.8262L7.44043 19.8262L7.44045 19.8262C7.47983 19.8026 7.5181 19.7797 7.55638 19.753C7.43763 19.4902 7.33572 19.1949 7.2619 18.898C7.0589 18.2112 6.93533 17.5403 6.88719 16.8512H3.42972C3.60625 18.1803 4.30352 19.4283 5.50228 20.5589C5.66657 20.723 5.85089 20.8834 6.03099 21.0401L6.05271 21.0591C6.14012 20.9339 6.22679 20.8232 6.31133 20.7153L6.32312 20.7002Z" fill="white"/>
</svg>
