<svg width="32" height="32" viewBox="0 0 32 32" fill="none" xmlns="http://www.w3.org/2000/svg">
<path d="M13.0936 29.5494C14.46 27.1805 15.2127 22.6737 15.5022 14.781H16.4981C16.7876 22.6852 17.5403 27.192 18.8951 29.5494C17.9919 29.8383 17.0076 30.0001 16.0002 30.0001C14.9927 30.0001 14.02 29.8499 13.0936 29.5494Z" fill="#004586"/>
<path d="M16.0117 14.203C20.632 14.203 24.5691 17.3924 24.5691 21.5063C24.5691 22.8121 24.1407 24.141 23.3185 25.366C21.1299 23.309 19.1961 19.5418 18.455 15.0812C18.3739 15.0466 17.7139 14.8964 17.2044 14.8617C17.2044 15.5088 17.7486 25.0886 21.1415 28.4861C23.6543 26.8105 25.3334 23.9215 25.3334 20.6743C25.3334 16.2137 22.2184 12.4812 18.0381 11.5567C17.8181 8.55218 17.8181 7.33881 17.795 5.8481H17.0538C17.0538 5.85966 17.0886 10.0313 17.1002 11.4065C16.8454 11.3718 16.5906 11.3603 16.3127 11.3371C16.3127 8.93352 16.3127 4.55385 16.3012 2H15.6874C15.6758 4.55385 15.6758 8.94508 15.6758 11.3371C15.3979 11.3487 15.1432 11.3718 14.8884 11.4065C14.9 10.0313 14.9347 5.87122 14.9347 5.8481H14.182C14.182 7.33881 14.182 8.55218 13.962 11.5567C9.78172 12.4812 6.66675 16.2137 6.66675 20.6743C6.66675 23.933 8.32266 26.8105 10.8586 28.4861C14.2515 25.0886 14.7958 15.5088 14.7958 14.8617C14.2863 14.8964 13.6262 15.0466 13.5452 15.0812C12.7925 19.5418 10.8702 23.309 8.68164 25.366C7.84789 24.1526 7.43102 22.8121 7.43102 21.5063C7.45418 17.3809 11.3682 14.203 16.0117 14.203Z" fill="#004586"/>
</svg>
