<svg xmlns="http://www.w3.org/2000/svg" fill="none" viewBox="0 0 204 60">
  <path fill="#004586" fill-rule="evenodd" d="M25.93 32.5c0-5.95-5.7-10.55-12.4-10.55-6.72 0-12.39 4.59-12.42 10.54 0 1.89.6 3.82 1.8 5.57 3.18-2.97 5.96-8.4 7.05-14.84a9.9 9.9 0 011.82-.32c0 .93-.8 14.76-5.7 19.67a13.48 13.48 0 014.5-24.44c.3-4.34.3-6.1.3-8.24h1.1l-.07 8.02c.37-.05.74-.08 1.14-.1 0-3.45 0-9.8.02-13.48h.89l.01 13.48.36.03.78.07-.06-8.02h1.07v.57c.04 1.91.06 3.72.35 7.67a13.48 13.48 0 014.5 24.44c-4.92-4.9-5.7-18.74-5.7-19.67.73.05 1.69.27 1.8.32 1.08 6.43 3.88 11.87 7.05 14.84a10 10 0 001.81-5.57zM9.31 44.1c1.98-3.42 3.07-9.92 3.49-21.32h1.44c.42 11.41 1.51 17.92 3.47 21.32a13.87 13.87 0 01-8.4 0zm44.8-6.35h-4.4V24.27h9.07c4.63 0 4.63 3.78 4.63 4.62 0 .88 0 4.97-4.63 4.97H54.1v3.89zm-.01-7.24v-2.89h3.2c.49 0 1.73 0 1.73 1.38 0 1.5-1.23 1.5-1.78 1.5H54.1zm7.13 7.24h4.61l1.07-2.77h4.92l1.04 2.77h7.36l3.5-9.73 3.48 9.73h4.63l-5.75-13.48h-4.82l-4.75 11.22-4.68-11.22h-4.93l-5.68 13.48zm9.54-5.88l-1.4-3.8-.04-.03-1.36 3.83h2.8zm57.29-2.48c4.63 0 4.63 2.62 4.63 4.09 0 1.53 0 4.28-4.58 4.28h-8.93V24.28h12.85v3.37h-8.45v1.75h4.48v-.01zm.25 4.14c0 .31 0 1.08-.98 1.08v.02h-3.75v-2.09h3.74c.99 0 .99.69.99.99zm-86.22 4.22h-4.77l2.17-3.8-5.44-9.68h4.92L41.78 30l2.84-5.74h4.76l-7.3 13.48zm54.51 0h6V34.4h-3.83c-2.35 0-3.64-.52-3.64-3.29 0-2.78 1.26-3.48 3.64-3.48h3.84v-3.37h-5.96c-3.33 0-5.92 2.58-5.92 6.92 0 3.85 2.57 6.56 5.87 6.56zm21.7 0h-4.4v-9.51l-5.14 9.5h-5.25V24.28h4.42v9.27l5.01-9.27h5.35v13.48z" clip-rule="evenodd"/>
</svg>
