<svg xmlns="http://www.w3.org/2000/svg" fill="none" viewBox="0 0 204 60">
  <path fill="#20327E" fill-rule="evenodd" d="M48.4 38.05h-.72v-6.8h.72c3.05 0 4.62.89 4.62 3.41 0 2.98-2.3 3.39-4.62 3.39zM47.68 29V24h7.03v-2.25H42.96l1.18 2.04v16.48h5.2c2.84 0 7.21-1.09 7.21-5.59 0-5.83-5.15-5.67-8.87-5.67zm52.34 9.04h-.73v-6.8h.73c3.05 0 4.61.89 4.61 3.41 0 2.98-2.29 3.39-4.61 3.39zM99.29 29V24h7.03v-2.25H94.57l1.19 2.04v16.48h5.2c2.83 0 7.2-1.09 7.2-5.59 0-5.83-5.14-5.67-8.87-5.67zm-11.06-7.26V29h-6.7v-7.25h-4.72L78 23.79v16.48h3.53v-8.96h6.7v8.96h3.54V21.75h-3.54zm49.35 0V29h-6.7v-7.25h-4.72l1.19 2.04v16.48h3.53v-8.96h6.7v8.96h3.53V21.75h-3.53zm13.99 8.55l6.85-8.55h-3.72l-6.04 7.44v-7.44h-4.72l1.19 2.04v16.48h3.53v-9.16l6.15 9.16h3.72l-6.96-9.97zM69.5 21.75L62.26 35.5V21.75h-4.47l1.2 2.04v16.48h3.9l7.6-14.41v14.41h3.48V21.75h-4.46z" clip-rule="evenodd"/>
  <path fill="#F57014" fill-rule="evenodd" d="M30.32 44.87l8.12-14-8.12-14h-2.96l8.12 14-8.12 14h2.96z" clip-rule="evenodd"/>
  <path fill="#74AFE3" fill-rule="evenodd" d="M32.47 30.88l-8.11-14H8.1a13.01 13.01 0 0110.4 14.04 12.87 12.87 0 015.9 13.95l8.07-14z" clip-rule="evenodd"/>
  <path fill="#20327E" fill-rule="evenodd" d="M24.4 44.87c-1.07-7.9-7.88-14-16.1-14 3.1 0 5.1-2.18 5.1-5.1 0-1.64-1.72-6.44-5.3-8.9l-8.1 14 8.12 14H24.4zm90.02-11.44l2.55-8.56h.06l2.56 8.56h-5.17zm7.21 6.84h3.53l-5.88-18.52h-6.35l1.14 2.04-5.22 16.49h3.52l1.39-4.65h6.48l1.39 4.65z" clip-rule="evenodd"/>
</svg>
