<svg width="32" height="32" viewBox="0 0 32 32" fill="none" xmlns="http://www.w3.org/2000/svg">
<path fill-rule="evenodd" clip-rule="evenodd" d="M24.0877 25.9991L30.0001 16.001L24.0877 6.00293H21.9326L27.845 16.0017L21.9326 25.9998H24.0877V25.9991Z" fill="#F57014"/>
<path fill-rule="evenodd" clip-rule="evenodd" d="M25.6561 16.0016L19.7422 6.002C19.7422 6.002 7.90214 5.9975 7.90137 6.002C12.251 6.85014 15.5268 10.6078 15.5268 15.1039C15.5268 15.4164 15.5106 15.7251 15.479 16.0294C18.2042 17.667 20.0168 20.563 20.0168 23.8662C20.0168 24.5888 19.9397 25.3235 19.7762 25.9989L25.6561 16.0016Z" fill="#74AFE3"/>
<path fill-rule="evenodd" clip-rule="evenodd" d="M19.7756 25.9988C18.995 20.3556 14.0329 16.0015 8.04809 16.0015C10.3043 16.0015 11.7598 14.439 11.7613 12.3521C11.7613 11.1802 10.5071 7.75381 7.90076 6.00195L2 16.0008L7.91311 26.0003L19.7748 25.9988H19.7756Z" fill="#20327E"/>
</svg>
