<svg xmlns="http://www.w3.org/2000/svg" viewBox="0 0 16 16">
  <path fill-rule="evenodd" clip-rule="evenodd" d="M3.2636 11.4636C2.91213 11.8151 2.91213 12.3849 3.2636 12.7364C3.61508 13.0879 4.18492 13.0879 4.5364 12.7364L8 9.27279L11.4636 12.7364C11.8151 13.0879 12.3849 13.0879 12.7364 12.7364C13.0879 12.3849 13.0879 11.8151 12.7364 11.4636L9.27279 8L12.7364 4.5364C13.0879 4.18492 13.0879 3.61508 12.7364 3.2636C12.3849 2.91213 11.8151 2.91213 11.4636 3.2636L8 6.72721L4.5364 3.26361C4.18492 2.91213 3.61508 2.91213 3.2636 3.26361C2.91213 3.61508 2.91213 4.18493 3.2636 4.5364L6.72721 8L3.2636 11.4636Z" fill="currentColor" />
</svg>
