<svg viewBox="0 0 50 50" fill="none" xmlns="http://www.w3.org/2000/svg"><path d="M38.9 30.6c.7-1.725 1.1-3.613 1.1-5.6 0-8.288-6.712-15-15-15-1.988 0-3.875.4-5.613 1.1l4.063 4.063C23.962 15.075 24.475 15 25 15c5.525 0 10 4.475 10 10 0 .538-.05 1.063-.138 1.563L38.9 30.6zM25 5c11.05 0 20 8.95 20 20 0 3.387-.875 6.55-2.362 9.337l3.675 3.675A24.793 24.793 0 0050 25C50 11.187 38.8 0 25 0a24.793 24.793 0 00-13.012 3.688l3.65 3.65A19.832 19.832 0 0125 5zM3.175 1.25L0 4.438 5.263 9.7C1.975 13.925 0 19.225 0 25c0 9.237 5.025 17.288 12.488 21.612l2.5-4.325C9.024 38.837 5 32.388 5 25c0-4.387 1.425-8.438 3.825-11.738l3.588 3.588A14.897 14.897 0 0010 25c0 5.55 3.012 10.375 7.488 12.975l2.524-4.35C17.026 31.887 15 28.7 15 25c0-1.613.425-3.113 1.1-4.462l3.95 3.95L20 25c0 2.762 2.238 5 5 5l.512-.05.026.025L44.312 48.75l3.188-3.188L5.675 3.75l-2.5-2.5z" fill="#06C"/></svg>