<svg xmlns="http://www.w3.org/2000/svg" fill="none" viewBox="0 0 61 60">
  <defs />
  <path
    fill="#00AC1C"
    fill-rule="evenodd"
    d="M30 60c12.143 0 30.714-13.431 30.714-30C60.714 7.857 50 0 30 0 13.431 0 0 15.714 0 30c0 19.286 12.003 30 30 30z"
    clip-rule="evenodd"
    opacity=".3"
  />
  <path
    fill="#10D129"
    d="M30 55.714c14.201 0 25.714-11.513 25.714-25.715 0-14.201-11.513-25.714-25.715-25.714C15.798 4.285 4.285 15.798 4.285 30c0 14.202 11.513 25.715 25.714 25.715z"
    fill-rule="evenodd"
    clip-rule="evenodd"
  />
  <path
    fill="#fff"
    fill-rule="evenodd"
    d="M42.158 20.502a2.348 2.348 0 00-3.465 0L25.532 34.57l-4.225-4.516a2.348 2.348 0 00-3.466 0c-.931.995-.931 2.595 0 3.59l5.958 6.369a2.348 2.348 0 003.465 0l14.894-15.922c.932-.995.932-2.595 0-3.59z"
    clip-rule="evenodd"
  />
</svg>
