<svg width="49" height="13" fill="none" xmlns="http://www.w3.org/2000/svg">
<path d="M.92.68h3.2c1.18 0 2.08.17 2.7.52.6.35.92.93.92 1.75 0 .67-.2 1.18-.6 1.52-.4.34-.91.57-1.56.7.81.09 1.43.3 1.86.63.42.33.63.83.63 1.5 0 .5-.1.91-.3 1.26-.2.33-.47.61-.83.83-.35.2-.77.36-1.26.47-.48.1-1.01.14-1.58.14H.91V.68zm1.86 1.56v2.2h1.54a2 2 0 001.13-.29c.28-.2.43-.49.43-.9 0-.4-.13-.67-.4-.8-.25-.14-.62-.21-1.09-.21H2.8zm0 3.73v2.48h1.59c.54 0 .97-.09 1.3-.27.33-.18.5-.51.5-.99 0-.45-.16-.77-.48-.95a2.9 2.9 0 00-1.44-.27H2.78zm12.46 3.59l-.37.2a4.08 4.08 0 01-1.13.3c-.24.05-.53.07-.87.07-1.32 0-2.3-.3-2.92-.92A3.44 3.44 0 019 6.62c0-.55.08-1.04.24-1.47a3.1 3.1 0 011.8-1.78c.42-.16.9-.25 1.4-.25.52 0 1 .09 1.4.26.42.17.77.41 1.03.74.28.33.47.75.58 1.25.1.5.1 1.09 0 1.74h-4.58c.07.53.26.93.57 1.2.32.26.83.39 1.52.39.56 0 1-.06 1.35-.18.36-.12.67-.25.93-.38v1.42zm-2.77-5.1c-.4 0-.73.12-1 .37-.27.24-.45.59-.55 1.05h2.81c0-.48-.1-.83-.31-1.07-.22-.23-.54-.35-.95-.35zm8.27 5.67c-.5 0-.93-.1-1.3-.33a2.7 2.7 0 01-.87-.9v3.4h-1.8V3.25h1.68l.1 1.1c.22-.38.51-.69.88-.9a2.92 2.92 0 013.4.55c.28.28.5.64.65 1.09.16.43.24.94.24 1.53 0 .6-.08 1.12-.25 1.56-.15.43-.37.8-.64 1.1-.26.28-.58.5-.94.64-.37.14-.75.21-1.15.21zm-.5-1.44c.48 0 .87-.17 1.18-.51.3-.34.45-.86.45-1.56 0-.7-.15-1.2-.45-1.55-.3-.34-.7-.52-1.17-.52-.49 0-.9.18-1.21.52-.32.34-.48.86-.48 1.55 0 .7.16 1.22.48 1.56.32.34.72.5 1.2.5zm8.96-1.42h-2.5V10h-1.8V3.25h1.8v2.6h2.5v-2.6H31V10h-1.8V7.27zm7.76-4.9c-.27 0-.5-.1-.69-.29a.95.95 0 01-.27-.67c0-.27.1-.5.27-.68.2-.19.42-.28.7-.28.27 0 .5.09.7.28.19.18.28.4.28.68 0 .26-.1.48-.28.67-.2.2-.43.29-.7.29zm-2.82 0a.92.92 0 01-.67-.29.92.92 0 01-.29-.67c0-.27.1-.5.29-.68.19-.19.41-.28.67-.28.28 0 .51.09.7.28.2.18.29.4.29.68 0 .26-.1.48-.29.67-.19.2-.42.29-.7.29zm4.28 7.19l-.36.2a4.09 4.09 0 01-1.14.3c-.24.05-.53.07-.87.07-1.31 0-2.29-.3-2.92-.92a3.44 3.44 0 01-.95-2.59c0-.55.08-1.04.25-1.47a3.1 3.1 0 011.79-1.78c.43-.16.9-.25 1.4-.25.52 0 1 .09 1.4.26.42.17.77.41 1.04.74s.46.75.57 1.25c.1.5.1 1.09 0 1.74h-4.58c.07.53.26.93.57 1.2.32.26.83.39 1.52.39.56 0 1.01-.06 1.36-.18.35-.12.66-.25.92-.38v1.42zm-2.77-5.1c-.4 0-.73.12-1 .37-.27.24-.45.59-.55 1.05h2.81c.01-.48-.1-.83-.31-1.07-.22-.23-.53-.35-.95-.35zm10.56 1.08l-1.75 3.9h-1.27l-1.63-3.87V10h-1.6V3.25h2.35l1.65 3.92 1.76-3.92H48V10h-1.79V5.54z" fill="url(#paint0_linear)"/>
<defs>
<linearGradient id="paint0_linear" x1="147" y1="17.08" x2="-30.36" y2="24.22" gradientUnits="userSpaceOnUse">
<stop offset=".01" stop-color="#30ABD1"/>
<stop offset=".22" stop-color="#397DDB"/>
<stop offset=".43" stop-color="#505ADD"/>
<stop offset=".69" stop-color="#BE40C0"/>
<stop offset=".86" stop-color="#F06151"/>
<stop offset="1" stop-color="#F2991D"/>
</linearGradient>
</defs>
</svg>