<svg width="17" height="16" viewBox="0 0 17 16" fill="none" xmlns="http://www.w3.org/2000/svg">
<path fill-rule="evenodd" clip-rule="evenodd" d="M15.1673 7.99992C15.1673 11.6818 12.1825 14.6666 8.50065 14.6666C4.81875 14.6666 1.83398 11.6818 1.83398 7.99992C1.83398 4.31802 4.81875 1.33325 8.50065 1.33325C12.1825 1.33325 15.1673 4.31802 15.1673 7.99992ZM13.834 7.99992C13.834 10.9454 11.4462 13.3333 8.50065 13.3333C5.55513 13.3333 3.16732 10.9454 3.16732 7.99992C3.16732 5.0544 5.55513 2.66659 8.50065 2.66659C11.4462 2.66659 13.834 5.0544 13.834 7.99992ZM7.66732 10.8284C7.66732 10.3467 8.03341 9.99992 8.49583 9.99992C8.9679 9.99992 9.33398 10.3467 9.33398 10.8284C9.33398 11.3101 8.9679 11.6666 8.49583 11.6666C8.03341 11.6666 7.66732 11.3101 7.66732 10.8284ZM8.65055 4.33325C7.21249 4.33325 6.13395 5.16213 6.13395 6.50032C6.13395 6.69336 6.29044 6.84985 6.48348 6.84985H7.00278C7.16272 6.84985 7.29239 6.72019 7.29239 6.56024C7.29239 5.81125 7.8716 5.41179 8.65055 5.41179C9.40953 5.41179 9.90885 5.81125 9.90885 6.38049C9.90885 6.91976 9.62923 7.16942 8.93017 7.48899L8.73044 7.57887C8.14124 7.83851 7.92154 8.22799 7.92154 8.90707C7.92154 9.14244 8.11234 9.33325 8.34772 9.33325H8.7237C8.92046 9.33325 9.07997 9.17374 9.07997 8.97698C9.07997 8.67738 9.15986 8.55754 9.39954 8.44769L9.59927 8.35781C10.4381 7.97833 11.0673 7.479 11.0673 6.39047V6.33055C11.0673 5.1821 10.0686 4.33325 8.65055 4.33325Z" fill="currentColor"/>
</svg>
