<svg width="89" height="36" viewBox="0 0 89 36" fill="none" xmlns="http://www.w3.org/2000/svg">
<path fill-rule="evenodd" clip-rule="evenodd" d="M71 1.65H18C8.97014 1.65 1.65 8.97014 1.65 18C1.65 27.0299 8.97015 34.35 18 34.35H71C80.0299 34.35 87.35 27.0299 87.35 18C87.35 8.97015 80.0299 1.65 71 1.65ZM18 0C8.05887 0 0 8.05888 0 18C0 27.9411 8.05888 36 18 36H71C80.9411 36 89 27.9411 89 18C89 8.05888 80.9411 0 71 0H18Z" fill="currentColor"/>
<path fill-rule="evenodd" clip-rule="evenodd" d="M38.4463 11.2088V16.8073H40.8768C41.6143 16.824 42.2512 16.7234 42.7876 16.5391C43.3072 16.3547 43.7263 16.053 43.9945 15.6339C44.2626 15.2149 44.4135 14.6618 44.4135 13.9745C44.4135 13.0359 44.1453 12.3486 43.5922 11.8961C43.0558 11.4435 42.1842 11.2088 41.0277 11.2088H38.4463ZM38.4463 24.9032V19.355H40.86C42.3351 19.355 43.6089 19.1707 44.6314 18.8187C45.6539 18.4667 46.4584 17.8968 47.0283 17.109C47.5982 16.3212 47.8832 15.2819 47.8832 13.9745C47.8832 12.2145 47.3133 10.8904 46.1567 10.0188C45.0002 9.13039 43.2402 8.69458 40.8768 8.69458H38.4463H36.7031H35.0437V24.9032H38.4463ZM61.678 23.4591V23.4591L61.6781 23.4618C61.6949 23.9309 61.7451 24.4168 61.7954 24.9027L61.7955 24.9033H58.5269C58.4934 24.7859 58.4431 24.6016 58.3928 24.3837C58.3258 24.1658 58.2922 23.9479 58.2587 23.7299H58.1414C57.8564 23.9479 57.5547 24.1658 57.2027 24.3669C56.8507 24.5848 56.4149 24.7524 55.8953 24.8697C55.3757 25.0038 54.7387 25.0709 54.0012 25.0709C52.6938 25.0709 51.6546 24.7524 50.8668 24.1155C50.079 23.4785 49.6935 22.5734 49.6935 21.4168C49.6935 20.4949 49.9617 19.7574 50.4813 19.1875C51.0009 18.6176 51.8222 18.1818 52.9117 17.9304C54.0012 17.679 55.4428 17.5281 57.186 17.5281H58.2587V17.0588C58.2587 16.6565 58.1581 16.3213 57.9402 16.0531C57.7223 15.7849 57.4206 15.6005 57.0016 15.4999C56.5825 15.3994 56.0964 15.3491 55.493 15.3491C54.8728 15.3491 54.2527 15.3994 53.6157 15.4999C52.9788 15.6005 52.4088 15.7346 51.906 15.9022C51.4031 16.0698 50.9841 16.2375 50.6656 16.4051V13.9746C51.1853 13.7064 51.906 13.4718 52.8279 13.2874C53.7498 13.0862 54.8058 13.0024 56.0126 13.0024C57.2865 13.0024 58.3425 13.1198 59.1638 13.388C59.9852 13.6394 60.6053 14.0752 61.0244 14.6786C61.4434 15.282 61.6446 16.0866 61.6446 17.0755V22.037C61.6446 22.5222 61.6613 22.9906 61.678 23.4591ZM58.2755 19.506H57.2698C56.2641 19.506 55.4595 19.5563 54.8561 19.6736C54.2526 19.7909 53.8168 19.9753 53.5487 20.2267C53.2805 20.4949 53.1464 20.8469 53.1464 21.2995C53.1464 21.6347 53.2302 21.9364 53.381 22.1711C53.5319 22.4058 53.7833 22.5901 54.1018 22.7242C54.4202 22.8583 54.8393 22.9421 55.3422 22.9421C56.0126 22.9421 56.5825 22.8248 57.0854 22.6069C57.5714 22.389 57.9737 22.0873 58.2922 21.7018V19.506H58.2755ZM65.5669 25.775V28.2054C66.1871 28.4233 66.8407 28.5239 67.528 28.5071C68.232 28.5071 68.8689 28.4233 69.3885 28.2725C69.9249 28.1216 70.3942 27.8702 70.8132 27.5182C71.2323 27.1662 71.6011 26.7471 71.9531 26.2275C72.2883 25.7079 72.6068 25.1045 72.9085 24.3837L77.6521 13.1701H74.4338L71.0029 21.9555L67.3436 13.1701H63.8236L69.2033 25.1698C69.1277 25.2917 69.0502 25.4041 68.9695 25.5068C68.7851 25.7414 68.5504 25.9258 68.2823 26.0431C68.0141 26.1605 67.6788 26.2108 67.2765 26.2108C66.891 26.2108 66.5725 26.1772 66.3043 26.0934C66.0194 26.0264 65.7848 25.909 65.5669 25.775Z" fill="currentColor"/>
<path d="M7 18C7 11.9249 11.9249 7 18 7C24.0751 7 29 11.9249 29 18C29 24.0751 24.0751 29 18 29C11.9249 29 7 24.0751 7 18Z" fill="currentColor"/>
<path d="M19.5503 24.611H21.8484V11.411H18.5057C15.1439 11.411 13.3776 13.1394 13.3776 15.6844C13.3776 17.7166 14.3462 18.9132 16.0746 20.1477L13.0737 24.611H15.5618L18.9045 19.6159L17.746 18.8372C16.3405 17.8876 15.6568 17.1468 15.6568 15.5514C15.6568 14.146 16.6444 13.1963 18.5247 13.1963H19.5503V24.611Z" fill="white"/>
</svg>
