<svg xmlns="http://www.w3.org/2000/svg" fill="none" viewBox="0 0 240 84">
    <path fill="currentColor"
          d="M115.786 15v51.541h-10.782V15h10.782Zm13.756 24.944c1.647-.586 2.975-1.545 3.825-2.878.85-1.332 1.328-3.091 1.328-5.277 0-2.984-.85-5.17-2.603-6.609-1.7-1.439-4.462-2.185-8.126-2.185h-13.704V15h13.226c7.489 0 13.066 1.386 16.73 4.21 3.665 2.772 5.471 6.983 5.471 12.58 0 4.157-.903 7.462-2.709 9.967-1.806 2.505-4.355 4.317-7.595 5.436-3.24 1.12-7.277 1.706-11.951 1.706h-13.172v-8.102h13.226c2.337.053 4.355-.266 6.054-.853ZM189.284 57.432c0 1.546.053 3.038.106 4.53.054 1.493.213 3.038.372 4.584h-10.357c-.106-.373-.265-.96-.425-1.652-.212-.693-.319-1.386-.425-2.079h-.372c-.903.693-1.859 1.386-2.974 2.026-1.115.693-2.496 1.226-4.143 1.599-1.646.426-3.665.64-6.002.64-4.143 0-7.436-1.013-9.932-3.039-2.496-2.025-3.718-4.903-3.718-8.581 0-2.932.85-5.277 2.496-7.09 1.647-1.811 4.249-3.197 7.702-3.997 3.452-.8 8.02-1.279 13.544-1.279h3.399v-1.492c0-1.28-.319-2.345-1.009-3.198-.69-.853-1.647-1.44-2.974-1.76-1.328-.319-2.868-.479-4.781-.479-1.965 0-3.93.16-5.948.48-2.019.32-3.825.746-5.418 1.279-1.593.533-2.921 1.066-3.93 1.599v-7.729c1.646-.852 3.93-1.599 6.851-2.185 2.922-.64 6.268-.906 10.092-.906 4.037 0 7.383.373 9.985 1.226 2.603.8 4.568 2.185 5.896 4.104 1.328 1.919 1.965 4.477 1.965 7.622v15.777Zm-10.676-8.048h-3.187c-3.186 0-5.736.16-7.648.533s-3.293.959-4.143 1.758c-.85.853-1.274 1.973-1.274 3.412 0 1.066.265 2.025.743 2.771.478.747 1.275 1.333 2.284 1.76 1.009.426 2.337.692 3.93.692 2.125 0 3.931-.373 5.524-1.066 1.54-.693 2.815-1.652 3.824-2.878v-6.982h-.053ZM201.704 77.037v-7.729c.69.427 1.434.8 2.336 1.013.85.266 1.86.373 3.081.373 1.275 0 2.337-.16 3.187-.533a5.666 5.666 0 0 0 2.178-1.706c.584-.746 1.115-1.652 1.646-2.718l-.212 3.198-17.74-39.708h11.154l13.384 32.246-3.611.373 12.694-32.62h10.198l-15.032 35.658c-.956 2.292-1.965 4.211-3.027 5.863-1.115 1.653-2.284 2.985-3.612 4.104a11.926 11.926 0 0 1-4.514 2.399c-1.647.48-3.665.746-5.896.746-2.178.053-4.249-.266-6.214-.96Z"/>
    <path fill="#FC3F1D" fill-rule="evenodd"
          d="M42 84c23.196 0 42-18.804 42-42S65.196 0 42 0 0 18.804 0 42s18.804 42 42 42Zm14.688-16.598h-8.775V23.817h-3.916c-7.18 0-10.95 3.626-10.95 8.993 0 6.091 2.61 8.92 7.977 12.546l4.424 2.973-12.764 19.073h-9.5L34.642 50.36c-6.6-4.714-10.298-9.283-10.298-17.043C24.344 23.6 31.088 17 43.924 17h12.764v50.402Z"
          clip-rule="evenodd"/>
</svg>