<svg xmlns="http://www.w3.org/2000/svg" viewBox="0 0 207 84">
    <path fill="#FFF" d="M165 3H42C20.46 3 3 20.46 3 42s17.46 39 39 39h123c21.539 0 39-17.46 39-39S186.539 3 165 3ZM42 0C18.804 0 0 18.804 0 42s18.804 42 42 42h123c23.196 0 42-18.804 42-42S188.196 0 165 0H42Z"/>
    <path fill="#000" fill-rule="evenodd" d="M165 3H42C20.46 3 3 20.46 3 42s17.46 39 39 39h123c21.539 0 39-17.46 39-39S186.539 3 165 3ZM42 0C18.804 0 0 18.804 0 42s18.804 42 42 42h123c23.196 0 42-18.804 42-42S188.196 0 165 0H42Z" clip-rule="evenodd"/>
    <path fill="#000" d="M90.94 20.29v37.82H83V20.29h7.94Zm10.129 18.303c1.213-.43 2.19-1.134 2.816-2.112.626-.978.978-2.269.978-3.872 0-2.19-.626-3.794-1.917-4.85-1.251-1.056-3.285-1.603-5.983-1.603H86.872v-5.867h9.739c5.514 0 9.621 1.017 12.319 3.09 2.699 2.034 4.029 5.123 4.029 9.23 0 3.05-.665 5.475-1.995 7.314-1.33 1.838-3.207 3.168-5.593 3.989-2.385.821-5.358 1.252-8.8 1.252h-9.699v-5.945h9.739c1.72.039 3.207-.196 4.458-.626ZM145.066 51.424c0 1.135.039 2.23.078 3.325.039 1.095.156 2.23.274 3.363h-7.627a24.47 24.47 0 0 1-.313-1.212c-.156-.508-.235-1.017-.313-1.525h-.274c-.664.508-1.368 1.017-2.19 1.486-.821.508-1.838.9-3.05 1.173-1.213.313-2.699.47-4.42.47-3.051 0-5.475-.744-7.314-2.23-1.838-1.486-2.737-3.598-2.737-6.297 0-2.15.625-3.872 1.838-5.201 1.212-1.33 3.129-2.347 5.671-2.934 2.542-.586 5.906-.938 9.973-.938h2.503v-1.096c0-.938-.234-1.72-.743-2.346-.508-.626-1.212-1.056-2.19-1.29-.978-.235-2.112-.353-3.52-.353-1.447 0-2.894.118-4.38.352-1.487.235-2.816.548-3.99.939-1.173.391-2.151.782-2.894 1.173v-5.67c1.212-.627 2.894-1.174 5.045-1.604 2.151-.47 4.615-.665 7.431-.665 2.973 0 5.437.273 7.353.9 1.917.586 3.364 1.603 4.341 3.01.978 1.409 1.448 3.286 1.448 5.594v11.576Zm-7.862-5.905h-2.346c-2.347 0-4.224.117-5.632.39-1.408.275-2.425.705-3.051 1.291-.626.626-.939 1.448-.939 2.503 0 .783.196 1.487.548 2.034.352.548.939.978 1.682 1.291.743.313 1.721.508 2.894.508 1.564 0 2.894-.273 4.067-.782 1.135-.508 2.073-1.212 2.816-2.112V45.52h-.039ZM154.224 65.817v-5.671c.508.313 1.056.586 1.721.743.625.195 1.368.273 2.268.273.939 0 1.721-.117 2.347-.39a4.168 4.168 0 0 0 1.603-1.252c.43-.548.822-1.213 1.213-1.995l-.157 2.347-13.063-29.138h8.214l9.855 23.662-2.659.274 9.347-23.936h7.51L171.354 56.9c-.704 1.682-1.447 3.09-2.229 4.303-.821 1.212-1.682 2.19-2.66 3.011a8.778 8.778 0 0 1-3.324 1.76c-1.212.352-2.699.548-4.341.548a12.75 12.75 0 0 1-4.576-.704Z"/>
    <path fill="#FC3F1D" d="M14.89 42c0-14.76 11.967-26.727 26.728-26.727 14.761 0 26.727 11.967 26.727 26.728 0 14.76-11.966 26.727-26.727 26.727-14.761 0-26.727-11.966-26.727-26.727Z"/>
    <path fill="#fff" d="M45.393 58.057h5.584V25.984h-8.122c-8.169 0-12.46 4.2-12.46 10.384 0 4.937 2.353 7.845 6.553 10.844l-7.292 10.845h6.046l8.122-12.137-2.815-1.892c-3.415-2.307-5.077-4.107-5.077-7.983 0-3.415 2.4-5.723 6.969-5.723h2.492v27.735Z"/>
</svg>