<svg width="32" height="32" viewBox="0 0 32 32" fill="none" xmlns="http://www.w3.org/2000/svg">
<path d="M30.611 15.1396L31 13.8999L29.7121 13.9406C29.6028 13.9406 28.8122 13.9179 28.0449 13.3648C28.102 13.3695 28.1591 13.3781 28.2181 13.3781C29.0077 13.3781 29.7731 12.9045 30.0788 12.2274L30.6323 11.0037C29.9376 11.0132 29.3018 10.9251 29.3018 10.9251C29.297 10.9251 28.7958 10.8607 28.2181 10.2717C27.802 9.85022 27.2892 9.62671 26.7318 9.62671C26.5115 9.6273 26.2927 9.66215 26.0835 9.72994C26.1126 9.6305 26.1397 9.53011 26.1561 9.42688C26.3332 8.28092 25.593 7.40867 25.593 7.40962L24.6234 6.21441L24.0235 7.61608C24.0215 7.62081 23.8687 7.95039 23.5977 8.11045C23.496 7.61242 23.2486 7.15407 22.8856 6.79118C22.2824 6.17354 21.4459 5.8265 20.573 5.8318C20.333 5.8318 20.1617 5.85737 20.1211 5.864L18.9512 6.09319C19.0511 5.69861 19.2109 5.32095 19.4254 4.9728L20.0708 3.9727L18.4471 4.15643L17.9304 3.06351L16.9289 3.57682L16.0019 2.66669L15.0788 3.57682L14.0754 3.06351L13.5587 4.15643L11.936 3.97175L12.5824 4.9728C12.8456 5.38004 12.9888 5.8318 13.0555 6.09129L11.9389 5.87252L11.9002 5.86684C11.7466 5.84289 11.5913 5.83117 11.4358 5.8318C10.919 5.8318 9.93304 5.95681 9.12411 6.79118C8.76056 7.15396 8.51248 7.61228 8.41001 8.11045C8.14005 7.95134 7.99007 7.62744 7.99007 7.62744L7.38821 6.21631L6.40414 7.41909C6.28319 7.57346 5.69101 8.39457 5.8526 9.42688C5.8697 9.52901 5.89362 9.62993 5.9242 9.72899C5.71508 9.66097 5.49627 9.62581 5.2759 9.62481C4.71952 9.62481 4.20572 9.84927 3.79061 10.2707C3.21294 10.857 2.71559 10.9242 2.71946 10.9242C2.71946 10.9242 2.19307 11.018 1.37834 11.0028L1.92891 12.2264C2.23565 12.9036 3.00103 13.3771 3.78964 13.3771C3.84866 13.3771 3.90575 13.3676 3.96381 13.3639C3.48391 13.7129 2.90841 13.9138 2.31112 13.9406L1 13.8989L1.39769 15.1396C1.59799 15.7779 2.26564 16.8368 3.54483 16.9514C3.4055 17.531 3.09683 18.1825 2.41949 18.4619L1.4422 18.8625L1.97439 19.7869C2.27532 20.2841 2.98168 20.8665 3.98703 20.8665C4.20475 20.8665 4.41472 20.8448 4.61695 20.8021C4.66824 21.0294 4.73307 21.2567 4.81048 21.484C5.1085 22.3705 4.85112 22.9889 4.84821 22.9956L4.36537 24.0013L5.44233 24.2836C5.45588 24.2883 5.781 24.3773 6.18836 24.3773C6.49347 24.3799 6.79585 24.3209 7.07664 24.204C7.21597 24.4531 7.38627 24.6804 7.5827 24.8831C8.27261 25.5886 9.25087 25.9457 10.4894 25.9457H10.4933L11.3777 25.9343L9.55083 26.6901L10.9384 27.3568C11.4416 27.6021 12.0395 27.891 12.6482 28.1116L12.475 28.5833L12.953 28.8011C12.9956 28.82 13.9148 29.2292 15.4436 29.3163C15.4436 29.3163 15.8113 29.3334 16.0145 29.3334C16.2177 29.3334 16.5825 29.3144 16.5825 29.3144C18.1017 29.2254 19.0132 28.82 19.0557 28.8002L19.5357 28.5823L19.3605 28.1107C19.9856 27.8834 20.6059 27.5822 21.0887 27.3473L22.4501 26.6891L20.6291 25.9343L21.5174 25.9457C22.7578 25.9457 23.7361 25.5877 24.425 24.8821C24.6215 24.6804 24.7898 24.454 24.9301 24.204C25.2115 24.3201 25.514 24.3791 25.8194 24.3773C26.22 24.3773 26.549 24.2893 26.5577 24.2864L27.6395 24.0023L27.1682 23.0145C27.1566 22.9889 26.8992 22.3705 27.1973 21.4831C27.2747 21.2567 27.3385 21.0285 27.3908 20.8012C27.594 20.8448 27.8049 20.8665 28.0246 20.8675C28.8442 20.8731 29.6073 20.4595 30.0372 19.7765L30.5655 18.8616L29.5882 18.4629C28.909 18.1825 28.6013 17.5319 28.4639 16.9514C29.7266 16.8424 30.403 15.7827 30.611 15.1396Z" fill="white"/>
<path fill-rule="evenodd" clip-rule="evenodd" d="M18.1355 5.68905C17.5473 5.36332 16.7831 5.17771 16.0024 5.17763C15.2266 5.17771 14.4623 5.36332 13.8722 5.68905C13.8171 5.51005 13.7425 5.29223 13.64 5.06398L13.8625 5.0905L14.0957 5.11418L14.1964 4.90298L14.4895 4.27791L15.0353 4.55919L15.2462 4.66527L15.4146 4.50048L16.0019 3.91992L16.5922 4.50048L16.7615 4.66527L16.9725 4.55919L17.5143 4.27791L17.8124 4.90298L17.911 5.11418L18.1452 5.0905L18.3678 5.06398C18.2652 5.29223 18.1897 5.51005 18.1355 5.68905ZM16.0017 6.46561C14.9673 6.46656 14.1923 6.80371 14.0229 7.20148L16.0027 7.97808L17.9824 7.20148C17.815 6.80371 17.039 6.46656 16.0027 6.46561H16.0017ZM16.0226 27.0454H15.9838C15.3559 27.0492 14.4918 26.9223 14.0776 26.801L13.5764 28.1478C13.9054 28.2652 15.024 28.4887 16.0051 28.4887C16.9824 28.4887 18.1 28.2652 18.43 28.1478L17.9297 26.801C17.5127 26.9213 16.6496 27.0492 16.0235 27.0454H16.0226ZM18.1227 26.3762C18.6065 26.2294 19.4377 25.9141 19.8102 25.7048L19.5625 26.5145L20.4053 26.7939C19.8052 27.0865 19.1767 27.3194 18.5291 27.489L18.1227 26.3762ZM12.1956 25.7048L12.4453 26.5145L11.6015 26.7939C12.1105 27.0487 12.7307 27.2864 13.4767 27.489L13.8831 26.3762C13.4003 26.2294 12.5672 25.9141 12.1956 25.7048ZM27.9111 12.4067C28.0098 12.44 28.1135 12.4569 28.2178 12.4569C28.6591 12.4569 29.0848 12.1728 29.2319 11.8479C29.2319 11.8479 28.423 11.7987 27.5531 10.9198C27.2763 10.6357 26.9822 10.5504 26.7306 10.5504C26.3407 10.5504 26.0475 10.755 26.0475 10.755C26.615 11.0558 26.9387 11.4546 27.2106 11.7896C27.4421 12.0749 27.6361 12.3139 27.9111 12.4067ZM4.09292 12.4056C3.99513 12.4399 3.89198 12.4572 3.78812 12.4568C3.34785 12.4568 2.92017 12.1717 2.77502 11.8478C2.77502 11.8478 3.58298 11.7986 4.4519 10.9197C4.73058 10.6346 5.0228 10.5494 5.27631 10.5494C5.66433 10.5494 5.95848 10.7549 5.95848 10.7549C5.39259 11.0551 5.06903 11.4529 4.79702 11.7874C4.56439 12.0734 4.36947 12.3131 4.09292 12.4056Z" fill="white"/>
<path fill-rule="evenodd" clip-rule="evenodd" d="M28.2484 16.0378C28.231 16.0377 28.2136 16.0371 28.1962 16.0359V16.0368C27.6911 16.0188 27.4318 15.8256 27.4318 15.8256C27.4318 15.8256 27.2344 18.4897 29.2325 19.3156C29.2325 19.3156 28.8697 19.9444 28.0356 19.9444H28.0259C27.0234 19.9388 26.6209 19.3317 26.6209 19.3317C26.6209 19.3317 26.679 20.1215 26.3181 21.1889C25.8836 22.475 26.3219 23.3937 26.3219 23.3937C26.3219 23.3937 26.0878 23.4571 25.8188 23.4571C25.7162 23.4571 25.6078 23.4467 25.5082 23.4202C24.6712 23.2223 24.4631 22.4646 24.4631 22.4646C24.4631 22.4646 24.5396 25.0236 21.5419 25.0236H21.5196C21.5196 25.0236 21.7838 24.6656 21.8612 23.6371C22.0034 21.7391 23.2952 21.4778 23.2952 21.4778C23.2952 21.4778 22.6063 21.3916 22.3063 21.1264C21.8399 20.704 21.8728 20.2172 21.8728 20.2172C22.9275 20.203 23.6174 19.8459 24.1448 19.2398C24.7147 18.5826 24.8095 17.876 24.8095 17.876C24.8095 17.876 24.2415 18.3875 23.1452 18.3875C23.0485 18.3875 22.9459 18.3827 22.8395 18.3723C22.3199 18.3306 21.9618 18.0029 21.9618 18.0029C23.1036 17.2737 23.9038 16.0027 23.1946 14.0897C22.6256 12.5545 21.2584 11.4094 19.8824 10.5467C19.4238 10.2625 19.1693 9.94527 19.1693 9.67346C19.1693 9.28054 19.5134 9.12058 19.8661 8.95666C20.0889 8.8531 20.3151 8.74796 20.4601 8.58149C20.8946 8.08144 20.6227 7.2698 20.2472 6.78016C20.2472 6.78016 20.373 6.75554 20.5733 6.75554C21.1941 6.7496 21.7897 6.9958 22.2183 7.43553C22.9653 8.2055 22.6556 9.04555 22.6556 9.04555L22.8559 9.08344C22.9678 9.10708 23.0779 9.11291 23.1911 9.1189L23.2188 9.12037L23.3001 9.12132C24.3867 9.12132 24.8724 7.99052 24.8724 7.99052C24.8724 7.99052 26.0287 9.40544 24.3257 10.5135C24.0335 10.7029 23.9038 10.8791 23.9387 11.0666L23.9648 11.1897L24.0867 11.2106C25.2673 11.5301 25.8906 12.3203 26.6109 13.2334L26.7051 13.3528C27.8624 14.8161 29.4986 14.8634 29.7018 14.8634H29.7231C29.7231 14.8634 29.3496 16.0378 28.2484 16.0378ZM26.1437 16.981C26.2685 17.3617 26.7813 18.4215 27.5941 18.8202C27.5941 18.8202 26.5723 18.2074 26.1137 15.817V15.836C25.8098 13.4029 24.0352 11.6461 22.0594 10.5778C21.8774 10.4812 21.7081 10.3979 21.5446 10.3183C22.1455 10.4121 23.1141 10.4225 23.862 9.7785C23.862 9.7785 22.7173 10.6148 20.3757 9.85427C20.5636 9.97581 20.8032 10.112 21.0768 10.2674C21.7455 10.6474 22.6172 11.1428 23.4343 11.8223C26.3111 14.3377 24.2539 16.7906 24.2539 16.7906C25.2864 15.7166 25.3299 14.5669 25.0251 13.6274C25.5699 14.53 25.9182 15.6238 25.864 16.9734C25.7847 18.9064 24.7164 20.5789 23.593 21.9218C23.0531 22.5744 22.9331 23.3756 22.9331 23.3756C22.9331 23.3756 23.1508 22.6681 23.7749 21.9408C24.9796 20.5382 26.0082 19.0806 26.1437 16.981ZM8.23175 21.9404C7.02706 20.5378 5.99752 19.0803 5.86109 16.9806C5.73723 17.3623 5.22536 18.4202 4.41256 18.8198C4.41256 18.8198 5.43437 18.2071 5.89302 15.8176V15.8366C6.19685 13.4026 7.97146 11.6458 9.94733 10.5784C10.0993 10.4957 10.2445 10.425 10.3835 10.3573L10.4621 10.3189C9.86122 10.4117 8.89263 10.4231 8.14466 9.7772C8.14466 9.7772 9.28935 10.6144 11.631 9.85391C11.4424 9.97595 11.2023 10.1125 10.9281 10.2683L10.9281 10.2683C10.2599 10.6483 9.38984 11.143 8.57332 11.8219C5.69562 14.3373 7.75375 16.7912 7.75375 16.7912C6.71839 15.7163 6.67775 14.5665 6.98159 13.628C6.43682 14.5296 6.08848 15.6235 6.1446 16.973C6.22201 18.906 7.29026 20.5785 8.41173 21.9224C8.95359 22.574 9.07648 23.3743 9.07648 23.3743C9.07648 23.3743 8.85586 22.6678 8.23078 21.9404H8.23175ZM9.70119 21.1255C9.4022 21.3926 8.71229 21.4778 8.71229 21.4778C8.71229 21.4778 10.005 21.7392 10.1473 23.6372C10.2247 24.6657 10.4859 25.0237 10.4859 25.0237H10.4656C7.46696 25.0237 7.5434 22.4647 7.5434 22.4647C7.5434 22.4647 7.3344 23.2223 6.49838 23.4193C6.39871 23.4468 6.29228 23.4572 6.18874 23.4572C5.91878 23.4572 5.68558 23.3938 5.68558 23.3938C5.68558 23.3938 6.12197 22.4751 5.68751 21.189C5.32853 20.1226 5.38659 19.3318 5.38659 19.3318C5.38659 19.3318 4.98406 19.9388 3.98161 19.9455H3.97193C3.13881 19.9455 2.77499 19.3157 2.77499 19.3157C4.77215 18.4898 4.57572 15.8257 4.57572 15.8257C4.57572 15.8257 4.3164 16.018 3.81034 16.0369L3.75809 16.0379C2.65597 16.0379 2.28247 14.8644 2.28247 14.8644H2.30473C2.50889 14.8644 4.14417 14.8161 5.30047 13.3529L5.39663 13.2312C6.11696 12.319 6.74014 11.5299 7.91884 11.2106L8.04173 11.1898L8.06785 11.0667C8.10269 10.8792 7.97399 10.703 7.68081 10.5136C5.9807 9.40552 7.13507 7.9906 7.13507 7.9906C7.13507 7.9906 7.61888 9.1214 8.70842 9.1214L8.78776 9.12045L8.8168 9.11891C8.92971 9.11295 9.04098 9.10707 9.15062 9.08352L9.35091 9.04563C9.35091 9.04563 9.04031 8.20558 9.78924 7.43561C10.3534 6.85411 11.0384 6.75562 11.4342 6.75562C11.6345 6.75562 11.7593 6.78024 11.7593 6.78024C11.3848 7.26988 11.1129 8.08152 11.5464 8.58157C11.6917 8.74792 11.9176 8.85303 12.14 8.95651C12.4925 9.12051 12.8363 9.28043 12.8363 9.67354C12.8363 9.94535 12.5818 10.2626 12.1241 10.5467C10.7472 11.4095 9.38091 12.5555 8.81195 14.0897C8.10269 16.0038 8.90291 17.2738 10.0466 18.003C10.0466 18.003 9.68668 18.3307 9.16707 18.3733C9.0616 18.3828 8.95903 18.3875 8.86033 18.3875C7.76499 18.3875 7.19893 17.8761 7.19893 17.8761C7.19893 17.8761 7.29279 18.5826 7.85982 19.2399C8.3891 19.8451 9.07901 20.2031 10.1337 20.2173C10.1337 20.2173 10.1676 20.7041 9.70119 21.1255ZM15.3264 12.0503H16.7391V12.5333C16.5727 12.3307 16.2495 12.3723 16.2495 12.3723V13.0675C16.2495 13.0675 16.2621 13.4094 16.3821 13.5581H15.6835C15.8054 13.4094 15.816 13.0675 15.816 13.0675V12.3714C15.816 12.3714 15.4938 12.3307 15.3264 12.5324V12.0503ZM13.931 12.2905C13.8836 12.2328 13.8352 12.1759 13.7869 12.1239C13.7803 12.1186 13.7752 12.1129 13.7699 12.1072C13.7667 12.1036 13.7635 12.1 13.7598 12.0964C13.5392 11.8719 13.2769 11.7024 12.9325 11.6077L13.0873 11.5187H13.095L13.7046 11.1673L14.3287 10.8112L15.9998 11.7166L16.0027 11.7128L16.0066 11.7166L17.6767 10.8112L18.3018 11.1683L18.9104 11.5187H18.9191L19.072 11.6077C18.7558 11.694 18.4699 11.8637 18.2457 12.0983L18.2215 12.122C18.1083 12.2454 18.0044 12.3767 17.9109 12.515L17.8886 12.5481C17.8383 12.623 17.7899 12.7025 17.7415 12.7849C17.308 13.5274 16.6171 13.9725 16.0027 13.9725C15.3883 13.9716 14.6974 13.5284 14.2649 12.7849L14.2586 12.7744C14.2124 12.6977 14.1679 12.6235 14.1197 12.551C14.1168 12.5467 14.1139 12.5424 14.1111 12.5381C14.1047 12.5283 14.0984 12.5188 14.0917 12.5103C14.0501 12.4487 14.0065 12.3881 13.963 12.3313C13.9554 12.3198 13.9478 12.3107 13.9402 12.3016C13.9371 12.298 13.9341 12.2943 13.931 12.2905Z" fill="white"/>
<path fill-rule="evenodd" clip-rule="evenodd" d="M15.8577 11.1141V11.1147H15.8587L15.8577 11.1141ZM15.8577 11.1141V8.28954L14.0512 7.67963L14.5282 10.4167L15.8577 11.1141ZM15.471 9.43858V8.98399L14.6485 8.6402C14.6485 8.6402 14.6562 8.90444 15.0259 9.1895C15.2218 9.34406 15.3447 9.38538 15.3761 9.39591C15.3806 9.39744 15.3833 9.39832 15.3839 9.39881L15.471 9.43858ZM16.5355 8.98399L17.358 8.6402C17.358 8.6402 17.3502 8.90444 16.9796 9.1895C16.7785 9.34888 16.6542 9.38784 16.6277 9.39611L16.6277 9.39612C16.6248 9.39704 16.6231 9.39758 16.6226 9.39786L16.5355 9.43858V8.98399ZM17.9526 7.68067L17.4785 10.4177L16.148 11.1148V8.28964L17.9526 7.68067ZM13.3036 17.6626C13.4787 17.726 13.6925 17.7393 13.8019 17.7393L13.8174 17.6891C13.8279 17.6568 13.8366 17.6239 13.8435 17.5906C13.87 17.4426 13.8845 17.2929 13.887 17.1426C13.786 17.0827 13.7039 16.9965 13.65 16.8936C13.5822 16.7525 13.4874 16.6871 13.3471 16.6871C13.1662 16.6871 12.9707 16.796 12.8865 16.8472C12.8207 17.2374 13.1091 17.5916 13.3036 17.6626ZM16.3542 17.1152C16.5442 16.9303 17.028 16.4593 17.2994 16.1645C17.3858 16.2735 17.4905 16.3673 17.6091 16.442C17.5509 16.7453 17.6132 17.059 17.7832 17.3189C17.5084 17.5207 16.8021 18.034 16.5447 18.212L14.0763 17.7707L14.0927 17.7054C14.1357 17.5397 14.1585 17.3696 14.1605 17.1987L16.236 17.2318L16.2757 17.192C16.2815 17.1859 16.3099 17.1584 16.3542 17.1152Z" fill="white"/>
<path fill-rule="evenodd" clip-rule="evenodd" d="M16.2342 14.3676C16.6445 14.3269 17.1032 14.1517 17.5812 13.6801H20.7017C20.5663 14.038 20.453 14.4254 20.453 14.8099L20.455 17.2969C19.9325 17.2098 19.8705 16.6501 19.8686 16.6254L19.8589 16.5118L19.7467 16.5023C19.5193 16.4805 19.3703 16.3858 19.2426 16.2627C18.9861 16.007 18.9861 15.5941 18.9861 15.5903C18.9858 15.5927 18.982 15.5998 18.976 15.611C18.9282 15.6997 18.7409 16.0479 19.0277 16.4237C19.1632 16.6018 19.3606 16.7116 19.6151 16.7552C19.6751 17.0649 19.9073 17.5034 20.455 17.5697V18.7867H18.9145C18.2043 18.3927 18.5052 17.7013 18.5188 17.6729L18.5788 17.5403L18.4433 17.4892C17.6731 17.2051 17.886 16.4417 17.8956 16.4086L17.9266 16.2978L17.8231 16.2485C17.1873 15.9549 17.2735 15.167 17.2812 15.1329C17.0867 15.291 17.0151 15.6121 17.1506 15.9265C17.0814 16.0068 16.9894 16.1009 16.888 16.2046L16.888 16.2047L16.8729 16.2201C16.2149 16.0534 16.1946 15.453 16.1946 15.4246L16.1936 15.3327L16.1065 15.2986C15.8491 15.2039 15.674 15.0618 15.5869 14.8724C15.5151 14.7012 15.5022 14.5117 15.5501 14.3326C15.6976 14.364 15.8481 14.3798 15.9991 14.3799H16.0088C16.0841 14.3797 16.1594 14.3756 16.2342 14.3676ZM13.3941 16.4034L13.4357 14.8199H13.4347L13.7927 14.4439L14.0172 14.9117L13.575 16.4308L13.3941 16.4034ZM14.3926 20.6812C14.3678 20.6805 14.3444 20.6698 14.328 20.6517C14.3115 20.6336 14.3033 20.6097 14.3055 20.5855C14.307 20.5619 14.318 20.5398 14.3362 20.5242C14.3543 20.5085 14.3781 20.5006 14.4022 20.5022C14.4555 20.5031 14.4913 20.5495 14.4893 20.5969C14.4881 20.6207 14.4772 20.6431 14.459 20.6591C14.4409 20.6751 14.417 20.6834 14.3926 20.6821V20.6812ZM18.3531 22.0881C18.3386 22.0843 18.3232 22.0834 18.3096 22.0834V22.0824C18.2206 22.0824 18.1819 22.161 18.1819 22.161C18.242 22.3209 18.2571 22.4354 18.2707 22.5393C18.2859 22.6545 18.2993 22.7567 18.3706 22.8931C18.4567 23.0576 18.6008 23.1971 18.6867 23.2803C18.7013 23.2943 18.7141 23.3067 18.7247 23.3174C18.7247 23.3174 18.7044 23.4642 18.6841 23.5731L18.4915 24.5694C18.3686 24.5865 18.2399 24.595 18.1054 24.6007L18.3086 23.6423C18.3379 23.5037 18.1702 23.4116 17.9468 23.2888C17.7119 23.1597 17.4154 22.9967 17.221 22.7103C17.0353 22.9168 16.6869 22.9793 16.3366 22.9793C16.0164 22.9793 15.6961 22.9282 15.5025 22.8903C15.4552 22.8822 15.4074 22.8778 15.3593 22.877C15.2424 22.8701 15.1317 22.9288 15.0739 23.0286L15.0187 23.1233L13.9718 22.878L13.7125 23.307C13.6757 23.3771 13.6728 23.4348 13.7318 23.5002L13.8024 23.5769C13.7541 23.7284 13.5354 23.9586 13.5354 23.9586L13.3806 23.7644C13.2577 23.628 13.277 23.3771 13.4048 23.145L13.8208 22.4471L14.7072 22.5749L14.5698 22.2624C14.4409 21.9743 14.5393 21.6315 14.6209 21.3476C14.6562 21.2245 14.6884 21.1124 14.6975 21.0208C14.6868 21.1117 14.6027 21.1325 14.504 21.1325C14.4563 21.1325 14.4055 21.1276 14.3584 21.1231C14.3176 21.1191 14.2795 21.1155 14.2485 21.1155C14.2224 21.1155 14.2001 21.1183 14.1885 21.1268L13.9476 21.2727L13.7589 21.106C13.7357 21.0738 13.7289 20.999 13.7841 20.9422L14.2224 20.4525L13.7047 19.8502L14.4304 20.2129L14.651 19.9458C14.712 20.0046 14.6859 20.1599 14.6859 20.1599C14.9123 20.1665 15.5471 20.515 15.5809 21.3314L15.5819 21.411L15.5993 21.4375C15.6448 21.499 15.7686 21.6562 15.9254 21.6714L16.9278 21.7699H16.9327C16.9747 21.7699 17.033 21.751 17.1048 21.7278C17.2199 21.6905 17.3695 21.642 17.5423 21.642C17.7219 21.6432 17.8971 21.6959 18.0464 21.7936C18.1166 21.7453 18.1997 21.718 18.2854 21.715C18.297 21.7131 18.3106 21.7131 18.3202 21.7131C18.6976 21.7131 18.8891 21.9982 19.0838 22.2879C19.1213 22.3437 19.1588 22.3996 19.1979 22.4537C19.3798 22.7103 19.6227 23.0892 19.6227 23.0892C19.5327 23.1952 19.4495 23.254 19.3101 23.254C19.2714 23.254 19.2288 23.2511 19.1805 23.2416C18.9034 23.191 18.7626 22.8433 18.6406 22.5419C18.5504 22.3191 18.4704 22.1215 18.3531 22.0881Z" fill="white"/>
<path fill-rule="evenodd" clip-rule="evenodd" d="M13.341 23.122C13.31 23.2638 12.9636 23.4646 12.9636 23.4646V23.4659L12.8882 23.2344C12.7905 22.9085 12.864 22.5325 13.0672 22.3191L13.6303 21.8373L14.2283 22.0153C14.2167 22.2803 14.3299 22.481 14.3299 22.481L13.7048 22.3111L13.3304 22.6764C13.2655 22.7379 13.2617 22.8517 13.2946 22.9587L13.341 23.122ZM17.761 25.7517C17.6255 25.7517 17.5007 25.7544 17.3894 25.761L17.6826 24.4737C17.714 24.3533 17.6184 24.2097 17.5233 24.0668C17.4778 23.9984 17.4323 23.9302 17.401 23.8648C17.6277 24.055 17.8612 24.2292 18.1006 24.3867C18.0822 24.4269 17.761 25.7517 17.761 25.7517Z" fill="white"/>
<path fill-rule="evenodd" clip-rule="evenodd" d="M18.4763 18.7866H11.553V14.8098C11.553 14.4253 11.4398 14.038 11.3063 13.68H14.4259C14.7229 13.9726 15.0132 14.1564 15.289 14.2568C15.2249 14.4973 15.243 14.7517 15.3403 14.9813C15.4486 15.2171 15.646 15.398 15.9305 15.5183C15.9757 15.9345 16.2563 16.2904 16.6562 16.4388C16.4327 16.6623 16.215 16.8745 16.1269 16.9597L14.0562 16.9266C13.9879 16.8939 13.9312 16.8417 13.8937 16.7769C13.8914 16.7708 13.8881 16.766 13.8849 16.7612C13.8825 16.7577 13.8802 16.7543 13.8782 16.7504L14.2159 16.8044L14.2382 16.8053C14.3046 16.8055 14.3611 16.7579 14.3707 16.6936C14.383 16.621 14.3334 16.5522 14.2594 16.5392L13.8434 16.4739L14.304 14.8885L13.8676 13.9736L13.167 14.7104L13.1244 16.3583L12.6542 16.2844C12.5816 16.2702 12.5119 16.3233 12.4993 16.3962C12.4876 16.469 12.5375 16.5376 12.6116 16.5506L12.809 16.5809C12.7664 16.604 12.7251 16.6293 12.6851 16.6566L12.6464 16.685L12.6348 16.7333C12.5206 17.1965 12.779 17.635 13.0586 17.832L13.049 17.8897C13.0239 18.0341 13.1231 18.171 13.2705 18.1956C13.409 18.2162 13.5399 18.1279 13.5695 17.9939C13.675 18.0062 13.7698 18.0091 13.8356 18.0091H13.8898L16.6069 18.4977L16.6533 18.4665C16.8691 18.3169 17.6954 17.7183 17.9664 17.5194C18.0442 17.5872 18.1311 17.6442 18.2247 17.6889C18.1357 17.9816 18.1309 18.4314 18.4763 18.7866ZM11.5514 19.0558H20.4535L20.4555 22.3876C20.4555 23.4919 19.8023 24.2638 18.7766 24.5147L18.9489 23.6235C18.9513 23.6088 18.954 23.5934 18.9568 23.5776C18.9638 23.5375 18.9711 23.4952 18.976 23.4578C19.0259 23.4792 19.0782 23.4951 19.1318 23.5052C19.19 23.517 19.2493 23.5233 19.3088 23.5241C19.5711 23.5241 19.7249 23.3858 19.8265 23.2684L19.9581 23.1159L19.8507 22.9483C19.679 22.6755 19.4996 22.4073 19.3127 22.1442L19.3125 22.1439C19.1035 21.8324 18.8432 21.4443 18.319 21.4443H18.2725C18.197 21.4484 18.1227 21.4638 18.0519 21.4898C17.8874 21.4131 17.7171 21.3733 17.54 21.3733C17.3242 21.3733 17.1414 21.433 17.0194 21.4737C17.0103 21.4764 17.0015 21.4792 16.993 21.4819C16.9692 21.4895 16.948 21.4962 16.9295 21.4983L15.9502 21.4036C15.9377 21.4017 15.898 21.3771 15.8496 21.3203V21.3155L16.0605 21.2312C16.0005 20.5285 15.3232 20.0967 14.9458 19.9499C14.9294 19.8798 14.8955 19.8097 14.8355 19.7529L14.6256 19.554L14.4407 19.7746L14.3488 19.8864L12.9777 19.3267L13.8708 20.4414L13.5186 20.9717C13.3899 21.1081 13.5312 21.2445 13.5312 21.2445L13.895 21.4945L14.2724 21.3544C14.2806 21.3544 14.2881 21.3554 14.2955 21.3564C14.3003 21.3571 14.3052 21.3578 14.3101 21.3582C14.2992 21.3903 14.287 21.4763 14.2756 21.5562C14.2669 21.6173 14.2588 21.6748 14.2521 21.7019L13.598 21.5731L12.9109 21.9595C12.6006 22.1853 12.4886 22.5897 12.64 22.9379L12.7155 23.1046L12.8239 23.3385L13.0648 23.239C13.0679 23.2389 13.0709 23.2379 13.0735 23.2362C12.9874 23.5108 13.0222 23.7722 13.177 23.9437L13.3222 24.1255L13.5176 24.3698L13.7305 24.1425C13.7924 24.08 13.9966 23.8537 14.0595 23.6595L14.106 23.5099L14.0014 23.3962L13.985 23.3764L14.1011 23.1832L14.9555 23.3839L15.1481 23.4284L15.2497 23.2599L15.3058 23.169C15.3164 23.1491 15.3193 23.1462 15.358 23.1462C15.3893 23.1462 15.4205 23.1497 15.4509 23.1566C15.7419 23.2139 16.0376 23.2443 16.3344 23.2476C16.5908 23.2476 16.7437 23.2371 16.9266 23.1775L17.4007 23.7154L17.1201 24.5782L17.1065 24.6303C16.5743 24.6738 16.316 24.7894 16.0034 25.1C15.5487 24.6511 15.2265 24.6038 14.0053 24.6038C12.5423 24.6038 11.5514 23.7514 11.5514 22.3876V19.0558Z" fill="#FFE52B"/>
<path fill-rule="evenodd" clip-rule="evenodd" d="M18.3432 6.2134C17.8816 5.84783 17.0466 5.50309 16.0025 5.50309C14.9594 5.50309 14.1273 5.84783 13.6628 6.21434C13.6628 6.21434 13.5264 5.39323 13.058 4.66873L13.8989 4.76343L14.3382 3.83341L15.1849 4.26717L16.0025 3.46216L16.8221 4.26717L17.6668 3.83341L18.1061 4.76343L18.9479 4.66873C18.4796 5.39323 18.3432 6.2134 18.3432 6.2134ZM13.8623 5.08919L14.0946 5.11382L14.1962 4.90262L14.4894 4.27755L15.0351 4.55789L15.246 4.66585L16.0027 3.91861L16.592 4.50011L16.7613 4.66585L16.9723 4.55789L17.5141 4.27755L17.8122 4.90262L17.9109 5.11382L18.1441 5.09014L18.3666 5.06362C18.2762 5.26702 18.199 5.47579 18.1353 5.68869C17.547 5.3629 16.7826 5.17727 16.0027 5.17727C15.2257 5.17727 14.4623 5.3629 13.872 5.68869C13.8078 5.47587 13.7302 5.26712 13.6398 5.06362L13.8623 5.09014V5.08919ZM19.9296 26.3499L20.4424 26.545L21.0124 26.7572L20.8353 26.8429C20.2026 27.15 19.3808 27.5489 18.6243 27.7554L18.8207 28.2867C18.8207 28.2867 17.7699 28.764 16.0156 28.7678V28.7697H15.9914V28.7678C14.239 28.764 13.1882 28.2867 13.1882 28.2867L13.3837 27.7554C12.6349 27.551 11.8231 27.1583 11.1911 26.8525C11.1231 26.8196 11.0572 26.7877 10.9937 26.7572L11.5645 26.545L12.0793 26.3499L11.9342 25.8224L11.7813 25.2475C11.7813 25.2475 12.6889 25.7381 13.9691 26.1056C14.3319 26.2097 14.6077 26.2571 14.6077 26.2571V26.6492C14.6077 26.6492 15.2908 26.7666 15.9846 26.7666H16.0233C16.7152 26.7666 17.4002 26.6492 17.4002 26.6492V26.258C17.4002 26.258 17.675 26.2107 18.0379 26.1065C19.319 25.7381 20.2267 25.2475 20.2267 25.2475L20.0718 25.8224L19.9296 26.3499ZM11.6023 26.7936L12.4461 26.5142L12.1965 25.7045C12.569 25.9138 13.4021 26.2292 13.885 26.3769L13.4776 27.4897C12.8305 27.319 12.2024 27.0858 11.6023 26.7936ZM18.1227 26.376L18.5291 27.4897C19.2771 27.2852 19.8954 27.0475 20.4044 26.7936L19.5625 26.5142L19.8112 25.7045C19.4387 25.9138 18.6065 26.2292 18.1227 26.376ZM13.5762 28.1489C13.9071 28.2654 15.0247 28.4898 16.0049 28.4898C16.9822 28.4898 18.1018 28.2654 18.4308 28.1489L17.9305 26.8003C17.5135 26.9215 16.6503 27.0493 16.0233 27.0455H15.9837C15.3566 27.0493 14.4935 26.9215 14.0774 26.8003L13.5762 28.1489ZM29.232 19.3155C29.232 19.3155 28.8692 19.9453 28.0351 19.9453H28.0254C27.0239 19.9387 26.6204 19.3316 26.6204 19.3316C26.6204 19.3316 26.6785 20.1215 26.3175 21.1888C25.8831 22.4749 26.3214 23.3936 26.3214 23.3936C26.3214 23.3936 26.0873 23.457 25.8183 23.457C25.7131 23.458 25.6084 23.4453 25.5067 23.4192C24.6707 23.2222 24.4617 22.4645 24.4617 22.4645C24.4617 22.4645 24.5391 25.0235 21.5414 25.0235H21.5182C21.5182 25.0235 21.7833 24.6655 21.8607 23.637C22.0029 21.739 23.2947 21.4777 23.2947 21.4777C23.2947 21.4777 22.6048 21.3924 22.3068 21.1253C21.8394 20.7039 21.8723 20.2171 21.8723 20.2171C22.927 20.2029 23.6179 19.8449 24.1443 19.2397C24.4844 18.8503 24.7134 18.3798 24.8081 17.8759C24.8081 17.8759 24.241 18.3874 23.1447 18.3874C23.048 18.3874 22.9454 18.3826 22.839 18.3732C22.5151 18.3398 22.2093 18.2107 21.9623 18.0029C23.1041 17.2736 23.9043 16.0036 23.1941 14.0896C22.6251 12.5553 21.2588 11.4093 19.8819 10.5466C19.4242 10.2624 19.1688 9.94518 19.1688 9.67337C19.1688 9.28044 19.5129 9.12049 19.8656 8.95657C20.0884 8.85301 20.3146 8.74787 20.4596 8.58139C20.894 8.08134 20.6221 7.2697 20.2467 6.78006C20.2467 6.78006 20.3725 6.75544 20.5728 6.75544C20.9686 6.75544 21.6536 6.85394 22.2178 7.43544C22.9657 8.20541 22.6551 9.04546 22.6551 9.04546L22.8554 9.08334C22.9666 9.10704 23.077 9.11284 23.1912 9.11884L23.2183 9.12028L23.2995 9.12122C24.3862 9.12122 24.8719 7.99042 24.8719 7.99042C24.8719 7.99042 26.0273 9.40534 24.3262 10.5134C24.033 10.7028 23.9043 10.879 23.9382 11.0665L23.9643 11.1896L24.0853 11.2105C25.2652 11.5293 25.8876 12.3177 26.6058 13.2277L26.7046 13.3527C27.8619 14.8169 29.4991 14.8643 29.7013 14.8643H29.7226C29.7226 14.8643 29.3491 16.0377 28.2479 16.0377L28.1957 16.0367C27.6906 16.0178 27.4313 15.8255 27.4313 15.8255C27.4313 15.8255 27.2339 18.4896 29.232 19.3155ZM30.0681 14.971C30.0497 15.0297 29.5978 16.3963 28.248 16.3963L28.1851 16.3945C28.0399 16.3907 27.9112 16.3708 27.8 16.349C27.8541 17.0943 28.1289 18.4723 29.3704 18.9847L29.7507 19.141L29.5455 19.4961C29.5449 19.497 29.5439 19.4986 29.5426 19.5008C29.4971 19.5726 29.0354 20.303 28.0244 20.303C27.6492 20.3067 27.2787 20.2202 26.9455 20.0511C26.8934 20.4773 26.7978 20.8974 26.6601 21.305C26.2855 22.4123 26.6261 23.1929 26.6461 23.2387L26.6466 23.2399L26.8323 23.6301L26.4124 23.7418C26.4094 23.7424 26.4041 23.7436 26.3966 23.7453C26.3303 23.7603 26.0946 23.8138 25.8183 23.8138C25.396 23.8131 24.988 23.6638 24.6687 23.3933C24.5536 23.7437 24.3581 24.1396 24.0166 24.49C23.4389 25.0819 22.6058 25.3812 21.5172 25.3812L20.8583 25.3717L21.2231 24.8186C21.2231 24.8185 21.2233 24.8182 21.2237 24.8176C21.2364 24.7967 21.4377 24.466 21.5017 23.6111C21.5791 22.558 21.9788 21.9433 22.3736 21.591C22.2603 21.537 22.1529 21.4707 22.0639 21.3902C21.4833 20.8713 21.5075 20.2604 21.5114 20.1941L21.5366 19.8645L21.8665 19.8598C22.7538 19.8446 23.3712 19.5813 23.8734 19.0036C23.9904 18.8673 24.0843 18.7318 24.1607 18.5992C23.884 18.6835 23.5434 18.746 23.1447 18.746C23.0393 18.746 22.9261 18.7394 22.808 18.7318C22.1852 18.6788 21.7645 18.3099 21.7176 18.2688L21.7175 18.2687L21.373 17.9533L21.7669 17.7014C22.6445 17.1407 23.5482 16.0781 22.8554 14.2143C22.4084 13.003 21.3711 11.9044 19.6894 10.8531C19.1224 10.4952 18.8089 10.0747 18.8089 9.67309C18.8089 9.05276 19.3314 8.80747 19.7136 8.63321C19.7255 8.62752 19.7374 8.62183 19.7493 8.61614C19.9237 8.53283 20.0989 8.44914 20.1877 8.34719C20.4828 8.00625 20.2342 7.35277 19.9594 6.99857L19.6091 6.54018L20.1761 6.42654C20.1799 6.42654 20.1899 6.42521 20.2056 6.42312C20.2625 6.41557 20.3939 6.39812 20.5728 6.39812C20.9986 6.39812 21.8133 6.50041 22.4771 7.18514C23.0306 7.75433 23.1012 8.36045 23.0722 8.75254L23.2367 8.76201H23.2996C24.1263 8.76201 24.5213 7.89141 24.5398 7.85045L24.5401 7.84998L24.7752 7.30068L25.1506 7.76285C25.1748 7.79126 25.7283 8.47884 25.5948 9.34067C25.5048 9.91365 25.1438 10.4071 24.5226 10.8134C24.4559 10.8569 24.4075 10.8929 24.3736 10.9232C25.5384 11.3004 26.1919 12.1264 26.8795 12.9954L26.8885 13.0068L26.9881 13.1308C28.0438 14.4662 29.533 14.505 29.712 14.505H29.7139L30.22 14.4899L30.0681 14.971Z" fill="#1A1918"/>
<path fill-rule="evenodd" clip-rule="evenodd" d="M10.7836 24.8176C10.784 24.8182 10.7842 24.8186 10.7842 24.8187H10.7833L11.1481 25.3717L10.4891 25.3803C9.4015 25.3803 8.56838 25.0819 7.98878 24.49C7.64818 24.1396 7.45176 23.7437 7.33758 23.3933C7.01875 23.6646 6.6105 23.8139 6.18805 23.8138C5.89415 23.8138 5.64316 23.7534 5.5992 23.7429C5.59742 23.7424 5.59599 23.7421 5.5949 23.7418L5.17302 23.6301L5.35977 23.2399L5.36027 23.2387C5.38026 23.1929 5.72079 22.4123 5.34719 21.305C5.18463 20.8211 5.10045 20.3883 5.06077 20.0511C4.72856 20.2199 4.3591 20.3064 3.98478 20.303C2.9462 20.303 2.4851 19.535 2.46203 19.4966L2.46176 19.4961L2.25662 19.141L2.63496 18.9847C3.87641 18.4723 4.15218 17.0943 4.2083 16.349C4.08145 16.3746 3.95263 16.3898 3.82319 16.3945L3.75836 16.3964C2.40757 16.3964 1.95763 15.0297 1.93924 14.971L1.78442 14.4899L2.29339 14.5051C3.36574 14.4673 4.36491 13.9631 5.0182 13.1299L5.11786 13.0068L5.1229 13.0004C5.81096 12.1296 6.46473 11.3021 7.6327 10.9242C7.59883 10.8929 7.55239 10.856 7.48465 10.8134C6.86344 10.4071 6.50252 9.91366 6.41253 9.34068C6.27804 8.47885 6.83151 7.79127 6.85377 7.76381L7.23307 7.29974L7.46627 7.84904L7.46656 7.84968C7.4861 7.89279 7.88016 8.76202 8.70869 8.76202H8.76965L8.93318 8.75255C8.90512 8.36046 8.97769 7.75434 9.53116 7.1842C10.1959 6.50042 11.0087 6.39813 11.4345 6.39813C11.6361 6.39813 11.7766 6.41954 11.8181 6.42586C11.8236 6.4267 11.8273 6.42727 11.8293 6.42749L12.4001 6.53925L12.047 6.99858C11.7722 7.35278 11.5235 8.00626 11.8196 8.3472C11.908 8.44985 12.085 8.53398 12.2614 8.61785C12.2722 8.62297 12.283 8.62809 12.2937 8.63322C12.6759 8.80748 13.1965 9.05277 13.1965 9.6731C13.1965 10.0756 12.8859 10.4952 12.3179 10.8522C10.6342 11.9044 9.5989 13.0021 9.15089 14.2143C8.45904 16.0781 9.3599 17.1408 10.2414 17.7014L10.6342 17.9533L10.2898 18.2678C9.98319 18.5289 9.60164 18.691 9.19734 18.7318C9.07929 18.7394 8.96801 18.746 8.8606 18.746C8.51695 18.7475 8.17506 18.698 7.84654 18.5992C7.92946 18.7424 8.02566 18.8778 8.13392 19.0036C8.63515 19.5814 9.25346 19.8446 10.1388 19.8598L10.4717 19.8645L10.4939 20.1941C10.4978 20.2604 10.523 20.8713 9.9424 21.3903C9.85241 21.4708 9.74694 21.5371 9.63276 21.591C10.0276 21.9443 10.4281 22.558 10.5065 23.6111C10.5715 24.4664 10.7712 24.797 10.7836 24.8176ZM10.4647 25.023C7.46702 25.023 7.54346 22.4641 7.54346 22.4641C7.54346 22.4641 7.33445 23.2217 6.49843 23.4196C6.39727 23.4449 6.2932 23.4574 6.18879 23.4566C5.91883 23.4566 5.68563 23.3931 5.68563 23.3931C5.68563 23.3931 6.12203 22.4745 5.68757 21.1883C5.32858 20.1219 5.38761 19.3311 5.38761 19.3311C5.38761 19.3311 4.98411 19.9382 3.98166 19.9448H3.97198C3.13886 19.9448 2.77504 19.315 2.77504 19.315C4.77123 18.4892 4.57578 15.8251 4.57578 15.8251C4.57578 15.8251 4.31645 16.0183 3.81039 16.0363H3.75814C2.65506 16.0363 2.28252 14.8638 2.28252 14.8638H2.30478C2.50798 14.8638 4.14325 14.8165 5.30052 13.3523L5.3985 13.2283C6.11799 12.3171 6.74026 11.529 7.91889 11.21L8.04178 11.1882L8.06887 11.0651C8.10274 10.8785 7.97405 10.7024 7.68183 10.513C5.98076 9.40489 7.13512 7.98997 7.13512 7.98997C7.13512 7.98997 7.61893 9.12077 8.70847 9.12077L8.78781 9.11983L8.81684 9.11828C8.92976 9.11232 9.04103 9.10644 9.15067 9.08289L9.35097 9.04501C9.35097 9.04501 9.03939 8.20495 9.79026 7.43499C10.297 6.91359 11.0329 6.66868 11.7594 6.77961C11.3849 7.26925 11.113 8.08089 11.5465 8.58094C11.6917 8.74729 11.9177 8.8524 12.1401 8.95589C12.4926 9.11988 12.8363 9.27981 12.8363 9.67291C12.8363 9.94472 12.5818 10.262 12.1242 10.5461C10.7472 11.4089 9.38096 12.5549 8.812 14.0891C8.10274 16.0031 8.90296 17.2732 10.0467 18.0024C10.0467 18.0024 9.68673 18.3301 9.16712 18.3718C9.06068 18.3822 8.95908 18.3869 8.86038 18.3869C7.76504 18.3869 7.19899 17.8755 7.19899 17.8755C7.19899 17.8755 7.29284 18.582 7.85987 19.2393C8.38915 19.8454 9.07907 20.2024 10.1338 20.2167C10.1338 20.2167 10.1676 20.7034 9.70124 21.1258C9.40128 21.391 8.71234 21.4772 8.71234 21.4772C8.71234 21.4772 10.0051 21.7386 10.1473 23.6365C10.2247 24.665 10.486 25.023 10.486 25.023H10.4647ZM26.1134 15.8224V15.8174H26.1124L26.1134 15.8224ZM26.1134 15.8363V15.8224C26.5735 18.2077 27.5948 18.8196 27.5948 18.8196C26.782 18.4199 26.2682 17.362 26.1434 16.9804C26.0089 19.08 24.9794 20.5376 23.7747 21.9402C23.1506 22.6675 22.9328 23.375 22.9328 23.375C22.9328 23.375 23.0528 22.5738 23.5928 21.9212C24.7162 20.5783 25.7844 18.9058 25.8638 16.9728C25.9179 15.6232 25.5696 14.5294 25.0248 13.6268C25.3296 14.5663 25.2861 15.716 24.2527 16.79C24.2527 16.79 26.3108 14.3371 23.4341 11.8217C22.6164 11.1412 21.7434 10.6453 21.0741 10.2651C20.8017 10.1103 20.563 9.97476 20.3754 9.85367C22.718 10.6142 23.8618 9.77696 23.8618 9.77696C23.1138 10.4229 22.1452 10.4115 21.5443 10.3187C21.7177 10.4013 21.8894 10.4875 22.0591 10.5772C24.035 11.6455 25.8096 13.4023 26.1134 15.8363ZM25.8763 11.0721C26.3794 11.3392 26.6736 11.6971 26.931 12.0144L26.9354 12.0198C27.1854 12.3275 27.4247 12.6222 27.798 12.7456C27.9315 12.791 28.0737 12.8128 28.2179 12.8128C28.7801 12.8128 29.3462 12.47 29.561 11.9945L29.7768 11.5191L29.2542 11.4878C29.23 11.4878 28.5576 11.4263 27.8115 10.6667C27.5038 10.3542 27.1313 10.1913 26.7317 10.1913C26.2668 10.1913 25.9171 10.4107 25.8481 10.454L25.8395 10.4593L25.3596 10.7955L25.8763 11.0721ZM26.7319 10.5494C26.9835 10.5494 27.2767 10.6346 27.5534 10.9197C28.4242 11.7986 29.2322 11.8478 29.2322 11.8478C29.0851 12.1717 28.6594 12.4568 28.2181 12.4568C28.1137 12.4571 28.0099 12.4398 27.9114 12.4057C27.6362 12.3133 27.4422 12.0743 27.2105 11.7889C26.9387 11.4542 26.6151 11.0555 26.0478 10.7549C26.0478 10.7549 26.341 10.5494 26.7319 10.5494Z" fill="#1A1918"/>
<path fill-rule="evenodd" clip-rule="evenodd" d="M15.026 9.18889C15.2241 9.34568 15.3486 9.38618 15.3763 9.39519C15.3797 9.3963 15.3817 9.39693 15.3821 9.39724L15.4702 9.43797V8.98337L14.6477 8.63959C14.6477 8.63959 14.6554 8.90287 15.0251 9.18889H15.026ZM6.14428 16.9731C6.08816 15.6235 6.4365 14.5296 6.98127 13.6271C6.67744 14.5666 6.71905 15.7163 7.75343 16.7903C7.75343 16.7903 5.69531 14.3374 8.573 11.822C9.39165 11.1412 10.2641 10.6453 10.933 10.265C11.205 10.1104 11.4433 9.97495 11.6307 9.85395C9.28904 10.6144 8.14532 9.77819 8.14532 9.77819C8.89232 10.4222 9.8609 10.4118 10.4618 10.318L10.4175 10.3397C10.2683 10.4126 10.1125 10.4888 9.94702 10.5775C7.97115 11.6458 6.19654 13.4026 5.8927 15.8357V15.8167C5.43405 18.2071 4.41225 18.8199 4.41225 18.8199C5.22505 18.4212 5.73692 17.3614 5.86174 16.9807C5.99721 19.0803 7.02675 20.5379 8.23047 21.9405C8.85555 22.6678 9.0752 23.3753 9.0752 23.3753C9.0752 23.3753 8.95328 22.5741 8.41141 21.9215C7.28898 20.5786 6.22266 18.9061 6.14428 16.9731ZM4.20804 12.7461C4.07451 12.7916 3.93324 12.8134 3.7881 12.8134V12.8124C3.22591 12.8124 2.66082 12.4696 2.44504 11.9951L2.2312 11.5187L2.75371 11.4875C2.77694 11.4875 3.4475 11.4259 4.19546 10.6664C4.5022 10.3548 4.87473 10.191 5.27629 10.191C5.74751 10.191 6.09996 10.4164 6.16094 10.4554L6.1665 10.459L6.64741 10.7952L6.12876 11.0717C5.63057 11.3362 5.34108 11.6907 5.08463 12.0047L5.08463 12.0047L5.08463 12.0047L5.07696 12.0141L5.06259 12.0316C4.81439 12.3349 4.57827 12.6235 4.20804 12.7461ZM5.27631 10.5498C5.0228 10.5498 4.73058 10.6351 4.4519 10.9192C3.58298 11.7981 2.77502 11.8473 2.77502 11.8473C2.92017 12.1712 3.34785 12.4554 3.78812 12.4554C3.89187 12.4564 3.99503 12.4398 4.09292 12.4061C4.36873 12.3132 4.56349 12.0737 4.79588 11.788C5.06815 11.4532 5.39207 11.0549 5.95848 10.7544C5.95848 10.7544 5.66433 10.5498 5.27631 10.5498ZM15.3261 12.5327V12.0497H16.7388V12.5318C16.5724 12.3301 16.2492 12.3708 16.2492 12.3708V13.0669C16.2492 13.0669 16.2618 13.4088 16.3818 13.5575H15.6832C15.8061 13.4088 15.8157 13.0669 15.8157 13.0669V12.3717C15.8157 12.3717 15.4935 12.3301 15.3261 12.5327ZM17.358 8.63959C17.358 8.63959 17.3502 8.90287 16.9787 9.18889H16.9796C16.7785 9.34741 16.6542 9.38705 16.6277 9.39547C16.6248 9.39641 16.6231 9.39696 16.6226 9.39724L16.5355 9.43797V8.98337L17.358 8.63959Z" fill="#1A1918"/>
<path fill-rule="evenodd" clip-rule="evenodd" d="M16.0069 6.03009C17.2939 6.03009 18.4598 6.64947 18.4598 7.33894L18.4347 7.50847L17.9209 10.4444L18.4347 10.7427L19.7729 11.5184H19.768C19.768 11.5184 20.068 11.6718 20.2054 11.7665C20.7173 12.1188 20.8237 12.6312 20.5276 12.8433C20.4551 12.4247 20.1232 11.9881 19.502 11.9881C19.0539 11.9881 18.7133 12.2164 18.4347 12.563C18.365 12.6501 18.2982 12.7429 18.2353 12.8433C18.1579 12.9693 18.0805 13.0801 18.0031 13.1871H21.444C21.1904 13.6928 20.9505 14.2289 20.9505 14.8104V22.3888C20.9505 24.2224 19.5349 25.0975 18.0012 25.0975C17.9126 25.0975 17.8297 25.0972 17.752 25.0969C16.7883 25.0935 16.6067 25.0928 16.005 25.6922C15.4006 25.0928 15.218 25.0935 14.2557 25.0969C14.178 25.0972 14.0953 25.0975 14.0069 25.0975C12.4732 25.0975 11.0566 24.2224 11.0566 22.3879V14.8104C11.0566 14.2289 10.8157 13.6928 10.5631 13.1871H14.004C13.9265 13.0801 13.8491 12.9693 13.7717 12.8433C13.7088 12.7429 13.6411 12.6501 13.5695 12.563C13.2947 12.2182 12.9531 11.9881 12.5051 11.9881C11.8829 11.9881 11.551 12.4247 11.4785 12.8433C11.1834 12.6312 11.2917 12.1188 11.7997 11.7665C11.9391 11.6727 12.24 11.5193 12.24 11.5193H12.2352L13.5705 10.7427L14.0862 10.4444L13.5724 7.50941L13.5472 7.33894C13.5472 6.64947 14.7132 6.03009 16.0001 6.03009H16.0069ZM14.0234 7.20112L16.0021 7.97866H16.0031L17.9829 7.20112C17.8155 6.8043 17.0385 6.46619 16.0031 6.46525C14.9678 6.46619 14.1917 6.80335 14.0234 7.20112ZM16.1482 11.1146L17.4787 10.4176L17.9538 7.68054L16.1482 8.29046V11.1146ZM18.3017 11.1662L18.9113 11.5175H18.919L19.0719 11.6066C18.7284 11.7013 18.4662 11.8717 18.2456 12.0971L18.2214 12.1208C18.1698 12.1758 18.1205 12.2327 18.0733 12.2913L18.0443 12.3273C17.9976 12.3879 17.953 12.4501 17.9108 12.5139L17.8885 12.547C17.837 12.6244 17.7879 12.7033 17.7415 12.7838C17.308 13.5272 16.6171 13.9705 16.0026 13.9714C15.3882 13.9714 14.6964 13.5263 14.2648 12.7838C14.2186 12.7045 14.1702 12.6265 14.1197 12.5498L14.0906 12.5091C14.0495 12.4482 14.0069 12.3882 13.9629 12.3292C13.9558 12.3191 13.9487 12.3107 13.9416 12.3022L13.931 12.2894C13.8846 12.2322 13.8362 12.1766 13.7858 12.1227C13.7816 12.1186 13.7779 12.1144 13.7743 12.1104L13.7743 12.1104C13.7697 12.1052 13.7652 12.1001 13.7597 12.0953C13.5353 11.8612 13.2494 11.6921 12.9334 11.6066L13.0882 11.5175H13.095L13.7046 11.1671L14.3296 10.8101L15.9997 11.7155L16.0026 11.7117L16.0075 11.7155L17.6766 10.8101L18.3017 11.1662ZM20.4532 14.8097C20.4532 14.4252 20.5665 14.0379 20.7019 13.6799H17.5813C17.1033 14.1515 16.6447 14.3267 16.2344 14.3674C16.1599 14.375 16.0854 14.3797 16.008 14.3797H15.9983C15.8477 14.3788 15.6976 14.3629 15.5503 14.3324C15.5025 14.5115 15.5154 14.7009 15.5871 14.8722C15.6742 15.0616 15.8503 15.2037 16.1067 15.2984L16.1928 15.3316L16.1948 15.4253C16.213 15.8094 16.4902 16.1346 16.8731 16.2209L16.89 16.2034L16.89 16.2034C16.9906 16.0996 17.0811 16.0063 17.1508 15.9282C17.0163 15.6119 17.0859 15.2908 17.2814 15.1327C17.2736 15.1658 17.1875 15.9547 17.8223 16.2483L17.9268 16.2976L17.8958 16.4093C17.8861 16.4415 17.6742 17.2049 18.4435 17.489L18.579 17.5401L18.519 17.6718C18.5054 17.7011 18.2045 18.3934 18.9147 18.7865H20.4552V17.5695C19.9075 17.5032 19.6753 17.0647 19.6153 16.755C19.3608 16.7114 19.1634 16.6016 19.0279 16.4235C18.7419 16.0469 18.9286 15.6993 18.9762 15.6108C18.9822 15.5996 18.986 15.5925 18.9863 15.5901C18.9863 15.5948 18.9863 16.0068 19.2427 16.2625C19.3753 16.3999 19.5546 16.4851 19.7469 16.5021L19.8591 16.5116L19.8688 16.6253C19.8707 16.6499 19.9327 17.2096 20.4552 17.2967L20.4532 14.8097ZM18.778 24.5144L18.9502 23.6232L18.9773 23.4575C19.0832 23.4991 19.196 23.5216 19.3101 23.5238C19.5724 23.5238 19.7262 23.3855 19.8278 23.2681L19.9594 23.1165L19.852 22.9479C19.8423 22.9309 19.6033 22.5559 19.4195 22.2983C19.383 22.2477 19.3478 22.1962 19.314 22.1439C19.106 21.8323 18.8447 21.443 18.3203 21.443L18.2738 21.444C18.1984 21.4483 18.124 21.4636 18.0532 21.4895C17.8937 21.4135 17.7187 21.3737 17.5413 21.373C17.3246 21.373 17.1427 21.4326 17.0217 21.4734C17.008 21.4771 16.9948 21.4811 16.9823 21.4849C16.963 21.4907 16.9454 21.496 16.9308 21.4989L15.9515 21.4033C15.939 21.4004 15.8993 21.3777 15.8509 21.3199V21.3152L16.0618 21.23C16.0028 20.5282 15.3255 20.0963 14.9472 19.9495C14.9305 19.8748 14.8922 19.8064 14.8368 19.7525L14.6269 19.5536L14.4421 19.7743L14.3511 19.8861L12.979 19.3263L13.8721 20.441L13.5199 20.9714C13.3912 21.1078 13.5325 21.2442 13.5325 21.2442L13.8973 21.4932L14.2747 21.354C14.2819 21.354 14.2885 21.355 14.2953 21.3559L14.2953 21.3559C14.3004 21.3567 14.3057 21.3574 14.3114 21.3578C14.3005 21.39 14.2883 21.476 14.2769 21.5558C14.2682 21.617 14.2601 21.6745 14.2534 21.7016L13.5993 21.5737L12.9123 21.9592C12.6011 22.1848 12.489 22.59 12.6413 22.9385L12.7168 23.1042L12.8261 23.3381L13.0661 23.2396L13.0758 23.2349C12.9887 23.5096 13.0235 23.7719 13.1783 23.9433L13.3235 24.1261L13.5189 24.3704L13.7318 24.1422C13.7938 24.0797 13.9979 23.8533 14.0608 23.6592L14.1073 23.5105L14.0028 23.3969L13.9853 23.376L14.1024 23.1828L14.9568 23.3836L15.1494 23.4281L15.251 23.2595L15.3071 23.1686C15.3178 23.1497 15.3207 23.1459 15.3594 23.1459C15.3903 23.1459 15.4203 23.1487 15.4532 23.1563C15.7754 23.2169 16.0725 23.2463 16.3367 23.2463C16.5921 23.2463 16.745 23.2368 16.9269 23.1771L17.402 23.7151L17.1214 24.5769L17.1088 24.6299C16.5766 24.6726 16.3173 24.789 16.0048 25.0997C15.55 24.6508 15.2278 24.6044 14.0066 24.6044C12.5436 24.6044 11.5528 23.7511 11.5528 22.3882V19.0545H20.4548L20.4568 22.3882C20.4568 23.4925 19.8046 24.2634 18.778 24.5153V24.5144ZM13.3411 22.7464L13.2947 22.6309C13.2628 22.556 13.2666 22.4746 13.3305 22.4301L13.705 22.1725L14.33 22.2928C14.2597 22.197 14.2239 22.081 14.2284 21.9632L13.6305 21.8372L13.0673 22.1782C12.8641 22.3292 12.7906 22.5953 12.8883 22.826L12.9638 22.9898C12.9638 22.9898 13.3102 22.8468 13.3411 22.7464ZM18.6845 23.5729L18.492 24.5692C18.3691 24.5863 18.2404 24.5958 18.1059 24.6005L18.3091 23.643C18.3383 23.5046 18.1709 23.4124 17.9476 23.2896C17.7127 23.1604 17.416 22.9971 17.2215 22.7101C17.0367 22.9166 16.6874 22.9791 16.3371 22.9791C16.0568 22.9751 15.7776 22.9453 15.503 22.8901C15.4557 22.882 15.4078 22.8775 15.3598 22.8768C15.2429 22.8699 15.1321 22.9287 15.0744 23.0284L15.0192 23.1231L13.9722 22.8778L13.712 23.3068C13.6762 23.3769 13.6733 23.4347 13.7323 23.5L13.8029 23.5767C13.7545 23.7283 13.5368 23.9584 13.5368 23.9584L13.381 23.7642C13.2581 23.6279 13.2775 23.3759 13.4062 23.1449L13.8213 22.4469L14.7076 22.5747L14.5702 22.2622C14.4409 21.9726 14.54 21.6282 14.6217 21.3441C14.6568 21.2221 14.6887 21.1113 14.698 21.0206C14.6873 21.1115 14.6022 21.1323 14.5044 21.1323C14.4567 21.1323 14.406 21.1274 14.3589 21.1229H14.3589H14.3588C14.318 21.119 14.28 21.1153 14.249 21.1153C14.2229 21.1153 14.2006 21.1181 14.189 21.1266L13.9481 21.2725L13.7594 21.1049C13.7361 21.0736 13.7294 20.9978 13.7845 20.942L14.2229 20.4523L13.7052 19.85L14.4309 20.2127L14.6515 19.9456C14.7125 20.0053 14.6863 20.1597 14.6863 20.1597C14.9128 20.1654 15.5475 20.5148 15.5814 21.3312C15.5833 21.3558 15.5833 21.3833 15.5833 21.4108L15.5998 21.4373C15.6443 21.4988 15.7691 21.6561 15.9259 21.6712L16.9283 21.7697H16.9331C16.9752 21.7697 17.0335 21.7507 17.1053 21.7273C17.2203 21.6897 17.37 21.6409 17.5427 21.6409C17.6956 21.6409 17.865 21.6797 18.0459 21.7934C18.0459 21.7934 18.1388 21.7214 18.2859 21.7148C18.2975 21.7129 18.3101 21.7129 18.3207 21.7129C18.6998 21.7129 18.892 21.9999 19.0873 22.2914C19.1238 22.3459 19.1604 22.4005 19.1983 22.4535C19.3803 22.7092 19.6231 23.089 19.6231 23.089C19.5331 23.195 19.4499 23.2538 19.3106 23.2538C19.267 23.254 19.2236 23.2499 19.1809 23.2415C18.904 23.1903 18.7632 22.8427 18.6412 22.5415C18.5509 22.3185 18.4709 22.121 18.3536 22.0879C18.3394 22.0841 18.3248 22.0822 18.3101 22.0822C18.222 22.0822 18.1833 22.1608 18.1833 22.1608C18.2428 22.3199 18.2577 22.4343 18.2712 22.5381C18.2863 22.6537 18.2997 22.7562 18.371 22.8929C18.4561 23.0554 18.5978 23.1936 18.6841 23.2776L18.6841 23.2777C18.6999 23.293 18.7138 23.3066 18.7252 23.3182C18.7252 23.3182 18.7058 23.464 18.6845 23.5729ZM17.3894 24.6141C17.5129 24.6095 17.6364 24.6072 17.76 24.6074C17.8701 24.284 17.9836 23.9616 18.1006 23.6405C17.9206 23.5619 17.5462 23.363 17.401 23.273C17.4322 23.3193 17.4778 23.3676 17.5237 23.4162L17.5237 23.4162C17.6186 23.5167 17.7142 23.618 17.6836 23.703L17.3894 24.6141ZM13.3936 16.4027L13.3936 16.4018L13.5745 16.4302L14.0157 14.9111L13.7922 14.4442L13.4352 14.8192L13.3936 16.4018L13.3936 16.4018V16.4027ZM13.8875 17.1425C13.814 17.0961 13.7085 17.0147 13.6504 16.8934C13.5837 16.7533 13.4879 16.687 13.3476 16.687C13.1657 16.687 12.9712 16.7959 12.8879 16.847C12.8202 17.2372 13.1105 17.5914 13.304 17.6634C13.4649 17.7148 13.6331 17.7404 13.8023 17.7392C13.8087 17.7228 13.8139 17.7061 13.8178 17.689C13.8279 17.6565 13.8366 17.6237 13.844 17.5905C13.8739 17.4333 13.8856 17.2562 13.8875 17.1425ZM17.7831 17.3183C17.5083 17.5191 16.802 18.0333 16.5446 18.2114L14.0762 17.77L14.0927 17.7038C14.1256 17.5768 14.1585 17.4026 14.1604 17.198L16.2359 17.2312L16.2746 17.1914C16.2794 17.1866 16.2984 17.1682 16.3282 17.1392L16.3282 17.1392C16.497 16.9754 17.0149 16.4728 17.2993 16.1638C17.3787 16.2633 17.4783 16.358 17.609 16.4413C17.5645 16.6838 17.5838 17.0285 17.7831 17.3183ZM15.2891 14.2566C15.0133 14.1562 14.723 13.9735 14.4259 13.6799H11.3063C11.4399 14.0379 11.5531 14.4252 11.5531 14.8097V18.7874H18.4774C18.1309 18.4313 18.1368 17.9815 18.2238 17.6888C18.1232 17.6415 18.04 17.5837 17.9655 17.5202C17.6955 17.7182 16.8701 18.3158 16.6534 18.4673L16.607 18.4976L13.8908 18.0089H13.8347C13.7699 18.0089 13.6741 18.0061 13.5706 17.9938C13.5444 18.1127 13.4375 18.198 13.3132 18.1993C13.2269 18.1998 13.146 18.1582 13.0974 18.0885C13.0545 18.0313 13.037 17.9596 13.049 17.8896L13.0587 17.8318C12.78 17.6348 12.5207 17.1963 12.6349 16.7332L12.6465 16.6849L12.6862 16.6565C12.7258 16.6293 12.7668 16.604 12.8091 16.5807L12.6117 16.5504C12.5381 16.5381 12.4878 16.469 12.4994 16.3961C12.512 16.3222 12.5817 16.2701 12.6542 16.2843L13.1245 16.3582L13.1671 14.7103L13.8676 13.9735L14.305 14.8883L13.8434 16.4737L14.2585 16.5391C14.3329 16.5516 14.383 16.6205 14.3708 16.6934C14.3612 16.7578 14.3047 16.8054 14.2382 16.8052C14.2311 16.8054 14.224 16.8051 14.2169 16.8042L13.8783 16.7503C13.8804 16.7548 13.8829 16.7583 13.8854 16.7618C13.8885 16.7661 13.8916 16.7704 13.8938 16.7768C13.931 16.8418 13.9878 16.894 14.0563 16.9264L16.127 16.9586C16.2151 16.8734 16.4328 16.6622 16.6563 16.4377C16.1464 16.2455 15.9616 15.8089 15.9296 15.5181C15.6451 15.3979 15.4487 15.217 15.3394 14.9821C15.2068 14.6904 15.2542 14.3987 15.2891 14.2566ZM14.0514 7.6795L15.8589 8.28941V11.1145L14.5284 10.4175L14.0514 7.68044V7.6795Z" fill="#1A1918"/>
</svg>
