<svg xmlns="http://www.w3.org/2000/svg" fill="none" viewBox="0 0 204 60">
  <path fill="#000" d="M129.4 23.7l-3.1 7.63c-.09.09-.09.26-.09.35l-.09.18-.08-.18c0-.09-.1-.26-.1-.35l-3.09-7.62h-3.98l5.22 13.02-2.21 4.97h3.98l7.34-18h-3.8zM100.03 24.42c-.7-.53-1.59-.89-2.65-.98a5.68 5.68 0 00-4.6 1.6v-1.42h-3.63v13.02h3.63v-6.82c0-1.5.27-1.95.53-2.3.44-.71 1.24-1.07 2.21-1.07.98 0 1.86.45 2.3 1.16.27.53.35 1.24.35 1.6v7.43h3.63v-7.88c0-2.04-.53-3.46-1.77-4.34zM82.34 23.8a7.36 7.36 0 00-5.48.26 6.12 6.12 0 00-2.83 2.57 6.6 6.6 0 00-.89 3.55 6.43 6.43 0 003.36 5.94c1.06.53 2.3.88 3.45.88.62 0 1.24-.09 1.86-.27a6.45 6.45 0 004.95-6.56 6.6 6.6 0 00-4.42-6.37zm.97 6.55c-.08 1.16-.44 2.13-1.15 2.75-.53.44-1.32.71-2.3.8a3.3 3.3 0 01-2.3-.8c-.7-.62-1.06-1.6-1.15-2.75a3.4 3.4 0 013.37-3.72c.8 0 1.41.27 2.03.62 1.06.62 1.6 1.77 1.5 3.1zM68.9 24.42c-.7-.53-1.6-.89-2.65-.98h-.62c-1.42 0-2.66.62-3.72 1.86l-.18.27h-.35c-.26-.44-.62-.8-.97-1.06-.7-.54-1.6-.89-2.66-.98-1.67-.18-3 .36-4.15 1.6V23.8h-3.63v13.02h3.63v-7c0-1.42.18-1.77.44-2.21a2.23 2.23 0 012.12-1.07c.89 0 1.68.45 2.13 1.16.35.53.35 1.15.35 1.77v7.26h3.63v-7c0-1.33.17-1.77.44-2.21.44-.71 1.24-1.07 2.12-1.07.89 0 1.6.45 2.03 1.16.27.44.36.97.36 1.33v7.71h3.63v-7.98c0-.7-.1-1.42-.27-2.04a4.65 4.65 0 00-1.68-2.21zM115.42 32.75a5.47 5.47 0 01-3.45 1.6 4.03 4.03 0 01-3.27-1.16 3.68 3.68 0 01-.8-1.42h10v-.09c.09-.53.17-.97.17-1.5 0-.45-.08-1.07-.26-1.86a6.83 6.83 0 00-5.4-4.79 7 7 0 00-6.98 3.1c-1.07 1.69-.98 3.37-.98 3.9 0 .62.1 2.57 1.68 4.34 1.86 2.04 4.43 2.13 5.22 2.22 3.54.09 5.93-2.13 6.46-2.57l-2.39-1.77zm-6.2-5.5a3.4 3.4 0 011.95-.62c.8 0 1.42.27 2.04.62.53.45.97.98 1.24 1.6h-6.37a2.6 2.6 0 011.15-1.6z"/>
  <path fill="#8B3FFD" d="M25.38 16c-7.78 0-13.97 6.3-13.97 14 0 7.8 6.28 14 13.97 14 7.7 0 13.98-6.3 13.98-14s-6.28-14-13.98-14zm0 19.14a5.3 5.3 0 01-5.21-5.23 5.3 5.3 0 015.21-5.23 5.3 5.3 0 015.22 5.23 5.3 5.3 0 01-5.22 5.23zM11.32 19.99v20.38H6.37L0 19.99h11.32z"/>
</svg>
